<?xml version="1.0" standalone="no"?>
<!DOCTYPE svg PUBLIC "-//W3C//DTD SVG 1.1//EN" "http://www.w3.org/Graphics/SVG/1.1/DTD/svg11.dtd" >
<svg xmlns="http://www.w3.org/2000/svg" xmlns:xlink="http://www.w3.org/1999/xlink" version="1.1">
<metadata>
Created by FontForge 20190801 at Wed Mar 30 16:48:33 2011
 By Jimmy Wärting
(c) Copyright (c) 2010. All rights reserved. Fakt is a design by Thomas Thiemich, published by OurType. www.ourtype.com
</metadata>
<defs>
<font id="FaktPro-Blond" horiz-adv-x="352" >
  <font-face 
    font-family="Fakt Pro Blond"
    font-weight="350"
    font-stretch="normal"
    units-per-em="1000"
    panose-1="2 0 0 0 0 0 0 0 0 0"
    ascent="748"
    descent="-252"
    x-height="488"
    cap-height="688"
    bbox="-171 -313 1127 1012"
    underline-thickness="50"
    underline-position="-100"
    stemh="59"
    stemv="68"
    unicode-range="U+0020-FB04"
  />
<missing-glyph horiz-adv-x="712" 
d="M0 0v720h712v-720h-712zM232 184l126 129l126 -129l52 52l-127 130l127 130l-52 52l-126 -129l-126 129l-52 -52l126 -130l-126 -130z" />
    <glyph glyph-name="fi" unicode="fi" horiz-adv-x="535" 
d="M387 0v433h-219v-433h-68v433h-97v55h97v86c0 106 54 158 155 158h50v-59h-44c-67 0 -93 -33 -93 -102v-83h287v-488h-68zM384 636v96h74v-96h-74z" />
    <glyph glyph-name="fl" unicode="fl" horiz-adv-x="535" 
d="M100 0v433h-97v55h97v86c0 106 54 158 155 158h200v-732h-68v673h-126c-67 0 -93 -33 -93 -102v-83h111v-55h-111v-433h-68z" />
    <glyph glyph-name="f_b" unicode="fb" horiz-adv-x="883" 
d="M387 0v673h-126c-67 0 -93 -33 -93 -102v-83h111v-55h-111v-433h-68v433h-97v55h97v86c0 106 54 158 155 158h200v-149c0 -25 0 -134 -3 -182h3c31 67 96 98 172 98c121 0 213 -94 213 -251s-98 -259 -219 -259c-76 0 -135 31 -166 98h-3v-87h-65zM455 244
c0 -124 69 -196 157 -196s157 77 157 200s-69 192 -157 192c-86 0 -154 -69 -157 -187v-9z" />
    <glyph glyph-name="f_f_b" unicode="ffb" horiz-adv-x="1170" 
d="M387 0v433h-219v-433h-68v433h-97v55h97v86c0 106 54 158 155 158h50v-59h-44c-67 0 -93 -33 -93 -102v-83h219v86c0 106 54 158 155 158h200v-149c0 -25 -1 -134 -3 -182h3c31 67 96 98 172 98c121 0 213 -94 213 -251s-98 -259 -219 -259c-76 0 -135 31 -166 98h-3v-87
h-65v673h-126c-67 0 -93 -33 -93 -102v-83h129v-55h-129v-433h-68zM899 440c-86 0 -154 -69 -157 -187v-18c3 -119 71 -187 157 -187c88 0 157 77 157 200s-70 192 -157 192z" />
    <glyph glyph-name="f_f_h" unicode="ffh" horiz-adv-x="1152" 
d="M387 0v433h-219v-433h-68v433h-97v55h97v86c0 106 54 158 155 158h50v-59h-44c-67 0 -93 -33 -93 -102v-83h219v86c0 106 54 158 155 158h200v-146c0 -25 -1 -130 -3 -178h3c29 61 89 91 160 91c96 0 177 -53 177 -200v-299h-68v290c0 110 -50 150 -123 150
c-82 0 -146 -68 -146 -186v-254h-68v673h-126c-67 0 -93 -33 -93 -102v-83h129v-55h-129v-433h-68z" />
    <glyph glyph-name="f_f_j" unicode="ffj" horiz-adv-x="822" 
d="M387 0v433h-219v-433h-68v433h-97v55h97v86c0 106 54 158 155 158h56v-59h-50c-67 0 -93 -33 -93 -102v-83h219v86c0 106 54 158 155 158h50v-59h-44c-67 0 -93 -33 -93 -102v-83h287v-584c0 -76 -36 -124 -125 -124h-30v59h24c44 0 63 23 63 77v517h-219v-433h-68z
M671 636v96h74v-96h-74z" />
    <glyph glyph-name="f_f_k" unicode="ffk" horiz-adv-x="1090" 
d="M387 0v433h-219v-433h-68v433h-97v55h97v86c0 106 54 158 155 158h50v-59h-44c-67 0 -93 -33 -93 -102v-83h219v86c0 106 54 158 155 158h200v-508l238 264h81l-182 -197l203 -291h-81l-168 241l-91 -99v-142h-68v673h-126c-67 0 -93 -33 -93 -102v-83h129v-55h-129v-433
h-68z" />
    <glyph glyph-name="f_f_t" unicode="fft" horiz-adv-x="890" 
d="M387 0v433h-219v-433h-68v433h-97v55h97v86c0 106 54 158 155 158h50v-59h-44c-67 0 -93 -33 -93 -102v-83h219v86c0 106 54 158 155 158h50v-59h-44c-67 0 -93 -33 -93 -102v-83h210v148h68v-148h133v-55h-133v-290c0 -62 27 -84 75 -84h58v-59h-64
c-91 0 -137 44 -137 140v293h-210v-433h-68z" />
    <glyph glyph-name="f_h" unicode="fh" horiz-adv-x="865" 
d="M387 0v673h-126c-67 0 -93 -33 -93 -102v-83h111v-55h-111v-433h-68v433h-97v55h97v86c0 106 54 158 155 158h200v-147c0 -25 0 -130 -3 -178h2c30 62 91 92 161 92c97 0 177 -53 177 -200v-299h-68v290c0 110 -50 150 -123 150c-82 0 -146 -68 -146 -186v-254h-68z" />
    <glyph glyph-name="f_j" unicode="fj" horiz-adv-x="535" 
d="M300 -161h24c44 0 63 25 63 79v515h-219v-433h-68v433h-97v55h97v86c0 106 54 158 155 158h50v-59h-44c-67 0 -93 -33 -93 -102v-83h287v-582c0 -76 -36 -126 -125 -126h-30v59zM384 636v96h74v-96h-74z" />
    <glyph glyph-name="f_k" unicode="fk" horiz-adv-x="803" 
d="M387 0v673h-126c-67 0 -93 -33 -93 -102v-83h111v-55h-111v-433h-68v433h-97v55h97v86c0 106 54 158 155 158h200v-508l238 264h81l-182 -197l203 -291h-80l-169 241l-91 -99v-142h-68z" />
    <glyph glyph-name="f_t" unicode="ft" horiz-adv-x="603" 
d="M378 140v293h-210v-433h-68v433h-97v55h97v86c0 106 54 158 155 158h47v-59h-41c-67 0 -93 -33 -93 -102v-83h210v148h68v-148h133v-55h-133v-290c0 -62 27 -84 75 -84h58v-59h-64c-91 0 -137 44 -137 140z" />
    <glyph glyph-name="ff" unicode="ff" horiz-adv-x="583" 
d="M100 0v433h-97v55h97v86c0 106 54 158 155 158h50v-59h-44c-67 0 -93 -33 -93 -102v-83h219v86c0 106 54 158 155 158h53v-59h-47c-67 0 -93 -33 -93 -102v-83h124v-55h-124v-433h-68v433h-219v-433h-68z" />
    <glyph glyph-name="ffi" unicode="ffi" horiz-adv-x="822" 
d="M387 0v433h-219v-433h-68v433h-97v55h97v86c0 106 54 158 155 158h56v-59h-50c-67 0 -93 -33 -93 -102v-83h219v86c0 106 54 158 155 158h50v-59h-44c-67 0 -93 -33 -93 -102v-83h287v-488h-68v433h-219v-433h-68zM671 636v96h74v-96h-74z" />
    <glyph glyph-name="ffl" unicode="ffl" horiz-adv-x="819" 
d="M387 0v433h-219v-433h-68v433h-97v55h97v86c0 106 54 158 155 158h50v-59h-44c-67 0 -93 -33 -93 -102v-83h219v86c0 106 54 158 155 158h197v-732h-68v673h-123c-67 0 -93 -33 -93 -102v-83h129v-55h-129v-433h-68z" />
    <glyph glyph-name=".notdef" horiz-adv-x="712" 
d="M0 0v720h712v-720h-712zM232 184l126 129l126 -129l52 52l-127 130l127 130l-52 52l-126 -129l-126 129l-52 -52l126 -130l-126 -130z" />
    <glyph glyph-name="space" unicode=" " horiz-adv-x="216" 
 />
    <glyph glyph-name="exclam" unicode="!" horiz-adv-x="256" 
d="M109 189l-21 315v184h80v-184l-21 -315h-38zM88 0v102h80v-102h-80z" />
    <glyph glyph-name="quotedbl" unicode="&#x22;" horiz-adv-x="384" 
d="M82 436l-12 165v87h68v-87l-12 -165h-44zM258 436l-12 165v87h68v-87l-12 -165h-44z" />
    <glyph glyph-name="numbersign" unicode="#" horiz-adv-x="606" 
d="M62 465v53h126l30 170h62l-30 -170h165l30 170h62l-30 -170h110v-53h-119l-42 -237h118v-53h-127l-30 -175h-62l30 175h-165l-30 -175h-62l30 175h-109v53h118l42 237h-117zM241 465l-42 -237h165l42 237h-165z" />
    <glyph glyph-name="dollar" unicode="$" horiz-adv-x="568" 
d="M46 188h68c6 -90 75 -143 166 -143c96 0 161 52 161 138c0 72 -45 101 -130 127l-98 29c-71 22 -151 67 -151 177c0 100 75 169 183 181v107h68v-107c98 -12 175 -78 183 -177h-68c-10 82 -72 123 -149 123c-83 0 -146 -42 -146 -121c0 -75 45 -100 122 -124l97 -30
c110 -33 160 -88 160 -182c0 -112 -82 -184 -198 -195v-111h-68v111c-115 11 -195 84 -200 197z" />
    <glyph glyph-name="percent" unicode="%" horiz-adv-x="764" 
d="M176 336c-99 0 -144 80 -144 180s45 180 144 180c100 0 144 -80 144 -180s-44 -180 -144 -180zM176 383c56 0 85 51 85 133s-28 133 -85 133c-56 0 -85 -51 -85 -133s30 -133 85 -133zM181 -12c83 171 265 541 349 712h53l-349 -712h-53zM588 -8c-99 0 -144 80 -144 180
s45 180 144 180s144 -80 144 -180s-45 -180 -144 -180zM588 39c56 0 85 51 85 133s-28 133 -85 133c-56 0 -85 -51 -85 -133s30 -133 85 -133z" />
    <glyph glyph-name="ampersand" unicode="&#x26;" horiz-adv-x="696" 
d="M52 176c0 108 80 160 166 201c-61 63 -91 103 -91 163c0 84 68 159 182 159c111 0 180 -64 180 -152c0 -99 -85 -142 -174 -182l197 -199c27 51 38 111 38 167v11h62v-20c0 -47 -12 -130 -56 -202l121 -122h-81l-76 75c-47 -50 -118 -86 -222 -86
c-157 0 -246 73 -246 187zM298 45c83 0 142 29 181 72l-222 221c-74 -35 -137 -77 -137 -156c0 -87 72 -137 178 -137zM189 543c0 -46 32 -83 87 -139c79 36 148 72 148 143c0 54 -41 99 -115 99c-77 0 -120 -47 -120 -103z" />
    <glyph glyph-name="quoteright" unicode="&#x2019;" horiz-adv-x="231" 
d="M79 436l29 146h-33v106h80v-100l-39 -152h-37z" />
    <glyph glyph-name="parenleft" unicode="(" horiz-adv-x="275" 
d="M31 260c0 213 95 391 164 484h62c-59 -78 -161 -272 -161 -484s105 -410 161 -488h-62c-69 93 -164 275 -164 488z" />
    <glyph glyph-name="parenright" unicode=")" horiz-adv-x="275" 
d="M18 -228c56 78 161 276 161 488s-102 406 -161 484h62c69 -93 164 -271 164 -484s-95 -395 -164 -488h-62z" />
    <glyph glyph-name="asterisk" unicode="*" horiz-adv-x="450" 
d="M197 696h56l-13 -141l129 57l17 -53l-137 -32l92 -104l-45 -32l-72 120l-71 -120l-44 32l91 105l-136 31l17 53l128 -55z" />
    <glyph glyph-name="plus" unicode="+" horiz-adv-x="568" 
d="M57 224v59h196v197h62v-197h196v-59h-196v-196h-62v196h-196z" />
    <glyph glyph-name="comma" unicode="," horiz-adv-x="244" 
d="M115 0h-36v112h86v-106l-42 -162h-40z" />
    <glyph glyph-name="hyphen" unicode="-" horiz-adv-x="396" 
d="M60 221v62h276v-62h-276z" />
    <glyph glyph-name="period" unicode="." horiz-adv-x="244" 
d="M79 0v112h86v-112h-86z" />
    <glyph glyph-name="slash" unicode="/" horiz-adv-x="401" 
d="M17 -12l308 712h59l-308 -712h-59z" />
    <glyph glyph-name="zero" unicode="0" horiz-adv-x="568" 
d="M284 -11c-168 0 -237 155 -237 355s69 355 237 355s237 -155 237 -355s-69 -355 -237 -355zM284 51c113 0 166 113 166 293s-53 293 -166 293c-115 0 -166 -113 -166 -293s53 -293 166 -293z" />
    <glyph glyph-name="one" unicode="1" horiz-adv-x="568" 
d="M96 484l-30 52l220 152h52v-629h175v-59h-429v59h186v545z" />
    <glyph glyph-name="two" unicode="2" horiz-adv-x="568" 
d="M61 0c5 154 60 219 166 289l76 50c72 47 131 79 131 167c0 70 -49 134 -144 134c-91 0 -151 -48 -158 -155h-62c7 162 113 214 220 214c122 0 212 -72 212 -193c0 -119 -82 -162 -156 -210l-76 -50c-105 -69 -128 -120 -132 -187h371v-59h-448z" />
    <glyph glyph-name="three" unicode="3" horiz-adv-x="568" 
d="M51 205h65c0 -106 69 -157 164 -157c96 0 166 51 166 140c0 85 -75 140 -166 140h-52v59h52c79 0 141 51 141 129c0 80 -64 124 -141 124s-141 -43 -141 -138h-62c0 124 85 197 203 197c122 0 206 -73 206 -182c0 -72 -51 -138 -113 -156v-4c79 -18 141 -86 141 -174
c0 -122 -104 -194 -234 -194c-136 0 -229 71 -229 216z" />
    <glyph glyph-name="four" unicode="4" horiz-adv-x="568" 
d="M34 182v49l338 458h55v-448h105v-59h-105v-182h-68v182h-325zM105 241h254v341z" />
    <glyph glyph-name="five" unicode="5" horiz-adv-x="568" 
d="M54 180h68c9 -65 59 -132 163 -132c87 0 164 59 164 166c0 102 -68 167 -163 167c-60 0 -108 -28 -147 -81l-63 3l20 385h381v-62h-319l-14 -248h3c33 41 83 62 148 62c125 0 222 -85 222 -220c0 -152 -111 -231 -232 -231c-139 0 -219 81 -231 191z" />
    <glyph glyph-name="six" unicode="6" horiz-adv-x="568" 
d="M53 328c0 275 123 371 254 371c129 0 194 -76 206 -183h-68c-9 70 -49 124 -138 124c-95 0 -183 -81 -183 -312v-1c26 69 107 113 189 113c129 0 216 -89 216 -223c0 -145 -109 -228 -229 -228c-136 0 -247 89 -247 339zM137 209c0 -92 69 -161 160 -161
c92 0 164 61 164 169c0 97 -68 164 -157 164c-96 0 -167 -69 -167 -172z" />
    <glyph glyph-name="seven" unicode="7" horiz-adv-x="568" 
d="M158 0l289 626h-392v62h466v-49l-292 -639h-71z" />
    <glyph glyph-name="eight" unicode="8" horiz-adv-x="568" 
d="M47 183c0 88 63 156 141 174v4c-64 18 -113 83 -113 156c0 109 85 182 209 182s209 -73 209 -182c0 -73 -49 -138 -113 -156v-4c78 -18 141 -86 141 -174c0 -122 -98 -194 -237 -194s-237 72 -237 194zM115 188c0 -89 71 -140 169 -140s169 51 169 140
c0 84 -75 140 -169 140s-169 -56 -169 -140zM284 387c82 0 144 51 144 129c0 80 -64 127 -144 127s-144 -47 -144 -127c0 -78 62 -129 144 -129z" />
    <glyph glyph-name="nine" unicode="9" horiz-adv-x="568" 
d="M515 360c0 -275 -107 -371 -247 -371c-132 0 -198 76 -213 183h68c12 -67 53 -124 145 -124c104 0 176 81 176 312v1c-27 -70 -107 -113 -189 -113c-129 0 -216 89 -216 223c0 145 109 228 229 228c136 0 247 -89 247 -339zM431 479c0 83 -65 161 -160 161
c-88 0 -164 -61 -164 -169c0 -97 68 -164 157 -164c96 0 167 69 167 172z" />
    <glyph glyph-name="colon" unicode=":" horiz-adv-x="244" 
d="M79 376v112h86v-112h-86zM79 0v112h86v-112h-86z" />
    <glyph glyph-name="semicolon" unicode=";" horiz-adv-x="244" 
d="M79 376v112h86v-112h-86zM115 0h-36v112h86v-106l-42 -162h-40z" />
    <glyph glyph-name="less" unicode="&#x3c;" horiz-adv-x="568" 
d="M73 225v59l422 180v-62l-353 -146l353 -146v-65z" />
    <glyph glyph-name="equal" unicode="=" horiz-adv-x="568" 
d="M57 329v59h454v-59h-454zM57 120v59h454v-59h-454z" />
    <glyph glyph-name="greater" unicode="&#x3e;" horiz-adv-x="568" 
d="M495 284v-59l-422 -180v62l355 146l-355 146v65z" />
    <glyph glyph-name="question" unicode="?" horiz-adv-x="485" 
d="M205 196v28c0 184 173 168 173 298c0 70 -53 118 -128 118c-94 0 -144 -65 -144 -156h-68c0 119 72 215 212 215c115 0 199 -66 199 -174c0 -164 -176 -154 -176 -292v-37h-68zM199 0v102h79v-102h-79z" />
    <glyph glyph-name="at" unicode="@" horiz-adv-x="1032" 
d="M305 126c0 76 47 126 155 144l106 17c49 8 65 15 65 40c0 76 -39 116 -116 116c-76 0 -121 -38 -126 -107h-65c5 96 76 163 188 163c123 0 187 -65 187 -181v-167c0 -89 44 -112 89 -112c68 0 133 70 133 233c0 234 -175 377 -401 377c-243 0 -409 -177 -409 -416
c0 -238 164 -411 396 -411c93 0 176 29 231 87h77c-71 -91 -180 -137 -308 -137c-265 0 -455 196 -455 461s191 466 468 466c260 0 460 -167 460 -427c0 -198 -95 -280 -198 -280c-61 0 -118 22 -138 91c-33 -64 -99 -94 -179 -94c-102 0 -160 56 -160 137zM631 200v62
c-11 -13 -31 -21 -56 -25l-106 -17c-67 -11 -96 -42 -96 -91c0 -53 38 -87 104 -87c81 0 154 56 154 158z" />
    <glyph glyph-name="A" unicode="A" horiz-adv-x="631" 
d="M15 0l259 688h83l259 -688h-74l-73 198h-310l-73 -198h-71zM316 614h-4l-131 -355h265z" />
    <glyph glyph-name="B" unicode="B" horiz-adv-x="655" 
d="M88 0v688h276c146 0 213 -65 213 -174c0 -70 -40 -128 -117 -150v-3c91 -14 144 -78 144 -160c0 -116 -76 -201 -223 -201h-293zM381 327h-222v-265h222c103 0 152 57 152 138c0 72 -49 127 -152 127zM364 626h-205v-237h207c91 0 140 55 140 126c0 68 -40 111 -142 111z
" />
    <glyph glyph-name="C" unicode="C" horiz-adv-x="708" 
d="M47 344c0 201 131 355 327 355c158 0 259 -91 289 -223h-73c-28 100 -100 158 -216 158c-153 0 -253 -124 -253 -290c0 -163 100 -290 250 -290c121 0 190 58 219 158h73c-31 -132 -134 -223 -292 -223c-193 0 -324 151 -324 355z" />
    <glyph glyph-name="D" unicode="D" horiz-adv-x="696" 
d="M91 0v688h197c239 0 361 -143 361 -344s-122 -344 -361 -344h-197zM288 626h-126v-564h126c204 0 287 128 287 282s-83 282 -287 282z" />
    <glyph glyph-name="E" unicode="E" horiz-adv-x="606" 
d="M91 0v688h456v-62h-385v-244h309v-62h-309v-258h393v-62h-464z" />
    <glyph glyph-name="F" unicode="F" horiz-adv-x="570" 
d="M91 0v688h448v-62h-377v-269h301v-61h-301v-296h-71z" />
    <glyph glyph-name="G" unicode="G" horiz-adv-x="755" 
d="M629 0l-12 118h-1c-48 -89 -129 -129 -239 -129c-195 0 -330 154 -330 355c0 205 137 355 335 355c162 0 265 -94 293 -213h-74c-22 80 -94 148 -219 148c-158 0 -261 -123 -261 -290c0 -163 104 -290 256 -290c121 0 234 69 234 210v34h-230v62h295v-360h-47z" />
    <glyph glyph-name="H" unicode="H" horiz-adv-x="716" 
d="M91 0v688h71v-308h392v308h71v-688h-71v318h-392v-318h-71z" />
    <glyph glyph-name="I" unicode="I" horiz-adv-x="253" 
d="M91 0v688h71v-688h-71z" />
    <glyph glyph-name="J" unicode="J" horiz-adv-x="513" 
d="M45 193v35h71v-29c0 -107 52 -148 124 -148c69 0 123 42 123 148v489h71v-495c0 -146 -82 -204 -194 -204c-114 0 -195 58 -195 204z" />
    <glyph glyph-name="K" unicode="K" horiz-adv-x="646" 
d="M91 0v688h71v-401l370 401h84l-280 -298l294 -390h-80l-261 340l-127 -136v-204h-71z" />
    <glyph glyph-name="L" unicode="L" horiz-adv-x="541" 
d="M91 0v688h71v-626h351v-62h-422z" />
    <glyph glyph-name="M" unicode="M" horiz-adv-x="887" 
d="M91 0v688h86l267 -592h2l264 592h86v-688h-71l6 576h-3l-257 -576h-55l-257 567h-3l6 -567h-71z" />
    <glyph glyph-name="N" unicode="N" horiz-adv-x="723" 
d="M91 0v688h68l402 -568h3l-3 568h71v-688h-68l-402 565h-3l3 -565h-71z" />
    <glyph glyph-name="O" unicode="O" horiz-adv-x="754" 
d="M47 344c0 204 133 355 330 355c193 0 330 -151 330 -355s-137 -355 -330 -355c-197 0 -330 151 -330 355zM121 344c0 -166 103 -290 256 -290c152 0 256 124 256 290s-104 290 -256 290c-153 0 -256 -124 -256 -290z" />
    <glyph glyph-name="P" unicode="P" horiz-adv-x="626" 
d="M91 0v688h255c151 0 235 -89 235 -216s-84 -222 -235 -222h-184v-250h-71zM349 626h-187v-314h187c107 0 161 71 161 160s-54 154 -161 154z" />
    <glyph glyph-name="Q" unicode="Q" horiz-adv-x="757" 
d="M47 344c0 204 133 355 330 355c193 0 330 -151 330 -355c0 -113 -42 -209 -112 -273l134 -138l-49 -49l-140 147c-47 -27 -102 -42 -163 -42c-197 0 -330 151 -330 355zM121 344c0 -166 103 -290 256 -290c152 0 256 124 256 290s-104 290 -256 290
c-153 0 -256 -124 -256 -290z" />
    <glyph glyph-name="R" unicode="R" horiz-adv-x="645" 
d="M91 0v688h258c151 0 231 -73 231 -198c0 -105 -56 -181 -162 -203l182 -287h-77l-181 281h-180v-281h-71zM352 626h-190v-283h190c104 0 157 63 157 147s-55 136 -157 136z" />
    <glyph glyph-name="S" unicode="S" horiz-adv-x="638" 
d="M59 192h71c0 -88 72 -144 187 -144c119 0 187 53 187 141c0 205 -435 52 -435 317c0 112 98 193 246 193c143 0 245 -69 245 -190h-71c0 85 -74 131 -174 131c-99 0 -174 -47 -174 -128c0 -200 437 -45 437 -320c0 -121 -96 -203 -261 -203c-161 0 -258 77 -258 203z" />
    <glyph glyph-name="T" unicode="T" horiz-adv-x="579" 
d="M8 628v60h563v-60h-246v-628h-71v628h-246z" />
    <glyph glyph-name="U" unicode="U" horiz-adv-x="688" 
d="M76 271v417h71v-417c0 -141 68 -217 197 -217c128 0 197 76 197 217v417h71v-417c0 -200 -110 -282 -268 -282s-268 82 -268 282z" />
    <glyph glyph-name="V" unicode="V" horiz-adv-x="609" 
d="M264 0l-254 688h74l220 -614h4l220 614h71l-256 -688h-79z" />
    <glyph glyph-name="W" unicode="W" horiz-adv-x="918" 
d="M199 0l-186 688h74l156 -614h4l172 614h86l172 -614h3l154 614h71l-183 -688h-89l-171 606h-3l-171 -606h-89z" />
    <glyph glyph-name="X" unicode="X" horiz-adv-x="585" 
d="M11 0l240 351l-232 337h80l192 -281l190 281h77l-228 -334l244 -354h-80l-204 297l-202 -297h-77z" />
    <glyph glyph-name="Y" unicode="Y" horiz-adv-x="594" 
d="M260 0v274l-247 414h80l202 -341h3l209 341h74l-250 -409v-279h-71z" />
    <glyph glyph-name="Z" unicode="Z" horiz-adv-x="575" 
d="M57 628v60h481v-46l-413 -582h409v-60h-497v46l413 582h-393z" />
    <glyph glyph-name="bracketleft" unicode="[" horiz-adv-x="318" 
d="M153 -172h147v-56h-209v972h209v-56h-147v-860z" />
    <glyph glyph-name="backslash" unicode="\" horiz-adv-x="401" 
d="M325 -12l-308 712h59l308 -712h-59z" />
    <glyph glyph-name="bracketright" unicode="]" horiz-adv-x="318" 
d="M18 -172h147v860h-147v56h209v-972h-209v56z" />
    <glyph glyph-name="asciicircum" unicode="^" horiz-adv-x="568" 
d="M60 352l191 336h68l191 -336h-71l-156 282l-155 -282h-68z" />
    <glyph glyph-name="underscore" unicode="_" horiz-adv-x="500" 
d="M0 -72h500v-53h-500v53z" />
    <glyph glyph-name="quoteleft" unicode="&#x2018;" horiz-adv-x="231" 
d="M76 436v100l39 152h37l-29 -146h33v-106h-80z" />
    <glyph glyph-name="a" unicode="a" horiz-adv-x="517" 
d="M50 123c0 80 47 127 155 145l105 18c50 8 66 16 66 41c-2 75 -41 116 -116 116c-76 0 -121 -40 -126 -107h-65c5 96 75 163 191 163c119 0 184 -65 184 -178v-321h-65v78h-3c-28 -57 -88 -89 -166 -89c-102 0 -160 54 -160 134zM376 207v55c-11 -13 -31 -21 -56 -25
l-103 -17c-69 -11 -99 -42 -99 -91c0 -50 35 -84 103 -84c84 0 155 51 155 162z" />
    <glyph glyph-name="b" unicode="b" horiz-adv-x="576" 
d="M80 0v732h68v-149c0 -25 -1 -134 -3 -182h3c31 67 96 98 172 98c121 0 213 -94 213 -251s-98 -259 -219 -259c-76 0 -135 31 -166 98h-3v-87h-65zM148 244c0 -124 69 -196 157 -196s157 77 157 200s-70 192 -157 192c-86 0 -154 -69 -157 -187v-9z" />
    <glyph glyph-name="c" unicode="c" horiz-adv-x="511" 
d="M43 244c0 154 98 255 226 255c116 0 190 -71 205 -172h-68c-13 66 -59 113 -137 113c-87 0 -155 -79 -155 -196s66 -196 155 -196c78 0 124 47 137 113h68c-15 -101 -89 -172 -205 -172c-138 0 -226 101 -226 255z" />
    <glyph glyph-name="d" unicode="d" horiz-adv-x="576" 
d="M43 240c0 157 98 259 219 259c75 0 135 -32 166 -98h3c-3 48 -3 157 -3 182v149h68v-732h-65v88h-3c-31 -68 -96 -99 -172 -99c-121 0 -213 94 -213 251zM114 240c0 -123 69 -192 157 -192c86 0 153 68 157 187v18c-4 118 -71 187 -157 187c-88 0 -157 -77 -157 -200z
" />
    <glyph glyph-name="e" unicode="e" horiz-adv-x="519" 
d="M43 244c0 151 98 255 225 255c122 0 210 -86 210 -232v-28h-364c2 -114 62 -191 158 -191c77 0 124 44 134 100h68c-13 -89 -93 -159 -202 -159c-147 0 -229 101 -229 255zM268 440c-76 0 -136 -57 -151 -150h292c-7 102 -61 150 -141 150z" />
    <glyph glyph-name="f" unicode="f" horiz-adv-x="296" 
d="M100 0v433h-97v55h97v86c0 106 54 158 155 158h53v-59h-47c-67 0 -93 -33 -93 -102v-83h124v-55h-124v-433h-68z" />
    <glyph glyph-name="g" unicode="g" horiz-adv-x="576" 
d="M55 -60h65c0 -70 60 -112 145 -112c93 0 166 48 166 193v66h-3c-32 -67 -97 -98 -172 -98c-121 0 -213 94 -213 251s98 259 219 259c75 0 135 -32 166 -98h3v87h65v-467c0 -183 -104 -249 -231 -249c-120 0 -210 59 -210 168zM114 240c0 -123 69 -192 157 -192
c86 0 153 68 157 187v18c-4 118 -71 187 -157 187c-88 0 -157 -77 -157 -200z" />
    <glyph glyph-name="h" unicode="h" horiz-adv-x="558" 
d="M80 0v732h68v-146c0 -25 -1 -130 -3 -178h3c29 61 89 91 160 91c96 0 177 -53 177 -200v-299h-68v290c0 110 -50 150 -123 150c-80 0 -146 -65 -146 -184v-256h-68z" />
    <glyph glyph-name="i" unicode="i" horiz-adv-x="228" 
d="M77 636v96h74v-96h-74zM80 0v488h68v-488h-68z" />
    <glyph glyph-name="j" unicode="j" horiz-adv-x="228" 
d="M77 636v96h74v-96h-74zM80 -84v572h68v-584c0 -76 -36 -124 -125 -124h-30v59h24c44 0 63 23 63 77z" />
    <glyph glyph-name="k" unicode="k" horiz-adv-x="496" 
d="M80 0v732h68v-508l238 264h81l-182 -197l203 -291h-81l-168 241l-91 -99v-142h-68z" />
    <glyph glyph-name="l" unicode="l" horiz-adv-x="228" 
d="M80 0v732h68v-732h-68z" />
    <glyph glyph-name="m" unicode="m" horiz-adv-x="863" 
d="M80 0v488h65v-80h3c29 61 89 91 155 91c68 0 127 -30 153 -104c33 74 96 104 168 104c91 0 166 -53 166 -194v-305h-68v296c0 104 -41 144 -112 144c-75 0 -141 -65 -141 -187v-253h-68v296c0 104 -44 144 -112 144c-75 0 -141 -65 -141 -186v-254h-68z" />
    <glyph glyph-name="n" unicode="n" horiz-adv-x="558" 
d="M80 0v488h65v-80h3c29 61 89 91 160 91c96 0 177 -53 177 -200v-299h-68v290c0 110 -50 150 -123 150c-80 0 -146 -65 -146 -186v-254h-68z" />
    <glyph glyph-name="o" unicode="o" horiz-adv-x="550" 
d="M43 244c0 154 99 255 232 255c141 0 232 -101 232 -255s-99 -255 -232 -255c-141 0 -232 101 -232 255zM114 244c0 -117 66 -196 161 -196c93 0 161 79 161 196c0 120 -66 196 -161 196c-93 0 -161 -79 -161 -196z" />
    <glyph glyph-name="p" unicode="p" horiz-adv-x="576" 
d="M148 -95v-125h-68v708h65v-87h3c31 67 96 98 172 98c121 0 213 -94 213 -251s-98 -259 -219 -259c-76 0 -135 31 -166 98h-3c2 -48 3 -157 3 -182zM462 248c0 123 -70 192 -157 192c-86 0 -154 -69 -157 -187v-9c0 -124 69 -196 157 -196s157 77 157 200z" />
    <glyph glyph-name="q" unicode="q" horiz-adv-x="573" 
d="M428 -95c0 25 0 134 3 182h-3c-32 -67 -96 -98 -172 -98c-121 0 -213 94 -213 251s98 259 219 259c75 0 135 -32 166 -98h3v87h65v-708h-68v125zM114 240c0 -123 69 -192 157 -192s157 72 157 196v9c-4 118 -71 187 -157 187c-88 0 -157 -77 -157 -200z" />
    <glyph glyph-name="r" unicode="r" horiz-adv-x="350" 
d="M80 0v488h65v-80h3c23 55 69 91 131 91c21 0 45 -3 69 -20l-22 -61c-22 12 -43 16 -61 16c-78 0 -117 -83 -117 -176v-258h-68z" />
    <glyph glyph-name="s" unicode="s" horiz-adv-x="481" 
d="M40 138h65c0 -67 65 -96 130 -96c83 0 132 33 132 92c0 46 -29 66 -87 76l-92 16c-67 11 -137 38 -137 127c0 92 82 146 187 146c99 0 186 -43 186 -144h-65c0 61 -53 91 -121 91s-121 -30 -121 -87c0 -45 32 -65 92 -75l92 -16c77 -14 134 -43 134 -128
c0 -100 -84 -151 -200 -151c-111 0 -195 49 -195 149z" />
    <glyph glyph-name="t" unicode="t" horiz-adv-x="317" 
d="M92 140v293h-96v55h96v148h68v-148h133v-55h-133v-290c0 -62 24 -84 78 -84h55v-59h-64c-91 0 -137 44 -137 140z" />
    <glyph glyph-name="u" unicode="u" horiz-adv-x="553" 
d="M72 189v299h68v-290c0 -110 49 -150 122 -150c80 0 143 64 143 187v253h68v-488h-65v80h-3c-30 -62 -88 -91 -157 -91c-96 0 -176 53 -176 200z" />
    <glyph glyph-name="v" unicode="v" horiz-adv-x="460" 
d="M195 0l-187 488h74l150 -414h3l149 414h68l-183 -488h-74z" />
    <glyph glyph-name="w" unicode="w" horiz-adv-x="711" 
d="M153 0l-145 488h71l113 -417h4l121 417h80l121 -417h4l113 417h68l-145 -488h-82l-119 420h-3l-119 -420h-82z" />
    <glyph glyph-name="x" unicode="x" horiz-adv-x="449" 
d="M14 0l173 245l-170 243h80l131 -191l130 191h74l-171 -242l174 -246h-81l-133 195l-132 -195h-75z" />
    <glyph glyph-name="y" unicode="y" horiz-adv-x="460" 
d="M33 -169h27c61 0 98 38 122 105l18 49l-192 503h74l150 -414h3l149 414h68l-214 -571c-27 -72 -72 -144 -166 -144h-39v58z" />
    <glyph glyph-name="z" unicode="z" horiz-adv-x="433" 
d="M31 433v55h367v-46l-277 -387h281v-55h-367v40l281 393h-285z" />
    <glyph glyph-name="braceleft" unicode="{" horiz-adv-x="358" 
d="M142 -78v188c0 92 -24 123 -111 128v47c87 6 111 37 111 128v181c0 95 40 150 149 150h49v-53h-46c-65 0 -90 -30 -90 -94v-202c0 -73 -29 -112 -100 -132v-3c71 -20 100 -59 100 -132v-209c0 -64 25 -94 90 -94h46v-53h-49c-109 0 -149 55 -149 150z" />
    <glyph glyph-name="bar" unicode="|" horiz-adv-x="256" 
d="M97 -240v1000h62v-1000h-62z" />
    <glyph glyph-name="braceright" unicode="}" horiz-adv-x="358" 
d="M18 -175h46c65 0 90 30 90 94v209c0 73 29 112 101 132v3c-72 20 -101 59 -101 132v202c0 64 -25 94 -90 94h-46v53h49c109 0 149 -55 149 -150v-181c0 -91 24 -122 111 -128v-47c-87 -5 -111 -36 -111 -128v-188c0 -95 -40 -150 -149 -150h-49v53z" />
    <glyph glyph-name="asciitilde" unicode="~" horiz-adv-x="568" 
d="M63 186c0 97 53 143 119 143c89 0 139 -82 204 -82c37 0 60 24 60 84h59c0 -97 -53 -143 -116 -143c-89 0 -143 85 -207 85c-37 0 -60 -27 -60 -87h-59z" />
    <glyph glyph-name="exclamdown" unicode="&#xa1;" horiz-adv-x="256" 
d="M88 386v102h80v-102h-80zM88 -16l21 315h38l21 -315v-184h-80v184z" />
    <glyph glyph-name="cent" unicode="&#xa2;" horiz-adv-x="568" 
d="M262 -11v106c-124 15 -202 111 -202 253c0 141 89 238 205 253v98h68v-98c101 -13 165 -80 178 -170h-68c-12 66 -62 113 -147 113c-94 0 -165 -79 -165 -196s71 -196 165 -196c85 0 135 47 147 113h68c-13 -92 -78 -158 -181 -170v-106h-68z" />
    <glyph glyph-name="sterling" unicode="&#xa3;" horiz-adv-x="568" 
d="M64 333v48h90c-18 46 -33 94 -33 143c0 106 72 175 183 175c107 0 172 -62 179 -175h-68c-6 80 -45 119 -114 119c-65 0 -112 -42 -112 -113c0 -51 19 -99 39 -149h170v-48h-152c11 -34 20 -70 20 -107c0 -34 -4 -68 -13 -100c51 -37 99 -78 152 -78c56 0 76 45 80 116
h59c-6 -80 -32 -175 -142 -175c-62 0 -116 46 -167 87c-26 -52 -67 -87 -127 -87c-64 0 -101 40 -101 91c0 64 47 104 111 104c28 0 55 -9 80 -22c2 14 3 28 3 40c0 45 -13 88 -29 131h-108zM109 30c43 0 67 37 80 80c-26 18 -51 30 -77 30c-32 0 -58 -24 -58 -56
c0 -30 20 -54 55 -54z" />
    <glyph glyph-name="fraction" unicode="&#x2044;" horiz-adv-x="60" 
d="M-171 -12c83 171 265 541 349 712h53l-349 -712h-53z" />
    <glyph glyph-name="yen" unicode="&#xa5;" horiz-adv-x="568" 
d="M91 257v44h159v3l-230 384h77l188 -320h4l188 320h71l-230 -386v-1h159v-44h-159v-88h159v-44h-159v-125h-68v125h-159v44h159v88h-159z" />
    <glyph glyph-name="florin" unicode="&#x192;" horiz-adv-x="568" 
d="M104 305v50h129l19 181c12 114 72 163 153 163s131 -41 123 -151l-3 -40h-62l3 40c5 64 -16 95 -64 95s-75 -36 -82 -107l-19 -181h155v-50h-160l-35 -334c-12 -114 -72 -163 -153 -163s-131 41 -123 151l3 40h62l-3 -40c-5 -64 16 -95 64 -95s75 36 82 107l35 334h-124z
" />
    <glyph glyph-name="section" unicode="&#xa7;" horiz-adv-x="560" 
d="M68 -72h65c5 -71 65 -103 141 -103c84 0 137 42 137 107c0 63 -43 86 -105 105l-92 28c-105 32 -153 81 -153 170c0 75 49 132 124 156c-60 25 -104 63 -104 143c0 102 87 166 205 166c113 0 199 -47 206 -156h-65c-5 71 -65 103 -141 103c-84 0 -137 -42 -137 -107
c0 -63 43 -86 105 -105l92 -28c105 -32 153 -81 153 -170c0 -75 -49 -132 -124 -156c60 -25 104 -64 104 -143c0 -102 -87 -166 -205 -166c-113 0 -199 48 -206 156zM319 349l-67 20c-79 -15 -126 -64 -126 -125c0 -70 40 -98 115 -120l63 -19c81 14 130 61 130 123
c0 71 -40 97 -115 121z" />
    <glyph glyph-name="currency" unicode="&#xa4;" horiz-adv-x="568" 
d="M127 152l-35 34l59 60c-19 27 -33 60 -33 98s15 73 34 99l-59 61l34 34l60 -61c26 20 59 31 97 31c37 0 69 -11 96 -31l60 61l35 -34l-60 -60c20 -27 35 -62 35 -100s-15 -71 -34 -98l59 -60l-34 -34l-59 59c-26 -20 -61 -31 -98 -31c-38 0 -72 11 -99 32zM284 230
c63 0 110 46 110 114s-47 114 -110 114s-110 -46 -110 -114s47 -114 110 -114z" />
    <glyph glyph-name="quotesingle" unicode="'" horiz-adv-x="208" 
d="M82 436l-12 165v87h68v-87l-12 -165h-44z" />
    <glyph glyph-name="quotedblleft" unicode="&#x201c;" horiz-adv-x="403" 
d="M76 436v100l39 152h37l-29 -146h33v-106h-80zM248 436v100l38 152h38l-29 -146h33v-106h-80z" />
    <glyph glyph-name="guillemotleft" unicode="&#xab;" horiz-adv-x="505" 
d="M249 252l145 204h56l-124 -204l124 -204h-56zM200 48l-145 204l145 204h56l-124 -204l124 -204h-56z" />
    <glyph glyph-name="guilsinglleft" unicode="&#x2039;" horiz-adv-x="311" 
d="M200 48l-145 204l145 204h56l-124 -204l124 -204h-56z" />
    <glyph glyph-name="guilsinglright" unicode="&#x203a;" horiz-adv-x="311" 
d="M55 48l124 204l-124 204h55l146 -204l-146 -204h-55z" />
    <glyph glyph-name="endash" unicode="&#x2013;" horiz-adv-x="556" 
d="M60 221v62h436v-62h-436z" />
    <glyph glyph-name="dagger" unicode="&#x2020;" horiz-adv-x="430" 
d="M44 457v56h140v175h62v-175h140v-56h-140v-457h-62v457h-140z" />
    <glyph glyph-name="daggerdbl" unicode="&#x2021;" horiz-adv-x="430" 
d="M44 457v56h140v175h62v-175h140v-56h-140v-229h140v-56h-140v-172h-62v172h-140v56h140v229h-140z" />
    <glyph glyph-name="periodcentered" unicode="&#xb7;" horiz-adv-x="244" 
d="M79 198v108h86v-108h-86z" />
    <glyph glyph-name="paragraph" unicode="&#xb6;" horiz-adv-x="605" 
d="M434 0v688h68v-688h-68zM271 0v263c-140 7 -223 91 -223 212c0 129 92 213 244 213h47v-688h-68z" />
    <glyph glyph-name="bullet" unicode="&#x2022;" horiz-adv-x="488" 
d="M244 80c-97 0 -172 75 -172 172s75 172 172 172s172 -75 172 -172s-75 -172 -172 -172z" />
    <glyph glyph-name="quotesinglbase" unicode="&#x201a;" horiz-adv-x="231" 
d="M108 0h-33v106h80v-100l-39 -152h-37z" />
    <glyph glyph-name="quotedblbase" unicode="&#x201e;" horiz-adv-x="403" 
d="M108 0h-33v106h80v-100l-39 -152h-37zM280 0h-33v106h80v-100l-39 -152h-37z" />
    <glyph glyph-name="quotedblright" unicode="&#x201d;" horiz-adv-x="403" 
d="M79 436l29 146h-33v106h80v-100l-39 -152h-37zM251 436l29 146h-33v106h80v-100l-39 -152h-37z" />
    <glyph glyph-name="guillemotright" unicode="&#xbb;" horiz-adv-x="505" 
d="M249 48l124 204l-124 204h56l145 -204l-145 -204h-56zM55 48l124 204l-124 204h55l146 -204l-146 -204h-55z" />
    <glyph glyph-name="ellipsis" unicode="&#x2026;" horiz-adv-x="719" 
d="M555 0v111h86v-111h-86zM317 0v111h86v-111h-86zM79 0v111h86v-111h-86z" />
    <glyph glyph-name="perthousand" unicode="&#x2030;" horiz-adv-x="1116" 
d="M176 336c-99 0 -144 80 -144 180s45 180 144 180c100 0 144 -80 144 -180s-44 -180 -144 -180zM176 383c56 0 85 51 85 133s-28 133 -85 133c-56 0 -85 -51 -85 -133s30 -133 85 -133zM181 -12c83 171 265 541 349 712h53l-349 -712h-53zM588 -8c-99 0 -144 80 -144 180
s45 180 144 180s144 -80 144 -180s-45 -180 -144 -180zM588 39c56 0 85 51 85 133s-28 133 -85 133c-56 0 -85 -51 -85 -133s30 -133 85 -133zM940 -8c-99 0 -144 80 -144 180s45 180 144 180s144 -80 144 -180s-45 -180 -144 -180zM940 39c56 0 85 51 85 133
s-28 133 -85 133c-56 0 -85 -51 -85 -133s30 -133 85 -133z" />
    <glyph glyph-name="questiondown" unicode="&#xbf;" horiz-adv-x="485" 
d="M209 386v102h79v-102h-79zM39 -37c0 164 176 154 176 292v37h68v-28c0 -184 -173 -168 -173 -298c0 -70 53 -118 128 -118c94 0 144 64 144 156h68c0 -119 -72 -215 -212 -215c-115 0 -199 65 -199 174z" />
    <glyph glyph-name="grave" unicode="`" horiz-adv-x="550" 
d="M251 568l-137 164h81l106 -164h-50z" />
    <glyph glyph-name="acute" unicode="&#xb4;" horiz-adv-x="550" 
d="M249 568l106 164h81l-137 -164h-50z" />
    <glyph glyph-name="circumflex" unicode="&#x2c6;" horiz-adv-x="550" 
d="M116 568l128 164h62l128 -164h-65l-94 123l-94 -123h-65z" />
    <glyph glyph-name="tilde" unicode="&#x2dc;" horiz-adv-x="550" 
d="M120 600c3 54 31 99 87 99s104 -51 141 -51c30 0 42 27 46 52h38c-3 -53 -31 -99 -87 -99s-104 51 -141 51c-30 0 -42 -27 -46 -52h-38z" />
    <glyph glyph-name="macron" unicode="&#xaf;" horiz-adv-x="550" 
d="M136 623v53h276v-53h-276z" />
    <glyph glyph-name="breve" unicode="&#x2d8;" horiz-adv-x="550" 
d="M275 584c-62 0 -128 34 -139 134h44c9 -58 41 -90 95 -90s86 32 95 90h44c-11 -100 -77 -134 -139 -134z" />
    <glyph glyph-name="dotaccent" unicode="&#x2d9;" horiz-adv-x="550" 
d="M241 605v90h68v-90h-68z" />
    <glyph glyph-name="dieresis" unicode="&#xa8;" horiz-adv-x="550" 
d="M340 605v90h68v-90h-68zM143 605v90h68v-90h-68z" />
    <glyph glyph-name="ring" unicode="&#x2da;" horiz-adv-x="550" 
d="M275 567c-50 0 -96 37 -96 93s46 93 96 93s96 -37 96 -93s-46 -93 -96 -93zM275 602c31 0 58 24 58 58s-27 58 -58 58s-58 -24 -58 -58s27 -58 58 -58z" />
    <glyph glyph-name="cedilla" unicode="&#xb8;" horiz-adv-x="550" 
d="M234 -78l28 78h26l-6 -40c61 -3 92 -40 92 -85c0 -50 -34 -91 -109 -91h-53v44h50c40 0 59 16 59 47c0 30 -21 47 -60 47h-27z" />
    <glyph glyph-name="hungarumlaut" unicode="&#x2dd;" horiz-adv-x="550" 
d="M337 568l106 164h80l-136 -164h-50zM160 568l106 164h80l-136 -164h-50z" />
    <glyph glyph-name="ogonek" unicode="&#x2db;" horiz-adv-x="550" 
d="M195 -128c0 41 23 83 75 128h39c-42 -45 -61 -86 -61 -116c0 -32 17 -53 61 -53h30v-47h-39c-69 0 -105 37 -105 88z" />
    <glyph glyph-name="caron" unicode="&#x2c7;" horiz-adv-x="550" 
d="M244 568l-128 164h65l94 -123l94 123h65l-128 -164h-62z" />
    <glyph glyph-name="emdash" unicode="&#x2014;" horiz-adv-x="840" 
d="M60 221v62h720v-62h-720z" />
    <glyph glyph-name="AE" unicode="&#xc6;" horiz-adv-x="1051" 
d="M11 0l501 688h480v-62h-385v-244h309v-62h-309v-258h393v-62h-464v164h-322l-119 -164h-84zM535 606l-276 -380h277v380h-1z" />
    <glyph glyph-name="ordfeminine" unicode="&#xaa;" horiz-adv-x="380" 
d="M150 336c-71 0 -113 39 -113 97c0 55 35 92 111 102l76 10c32 4 44 9 44 30c0 44 -27 75 -76 75c-44 0 -78 -22 -82 -71h-58c5 83 68 117 140 117c84 0 138 -41 138 -123v-229h-60v52h-2c-20 -36 -61 -60 -118 -60zM268 486v35c-7 -9 -19 -14 -36 -16l-69 -9
c-45 -6 -64 -28 -64 -59c0 -35 25 -56 67 -56c53 0 102 32 102 105z" />
    <glyph glyph-name="Lslash" unicode="&#x141;" horiz-adv-x="541" 
d="M19 194l-34 46l106 76v372h71v-321l154 110l34 -46l-188 -135v-234h351v-62h-422v245z" />
    <glyph glyph-name="Oslash" unicode="&#xd8;" horiz-adv-x="754" 
d="M59 -12l81 100c-59 64 -93 153 -93 256c0 204 136 355 330 355c78 0 147 -26 202 -70l57 71h59l-82 -102c59 -63 94 -152 94 -254c0 -204 -140 -355 -330 -355c-79 0 -148 25 -203 68l-55 -69h-60zM121 344c0 -79 23 -149 64 -200l351 433c-43 36 -97 57 -159 57
c-153 0 -256 -124 -256 -290zM633 344c0 79 -24 148 -65 199l-350 -432c42 -36 96 -57 159 -57c152 0 256 124 256 290z" />
    <glyph glyph-name="OE" unicode="&#x152;" horiz-adv-x="1034" 
d="M408 0c-239 0 -361 143 -361 344s122 344 361 344h567v-62h-385v-244h309v-62h-309v-258h393v-62h-575zM121 344c0 -154 82 -282 287 -282h111v564h-111c-205 0 -287 -128 -287 -282z" />
    <glyph glyph-name="ordmasculine" unicode="&#xba;" horiz-adv-x="407" 
d="M203 337c-103 0 -170 70 -170 179s71 180 170 180c105 0 171 -71 171 -180s-71 -179 -171 -179zM203 387c63 0 107 52 107 129c0 79 -42 129 -107 129c-62 0 -106 -51 -106 -129c0 -77 43 -129 106 -129z" />
    <glyph glyph-name="ae" unicode="&#xe6;" horiz-adv-x="844" 
d="M69 336c8 113 93 163 191 163c79 0 138 -29 165 -88c37 55 96 88 172 88c118 0 206 -86 206 -232v-28h-356c1 -117 62 -191 154 -191c78 0 120 44 130 100h67c-12 -89 -92 -159 -197 -159c-94 0 -160 43 -195 117c-40 -86 -117 -117 -197 -117c-101 0 -159 54 -159 134
c0 78 47 127 155 145l105 18c50 8 66 16 66 41c0 70 -39 116 -116 116c-67 0 -121 -35 -126 -107h-65zM376 210v52c-11 -13 -31 -21 -56 -25l-103 -17c-68 -11 -99 -42 -99 -91c0 -53 38 -84 103 -84c82 0 155 48 155 165zM597 440c-78 0 -133 -59 -147 -150h281
c-5 97 -59 150 -134 150z" />
    <glyph glyph-name="dotlessi" unicode="&#x131;" horiz-adv-x="228" 
d="M80 0v488h68v-488h-68z" />
    <glyph glyph-name="lslash" unicode="&#x142;" horiz-adv-x="228" 
d="M-14 263l94 92v377h68v-310l66 65l31 -37l-97 -95v-355h-68v288l-63 -62z" />
    <glyph glyph-name="oslash" unicode="&#xf8;" horiz-adv-x="550" 
d="M44 -12l59 74c-38 44 -60 106 -60 182c0 154 99 255 232 255c56 0 105 -17 143 -46l38 47h50l-60 -74c39 -44 61 -107 61 -182c0 -154 -99 -255 -232 -255c-57 0 -105 16 -143 46l-38 -47h-50zM114 244c0 -51 12 -94 34 -127l229 285c-27 24 -62 38 -102 38
c-93 0 -161 -79 -161 -196zM436 244c0 51 -12 95 -34 127l-229 -285c27 -25 62 -38 102 -38c93 0 161 79 161 196z" />
    <glyph glyph-name="oe" unicode="&#x153;" horiz-adv-x="909" 
d="M43 244c0 154 99 255 232 255c90 0 158 -43 195 -116c38 73 107 116 188 116c122 0 210 -86 210 -232v-28h-364c2 -114 62 -191 158 -191c76 0 124 44 134 100h68c-13 -89 -93 -159 -202 -159c-93 0 -159 42 -194 114c-39 -72 -109 -114 -193 -114
c-141 0 -232 101 -232 255zM114 244c0 -117 66 -196 161 -196c93 0 161 79 161 196c0 120 -66 196 -161 196c-93 0 -161 -79 -161 -196zM658 440c-76 0 -136 -59 -151 -150h292c-7 102 -61 150 -141 150z" />
    <glyph glyph-name="germandbls" unicode="&#xdf;" horiz-adv-x="550" 
d="M74 0v511c0 162 89 232 207 232c120 0 175 -69 175 -146c0 -105 -108 -122 -108 -189c0 -80 170 -93 170 -240c0 -110 -83 -168 -191 -168h-79v56h79c69 0 123 35 123 106c0 122 -164 111 -164 240c0 100 108 109 108 195c0 47 -36 90 -116 90c-81 0 -136 -50 -136 -176
v-511h-68z" />
    <glyph glyph-name="onesuperior" unicode="&#xe105;" 
d="M71 717l-25 42l137 81h37v-294h98v-50h-263v50h106v223z" />
    <glyph glyph-name="logicalnot" unicode="&#xac;" horiz-adv-x="568" 
d="M57 224v59h454v-255h-62v196h-392z" />
    <glyph glyph-name="mu" unicode="&#xb5;" horiz-adv-x="562" 
d="M417 0v80h-3c-30 -62 -88 -91 -157 -91c-45 0 -86 13 -117 42c5 -50 8 -133 8 -174v-77h-68v708h68v-290c0 -110 47 -150 123 -150c80 0 143 64 143 184v256h67v-488h-64z" />
    <glyph glyph-name="trademark" unicode="&#x2122;" horiz-adv-x="784" 
d="M353 344v344h77l116 -270h3l117 270h77v-344h-56l3 267h-3l-116 -267h-47l-115 267h-3l3 -267h-56zM5 641v47h299v-47h-120v-297h-56v297h-123z" />
    <glyph glyph-name="Eth" unicode="&#xd0;" horiz-adv-x="696" 
d="M4 317v58h87v313h197c239 0 361 -143 361 -344s-122 -344 -361 -344h-197v317h-87zM288 626h-126v-251h162v-58h-162v-255h126c205 0 287 128 287 282s-82 282 -287 282z" />
    <glyph glyph-name="onehalf" unicode="&#xbd;" horiz-adv-x="764" 
d="M451 0c1 97 53 134 109 162l29 15c40 19 73 39 73 70c0 35 -24 57 -72 57c-45 0 -79 -24 -82 -76h-56c3 90 69 123 138 123c78 0 131 -36 131 -102c0 -62 -55 -89 -107 -115l-29 -14c-38 -19 -66 -43 -66 -70h204v-50h-272zM195 -12l349 712h53l-348 -712h-54zM71 565
l-25 42l137 81h37v-294h98v-50h-263v50h106v223z" />
    <glyph glyph-name="plusminus" unicode="&#xb1;" horiz-adv-x="568" 
d="M57 305v59h196v182h62v-182h196v-59h-196v-182h-62v182h-196zM57 0v59h454v-59h-454z" />
    <glyph glyph-name="Thorn" unicode="&#xde;" horiz-adv-x="626" 
d="M91 0v688h71v-115h184c151 0 235 -89 235 -216s-84 -222 -235 -222h-184v-135h-71zM349 512h-187v-315h187c107 0 161 71 161 160s-54 155 -161 155z" />
    <glyph glyph-name="onequarter" unicode="&#xbc;" horiz-adv-x="764" 
d="M439 73v38l192 234h50v-225h53v-47h-53v-73h-59v73h-183zM215 -12c83 171 265 541 348 712h54l-349 -712h-53zM71 565l-25 42l137 81h37v-294h98v-50h-263v50h106v223zM504 120h118v145z" />
    <glyph glyph-name="divide" unicode="&#xf7;" horiz-adv-x="568" 
d="M247 380v98h74v-98h-74zM57 224v59h454v-59h-454zM247 29v98h74v-98h-74z" />
    <glyph glyph-name="brokenbar" unicode="&#xa6;" horiz-adv-x="256" 
d="M97 336v352h62v-352h-62zM97 -164v352h62v-352h-62z" />
    <glyph glyph-name="degree" unicode="&#xb0;" horiz-adv-x="356" 
d="M178 428c-78 0 -138 57 -138 135c0 79 60 136 138 136s138 -57 138 -136c0 -78 -60 -135 -138 -135zM178 649c-48 0 -82 -36 -82 -86c0 -49 34 -86 82 -86s82 37 82 86c0 50 -34 86 -82 86z" />
    <glyph glyph-name="thorn" unicode="&#xfe;" horiz-adv-x="576" 
d="M533 248c0 -157 -98 -259 -219 -259c-72 0 -135 31 -166 98h-3c2 -46 3 -158 3 -182v-125h-68v952h68v-149c0 -25 -1 -134 -3 -182h3c32 67 100 98 172 98c121 0 213 -94 213 -251zM462 248c0 123 -70 192 -157 192c-86 0 -154 -69 -157 -187v-9c0 -124 69 -196 157 -196
s157 77 157 200z" />
    <glyph glyph-name="threequarters" unicode="&#xbe;" horiz-adv-x="764" 
d="M439 73v38l192 234h50v-225h53v-47h-53v-73h-59v73h-183zM37 446h56c0 -44 35 -66 83 -66s83 20 83 61c0 40 -35 61 -83 61h-29v41h29c44 0 73 19 73 54c0 36 -31 54 -73 54s-74 -23 -74 -62h-56c0 70 55 107 133 107c75 0 128 -38 128 -94c0 -38 -23 -69 -61 -78v-2
c42 -9 73 -41 73 -87c0 -63 -55 -99 -143 -99c-81 0 -139 31 -139 110zM204 -12c83 171 265 541 349 712h53l-349 -712h-53zM504 120h118v145z" />
    <glyph glyph-name="twosuperior" unicode="&#xe107;" 
d="M39 496c1 97 53 134 109 162l29 15c40 19 73 39 73 70c0 35 -24 57 -72 57c-45 0 -79 -24 -82 -76h-56c3 90 69 123 138 123c78 0 131 -36 131 -102c0 -62 -55 -89 -107 -115l-29 -14c-38 -19 -66 -43 -66 -70h204v-50h-272z" />
    <glyph glyph-name="registered" unicode="&#xae;" horiz-adv-x="776" 
d="M38 348c0 200 147 351 350 351c199 0 350 -151 350 -351s-147 -359 -350 -359s-350 159 -350 359zM94 348c0 -171 120 -312 294 -312c171 0 294 141 294 312s-121 301 -294 301c-174 0 -294 -130 -294 -301zM253 176v344h157c80 0 123 -41 123 -105
c0 -49 -32 -89 -81 -103l90 -136h-61l-83 130h-89v-130h-56zM408 473h-99v-119h99c46 0 69 25 69 61s-24 58 -69 58z" />
    <glyph glyph-name="minus" unicode="&#x2212;" horiz-adv-x="568" 
d="M57 224v59h454v-59h-454z" />
    <glyph glyph-name="eth" unicode="&#xf0;" horiz-adv-x="560" 
d="M194 533l-25 38l99 67c-38 22 -83 40 -137 56l15 50c66 -19 124 -42 172 -72l101 68l25 -37l-86 -59c95 -75 154 -185 154 -384v-2c0 -170 -101 -269 -235 -269c-142 0 -235 100 -235 239s104 239 229 239c62 0 125 -24 160 -75h3c-22 96 -60 166 -126 218zM113 228
c0 -105 68 -180 164 -180c94 0 164 74 164 180c0 109 -69 180 -164 180c-94 0 -164 -75 -164 -180z" />
    <glyph glyph-name="multiply" unicode="&#xd7;" horiz-adv-x="568" 
d="M82 419l41 40l161 -163l162 163l41 -41l-162 -164l162 -163l-41 -40l-161 162l-162 -163l-41 41l162 164z" />
    <glyph glyph-name="threesuperior" unicode="&#xe108;" 
d="M37 598h56c0 -44 35 -66 83 -66s83 20 83 61c0 40 -35 61 -83 61h-29v41h29c44 0 73 19 73 54c0 36 -31 54 -73 54s-74 -23 -74 -62h-56c0 70 55 107 133 107c75 0 128 -38 128 -94c0 -38 -23 -69 -61 -78v-2c42 -9 73 -41 73 -87c0 -63 -55 -99 -143 -99
c-81 0 -139 31 -139 110z" />
    <glyph glyph-name="copyright" unicode="&#xa9;" horiz-adv-x="776" 
d="M38 348c0 200 147 351 350 351c199 0 350 -151 350 -351s-147 -359 -350 -359s-350 159 -350 359zM94 348c0 -171 120 -312 294 -312c171 0 294 141 294 312s-121 301 -294 301c-174 0 -294 -130 -294 -301zM219 348c0 97 66 176 169 176c82 0 135 -47 149 -115h-55
c-11 40 -40 68 -94 68c-68 0 -113 -59 -113 -129s45 -129 113 -129c54 0 83 28 94 68h55c-14 -68 -67 -115 -149 -115c-103 0 -169 79 -169 176z" />
    <glyph glyph-name="Aacute" unicode="&#xc1;" horiz-adv-x="631" 
d="M15 0l259 688h83l259 -688h-74l-73 198h-310l-73 -198h-71zM316 614h-4l-131 -355h265zM288 768l106 164h81l-137 -164h-50z" />
    <glyph glyph-name="Acircumflex" unicode="&#xc2;" horiz-adv-x="631" 
d="M15 0l259 688h83l259 -688h-74l-73 198h-310l-73 -198h-71zM316 614h-4l-131 -355h265zM155 768l128 164h62l128 -164h-65l-94 123l-94 -123h-65z" />
    <glyph glyph-name="Adieresis" unicode="&#xc4;" horiz-adv-x="631" 
d="M15 0l259 688h83l259 -688h-74l-73 198h-310l-73 -198h-71zM316 614h-4l-131 -355h265zM379 805v90h68v-90h-68zM182 805v90h68v-90h-68z" />
    <glyph glyph-name="Agrave" unicode="&#xc0;" horiz-adv-x="631" 
d="M15 0l259 688h83l259 -688h-74l-73 198h-310l-73 -198h-71zM316 614h-4l-131 -355h265zM290 768l-137 164h81l106 -164h-50z" />
    <glyph glyph-name="Aring" unicode="&#xc5;" horiz-adv-x="631" 
d="M15 0l259 688h83l259 -688h-74l-73 198h-310l-73 -198h-71zM316 614h-4l-131 -355h265zM314 767c-50 0 -96 37 -96 93s46 93 96 93s96 -37 96 -93s-46 -93 -96 -93zM314 802c31 0 58 24 58 58s-27 58 -58 58s-58 -24 -58 -58s27 -58 58 -58z" />
    <glyph glyph-name="Atilde" unicode="&#xc3;" horiz-adv-x="631" 
d="M15 0l259 688h83l259 -688h-74l-73 198h-310l-73 -198h-71zM316 614h-4l-131 -355h265zM159 800c3 54 31 99 87 99s104 -51 141 -51c30 0 42 27 46 52h38c-3 -53 -31 -99 -87 -99s-104 51 -141 51c-30 0 -42 -27 -46 -52h-38z" />
    <glyph glyph-name="Ccedilla" unicode="&#xc7;" horiz-adv-x="708" 
d="M330 -78l24 68c-184 8 -307 156 -307 354c0 201 131 355 327 355c158 0 259 -91 289 -223h-73c-28 100 -100 158 -216 158c-153 0 -253 -124 -253 -290c0 -163 100 -290 250 -290c121 0 190 58 219 158h73c-30 -129 -129 -218 -281 -223l-4 -29c61 -3 92 -40 92 -85
c0 -50 -34 -91 -109 -91h-53v44h50c40 0 59 16 59 47c0 30 -21 47 -60 47h-27z" />
    <glyph glyph-name="Eacute" unicode="&#xc9;" horiz-adv-x="606" 
d="M91 0v688h456v-62h-385v-244h309v-62h-309v-258h393v-62h-464zM294 768l106 164h81l-137 -164h-50z" />
    <glyph glyph-name="Ecircumflex" unicode="&#xca;" horiz-adv-x="606" 
d="M91 0v688h456v-62h-385v-244h309v-62h-309v-258h393v-62h-464zM161 768l128 164h62l128 -164h-65l-94 123l-94 -123h-65z" />
    <glyph glyph-name="Edieresis" unicode="&#xcb;" horiz-adv-x="606" 
d="M91 0v688h456v-62h-385v-244h309v-62h-309v-258h393v-62h-464zM385 805v90h68v-90h-68zM188 805v90h68v-90h-68z" />
    <glyph glyph-name="Egrave" unicode="&#xc8;" horiz-adv-x="606" 
d="M91 0v688h456v-62h-385v-244h309v-62h-309v-258h393v-62h-464zM296 768l-137 164h81l106 -164h-50z" />
    <glyph glyph-name="Iacute" unicode="&#xcd;" horiz-adv-x="253" 
d="M91 0v688h71v-688h-71zM100 768l106 164h81l-137 -164h-50z" />
    <glyph glyph-name="Icircumflex" unicode="&#xce;" horiz-adv-x="253" 
d="M91 0v688h71v-688h-71zM-33 768l128 164h62l128 -164h-65l-94 123l-94 -123h-65z" />
    <glyph glyph-name="Idieresis" unicode="&#xcf;" horiz-adv-x="253" 
d="M91 0v688h71v-688h-71zM191 805v90h68v-90h-68zM-6 805v90h68v-90h-68z" />
    <glyph glyph-name="Igrave" unicode="&#xcc;" horiz-adv-x="253" 
d="M91 0v688h71v-688h-71zM102 768l-137 164h81l106 -164h-50z" />
    <glyph glyph-name="Ntilde" unicode="&#xd1;" horiz-adv-x="723" 
d="M91 0v688h68l402 -568h3l-3 568h71v-688h-68l-402 565h-3l3 -565h-71zM206 800c3 54 31 99 87 99s104 -51 141 -51c30 0 42 27 46 52h38c-3 -53 -31 -99 -87 -99s-104 51 -141 51c-30 0 -42 -27 -46 -52h-38z" />
    <glyph glyph-name="Oacute" unicode="&#xd3;" horiz-adv-x="754" 
d="M47 344c0 204 133 355 330 355c193 0 330 -151 330 -355s-137 -355 -330 -355c-197 0 -330 151 -330 355zM121 344c0 -166 103 -290 256 -290c152 0 256 124 256 290s-104 290 -256 290c-153 0 -256 -124 -256 -290zM351 768l106 164h81l-137 -164h-50z" />
    <glyph glyph-name="Ocircumflex" unicode="&#xd4;" horiz-adv-x="754" 
d="M47 344c0 204 133 355 330 355c193 0 330 -151 330 -355s-137 -355 -330 -355c-197 0 -330 151 -330 355zM121 344c0 -166 103 -290 256 -290c152 0 256 124 256 290s-104 290 -256 290c-153 0 -256 -124 -256 -290zM218 768l128 164h62l128 -164h-65l-94 123l-94 -123
h-65z" />
    <glyph glyph-name="Odieresis" unicode="&#xd6;" horiz-adv-x="754" 
d="M47 344c0 204 133 355 330 355c193 0 330 -151 330 -355s-137 -355 -330 -355c-197 0 -330 151 -330 355zM121 344c0 -166 103 -290 256 -290c152 0 256 124 256 290s-104 290 -256 290c-153 0 -256 -124 -256 -290zM442 805v90h68v-90h-68zM245 805v90h68v-90h-68z" />
    <glyph glyph-name="Ograve" unicode="&#xd2;" horiz-adv-x="754" 
d="M47 344c0 204 133 355 330 355c193 0 330 -151 330 -355s-137 -355 -330 -355c-197 0 -330 151 -330 355zM121 344c0 -166 103 -290 256 -290c152 0 256 124 256 290s-104 290 -256 290c-153 0 -256 -124 -256 -290zM353 768l-137 164h81l106 -164h-50z" />
    <glyph glyph-name="Otilde" unicode="&#xd5;" horiz-adv-x="754" 
d="M47 344c0 204 133 355 330 355c193 0 330 -151 330 -355s-137 -355 -330 -355c-197 0 -330 151 -330 355zM121 344c0 -166 103 -290 256 -290c152 0 256 124 256 290s-104 290 -256 290c-153 0 -256 -124 -256 -290zM222 800c3 54 31 99 87 99s104 -51 141 -51
c30 0 42 27 46 52h38c-3 -53 -31 -99 -87 -99s-104 51 -141 51c-30 0 -42 -27 -46 -52h-38z" />
    <glyph glyph-name="Scaron" unicode="&#x160;" horiz-adv-x="638" 
d="M59 192h71c0 -88 72 -144 187 -144c119 0 187 53 187 141c0 205 -435 52 -435 317c0 112 98 193 246 193c143 0 245 -69 245 -190h-71c0 85 -74 131 -174 131c-99 0 -174 -47 -174 -128c0 -200 437 -45 437 -320c0 -121 -96 -203 -261 -203c-161 0 -258 77 -258 203z
M284 768l-128 164h65l94 -123l94 123h65l-128 -164h-62z" />
    <glyph glyph-name="Uacute" unicode="&#xda;" horiz-adv-x="688" 
d="M76 271v417h71v-417c0 -141 68 -217 197 -217c128 0 197 76 197 217v417h71v-417c0 -200 -110 -282 -268 -282s-268 82 -268 282zM318 768l106 164h81l-137 -164h-50z" />
    <glyph glyph-name="Ucircumflex" unicode="&#xdb;" horiz-adv-x="688" 
d="M76 271v417h71v-417c0 -141 68 -217 197 -217c128 0 197 76 197 217v417h71v-417c0 -200 -110 -282 -268 -282s-268 82 -268 282zM185 768l128 164h62l128 -164h-65l-94 123l-94 -123h-65z" />
    <glyph glyph-name="Udieresis" unicode="&#xdc;" horiz-adv-x="688" 
d="M76 271v417h71v-417c0 -141 68 -217 197 -217c128 0 197 76 197 217v417h71v-417c0 -200 -110 -282 -268 -282s-268 82 -268 282zM409 805v90h68v-90h-68zM212 805v90h68v-90h-68z" />
    <glyph glyph-name="Ugrave" unicode="&#xd9;" horiz-adv-x="688" 
d="M76 271v417h71v-417c0 -141 68 -217 197 -217c128 0 197 76 197 217v417h71v-417c0 -200 -110 -282 -268 -282s-268 82 -268 282zM320 768l-137 164h81l106 -164h-50z" />
    <glyph glyph-name="Yacute" unicode="&#xdd;" horiz-adv-x="594" 
d="M260 0v274l-247 414h80l202 -341h3l209 341h74l-250 -409v-279h-71zM271 768l106 164h81l-137 -164h-50z" />
    <glyph glyph-name="Ydieresis" unicode="&#x178;" horiz-adv-x="594" 
d="M260 0v274l-247 414h80l202 -341h3l209 341h74l-250 -409v-279h-71zM362 805v90h68v-90h-68zM165 805v90h68v-90h-68z" />
    <glyph glyph-name="Zcaron" unicode="&#x17d;" horiz-adv-x="575" 
d="M57 628v60h481v-46l-413 -582h409v-60h-497v46l413 582h-393zM257 768l-128 164h65l94 -123l94 123h65l-128 -164h-62z" />
    <glyph glyph-name="aacute" unicode="&#xe1;" horiz-adv-x="517" 
d="M50 123c0 80 47 127 155 145l105 18c50 8 66 16 66 41c-2 75 -41 116 -116 116c-76 0 -121 -40 -126 -107h-65c5 96 75 163 191 163c119 0 184 -65 184 -178v-321h-65v78h-3c-28 -57 -88 -89 -166 -89c-102 0 -160 54 -160 134zM376 207v55c-11 -13 -31 -21 -56 -25
l-103 -17c-69 -11 -99 -42 -99 -91c0 -50 35 -84 103 -84c84 0 155 51 155 162zM223 568l106 164h81l-137 -164h-50z" />
    <glyph glyph-name="acircumflex" unicode="&#xe2;" horiz-adv-x="517" 
d="M50 123c0 80 47 127 155 145l105 18c50 8 66 16 66 41c-2 75 -41 116 -116 116c-76 0 -121 -40 -126 -107h-65c5 96 75 163 191 163c119 0 184 -65 184 -178v-321h-65v78h-3c-28 -57 -88 -89 -166 -89c-102 0 -160 54 -160 134zM376 207v55c-11 -13 -31 -21 -56 -25
l-103 -17c-69 -11 -99 -42 -99 -91c0 -50 35 -84 103 -84c84 0 155 51 155 162zM98 568l128 164h62l128 -164h-65l-94 123l-94 -123h-65z" />
    <glyph glyph-name="adieresis" unicode="&#xe4;" horiz-adv-x="517" 
d="M50 123c0 80 47 127 155 145l105 18c50 8 66 16 66 41c-2 75 -41 116 -116 116c-76 0 -121 -40 -126 -107h-65c5 96 75 163 191 163c119 0 184 -65 184 -178v-321h-65v78h-3c-28 -57 -88 -89 -166 -89c-102 0 -160 54 -160 134zM376 207v55c-11 -13 -31 -21 -56 -25
l-103 -17c-69 -11 -99 -42 -99 -91c0 -50 35 -84 103 -84c84 0 155 51 155 162zM322 605v90h68v-90h-68zM125 605v90h68v-90h-68z" />
    <glyph glyph-name="agrave" unicode="&#xe0;" horiz-adv-x="517" 
d="M50 123c0 80 47 127 155 145l105 18c50 8 66 16 66 41c-2 75 -41 116 -116 116c-76 0 -121 -40 -126 -107h-65c5 96 75 163 191 163c119 0 184 -65 184 -178v-321h-65v78h-3c-28 -57 -88 -89 -166 -89c-102 0 -160 54 -160 134zM376 207v55c-11 -13 -31 -21 -56 -25
l-103 -17c-69 -11 -99 -42 -99 -91c0 -50 35 -84 103 -84c84 0 155 51 155 162zM241 568l-137 164h81l106 -164h-50z" />
    <glyph glyph-name="aring" unicode="&#xe5;" horiz-adv-x="517" 
d="M50 123c0 80 47 127 155 145l105 18c50 8 66 16 66 41c-2 75 -41 116 -116 116c-76 0 -121 -40 -126 -107h-65c5 96 75 163 191 163c119 0 184 -65 184 -178v-321h-65v78h-3c-28 -57 -88 -89 -166 -89c-102 0 -160 54 -160 134zM376 207v55c-11 -13 -31 -21 -56 -25
l-103 -17c-69 -11 -99 -42 -99 -91c0 -50 35 -84 103 -84c84 0 155 51 155 162zM257 567c-50 0 -96 37 -96 93s46 93 96 93s96 -37 96 -93s-46 -93 -96 -93zM257 602c31 0 58 24 58 58s-27 58 -58 58s-58 -24 -58 -58s27 -58 58 -58z" />
    <glyph glyph-name="atilde" unicode="&#xe3;" horiz-adv-x="517" 
d="M50 123c0 80 47 127 155 145l105 18c50 8 66 16 66 41c-2 75 -41 116 -116 116c-76 0 -121 -40 -126 -107h-65c5 96 75 163 191 163c119 0 184 -65 184 -178v-321h-65v78h-3c-28 -57 -88 -89 -166 -89c-102 0 -160 54 -160 134zM376 207v55c-11 -13 -31 -21 -56 -25
l-103 -17c-69 -11 -99 -42 -99 -91c0 -50 35 -84 103 -84c84 0 155 51 155 162zM102 600c3 54 31 99 87 99s104 -51 141 -51c30 0 42 27 46 52h38c-3 -53 -31 -99 -87 -99s-104 51 -141 51c-30 0 -42 -27 -46 -52h-38z" />
    <glyph glyph-name="ccedilla" unicode="&#xe7;" horiz-adv-x="511" 
d="M228 -78l24 68c-128 8 -209 106 -209 254c0 154 98 255 226 255c116 0 190 -71 205 -172h-68c-13 66 -59 113 -137 113c-87 0 -155 -79 -155 -196s66 -196 155 -196c78 0 124 47 137 113h68c-15 -98 -84 -167 -194 -172l-4 -29c61 -3 92 -40 92 -85
c0 -50 -34 -91 -109 -91h-53v44h50c40 0 59 16 59 47c0 30 -21 47 -60 47h-27z" />
    <glyph glyph-name="eacute" unicode="&#xe9;" horiz-adv-x="519" 
d="M43 244c0 151 98 255 225 255c122 0 210 -86 210 -232v-28h-364c2 -114 62 -191 158 -191c77 0 124 44 134 100h68c-13 -89 -93 -159 -202 -159c-147 0 -229 101 -229 255zM268 440c-76 0 -136 -57 -151 -150h292c-7 102 -61 150 -141 150zM242 568l106 164h81l-137 -164
h-50z" />
    <glyph glyph-name="ecircumflex" unicode="&#xea;" horiz-adv-x="519" 
d="M43 244c0 151 98 255 225 255c122 0 210 -86 210 -232v-28h-364c2 -114 62 -191 158 -191c77 0 124 44 134 100h68c-13 -89 -93 -159 -202 -159c-147 0 -229 101 -229 255zM268 440c-76 0 -136 -57 -151 -150h292c-7 102 -61 150 -141 150zM109 568l128 164h62l128 -164
h-65l-94 123l-94 -123h-65z" />
    <glyph glyph-name="edieresis" unicode="&#xeb;" horiz-adv-x="519" 
d="M43 244c0 151 98 255 225 255c122 0 210 -86 210 -232v-28h-364c2 -114 62 -191 158 -191c77 0 124 44 134 100h68c-13 -89 -93 -159 -202 -159c-147 0 -229 101 -229 255zM268 440c-76 0 -136 -57 -151 -150h292c-7 102 -61 150 -141 150zM333 605v90h68v-90h-68z
M136 605v90h68v-90h-68z" />
    <glyph glyph-name="egrave" unicode="&#xe8;" horiz-adv-x="519" 
d="M43 244c0 151 98 255 225 255c122 0 210 -86 210 -232v-28h-364c2 -114 62 -191 158 -191c77 0 124 44 134 100h68c-13 -89 -93 -159 -202 -159c-147 0 -229 101 -229 255zM268 440c-76 0 -136 -57 -151 -150h292c-7 102 -61 150 -141 150zM244 568l-137 164h81l106 -164
h-50z" />
    <glyph glyph-name="iacute" unicode="&#xed;" horiz-adv-x="228" 
d="M80 0v488h68v-488h-68zM88 568l106 164h81l-137 -164h-50z" />
    <glyph glyph-name="icircumflex" unicode="&#xee;" horiz-adv-x="228" 
d="M80 0v488h68v-488h-68zM-45 568l128 164h62l128 -164h-65l-94 123l-94 -123h-65z" />
    <glyph glyph-name="idieresis" unicode="&#xef;" horiz-adv-x="228" 
d="M80 0v488h68v-488h-68zM179 605v90h68v-90h-68zM-18 605v90h68v-90h-68z" />
    <glyph glyph-name="igrave" unicode="&#xec;" horiz-adv-x="228" 
d="M80 0v488h68v-488h-68zM90 568l-137 164h81l106 -164h-50z" />
    <glyph glyph-name="ntilde" unicode="&#xf1;" horiz-adv-x="558" 
d="M80 0v488h65v-80h3c29 61 89 91 160 91c96 0 177 -53 177 -200v-299h-68v290c0 110 -50 150 -123 150c-80 0 -146 -65 -146 -186v-254h-68zM125 600c3 54 31 99 87 99s104 -51 141 -51c30 0 42 27 46 52h38c-3 -53 -31 -99 -87 -99s-104 51 -141 51
c-30 0 -42 -27 -46 -52h-38z" />
    <glyph glyph-name="oacute" unicode="&#xf3;" horiz-adv-x="550" 
d="M43 244c0 154 99 255 232 255c141 0 232 -101 232 -255s-99 -255 -232 -255c-141 0 -232 101 -232 255zM114 244c0 -117 66 -196 161 -196c93 0 161 79 161 196c0 120 -66 196 -161 196c-93 0 -161 -79 -161 -196zM249 568l106 164h81l-137 -164h-50z" />
    <glyph glyph-name="ocircumflex" unicode="&#xf4;" horiz-adv-x="550" 
d="M43 244c0 154 99 255 232 255c141 0 232 -101 232 -255s-99 -255 -232 -255c-141 0 -232 101 -232 255zM114 244c0 -117 66 -196 161 -196c93 0 161 79 161 196c0 120 -66 196 -161 196c-93 0 -161 -79 -161 -196zM116 568l128 164h62l128 -164h-65l-94 123l-94 -123h-65
z" />
    <glyph glyph-name="odieresis" unicode="&#xf6;" horiz-adv-x="550" 
d="M43 244c0 154 99 255 232 255c141 0 232 -101 232 -255s-99 -255 -232 -255c-141 0 -232 101 -232 255zM114 244c0 -117 66 -196 161 -196c93 0 161 79 161 196c0 120 -66 196 -161 196c-93 0 -161 -79 -161 -196zM340 605v90h68v-90h-68zM143 605v90h68v-90h-68z" />
    <glyph glyph-name="ograve" unicode="&#xf2;" horiz-adv-x="550" 
d="M43 244c0 154 99 255 232 255c141 0 232 -101 232 -255s-99 -255 -232 -255c-141 0 -232 101 -232 255zM114 244c0 -117 66 -196 161 -196c93 0 161 79 161 196c0 120 -66 196 -161 196c-93 0 -161 -79 -161 -196zM251 568l-137 164h81l106 -164h-50z" />
    <glyph glyph-name="otilde" unicode="&#xf5;" horiz-adv-x="550" 
d="M43 244c0 154 99 255 232 255c141 0 232 -101 232 -255s-99 -255 -232 -255c-141 0 -232 101 -232 255zM114 244c0 -117 66 -196 161 -196c93 0 161 79 161 196c0 120 -66 196 -161 196c-93 0 -161 -79 -161 -196zM120 600c3 54 31 99 87 99s104 -51 141 -51
c30 0 42 27 46 52h38c-3 -53 -31 -99 -87 -99s-104 51 -141 51c-30 0 -42 -27 -46 -52h-38z" />
    <glyph glyph-name="scaron" unicode="&#x161;" horiz-adv-x="481" 
d="M40 138h65c0 -67 65 -96 130 -96c83 0 132 33 132 92c0 46 -29 66 -87 76l-92 16c-67 11 -137 38 -137 127c0 92 82 146 187 146c99 0 186 -43 186 -144h-65c0 61 -53 91 -121 91s-121 -30 -121 -87c0 -45 32 -65 92 -75l92 -16c77 -14 134 -43 134 -128
c0 -100 -84 -151 -200 -151c-111 0 -195 49 -195 149zM207 568l-128 164h65l94 -123l94 123h65l-128 -164h-62z" />
    <glyph glyph-name="uacute" unicode="&#xfa;" horiz-adv-x="553" 
d="M72 189v299h68v-290c0 -110 49 -150 122 -150c80 0 143 64 143 187v253h68v-488h-65v80h-3c-30 -62 -88 -91 -157 -91c-96 0 -176 53 -176 200zM252 568l106 164h81l-137 -164h-50z" />
    <glyph glyph-name="ucircumflex" unicode="&#xfb;" horiz-adv-x="553" 
d="M72 189v299h68v-290c0 -110 49 -150 122 -150c80 0 143 64 143 187v253h68v-488h-65v80h-3c-30 -62 -88 -91 -157 -91c-96 0 -176 53 -176 200zM119 568l128 164h62l128 -164h-65l-94 123l-94 -123h-65z" />
    <glyph glyph-name="udieresis" unicode="&#xfc;" horiz-adv-x="553" 
d="M72 189v299h68v-290c0 -110 49 -150 122 -150c80 0 143 64 143 187v253h68v-488h-65v80h-3c-30 -62 -88 -91 -157 -91c-96 0 -176 53 -176 200zM343 605v90h68v-90h-68zM146 605v90h68v-90h-68z" />
    <glyph glyph-name="ugrave" unicode="&#xf9;" horiz-adv-x="553" 
d="M72 189v299h68v-290c0 -110 49 -150 122 -150c80 0 143 64 143 187v253h68v-488h-65v80h-3c-30 -62 -88 -91 -157 -91c-96 0 -176 53 -176 200zM254 568l-137 164h81l106 -164h-50z" />
    <glyph glyph-name="yacute" unicode="&#xfd;" horiz-adv-x="460" 
d="M33 -169h27c61 0 98 38 122 105l18 49l-192 503h74l150 -414h3l149 414h68l-214 -571c-27 -72 -72 -144 -166 -144h-39v58zM203 568l106 164h81l-137 -164h-50z" />
    <glyph glyph-name="ydieresis" unicode="&#xff;" horiz-adv-x="460" 
d="M33 -169h27c61 0 98 38 122 105l18 49l-192 503h74l150 -414h3l149 414h68l-214 -571c-27 -72 -72 -144 -166 -144h-39v58zM294 605v90h68v-90h-68zM97 605v90h68v-90h-68z" />
    <glyph glyph-name="zcaron" unicode="&#x17e;" horiz-adv-x="433" 
d="M31 433v55h367v-46l-277 -387h281v-55h-367v40l281 393h-285zM183 568l-128 164h65l94 -123l94 123h65l-128 -164h-62z" />
    <glyph glyph-name="Dcroat" unicode="&#x110;" horiz-adv-x="696" 
d="M4 317v58h87v313h197c239 0 361 -143 361 -344s-122 -344 -361 -344h-197v317h-87zM288 626h-126v-251h162v-58h-162v-255h126c205 0 287 128 287 282s-82 282 -287 282z" />
    <glyph glyph-name="Eng" unicode="&#x14a;" horiz-adv-x="723" 
d="M91 0v688h68l402 -567h2l-2 567h71v-735c0 -132 -60 -173 -162 -173h-48v65h45c63 0 94 31 94 114v45l-399 561h-3l3 -565h-71z" />
    <glyph glyph-name="Hbar" unicode="&#x126;" horiz-adv-x="716" 
d="M1 510v58h90v120h71v-120h392v120h71v-120h90v-58h-90v-510h-71v319h-392v-319h-71v510h-90zM162 510v-130h392v130h-392z" />
    <glyph glyph-name="Tbar" unicode="&#x166;" horiz-adv-x="579" 
d="M8 628v60h563v-60h-246v-272h186v-55h-186v-301h-71v301h-186v55h186v272h-246z" />
    <glyph glyph-name="longs" unicode="&#x17f;" horiz-adv-x="288" 
d="M100 0v433h-97v55h97v86c0 106 54 158 155 158h53v-59h-47c-67 0 -93 -33 -93 -102v-571h-68z" />
    <glyph glyph-name="dcroat" unicode="&#x111;" horiz-adv-x="576" 
d="M273 599v47h155v86h68v-86h80v-47h-80v-599h-65v88h-3c-31 -68 -96 -99 -172 -99c-121 0 -213 94 -213 251s98 259 219 259c75 0 135 -32 166 -98h3c-3 48 -3 157 -3 182v16h-155zM114 240c0 -123 69 -192 157 -192c86 0 153 68 157 187v18c-4 118 -71 187 -157 187
c-88 0 -157 -77 -157 -200z" />
    <glyph glyph-name="eng" unicode="&#x14b;" horiz-adv-x="558" 
d="M417 -84v374c0 110 -50 150 -123 150c-80 0 -146 -65 -146 -184v-256h-68v488h65v-80h3c29 61 89 91 160 91c96 0 177 -53 177 -200v-395c0 -76 -36 -124 -125 -124h-30v59h24c44 0 63 23 63 77z" />
    <glyph glyph-name="hbar" unicode="&#x127;" horiz-adv-x="558" 
d="M0 599v47h80v86h68v-86h155v-47h-155v-13c0 -25 -1 -130 -3 -178h3c29 61 89 91 160 91c96 0 177 -53 177 -200v-299h-68v290c0 110 -50 150 -123 150c-80 0 -146 -65 -146 -185v-255h-68v599h-80z" />
    <glyph glyph-name="napostrophe" unicode="&#x149;" horiz-adv-x="558" 
d="M80 0v488h65v-80h3c29 61 89 91 160 91c96 0 177 -53 177 -200v-299h-68v290c0 110 -50 150 -123 150c-80 0 -146 -65 -146 -186v-254h-68zM77 568l27 97h-28v80h68v-74l-36 -103h-31z" />
    <glyph glyph-name="tbar" unicode="&#x167;" horiz-adv-x="317" 
d="M-6 232v47h98v154h-98v55h98v148h68v-148h133v-55h-133v-154h133v-47h-133v-89c0 -62 24 -84 78 -84h55v-59h-64c-91 0 -137 44 -137 140v92h-98z" />
    <glyph glyph-name="IJ" unicode="&#x132;" horiz-adv-x="769" 
d="M91 0v688h71v-688h-71zM301 193v35h71v-32c0 -107 52 -145 124 -145c70 0 123 40 123 145v492h71v-495c0 -146 -82 -204 -194 -204c-114 0 -195 58 -195 204z" />
    <glyph glyph-name="ij" unicode="&#x133;" horiz-adv-x="456" 
d="M77 636v96h74v-96h-74zM80 0v488h68v-488h-68zM305 636v96h74v-96h-74zM308 -84v572h68v-584c0 -76 -36 -124 -125 -124h-30v59h24c44 0 63 23 63 77z" />
    <glyph glyph-name="Euro" unicode="&#x20ac;" horiz-adv-x="568" 
d="M21 403l12 44h61c24 148 103 252 243 252c121 0 187 -68 210 -179h-66c-22 77 -63 120 -141 120c-96 0 -155 -73 -175 -193h212l-12 -44h-206c-1 -19 -2 -39 -2 -59c0 -17 0 -33 1 -48h200l-11 -44h-184c18 -127 78 -204 177 -204c73 0 111 35 134 100h66
c-26 -101 -88 -159 -203 -159c-144 0 -223 109 -245 263h-90l12 44h74c-1 15 -2 31 -2 48c0 20 1 40 2 59h-67z" />
    <glyph glyph-name="afii61352" unicode="&#x2116;" horiz-adv-x="1177" 
d="M91 0v688h71l399 -571h3l-3 571h71v-688h-71l-399 568h-3l3 -568h-71zM771 516c0 109 71 180 170 180c105 0 171 -71 171 -180s-71 -179 -171 -179c-104 0 -170 70 -170 179zM835 516c0 -77 42 -130 106 -130c63 0 107 53 107 130c0 79 -43 130 -107 130
c-62 0 -106 -52 -106 -130zM770 0v50h343v-50h-343zM770 179v50h343v-50h-343z" />
    <glyph glyph-name="estimated" unicode="&#x212e;" horiz-adv-x="850" 
d="M184 113c60 -63 146 -103 243 -103c102 0 193 44 255 117h58c-72 -84 -187 -139 -314 -139c-219 0 -397 158 -397 356c0 197 178 356 397 356c218 0 396 -159 396 -356v-10h-641c-4 0 -7 -1 -7 -4v-194c0 -8 4 -16 10 -23zM181 355h492c2 0 4 2 4 6v193
c0 10 -3 17 -10 24c-61 62 -147 100 -240 100c-96 0 -182 -41 -242 -103c-7 -7 -11 -16 -11 -26v-188c0 -4 3 -6 7 -6z" />
    <glyph glyph-name="a.sc" unicode="&#xf761;" horiz-adv-x="508" 
d="M10 0l205 520h80l203 -520h-71l-54 141h-241l-54 -141h-68zM255 451h-3l-98 -254h198z" />
    <glyph glyph-name="b.sc" unicode="&#xf762;" horiz-adv-x="569" 
d="M91 0v520h230c115 0 171 -50 171 -132c0 -48 -27 -96 -92 -111v-2c71 -11 115 -62 115 -125c0 -87 -63 -150 -179 -150h-245zM336 241h-177v-182h177c73 0 108 38 108 94c0 52 -37 88 -108 88zM321 461h-162v-162h164c64 0 98 37 98 87c0 47 -29 75 -100 75z" />
    <glyph glyph-name="c.sc" unicode="&#xf763;" horiz-adv-x="581" 
d="M46 260c0 153 105 271 260 271c127 0 212 -72 236 -175h-68c-21 69 -75 113 -165 113c-117 0 -192 -90 -192 -209c0 -113 72 -209 192 -209c91 0 142 43 165 113h68c-25 -105 -110 -175 -236 -175c-158 0 -260 124 -260 271z" />
    <glyph glyph-name="d.sc" unicode="&#xf764;" horiz-adv-x="592" 
d="M91 0v520h176c180 0 279 -108 279 -260c0 -149 -99 -260 -279 -260h-176zM267 461h-108v-402h108c147 0 208 93 208 201c0 109 -61 201 -208 201z" />
    <glyph glyph-name="e.sc" unicode="&#xf765;" horiz-adv-x="522" 
d="M91 0v520h371v-59h-303v-167h246v-57h-246v-178h311v-59h-379z" />
    <glyph glyph-name="f.sc" unicode="&#xf766;" horiz-adv-x="492" 
d="M91 0v520h367v-59h-299v-187h239v-57h-239v-217h-68z" />
    <glyph glyph-name="g.sc" unicode="&#xf767;" horiz-adv-x="632" 
d="M319 217v56h236v-273h-44l-9 83h-1c-38 -62 -101 -94 -189 -94c-157 0 -263 124 -263 271c0 156 110 271 271 271c130 0 214 -74 234 -165h-71c-15 54 -69 103 -163 103c-122 0 -200 -87 -200 -209c0 -114 74 -209 195 -209c92 0 178 47 178 150v16h-174z" />
    <glyph glyph-name="h.sc" unicode="&#xf768;" horiz-adv-x="617" 
d="M91 0v520h68v-228h299v228h68v-520h-68v233h-299v-233h-68z" />
    <glyph glyph-name="i.sc" unicode="&#xf769;" horiz-adv-x="250" 
d="M91 0v520h68v-520h-68z" />
    <glyph glyph-name="j.sc" unicode="&#xf76a;" horiz-adv-x="441" 
d="M44 149v26h65v-26c0 -73 38 -101 94 -101c53 0 94 30 94 104v368h68v-365c0 -116 -70 -166 -162 -166c-93 0 -159 47 -159 160z" />
    <glyph glyph-name="k.sc" unicode="&#xf76b;" horiz-adv-x="552" 
d="M91 0v520h68v-298l281 298h81l-219 -228l232 -292h-80l-196 246l-99 -103v-143h-68z" />
    <glyph glyph-name="l.sc" unicode="&#xf76c;" horiz-adv-x="460" 
d="M91 0v520h68v-458h280v-62h-348z" />
    <glyph glyph-name="m.sc" unicode="&#xf76d;" horiz-adv-x="753" 
d="M91 0v520h85l201 -431h2l200 431h83v-520h-68l5 417h-2l-196 -417h-50l-195 417h-3l6 -417h-68z" />
    <glyph glyph-name="n.sc" unicode="&#xf76e;" horiz-adv-x="618" 
d="M91 0v520h62l306 -408h2l-2 408h68v-520h-62l-306 409h-3l3 -409h-68z" />
    <glyph glyph-name="o.sc" unicode="&#xf76f;" horiz-adv-x="624" 
d="M46 260c0 155 113 271 266 271c152 0 266 -116 266 -271s-114 -271 -266 -271c-153 0 -266 116 -266 271zM117 260c0 -120 78 -209 195 -209c116 0 195 89 195 209s-79 209 -195 209c-117 0 -195 -89 -195 -209z" />
    <glyph glyph-name="p.sc" unicode="&#xf770;" horiz-adv-x="538" 
d="M91 0v520h219c119 0 183 -71 183 -168s-64 -167 -183 -167h-151v-185h-68zM310 461h-151v-217h151c76 0 115 45 115 108c0 64 -39 109 -115 109z" />
    <glyph glyph-name="q.sc" unicode="&#xf771;" horiz-adv-x="624" 
d="M46 260c0 155 113 271 266 271c152 0 266 -116 266 -271c0 -83 -33 -154 -86 -203l104 -107l-46 -43l-110 113c-37 -20 -81 -31 -128 -31c-153 0 -266 116 -266 271zM117 260c0 -120 78 -209 195 -209c116 0 195 89 195 209s-79 209 -195 209c-117 0 -195 -89 -195 -209z
" />
    <glyph glyph-name="r.sc" unicode="&#xf772;" horiz-adv-x="559" 
d="M91 0v520h225c116 0 178 -58 178 -154c0 -81 -45 -139 -128 -155l148 -211h-77l-141 207h-137v-207h-68zM316 461h-157v-195h157c74 0 110 40 110 100c0 58 -38 95 -110 95z" />
    <glyph glyph-name="s.sc" unicode="&#xf773;" horiz-adv-x="518" 
d="M47 146h68c0 -65 56 -101 143 -101s139 34 139 98c0 143 -339 29 -339 235c0 90 78 153 202 153c121 0 195 -60 195 -151h-65c0 57 -52 95 -130 95c-81 0 -133 -31 -133 -91c0 -145 341 -31 341 -235c0 -98 -77 -160 -210 -160c-130 0 -211 60 -211 157z" />
    <glyph glyph-name="t.sc" unicode="&#xf774;" horiz-adv-x="497" 
d="M18 461v59h462v-59h-197v-461h-68v461h-197z" />
    <glyph glyph-name="u.sc" unicode="&#xf775;" horiz-adv-x="589" 
d="M76 207v313h68v-313c0 -100 51 -156 149 -156s152 56 152 156v313h68v-313c0 -156 -93 -218 -220 -218c-126 0 -217 62 -217 218z" />
    <glyph glyph-name="v.sc" unicode="&#xf776;" horiz-adv-x="502" 
d="M207 0l-197 520h71l170 -451h3l170 451h68l-200 -520h-85z" />
    <glyph glyph-name="w.sc" unicode="&#xf777;" horiz-adv-x="754" 
d="M159 0l-143 520h71l117 -446h3l138 446h70l137 -446h3l115 446h68l-140 -520h-87l-132 433h-2l-131 -433h-87z" />
    <glyph glyph-name="x.sc" unicode="&#xf778;" horiz-adv-x="486" 
d="M12 0l193 266l-186 254h80l146 -203l143 203h77l-185 -252l194 -268h-74l-160 218l-157 -218h-71z" />
    <glyph glyph-name="y.sc" unicode="&#xf779;" horiz-adv-x="486" 
d="M207 0v206l-202 314h80l158 -249h2l162 249h73l-205 -313v-207h-68z" />
    <glyph glyph-name="z.sc" unicode="&#xf77a;" horiz-adv-x="495" 
d="M52 461v59h396v-43l-320 -418h316v-59h-405v43l318 418h-305z" />
    <glyph glyph-name="dcroat.sc" unicode="&#xf676;" horiz-adv-x="592" 
d="M4 235v50h87v235h176c180 0 279 -108 279 -260c0 -149 -99 -260 -279 -260h-176v235h-87zM267 461h-108v-176h111v-50h-111v-176h108c147 0 208 93 208 201c0 109 -61 201 -208 201z" />
    <glyph glyph-name="hbar.sc" unicode="&#xf681;" horiz-adv-x="617" 
d="M10 385v49h81v86h68v-86h299v86h68v-86h81v-49h-81v-385h-68v233h-299v-233h-68v385h-81zM159 385v-93h299v93h-299z" />
    <glyph glyph-name="dotlessi.sc" unicode="&#xe08e;" horiz-adv-x="250" 
d="M91 0v520h68v-520h-68z" />
    <glyph glyph-name="oslash.sc" unicode="&#xf7f8;" horiz-adv-x="624" 
d="M61 -11l62 75c-48 49 -77 117 -77 196c0 155 113 271 266 271c59 0 113 -18 156 -49l41 49h57l-64 -78c47 -48 76 -116 76 -193c0 -155 -114 -271 -266 -271c-59 0 -112 17 -155 47l-39 -47h-57zM117 260c0 -58 17 -108 49 -145l261 317c-31 23 -70 37 -115 37
c-117 0 -195 -89 -195 -209zM507 260c0 56 -18 105 -48 142l-261 -316c31 -23 69 -35 114 -35c116 0 195 89 195 209z" />
    <glyph glyph-name="tbar.sc" unicode="&#xf69c;" horiz-adv-x="497" 
d="M18 461v59h462v-59h-197v-193h154v-50h-154v-218h-68v218h-148v50h148v193h-197z" />
    <glyph glyph-name="eng.sc" unicode="&#xf67b;" horiz-adv-x="618" 
d="M91 0v520h62l306 -406h2l-2 406h68v-567c0 -132 -57 -173 -159 -173h-48v62h45c63 0 94 31 94 114v56l-300 394h-3l3 -406h-68z" />
    <glyph glyph-name="eth.sc" unicode="&#xf7f0;" horiz-adv-x="592" 
d="M4 235v50h87v235h176c180 0 279 -108 279 -260c0 -149 -99 -260 -279 -260h-176v235h-87zM267 461h-108v-176h111v-50h-111v-176h108c147 0 208 93 208 201c0 109 -61 201 -208 201z" />
    <glyph glyph-name="thorn.sc" unicode="&#xf7fe;" horiz-adv-x="538" 
d="M91 0v520h68v-84h151c119 0 183 -71 183 -167c0 -98 -64 -168 -183 -168h-151v-101h-68zM310 377h-151v-218h151c76 0 115 46 115 110c0 63 -39 108 -115 108z" />
    <glyph glyph-name="germandbls.sc" unicode="&#xe0a4;" horiz-adv-x="1036" 
d="M47 146h68c0 -65 56 -101 143 -101s139 34 139 98c0 143 -339 29 -339 235c0 90 78 153 202 153c121 0 195 -60 195 -151h-65c0 57 -52 95 -130 95c-81 0 -133 -31 -133 -91c0 -145 341 -31 341 -235c0 -98 -77 -160 -210 -160c-130 0 -211 60 -211 157zM565 146h68
c0 -65 56 -101 143 -101s139 34 139 98c0 143 -339 29 -339 235c0 90 78 153 202 153c121 0 195 -60 195 -151h-65c0 57 -52 95 -130 95c-81 0 -133 -31 -133 -91c0 -145 341 -31 341 -235c0 -98 -77 -160 -210 -160c-130 0 -211 60 -211 157z" />
    <glyph glyph-name="ae.sc" unicode="&#xf7e6;" horiz-adv-x="863" 
d="M2 0l406 520h392v-59h-303v-167h246v-57h-246v-178h311v-59h-379v129h-251l-99 -129h-77zM427 453l-206 -268h208v268h-2z" />
    <glyph glyph-name="oe.sc" unicode="&#xf6fa;" horiz-adv-x="864" 
d="M801 461h-303v-167h246v-57h-246v-178h311v-59h-484c-180 0 -279 108 -279 260c0 149 98 260 279 260h476v-59zM117 260c0 -109 61 -201 208 -201h105v402h-105c-147 0 -208 -93 -208 -201z" />
    <glyph glyph-name="ij.sc" unicode="&#xf684;" horiz-adv-x="694" 
d="M91 0v520h68v-520h-68zM297 149v26h65v-23c0 -73 38 -104 94 -104c53 0 94 32 94 107v365h68v-365c0 -116 -70 -166 -162 -166c-93 0 -159 47 -159 160z" />
    <glyph glyph-name="ampersand.sc" unicode="&#xf726;" horiz-adv-x="573" 
d="M52 134c0 80 62 120 129 151c-47 48 -64 79 -64 119c0 66 50 125 146 125c93 0 140 -49 140 -118c0 -73 -65 -107 -132 -138l152 -142c20 34 28 74 28 113v16h59v-15c0 -42 -10 -102 -44 -154l97 -91h-78l-54 50c-39 -36 -96 -61 -177 -61c-128 0 -202 57 -202 145z
M255 45c60 0 104 17 134 43l-172 161c-53 -26 -97 -56 -97 -110c0 -61 58 -94 135 -94zM176 405c0 -30 19 -56 59 -97c58 26 107 52 107 99c0 41 -26 71 -83 71c-52 0 -83 -32 -83 -73z" />
    <glyph glyph-name="exclam.sc" unicode="&#xf721;" horiz-adv-x="256" 
d="M109 148l-21 234v138h80v-138l-21 -234h-38zM88 0v94h80v-94h-80z" />
    <glyph glyph-name="exclamdown.sc" unicode="&#xf7a1;" horiz-adv-x="256" 
d="M88 426v94h80v-94h-80zM88 0v138l21 234h38l21 -234v-138h-80z" />
    <glyph glyph-name="question.sc" unicode="&#xf73f;" horiz-adv-x="453" 
d="M190 151v20c0 133 157 130 157 222c0 48 -51 82 -118 82c-79 0 -126 -43 -126 -111h-65c0 95 69 167 191 167c107 0 186 -50 186 -135c0 -125 -160 -121 -160 -222v-23h-65zM184 0v94h77v-94h-77z" />
    <glyph glyph-name="questiondown.sc" unicode="&#xf7bf;" horiz-adv-x="453" 
d="M263 369v-20c0 -133 -157 -130 -157 -222c0 -48 50 -82 118 -82c79 0 126 43 126 111h65c0 -95 -70 -167 -191 -167c-107 0 -186 50 -186 135c0 125 160 121 160 222v23h65zM268 520v-94h-76v94h76z" />
    <glyph glyph-name="zero.oldstyle" unicode="&#xf730;" horiz-adv-x="574" 
d="M41 244c0 151 106 255 246 255c148 0 246 -104 246 -255s-106 -255 -246 -255c-148 0 -246 104 -246 255zM112 244c0 -117 73 -196 175 -196c100 0 175 79 175 196c0 120 -73 196 -175 196c-100 0 -175 -79 -175 -196z" />
    <glyph glyph-name="one.oldstyle" unicode="&#xf731;" horiz-adv-x="326" 
d="M42 316l-31 52l175 121h52v-489h-67v405z" />
    <glyph glyph-name="two.oldstyle" unicode="&#xf732;" horiz-adv-x="483" 
d="M42 0c0 132 71 185 163 225l56 24c64 27 109 46 109 105c0 41 -32 89 -123 89c-82 0 -135 -40 -141 -125h-62c4 134 107 181 203 181c117 0 191 -58 191 -145c0 -93 -71 -121 -149 -155l-57 -24c-63 -27 -110 -64 -110 -116h320v-59h-400z" />
    <glyph glyph-name="three.oldstyle" unicode="&#xf733;" horiz-adv-x="514" 
d="M23 5h65c0 -107 68 -157 161 -157c94 0 161 52 161 141c0 85 -71 139 -161 139h-48v59h48c75 0 136 51 136 129c0 80 -63 124 -136 124s-136 -42 -136 -138h-62c0 124 84 197 198 197c118 0 201 -73 201 -182c0 -72 -51 -136 -108 -156v-4c77 -20 136 -85 136 -170
c0 -125 -100 -198 -229 -198c-134 0 -226 70 -226 216z" />
    <glyph glyph-name="four.oldstyle" unicode="&#xf734;" horiz-adv-x="528" 
d="M25 2v49l335 438h53v-428h99v-59h-99v-202h-68v202h-320zM99 61h246v316z" />
    <glyph glyph-name="five.oldstyle" unicode="&#xf735;" horiz-adv-x="499" 
d="M38 -20h68c9 -65 54 -132 153 -132c81 0 153 59 153 166c0 105 -66 167 -149 167c-60 0 -102 -30 -140 -81l-63 3l20 385h359v-62h-297l-14 -248h3c32 39 77 62 141 62c116 0 208 -82 208 -220c0 -152 -106 -231 -221 -231c-134 0 -209 81 -221 191z" />
    <glyph glyph-name="six.oldstyle" unicode="&#xf736;" horiz-adv-x="544" 
d="M47 325c0 275 108 374 240 374c126 0 189 -76 201 -183h-68c-9 70 -47 124 -133 124c-96 0 -169 -81 -169 -311c26 68 95 111 175 111c126 0 211 -89 211 -223c0 -145 -104 -228 -221 -228c-134 0 -236 85 -236 336zM131 209c0 -99 67 -161 151 -161c88 0 154 62 154 169
c0 97 -64 164 -150 164c-93 0 -155 -69 -155 -172z" />
    <glyph glyph-name="seven.oldstyle" unicode="&#xf737;" horiz-adv-x="448" 
d="M62 -200l296 626h-342v62h416v-49l-299 -639h-71z" />
    <glyph glyph-name="eight.oldstyle" unicode="&#xf738;" horiz-adv-x="541" 
d="M39 183c0 88 60 154 136 174v4c-60 20 -108 83 -108 156c0 109 84 182 204 182s204 -73 204 -182c0 -73 -48 -136 -108 -156v-4c76 -20 136 -86 136 -174c0 -122 -95 -194 -232 -194s-232 72 -232 194zM107 188c0 -89 68 -140 164 -140s164 51 164 140
c0 84 -72 140 -164 140s-164 -56 -164 -140zM271 387c77 0 139 51 139 129c0 80 -64 127 -139 127s-139 -47 -139 -127c0 -78 62 -129 139 -129z" />
    <glyph glyph-name="nine.oldstyle" unicode="&#xf739;" horiz-adv-x="538" 
d="M489 166c0 -281 -101 -377 -239 -377c-123 0 -195 76 -202 183h68c8 -70 51 -124 134 -124c102 0 168 81 168 311c-26 -69 -96 -111 -175 -111c-126 0 -211 89 -211 223c0 145 104 228 221 228c134 0 236 -81 236 -333zM405 279c0 81 -54 161 -150 161
c-89 0 -155 -62 -155 -169c0 -97 64 -164 151 -164c93 0 154 69 154 172z" />
    <glyph glyph-name="a.superior" unicode="&#xf6e9;" horiz-adv-x="382" 
d="M37 585c0 55 34 92 111 102l76 10c35 4 44 10 44 30c0 44 -26 74 -76 74c-44 0 -78 -21 -82 -70h-58c5 83 68 117 140 117c84 0 138 -41 138 -123v-229h-60v47h-2c-21 -33 -62 -55 -118 -55c-72 0 -113 39 -113 97zM268 639v34c-7 -9 -19 -14 -36 -16l-70 -9
c-45 -6 -63 -28 -63 -59c0 -35 25 -56 66 -56c56 0 103 34 103 106z" />
    <glyph glyph-name="b.superior" unicode="&#xf6ea;" horiz-adv-x="421" 
d="M55 496v516h62v-101c0 -18 0 -90 -3 -128h2c23 43 67 65 122 65c84 0 149 -65 149 -178c0 -112 -71 -181 -154 -181c-55 0 -95 20 -117 63h-2v-56h-59zM117 668c0 -79 44 -129 104 -129c59 0 102 52 102 131s-42 127 -102 127c-58 0 -102 -48 -104 -123v-6z" />
    <glyph glyph-name="d.superior" unicode="&#xf6eb;" horiz-adv-x="421" 
d="M34 666c0 112 72 182 154 182c59 0 96 -22 117 -65h3c-3 37 -3 104 -3 123v106h62v-516h-59v58h-3c-22 -44 -67 -65 -121 -65c-84 0 -150 65 -150 177zM98 666c0 -79 43 -127 103 -127c58 0 104 50 104 129s-44 129 -104 129c-59 0 -103 -51 -103 -131z" />
    <glyph glyph-name="e.superior" unicode="&#xf6ec;" horiz-adv-x="390" 
d="M34 668c0 107 69 180 166 180c92 0 156 -63 156 -168v-19h-259c2 -81 42 -123 104 -123c54 0 84 27 91 62h57c-9 -64 -65 -111 -148 -111c-102 0 -167 67 -167 179zM200 799c-54 0 -91 -36 -101 -96h193c-5 62 -40 96 -92 96z" />
    <glyph glyph-name="g.superior" unicode="&#xe0a3;" horiz-adv-x="421" 
d="M43 454h59c0 -47 40 -71 95 -71c67 0 111 35 111 129v42h-3c-22 -44 -67 -65 -121 -65c-84 0 -150 65 -150 177s72 182 154 182c56 0 96 -22 117 -65h3v57h59v-330c0 -130 -71 -175 -170 -175c-88 0 -153 40 -154 119zM98 666c0 -79 43 -127 103 -127
c58 0 104 50 104 129s-44 129 -104 129c-59 0 -103 -51 -103 -131z" />
    <glyph glyph-name="h.superior" unicode="&#xf637;" horiz-adv-x="406" 
d="M55 496v516h62v-100c0 -17 0 -88 -3 -125h2c22 42 62 61 114 61c69 0 125 -38 125 -138v-214h-62v200c0 74 -33 100 -83 100c-51 0 -93 -43 -93 -121v-179h-62z" />
    <glyph glyph-name="i.superior" unicode="&#xf6ed;" horiz-adv-x="166" 
d="M50 936v76h66v-76h-66zM52 496v344h62v-344h-62z" />
    <glyph glyph-name="l.superior" unicode="&#xf6ee;" horiz-adv-x="172" 
d="M55 496v516h62v-516h-62z" />
    <glyph glyph-name="m.superior" unicode="&#xf6ef;" horiz-adv-x="626" 
d="M55 496v344h59v-52h3c21 41 59 60 109 60c47 0 91 -21 110 -73c23 53 64 73 120 73c63 0 119 -35 119 -134v-218h-62v205c0 70 -29 95 -76 95c-49 0 -91 -39 -91 -120v-180h-62v204c0 69 -29 96 -77 96c-47 0 -90 -39 -90 -119v-181h-62z" />
    <glyph glyph-name="n.superior" unicode="&#x207f;" horiz-adv-x="406" 
d="M55 496v344h59v-52h3c21 41 61 60 113 60c69 0 125 -38 125 -138v-214h-62v200c0 74 -33 100 -83 100c-51 0 -93 -43 -93 -121v-179h-62z" />
    <glyph glyph-name="o.superior" unicode="&#xf6f0;" horiz-adv-x="409" 
d="M34 668c0 109 71 180 170 180c105 0 171 -71 171 -180s-71 -179 -171 -179c-103 0 -170 70 -170 179zM98 668c0 -77 43 -129 106 -129s107 52 107 129c0 79 -42 129 -107 129c-62 0 -106 -51 -106 -129z" />
    <glyph glyph-name="r.superior" unicode="&#xf6f1;" horiz-adv-x="264" 
d="M55 496v344h59v-59h3c16 38 45 67 92 67c15 0 33 -3 50 -16l-15 -56c-15 10 -32 14 -45 14c-53 0 -82 -59 -82 -126v-168h-62z" />
    <glyph glyph-name="s.superior" unicode="&#xf6f2;" horiz-adv-x="366" 
d="M35 598h59c4 -47 41 -65 91 -65c49 0 84 18 84 54c0 34 -25 45 -64 52l-67 14c-53 10 -95 32 -95 93c0 66 60 102 141 102c77 0 136 -32 141 -105h-59c-3 44 -38 60 -81 60c-48 0 -81 -18 -81 -51c0 -32 24 -42 63 -50l67 -13c52 -10 97 -31 97 -95
c0 -70 -63 -105 -146 -105c-84 0 -144 31 -150 109z" />
    <glyph glyph-name="t.superior" unicode="&#xf6f3;" horiz-adv-x="247" 
d="M75 604v186h-67v50h67v104h62v-104h92v-50h-92v-182c0 -42 14 -59 52 -59h40v-53h-47c-78 0 -107 30 -107 108z" />
    <glyph glyph-name="period.superior" unicode="&#xf6e8;" horiz-adv-x="172" 
d="M52 496v83h68v-83h-68z" />
    <glyph glyph-name="comma.superior" unicode="&#xf6e2;" horiz-adv-x="172" 
d="M52 496v83h68v-80l-27 -111h-35l22 108h-28z" />
    <glyph glyph-name="dollar.superior" unicode="&#xf6e4;" 
d="M34 595h56c3 -38 39 -62 87 -62c42 0 79 18 79 55c0 87 -214 23 -214 156c0 55 43 93 109 101v55h50v-55c60 -7 101 -42 106 -93h-59c-5 35 -36 51 -72 51c-42 0 -75 -16 -75 -50c0 -87 214 -26 214 -159c0 -60 -43 -97 -113 -104v-61h-50v61c-71 7 -116 45 -118 105z
" />
    <glyph glyph-name="cent.superior" unicode="&#xf6e0;" 
d="M41 668c0 68 43 120 119 129v50h50v-50c62 -8 98 -49 103 -91h-59c-5 23 -28 47 -69 47c-51 0 -82 -34 -82 -85s31 -85 82 -85c41 0 64 24 69 47h59c-5 -43 -41 -83 -103 -92v-49h-50v49c-76 10 -119 61 -119 130z" />
    <glyph glyph-name="hyphen.superior" unicode="&#xf6e6;" horiz-adv-x="276" 
d="M37 643v53h202v-53h-202z" />
    <glyph glyph-name="parenleft.superior" unicode="&#x207d;" horiz-adv-x="204" 
d="M140 424c-38 46 -80 140 -80 244s42 198 80 244h56c-34 -42 -80 -141 -80 -244s46 -202 80 -244h-56z" />
    <glyph glyph-name="parenright.superior" unicode="&#x207e;" horiz-adv-x="204" 
d="M8 424c34 42 80 141 80 244s-46 202 -80 244h56c38 -46 80 -140 80 -244s-42 -198 -80 -244h-56z" />
    <glyph glyph-name="period.inferior" unicode="&#xf6e7;" horiz-adv-x="172" 
d="M52 -152v83h68v-83h-68z" />
    <glyph glyph-name="comma.inferior" unicode="&#xf6e1;" horiz-adv-x="172" 
d="M52 -152v83h68v-80l-27 -111h-35l22 108h-28z" />
    <glyph glyph-name="dollar.inferior" unicode="&#xf6e3;" 
d="M34 -53h56c3 -38 39 -62 87 -62c42 0 79 18 79 55c0 87 -214 23 -214 156c0 55 43 93 109 101v55h50v-55c60 -7 101 -42 106 -93h-59c-5 35 -36 51 -72 51c-42 0 -75 -16 -75 -50c0 -87 214 -26 214 -159c0 -60 -43 -97 -113 -104v-61h-50v61c-71 7 -116 45 -118 105z
" />
    <glyph glyph-name="cent.inferior" unicode="&#xf6df;" 
d="M41 20c0 68 43 120 119 129v50h50v-50c62 -8 98 -49 103 -91h-59c-5 23 -28 47 -69 47c-51 0 -82 -34 -82 -85s31 -85 82 -85c41 0 64 24 69 47h59c-5 -43 -41 -83 -103 -92v-49h-50v49c-76 10 -119 61 -119 130z" />
    <glyph glyph-name="hyphen.inferior" unicode="&#xf6e5;" horiz-adv-x="276" 
d="M37 -5v53h202v-53h-202z" />
    <glyph glyph-name="parenleft.inferior" unicode="&#x208d;" horiz-adv-x="204" 
d="M140 -224c-38 46 -80 140 -80 244s42 198 80 244h56c-34 -42 -80 -141 -80 -244s46 -202 80 -244h-56z" />
    <glyph glyph-name="parenright.inferior" unicode="&#x208e;" horiz-adv-x="204" 
d="M8 -224c34 42 80 141 80 244s-46 202 -80 244h56c38 -46 80 -140 80 -244s-42 -198 -80 -244h-56z" />
    <glyph glyph-name="zero.numerator" unicode="&#xf661;" 
d="M176 336c-99 0 -144 80 -144 180s45 180 144 180c100 0 144 -80 144 -180s-44 -180 -144 -180zM176 383c56 0 85 51 85 133s-28 133 -85 133c-56 0 -85 -51 -85 -133s30 -133 85 -133z" />
    <glyph glyph-name="one.numerator" unicode="&#xf662;" 
d="M71 565l-25 42l137 81h37v-294h98v-50h-263v50h106v223z" />
    <glyph glyph-name="two.numerator" unicode="&#xf663;" 
d="M39 344c1 97 53 134 109 162l29 15c40 19 73 39 73 70c0 35 -24 57 -72 57c-45 0 -79 -24 -82 -76h-56c3 90 69 123 138 123c78 0 131 -36 131 -102c0 -62 -55 -89 -107 -115l-29 -14c-38 -19 -66 -43 -66 -70h204v-50h-272z" />
    <glyph glyph-name="three.numerator" unicode="&#xf664;" 
d="M37 446h56c0 -44 35 -66 83 -66s83 20 83 61c0 40 -35 61 -83 61h-29v41h29c44 0 73 19 73 54c0 36 -31 54 -73 54s-74 -23 -74 -62h-56c0 70 55 107 133 107c75 0 128 -38 128 -94c0 -38 -23 -69 -61 -78v-2c42 -9 73 -41 73 -87c0 -63 -55 -99 -143 -99
c-81 0 -139 31 -139 110z" />
    <glyph glyph-name="four.numerator" unicode="&#xf665;" 
d="M27 417v38l192 234h50v-225h53v-47h-53v-73h-59v73h-183zM92 464h118v145z" />
    <glyph glyph-name="five.numerator" unicode="&#xf666;" 
d="M50 435h57c5 -28 28 -55 74 -55c41 0 76 27 76 73c0 49 -35 71 -76 71c-29 0 -54 -13 -69 -38l-57 3l12 199h229v-50h-176l-9 -101h3c16 19 44 31 78 31c71 0 124 -35 124 -115c0 -74 -62 -117 -133 -117c-89 0 -127 44 -133 99z" />
    <glyph glyph-name="six.numerator" unicode="&#xf667;" 
d="M305 598h-59c-2 30 -24 53 -62 53c-43 0 -83 -27 -86 -128c14 26 49 45 92 45c70 0 123 -35 123 -115c0 -74 -62 -117 -133 -117c-80 0 -141 43 -141 172c0 139 65 188 145 188s116 -43 121 -98zM103 454c0 -46 31 -74 76 -74c40 0 75 27 75 73c0 49 -35 71 -75 71
c-41 0 -76 -25 -76 -70z" />
    <glyph glyph-name="seven.numerator" unicode="&#xf668;" 
d="M89 344l157 291h-209v53h280v-37l-163 -307h-65z" />
    <glyph glyph-name="eight.numerator" unicode="&#xf669;" 
d="M33 435c0 46 31 78 73 86v3c-38 9 -61 40 -61 78c0 56 53 94 131 94s131 -38 131 -94c0 -38 -23 -69 -61 -78v-3c42 -8 73 -40 73 -86c0 -63 -55 -99 -143 -99s-143 36 -143 99zM93 441c0 -41 35 -61 83 -61s83 20 83 61c0 40 -35 61 -83 61s-83 -21 -83 -61zM103 597
c0 -35 29 -54 73 -54s73 19 73 54c0 36 -31 54 -73 54s-73 -18 -73 -54z" />
    <glyph glyph-name="nine.numerator" unicode="&#xf66a;" 
d="M45 434h59c2 -31 30 -54 68 -54c43 0 77 28 80 127c-11 -25 -50 -43 -90 -43c-72 0 -125 38 -125 111c0 75 61 121 133 121c80 0 141 -43 141 -172c0 -139 -59 -188 -139 -188s-122 42 -127 98zM247 578c0 39 -26 73 -76 73c-40 0 -75 -26 -75 -73c0 -48 35 -70 75 -70
c41 0 76 24 76 70z" />
    <glyph glyph-name="period.numerator" unicode="&#xf66c;" horiz-adv-x="172" 
d="M52 344v83h68v-83h-68z" />
    <glyph glyph-name="comma.numerator" unicode="&#xf66b;" horiz-adv-x="172" 
d="M52 344v83h68v-80l-27 -111h-35l22 108h-28z" />
    <glyph glyph-name="dollar.numerator" unicode="&#xf62f;" 
d="M34 443h56c3 -38 39 -62 87 -62c42 0 79 18 79 55c0 87 -214 23 -214 156c0 55 43 93 109 101v55h50v-55c60 -7 101 -42 106 -93h-59c-5 35 -36 51 -72 51c-42 0 -75 -16 -75 -50c0 -87 214 -26 214 -159c0 -60 -43 -97 -113 -104v-61h-50v61c-71 7 -116 45 -118 105z
" />
    <glyph glyph-name="cent.numerator" unicode="&#xf62e;" 
d="M41 516c0 68 43 120 119 129v50h50v-50c62 -8 98 -49 103 -91h-59c-5 23 -28 47 -69 47c-51 0 -82 -34 -82 -85s31 -85 82 -85c41 0 64 24 69 47h59c-5 -43 -41 -83 -103 -92v-49h-50v49c-76 10 -119 61 -119 130z" />
    <glyph glyph-name="hyphen.numerator" unicode="&#xf630;" horiz-adv-x="276" 
d="M37 491v53h202v-53h-202z" />
    <glyph glyph-name="parenleft.numerator" unicode="&#xf631;" horiz-adv-x="204" 
d="M140 272c-38 46 -80 140 -80 244s42 198 80 244h56c-34 -42 -80 -141 -80 -244s46 -202 80 -244h-56z" />
    <glyph glyph-name="parenright.numerator" unicode="&#xf632;" horiz-adv-x="204" 
d="M8 272c34 42 80 141 80 244s-46 202 -80 244h56c38 -46 80 -140 80 -244s-42 -198 -80 -244h-56z" />
    <glyph glyph-name="zero.denominator" unicode="&#xf655;" 
d="M176 -8c-99 0 -144 80 -144 180s45 180 144 180c100 0 144 -80 144 -180s-44 -180 -144 -180zM176 39c56 0 85 51 85 133s-28 133 -85 133c-56 0 -85 -51 -85 -133s30 -133 85 -133z" />
    <glyph glyph-name="one.denominator" unicode="&#xf656;" 
d="M71 221l-25 42l137 81h37v-294h98v-50h-263v50h106v223z" />
    <glyph glyph-name="two.denominator" unicode="&#xf657;" 
d="M39 0c1 97 53 134 109 162l29 15c40 19 73 39 73 70c0 35 -24 57 -72 57c-45 0 -79 -24 -82 -76h-56c3 90 69 123 138 123c78 0 131 -36 131 -102c0 -62 -55 -89 -107 -115l-29 -14c-38 -19 -66 -43 -66 -70h204v-50h-272z" />
    <glyph glyph-name="three.denominator" unicode="&#xf658;" 
d="M37 102h56c0 -44 35 -66 83 -66s83 20 83 61c0 40 -35 61 -83 61h-29v41h29c44 0 73 19 73 54c0 36 -31 54 -73 54s-74 -23 -74 -62h-56c0 70 55 107 133 107c75 0 128 -38 128 -94c0 -38 -23 -69 -61 -78v-2c42 -9 73 -41 73 -87c0 -63 -55 -99 -143 -99
c-81 0 -139 31 -139 110z" />
    <glyph glyph-name="four.denominator" unicode="&#xf659;" 
d="M27 73v38l192 234h50v-225h53v-47h-53v-73h-59v73h-183zM92 120h118v145z" />
    <glyph glyph-name="five.denominator" unicode="&#xf65a;" 
d="M50 91h57c5 -28 28 -55 74 -55c41 0 76 27 76 73c0 49 -35 71 -76 71c-29 0 -54 -13 -69 -38l-57 3l12 199h229v-50h-176l-9 -101h3c16 19 44 31 78 31c71 0 124 -35 124 -115c0 -74 -62 -117 -133 -117c-89 0 -127 44 -133 99z" />
    <glyph glyph-name="six.denominator" unicode="&#xf65b;" 
d="M305 254h-59c-2 30 -24 53 -62 53c-43 0 -83 -27 -86 -128c14 26 49 45 92 45c70 0 123 -35 123 -115c0 -74 -62 -117 -133 -117c-80 0 -141 43 -141 172c0 139 65 188 145 188s116 -43 121 -98zM103 110c0 -46 31 -74 76 -74c40 0 75 27 75 73c0 49 -35 71 -75 71
c-41 0 -76 -25 -76 -70z" />
    <glyph glyph-name="seven.denominator" unicode="&#xf65c;" 
d="M89 0l157 291h-209v53h280v-37l-163 -307h-65z" />
    <glyph glyph-name="eight.denominator" unicode="&#xf65d;" 
d="M33 91c0 46 31 78 73 86v3c-38 9 -61 40 -61 78c0 56 53 94 131 94s131 -38 131 -94c0 -38 -23 -69 -61 -78v-3c42 -8 73 -40 73 -86c0 -63 -55 -99 -143 -99s-143 36 -143 99zM93 97c0 -41 35 -61 83 -61s83 20 83 61c0 40 -35 61 -83 61s-83 -21 -83 -61zM103 253
c0 -35 29 -54 73 -54s73 19 73 54c0 36 -31 54 -73 54s-73 -18 -73 -54z" />
    <glyph glyph-name="nine.denominator" unicode="&#xf65e;" 
d="M45 90h59c2 -31 30 -54 68 -54c43 0 77 28 80 127c-11 -25 -50 -43 -90 -43c-72 0 -125 38 -125 111c0 75 61 121 133 121c80 0 141 -43 141 -172c0 -139 -59 -188 -139 -188s-122 42 -127 98zM247 234c0 39 -26 73 -76 73c-40 0 -75 -26 -75 -73c0 -48 35 -70 75 -70
c41 0 76 24 76 70z" />
    <glyph glyph-name="period.denominator" unicode="&#xf660;" horiz-adv-x="172" 
d="M52 0v83h68v-83h-68z" />
    <glyph glyph-name="comma.denominator" unicode="&#xf65f;" horiz-adv-x="172" 
d="M52 0v83h68v-80l-27 -111h-35l22 108h-28z" />
    <glyph glyph-name="dollar.denominator" unicode="&#xf62a;" 
d="M34 99h56c3 -38 39 -62 87 -62c42 0 79 18 79 55c0 87 -214 23 -214 156c0 55 43 93 109 101v55h50v-55c60 -7 101 -42 106 -93h-59c-5 35 -36 51 -72 51c-42 0 -75 -16 -75 -50c0 -87 214 -26 214 -159c0 -60 -43 -97 -113 -104v-61h-50v61c-71 7 -116 45 -118 105z" />
    <glyph glyph-name="cent.denominator" unicode="&#xf629;" 
d="M41 172c0 68 43 120 119 129v50h50v-50c62 -8 98 -49 103 -91h-59c-5 23 -28 47 -69 47c-51 0 -82 -34 -82 -85s31 -85 82 -85c41 0 64 24 69 47h59c-5 -43 -41 -83 -103 -92v-49h-50v49c-76 10 -119 61 -119 130z" />
    <glyph glyph-name="hyphen.denominator" unicode="&#xf62b;" horiz-adv-x="276" 
d="M37 147v53h202v-53h-202z" />
    <glyph glyph-name="parenleft.denominator" unicode="&#xf62c;" horiz-adv-x="204" 
d="M140 -72c-38 46 -80 140 -80 244s42 198 80 244h56c-34 -42 -80 -141 -80 -244s46 -202 80 -244h-56z" />
    <glyph glyph-name="parenright.denominator" unicode="&#xf62d;" horiz-adv-x="204" 
d="M8 -72c34 42 80 141 80 244s-46 202 -80 244h56c38 -46 80 -140 80 -244s-42 -198 -80 -244h-56z" />
    <glyph glyph-name="uni2190" unicode="&#x2190;" horiz-adv-x="660" 
d="M303 46l-35 -33l-240 239l240 239l35 -33l-187 -184c48 3 137 3 162 3h354v-50h-354c-25 0 -114 0 -162 3z" />
    <glyph glyph-name="uni2192" unicode="&#x2192;" horiz-adv-x="660" 
d="M392 13l-35 33l186 184c-47 -3 -136 -3 -161 -3h-354v50h354c25 0 114 0 161 -3l-186 184l35 33l240 -239z" />
    <glyph glyph-name="emdash.cap" unicode="&#xf6bc;" horiz-adv-x="840" 
d="M60 317v62h720v-62h-720z" />
    <glyph glyph-name="endash.cap" unicode="&#xf6bb;" horiz-adv-x="556" 
d="M60 317v62h436v-62h-436z" />
    <glyph glyph-name="exclamdown.cap" unicode="&#xf6b4;" horiz-adv-x="256" 
d="M88 586v102h80v-102h-80zM88 0v184l21 315h38l21 -315v-184h-80z" />
    <glyph glyph-name="guillemotleft.cap" unicode="&#xf6b6;" horiz-adv-x="505" 
d="M394 144l-145 204l145 204h56l-124 -204l124 -204h-56zM200 144l-145 204l145 204h56l-124 -204l124 -204h-56z" />
    <glyph glyph-name="guillemotright.cap" unicode="&#xf6b7;" horiz-adv-x="505" 
d="M249 144l124 204l-124 204h56l145 -204l-145 -204h-56zM55 144l124 204l-124 204h55l146 -204l-146 -204h-55z" />
    <glyph glyph-name="guilsinglleft.cap" unicode="&#xf6b8;" horiz-adv-x="311" 
d="M200 144l-145 204l145 204h56l-124 -204l124 -204h-56z" />
    <glyph glyph-name="guilsinglright.cap" unicode="&#xf6b9;" horiz-adv-x="311" 
d="M55 144l124 204l-124 204h56l145 -204l-145 -204h-56z" />
    <glyph glyph-name="hyphen.cap" unicode="&#xf6ba;" horiz-adv-x="396" 
d="M60 317v62h276v-62h-276z" />
    <glyph glyph-name="questiondown.cap" unicode="&#xf6b5;" horiz-adv-x="485" 
d="M209 586v102h79v-102h-79zM39 163c0 164 176 154 176 292v37h68v-28c0 -184 -173 -168 -173 -298c0 -70 53 -118 128 -118c94 0 144 65 144 156h68c0 -119 -72 -215 -212 -215c-115 0 -199 66 -199 174z" />
    <glyph glyph-name="braceleft.cap" unicode="&#xf6b2;" horiz-adv-x="358" 
d="M142 94v101c0 91 -24 122 -111 127v47c87 6 111 37 111 128v97c0 95 40 150 149 150h49v-53h-46c-65 0 -90 -30 -90 -94v-118c0 -73 -28 -112 -101 -132v-3c73 -19 101 -58 101 -132v-121c0 -64 25 -94 90 -94h46v-53h-49c-109 0 -149 55 -149 150z" />
    <glyph glyph-name="braceright.cap" unicode="&#xf6b3;" horiz-adv-x="358" 
d="M18 -3h46c65 0 90 30 90 94v121c0 74 29 113 101 132v3c-72 20 -101 59 -101 132v118c0 64 -25 94 -90 94h-46v53h49c109 0 149 -55 149 -150v-97c0 -91 24 -122 111 -128v-47c-87 -5 -111 -36 -111 -127v-101c0 -95 -40 -150 -149 -150h-49v53z" />
    <glyph glyph-name="bracketleft.cap" unicode="&#xf6b0;" horiz-adv-x="318" 
d="M91 -56v800h209v-56h-147v-688h147v-56h-209z" />
    <glyph glyph-name="bracketright.cap" unicode="&#xf6b1;" horiz-adv-x="318" 
d="M18 0h147v688h-147v56h209v-800h-209v56z" />
    <glyph glyph-name="parenleft.cap" unicode="&#xf6ae;" horiz-adv-x="311" 
d="M231 -56c-69 89 -140 230 -140 400s71 311 140 400h62c-63 -89 -137 -234 -137 -400s74 -311 137 -400h-62z" />
    <glyph glyph-name="parenright.cap" unicode="&#xf6af;" horiz-adv-x="311" 
d="M18 -56c63 89 137 234 137 400s-74 311 -137 400h62c69 -89 140 -230 140 -400s-71 -311 -140 -400h-62z" />
    <glyph glyph-name="periodcentered.cap" unicode="&#xf6bd;" horiz-adv-x="272" 
d="M93 296v104h86v-104h-86z" />
    <glyph glyph-name="lessequal" unicode="&#x2264;" horiz-adv-x="568" 
d="M73 308v59l422 180v-62l-354 -147l354 -145v-65zM73 0v59h422v-59h-422z" />
    <glyph glyph-name="greaterequal" unicode="&#x2265;" horiz-adv-x="568" 
d="M495 367v-59l-422 -180v62l354 145l-354 147v65zM73 0v59h422v-59h-422z" />
    <glyph glyph-name="approxequal" unicode="&#x2248;" horiz-adv-x="568" 
d="M63 286c0 97 53 143 119 143c89 0 139 -82 204 -82c37 0 60 24 60 84h59c0 -97 -53 -143 -116 -143c-89 0 -143 85 -207 85c-37 0 -60 -27 -60 -87h-59zM63 80c0 97 53 143 119 143c89 0 139 -82 204 -82c37 0 60 24 60 84h59c0 -97 -53 -143 -116 -143
c-89 0 -143 85 -207 85c-37 0 -60 -27 -60 -87h-59z" />
    <glyph glyph-name="notequal" unicode="&#x2260;" horiz-adv-x="568" 
d="M57 329v59h266l80 144l50 -28l-64 -116h122v-59h-155l-83 -150h238v-59h-270l-80 -144l-50 28l64 116h-118v59h150l83 150h-233z" />
    <glyph glyph-name="infinity" unicode="&#x221e;" horiz-adv-x="708" 
d="M182 91c-94 0 -157 68 -157 161s63 161 157 161c72 0 133 -53 173 -116c42 63 100 116 171 116c94 0 157 -68 157 -161s-63 -161 -157 -161c-73 0 -133 53 -173 115c-42 -62 -100 -115 -171 -115zM180 147c61 0 109 59 141 105c-32 46 -80 105 -141 105
c-59 0 -97 -49 -97 -105s38 -105 97 -105zM387 252c32 -46 80 -105 141 -105c59 0 97 49 97 105s-38 105 -97 105c-61 0 -109 -59 -141 -105z" />
    <glyph glyph-name="lozenge" unicode="&#x25ca;" horiz-adv-x="642" 
d="M289 0l-252 344l252 344h65l250 -344l-250 -344h-65zM321 633h-2l-209 -287l212 -291h2l208 287z" />
    <glyph glyph-name="integral" unicode="&#x222b;" horiz-adv-x="364" 
d="M32 -116h26c103 0 112 77 105 185l-30 509c-8 135 20 238 167 238h32v-59h-26c-103 0 -112 -77 -105 -185l30 -509c7 -132 -20 -238 -167 -238h-32v59z" />
    <glyph glyph-name="partialdiff" unicode="&#x2202;" horiz-adv-x="568" 
d="M25 192c0 149 107 248 244 248c74 0 153 -36 176 -107c2 23 4 47 4 70c0 173 -73 237 -156 237c-90 0 -136 -54 -152 -124h-67c23 107 95 183 225 183c116 0 221 -83 221 -296c0 -279 -123 -414 -288 -414c-112 0 -207 75 -207 203zM241 48c95 0 181 83 181 181
c0 103 -72 152 -150 152c-100 0 -176 -75 -176 -186c0 -91 63 -147 145 -147z" />
    <glyph glyph-name="product" unicode="&#x220f;" horiz-adv-x="711" 
d="M94 0v688h523v-688h-68v629h-387v-629h-68z" />
    <glyph glyph-name="radical" unicode="&#x221a;" horiz-adv-x="588" 
d="M32 318v59l131 41l139 -343h3l220 613h68l-249 -688h-77l-146 346z" />
    <glyph glyph-name="summation" unicode="&#x2211;" horiz-adv-x="519" 
d="M26 0v41l224 300l-218 301v46h452v-59h-365l209 -285l-219 -285h389v-59h-472z" />
    <glyph glyph-name="Delta" unicode="&#x2206;" horiz-adv-x="629" 
d="M29 0l244 688h83l244 -688h-571zM314 624h-2l-195 -565h391z" />
    <glyph glyph-name="Omega" unicode="&#x2126;" horiz-adv-x="696" 
d="M413 0v200c68 19 157 92 157 217c0 132 -93 223 -222 223s-222 -91 -222 -223c0 -125 89 -198 157 -217v-200h-216v59h151v104c-87 40 -163 127 -163 254c0 160 121 282 293 282s293 -122 293 -282c0 -127 -76 -214 -163 -254v-104h151v-59h-216z" />
    <glyph glyph-name="pi" unicode="&#x3c0;" horiz-adv-x="579" 
d="M86 0v488h407v-488h-68v429h-271v-429h-68z" />
    <glyph glyph-name="afii61289" unicode="&#x2113;" horiz-adv-x="412" 
d="M129 26c-28 30 -38 77 -38 139v74l-2 1l-59 -41l-12 24c25 20 49 40 73 61v136c0 144 27 204 73 246c27 24 54 33 85 33c63 0 101 -49 101 -128c0 -132 -115 -225 -181 -277v-109c0 -108 42 -138 91 -138c47 0 83 29 118 80l22 -16c-32 -76 -91 -123 -169 -123
c-46 0 -79 14 -102 38zM171 342c62 53 121 134 121 230c0 61 -21 91 -55 91c-43 0 -68 -48 -68 -179v-141z" />
    <glyph glyph-name="Abreve" unicode="&#x102;" horiz-adv-x="631" 
d="M15 0l259 688h83l259 -688h-74l-73 198h-310l-73 -198h-71zM316 614h-4l-131 -355h265zM314 784c-62 0 -128 34 -139 134h44c9 -58 41 -90 95 -90s86 32 95 90h44c-11 -100 -77 -134 -139 -134z" />
    <glyph glyph-name="Amacron" unicode="&#x100;" horiz-adv-x="631" 
d="M15 0l259 688h83l259 -688h-74l-73 198h-310l-73 -198h-71zM316 614h-4l-131 -355h265zM175 823v53h276v-53h-276z" />
    <glyph glyph-name="Aogonek" unicode="&#x104;" horiz-adv-x="631" 
d="M501 -128c0 41 23 83 75 128h-34l-73 198h-310l-73 -198h-71l259 688h83l259 -688h-1c-42 -45 -61 -86 -61 -116c0 -32 17 -53 61 -53h30v-47h-39c-69 0 -105 37 -105 88zM316 614h-4l-131 -355h265z" />
    <glyph glyph-name="Cacute" unicode="&#x106;" horiz-adv-x="708" 
d="M47 344c0 201 131 355 327 355c158 0 259 -91 289 -223h-73c-28 100 -100 158 -216 158c-153 0 -253 -124 -253 -290c0 -163 100 -290 250 -290c121 0 190 58 219 158h73c-31 -132 -134 -223 -292 -223c-193 0 -324 151 -324 355zM348 768l106 164h81l-137 -164h-50z" />
    <glyph glyph-name="Ccaron" unicode="&#x10c;" horiz-adv-x="708" 
d="M47 344c0 201 131 355 327 355c158 0 259 -91 289 -223h-73c-28 100 -100 158 -216 158c-153 0 -253 -124 -253 -290c0 -163 100 -290 250 -290c121 0 190 58 219 158h73c-31 -132 -134 -223 -292 -223c-193 0 -324 151 -324 355zM343 768l-128 164h65l94 -123l94 123h65
l-128 -164h-62z" />
    <glyph glyph-name="Ccircumflex" unicode="&#x108;" horiz-adv-x="708" 
d="M47 344c0 201 131 355 327 355c158 0 259 -91 289 -223h-73c-28 100 -100 158 -216 158c-153 0 -253 -124 -253 -290c0 -163 100 -290 250 -290c121 0 190 58 219 158h73c-31 -132 -134 -223 -292 -223c-193 0 -324 151 -324 355zM215 768l128 164h62l128 -164h-65
l-94 123l-94 -123h-65z" />
    <glyph glyph-name="Cdotaccent" unicode="&#x10a;" horiz-adv-x="708" 
d="M47 344c0 201 131 355 327 355c158 0 259 -91 289 -223h-73c-28 100 -100 158 -216 158c-153 0 -253 -124 -253 -290c0 -163 100 -290 250 -290c121 0 190 58 219 158h73c-31 -132 -134 -223 -292 -223c-193 0 -324 151 -324 355zM340 805v90h68v-90h-68z" />
    <glyph glyph-name="Dcaron" unicode="&#x10e;" horiz-adv-x="696" 
d="M91 0v688h197c239 0 361 -143 361 -344s-122 -344 -361 -344h-197zM288 626h-126v-564h126c204 0 287 128 287 282s-83 282 -287 282zM287 768l-128 164h65l94 -123l94 123h65l-128 -164h-62z" />
    <glyph glyph-name="Ebreve" unicode="&#x114;" horiz-adv-x="606" 
d="M91 0v688h456v-62h-385v-244h309v-62h-309v-258h393v-62h-464zM320 784c-62 0 -128 34 -139 134h44c9 -58 41 -90 95 -90s86 32 95 90h44c-11 -100 -77 -134 -139 -134z" />
    <glyph glyph-name="Ecaron" unicode="&#x11a;" horiz-adv-x="606" 
d="M91 0v688h456v-62h-385v-244h309v-62h-309v-258h393v-62h-464zM289 768l-128 164h65l94 -123l94 123h65l-128 -164h-62z" />
    <glyph glyph-name="Edotaccent" unicode="&#x116;" horiz-adv-x="606" 
d="M91 0v688h456v-62h-385v-244h309v-62h-309v-258h393v-62h-464zM286 805v90h68v-90h-68z" />
    <glyph glyph-name="Emacron" unicode="&#x112;" horiz-adv-x="606" 
d="M91 0v688h456v-62h-385v-244h309v-62h-309v-258h393v-62h-464zM181 823v53h276v-53h-276z" />
    <glyph glyph-name="Eogonek" unicode="&#x118;" horiz-adv-x="606" 
d="M91 0v688h456v-62h-385v-244h309v-62h-309v-258h393v-62h1c-42 -45 -61 -86 -61 -116c0 -32 17 -53 61 -53h30v-47h-39c-69 0 -105 37 -105 88c0 41 23 83 75 128h-426z" />
    <glyph glyph-name="Gbreve" unicode="&#x11e;" horiz-adv-x="755" 
d="M629 0l-12 118h-1c-48 -89 -129 -129 -239 -129c-195 0 -330 154 -330 355c0 205 137 355 335 355c162 0 265 -94 293 -213h-74c-22 80 -94 148 -219 148c-158 0 -261 -123 -261 -290c0 -163 104 -290 256 -290c121 0 234 69 234 210v34h-230v62h295v-360h-47zM382 784
c-62 0 -128 34 -139 134h44c9 -58 41 -90 95 -90s86 32 95 90h44c-11 -100 -77 -134 -139 -134z" />
    <glyph glyph-name="Gcircumflex" unicode="&#x11c;" horiz-adv-x="755" 
d="M629 0l-12 118h-1c-48 -89 -129 -129 -239 -129c-195 0 -330 154 -330 355c0 205 137 355 335 355c162 0 265 -94 293 -213h-74c-22 80 -94 148 -219 148c-158 0 -261 -123 -261 -290c0 -163 104 -290 256 -290c121 0 234 69 234 210v34h-230v62h295v-360h-47zM223 768
l128 164h62l128 -164h-65l-94 123l-94 -123h-65z" />
    <glyph glyph-name="Gcommaaccent" unicode="&#x122;" horiz-adv-x="755" 
d="M629 0l-12 118h-1c-48 -89 -129 -129 -239 -129c-195 0 -330 154 -330 355c0 205 137 355 335 355c162 0 265 -94 293 -213h-74c-22 80 -94 148 -219 148c-158 0 -261 -123 -261 -290c0 -163 104 -290 256 -290c121 0 234 69 234 210v34h-230v62h295v-360h-47zM343 -66
h68v-74l-36 -103h-31l27 97h-28v80z" />
    <glyph glyph-name="Gdotaccent" unicode="&#x120;" horiz-adv-x="755" 
d="M629 0l-12 118h-1c-48 -89 -129 -129 -239 -129c-195 0 -330 154 -330 355c0 205 137 355 335 355c162 0 265 -94 293 -213h-74c-22 80 -94 148 -219 148c-158 0 -261 -123 -261 -290c0 -163 104 -290 256 -290c121 0 234 69 234 210v34h-230v62h295v-360h-47zM348 805
v90h68v-90h-68z" />
    <glyph glyph-name="Hcircumflex" unicode="&#x124;" horiz-adv-x="716" 
d="M91 0v688h71v-308h392v308h71v-688h-71v318h-392v-318h-71zM199 768l128 164h62l128 -164h-65l-94 123l-94 -123h-65z" />
    <glyph glyph-name="Ibreve" unicode="&#x12c;" horiz-adv-x="253" 
d="M91 0v688h71v-688h-71zM126 784c-62 0 -128 34 -139 134h44c9 -58 41 -90 95 -90s86 32 95 90h44c-11 -100 -77 -134 -139 -134z" />
    <glyph glyph-name="Idotaccent" unicode="&#x130;" horiz-adv-x="253" 
d="M91 0v688h71v-688h-71zM92 805v90h68v-90h-68z" />
    <glyph glyph-name="Imacron" unicode="&#x12a;" horiz-adv-x="253" 
d="M91 0v688h71v-688h-71zM-13 823v53h276v-53h-276z" />
    <glyph glyph-name="Iogonek" unicode="&#x12e;" horiz-adv-x="253" 
d="M91 0v688h71v-688h-2c-42 -45 -61 -86 -61 -116c0 -32 17 -53 61 -53h30v-47h-39c-69 0 -105 37 -105 88c0 41 23 83 75 128h-30z" />
    <glyph glyph-name="Itilde" unicode="&#x128;" horiz-adv-x="253" 
d="M91 0v688h71v-688h-71zM-29 800c3 54 31 99 87 99s104 -51 141 -51c30 0 42 27 46 52h38c-3 -53 -31 -99 -87 -99s-104 51 -141 51c-30 0 -42 -27 -46 -52h-38z" />
    <glyph glyph-name="Jcircumflex" unicode="&#x134;" horiz-adv-x="513" 
d="M45 193v35h71v-29c0 -107 52 -148 124 -148c69 0 123 42 123 148v489h71v-495c0 -146 -82 -204 -194 -204c-114 0 -195 58 -195 204zM242 768l128 164h62l128 -164h-65l-94 123l-94 -123h-65z" />
    <glyph glyph-name="Kcommaaccent" unicode="&#x136;" horiz-adv-x="646" 
d="M91 0v688h71v-401l370 401h84l-280 -298l294 -390h-80l-261 340l-127 -136v-204h-71zM300 -66h68v-74l-36 -103h-31l27 97h-28v80z" />
    <glyph glyph-name="Lacute" unicode="&#x139;" horiz-adv-x="541" 
d="M91 0v688h71v-626h351v-62h-422zM99 768l106 164h81l-137 -164h-50z" />
    <glyph glyph-name="Lcaron" unicode="&#x13d;" horiz-adv-x="541" 
d="M91 0v688h71v-626h351v-62h-422zM327 484l28 115h-30v89h74v-84l-38 -120h-34z" />
    <glyph glyph-name="Lcommaaccent" unicode="&#x13b;" horiz-adv-x="541" 
d="M91 0v688h71v-626h351v-62h-422zM261 -66h68v-74l-36 -103h-31l27 97h-28v80z" />
    <glyph glyph-name="Ldot" unicode="&#x13f;" horiz-adv-x="541" 
d="M91 0v688h71v-626h351v-62h-422zM301 304v96h74v-96h-74z" />
    <glyph glyph-name="Nacute" unicode="&#x143;" horiz-adv-x="723" 
d="M91 0v688h68l402 -568h3l-3 568h71v-688h-68l-402 565h-3l3 -565h-71zM335 768l106 164h81l-137 -164h-50z" />
    <glyph glyph-name="Ncaron" unicode="&#x147;" horiz-adv-x="723" 
d="M91 0v688h68l402 -568h3l-3 568h71v-688h-68l-402 565h-3l3 -565h-71zM330 768l-128 164h65l94 -123l94 123h65l-128 -164h-62z" />
    <glyph glyph-name="Ncommaaccent" unicode="&#x145;" horiz-adv-x="723" 
d="M91 0v688h68l402 -568h3l-3 568h71v-688h-68l-402 565h-3l3 -565h-71zM327 -66h68v-74l-36 -103h-31l27 97h-28v80z" />
    <glyph glyph-name="Obreve" unicode="&#x14e;" horiz-adv-x="754" 
d="M47 344c0 204 133 355 330 355c193 0 330 -151 330 -355s-137 -355 -330 -355c-197 0 -330 151 -330 355zM121 344c0 -166 103 -290 256 -290c152 0 256 124 256 290s-104 290 -256 290c-153 0 -256 -124 -256 -290zM377 784c-62 0 -128 34 -139 134h44
c9 -58 41 -90 95 -90s86 32 95 90h44c-11 -100 -77 -134 -139 -134z" />
    <glyph glyph-name="Ohungarumlaut" unicode="&#x150;" horiz-adv-x="754" 
d="M47 344c0 204 133 355 330 355c193 0 330 -151 330 -355s-137 -355 -330 -355c-197 0 -330 151 -330 355zM121 344c0 -166 103 -290 256 -290c152 0 256 124 256 290s-104 290 -256 290c-153 0 -256 -124 -256 -290zM439 768l106 164h80l-136 -164h-50zM262 768l106 164
h80l-136 -164h-50z" />
    <glyph glyph-name="Omacron" unicode="&#x14c;" horiz-adv-x="754" 
d="M47 344c0 204 133 355 330 355c193 0 330 -151 330 -355s-137 -355 -330 -355c-197 0 -330 151 -330 355zM121 344c0 -166 103 -290 256 -290c152 0 256 124 256 290s-104 290 -256 290c-153 0 -256 -124 -256 -290zM238 823v53h276v-53h-276z" />
    <glyph glyph-name="Oslashacute" unicode="&#x1fe;" horiz-adv-x="754" 
d="M59 -12l81 100c-59 64 -93 153 -93 256c0 204 136 355 330 355c78 0 147 -26 202 -70l57 71h59l-82 -102c59 -63 94 -152 94 -254c0 -204 -140 -355 -330 -355c-79 0 -148 25 -203 68l-55 -69h-60zM121 344c0 -79 23 -149 64 -200l351 433c-43 36 -97 57 -159 57
c-153 0 -256 -124 -256 -290zM633 344c0 79 -24 148 -65 199l-350 -432c42 -36 96 -57 159 -57c152 0 256 124 256 290zM351 768l106 164h81l-137 -164h-50z" />
    <glyph glyph-name="Racute" unicode="&#x154;" horiz-adv-x="645" 
d="M91 0v688h258c151 0 231 -73 231 -198c0 -105 -56 -181 -162 -203l182 -287h-77l-181 281h-180v-281h-71zM352 626h-190v-283h190c104 0 157 63 157 147s-55 136 -157 136zM284 768l106 164h81l-137 -164h-50z" />
    <glyph glyph-name="Rcaron" unicode="&#x158;" horiz-adv-x="645" 
d="M91 0v688h258c151 0 231 -73 231 -198c0 -105 -56 -181 -162 -203l182 -287h-77l-181 281h-180v-281h-71zM352 626h-190v-283h190c104 0 157 63 157 147s-55 136 -157 136zM279 768l-128 164h65l94 -123l94 123h65l-128 -164h-62z" />
    <glyph glyph-name="Rcommaaccent" unicode="&#x156;" horiz-adv-x="645" 
d="M91 0v688h258c151 0 231 -73 231 -198c0 -105 -56 -181 -162 -203l182 -287h-77l-181 281h-180v-281h-71zM352 626h-190v-283h190c104 0 157 63 157 147s-55 136 -157 136zM287 -66h68v-74l-36 -103h-31l27 97h-28v80z" />
    <glyph glyph-name="Sacute" unicode="&#x15a;" horiz-adv-x="638" 
d="M59 192h71c0 -88 72 -144 187 -144c119 0 187 53 187 141c0 205 -435 52 -435 317c0 112 98 193 246 193c143 0 245 -69 245 -190h-71c0 85 -74 131 -174 131c-99 0 -174 -47 -174 -128c0 -200 437 -45 437 -320c0 -121 -96 -203 -261 -203c-161 0 -258 77 -258 203z
M289 768l106 164h81l-137 -164h-50z" />
    <glyph glyph-name="Scedilla" unicode="&#x15e;" horiz-adv-x="638" 
d="M275 -78l24 68c-150 5 -240 81 -240 202h71c0 -88 72 -144 187 -144c119 0 187 53 187 141c0 205 -435 52 -435 317c0 112 98 193 246 193c143 0 245 -69 245 -190h-71c0 85 -74 131 -174 131c-99 0 -174 -47 -174 -128c0 -200 437 -45 437 -320
c0 -119 -92 -199 -251 -203l-4 -29c61 -3 92 -40 92 -85c0 -50 -34 -91 -109 -91h-53v44h50c40 0 59 16 59 47c0 30 -21 47 -60 47h-27z" />
    <glyph glyph-name="Scircumflex" unicode="&#x15c;" horiz-adv-x="638" 
d="M59 192h71c0 -88 72 -144 187 -144c119 0 187 53 187 141c0 205 -435 52 -435 317c0 112 98 193 246 193c143 0 245 -69 245 -190h-71c0 85 -74 131 -174 131c-99 0 -174 -47 -174 -128c0 -200 437 -45 437 -320c0 -121 -96 -203 -261 -203c-161 0 -258 77 -258 203z
M156 768l128 164h62l128 -164h-65l-94 123l-94 -123h-65z" />
    <glyph glyph-name="Scommaaccent" unicode="&#x218;" horiz-adv-x="638" 
d="M59 192h71c0 -88 72 -144 187 -144c119 0 187 53 187 141c0 205 -435 52 -435 317c0 112 98 193 246 193c143 0 245 -69 245 -190h-71c0 85 -74 131 -174 131c-99 0 -174 -47 -174 -128c0 -200 437 -45 437 -320c0 -121 -96 -203 -261 -203c-161 0 -258 77 -258 203z
M282 -66h68v-74l-36 -103h-31l27 97h-28v80z" />
    <glyph glyph-name="Tcaron" unicode="&#x164;" horiz-adv-x="579" 
d="M8 628v60h563v-60h-246v-628h-71v628h-246zM257 768l-128 164h65l94 -123l94 123h65l-128 -164h-62z" />
    <glyph glyph-name="Tcommaaccent" unicode="&#x162;" horiz-adv-x="579" 
d="M250 -78l28 78h-24v628h-246v60h563v-60h-246v-628h-21l-6 -40c61 -3 92 -40 92 -85c0 -50 -34 -91 -109 -91h-53v44h50c40 0 59 16 59 47c0 30 -21 47 -60 47h-27z" />
    <glyph glyph-name="Ubreve" unicode="&#x16c;" horiz-adv-x="688" 
d="M76 271v417h71v-417c0 -141 68 -217 197 -217c128 0 197 76 197 217v417h71v-417c0 -200 -110 -282 -268 -282s-268 82 -268 282zM344 784c-62 0 -128 34 -139 134h44c9 -58 41 -90 95 -90s86 32 95 90h44c-11 -100 -77 -134 -139 -134z" />
    <glyph glyph-name="Uhungarumlaut" unicode="&#x170;" horiz-adv-x="688" 
d="M76 271v417h71v-417c0 -141 68 -217 197 -217c128 0 197 76 197 217v417h71v-417c0 -200 -110 -282 -268 -282s-268 82 -268 282zM406 768l106 164h80l-136 -164h-50zM229 768l106 164h80l-136 -164h-50z" />
    <glyph glyph-name="Umacron" unicode="&#x16a;" horiz-adv-x="688" 
d="M76 271v417h71v-417c0 -141 68 -217 197 -217c128 0 197 76 197 217v417h71v-417c0 -200 -110 -282 -268 -282s-268 82 -268 282zM205 823v53h276v-53h-276z" />
    <glyph glyph-name="Uogonek" unicode="&#x172;" horiz-adv-x="688" 
d="M322 -126c0 47 40 89 83 120c-19 -3 -40 -5 -61 -5c-158 0 -268 83 -268 282v417h71v-417c0 -141 68 -217 197 -217c128 0 197 76 197 217v417h71v-417c0 -121 -41 -198 -107 -241c-56 -38 -127 -93 -127 -144c0 -32 16 -55 61 -55h30v-47h-39c-70 0 -108 30 -108 90z
" />
    <glyph glyph-name="Uring" unicode="&#x16e;" horiz-adv-x="688" 
d="M76 271v417h71v-417c0 -141 68 -217 197 -217c128 0 197 76 197 217v417h71v-417c0 -200 -110 -282 -268 -282s-268 82 -268 282zM344 767c-50 0 -96 37 -96 93s46 93 96 93s96 -37 96 -93s-46 -93 -96 -93zM344 802c31 0 58 24 58 58s-27 58 -58 58s-58 -24 -58 -58
s27 -58 58 -58z" />
    <glyph glyph-name="Utilde" unicode="&#x168;" horiz-adv-x="688" 
d="M76 271v417h71v-417c0 -141 68 -217 197 -217c128 0 197 76 197 217v417h71v-417c0 -200 -110 -282 -268 -282s-268 82 -268 282zM189 800c3 54 31 99 87 99s104 -51 141 -51c30 0 42 27 46 52h38c-3 -53 -31 -99 -87 -99s-104 51 -141 51c-30 0 -42 -27 -46 -52h-38z
" />
    <glyph glyph-name="Wacute" unicode="&#x1e82;" horiz-adv-x="918" 
d="M199 0l-186 688h74l156 -614h4l172 614h86l172 -614h3l154 614h71l-183 -688h-89l-171 606h-3l-171 -606h-89zM434 768l106 164h81l-137 -164h-50z" />
    <glyph glyph-name="Wcircumflex" unicode="&#x174;" horiz-adv-x="918" 
d="M199 0l-186 688h74l156 -614h4l172 614h86l172 -614h3l154 614h71l-183 -688h-89l-171 606h-3l-171 -606h-89zM301 768l128 164h62l128 -164h-65l-94 123l-94 -123h-65z" />
    <glyph glyph-name="Wdieresis" unicode="&#x1e84;" horiz-adv-x="918" 
d="M199 0l-186 688h74l156 -614h4l172 614h86l172 -614h3l154 614h71l-183 -688h-89l-171 606h-3l-171 -606h-89zM525 805v90h68v-90h-68zM328 805v90h68v-90h-68z" />
    <glyph glyph-name="Wgrave" unicode="&#x1e80;" horiz-adv-x="918" 
d="M199 0l-186 688h74l156 -614h4l172 614h86l172 -614h3l154 614h71l-183 -688h-89l-171 606h-3l-171 -606h-89zM436 768l-137 164h81l106 -164h-50z" />
    <glyph glyph-name="Ycircumflex" unicode="&#x176;" horiz-adv-x="594" 
d="M260 0v274l-247 414h80l202 -341h3l209 341h74l-250 -409v-279h-71zM138 768l128 164h62l128 -164h-65l-94 123l-94 -123h-65z" />
    <glyph glyph-name="Ygrave" unicode="&#x1ef2;" horiz-adv-x="594" 
d="M260 0v274l-247 414h80l202 -341h3l209 341h74l-250 -409v-279h-71zM273 768l-137 164h81l106 -164h-50z" />
    <glyph glyph-name="Zacute" unicode="&#x179;" horiz-adv-x="575" 
d="M57 628v60h481v-46l-413 -582h409v-60h-497v46l413 582h-393zM262 768l106 164h81l-137 -164h-50z" />
    <glyph glyph-name="Zdotaccent" unicode="&#x17b;" horiz-adv-x="575" 
d="M57 628v60h481v-46l-413 -582h409v-60h-497v46l413 582h-393zM254 805v90h68v-90h-68z" />
    <glyph glyph-name="AEacute" unicode="&#x1fc;" horiz-adv-x="1051" 
d="M11 0l501 688h480v-62h-385v-244h309v-62h-309v-258h393v-62h-464v164h-322l-119 -164h-84zM535 606l-276 -380h277v380h-1zM547 768l106 164h81l-137 -164h-50z" />
    <glyph glyph-name="abreve" unicode="&#x103;" horiz-adv-x="517" 
d="M50 123c0 80 47 127 155 145l105 18c50 8 66 16 66 41c-2 75 -41 116 -116 116c-76 0 -121 -40 -126 -107h-65c5 96 75 163 191 163c119 0 184 -65 184 -178v-321h-65v78h-3c-28 -57 -88 -89 -166 -89c-102 0 -160 54 -160 134zM376 207v55c-11 -13 -31 -21 -56 -25
l-103 -17c-69 -11 -99 -42 -99 -91c0 -50 35 -84 103 -84c84 0 155 51 155 162zM257 584c-62 0 -128 34 -139 134h44c9 -58 41 -90 95 -90s86 32 95 90h44c-11 -100 -77 -134 -139 -134z" />
    <glyph glyph-name="amacron" unicode="&#x101;" horiz-adv-x="517" 
d="M50 123c0 80 47 127 155 145l105 18c50 8 66 16 66 41c-2 75 -41 116 -116 116c-76 0 -121 -40 -126 -107h-65c5 96 75 163 191 163c119 0 184 -65 184 -178v-321h-65v78h-3c-28 -57 -88 -89 -166 -89c-102 0 -160 54 -160 134zM376 207v55c-11 -13 -31 -21 -56 -25
l-103 -17c-69 -11 -99 -42 -99 -91c0 -50 35 -84 103 -84c84 0 155 51 155 162zM118 623v53h276v-53h-276z" />
    <glyph glyph-name="aogonek" unicode="&#x105;" horiz-adv-x="517" 
d="M330 -128c0 41 23 83 75 128h-26v78h-3c-28 -57 -88 -89 -166 -89c-102 0 -160 54 -160 134s47 127 155 145l105 18c50 8 66 16 66 41c-2 75 -41 116 -116 116c-76 0 -121 -40 -126 -107h-65c5 96 75 163 191 163c119 0 184 -65 184 -178v-321c-42 -45 -61 -86 -61 -116
c0 -32 17 -53 61 -53h30v-47h-39c-69 0 -105 37 -105 88zM376 207v55c-11 -13 -31 -21 -56 -25l-103 -17c-69 -11 -99 -42 -99 -91c0 -50 35 -84 103 -84c84 0 155 51 155 162z" />
    <glyph glyph-name="cacute" unicode="&#x107;" horiz-adv-x="511" 
d="M43 244c0 154 98 255 226 255c116 0 190 -71 205 -172h-68c-13 66 -59 113 -137 113c-87 0 -155 -79 -155 -196s66 -196 155 -196c78 0 124 47 137 113h68c-15 -101 -89 -172 -205 -172c-138 0 -226 101 -226 255zM243 568l106 164h81l-137 -164h-50z" />
    <glyph glyph-name="ccaron" unicode="&#x10d;" horiz-adv-x="511" 
d="M43 244c0 154 98 255 226 255c116 0 190 -71 205 -172h-68c-13 66 -59 113 -137 113c-87 0 -155 -79 -155 -196s66 -196 155 -196c78 0 124 47 137 113h68c-15 -101 -89 -172 -205 -172c-138 0 -226 101 -226 255zM238 568l-128 164h65l94 -123l94 123h65l-128 -164h-62z
" />
    <glyph glyph-name="ccircumflex" unicode="&#x109;" horiz-adv-x="511" 
d="M43 244c0 154 98 255 226 255c116 0 190 -71 205 -172h-68c-13 66 -59 113 -137 113c-87 0 -155 -79 -155 -196s66 -196 155 -196c78 0 124 47 137 113h68c-15 -101 -89 -172 -205 -172c-138 0 -226 101 -226 255zM110 568l128 164h62l128 -164h-65l-94 123l-94 -123h-65
z" />
    <glyph glyph-name="cdotaccent" unicode="&#x10b;" horiz-adv-x="511" 
d="M43 244c0 154 98 255 226 255c116 0 190 -71 205 -172h-68c-13 66 -59 113 -137 113c-87 0 -155 -79 -155 -196s66 -196 155 -196c78 0 124 47 137 113h68c-15 -101 -89 -172 -205 -172c-138 0 -226 101 -226 255zM235 605v90h68v-90h-68z" />
    <glyph glyph-name="dcaron" unicode="&#x10f;" horiz-adv-x="576" 
d="M43 240c0 157 98 259 219 259c75 0 135 -32 166 -98h3c-3 48 -3 157 -3 182v149h68v-732h-65v87h-3c-32 -67 -96 -98 -172 -98c-121 0 -213 94 -213 251zM114 240c0 -123 69 -192 157 -192c86 0 153 68 157 187v18c-4 118 -71 187 -157 187c-88 0 -157 -77 -157 -200z
M582 528l28 115h-30v89h74v-84l-38 -120h-34z" />
    <glyph glyph-name="ebreve" unicode="&#x115;" horiz-adv-x="519" 
d="M43 244c0 151 98 255 225 255c122 0 210 -86 210 -232v-28h-364c2 -114 62 -191 158 -191c77 0 124 44 134 100h68c-13 -89 -93 -159 -202 -159c-147 0 -229 101 -229 255zM268 440c-76 0 -136 -57 -151 -150h292c-7 102 -61 150 -141 150zM268 584
c-62 0 -128 34 -139 134h44c9 -58 41 -90 95 -90s86 32 95 90h44c-11 -100 -77 -134 -139 -134z" />
    <glyph glyph-name="ecaron" unicode="&#x11b;" horiz-adv-x="519" 
d="M43 244c0 151 98 255 225 255c122 0 210 -86 210 -232v-28h-364c2 -114 62 -191 158 -191c77 0 124 44 134 100h68c-13 -89 -93 -159 -202 -159c-147 0 -229 101 -229 255zM268 440c-76 0 -136 -57 -151 -150h292c-7 102 -61 150 -141 150zM237 568l-128 164h65l94 -123
l94 123h65l-128 -164h-62z" />
    <glyph glyph-name="edotaccent" unicode="&#x117;" horiz-adv-x="519" 
d="M43 244c0 151 98 255 225 255c122 0 210 -86 210 -232v-28h-364c2 -114 62 -191 158 -191c77 0 124 44 134 100h68c-13 -89 -93 -159 -202 -159c-147 0 -229 101 -229 255zM268 440c-76 0 -136 -57 -151 -150h292c-7 102 -61 150 -141 150zM234 605v90h68v-90h-68z" />
    <glyph glyph-name="emacron" unicode="&#x113;" horiz-adv-x="519" 
d="M43 244c0 151 98 255 225 255c122 0 210 -86 210 -232v-28h-364c2 -114 62 -191 158 -191c77 0 124 44 134 100h68c-13 -89 -93 -159 -202 -159c-147 0 -229 101 -229 255zM268 440c-76 0 -136 -57 -151 -150h292c-7 102 -61 150 -141 150zM129 623v53h276v-53h-276z" />
    <glyph glyph-name="eogonek" unicode="&#x119;" horiz-adv-x="519" 
d="M221 -135c0 50 41 93 79 126c-9 -1 -19 -2 -28 -2c-147 0 -229 101 -229 255c0 151 98 255 225 255c122 0 210 -86 210 -232v-28h-364c2 -114 62 -191 158 -191c77 0 124 44 134 100h68c-7 -49 -36 -91 -76 -121c-49 -37 -124 -100 -124 -149c0 -31 17 -47 61 -47h31v-47
h-40c-69 0 -105 30 -105 81zM268 440c-76 0 -136 -57 -151 -150h292c-7 102 -61 150 -141 150z" />
    <glyph glyph-name="gbreve" unicode="&#x11f;" horiz-adv-x="576" 
d="M55 -60h65c0 -70 60 -112 145 -112c93 0 166 48 166 193v66h-3c-32 -67 -97 -98 -172 -98c-121 0 -213 94 -213 251s98 259 219 259c75 0 135 -32 166 -98h3v87h65v-467c0 -183 -104 -249 -231 -249c-120 0 -210 59 -210 168zM114 240c0 -123 69 -192 157 -192
c86 0 153 68 157 187v18c-4 118 -71 187 -157 187c-88 0 -157 -77 -157 -200zM272 584c-62 0 -128 34 -139 134h44c9 -58 41 -90 95 -90s86 32 95 90h44c-11 -100 -77 -134 -139 -134z" />
    <glyph glyph-name="gcircumflex" unicode="&#x11d;" horiz-adv-x="576" 
d="M55 -60h65c0 -70 60 -112 145 -112c93 0 166 48 166 193v66h-3c-32 -67 -97 -98 -172 -98c-121 0 -213 94 -213 251s98 259 219 259c75 0 135 -32 166 -98h3v87h65v-467c0 -183 -104 -249 -231 -249c-120 0 -210 59 -210 168zM114 240c0 -123 69 -192 157 -192
c86 0 153 68 157 187v18c-4 118 -71 187 -157 187c-88 0 -157 -77 -157 -200zM113 568l128 164h62l128 -164h-65l-94 123l-94 -123h-65z" />
    <glyph glyph-name="gcommaaccent" unicode="&#x123;" horiz-adv-x="576" 
d="M55 -60h65c0 -70 60 -112 145 -112c93 0 166 48 166 193v66h-3c-32 -67 -97 -98 -172 -98c-121 0 -213 94 -213 251s98 259 219 259c75 0 135 -32 166 -98h3v87h65v-467c0 -183 -104 -249 -231 -249c-120 0 -210 59 -210 168zM114 240c0 -123 69 -192 157 -192
c86 0 153 68 157 187v18c-4 118 -71 187 -157 187c-88 0 -157 -77 -157 -200zM238 568v74l36 103h31l-27 -97h28v-80h-68z" />
    <glyph glyph-name="gdotaccent" unicode="&#x121;" horiz-adv-x="576" 
d="M55 -60h65c0 -70 60 -112 145 -112c93 0 166 48 166 193v66h-3c-32 -67 -97 -98 -172 -98c-121 0 -213 94 -213 251s98 259 219 259c75 0 135 -32 166 -98h3v87h65v-467c0 -183 -104 -249 -231 -249c-120 0 -210 59 -210 168zM114 240c0 -123 69 -192 157 -192
c86 0 153 68 157 187v18c-4 118 -71 187 -157 187c-88 0 -157 -77 -157 -200zM238 605v90h68v-90h-68z" />
    <glyph glyph-name="hcircumflex" unicode="&#x125;" horiz-adv-x="558" 
d="M80 0v732h68v-146c0 -25 -1 -130 -3 -178h3c29 61 89 91 160 91c96 0 177 -53 177 -200v-299h-68v290c0 110 -50 150 -123 150c-80 0 -146 -65 -146 -184v-256h-68zM-45 809l128 164h62l128 -164h-65l-94 123l-94 -123h-65z" />
    <glyph glyph-name="ibreve" unicode="&#x12d;" horiz-adv-x="228" 
d="M80 0v488h68v-488h-68zM114 584c-62 0 -128 34 -139 134h44c9 -58 41 -90 95 -90s86 32 95 90h44c-11 -100 -77 -134 -139 -134z" />
    <glyph glyph-name="imacron" unicode="&#x12b;" horiz-adv-x="228" 
d="M80 0v488h68v-488h-68zM-25 623v53h276v-53h-276z" />
    <glyph glyph-name="iogonek" unicode="&#x12f;" horiz-adv-x="228" 
d="M80 0v488h68v-488c-42 -45 -61 -86 -61 -116c0 -32 17 -53 61 -53h30v-47h-39c-69 0 -105 37 -105 88c0 41 23 83 75 128h-29zM77 636v96h74v-96h-74z" />
    <glyph glyph-name="itilde" unicode="&#x129;" horiz-adv-x="228" 
d="M80 0v488h68v-488h-68zM-41 600c3 54 31 99 87 99s104 -51 141 -51c30 0 42 27 46 52h38c-3 -53 -31 -99 -87 -99s-104 51 -141 51c-30 0 -42 -27 -46 -52h-38z" />
    <glyph glyph-name="jcircumflex" unicode="&#x135;" horiz-adv-x="228" 
d="M80 -84v572h68v-584c0 -76 -36 -124 -125 -124h-30v59h24c44 0 63 23 63 77zM-45 568l128 164h62l128 -164h-65l-94 123l-94 -123h-65z" />
    <glyph glyph-name="kcommaaccent" unicode="&#x137;" horiz-adv-x="496" 
d="M80 0v732h68v-508l238 264h81l-182 -197l203 -291h-81l-168 241l-91 -99v-142h-68zM230 -66h68v-74l-36 -103h-31l27 97h-28v80z" />
    <glyph glyph-name="lacute" unicode="&#x13a;" horiz-adv-x="228" 
d="M80 0v732h68v-732h-68zM88 812l106 164h81l-137 -164h-50z" />
    <glyph glyph-name="lcaron" unicode="&#x13e;" horiz-adv-x="228" 
d="M234 528l28 115h-30v89h74v-84l-38 -120h-34zM80 0v732h68v-732h-68z" />
    <glyph glyph-name="lcommaaccent" unicode="&#x13c;" horiz-adv-x="228" 
d="M80 0v732h68v-732h-68zM80 -66h68v-74l-36 -103h-31l27 97h-28v80z" />
    <glyph glyph-name="ldot" unicode="&#x140;" horiz-adv-x="290" 
d="M80 0v732h68v-732h-68zM225 292v96h74v-96h-74z" />
    <glyph glyph-name="nacute" unicode="&#x144;" horiz-adv-x="558" 
d="M80 0v488h65v-80h3c29 61 89 91 160 91c96 0 177 -53 177 -200v-299h-68v290c0 110 -50 150 -123 150c-80 0 -146 -65 -146 -186v-254h-68zM254 568l106 164h81l-137 -164h-50z" />
    <glyph glyph-name="ncaron" unicode="&#x148;" horiz-adv-x="558" 
d="M80 0v488h65v-80h3c29 61 89 91 160 91c96 0 177 -53 177 -200v-299h-68v290c0 110 -50 150 -123 150c-80 0 -146 -65 -146 -186v-254h-68zM249 568l-128 164h65l94 -123l94 123h65l-128 -164h-62z" />
    <glyph glyph-name="ncommaaccent" unicode="&#x146;" horiz-adv-x="558" 
d="M80 0v488h65v-80h3c29 61 89 91 160 91c96 0 177 -53 177 -200v-299h-68v290c0 110 -50 150 -123 150c-80 0 -146 -65 -146 -186v-254h-68zM243 -66h68v-74l-36 -103h-31l27 97h-28v80z" />
    <glyph glyph-name="obreve" unicode="&#x14f;" horiz-adv-x="550" 
d="M43 244c0 154 99 255 232 255c141 0 232 -101 232 -255s-99 -255 -232 -255c-141 0 -232 101 -232 255zM114 244c0 -117 66 -196 161 -196c93 0 161 79 161 196c0 120 -66 196 -161 196c-93 0 -161 -79 -161 -196zM275 584c-62 0 -128 34 -139 134h44
c9 -58 41 -90 95 -90s86 32 95 90h44c-11 -100 -77 -134 -139 -134z" />
    <glyph glyph-name="ohungarumlaut" unicode="&#x151;" horiz-adv-x="550" 
d="M43 244c0 154 99 255 232 255c141 0 232 -101 232 -255s-99 -255 -232 -255c-141 0 -232 101 -232 255zM114 244c0 -117 66 -196 161 -196c93 0 161 79 161 196c0 120 -66 196 -161 196c-93 0 -161 -79 -161 -196zM337 568l106 164h80l-136 -164h-50zM160 568l106 164h80
l-136 -164h-50z" />
    <glyph glyph-name="omacron" unicode="&#x14d;" horiz-adv-x="550" 
d="M43 244c0 154 99 255 232 255c141 0 232 -101 232 -255s-99 -255 -232 -255c-141 0 -232 101 -232 255zM114 244c0 -117 66 -196 161 -196c93 0 161 79 161 196c0 120 -66 196 -161 196c-93 0 -161 -79 -161 -196zM136 623v53h276v-53h-276z" />
    <glyph glyph-name="oslashacute" unicode="&#x1ff;" horiz-adv-x="550" 
d="M44 -12l59 74c-38 44 -60 106 -60 182c0 154 99 255 232 255c56 0 105 -17 143 -46l38 47h50l-60 -74c39 -44 61 -107 61 -182c0 -154 -99 -255 -232 -255c-57 0 -105 16 -143 46l-38 -47h-50zM114 244c0 -51 12 -94 34 -127l229 285c-27 24 -62 38 -102 38
c-93 0 -161 -79 -161 -196zM436 244c0 51 -12 95 -34 127l-229 -285c27 -25 62 -38 102 -38c93 0 161 79 161 196zM249 568l106 164h81l-137 -164h-50z" />
    <glyph glyph-name="racute" unicode="&#x155;" horiz-adv-x="350" 
d="M80 0v488h65v-80h3c23 55 69 91 131 91c21 0 45 -3 69 -20l-22 -61c-22 12 -43 16 -61 16c-78 0 -117 -83 -117 -176v-258h-68zM189 568l106 164h81l-137 -164h-50z" />
    <glyph glyph-name="rcaron" unicode="&#x159;" horiz-adv-x="350" 
d="M80 0v488h65v-80h3c23 55 69 91 131 91c21 0 45 -3 69 -20l-22 -61c-22 12 -43 16 -61 16c-78 0 -117 -83 -117 -176v-258h-68zM184 568l-128 164h65l94 -123l94 123h65l-128 -164h-62z" />
    <glyph glyph-name="rcommaaccent" unicode="&#x157;" horiz-adv-x="350" 
d="M80 0v488h65v-80h3c23 55 69 91 131 91c21 0 45 -3 69 -20l-22 -61c-22 12 -43 16 -61 16c-78 0 -117 -83 -117 -176v-258h-68zM80 -66h68v-74l-36 -103h-31l27 97h-28v80z" />
    <glyph glyph-name="sacute" unicode="&#x15b;" horiz-adv-x="481" 
d="M40 138h65c0 -67 65 -96 130 -96c83 0 132 33 132 92c0 46 -29 66 -87 76l-92 16c-67 11 -137 38 -137 127c0 92 82 146 187 146c99 0 186 -43 186 -144h-65c0 61 -53 91 -121 91s-121 -30 -121 -87c0 -45 32 -65 92 -75l92 -16c77 -14 134 -43 134 -128
c0 -100 -84 -151 -200 -151c-111 0 -195 49 -195 149zM212 568l106 164h81l-137 -164h-50z" />
    <glyph glyph-name="scedilla" unicode="&#x15f;" horiz-adv-x="481" 
d="M194 -78l24 68c-103 5 -178 53 -178 148h65c0 -67 65 -96 130 -96c83 0 132 33 132 92c0 46 -29 66 -87 76l-92 16c-67 11 -137 38 -137 127c0 92 82 146 187 146c99 0 186 -43 186 -144h-65c0 61 -53 91 -121 91s-121 -30 -121 -87c0 -45 32 -65 92 -75l92 -16
c77 -14 134 -43 134 -128c0 -97 -79 -147 -189 -151l-4 -29c61 -3 92 -40 92 -85c0 -50 -34 -91 -109 -91h-53v44h50c40 0 59 16 59 47c0 30 -21 47 -60 47h-27z" />
    <glyph glyph-name="scircumflex" unicode="&#x15d;" horiz-adv-x="481" 
d="M40 138h65c0 -67 65 -96 130 -96c83 0 132 33 132 92c0 46 -29 66 -87 76l-92 16c-67 11 -137 38 -137 127c0 92 82 146 187 146c99 0 186 -43 186 -144h-65c0 61 -53 91 -121 91s-121 -30 -121 -87c0 -45 32 -65 92 -75l92 -16c77 -14 134 -43 134 -128
c0 -100 -84 -151 -200 -151c-111 0 -195 49 -195 149zM79 568l128 164h62l128 -164h-65l-94 123l-94 -123h-65z" />
    <glyph glyph-name="scommaaccent" unicode="&#x219;" horiz-adv-x="481" 
d="M40 138h65c0 -67 65 -96 130 -96c83 0 132 33 132 92c0 46 -29 66 -87 76l-92 16c-67 11 -137 38 -137 127c0 92 82 146 187 146c99 0 186 -43 186 -144h-65c0 61 -53 91 -121 91s-121 -30 -121 -87c0 -45 32 -65 92 -75l92 -16c77 -14 134 -43 134 -128
c0 -100 -84 -151 -200 -151c-111 0 -195 49 -195 149zM201 -66h68v-74l-36 -103h-31l27 97h-28v80z" />
    <glyph glyph-name="tcaron" unicode="&#x165;" horiz-adv-x="317" 
d="M92 140v293h-98v55h98v148h68v-148h133v-55h-133v-290c0 -62 24 -84 78 -84h55v-59h-64c-91 0 -137 44 -137 140zM223 549l28 115h-30v89h74v-84l-38 -120h-34z" />
    <glyph glyph-name="tcommaaccent" unicode="&#x163;" horiz-adv-x="317" 
d="M143 -78l27 86c-52 16 -78 59 -78 132v293h-96v55h96v148h68v-148h133v-55h-133v-290c0 -62 24 -84 78 -84h55v-59h-64c-12 0 -23 0 -33 2l-5 -42c61 -3 92 -40 92 -85c0 -50 -34 -91 -109 -91h-53v44h50c40 0 59 16 59 47c0 30 -21 47 -60 47h-27z" />
    <glyph glyph-name="ubreve" unicode="&#x16d;" horiz-adv-x="553" 
d="M72 189v299h68v-290c0 -110 49 -150 122 -150c80 0 143 64 143 187v253h68v-488h-65v80h-3c-30 -62 -88 -91 -157 -91c-96 0 -176 53 -176 200zM278 584c-62 0 -128 34 -139 134h44c9 -58 41 -90 95 -90s86 32 95 90h44c-11 -100 -77 -134 -139 -134z" />
    <glyph glyph-name="uhungarumlaut" unicode="&#x171;" horiz-adv-x="553" 
d="M72 189v299h68v-290c0 -110 49 -150 122 -150c80 0 143 64 143 187v253h68v-488h-65v80h-3c-30 -62 -88 -91 -157 -91c-96 0 -176 53 -176 200zM340 568l106 164h80l-136 -164h-50zM163 568l106 164h80l-136 -164h-50z" />
    <glyph glyph-name="umacron" unicode="&#x16b;" horiz-adv-x="553" 
d="M72 189v299h68v-290c0 -110 49 -150 122 -150c80 0 143 64 143 187v253h68v-488h-65v80h-3c-30 -62 -88 -91 -157 -91c-96 0 -176 53 -176 200zM139 623v53h276v-53h-276z" />
    <glyph glyph-name="uogonek" unicode="&#x173;" horiz-adv-x="553" 
d="M359 -128c0 41 23 83 75 128h-26v80h-3c-30 -62 -88 -91 -157 -91c-96 0 -176 53 -176 200v299h68v-290c0 -110 49 -150 122 -150c80 0 143 64 143 187v253h68v-488c-42 -45 -61 -86 -61 -116c0 -32 17 -53 61 -53h30v-47h-39c-69 0 -105 37 -105 88z" />
    <glyph glyph-name="uring" unicode="&#x16f;" horiz-adv-x="553" 
d="M72 189v299h68v-290c0 -110 49 -150 122 -150c80 0 143 64 143 187v253h68v-488h-65v80h-3c-30 -62 -88 -91 -157 -91c-96 0 -176 53 -176 200zM278 567c-50 0 -96 37 -96 93s46 93 96 93s96 -37 96 -93s-46 -93 -96 -93zM278 602c31 0 58 24 58 58s-27 58 -58 58
s-58 -24 -58 -58s27 -58 58 -58z" />
    <glyph glyph-name="utilde" unicode="&#x169;" horiz-adv-x="553" 
d="M72 189v299h68v-290c0 -110 49 -150 122 -150c80 0 143 64 143 187v253h68v-488h-65v80h-3c-30 -62 -88 -91 -157 -91c-96 0 -176 53 -176 200zM123 600c3 54 31 99 87 99s104 -51 141 -51c30 0 42 27 46 52h38c-3 -53 -31 -99 -87 -99s-104 51 -141 51
c-30 0 -42 -27 -46 -52h-38z" />
    <glyph glyph-name="wacute" unicode="&#x1e83;" horiz-adv-x="711" 
d="M153 0l-145 488h71l113 -417h4l121 417h80l121 -417h4l113 417h68l-145 -488h-82l-119 420h-3l-119 -420h-82zM330 568l106 164h81l-137 -164h-50z" />
    <glyph glyph-name="wcircumflex" unicode="&#x175;" horiz-adv-x="711" 
d="M153 0l-145 488h71l113 -417h4l121 417h80l121 -417h4l113 417h68l-145 -488h-82l-119 420h-3l-119 -420h-82zM197 568l128 164h62l128 -164h-65l-94 123l-94 -123h-65z" />
    <glyph glyph-name="wdieresis" unicode="&#x1e85;" horiz-adv-x="711" 
d="M153 0l-145 488h71l113 -417h4l121 417h80l121 -417h4l113 417h68l-145 -488h-82l-119 420h-3l-119 -420h-82zM421 605v90h68v-90h-68zM224 605v90h68v-90h-68z" />
    <glyph glyph-name="wgrave" unicode="&#x1e81;" horiz-adv-x="711" 
d="M153 0l-145 488h71l113 -417h4l121 417h80l121 -417h4l113 417h68l-145 -488h-82l-119 420h-3l-119 -420h-82zM332 568l-137 164h81l106 -164h-50z" />
    <glyph glyph-name="ycircumflex" unicode="&#x177;" horiz-adv-x="460" 
d="M33 -169h27c61 0 98 38 122 105l18 49l-192 503h74l150 -414h3l149 414h68l-214 -571c-27 -72 -72 -144 -166 -144h-39v58zM70 568l128 164h62l128 -164h-65l-94 123l-94 -123h-65z" />
    <glyph glyph-name="ygrave" unicode="&#x1ef3;" horiz-adv-x="460" 
d="M33 -169h27c61 0 98 38 122 105l18 49l-192 503h74l150 -414h3l149 414h68l-214 -571c-27 -72 -72 -144 -166 -144h-39v58zM205 568l-137 164h81l106 -164h-50z" />
    <glyph glyph-name="zacute" unicode="&#x17a;" horiz-adv-x="433" 
d="M31 433v55h367v-46l-277 -387h281v-55h-367v40l281 393h-285zM188 568l106 164h81l-137 -164h-50z" />
    <glyph glyph-name="zdotaccent" unicode="&#x17c;" horiz-adv-x="433" 
d="M31 433v55h367v-46l-277 -387h281v-55h-367v40l281 393h-285zM180 605v90h68v-90h-68z" />
    <glyph glyph-name="aeacute" unicode="&#x1fd;" horiz-adv-x="844" 
d="M69 336c8 113 93 163 191 163c79 0 138 -29 165 -88c37 55 96 88 172 88c118 0 206 -86 206 -232v-28h-356c1 -117 62 -191 154 -191c78 0 120 44 130 100h67c-12 -89 -92 -159 -197 -159c-94 0 -160 43 -195 117c-40 -86 -117 -117 -197 -117c-101 0 -159 54 -159 134
c0 78 47 127 155 145l105 18c50 8 66 16 66 41c0 70 -39 116 -116 116c-67 0 -121 -35 -126 -107h-65zM376 210v52c-11 -13 -31 -21 -56 -25l-103 -17c-68 -11 -99 -42 -99 -91c0 -53 38 -84 103 -84c82 0 155 48 155 165zM597 440c-78 0 -133 -59 -147 -150h281
c-5 97 -59 150 -134 150zM387 568l106 164h81l-137 -164h-50z" />
    <glyph glyph-name="space_uni0326" unicode="&#xf6c3;" horiz-adv-x="550" 
d="M241 -66h68v-74l-36 -103h-31l27 97h-28v80z" />
    <glyph glyph-name="aacute.sc" unicode="&#xf7e1;" horiz-adv-x="508" 
d="M10 0l205 520h80l203 -520h-71l-54 141h-241l-54 -141h-68zM255 451h-3l-98 -254h198zM228 600l106 164h81l-137 -164h-50z" />
    <glyph glyph-name="abreve.sc" unicode="&#xf66d;" horiz-adv-x="508" 
d="M10 0l205 520h80l203 -520h-71l-54 141h-241l-54 -141h-68zM255 451h-3l-98 -254h198zM254 616c-62 0 -128 34 -139 134h44c9 -58 41 -90 95 -90s86 32 95 90h44c-11 -100 -77 -134 -139 -134z" />
    <glyph glyph-name="acircumflex.sc" unicode="&#xf7e2;" horiz-adv-x="508" 
d="M10 0l205 520h80l203 -520h-71l-54 141h-241l-54 -141h-68zM255 451h-3l-98 -254h198zM95 600l128 164h62l128 -164h-65l-94 123l-94 -123h-65z" />
    <glyph glyph-name="adieresis.sc" unicode="&#xf7e4;" horiz-adv-x="508" 
d="M10 0l205 520h80l203 -520h-71l-54 141h-241l-54 -141h-68zM255 451h-3l-98 -254h198zM319 637v90h68v-90h-68zM122 637v90h68v-90h-68z" />
    <glyph glyph-name="aeacute.sc" unicode="&#xf670;" horiz-adv-x="863" 
d="M2 0l406 520h392v-59h-303v-167h246v-57h-246v-178h311v-59h-379v129h-251l-99 -129h-77zM427 453l-206 -268h208v268h-2zM440 600l106 164h81l-137 -164h-50z" />
    <glyph glyph-name="agrave.sc" unicode="&#xf7e0;" horiz-adv-x="508" 
d="M10 0l205 520h80l203 -520h-71l-54 141h-241l-54 -141h-68zM255 451h-3l-98 -254h198zM230 600l-137 164h81l106 -164h-50z" />
    <glyph glyph-name="amacron.sc" unicode="&#xf66e;" horiz-adv-x="508" 
d="M10 0l205 520h80l203 -520h-71l-54 141h-241l-54 -141h-68zM255 451h-3l-98 -254h198zM115 655v53h276v-53h-276z" />
    <glyph glyph-name="aogonek.sc" unicode="&#xf66f;" horiz-adv-x="508" 
d="M386 -128c0 41 23 83 75 128h-34l-54 141h-241l-54 -141h-68l205 520h80l203 -520h2c-42 -45 -61 -86 -61 -116c0 -32 17 -53 61 -53h30v-47h-39c-69 0 -105 37 -105 88zM255 451h-3l-98 -254h198z" />
    <glyph glyph-name="aring.sc" unicode="&#xf7e5;" horiz-adv-x="508" 
d="M10 0l205 520h80l203 -520h-71l-54 141h-241l-54 -141h-68zM255 451h-3l-98 -254h198zM254 599c-50 0 -96 37 -96 93s46 93 96 93s96 -37 96 -93s-46 -93 -96 -93zM254 634c31 0 58 24 58 58s-27 58 -58 58s-58 -24 -58 -58s27 -58 58 -58z" />
    <glyph glyph-name="atilde.sc" unicode="&#xf7e3;" horiz-adv-x="508" 
d="M10 0l205 520h80l203 -520h-71l-54 141h-241l-54 -141h-68zM255 451h-3l-98 -254h198zM99 632c3 54 31 99 87 99s104 -51 141 -51c30 0 42 27 46 52h38c-3 -53 -31 -99 -87 -99s-104 51 -141 51c-30 0 -42 -27 -46 -52h-38z" />
    <glyph glyph-name="cacute.sc" unicode="&#xf671;" horiz-adv-x="581" 
d="M46 260c0 153 105 271 260 271c127 0 212 -72 236 -175h-68c-21 69 -75 113 -165 113c-117 0 -192 -90 -192 -209c0 -113 72 -209 192 -209c91 0 142 43 165 113h68c-25 -105 -110 -175 -236 -175c-158 0 -260 124 -260 271zM280 600l106 164h81l-137 -164h-50z" />
    <glyph glyph-name="ccaron.sc" unicode="&#xf672;" horiz-adv-x="581" 
d="M46 260c0 153 105 271 260 271c127 0 212 -72 236 -175h-68c-21 69 -75 113 -165 113c-117 0 -192 -90 -192 -209c0 -113 72 -209 192 -209c91 0 142 43 165 113h68c-25 -105 -110 -175 -236 -175c-158 0 -260 124 -260 271zM275 600l-128 164h65l94 -123l94 123h65
l-128 -164h-62z" />
    <glyph glyph-name="ccedilla.sc" unicode="&#xf7e7;" horiz-adv-x="581" 
d="M265 -78l24 68c-148 8 -243 128 -243 270c0 153 105 271 260 271c127 0 212 -72 236 -175h-68c-21 69 -75 113 -165 113c-117 0 -192 -90 -192 -209c0 -113 72 -209 192 -209c91 0 142 43 165 113h68c-24 -102 -105 -171 -225 -175l-4 -29c61 -3 92 -40 92 -85
c0 -50 -34 -91 -109 -91h-53v44h50c40 0 59 16 59 47c0 30 -21 47 -60 47h-27z" />
    <glyph glyph-name="ccircumflex.sc" unicode="&#xf673;" horiz-adv-x="581" 
d="M46 260c0 153 105 271 260 271c127 0 212 -72 236 -175h-68c-21 69 -75 113 -165 113c-117 0 -192 -90 -192 -209c0 -113 72 -209 192 -209c91 0 142 43 165 113h68c-25 -105 -110 -175 -236 -175c-158 0 -260 124 -260 271zM147 600l128 164h62l128 -164h-65l-94 123
l-94 -123h-65z" />
    <glyph glyph-name="cdotaccent.sc" unicode="&#xf674;" horiz-adv-x="581" 
d="M46 260c0 153 105 271 260 271c127 0 212 -72 236 -175h-68c-21 69 -75 113 -165 113c-117 0 -192 -90 -192 -209c0 -113 72 -209 192 -209c91 0 142 43 165 113h68c-25 -105 -110 -175 -236 -175c-158 0 -260 124 -260 271zM272 637v90h68v-90h-68z" />
    <glyph glyph-name="dcaron.sc" unicode="&#xf675;" horiz-adv-x="592" 
d="M91 0v520h176c180 0 279 -108 279 -260c0 -149 -99 -260 -279 -260h-176zM267 461h-108v-402h108c147 0 208 93 208 201c0 109 -61 201 -208 201zM249 600l-128 164h65l94 -123l94 123h65l-128 -164h-62z" />
    <glyph glyph-name="eacute.sc" unicode="&#xf7e9;" horiz-adv-x="522" 
d="M91 0v520h371v-59h-303v-167h246v-57h-246v-178h311v-59h-379zM250 600l106 164h81l-137 -164h-50z" />
    <glyph glyph-name="ebreve.sc" unicode="&#xf677;" horiz-adv-x="522" 
d="M91 0v520h371v-59h-303v-167h246v-57h-246v-178h311v-59h-379zM276 616c-62 0 -128 34 -139 134h44c9 -58 41 -90 95 -90s86 32 95 90h44c-11 -100 -77 -134 -139 -134z" />
    <glyph glyph-name="ecaron.sc" unicode="&#xf678;" horiz-adv-x="522" 
d="M91 0v520h371v-59h-303v-167h246v-57h-246v-178h311v-59h-379zM245 600l-128 164h65l94 -123l94 123h65l-128 -164h-62z" />
    <glyph glyph-name="ecircumflex.sc" unicode="&#xf7ea;" horiz-adv-x="522" 
d="M91 0v520h371v-59h-303v-167h246v-57h-246v-178h311v-59h-379zM117 600l128 164h62l128 -164h-65l-94 123l-94 -123h-65z" />
    <glyph glyph-name="edieresis.sc" unicode="&#xf7eb;" horiz-adv-x="522" 
d="M91 0v520h371v-59h-303v-167h246v-57h-246v-178h311v-59h-379zM341 637v90h68v-90h-68zM144 637v90h68v-90h-68z" />
    <glyph glyph-name="edotaccent.sc" unicode="&#xf679;" horiz-adv-x="522" 
d="M91 0v520h371v-59h-303v-167h246v-57h-246v-178h311v-59h-379zM242 637v90h68v-90h-68z" />
    <glyph glyph-name="egrave.sc" unicode="&#xf7e8;" horiz-adv-x="522" 
d="M91 0v520h371v-59h-303v-167h246v-57h-246v-178h311v-59h-379zM252 600l-137 164h81l106 -164h-50z" />
    <glyph glyph-name="emacron.sc" unicode="&#xf67a;" horiz-adv-x="522" 
d="M91 0v520h371v-59h-303v-167h246v-57h-246v-178h311v-59h-379zM137 655v53h276v-53h-276z" />
    <glyph glyph-name="eogonek.sc" unicode="&#xf67c;" horiz-adv-x="522" 
d="M91 0v520h371v-59h-303v-167h246v-57h-246v-178h311v-59h-1c-42 -45 -61 -86 -61 -116c0 -32 17 -53 61 -53h30v-47h-39c-69 0 -105 37 -105 88c0 41 23 83 75 128h-339z" />
    <glyph glyph-name="gbreve.sc" unicode="&#xf67d;" horiz-adv-x="632" 
d="M319 217v56h236v-273h-44l-9 83h-1c-38 -62 -101 -94 -189 -94c-157 0 -263 124 -263 271c0 156 110 271 271 271c130 0 214 -74 234 -165h-71c-15 54 -69 103 -163 103c-122 0 -200 -87 -200 -209c0 -114 74 -209 195 -209c92 0 178 47 178 150v16h-174zM320 616
c-62 0 -128 34 -139 134h44c9 -58 41 -90 95 -90s86 32 95 90h44c-11 -100 -77 -134 -139 -134z" />
    <glyph glyph-name="gcircumflex.sc" unicode="&#xf67e;" horiz-adv-x="632" 
d="M319 217v56h236v-273h-44l-9 83h-1c-38 -62 -101 -94 -189 -94c-157 0 -263 124 -263 271c0 156 110 271 271 271c130 0 214 -74 234 -165h-71c-15 54 -69 103 -163 103c-122 0 -200 -87 -200 -209c0 -114 74 -209 195 -209c92 0 178 47 178 150v16h-174zM161 600
l128 164h62l128 -164h-65l-94 123l-94 -123h-65z" />
    <glyph glyph-name="gcommaaccent.sc" unicode="&#xf67f;" horiz-adv-x="632" 
d="M319 217v56h236v-273h-44l-9 83h-1c-38 -62 -101 -94 -189 -94c-157 0 -263 124 -263 271c0 156 110 271 271 271c130 0 214 -74 234 -165h-71c-15 54 -69 103 -163 103c-122 0 -200 -87 -200 -209c0 -114 74 -209 195 -209c92 0 178 47 178 150v16h-174zM278 -66h68v-74
l-36 -103h-31l27 97h-28v80z" />
    <glyph glyph-name="gdotaccent.sc" unicode="&#xf680;" horiz-adv-x="632" 
d="M319 217v56h236v-273h-44l-9 83h-1c-38 -62 -101 -94 -189 -94c-157 0 -263 124 -263 271c0 156 110 271 271 271c130 0 214 -74 234 -165h-71c-15 54 -69 103 -163 103c-122 0 -200 -87 -200 -209c0 -114 74 -209 195 -209c92 0 178 47 178 150v16h-174zM286 637v90h68
v-90h-68z" />
    <glyph glyph-name="hcircumflex.sc" unicode="&#xf682;" horiz-adv-x="617" 
d="M91 0v520h68v-228h299v228h68v-520h-68v233h-299v-233h-68zM149 600l128 164h62l128 -164h-65l-94 123l-94 -123h-65z" />
    <glyph glyph-name="iacute.sc" unicode="&#xf7ed;" horiz-adv-x="250" 
d="M91 0v520h68v-520h-68zM98 600l106 164h81l-137 -164h-50z" />
    <glyph glyph-name="ibreve.sc" unicode="&#xf683;" horiz-adv-x="250" 
d="M91 0v520h68v-520h-68zM124 616c-62 0 -128 34 -139 134h44c9 -58 41 -90 95 -90s86 32 95 90h44c-11 -100 -77 -134 -139 -134z" />
    <glyph glyph-name="icircumflex.sc" unicode="&#xf7ee;" horiz-adv-x="250" 
d="M91 0v520h68v-520h-68zM-35 600l128 164h62l128 -164h-65l-94 123l-94 -123h-65z" />
    <glyph glyph-name="idieresis.sc" unicode="&#xf7ef;" horiz-adv-x="250" 
d="M91 0v520h68v-520h-68zM189 637v90h68v-90h-68zM-8 637v90h68v-90h-68z" />
    <glyph glyph-name="idotaccent.sc" unicode="&#xf6ad;" horiz-adv-x="250" 
d="M91 0v520h68v-520h-68zM90 637v90h68v-90h-68z" />
    <glyph glyph-name="igrave.sc" unicode="&#xf7ec;" horiz-adv-x="250" 
d="M91 0v520h68v-520h-68zM100 600l-137 164h81l106 -164h-50z" />
    <glyph glyph-name="imacron.sc" unicode="&#xf685;" horiz-adv-x="250" 
d="M91 0v520h68v-520h-68zM-15 655v53h276v-53h-276z" />
    <glyph glyph-name="iogonek.sc" unicode="&#xf686;" horiz-adv-x="250" 
d="M91 0v520h68v-520h-1c-42 -45 -61 -86 -61 -116c0 -32 17 -53 61 -53h30v-47h-39c-69 0 -105 37 -105 88c0 41 23 83 75 128h-28z" />
    <glyph glyph-name="itilde.sc" unicode="&#xf687;" horiz-adv-x="250" 
d="M91 0v520h68v-520h-68zM-31 632c3 54 31 99 87 99s104 -51 141 -51c30 0 42 27 46 52h38c-3 -53 -31 -99 -87 -99s-104 51 -141 51c-30 0 -42 -27 -46 -52h-38z" />
    <glyph glyph-name="jcircumflex.sc" unicode="&#xf688;" horiz-adv-x="441" 
d="M44 149v26h65v-26c0 -73 38 -101 94 -101c53 0 94 30 94 104v368h68v-365c0 -116 -70 -166 -162 -166c-93 0 -159 47 -159 160zM175 600l128 164h62l128 -164h-65l-94 123l-94 -123h-65z" />
    <glyph glyph-name="kcommaaccent.sc" unicode="&#xf689;" horiz-adv-x="552" 
d="M91 0v520h68v-298l281 298h81l-219 -228l232 -292h-80l-196 246l-99 -103v-143h-68zM258 -66h68v-74l-36 -103h-31l27 97h-28v80z" />
    <glyph glyph-name="lacute.sc" unicode="&#xf68a;" horiz-adv-x="460" 
d="M91 0v520h68v-458h280v-62h-348zM96 600l106 164h81l-137 -164h-50z" />
    <glyph glyph-name="lcaron.sc" unicode="&#xf68b;" horiz-adv-x="460" 
d="M91 0v520h68v-461h280v-59h-348zM301 343l27 97h-28v80h68v-73l-36 -104h-31z" />
    <glyph glyph-name="lcommaaccent.sc" unicode="&#xf68c;" horiz-adv-x="460" 
d="M91 0v520h68v-458h280v-62h-348zM228 -66h68v-74l-36 -103h-31l27 97h-28v80z" />
    <glyph glyph-name="ldot.sc" unicode="&#xf68d;" horiz-adv-x="460" 
d="M91 0v520h68v-461h280v-59h-348zM270 220v90h68v-90h-68z" />
    <glyph glyph-name="lslash.sc" unicode="&#xf6f9;" horiz-adv-x="460" 
d="M34 121l-31 40l88 67v292h68v-240l118 91l31 -40l-149 -115v-157h280v-59h-348v164z" />
    <glyph glyph-name="nacute.sc" unicode="&#xf68e;" horiz-adv-x="618" 
d="M91 0v520h62l306 -408h2l-2 408h68v-520h-62l-306 409h-3l3 -409h-68zM283 600l106 164h81l-137 -164h-50z" />
    <glyph glyph-name="ncaron.sc" unicode="&#xf68f;" horiz-adv-x="618" 
d="M91 0v520h62l306 -408h2l-2 408h68v-520h-62l-306 409h-3l3 -409h-68zM278 600l-128 164h65l94 -123l94 123h65l-128 -164h-62z" />
    <glyph glyph-name="ncommaaccent.sc" unicode="&#xf690;" horiz-adv-x="618" 
d="M91 0v520h62l306 -408h2l-2 408h68v-520h-62l-306 409h-3l3 -409h-68zM275 -66h68v-74l-36 -103h-31l27 97h-28v80z" />
    <glyph glyph-name="ntilde.sc" unicode="&#xf7f1;" horiz-adv-x="618" 
d="M91 0v520h62l306 -408h2l-2 408h68v-520h-62l-306 409h-3l3 -409h-68zM154 632c3 54 31 99 87 99s104 -51 141 -51c30 0 42 27 46 52h38c-3 -53 -31 -99 -87 -99s-104 51 -141 51c-30 0 -42 -27 -46 -52h-38z" />
    <glyph glyph-name="oacute.sc" unicode="&#xf7f3;" horiz-adv-x="624" 
d="M46 260c0 155 113 271 266 271c152 0 266 -116 266 -271s-114 -271 -266 -271c-153 0 -266 116 -266 271zM117 260c0 -120 78 -209 195 -209c116 0 195 89 195 209s-79 209 -195 209c-117 0 -195 -89 -195 -209zM286 600l106 164h81l-137 -164h-50z" />
    <glyph glyph-name="obreve.sc" unicode="&#xf691;" horiz-adv-x="624" 
d="M46 260c0 155 113 271 266 271c152 0 266 -116 266 -271s-114 -271 -266 -271c-153 0 -266 116 -266 271zM117 260c0 -120 78 -209 195 -209c116 0 195 89 195 209s-79 209 -195 209c-117 0 -195 -89 -195 -209zM312 616c-62 0 -128 34 -139 134h44c9 -58 41 -90 95 -90
s86 32 95 90h44c-11 -100 -77 -134 -139 -134z" />
    <glyph glyph-name="ocircumflex.sc" unicode="&#xf7f4;" horiz-adv-x="624" 
d="M46 260c0 155 113 271 266 271c152 0 266 -116 266 -271s-114 -271 -266 -271c-153 0 -266 116 -266 271zM117 260c0 -120 78 -209 195 -209c116 0 195 89 195 209s-79 209 -195 209c-117 0 -195 -89 -195 -209zM153 600l128 164h62l128 -164h-65l-94 123l-94 -123h-65z
" />
    <glyph glyph-name="odieresis.sc" unicode="&#xf7f6;" horiz-adv-x="624" 
d="M46 260c0 155 113 271 266 271c152 0 266 -116 266 -271s-114 -271 -266 -271c-153 0 -266 116 -266 271zM117 260c0 -120 78 -209 195 -209c116 0 195 89 195 209s-79 209 -195 209c-117 0 -195 -89 -195 -209zM377 637v90h68v-90h-68zM180 637v90h68v-90h-68z" />
    <glyph glyph-name="ograve.sc" unicode="&#xf7f2;" horiz-adv-x="624" 
d="M46 260c0 155 113 271 266 271c152 0 266 -116 266 -271s-114 -271 -266 -271c-153 0 -266 116 -266 271zM117 260c0 -120 78 -209 195 -209c116 0 195 89 195 209s-79 209 -195 209c-117 0 -195 -89 -195 -209zM288 600l-137 164h81l106 -164h-50z" />
    <glyph glyph-name="ohungarumlaut.sc" unicode="&#xf692;" horiz-adv-x="624" 
d="M46 260c0 155 113 271 266 271c152 0 266 -116 266 -271s-114 -271 -266 -271c-153 0 -266 116 -266 271zM117 260c0 -120 78 -209 195 -209c116 0 195 89 195 209s-79 209 -195 209c-117 0 -195 -89 -195 -209zM374 600l106 164h80l-136 -164h-50zM197 600l106 164h80
l-136 -164h-50z" />
    <glyph glyph-name="omacron.sc" unicode="&#xf693;" horiz-adv-x="624" 
d="M46 260c0 155 113 271 266 271c152 0 266 -116 266 -271s-114 -271 -266 -271c-153 0 -266 116 -266 271zM117 260c0 -120 78 -209 195 -209c116 0 195 89 195 209s-79 209 -195 209c-117 0 -195 -89 -195 -209zM173 655v53h276v-53h-276z" />
    <glyph glyph-name="oslashacute.sc" unicode="&#xf694;" horiz-adv-x="624" 
d="M61 -11l62 75c-48 49 -77 117 -77 196c0 155 113 271 266 271c59 0 113 -18 156 -49l41 49h57l-64 -78c47 -48 76 -116 76 -193c0 -155 -114 -271 -266 -271c-59 0 -112 17 -155 47l-39 -47h-57zM117 260c0 -58 17 -108 49 -145l261 317c-31 23 -70 37 -115 37
c-117 0 -195 -89 -195 -209zM507 260c0 56 -18 105 -48 142l-261 -316c31 -23 69 -35 114 -35c116 0 195 89 195 209zM286 600l106 164h81l-137 -164h-50z" />
    <glyph glyph-name="otilde.sc" unicode="&#xf7f5;" horiz-adv-x="624" 
d="M46 260c0 155 113 271 266 271c152 0 266 -116 266 -271s-114 -271 -266 -271c-153 0 -266 116 -266 271zM117 260c0 -120 78 -209 195 -209c116 0 195 89 195 209s-79 209 -195 209c-117 0 -195 -89 -195 -209zM157 632c3 54 31 99 87 99s104 -51 141 -51
c30 0 42 27 46 52h38c-3 -53 -31 -99 -87 -99s-104 51 -141 51c-30 0 -42 -27 -46 -52h-38z" />
    <glyph glyph-name="racute.sc" unicode="&#xf695;" horiz-adv-x="559" 
d="M91 0v520h225c116 0 178 -58 178 -154c0 -81 -45 -139 -128 -155l148 -211h-77l-141 207h-137v-207h-68zM316 461h-157v-195h157c74 0 110 40 110 100c0 58 -38 95 -110 95zM245 600l106 164h81l-137 -164h-50z" />
    <glyph glyph-name="rcaron.sc" unicode="&#xf696;" horiz-adv-x="559" 
d="M91 0v520h225c116 0 178 -58 178 -154c0 -81 -45 -139 -128 -155l148 -211h-77l-141 207h-137v-207h-68zM316 461h-157v-195h157c74 0 110 40 110 100c0 58 -38 95 -110 95zM240 600l-128 164h65l94 -123l94 123h65l-128 -164h-62z" />
    <glyph glyph-name="rcommaaccent.sc" unicode="&#xf697;" horiz-adv-x="559" 
d="M91 0v520h225c116 0 178 -58 178 -154c0 -81 -45 -139 -128 -155l148 -211h-77l-141 207h-137v-207h-68zM316 461h-157v-195h157c74 0 110 40 110 100c0 58 -38 95 -110 95zM246 -66h68v-74l-36 -103h-31l27 97h-28v80z" />
    <glyph glyph-name="sacute.sc" unicode="&#xf698;" horiz-adv-x="518" 
d="M47 146h68c0 -65 56 -101 143 -101s139 34 139 98c0 143 -339 29 -339 235c0 90 78 153 202 153c121 0 195 -60 195 -151h-65c0 57 -52 95 -130 95c-81 0 -133 -31 -133 -91c0 -145 341 -31 341 -235c0 -98 -77 -160 -210 -160c-130 0 -211 60 -211 157zM234 600l106 164
h81l-137 -164h-50z" />
    <glyph glyph-name="scaron.sc" unicode="&#xf6fd;" horiz-adv-x="518" 
d="M47 146h68c0 -65 56 -101 143 -101s139 34 139 98c0 143 -339 29 -339 235c0 90 78 153 202 153c121 0 195 -60 195 -151h-65c0 57 -52 95 -130 95c-81 0 -133 -31 -133 -91c0 -145 341 -31 341 -235c0 -98 -77 -160 -210 -160c-130 0 -211 60 -211 157zM229 600
l-128 164h65l94 -123l94 123h65l-128 -164h-62z" />
    <glyph glyph-name="scedilla.sc" unicode="&#xf699;" horiz-adv-x="518" 
d="M217 -78l24 68c-120 5 -194 63 -194 156h68c0 -65 56 -101 143 -101s139 34 139 98c0 143 -339 29 -339 235c0 90 78 153 202 153c121 0 195 -60 195 -151h-65c0 57 -52 95 -130 95c-81 0 -133 -31 -133 -91c0 -145 341 -31 341 -235c0 -95 -73 -156 -199 -160l-4 -29
c61 -3 92 -40 92 -85c0 -50 -34 -91 -109 -91h-53v44h50c40 0 59 16 59 47c0 30 -21 47 -60 47h-27z" />
    <glyph glyph-name="scircumflex.sc" unicode="&#xf69a;" horiz-adv-x="518" 
d="M47 146h68c0 -65 56 -101 143 -101s139 34 139 98c0 143 -339 29 -339 235c0 90 78 153 202 153c121 0 195 -60 195 -151h-65c0 57 -52 95 -130 95c-81 0 -133 -31 -133 -91c0 -145 341 -31 341 -235c0 -98 -77 -160 -210 -160c-130 0 -211 60 -211 157zM101 600l128 164
h62l128 -164h-65l-94 123l-94 -123h-65z" />
    <glyph glyph-name="scommaaccent.sc" unicode="&#xf69b;" horiz-adv-x="518" 
d="M47 146h68c0 -65 56 -101 143 -101s139 34 139 98c0 143 -339 29 -339 235c0 90 78 153 202 153c121 0 195 -60 195 -151h-65c0 57 -52 95 -130 95c-81 0 -133 -31 -133 -91c0 -145 341 -31 341 -235c0 -98 -77 -160 -210 -160c-130 0 -211 60 -211 157zM224 -66h68v-74
l-36 -103h-31l27 97h-28v80z" />
    <glyph glyph-name="tcaron.sc" unicode="&#xf69d;" horiz-adv-x="497" 
d="M18 461v59h462v-59h-197v-461h-68v461h-197zM216 600l-128 164h65l94 -123l94 123h65l-128 -164h-62z" />
    <glyph glyph-name="tcommaaccent.sc" unicode="&#xf69e;" horiz-adv-x="497" 
d="M211 -78l28 78h-24v461h-197v59h462v-59h-197v-461h-18l-6 -40c61 -3 92 -40 92 -85c0 -50 -34 -91 -109 -91h-53v44h50c40 0 59 16 59 47c0 30 -21 47 -60 47h-27z" />
    <glyph glyph-name="uacute.sc" unicode="&#xf7fa;" horiz-adv-x="589" 
d="M76 207v313h68v-313c0 -100 51 -156 149 -156s152 56 152 156v313h68v-313c0 -156 -93 -218 -220 -218c-126 0 -217 62 -217 218zM268 600l106 164h81l-137 -164h-50z" />
    <glyph glyph-name="ubreve.sc" unicode="&#xf69f;" horiz-adv-x="589" 
d="M76 207v313h68v-313c0 -100 51 -156 149 -156s152 56 152 156v313h68v-313c0 -156 -93 -218 -220 -218c-126 0 -217 62 -217 218zM294 616c-62 0 -128 34 -139 134h44c9 -58 41 -90 95 -90s86 32 95 90h44c-11 -100 -77 -134 -139 -134z" />
    <glyph glyph-name="ucircumflex.sc" unicode="&#xf7fb;" horiz-adv-x="589" 
d="M76 207v313h68v-313c0 -100 51 -156 149 -156s152 56 152 156v313h68v-313c0 -156 -93 -218 -220 -218c-126 0 -217 62 -217 218zM135 600l128 164h62l128 -164h-65l-94 123l-94 -123h-65z" />
    <glyph glyph-name="udieresis.sc" unicode="&#xf7fc;" horiz-adv-x="589" 
d="M76 207v313h68v-313c0 -100 51 -156 149 -156s152 56 152 156v313h68v-313c0 -156 -93 -218 -220 -218c-126 0 -217 62 -217 218zM359 637v90h68v-90h-68zM162 637v90h68v-90h-68z" />
    <glyph glyph-name="ugrave.sc" unicode="&#xf7f9;" horiz-adv-x="589" 
d="M76 207v313h68v-313c0 -100 51 -156 149 -156s152 56 152 156v313h68v-313c0 -156 -93 -218 -220 -218c-126 0 -217 62 -217 218zM270 600l-137 164h81l106 -164h-50z" />
    <glyph glyph-name="uhungarumlaut.sc" unicode="&#xf6a0;" horiz-adv-x="589" 
d="M76 207v313h68v-313c0 -100 51 -156 149 -156s152 56 152 156v313h68v-313c0 -156 -93 -218 -220 -218c-126 0 -217 62 -217 218zM356 600l106 164h80l-136 -164h-50zM179 600l106 164h80l-136 -164h-50z" />
    <glyph glyph-name="umacron.sc" unicode="&#xf6a1;" horiz-adv-x="589" 
d="M76 207v313h68v-313c0 -100 51 -156 149 -156s152 56 152 156v313h68v-313c0 -156 -93 -218 -220 -218c-126 0 -217 62 -217 218zM155 655v53h276v-53h-276z" />
    <glyph glyph-name="uogonek.sc" unicode="&#xf6a2;" horiz-adv-x="589" 
d="M256 -126c0 48 39 88 82 118c-15 -2 -30 -3 -45 -3c-129 0 -217 62 -217 218v313h68v-313c0 -100 51 -156 149 -156s152 56 152 156v313h68v-313c0 -88 -29 -147 -77 -180c-56 -39 -124 -90 -124 -141c0 -32 16 -55 61 -55h30v-47h-39c-70 0 -108 30 -108 90z" />
    <glyph glyph-name="uring.sc" unicode="&#xf6a3;" horiz-adv-x="589" 
d="M76 207v313h68v-313c0 -100 51 -156 149 -156s152 56 152 156v313h68v-313c0 -156 -93 -218 -220 -218c-126 0 -217 62 -217 218zM294 599c-50 0 -96 37 -96 93s46 93 96 93s96 -37 96 -93s-46 -93 -96 -93zM294 634c31 0 58 24 58 58s-27 58 -58 58s-58 -24 -58 -58
s27 -58 58 -58z" />
    <glyph glyph-name="utilde.sc" unicode="&#xf6a4;" horiz-adv-x="589" 
d="M76 207v313h68v-313c0 -100 51 -156 149 -156s152 56 152 156v313h68v-313c0 -156 -93 -218 -220 -218c-126 0 -217 62 -217 218zM139 632c3 54 31 99 87 99s104 -51 141 -51c30 0 42 27 46 52h38c-3 -53 -31 -99 -87 -99s-104 51 -141 51c-30 0 -42 -27 -46 -52h-38z
" />
    <glyph glyph-name="wacute.sc" unicode="&#xf6a5;" horiz-adv-x="754" 
d="M159 0l-143 520h71l117 -446h3l138 446h70l137 -446h3l115 446h68l-140 -520h-87l-132 433h-2l-131 -433h-87zM352 600l106 164h81l-137 -164h-50z" />
    <glyph glyph-name="wcircumflex.sc" unicode="&#xf6a6;" horiz-adv-x="754" 
d="M159 0l-143 520h71l117 -446h3l138 446h70l137 -446h3l115 446h68l-140 -520h-87l-132 433h-2l-131 -433h-87zM219 600l128 164h62l128 -164h-65l-94 123l-94 -123h-65z" />
    <glyph glyph-name="wdieresis.sc" unicode="&#xf6a7;" horiz-adv-x="754" 
d="M159 0l-143 520h71l117 -446h3l138 446h70l137 -446h3l115 446h68l-140 -520h-87l-132 433h-2l-131 -433h-87zM443 637v90h68v-90h-68zM246 637v90h68v-90h-68z" />
    <glyph glyph-name="wgrave.sc" unicode="&#xf6a8;" horiz-adv-x="754" 
d="M159 0l-143 520h71l117 -446h3l138 446h70l137 -446h3l115 446h68l-140 -520h-87l-132 433h-2l-131 -433h-87zM354 600l-137 164h81l106 -164h-50z" />
    <glyph glyph-name="yacute.sc" unicode="&#xf7fd;" horiz-adv-x="486" 
d="M207 0v206l-202 314h80l158 -249h2l162 249h73l-205 -313v-207h-68zM217 600l106 164h81l-137 -164h-50z" />
    <glyph glyph-name="ycircumflex.sc" unicode="&#xf6a9;" horiz-adv-x="486" 
d="M207 0v206l-202 314h80l158 -249h2l162 249h73l-205 -313v-207h-68zM84 600l128 164h62l128 -164h-65l-94 123l-94 -123h-65z" />
    <glyph glyph-name="ydieresis.sc" unicode="&#xf7ff;" horiz-adv-x="486" 
d="M207 0v206l-202 314h80l158 -249h2l162 249h73l-205 -313v-207h-68zM308 637v90h68v-90h-68zM111 637v90h68v-90h-68z" />
    <glyph glyph-name="ygrave.sc" unicode="&#xf6aa;" horiz-adv-x="486" 
d="M207 0v206l-202 314h80l158 -249h2l162 249h73l-205 -313v-207h-68zM219 600l-137 164h81l106 -164h-50z" />
    <glyph glyph-name="zacute.sc" unicode="&#xf6ab;" horiz-adv-x="495" 
d="M52 461v59h396v-43l-320 -418h316v-59h-405v43l318 418h-305zM221 600l106 164h81l-137 -164h-50z" />
    <glyph glyph-name="zcaron.sc" unicode="&#xf6ff;" horiz-adv-x="495" 
d="M52 461v59h396v-43l-320 -418h316v-59h-405v43l318 418h-305zM216 600l-128 164h65l94 -123l94 123h65l-128 -164h-62z" />
    <glyph glyph-name="zdotaccent.sc" unicode="&#xf6ac;" horiz-adv-x="495" 
d="M52 461v59h396v-43l-320 -418h316v-59h-405v43l318 418h-305zM213 637v90h68v-90h-68z" />
    <glyph glyph-name="uni0394" unicode="&#x394;" horiz-adv-x="629" 
d="M29 0l244 688h83l244 -688h-571zM314 624h-2l-195 -565h391z" />
    <glyph glyph-name="uni03A9" unicode="&#x3a9;" horiz-adv-x="696" 
d="M413 0v200c68 19 157 92 157 217c0 132 -93 223 -222 223s-222 -91 -222 -223c0 -125 89 -198 157 -217v-200h-216v59h151v104c-87 40 -163 127 -163 254c0 160 121 282 293 282s293 -122 293 -282c0 -127 -76 -214 -163 -254v-104h151v-59h-216z" />
    <glyph glyph-name="uni03BC" unicode="&#x3bc;" horiz-adv-x="562" 
d="M417 0v80h-3c-30 -62 -88 -91 -157 -91c-45 0 -86 13 -117 42c5 -50 8 -133 8 -174v-77h-68v708h68v-290c0 -110 47 -150 123 -150c80 0 143 64 143 184v256h67v-488h-64z" />
    <glyph glyph-name="uni021A" unicode="&#x21a;" horiz-adv-x="579" 
d="M8 628v60h563v-60h-246v-628h-71v628h-246zM257 -66h68v-74l-36 -103h-31l27 97h-28v80z" />
    <glyph glyph-name="uni021B" unicode="&#x21b;" horiz-adv-x="317" 
d="M92 140v293h-96v55h96v148h68v-148h133v-55h-133v-290c0 -62 24 -84 78 -84h55v-59h-64c-91 0 -137 44 -137 140zM148 -66h68v-74l-36 -103h-31l27 97h-28v80z" />
    <glyph glyph-name="uni00AD" unicode="&#xad;" horiz-adv-x="396" 
d="M60 221v62h276v-62h-276z" />
    <glyph glyph-name="uni02C9" unicode="&#x2c9;" horiz-adv-x="550" 
d="M136 623v53h276v-53h-276z" />
    <glyph glyph-name="uni2215" unicode="&#x2215;" horiz-adv-x="72" 
d="M-164 -12c83 171 266 541 349 712h53l-349 -712h-53z" />
    <glyph glyph-name="uni2219" unicode="&#x2219;" horiz-adv-x="244" 
d="M79 198v108h86v-108h-86z" />
    <glyph glyph-name="at.sc" horiz-adv-x="834" 
d="M243 94c0 58 38 102 125 112l83 10c40 5 51 12 51 31c0 53 -32 85 -90 85c-49 0 -88 -27 -92 -79h-59c7 88 77 126 151 126c94 0 153 -46 153 -135v-130c0 -60 32 -81 68 -81c51 0 99 51 99 172c0 174 -136 279 -312 279c-190 0 -318 -130 -318 -308
c0 -179 125 -304 306 -304c70 0 136 17 180 61h65c-56 -70 -143 -108 -245 -108c-209 0 -356 151 -356 351c0 201 149 355 368 355c206 0 362 -130 362 -326c0 -150 -74 -213 -158 -213c-50 0 -96 16 -112 66c-27 -47 -77 -69 -142 -69c-81 0 -127 44 -127 105zM502 153v38
c-9 -9 -23 -14 -42 -16l-79 -10c-51 -6 -73 -32 -73 -65c0 -37 29 -64 76 -64c62 0 118 37 118 117z" />
    <glyph glyph-name="fi.sc" horiz-adv-x="741" 
d="M91 0v520h367v-59h-299v-187h239v-57h-239v-217h-68zM582 0v520h68v-520h-68z" />
    <glyph glyph-name="fl.sc" horiz-adv-x="951" 
d="M91 0v520h367v-59h-299v-187h239v-57h-239v-217h-68zM582 0v520h68v-458h281v-62h-349z" />
    <glyph glyph-name="dotlessj" unicode="&#xf6be;" horiz-adv-x="228" 
d="M80 -84v572h68v-584c0 -76 -36 -124 -125 -124h-30v59h24c44 0 63 23 63 77z" />
    <glyph glyph-name="t_t" horiz-adv-x="605" 
d="M380 140v293h-219v-290c0 -62 24 -84 72 -84h46v-59h-49c-91 0 -137 44 -137 140v293h-94v55h94v148h68v-148h219v148h68v-148h133v-55h-133v-290c0 -62 27 -84 75 -84h58v-59h-64c-91 0 -137 44 -137 140z" />
    <glyph glyph-name="t_f" horiz-adv-x="579" 
d="M383 0v433h-220v-290c0 -62 16 -84 64 -84h52v-59h-55c-91 0 -128 44 -128 140v293h-94v55h94v148h67v-148h220v86c0 106 54 158 155 158h53v-59h-47c-68 0 -93 -33 -93 -102v-83h124v-55h-124v-433h-68z" />
    <glyph glyph-name="caronquoteleft" horiz-adv-x="550" 
d="M241 568v74l36 103h31l-27 -97h28v-80h-68z" />
    <glyph glyph-name="caronquoteright" horiz-adv-x="550" 
d="M244 568l27 97h-28v80h68v-74l-36 -103h-31z" />
    <glyph glyph-name="slashedzero" horiz-adv-x="568" 
d="M284 -11c-168 0 -237 155 -237 355s69 355 237 355s237 -155 237 -355s-69 -355 -237 -355zM284 51c114 0 166 113 166 293c0 89 -13 162 -40 212l-221 -468c25 -24 56 -37 95 -37zM118 344c0 -89 12 -161 39 -211l221 467c-25 24 -56 37 -94 37
c-115 0 -166 -113 -166 -293z" />
    <glyph glyph-name="zero.sc" horiz-adv-x="504" 
d="M252 -11c-144 0 -204 120 -204 271s60 271 204 271s204 -120 204 -271s-60 -271 -204 -271zM252 45c91 0 133 84 133 215c0 132 -42 215 -133 215c-92 0 -133 -83 -133 -215c0 -131 43 -215 133 -215z" />
    <glyph glyph-name="one.sc" horiz-adv-x="504" 
d="M100 353l-28 49l187 118h49v-464h145v-56h-366v56h153v383z" />
    <glyph glyph-name="two.sc" horiz-adv-x="504" 
d="M62 0c4 119 44 172 136 225l66 39c59 33 106 58 106 118c0 51 -40 93 -115 93c-71 0 -121 -35 -125 -110h-62c5 123 95 166 187 166c105 0 180 -54 180 -146c0 -87 -62 -123 -128 -162l-67 -39c-81 -48 -98 -79 -101 -128h303v-56h-380z" />
    <glyph glyph-name="three.sc" horiz-adv-x="504" 
d="M54 151h65c0 -76 59 -109 133 -109c80 0 133 33 133 103c0 62 -55 100 -130 100h-44v52h44c65 0 112 36 112 91c0 57 -46 90 -115 90c-60 0 -115 -31 -115 -97h-59c0 94 75 150 174 150c111 0 177 -59 177 -143c0 -57 -36 -99 -88 -114v-3c61 -16 112 -63 112 -132
c0 -97 -84 -150 -201 -150c-115 0 -198 49 -198 162z" />
    <glyph glyph-name="four.sc" horiz-adv-x="504" 
d="M31 127v46l287 347h55v-338h88v-55h-88v-127h-68v127h-274zM104 182h201v244z" />
    <glyph glyph-name="five.sc" horiz-adv-x="504" 
d="M57 136h68c8 -47 48 -91 130 -91c74 0 128 47 128 119c0 69 -54 117 -125 117c-55 0 -92 -27 -121 -63l-65 6l17 296h330v-59h-268l-11 -174h3c25 29 66 49 124 49c102 0 184 -66 184 -172c0 -109 -91 -175 -196 -175c-120 0 -188 61 -198 147z" />
    <glyph glyph-name="six.sc" horiz-adv-x="504" 
d="M268 475c-77 0 -143 -53 -146 -216c21 46 83 77 147 77c107 0 184 -65 184 -172c0 -109 -87 -175 -193 -175c-115 0 -209 64 -209 257c0 208 101 285 217 285c113 0 166 -61 176 -142h-68c-8 45 -35 86 -108 86zM134 161c0 -72 56 -113 126 -113c75 0 125 47 125 116
c0 66 -51 114 -125 114s-126 -48 -126 -117z" />
    <glyph glyph-name="seven.sc" horiz-adv-x="504" 
d="M137 0l247 458h-328v62h405v-43l-250 -477h-74z" />
    <glyph glyph-name="eight.sc" horiz-adv-x="504" 
d="M75 388c0 85 68 143 177 143s177 -58 177 -143c0 -56 -36 -99 -88 -114v-3c61 -16 112 -63 112 -132c0 -97 -80 -150 -201 -150s-201 53 -201 150c0 69 51 116 112 132v3c-52 15 -88 58 -88 114zM119 142c0 -63 53 -100 133 -100s133 37 133 100s-56 103 -133 103
s-133 -40 -133 -103zM137 388c0 -58 48 -91 115 -91s115 33 115 91c0 57 -50 90 -115 90s-115 -33 -115 -90z" />
    <glyph glyph-name="nine.sc" horiz-adv-x="504" 
d="M244 45c78 0 136 52 139 214c-22 -46 -84 -75 -147 -75c-107 0 -184 64 -184 171c0 109 87 176 193 176c115 0 209 -64 209 -257c0 -208 -92 -285 -210 -285c-114 0 -173 61 -183 142h68c8 -45 42 -86 115 -86zM371 359c0 72 -53 113 -126 113c-75 0 -122 -48 -122 -117
c0 -66 48 -112 122 -112s126 44 126 116z" />
    <glyph glyph-name="slashedzero.sc" horiz-adv-x="504" 
d="M252 -11c-144 0 -204 120 -204 271s60 271 204 271s204 -120 204 -271s-60 -271 -204 -271zM252 45c91 0 133 84 133 215c0 67 -11 121 -34 159l-166 -354c19 -13 41 -20 67 -20zM119 260c0 -67 11 -121 33 -158l167 353c-19 13 -41 20 -67 20c-92 0 -133 -83 -133 -215z
" />
    <glyph glyph-name="currency.sc" horiz-adv-x="504" 
d="M95 68l-35 34l59 60c-19 27 -33 60 -33 98s15 73 34 99l-59 61l34 34l60 -61c26 20 59 31 97 31c37 0 69 -11 96 -31l60 61l35 -34l-60 -60c20 -27 35 -62 35 -100s-15 -71 -34 -98l59 -60l-34 -34l-59 59c-26 -20 -61 -31 -98 -31c-38 0 -72 11 -99 32zM252 146
c63 0 110 46 110 114s-47 114 -110 114s-110 -46 -110 -114s47 -114 110 -114z" />
    <glyph glyph-name="dollar.sc" horiz-adv-x="504" 
d="M49 147h68c2 -64 60 -105 133 -105c77 0 128 34 128 94c0 51 -36 72 -103 90l-80 21c-61 16 -131 47 -131 137c0 78 59 135 154 145v87h62v-87c84 -11 145 -64 151 -141h-65c-8 56 -54 90 -117 90c-67 0 -117 -30 -117 -85c0 -51 36 -70 99 -87l80 -22
c90 -24 135 -63 135 -142c0 -87 -65 -142 -165 -151v-91h-62v91c-99 9 -166 67 -170 156z" />
    <glyph glyph-name="cent.sc" horiz-adv-x="504" 
d="M234 -11v79c-107 13 -169 93 -169 196c0 101 64 179 172 192v75h62v-75c85 -10 141 -65 149 -133h-68c-8 43 -49 80 -112 80c-87 0 -132 -61 -132 -139c0 -79 48 -142 129 -142c67 0 106 40 115 82h65c-8 -67 -66 -124 -149 -136v-79h-62z" />
    <glyph glyph-name="Euro.sc" horiz-adv-x="504" 
d="M15 189l11 38h60c-1 11 -1 22 -1 33c0 13 0 26 1 39h-55l11 38h49c19 113 84 194 206 194c105 0 159 -62 175 -148h-62c-11 54 -48 92 -110 92c-76 0 -121 -52 -137 -138h171l-11 -38h-166c-1 -13 -1 -26 -1 -39c0 -12 0 -23 1 -33h161l-12 -38h-145
c15 -90 61 -144 139 -144c57 0 91 31 106 79h62c-19 -80 -71 -135 -171 -135c-124 0 -189 84 -207 200h-75z" />
    <glyph glyph-name="yen.sc" horiz-adv-x="504" 
d="M90 188v38h125l-190 294h80l151 -236h1l151 236h71l-188 -294h126v-38h-128v-62h128v-38h-128v-88h-68v88h-131v38h131v62h-131z" />
    <glyph glyph-name="sterling.sc" horiz-adv-x="504" 
d="M71 248v42h72c-16 32 -30 64 -30 99c0 87 61 142 158 142c92 0 144 -49 151 -135h-62c-5 54 -37 82 -89 82c-54 0 -90 -32 -90 -86c0 -37 16 -69 32 -102h140v-42h-121c9 -24 16 -48 16 -76c0 -23 -4 -47 -11 -70c40 -29 76 -59 116 -59c47 0 57 35 61 81h56
c-6 -76 -29 -135 -114 -135c-54 0 -96 37 -137 71c-23 -39 -58 -68 -106 -68c-58 0 -91 31 -91 77c0 52 40 84 94 84c25 0 48 -7 69 -18c1 8 1 17 1 25c0 31 -10 60 -23 88h-92zM113 30c39 0 58 27 66 61c-20 14 -41 24 -63 24c-36 0 -50 -22 -50 -43c0 -22 15 -42 47 -42z
" />
    <glyph glyph-name="florin.sc" horiz-adv-x="504" 
d="M95 224v44h107l16 133c11 93 58 130 131 130c72 0 121 -36 111 -121l-4 -29h-58l4 26c7 49 -15 74 -53 74c-39 0 -58 -26 -64 -80l-15 -133h126v-44h-131l-28 -245c-11 -93 -58 -129 -131 -129c-72 0 -124 35 -112 120l4 29h59l-4 -26c-7 -49 14 -73 53 -73
c38 0 57 26 63 79l28 245h-102z" />
    <glyph glyph-name="zero.TOSF" horiz-adv-x="568" 
d="M47 244c0 151 100 255 237 255c145 0 237 -104 237 -255s-100 -255 -237 -255c-145 0 -237 104 -237 255zM118 244c0 -117 67 -196 166 -196c97 0 166 79 166 196c0 120 -67 196 -166 196c-97 0 -166 -79 -166 -196z" />
    <glyph glyph-name="one.TOSF" horiz-adv-x="568" 
d="M113 296l-31 49l204 144h52v-430h182v-59h-446v59h196v347z" />
    <glyph glyph-name="two.TOSF" horiz-adv-x="568" 
d="M67 0c0 132 74 190 166 223l73 27c63 22 116 40 116 102c0 44 -38 91 -137 91c-90 0 -150 -40 -156 -125h-62c4 134 114 181 218 181c125 0 205 -57 205 -144c0 -99 -77 -127 -156 -155l-73 -26c-63 -23 -114 -63 -114 -115h350v-59h-430z" />
    <glyph glyph-name="three.TOSF" horiz-adv-x="568" 
d="M47 5h65c0 -106 69 -157 164 -157c96 0 166 51 166 140c0 85 -75 140 -166 140h-52v59h52c79 0 141 51 141 129c0 80 -64 124 -141 124s-141 -43 -141 -138h-62c0 124 85 197 203 197c122 0 206 -73 206 -182c0 -72 -51 -138 -113 -156v-4c79 -18 141 -86 141 -174
c0 -122 -104 -194 -234 -194c-136 0 -229 71 -229 216z" />
    <glyph glyph-name="four.TOSF" horiz-adv-x="568" 
d="M34 2v49l338 438h55v-428h105v-59h-105v-202h-68v202h-325zM106 61h253v323z" />
    <glyph glyph-name="five.TOSF" horiz-adv-x="568" 
d="M63 -20h68c9 -65 59 -132 163 -132c87 0 164 59 164 166c0 102 -68 167 -163 167c-60 0 -108 -28 -147 -81l-63 3l20 385h381v-62h-319l-14 -247h3c33 40 83 61 148 61c126 0 222 -85 222 -220c0 -152 -111 -231 -232 -231c-139 0 -219 81 -231 191z" />
    <glyph glyph-name="six.TOSF" horiz-adv-x="568" 
d="M50 328c0 275 123 371 254 371c129 0 194 -76 206 -183h-68c-9 70 -49 124 -138 124c-95 0 -183 -81 -183 -312v-1c26 69 107 113 189 113c129 0 216 -89 216 -223c0 -145 -109 -228 -229 -228c-136 0 -247 89 -247 339zM134 209c0 -88 69 -161 160 -161
c92 0 164 61 164 169c0 97 -68 164 -157 164c-96 0 -167 -69 -167 -172z" />
    <glyph glyph-name="seven.TOSF" horiz-adv-x="568" 
d="M158 -200l289 626h-392v62h466v-49l-292 -639h-71z" />
    <glyph glyph-name="eight.TOSF" horiz-adv-x="568" 
d="M47 183c0 88 63 156 141 174v4c-64 18 -113 83 -113 156c0 109 85 182 209 182s209 -73 209 -182c0 -73 -49 -138 -113 -156v-4c78 -18 141 -86 141 -174c0 -122 -98 -194 -237 -194s-237 72 -237 194zM115 188c0 -89 71 -140 169 -140s169 51 169 140
c0 84 -75 140 -169 140s-169 -56 -169 -140zM284 387c82 0 144 51 144 129c0 80 -64 127 -144 127s-144 -47 -144 -127c0 -78 62 -129 144 -129z" />
    <glyph glyph-name="nine.TOSF" horiz-adv-x="568" 
d="M520 160c0 -275 -107 -371 -247 -371c-132 0 -198 76 -213 183h68c12 -67 53 -124 145 -124c104 0 176 81 176 312v1c-27 -70 -107 -113 -189 -113c-129 0 -216 89 -216 223c0 145 109 228 229 228c136 0 247 -89 247 -339zM436 279c0 83 -65 161 -160 161
c-88 0 -164 -61 -164 -169c0 -97 68 -164 157 -164c96 0 167 69 167 172z" />
    <glyph glyph-name="slashedzero.TOSF" horiz-adv-x="568" 
d="M47 244c0 151 100 255 237 255c145 0 237 -104 237 -255s-100 -255 -237 -255c-145 0 -237 104 -237 255zM450 244c0 54 -14 100 -38 133l-222 -300c26 -19 58 -29 94 -29c97 0 166 79 166 196zM118 244c0 -54 14 -99 38 -133l222 300c-26 19 -58 29 -94 29
c-97 0 -166 -79 -166 -196z" />
    <glyph glyph-name="zero.PPF" horiz-adv-x="562" 
d="M281 -11c-165 0 -235 155 -235 355s70 355 235 355s235 -155 235 -355s-70 -355 -235 -355zM281 51c110 0 164 113 164 293s-54 293 -164 293c-112 0 -164 -113 -164 -293s54 -293 164 -293z" />
    <glyph glyph-name="one.PPF" horiz-adv-x="327" 
d="M45 516l-31 52l176 121h52v-689h-68v605z" />
    <glyph glyph-name="two.PPF" horiz-adv-x="516" 
d="M42 0c5 154 56 217 160 290l70 49c74 52 125 82 125 168c0 70 -41 133 -133 133c-86 0 -145 -48 -152 -155h-62c7 162 109 214 214 214c119 0 201 -68 201 -189c0 -117 -77 -163 -149 -214l-71 -49c-103 -73 -122 -121 -126 -188h355v-59h-432z" />
    <glyph glyph-name="three.PPF" horiz-adv-x="535" 
d="M38 205h65c0 -107 68 -157 161 -157c94 0 161 52 161 141c0 85 -72 139 -161 139h-48v59h48c75 0 136 51 136 129c0 80 -63 124 -136 124s-136 -42 -136 -138h-62c0 124 84 197 198 197c117 0 201 -73 201 -182c0 -72 -51 -136 -108 -156v-4c76 -20 136 -85 136 -170
c0 -125 -100 -198 -229 -198c-134 0 -226 70 -226 216z" />
    <glyph glyph-name="four.PPF" horiz-adv-x="537" 
d="M22 182v49l335 458h53v-448h99v-59h-99v-182h-68v182h-320zM95 241h247v334z" />
    <glyph glyph-name="five.PPF" horiz-adv-x="515" 
d="M37 180h68c9 -65 54 -132 153 -132c81 0 153 59 153 166c0 105 -66 167 -149 167c-60 0 -102 -30 -140 -81l-63 3l20 385h359v-62h-297l-14 -247h3c32 39 77 61 141 61c116 0 208 -82 208 -220c0 -152 -106 -231 -221 -231c-134 0 -209 81 -221 191z" />
    <glyph glyph-name="six.PPF" horiz-adv-x="544" 
d="M47 325c0 275 108 374 240 374c126 0 189 -76 201 -183h-68c-9 70 -47 124 -133 124c-96 0 -169 -81 -169 -311c26 68 95 111 175 111c126 0 211 -89 211 -223c0 -145 -104 -228 -221 -228c-134 0 -236 85 -236 336zM131 209c0 -91 63 -161 151 -161s154 62 154 169
c0 97 -64 164 -150 164c-93 0 -155 -69 -155 -172z" />
    <glyph glyph-name="seven.PPF" horiz-adv-x="448" 
d="M65 0l296 626h-342v62h416v-49l-299 -639h-71z" />
    <glyph glyph-name="eight.PPF" horiz-adv-x="548" 
d="M42 183c0 88 60 154 136 174v4c-60 20 -108 83 -108 156c0 109 84 182 204 182s204 -73 204 -182c0 -73 -48 -136 -108 -156v-4c76 -20 136 -86 136 -174c0 -122 -95 -194 -232 -194s-232 72 -232 194zM110 188c0 -89 68 -140 164 -140s164 51 164 140
c0 84 -72 140 -164 140s-164 -56 -164 -140zM274 387c77 0 139 51 139 129c0 80 -64 127 -139 127c-76 0 -139 -47 -139 -127c0 -78 62 -129 139 -129z" />
    <glyph glyph-name="nine.PPF" horiz-adv-x="544" 
d="M492 366c0 -281 -101 -377 -239 -377c-123 0 -195 76 -202 183h68c8 -70 51 -124 134 -124c102 0 168 81 168 311c-26 -69 -96 -111 -175 -111c-126 0 -211 89 -211 223c0 145 104 228 221 228c134 0 236 -81 236 -333zM408 479c0 81 -55 161 -150 161
c-89 0 -155 -62 -155 -169c0 -97 64 -164 151 -164c93 0 154 69 154 172z" />
    <glyph glyph-name="slashedzero.PPF" horiz-adv-x="562" 
d="M281 -11c-165 0 -235 155 -235 355s70 355 235 355s235 -155 235 -355s-70 -355 -235 -355zM281 51c110 0 164 113 164 293c0 88 -13 161 -40 211l-218 -466c25 -25 56 -38 94 -38zM117 344c0 -88 13 -159 39 -210l217 466c-24 24 -55 37 -92 37
c-112 0 -164 -113 -164 -293z" />
    <glyph glyph-name="currency.PPF" horiz-adv-x="474" 
d="M80 152l-34 34l59 60c-20 27 -34 60 -34 98s15 73 35 99l-60 61l34 34l60 -61c27 20 60 31 97 31s70 -11 97 -31l60 61l34 -34l-60 -60c21 -27 36 -62 36 -100s-15 -71 -35 -98l59 -60l-34 -34l-58 59c-27 -20 -61 -31 -99 -31s-72 11 -98 32zM237 230
c63 0 110 46 110 114s-47 114 -110 114c-62 0 -110 -46 -110 -114s48 -114 110 -114z" />
    <glyph glyph-name="dollar.PPF" horiz-adv-x="512" 
d="M30 188h68c6 -90 70 -140 153 -140c89 0 148 48 148 134c0 70 -48 103 -120 127l-92 30c-74 24 -145 70 -145 178c0 98 73 167 174 180v107h68v-108c89 -13 162 -78 170 -176h-68c-11 82 -69 120 -136 120c-75 0 -137 -39 -137 -117c0 -74 41 -101 116 -125l92 -30
c101 -33 149 -90 149 -183c0 -111 -77 -183 -185 -194v-111h-68v111c-108 12 -182 84 -187 197z" />
    <glyph glyph-name="cent.PPF" horiz-adv-x="509" 
d="M235 -11v106c-118 15 -192 112 -192 253s82 238 195 253v98h68v-99c94 -13 154 -79 168 -169h-68c-13 66 -59 113 -137 113c-88 0 -155 -79 -155 -196s65 -196 155 -196c78 0 124 47 137 113h68c-14 -91 -75 -158 -171 -170v-106h-68z" />
    <glyph glyph-name="Euro.PPF" horiz-adv-x="587" 
d="M29 403l12 44h61c26 148 111 252 249 252c121 0 193 -68 216 -179h-66c-22 77 -69 123 -150 123c-92 0 -155 -75 -177 -196h211l-12 -44h-206c-2 -19 -2 -39 -2 -59c0 -17 0 -33 1 -48h200l-12 -44h-183c20 -128 84 -207 177 -207c76 0 123 38 146 103h66
c-26 -101 -97 -159 -212 -159c-146 0 -226 109 -248 263h-90l12 44h74c-1 15 -2 31 -2 48c0 20 0 40 2 59h-67z" />
    <glyph glyph-name="yen.PPF" horiz-adv-x="516" 
d="M77 688l182 -320h4l182 320h71l-224 -384v-3h152v-44h-152v-88h152v-44h-152v-125h-68v125h-152v44h152v88h-152v44h152v3l-224 384h77z" />
    <glyph glyph-name="sterling.PPF" horiz-adv-x="540" 
d="M56 333v48h87c-16 46 -30 93 -30 143c0 106 69 175 176 175c103 0 165 -62 172 -175h-68c-6 80 -42 119 -107 119c-61 0 -105 -42 -105 -113c0 -50 17 -99 34 -149h161v-48h-144c10 -34 18 -70 18 -107c0 -34 -4 -69 -12 -100c50 -37 97 -78 150 -78c56 0 76 46 79 116
h59c-6 -79 -31 -175 -141 -175c-62 0 -115 45 -166 86c-25 -51 -66 -86 -125 -86c-63 0 -100 40 -100 91c0 64 46 104 109 104c28 0 55 -9 80 -22c1 14 2 28 2 40c0 45 -12 88 -26 131h-103zM95 30c43 0 67 37 79 80c-26 18 -51 30 -77 30c-32 0 -56 -24 -56 -56
c0 -31 19 -54 54 -54z" />
    <glyph glyph-name="florin.PPF" horiz-adv-x="483" 
d="M55 305v50h129l19 181c12 114 72 163 152 163c82 0 135 -41 124 -151l-4 -40h-61l3 40c5 64 -16 95 -64 95s-75 -36 -82 -107l-19 -181h155v-50h-160l-35 -334c-12 -114 -72 -163 -153 -163s-134 41 -123 151l4 40h61l-3 -40c-5 -64 16 -95 64 -95s75 36 82 107l35 334
h-124z" />
    <glyph glyph-name="zero.scppf" horiz-adv-x="506" 
d="M253 -11c-140 0 -203 120 -203 271s63 271 203 271s203 -120 203 -271s-63 -271 -203 -271zM253 45c87 0 132 85 132 215c0 131 -44 215 -132 215s-132 -84 -132 -215c0 -130 45 -215 132 -215z" />
    <glyph glyph-name="one.scppf" horiz-adv-x="303" 
d="M36 371l-28 49l155 100h49v-520h-68v439z" />
    <glyph glyph-name="two.scppf" horiz-adv-x="452" 
d="M42 0c4 119 46 172 136 226l67 40c58 34 98 58 98 117c0 51 -38 92 -111 92c-70 0 -116 -35 -120 -110h-62c5 123 91 166 182 166c103 0 176 -52 176 -145c0 -86 -55 -120 -120 -161l-67 -40c-81 -50 -98 -80 -102 -129h298v-56h-375z" />
    <glyph glyph-name="three.scppf" horiz-adv-x="454" 
d="M29 150h65c0 -75 54 -108 128 -108c76 0 130 33 130 103c0 62 -56 100 -126 100h-41v52h41c60 0 108 36 108 91c0 57 -47 90 -112 90c-58 0 -110 -30 -111 -96h-58c0 94 72 149 169 149c107 0 173 -59 173 -143c0 -57 -36 -99 -85 -114v-3c58 -16 109 -63 109 -132
c0 -97 -84 -150 -197 -150c-115 0 -193 48 -193 161z" />
    <glyph glyph-name="four.scppf" horiz-adv-x="462" 
d="M23 127v47l277 347h55v-338h83v-56h-83v-127h-68v127h-264zM95 183h192v242z" />
    <glyph glyph-name="five.scppf" horiz-adv-x="456" 
d="M47 134h68c8 -44 44 -89 121 -89c66 0 121 45 121 120c0 72 -56 116 -117 116c-48 0 -87 -25 -112 -63l-66 6l17 296h313v-59h-252l-10 -175h3c25 29 65 50 116 50c95 0 176 -61 176 -171c0 -112 -89 -176 -189 -176c-118 0 -179 61 -189 145z" />
    <glyph glyph-name="six.scppf" horiz-adv-x="482" 
d="M260 475c-74 0 -136 -51 -139 -214c22 47 82 75 141 75c106 0 181 -64 181 -171c0 -111 -88 -176 -190 -176c-117 0 -203 69 -203 259c0 208 97 283 210 283c111 0 163 -61 173 -142h-67c-8 45 -36 86 -106 86zM132 161c0 -62 44 -113 121 -113c71 0 122 45 122 117
c0 66 -49 113 -121 113c-71 0 -122 -46 -122 -117z" />
    <glyph glyph-name="seven.scppf" horiz-adv-x="406" 
d="M66 0l244 458h-282v62h359v-43l-250 -477h-71z" />
    <glyph glyph-name="eight.scppf" horiz-adv-x="470" 
d="M38 139c0 69 51 116 109 132v3c-48 15 -85 58 -85 114c0 85 68 143 173 143s173 -58 173 -143c0 -56 -37 -99 -85 -114v-3c58 -16 109 -63 109 -132c0 -97 -80 -150 -197 -150s-197 53 -197 150zM106 142c0 -63 53 -100 129 -100s129 37 129 100s-56 103 -129 103
s-129 -40 -129 -103zM124 388c0 -58 49 -91 111 -91s111 33 111 91c0 57 -51 90 -111 90s-111 -33 -111 -90z" />
    <glyph glyph-name="nine.scppf" horiz-adv-x="485" 
d="M230 45c75 0 131 51 134 213c-22 -46 -82 -74 -142 -74c-105 0 -180 64 -180 171c0 111 88 176 190 176c116 0 203 -69 203 -259c0 -208 -91 -283 -205 -283c-110 0 -169 61 -179 142h68c8 -45 41 -86 111 -86zM353 359c0 61 -45 113 -121 113c-71 0 -122 -45 -122 -117
c0 -66 49 -112 121 -112c71 0 122 45 122 116z" />
    <glyph glyph-name="slashedzero.scppf" horiz-adv-x="506" 
d="M253 -11c-140 0 -203 120 -203 271s63 271 203 271s203 -120 203 -271s-63 -271 -203 -271zM253 45c87 0 132 85 132 215c0 65 -11 119 -33 156l-167 -348c18 -15 41 -23 68 -23zM121 260c0 -64 10 -117 32 -154l167 348c-19 14 -41 21 -67 21c-88 0 -132 -84 -132 -215z
" />
    <glyph glyph-name="currency.scppf" horiz-adv-x="466" 
d="M76 68l-34 34l59 60c-19 27 -33 60 -33 98s14 73 34 99l-59 61l34 34l59 -61c27 20 60 31 98 31c36 0 69 -11 96 -31l60 61l34 -34l-59 -60c20 -27 35 -62 35 -100s-15 -71 -35 -98l60 -60l-34 -34l-59 59c-27 -20 -61 -31 -98 -31c-38 0 -72 11 -99 32zM234 146
c62 0 110 46 110 114s-48 114 -110 114c-63 0 -110 -46 -110 -114s47 -114 110 -114z" />
    <glyph glyph-name="dollar.scppf" horiz-adv-x="451" 
d="M37 144h64c5 -61 56 -102 125 -102s120 33 120 93c0 53 -34 76 -97 94l-75 21c-61 17 -124 47 -124 136c0 76 58 132 146 143v87h62v-87c78 -11 135 -63 141 -137h-64c-8 53 -52 86 -108 86c-63 0 -109 -29 -109 -83c0 -50 30 -71 92 -89l75 -22c87 -25 129 -65 129 -143
c0 -86 -64 -141 -157 -150v-91h-62v91c-90 10 -155 67 -158 153z" />
    <glyph glyph-name="cent.scppf" horiz-adv-x="445" 
d="M204 -11v79c-105 13 -166 93 -166 196c0 101 64 179 169 192v75h62v-75c82 -11 136 -65 145 -133h-68c-9 43 -49 80 -108 80c-84 0 -129 -61 -129 -139c0 -79 46 -142 126 -142c63 0 101 40 111 83h65c-10 -68 -66 -125 -145 -137v-79h-62z" />
    <glyph glyph-name="Euro.scppf" horiz-adv-x="502" 
d="M9 189l11 38h60c-1 11 -1 22 -1 33c0 13 0 27 1 40h-55l11 38h50c21 112 90 193 214 193c107 0 168 -62 183 -148h-61c-11 54 -52 92 -119 92c-80 0 -129 -52 -146 -137h171l-11 -38h-166c-1 -13 -1 -26 -1 -40c0 -12 0 -23 1 -33h161l-12 -38h-145
c16 -90 66 -144 148 -144c63 0 100 31 115 79h61c-18 -80 -77 -135 -179 -135c-127 0 -196 84 -215 200h-76z" />
    <glyph glyph-name="yen.scppf" horiz-adv-x="430" 
d="M74 520l145 -236h1l145 236h71l-183 -294h121v-38h-122v-62h122v-38h-122v-88h-68v88h-125v38h125v62h-125v38h120l-185 294h80z" />
    <glyph glyph-name="sterling.scppf" horiz-adv-x="479" 
d="M71 249v42h69c-14 32 -27 65 -27 99c0 87 60 141 153 141c90 0 138 -50 145 -135h-62c-5 54 -34 82 -83 82c-51 0 -85 -31 -85 -85c0 -36 14 -69 28 -102h132v-42h-114c8 -24 15 -49 15 -77c0 -23 -4 -47 -11 -70c39 -29 75 -59 115 -59c48 0 57 38 59 81h56
c-3 -72 -26 -135 -112 -135c-54 0 -96 37 -136 71c-22 -39 -58 -68 -105 -68c-57 0 -90 31 -90 77c0 52 41 84 94 84c24 0 46 -7 67 -18c1 8 1 17 1 25c0 31 -9 60 -21 89h-88zM108 30c39 0 58 27 66 62c-20 14 -41 23 -62 23c-34 0 -50 -22 -50 -43c0 -22 15 -42 46 -42z
" />
    <glyph glyph-name="florin.scppf" horiz-adv-x="427" 
d="M57 224v44h108l15 133c11 93 58 130 131 130c72 0 120 -36 111 -121l-3 -29h-59l4 26c7 49 -14 74 -53 74c-38 0 -57 -26 -63 -80l-16 -133h126v-44h-131l-28 -245c-10 -93 -58 -129 -131 -129c-72 0 -123 35 -111 120l4 29h58l-4 -26c-7 -49 14 -73 53 -73s58 26 64 79
l28 245h-103z" />
    <glyph glyph-name="slashedzero.oldstyle" horiz-adv-x="574" 
d="M41 244c0 151 106 255 246 255c148 0 246 -104 246 -255s-106 -255 -246 -255c-148 0 -246 104 -246 255zM462 244c0 56 -16 104 -44 137l-227 -305c27 -18 60 -28 96 -28c100 0 175 79 175 196zM112 244c0 -56 16 -103 44 -137l226 306c-27 17 -59 27 -95 27
c-100 0 -175 -79 -175 -196z" />
    <glyph glyph-name="plus.sc" horiz-adv-x="504" 
d="M60 233v59h161v165h62v-165h161v-59h-161v-166h-62v166h-161z" />
    <glyph glyph-name="minus.sc" horiz-adv-x="504" 
d="M60 233v59h384v-59h-384z" />
    <glyph glyph-name="multiply.sc" horiz-adv-x="504" 
d="M117 83l-41 41l135 138l-134 139l40 40l134 -138l134 138l40 -40l-135 -139l135 -138l-40 -41l-134 138z" />
    <glyph glyph-name="divide.sc" horiz-adv-x="504" 
d="M218 369v86h68v-86h-68zM60 233v59h384v-59h-384zM218 67v86h68v-86h-68z" />
    <glyph glyph-name="equal.sc" horiz-adv-x="504" 
d="M60 316v59h384v-59h-384zM60 150v59h384v-59h-384z" />
    <glyph glyph-name="less.sc" horiz-adv-x="504" 
d="M431 141v-62l-358 157v56l358 157v-62l-288 -123z" />
    <glyph glyph-name="greater.sc" horiz-adv-x="504" 
d="M73 387v62l358 -157v-56l-358 -157v62l287 123z" />
    <glyph glyph-name="plusminus.sc" horiz-adv-x="504" 
d="M79 248v56h142v137h59v-137h142v-56h-142v-138h-59v138h-142zM79 0v56h343v-56h-343z" />
    <glyph glyph-name="lessequal.sc" horiz-adv-x="504" 
d="M422 378l-275 -102l275 -102v-59l-344 133v56l344 133v-59zM79 0v56h342v-56h-342z" />
    <glyph glyph-name="greaterequal.sc" horiz-adv-x="504" 
d="M82 378v59l344 -133v-56l-344 -133v59l274 102zM83 56h342v-56h-342v56z" />
    <glyph glyph-name="notequal.sc" horiz-adv-x="504" 
d="M60 316v59h228l62 105l44 -25l-47 -80h97v-59h-132l-63 -107h195v-59h-230l-61 -104l-44 25l46 79h-95v59h130l63 107h-193z" />
    <glyph glyph-name="logicalnot.sc" horiz-adv-x="504" 
d="M60 233v59h384v-224h-62v165h-322z" />
    <glyph glyph-name="asciitilde.sc" horiz-adv-x="504" 
d="M64 201c0 88 50 125 103 125c77 0 115 -62 170 -62c30 0 48 21 48 63h55c0 -88 -49 -122 -103 -122c-73 0 -114 62 -170 62c-30 0 -48 -24 -48 -66h-55z" />
    <glyph glyph-name="approxequal.sc" horiz-adv-x="504" 
d="M64 113c0 87 50 125 103 125c77 0 115 -62 170 -62c30 0 48 21 48 63h55c0 -87 -49 -122 -103 -122c-73 0 -114 62 -170 62c-30 0 -48 -24 -48 -66h-55zM64 283c0 88 50 125 103 125c77 0 115 -62 170 -62c30 0 48 21 48 63h55c0 -87 -49 -122 -103 -122
c-73 0 -114 62 -170 62c-30 0 -48 -24 -48 -66h-55z" />
    <glyph glyph-name="infinity.sc" horiz-adv-x="605" 
d="M160 127c-80 0 -135 54 -135 133s55 133 135 133c60 0 110 -40 142 -92c33 51 82 92 143 92c80 0 135 -54 135 -133s-55 -133 -135 -133c-61 0 -110 40 -143 91c-32 -51 -82 -91 -142 -91zM160 177c48 0 87 44 112 83c-25 39 -64 83 -112 83s-83 -33 -83 -83
s35 -83 83 -83zM333 260c24 -39 64 -83 112 -83s82 33 82 83s-34 83 -82 83s-88 -44 -112 -83z" />
    <glyph glyph-name="numbersign.sc" horiz-adv-x="499" 
d="M43 353v50h104l21 117h59l-21 -117h153l21 117h59l-21 -117h84v-50h-93l-30 -174h92v-50h-101l-23 -129h-59l23 129h-153l-23 -129h-59l23 129h-87v50h96l30 174h-95zM197 353l-30 -174h153l30 174h-153z" />
    <glyph glyph-name="percent.sc" horiz-adv-x="578" 
d="M133 252c-75 0 -109 59 -109 137c0 80 34 138 109 138s108 -59 108 -138s-33 -137 -108 -137zM133 292c40 0 59 36 59 97s-19 98 -59 98s-60 -36 -60 -98c0 -60 20 -97 60 -97zM120 -9l294 538h45l-295 -538h-44zM444 -7c-74 0 -108 58 -108 137s34 137 108 137
c76 0 109 -58 109 -137s-33 -137 -109 -137zM444 32c41 0 60 37 60 98s-19 98 -60 98c-39 0 -59 -37 -59 -98s20 -98 59 -98z" />
    <glyph glyph-name="perthousand.sc" horiz-adv-x="849" 
d="M133 252c-75 0 -109 59 -109 137c0 80 34 138 109 138s108 -59 108 -138s-33 -137 -108 -137zM133 292c40 0 59 36 59 97s-19 98 -59 98s-60 -36 -60 -98c0 -60 20 -97 60 -97zM120 -9l294 538h45l-295 -538h-44zM444 -7c-74 0 -108 58 -108 137s34 137 108 137
c76 0 109 -58 109 -137s-33 -137 -109 -137zM444 32c41 0 60 37 60 98s-19 98 -60 98c-39 0 -59 -37 -59 -98s20 -98 59 -98zM716 -7c-74 0 -108 58 -108 137s34 137 108 137c76 0 109 -58 109 -137s-33 -137 -109 -137zM716 32c41 0 60 37 60 98s-19 98 -60 98
c-39 0 -59 -37 -59 -98s20 -98 59 -98z" />
    <glyph glyph-name="hyphen.sc" horiz-adv-x="396" 
d="M60 233v62h276v-62h-276z" />
    <glyph glyph-name="endash.sc" horiz-adv-x="556" 
d="M60 233v62h436v-62h-436z" />
    <glyph glyph-name="emdash.sc" horiz-adv-x="840" 
d="M60 233v62h720v-62h-720z" />
    <glyph glyph-name="dagger.sc" horiz-adv-x="358" 
d="M44 337v50h107v133h56v-133h107v-50h-107v-337h-56v337h-107z" />
    <glyph glyph-name="daggerdbl.sc" horiz-adv-x="358" 
d="M44 343v50h107v127h56v-127h107v-50h-107v-169h107v-50h-107v-124h-56v124h-107v50h107v169h-107z" />
    <glyph glyph-name="parenleft.sc" horiz-adv-x="279" 
d="M261 -92h-59c-51 73 -111 208 -111 352s60 279 111 352h59c-50 -73 -108 -210 -108 -352s58 -279 108 -352z" />
    <glyph glyph-name="parenright.sc" horiz-adv-x="279" 
d="M18 -92c50 73 108 210 108 352s-58 279 -108 352h59c50 -73 111 -208 111 -352s-61 -279 -111 -352h-59z" />
    <glyph glyph-name="bracketleft.sc" horiz-adv-x="282" 
d="M91 -92v704h173v-53h-114v-598h114v-53h-173z" />
    <glyph glyph-name="bracketright.sc" horiz-adv-x="282" 
d="M18 -39h114v598h-114v53h173v-704h-173v53z" />
    <glyph glyph-name="braceleft.sc" horiz-adv-x="303" 
d="M120 31v105c0 76 -23 102 -89 106v40c66 5 89 31 89 107v99c0 78 33 124 124 124h40v-50h-34c-54 0 -73 -21 -73 -74v-114c0 -61 -26 -95 -87 -110v-3c61 -16 87 -50 87 -110v-120c0 -52 19 -73 73 -73h34v-50h-40c-91 0 -124 45 -124 123z" />
    <glyph glyph-name="braceright.sc" horiz-adv-x="303" 
d="M18 -42h35c53 0 73 21 73 73v120c0 60 26 94 86 110v3c-60 15 -86 49 -86 110v114c0 53 -20 74 -73 74h-35v50h41c91 0 123 -46 123 -124v-99c0 -76 23 -102 89 -107v-40c-66 -4 -89 -30 -89 -106v-105c0 -78 -32 -123 -123 -123h-41v50z" />
    <glyph glyph-name="slash.sc" horiz-adv-x="325" 
d="M17 -12l232 544h59l-232 -544h-59z" />
    <glyph glyph-name="backslash.sc" horiz-adv-x="325" 
d="M249 -12l-232 544h59l232 -544h-59z" />
    <glyph glyph-name="quoteleft.sc" horiz-adv-x="237" 
d="M79 268v100l38 152h38l-29 -146h33v-106h-80z" />
    <glyph glyph-name="quotedblleft.sc" horiz-adv-x="409" 
d="M79 268v100l38 152h38l-29 -146h33v-106h-80zM251 268v100l39 152h37l-29 -146h33v-106h-80z" />
    <glyph glyph-name="quoteright.sc" horiz-adv-x="237" 
d="M82 268l29 146h-33v106h80v-100l-39 -152h-37z" />
    <glyph glyph-name="quotedblright.sc" horiz-adv-x="409" 
d="M82 268l29 146h-33v106h80v-100l-39 -152h-37zM254 268l29 146h-33v106h80v-100l-39 -152h-37z" />
    <glyph glyph-name="guilsinglleft.sc" horiz-adv-x="275" 
d="M165 105l-110 159l110 159h55l-95 -159l95 -159h-55z" />
    <glyph glyph-name="guilsinglright.sc" horiz-adv-x="275" 
d="M55 105l95 159l-95 159h55l110 -159l-110 -159h-55z" />
    <glyph glyph-name="guillemotleft.sc" horiz-adv-x="432" 
d="M321 105l-109 159l109 159h56l-95 -159l95 -159h-56zM164 105l-109 159l109 159h55l-95 -159l95 -159h-55z" />
    <glyph glyph-name="guillemotright.sc" horiz-adv-x="432" 
d="M212 105l95 159l-95 159h56l109 -159l-109 -159h-56zM55 105l95 159l-95 159h55l109 -159l-109 -159h-55z" />
    <glyph glyph-name="quotesingle.sc" horiz-adv-x="208" 
d="M82 268l-12 165v87h68v-87l-12 -165h-44z" />
    <glyph glyph-name="quotedbl.sc" horiz-adv-x="384" 
d="M82 268l-12 165v87h68v-87l-12 -165h-44zM258 268l-12 165v87h68v-87l-12 -165h-44z" />
    <glyph glyph-name="asterisk.sc" horiz-adv-x="450" 
d="M197 528h56l-13 -141l129 57l17 -53l-137 -32l92 -104l-45 -32l-72 120l-71 -120l-44 32l91 105l-136 31l17 53l128 -55z" />
    <glyph glyph-name="degree.sc" horiz-adv-x="356" 
d="M178 260c-78 0 -138 57 -138 135c0 79 60 136 138 136s138 -57 138 -136c0 -78 -60 -135 -138 -135zM178 481c-48 0 -82 -36 -82 -86c0 -49 34 -86 82 -86s82 37 82 86c0 50 -34 86 -82 86z" />
    <glyph glyph-name="bullet.sc" horiz-adv-x="408" 
d="M204 132c-73 0 -132 58 -132 132s59 132 132 132s132 -58 132 -132s-59 -132 -132 -132z" />
    <glyph glyph-name="periodcentered.sc" horiz-adv-x="238" 
d="M76 214v100h86v-100h-86z" />
    <glyph glyph-name="paragraph.sc" horiz-adv-x="500" 
d="M347 0v520h62v-520h-62zM210 0v198c-100 9 -162 69 -162 161c0 97 70 161 185 161h40v-520h-63z" />
    <glyph glyph-name="section.sc" horiz-adv-x="427" 
d="M50 -55h59c4 -49 49 -70 99 -70c60 0 99 29 99 78c0 46 -33 61 -79 76l-71 23c-76 25 -111 57 -111 123c0 54 34 96 88 115c-46 20 -77 50 -77 108c0 77 62 130 161 130c88 0 152 -37 158 -116h-59c-4 49 -49 70 -99 70c-60 0 -99 -29 -99 -78c0 -47 33 -61 79 -77
l71 -23c75 -25 111 -57 111 -122c0 -55 -35 -97 -89 -116c46 -21 78 -50 78 -107c0 -77 -62 -131 -161 -131c-88 0 -153 38 -158 117zM239 254l-49 16c-51 -12 -85 -45 -85 -86c0 -47 28 -64 82 -82l48 -16c51 12 86 45 86 87c0 47 -28 63 -82 81z" />
    <glyph glyph-name="copyright.sc" horiz-adv-x="611" 
d="M41 264c0 151 109 267 263 267c152 0 266 -116 266 -267s-111 -275 -266 -275c-154 0 -263 124 -263 275zM85 264c0 -127 90 -234 219 -234c127 0 222 107 222 234s-94 226 -222 226c-129 0 -219 -99 -219 -226zM178 264c0 76 46 135 130 135c63 0 105 -38 114 -90h-47
c-7 26 -29 49 -67 49c-52 0 -83 -38 -83 -94c0 -54 32 -94 82 -94c39 0 60 22 67 49h47c-9 -53 -51 -90 -114 -90c-82 0 -129 61 -129 135z" />
    <glyph glyph-name="registered.sc" horiz-adv-x="611" 
d="M41 264c0 151 109 267 263 267c152 0 266 -116 266 -267s-111 -275 -266 -275c-154 0 -263 124 -263 275zM85 264c0 -127 90 -234 219 -234c127 0 222 107 222 234s-94 226 -222 226c-129 0 -219 -99 -219 -226zM201 136v256h122c62 0 95 -32 95 -81
c0 -37 -23 -68 -60 -80l63 -95h-51l-61 90h-58v-90h-50zM317 352h-66v-86h66c34 0 51 17 51 45c0 26 -18 41 -51 41z" />
    <glyph glyph-name="trademark.sc" horiz-adv-x="609" 
d="M270 260v260h69l81 -194h1l82 194h66v-260h-48l2 194h-2l-84 -194h-38l-81 194h-3l3 -194h-48zM5 479v41h229v-41h-88v-219h-50v219h-91z" />
    <glyph glyph-name="ordfeminine.sc" horiz-adv-x="288" 
d="M113 254c-55 0 -85 30 -85 73c0 42 26 69 84 77l57 8c27 4 34 8 34 22c0 33 -21 57 -59 57c-33 0 -57 -17 -60 -53h-45c4 62 50 89 105 89c65 0 106 -32 106 -94v-173h-46v36h-1c-17 -26 -49 -42 -90 -42zM203 370v24c-5 -7 -14 -10 -28 -12l-52 -8
c-34 -5 -47 -21 -47 -43c0 -27 18 -43 49 -43c41 0 78 25 78 82z" />
    <glyph glyph-name="ordmasculine.sc" horiz-adv-x="308" 
d="M154 255c-79 0 -129 53 -129 136c0 82 53 136 129 136c78 0 130 -54 130 -136c0 -83 -54 -136 -130 -136zM154 293c48 0 80 40 80 98c0 59 -32 97 -80 97s-80 -39 -80 -97s32 -98 80 -98z" />
    <glyph glyph-name="bullet.cap" horiz-adv-x="488" 
d="M244 176c-97 0 -172 75 -172 172s75 172 172 172s172 -75 172 -172s-75 -172 -172 -172z" />
    <glyph glyph-name="plus.cap" horiz-adv-x="568" 
d="M57 312v59h196v197h62v-197h196v-59h-196v-196h-62v196h-196z" />
    <glyph glyph-name="minus.cap" horiz-adv-x="568" 
d="M57 312v59h454v-59h-454z" />
    <glyph glyph-name="multiply.cap" horiz-adv-x="568" 
d="M82 507l41 40l161 -163l162 163l41 -41l-162 -164l162 -163l-41 -40l-161 162l-162 -163l-41 41l162 164z" />
    <glyph glyph-name="divide.cap" horiz-adv-x="568" 
d="M247 468v98h74v-98h-74zM57 312v59h454v-59h-454zM247 117v98h74v-98h-74z" />
    <glyph glyph-name="equal.cap" horiz-adv-x="568" 
d="M57 417v59h454v-59h-454zM57 208v59h454v-59h-454z" />
    <glyph glyph-name="less.cap" horiz-adv-x="568" 
d="M73 313v59l422 180v-62l-353 -146l353 -146v-65z" />
    <glyph glyph-name="greater.cap" horiz-adv-x="568" 
d="M495 372v-59l-422 -180v62l355 146l-355 146v65z" />
    <glyph glyph-name="plusminus.cap" horiz-adv-x="568" 
d="M57 330v58h196v183h62v-183h196v-58h-196v-182h-62v182h-196zM57 25v58h454v-58h-454z" />
    <glyph glyph-name="lessequal.cap" horiz-adv-x="568" 
d="M73 333v59l422 180v-63l-354 -146l354 -146v-64zM73 25v58h422v-58h-422z" />
    <glyph glyph-name="greaterequal.cap" horiz-adv-x="568" 
d="M495 392v-59l-422 -180v61l354 146l-354 147v65zM73 25v58h422v-58h-422z" />
    <glyph glyph-name="notequal.cap" horiz-adv-x="568" 
d="M57 417v59h266l80 144l50 -28l-64 -116h122v-59h-155l-83 -150h238v-59h-270l-80 -144l-50 28l64 116h-118v59h150l83 150h-233z" />
    <glyph glyph-name="logicalnot.cap" horiz-adv-x="568" 
d="M57 312v59h454v-255h-62v196h-392z" />
    <glyph glyph-name="asciitilde.cap" horiz-adv-x="568" 
d="M63 274c0 97 53 143 119 143c89 0 139 -82 204 -82c37 0 60 24 60 84h59c0 -97 -53 -143 -116 -143c-89 0 -143 85 -207 85c-37 0 -60 -27 -60 -87h-59z" />
    <glyph glyph-name="approxequal.cap" horiz-adv-x="568" 
d="M63 374c0 97 53 143 119 143c89 0 139 -82 204 -82c37 0 60 24 60 84h59c0 -97 -53 -143 -116 -143c-89 0 -143 85 -207 85c-37 0 -60 -27 -60 -87h-59zM63 168c0 97 53 143 119 143c89 0 139 -82 204 -82c37 0 60 24 60 84h59c0 -97 -53 -143 -116 -143
c-89 0 -143 85 -207 85c-37 0 -60 -27 -60 -87h-59z" />
    <glyph glyph-name="infinity.cap" horiz-adv-x="708" 
d="M182 179c-94 0 -157 68 -157 161s63 161 157 161c72 0 133 -53 173 -116c42 63 100 116 171 116c94 0 157 -68 157 -161s-63 -161 -157 -161c-73 0 -133 53 -173 115c-42 -62 -100 -115 -171 -115zM180 235c61 0 109 59 141 105c-32 46 -80 105 -141 105
c-59 0 -97 -49 -97 -105s38 -105 97 -105zM387 340c32 -46 80 -105 141 -105c59 0 97 49 97 105s-38 105 -97 105c-61 0 -109 -59 -141 -105z" />
    <glyph glyph-name="uni25A0" unicode="&#x25a0;" horiz-adv-x="688" 
d="M0 0v688h688v-688h-688z" />
    <glyph glyph-name="uni25A1" unicode="&#x25a1;" horiz-adv-x="688" 
d="M0 0v688h688v-688h-688zM62 59h564v570h-564v-570z" />
    <glyph glyph-name="uni25FC" unicode="&#x25fc;" horiz-adv-x="488" 
d="M0 0v488h488v-488h-488z" />
    <glyph glyph-name="uni25FB" unicode="&#x25fb;" horiz-adv-x="488" 
d="M0 0v488h488v-488h-488zM62 56h364v377h-364v-377z" />
    <glyph glyph-name="uni25B6" unicode="&#x25b6;" horiz-adv-x="500" 
d="M44 -12v512l444 -256z" />
    <glyph glyph-name="uni25B7" unicode="&#x25b7;" horiz-adv-x="500" 
d="M44 -12v512l444 -256zM106 90l273 154l-273 154v-308z" />
    <glyph glyph-name="uni25C0" unicode="&#x25c0;" horiz-adv-x="500" 
d="M12 244l444 256v-512z" />
    <glyph glyph-name="uni25C1" unicode="&#x25c1;" horiz-adv-x="500" 
d="M12 244l444 256v-512zM122 244l272 -154v308z" />
    <glyph glyph-name="uni25CB" unicode="&#x25cb;" horiz-adv-x="552" 
d="M26 244c0 143 111 255 250 255s250 -108 250 -255c0 -143 -111 -255 -250 -255s-250 108 -250 255zM88 244c0 -115 81 -199 188 -199c110 0 188 85 188 199c0 115 -81 199 -188 199c-110 0 -188 -85 -188 -199z" />
    <glyph glyph-name="uni25CF" unicode="&#x25cf;" horiz-adv-x="552" 
d="M26 244c0 143 111 255 250 255s250 -108 250 -255c0 -143 -111 -255 -250 -255s-250 108 -250 255z" />
    <glyph glyph-name="uni2191" unicode="&#x2191;" horiz-adv-x="660" 
d="M124 279l-33 35l239 240l239 -240l-33 -35l-184 187c3 -48 3 -137 3 -162v-354h-50v354c0 25 0 114 3 162z" />
    <glyph glyph-name="uni2193" unicode="&#x2193;" horiz-adv-x="660" 
d="M536 225l33 -35l-239 -240l-239 240l33 35l184 -187c-3 48 -3 137 -3 162v354h50v-354c0 -25 0 -114 -3 -162z" />
    <glyph glyph-name="uni2196" unicode="&#x2196;" horiz-adv-x="660" 
d="M116 482h338v-47h-260c37 -31 119 -116 137 -134l228 -228l-34 -37l-229 231c-17 18 -102 100 -133 137v-260h-47v338z" />
    <glyph glyph-name="uni2197" unicode="&#x2197;" horiz-adv-x="660" 
d="M221 435v47h338v-338h-47v260c-31 -37 -116 -119 -134 -137l-228 -231l-34 37l228 228c18 18 100 103 137 134h-260z" />
    <glyph glyph-name="uni2198" unicode="&#x2198;" horiz-adv-x="660" 
d="M221 36v47h260c-37 31 -119 116 -137 133l-228 229l34 37l228 -231c18 -17 103 -100 134 -137v260h47v-338h-338z" />
    <glyph glyph-name="uni2199" unicode="&#x2199;" horiz-adv-x="660" 
d="M194 83h260v-47h-338v338h47v-260c31 37 116 120 133 137l229 231l34 -37l-228 -229c-18 -17 -100 -102 -137 -133z" />
    <glyph glyph-name="uni2605" unicode="&#x2605;" horiz-adv-x="546" 
d="M106 13l68 183l-162 108l5 16l195 -9l53 189h16l52 -189l196 9l5 -16l-163 -108l69 -183l-14 -10l-153 121l-153 -121z" />
    <glyph glyph-name="a.denominator" horiz-adv-x="382" 
d="M37 89c0 55 34 92 111 102l76 10c35 4 44 10 44 30c0 44 -26 74 -76 74c-44 0 -78 -21 -82 -70h-58c5 83 68 117 140 117c84 0 138 -41 138 -123v-229h-60v47h-2c-21 -33 -62 -55 -118 -55c-72 0 -113 39 -113 97zM268 143v34c-7 -9 -19 -14 -36 -16l-70 -9
c-45 -6 -63 -28 -63 -59c0 -35 25 -56 66 -56c56 0 103 34 103 106z" />
    <glyph glyph-name="b.denominator" horiz-adv-x="421" 
d="M55 0v516h62v-101c0 -18 0 -90 -3 -128h2c23 43 67 65 122 65c84 0 149 -65 149 -178c0 -112 -71 -181 -154 -181c-55 0 -95 20 -117 63h-2v-56h-59zM117 172c0 -79 44 -129 104 -129c59 0 102 52 102 131s-42 127 -102 127c-58 0 -102 -48 -104 -123v-6z" />
    <glyph glyph-name="c.denominator" horiz-adv-x="382" 
d="M34 172c0 103 66 181 169 181c89 0 143 -54 149 -124h-61c-6 40 -36 73 -88 73c-65 0 -105 -58 -105 -130c0 -74 38 -130 101 -130c57 0 84 34 92 73h61c-7 -70 -63 -123 -153 -123c-104 0 -165 77 -165 180z" />
    <glyph glyph-name="d.denominator" horiz-adv-x="421" 
d="M34 170c0 112 72 182 154 182c59 0 96 -22 117 -65h3c-3 37 -3 104 -3 123v106h62v-516h-59v58h-3c-22 -44 -67 -65 -121 -65c-84 0 -150 65 -150 177zM98 170c0 -79 43 -127 103 -127c58 0 104 50 104 129s-44 129 -104 129c-59 0 -103 -51 -103 -131z" />
    <glyph glyph-name="e.denominator" horiz-adv-x="390" 
d="M34 172c0 107 69 180 166 180c92 0 156 -63 156 -168v-19h-259c2 -81 42 -123 104 -123c54 0 84 27 91 62h57c-9 -64 -65 -111 -148 -111c-102 0 -167 67 -167 179zM200 303c-54 0 -91 -36 -101 -96h193c-5 62 -40 96 -92 96z" />
    <glyph glyph-name="f.denominator" horiz-adv-x="240" 
d="M80 0v294h-71v50h71v54c0 82 36 118 115 118h49v-51h-40c-45 0 -62 -20 -62 -69v-52h90v-50h-90v-294h-62z" />
    <glyph glyph-name="g.denominator" horiz-adv-x="421" 
d="M43 -42h59c0 -47 40 -71 95 -71c67 0 111 35 111 129v42h-3c-22 -44 -67 -65 -121 -65c-84 0 -150 65 -150 177s72 182 154 182c56 0 96 -22 117 -65h3v57h59v-330c0 -130 -71 -175 -170 -175c-88 0 -153 40 -154 119zM98 170c0 -79 43 -127 103 -127
c58 0 104 50 104 129s-44 129 -104 129c-59 0 -103 -51 -103 -131z" />
    <glyph glyph-name="h.denominator" horiz-adv-x="406" 
d="M55 0v516h62v-100c0 -17 0 -88 -3 -125h2c22 42 62 61 114 61c69 0 125 -38 125 -138v-214h-62v200c0 74 -33 100 -83 100c-51 0 -93 -43 -93 -121v-179h-62z" />
    <glyph glyph-name="i.denominator" horiz-adv-x="166" 
d="M50 440v76h66v-76h-66zM52 0v344h62v-344h-62z" />
    <glyph glyph-name="j.denominator" horiz-adv-x="166" 
d="M50 440v76h66v-76h-66zM52 -48v392h62v-397c0 -65 -26 -102 -100 -102h-26v51h19c32 0 45 18 45 56z" />
    <glyph glyph-name="k.denominator" horiz-adv-x="365" 
d="M55 0v516h62v-344l158 172h71l-128 -139l142 -205h-72l-112 161l-59 -64v-97h-62z" />
    <glyph glyph-name="l.denominator" horiz-adv-x="172" 
d="M55 0v516h62v-516h-62z" />
    <glyph glyph-name="m.denominator" horiz-adv-x="626" 
d="M55 0v344h59v-52h3c21 41 59 60 109 60c47 0 91 -21 110 -73c23 53 64 73 120 73c63 0 119 -35 119 -134v-218h-62v205c0 70 -29 95 -76 95c-49 0 -91 -39 -91 -120v-180h-62v204c0 69 -29 96 -77 96c-47 0 -90 -39 -90 -119v-181h-62z" />
    <glyph glyph-name="n.denominator" horiz-adv-x="406" 
d="M55 0v344h59v-52h3c21 41 61 60 113 60c69 0 125 -38 125 -138v-214h-62v200c0 74 -33 100 -83 100c-51 0 -93 -43 -93 -121v-179h-62z" />
    <glyph glyph-name="o.denominator" horiz-adv-x="409" 
d="M34 172c0 109 71 180 170 180c105 0 171 -71 171 -180s-71 -179 -171 -179c-103 0 -170 70 -170 179zM98 172c0 -77 43 -129 106 -129s107 52 107 129c0 79 -42 129 -107 129c-62 0 -106 -51 -106 -129z" />
    <glyph glyph-name="p.denominator" horiz-adv-x="421" 
d="M117 -67v-88h-62v499h59v-56h3c23 43 66 64 121 64c84 0 149 -65 149 -178c0 -112 -71 -181 -154 -181c-55 0 -95 20 -117 63h-2c3 -37 3 -104 3 -123zM323 174c0 79 -42 127 -102 127c-58 0 -102 -48 -104 -123v-6c0 -79 44 -129 104 -129c59 0 102 52 102 131z" />
    <glyph glyph-name="q.denominator" horiz-adv-x="421" 
d="M305 -66c0 19 0 86 3 124h-3c-22 -44 -67 -65 -121 -65c-84 0 -150 65 -150 177s72 182 154 182c56 0 96 -22 117 -65h3v57h59v-499h-62v89zM98 170c0 -79 43 -127 103 -127c57 0 102 47 104 123v12c-2 75 -46 123 -104 123c-59 0 -103 -51 -103 -131z" />
    <glyph glyph-name="r.denominator" horiz-adv-x="264" 
d="M55 0v344h59v-59h3c16 38 45 67 92 67c15 0 33 -3 50 -16l-15 -56c-15 10 -32 14 -45 14c-53 0 -82 -59 -82 -126v-168h-62z" />
    <glyph glyph-name="s.denominator" horiz-adv-x="366" 
d="M35 102h59c4 -47 41 -65 91 -65c49 0 84 18 84 54c0 34 -25 45 -64 52l-67 14c-53 10 -95 32 -95 93c0 66 60 102 141 102c77 0 136 -32 141 -105h-59c-3 44 -38 60 -81 60c-48 0 -81 -18 -81 -51c0 -32 24 -42 63 -50l67 -13c52 -10 97 -31 97 -95
c0 -70 -63 -105 -146 -105c-84 0 -144 31 -150 109z" />
    <glyph glyph-name="t.denominator" horiz-adv-x="247" 
d="M75 108v186h-67v50h67v104h62v-104h92v-50h-92v-182c0 -42 14 -59 52 -59h40v-53h-47c-78 0 -107 30 -107 108z" />
    <glyph glyph-name="u.denominator" horiz-adv-x="406" 
d="M51 130v214h62v-200c0 -74 33 -100 82 -100c51 0 94 43 94 121v179h62v-344h-59v52h-3c-22 -41 -62 -59 -113 -59c-69 0 -125 37 -125 137z" />
    <glyph glyph-name="v.denominator" horiz-adv-x="346" 
d="M139 0l-133 344h69l101 -283l101 283h64l-130 -344h-72z" />
    <glyph glyph-name="w.denominator" horiz-adv-x="527" 
d="M110 0l-104 344h63l80 -285l82 285h66l82 -285l81 285h61l-106 -344h-70l-82 281l-83 -281h-70z" />
    <glyph glyph-name="x.denominator" horiz-adv-x="325" 
d="M6 0l123 172l-122 172h71l86 -123l85 123h68l-122 -170l124 -174h-71l-87 125l-88 -125h-67z" />
    <glyph glyph-name="y.denominator" horiz-adv-x="346" 
d="M36 -103h19c42 0 69 21 85 65l6 19l-140 363h69l101 -282l101 282h64l-148 -396c-20 -53 -55 -103 -126 -103h-31v52z" />
    <glyph glyph-name="z.denominator" horiz-adv-x="324" 
d="M24 294v50h273v-39l-191 -255h194v-50h-274v35l193 259h-195z" />
    <glyph glyph-name="euro.denominator" 
d="M14 126l6 26h35v20c0 7 0 14 1 21h-32l6 26h29c13 77 60 132 145 132c78 0 116 -45 128 -103h-59c-9 32 -29 56 -69 56c-47 0 -74 -32 -83 -85h117l-6 -26h-114c-1 -7 -1 -14 -1 -21v-20h101l-6 -26h-92c9 -55 36 -86 83 -86c39 0 60 21 70 53h59
c-14 -58 -54 -100 -129 -100c-88 0 -133 55 -145 133h-44z" />
    <glyph glyph-name="plus.denominator" 
d="M44 150v47h107v107h50v-107h107v-47h-107v-107h-50v107h-107z" />
    <glyph glyph-name="minus.denominator" 
d="M44 150v47h264v-47h-264z" />
    <glyph glyph-name="equal.denominator" 
d="M44 207v47h264v-47h-264zM44 93v47h264v-47h-264z" />
    <glyph glyph-name="a.numerator" horiz-adv-x="382" 
d="M37 433c0 55 34 92 111 102l76 10c35 4 44 10 44 30c0 44 -26 74 -76 74c-44 0 -78 -21 -82 -70h-58c5 83 68 117 140 117c84 0 138 -41 138 -123v-229h-60v47h-2c-21 -33 -62 -55 -118 -55c-72 0 -113 39 -113 97zM268 487v34c-7 -9 -19 -14 -36 -16l-70 -9
c-45 -6 -63 -28 -63 -59c0 -35 25 -56 66 -56c56 0 103 34 103 106z" />
    <glyph glyph-name="b.numerator" horiz-adv-x="421" 
d="M55 344v516h62v-101c0 -18 0 -90 -3 -128h2c23 43 67 65 122 65c84 0 149 -65 149 -178c0 -112 -71 -181 -154 -181c-55 0 -95 20 -117 63h-2v-56h-59zM117 516c0 -79 44 -129 104 -129c59 0 102 52 102 131s-42 127 -102 127c-58 0 -102 -48 -104 -123v-6z" />
    <glyph glyph-name="c.numerator" horiz-adv-x="382" 
d="M34 516c0 103 66 181 169 181c89 0 143 -54 149 -124h-61c-6 40 -36 73 -88 73c-65 0 -105 -58 -105 -130c0 -74 38 -130 101 -130c57 0 84 34 92 73h61c-7 -70 -63 -123 -153 -123c-104 0 -165 77 -165 180z" />
    <glyph glyph-name="d.numerator" horiz-adv-x="421" 
d="M34 514c0 112 72 182 154 182c59 0 96 -22 117 -65h3c-3 37 -3 104 -3 123v106h62v-516h-59v58h-3c-22 -44 -67 -65 -121 -65c-84 0 -150 65 -150 177zM98 514c0 -79 43 -127 103 -127c58 0 104 50 104 129s-44 129 -104 129c-59 0 -103 -51 -103 -131z" />
    <glyph glyph-name="e.numerator" horiz-adv-x="390" 
d="M34 516c0 107 69 180 166 180c92 0 156 -63 156 -168v-19h-259c2 -81 42 -123 104 -123c54 0 84 27 91 62h57c-9 -64 -65 -111 -148 -111c-102 0 -167 67 -167 179zM200 647c-54 0 -91 -36 -101 -96h193c-5 62 -40 96 -92 96z" />
    <glyph glyph-name="f.numerator" horiz-adv-x="240" 
d="M80 344v294h-71v50h71v54c0 82 36 118 115 118h49v-51h-40c-45 0 -62 -20 -62 -69v-52h90v-50h-90v-294h-62z" />
    <glyph glyph-name="g.numerator" horiz-adv-x="421" 
d="M43 302h59c0 -47 40 -71 95 -71c67 0 111 35 111 129v42h-3c-22 -44 -67 -65 -121 -65c-84 0 -150 65 -150 177s72 182 154 182c56 0 96 -22 117 -65h3v57h59v-330c0 -130 -71 -175 -170 -175c-88 0 -153 40 -154 119zM98 514c0 -79 43 -127 103 -127
c58 0 104 50 104 129s-44 129 -104 129c-59 0 -103 -51 -103 -131z" />
    <glyph glyph-name="h.numerator" horiz-adv-x="406" 
d="M55 344v516h62v-100c0 -17 0 -88 -3 -125h2c22 42 62 61 114 61c69 0 125 -38 125 -138v-214h-62v200c0 74 -33 100 -83 100c-51 0 -93 -43 -93 -121v-179h-62z" />
    <glyph glyph-name="i.numerator" horiz-adv-x="166" 
d="M50 784v76h66v-76h-66zM52 344v344h62v-344h-62z" />
    <glyph glyph-name="j.numerator" horiz-adv-x="166" 
d="M50 784v76h66v-76h-66zM52 296v392h62v-397c0 -65 -26 -102 -100 -102h-26v51h19c32 0 45 18 45 56z" />
    <glyph glyph-name="k.numerator" horiz-adv-x="365" 
d="M55 344v516h62v-344l158 172h71l-128 -139l142 -205h-72l-112 161l-59 -64v-97h-62z" />
    <glyph glyph-name="l.numerator" horiz-adv-x="172" 
d="M55 344v516h62v-516h-62z" />
    <glyph glyph-name="m.numerator" horiz-adv-x="626" 
d="M55 344v344h59v-52h3c21 41 59 60 109 60c47 0 91 -21 110 -73c23 53 64 73 120 73c63 0 119 -35 119 -134v-218h-62v205c0 70 -29 95 -76 95c-49 0 -91 -39 -91 -120v-180h-62v204c0 69 -29 96 -77 96c-47 0 -90 -39 -90 -119v-181h-62z" />
    <glyph glyph-name="n.numerator" horiz-adv-x="406" 
d="M55 344v344h59v-52h3c21 41 61 60 113 60c69 0 125 -38 125 -138v-214h-62v200c0 74 -33 100 -83 100c-51 0 -93 -43 -93 -121v-179h-62z" />
    <glyph glyph-name="o.numerator" horiz-adv-x="409" 
d="M34 516c0 109 71 180 170 180c105 0 171 -71 171 -180s-71 -179 -171 -179c-103 0 -170 70 -170 179zM98 516c0 -77 43 -129 106 -129s107 52 107 129c0 79 -42 129 -107 129c-62 0 -106 -51 -106 -129z" />
    <glyph glyph-name="p.numerator" horiz-adv-x="421" 
d="M117 277v-88h-62v499h59v-56h3c23 43 66 64 121 64c84 0 149 -65 149 -178c0 -112 -71 -181 -154 -181c-55 0 -95 20 -117 63h-2c3 -37 3 -104 3 -123zM323 518c0 79 -42 127 -102 127c-58 0 -102 -48 -104 -123v-6c0 -79 44 -129 104 -129c59 0 102 52 102 131z" />
    </font>
</defs>
</svg>
