<?xml version="1.0" encoding="utf-8"?>
<!-- Generator: Adobe Illustrator 23.0.2, SVG Export Plug-In . SVG Version: 6.00 Build 0)  -->
<svg version="1.1" id="Layer_1" xmlns="http://www.w3.org/2000/svg" xmlns:xlink="http://www.w3.org/1999/xlink" x="0px" y="0px"
	 viewBox="0 0 360 360" style="enable-background:new 0 0 360 360;" xml:space="preserve">
<style type="text/css">
	.st0{fill:#F9BF15;}
</style>
<g>
	<path class="st0" d="M150.66,330.24c-2.23,0-4.04,1.81-4.04,4.04c0,2.23,1.81,4.04,4.04,4.04s4.04-1.81,4.04-4.04
		C154.7,332.04,152.89,330.24,150.66,330.24z"/>
	<path class="st0" d="M164.9,330.24c-2.23,0-4.04,1.81-4.04,4.04c0,2.23,1.81,4.04,4.04,4.04c2.23,0,4.04-1.81,4.04-4.04
		C168.94,332.04,167.13,330.24,164.9,330.24z"/>
	<path class="st0" d="M179.14,330.24c-2.23,0-4.04,1.81-4.04,4.04c0,2.23,1.81,4.04,4.04,4.04c2.23,0,4.04-1.81,4.04-4.04
		C183.17,332.04,181.36,330.24,179.14,330.24z"/>
	<path class="st0" d="M193.39,330.24c-2.23,0-4.04,1.81-4.04,4.04c0,2.23,1.81,4.04,4.04,4.04s4.04-1.81,4.04-4.04
		C197.43,332.04,195.62,330.24,193.39,330.24z"/>
	<path class="st0" d="M207.62,330.24c-2.23,0-4.04,1.81-4.04,4.04c0,2.23,1.81,4.04,4.04,4.04s4.04-1.81,4.04-4.04
		C211.66,332.04,209.85,330.24,207.62,330.24z"/>
	<path class="st0" d="M143.56,318.71c-2.23,0-4.04,1.81-4.04,4.04s1.81,4.04,4.04,4.04c2.23,0,4.04-1.81,4.04-4.04
		S145.78,318.71,143.56,318.71z"/>
	<path class="st0" d="M157.79,318.71c-2.23,0-4.04,1.81-4.04,4.04s1.81,4.04,4.04,4.04s4.04-1.81,4.04-4.04
		S160.02,318.71,157.79,318.71z"/>
	<path class="st0" d="M172.03,318.71c-2.23,0-4.04,1.81-4.04,4.04s1.81,4.04,4.04,4.04s4.04-1.81,4.04-4.04
		S174.26,318.71,172.03,318.71z"/>
	<path class="st0" d="M186.26,318.71c-2.23,0-4.04,1.81-4.04,4.04s1.81,4.04,4.04,4.04c2.23,0,4.04-1.81,4.04-4.04
		S188.49,318.71,186.26,318.71z"/>
	<circle class="st0" cx="200.5" cy="322.75" r="4.04"/>
	<path class="st0" d="M214.73,318.71c-2.23,0-4.04,1.81-4.04,4.04s1.81,4.04,4.04,4.04c2.23,0,4.04-1.81,4.04-4.04
		S216.96,318.71,214.73,318.71z"/>
	<path class="st0" d="M122.19,307.55c-2.23,0-4.04,1.81-4.04,4.04c0,2.23,1.81,4.04,4.04,4.04s4.04-1.81,4.04-4.04
		C126.23,309.35,124.42,307.55,122.19,307.55z"/>
	<path class="st0" d="M136.43,307.55c-2.23,0-4.04,1.81-4.04,4.04c0,2.23,1.81,4.04,4.04,4.04s4.04-1.81,4.04-4.04
		C140.46,309.35,138.66,307.55,136.43,307.55z"/>
	<path class="st0" d="M146.63,311.58c0,2.23,1.81,4.04,4.04,4.04s4.04-1.81,4.04-4.04c0-2.23-1.81-4.04-4.04-4.04
		S146.63,309.35,146.63,311.58z"/>
	<path class="st0" d="M160.86,311.58c0,2.23,1.81,4.04,4.04,4.04c2.23,0,4.04-1.81,4.04-4.04c0-2.23-1.81-4.04-4.04-4.04
		C162.67,307.55,160.86,309.35,160.86,311.58z"/>
	<path class="st0" d="M175.1,311.58c0,2.23,1.81,4.04,4.04,4.04c2.23,0,4.04-1.81,4.04-4.04c0-2.23-1.81-4.04-4.04-4.04
		C176.91,307.55,175.1,309.35,175.1,311.58z"/>
	<path class="st0" d="M189.35,311.58c0,2.23,1.81,4.04,4.04,4.04s4.04-1.81,4.04-4.04c0-2.23-1.81-4.04-4.04-4.04
		S189.35,309.35,189.35,311.58z"/>
	<path class="st0" d="M207.62,315.62c2.23,0,4.04-1.81,4.04-4.04c0-2.23-1.81-4.04-4.04-4.04s-4.04,1.81-4.04,4.04
		C203.59,313.81,205.4,315.62,207.62,315.62z"/>
	<path class="st0" d="M221.86,307.55c-2.23,0-4.04,1.81-4.04,4.04c0,2.23,1.81,4.04,4.04,4.04c2.23,0,4.04-1.81,4.04-4.04
		C225.9,309.35,224.09,307.55,221.86,307.55z"/>
	<path class="st0" d="M236.1,307.55c-2.23,0-4.04,1.81-4.04,4.04c0,2.23,1.81,4.04,4.04,4.04s4.04-1.81,4.04-4.04
		C240.13,309.35,238.33,307.55,236.1,307.55z"/>
	<path class="st0" d="M115.07,296c-2.23,0-4.04,1.81-4.04,4.04s1.81,4.04,4.04,4.04c2.23,0,4.04-1.81,4.04-4.04
		S117.29,296,115.07,296z"/>
	<path class="st0" d="M129.32,296c-2.23,0-4.04,1.81-4.04,4.04s1.81,4.04,4.04,4.04c2.23,0,4.04-1.81,4.04-4.04
		S131.55,296,129.32,296z"/>
	<path class="st0" d="M228.99,296c-2.23,0-4.04,1.81-4.04,4.04s1.81,4.04,4.04,4.04c2.23,0,4.04-1.81,4.04-4.04
		S231.22,296,228.99,296z"/>
	<circle class="st0" cx="243.22" cy="300.04" r="4.04"/>
	<circle class="st0" cx="107.96" cy="288.89" r="4.04"/>
	<path class="st0" d="M122.19,292.93c2.23,0,4.04-1.81,4.04-4.04s-1.81-4.04-4.04-4.04s-4.04,1.81-4.04,4.04
		S119.96,292.93,122.19,292.93z"/>
	<path class="st0" d="M236.1,284.86c-2.23,0-4.04,1.81-4.04,4.04s1.81,4.04,4.04,4.04s4.04-1.81,4.04-4.04
		S238.33,284.86,236.1,284.86z"/>
	<path class="st0" d="M250.33,284.86c-2.23,0-4.04,1.81-4.04,4.04s1.81,4.04,4.04,4.04s4.04-1.81,4.04-4.04
		S252.56,284.86,250.33,284.86z"/>
	<path class="st0" d="M100.83,273.31c-2.23,0-4.04,1.81-4.04,4.04s1.81,4.04,4.04,4.04c2.23,0,4.04-1.81,4.04-4.04
		S103.06,273.31,100.83,273.31z"/>
	<path class="st0" d="M115.07,273.31c-2.23,0-4.04,1.81-4.04,4.04s1.81,4.04,4.04,4.04c2.23,0,4.04-1.81,4.04-4.04
		S117.29,273.31,115.07,273.31z"/>
	<path class="st0" d="M143.56,273.31c-2.23,0-4.04,1.81-4.04,4.04s1.81,4.04,4.04,4.04c2.23,0,4.04-1.81,4.04-4.04
		S145.78,273.31,143.56,273.31z"/>
	<path class="st0" d="M157.79,281.38c2.23,0,4.04-1.81,4.04-4.04s-1.81-4.04-4.04-4.04s-4.04,1.81-4.04,4.04
		S155.56,281.38,157.79,281.38z"/>
	<path class="st0" d="M172.03,281.38c2.23,0,4.04-1.81,4.04-4.04s-1.81-4.04-4.04-4.04s-4.04,1.81-4.04,4.04
		S169.8,281.38,172.03,281.38z"/>
	<path class="st0" d="M186.26,281.38c2.23,0,4.04-1.81,4.04-4.04s-1.81-4.04-4.04-4.04c-2.23,0-4.04,1.81-4.04,4.04
		S184.03,281.38,186.26,281.38z"/>
	<circle class="st0" cx="200.5" cy="277.35" r="4.04"/>
	<path class="st0" d="M214.73,281.38c2.23,0,4.04-1.81,4.04-4.04s-1.81-4.04-4.04-4.04c-2.23,0-4.04,1.81-4.04,4.04
		S212.5,281.38,214.73,281.38z"/>
	<circle class="st0" cx="243.22" cy="277.35" r="4.04"/>
	<path class="st0" d="M257.46,273.31c-2.23,0-4.04,1.81-4.04,4.04s1.81,4.04,4.04,4.04c2.23,0,4.04-1.81,4.04-4.04
		S259.69,273.31,257.46,273.31z"/>
	<circle class="st0" cx="107.96" cy="266.2" r="4.04"/>
	<path class="st0" d="M150.66,262.17c-2.23,0-4.04,1.81-4.04,4.04s1.81,4.04,4.04,4.04s4.04-1.81,4.04-4.04
		S152.89,262.17,150.66,262.17z"/>
	<path class="st0" d="M160.86,266.2c0,2.23,1.81,4.04,4.04,4.04c2.23,0,4.04-1.81,4.04-4.04s-1.81-4.04-4.04-4.04
		C162.67,262.17,160.86,263.97,160.86,266.2z"/>
	<path class="st0" d="M179.14,270.24c2.23,0,4.04-1.81,4.04-4.04s-1.81-4.04-4.04-4.04c-2.23,0-4.04,1.81-4.04,4.04
		S176.91,270.24,179.14,270.24z"/>
	<path class="st0" d="M193.39,270.24c2.23,0,4.04-1.81,4.04-4.04s-1.81-4.04-4.04-4.04s-4.04,1.81-4.04,4.04
		S191.16,270.24,193.39,270.24z"/>
	<path class="st0" d="M207.62,270.24c2.23,0,4.04-1.81,4.04-4.04s-1.81-4.04-4.04-4.04s-4.04,1.81-4.04,4.04
		S205.4,270.24,207.62,270.24z"/>
	<path class="st0" d="M246.3,266.2c0,2.23,1.81,4.04,4.04,4.04s4.04-1.81,4.04-4.04s-1.81-4.04-4.04-4.04S246.3,263.97,246.3,266.2z
		"/>
	<path class="st0" d="M100.83,258.69c2.23,0,4.04-1.81,4.04-4.04c0-2.23-1.81-4.04-4.04-4.04c-2.23,0-4.04,1.81-4.04,4.04
		C96.79,256.89,98.6,258.69,100.83,258.69z"/>
	<path class="st0" d="M257.46,250.62c-2.23,0-4.04,1.81-4.04,4.04c0,2.23,1.81,4.04,4.04,4.04c2.23,0,4.04-1.81,4.04-4.04
		C261.49,252.43,259.69,250.62,257.46,250.62z"/>
	<path class="st0" d="M264.57,239.46c-2.23,0-4.04,1.81-4.04,4.04s1.81,4.04,4.04,4.04c2.23,0,4.04-1.81,4.04-4.04
		S266.8,239.46,264.57,239.46z"/>
	<path class="st0" d="M91.9,239.46c-2.23,0-4.04,1.81-4.04,4.04s1.81,4.04,4.04,4.04s4.04-1.81,4.04-4.04S94.13,239.46,91.9,239.46z
		"/>
	<path class="st0" d="M341.02,167.43c9.09-11.93,10.78-25.89,5.07-40.74c-2.12-5.39-4.95-10.48-8.4-15.13
		c7.05-7.47,7.49-18.8,6.31-25.45c-0.51-3.43-3.7-5.79-7.13-5.28c-0.01,0-0.02,0-0.03,0.01c-1.25,0.11-9.96,0.42-16.14-10.91
		c-5.04-9.75-14.21-16.71-24.96-18.93c-4.09-12.51-11.29-21.27-21.44-26.05c-13.6-6.4-28.87-3.64-37.27-1.35
		c-2.36-4.91-6.27-8.89-11.13-11.34c-8.76-4.35-18.51-2.67-23.76-1.2c-9.84-8.44-28.65-16.54-48.29-2.2
		c-6.55-1.78-13.34-2.55-20.13-2.29c-16.36,0.8-28.98,8.47-36.51,22.27c-8.76,1.64-31.51,7.44-44.42,24.82
		c-7.56,10.2-10.44,22.51-8.58,36.62c-4.76,5.18-16.98,9.65-26.16,7.78c-3.5-0.72-6.92,1.54-7.64,5.04
		c-0.03,0.14-0.05,0.27-0.07,0.41c-1.09,8.27,0.55,24.27,12.29,34.54c-4.46,4.09-7.62,9.4-9.09,15.27
		c-2.36,10.2,0.96,21.2,9.89,32.73c1.12,1.05,1.69,2.56,1.55,4.09c-0.25,0.84-2.25,5.22-16.49,9.87c-2.81,0.91-4.64,3.6-4.45,6.55
		c0,1.18,2.13,28.47,34.2,38.69c0.82,1.03,1.23,2.32,1.15,3.64c-0.24,1.01-0.57,2.01-0.98,2.96c-1.53,3.34-2.24,6.99-2.07,10.65
		c1.33,14.4,13.56,15.76,20.13,16.49c6.27,0.69,7.02,1.22,7.27,2.36c2.2,9.09,4.13,15.78,9.09,20c3.76,3.03,8.5,4.57,13.33,4.31
		c3.19-0.06,6.36-0.38,9.49-0.98c10.17,16.8,24.11,31,40.73,41.47l1.07,0.65c9.09,5.64,21.58,13.36,41.82,12.05h0.38
		c1.55,0.11,3.04,0.15,4.49,0.15c17.6,0,28.89-6.98,37.31-12.2l1.07-0.65c19.2-11.84,33.27-28.42,43.63-46.42
		c3.63,0.92,7.36,1.39,11.11,1.42c5.71,0.15,11.34-1.39,16.18-4.44c7.75-5.16,11.89-14.16,12.27-26.76
		c0.35-10.91,5.82-12.4,19.14-13.24c7.45-0.47,15.16-0.95,18.71-7.27c3.55-6.33,0.16-13.98-3.09-20
		c-6.58-12.16-3.35-14.18,3.64-18.6c4.82-3.02,10.82-6.76,11.76-14.4C356.8,188.81,352.4,180.04,341.02,167.43z M271.79,250.68
		c-2.22-0.04-4.05,1.73-4.09,3.95c-0.03,1.57,0.86,3.01,2.27,3.69c-0.63,2.01-1.3,4.02-2.02,6.04c-1.04-1.97-3.48-2.72-5.45-1.68
		c-1.97,1.04-2.72,3.48-1.68,5.45c0.96,1.82,3.15,2.63,5.06,1.86c-7,18.62-17.53,37.22-32.94,51.94l0,0.04
		c-0.44-2.19-2.56-3.6-4.75-3.17c-2.19,0.44-3.6,2.56-3.17,4.75c0.29,1.44,1.33,2.61,2.73,3.06c-3.77,3.17-7.77,6.06-11.96,8.65
		l-1.09,0.67c-3.73,2.42-7.64,4.56-11.69,6.4c-1.71-1.4-4.23-1.14-5.63,0.57c-0.4,0.49-0.68,1.06-0.81,1.68
		c-2.07,0.55-4.18,0.96-6.31,1.22c0-0.11,0-0.22,0-0.33c0.05-2.23-1.72-4.07-3.95-4.12c-2.23-0.05-4.07,1.72-4.12,3.95
		c-0.01,0.28,0.02,0.57,0.07,0.84h-1.95h-1.69c-0.91,0-1.82,0.09-2.65,0.11c0.02-0.23,0.02-0.46,0-0.69c0-2.23-1.81-4.04-4.04-4.04
		c-2.23,0-4.04,1.81-4.04,4.04c0,0,0,0.16,0,0.25c-2.15-0.3-4.28-0.76-6.36-1.36c-0.6-2.14-2.82-3.38-4.95-2.78
		c-0.42,0.12-0.81,0.3-1.17,0.55c-3.88-1.8-7.63-3.87-11.22-6.2l-1.09-0.67c-4.28-2.64-8.35-5.59-12.2-8.82
		c2.04-0.9,2.97-3.28,2.07-5.32c-0.9-2.04-3.28-2.97-5.32-2.07c-1.05,0.46-1.85,1.34-2.21,2.43c-15.13-14.54-25.45-32.89-32.6-51.29
		c2.18,0.45,4.32-0.95,4.77-3.13s-0.95-4.32-3.13-4.77c-1.5-0.31-3.05,0.26-4,1.47c-0.65-1.88-1.26-3.75-1.82-5.62
		c1.9-1.17,2.49-3.66,1.32-5.55c-0.73-1.19-2.03-1.92-3.43-1.92h-0.09c-4.81-17.73-7.73-35.91-8.73-54.25
		c7.42-4.78,13.93-12.91,16.36-26.13c0.09-0.46,0.12-0.92,0.11-1.38h0.82c9.44-1.2,16.13-7.51,19.51-11.51
		c7.96,2.35,16.52,1.71,24.04-1.82c3.22-1.55,4.57-5.42,3.02-8.64c-0.24-0.5-0.54-0.96-0.9-1.38c-3.84-4.51-5.45-9.09-4.65-13.18
		c0.77-3.6,3.14-6.66,6.44-8.31c7.82-4.13,17.38,0.76,17.44,0.78c2.4,1.28,5.34,0.93,7.36-0.89c7.4-6.62,14.54-9.36,20-7.73
		c4.51,1.35,8.15,5.69,9.73,11.62c2.4,9.09,8.24,15.91,15.6,18.4c5.58,1.82,14.76,2.2,26.82-7.11l0.29-0.24
		c1.11-0.95,4.93-3.53,7.91-2.93c1.82,0.36,3.64,2.09,5.11,5.13c4.13,8.07-6,16.09-6.42,16.36c-2.83,2.19-3.34,6.25-1.15,9.08
		c0,0,0.01,0.01,0.01,0.01c0.33,0.4,7.95,9.87,20.14,10.4h1.11c1.77,0,3.53-0.19,5.25-0.56c2.17,4.61,5.5,8.57,9.67,11.49
		c0,2,0,4.87-0.2,7.53c-0.98,18.66-3.96,37.16-8.89,55.18H271.79z M343.13,194.79l-0.02,0.04c-0.18,1.44-2.42,2.93-5.8,5.05
		c-7.27,4.49-20.56,12.87-8.22,35.71c1.4,2.27,2.4,4.76,2.98,7.36c-2.64,0.56-5.32,0.87-8.02,0.95
		c-10.65,0.67-30.49,1.93-31.25,25.73c-0.25,8.16-2.44,13.69-6.49,16.36s-9.54,2.6-13.96,1.82c17.34-36.6,21.05-75.89,21.82-91.78
		c0-0.91,0-1.82,0.11-2.76c2.53,0.52,5.11,0.79,7.69,0.8c1.21,0.01,2.43-0.06,3.64-0.2c3.57-0.25,6.26-3.34,6.01-6.91
		c-0.25-3.57-3.34-6.26-6.91-6.01c-0.22,0.02-0.43,0.04-0.65,0.08c-0.64,0-14.8,1.62-20.53-10.09c2.4-1.77,4.64-3.75,6.67-5.93
		c2.31-2.73,1.97-6.81-0.76-9.12c-2.52-2.13-6.24-2.02-8.64,0.25c-5.11,5.45-10.04,8.05-14.71,7.89c-2.18-0.09-4.31-0.72-6.2-1.82
		c5.45-6.56,9.8-16.6,4.45-27.05c-4.33-8.47-10.13-11.18-14.24-11.94c-9.18-1.82-17.05,4.42-18.62,5.75
		c-4.15,3.18-10.02,6.58-14.65,5c-3.84-1.31-6.27-5.75-7.27-9.49c-2.75-10.31-9.67-18.05-18.53-20.69c-6.53-1.95-16.69-2-29.09,7.82
		c-5.45-1.95-15.71-4.15-25.45,0.96c-6.78,3.46-11.6,9.83-13.11,17.29c-0.96,5.39-0.19,10.95,2.22,15.87
		c-5.24,0.4-12.05-1.05-16.69-9.45c-1.63-3.18-5.53-4.44-8.71-2.81c-3.18,1.63-4.44,5.53-2.81,8.71c0.06,0.12,0.12,0.23,0.19,0.35
		c1.56,2.88,3.52,5.53,5.82,7.87c-2.62,2.94-6.16,4.92-10.04,5.6c-4.89,0.6-10.24-1.82-15.87-7.27c-2.72-2.32-6.8-2-9.12,0.72
		c-2.13,2.5-2.05,6.2,0.18,8.6c3.78,3.78,8.24,6.81,13.14,8.93c-0.11,0.3-0.19,0.61-0.25,0.93c-4.27,22.78-24.02,21.82-26.27,21.54
		c-3.57-0.19-6.62,2.54-6.82,6.11c-0.18,3.36,2.23,6.29,5.56,6.76c0.96,0.09,2,0.15,3.11,0.15c2.72-0.01,5.43-0.31,8.09-0.89
		c1.42,20,6.42,57.25,23.74,91.1c-3.85,0.35-6.35,0-7.53-1c-2.02-1.82-3.44-7.07-4.95-13.33c-2.53-10.42-12.49-11.53-18.44-12.18
		c-8.02-0.89-8.38-1.65-8.67-4.82c0.11-1.68,0.55-3.33,1.27-4.85c0.86-1.95,1.48-4,1.82-6.11c0.54-5.96-1.79-11.82-6.29-15.76
		c-0.7-0.59-1.51-1.02-2.38-1.27c-17.65-5.11-23.64-16.56-25.64-23c11-4.36,17.38-9.76,19.42-16.36c1.11-3.64,1.36-9.31-3.64-15.82
		c-6.38-8.2-8.91-15.51-7.53-21.73c1.82-8.25,10.29-12.6,10.34-12.64c0.98-0.48,1.83-1.2,2.45-2.09l0.18-0.25
		c2.05-2.93,1.34-6.96-1.59-9.01c-0.32-0.23-0.67-0.42-1.03-0.59c-10.11-4.6-12.73-14.07-13.38-20.38
		c12.38-0.15,25.74-5.84,32.05-14.16c1.78-1.49,2.63-3.82,2.22-6.11c-2.11-11.76-0.18-21.82,5.71-29.73
		c12.49-16.89,38.85-20.25,39.11-20.29c2.22-0.25,4.15-1.63,5.11-3.64c12.45-26.98,44.23-15.8,45.56-15.31
		c2.18,0.8,4.62,0.37,6.4-1.13c18.96-15.96,34.78,0.11,36.51,1.96c2.19,2.4,5.82,2.81,8.49,0.95c3.45-1.13,10.67-2.6,15.84,0
		c3.25,1.64,5.45,4.75,6.75,9.53c0.93,3.45,4.48,5.5,7.93,4.57c0.29-0.08,0.57-0.18,0.85-0.29c0.18,0,18.89-7.69,33.05-1.02
		c5.73,2.86,10.24,7.68,12.73,13.58c-3.13,0.27-6.22,0.88-9.22,1.82c-3.33,1.31-4.96,5.07-3.65,8.39c1.21,3.07,4.52,4.74,7.71,3.88
		c0.93-0.29,22.69-7.09,32.94,11.73c6.64,12.2,15.87,16.09,22.18,17.25c-0.18,3.91-1.36,9.09-5.87,11.2
		c-3.22,1.55-4.58,5.42-3.03,8.64c0.31,0.64,0.72,1.22,1.21,1.73c4.35,4.81,7.82,10.35,10.24,16.36c4.67,12.16,2.6,22.58-6.36,31.85
		c-2.48,2.58-2.4,6.67,0.18,9.15c0.16,0.15,0.32,0.29,0.49,0.43C342.31,187.5,343.35,193.08,343.13,194.79z"/>
	<path class="st0" d="M200.5,220.79c1.59,0,3.13-0.59,4.31-1.65c2.04-1.64,4.34-2.93,6.8-3.84c-1.53,5.13,1.39,10.53,6.51,12.06
		c5.13,1.53,10.53-1.39,12.06-6.51c0.55-1.86,0.54-3.84-0.04-5.69c2.64,0.91,5.16,2.13,7.51,3.64c2.97,1.99,6.99,1.2,8.98-1.77
		c1.99-2.97,1.2-6.99-1.77-8.98c-0.08-0.05-0.16-0.11-0.25-0.16c-21.53-13.78-41.09-5.02-48.43,1.55c-2.7,2.34-2.99,6.43-0.65,9.13
		C196.77,220,198.59,220.81,200.5,220.79z"/>
	<path class="st0" d="M119.85,218.84c2.35-1.5,4.87-2.72,7.51-3.64c-1.61,5.1,1.22,10.55,6.32,12.16c5.1,1.61,10.55-1.22,12.16-6.32
		c0.58-1.85,0.6-3.83,0.04-5.69c2.47,0.91,4.78,2.22,6.84,3.87c2.82,2.19,6.89,1.68,9.08-1.14c1.99-2.56,1.78-6.2-0.5-8.52
		c-7.27-6.56-26.89-15.33-48.43-1.55c-2.79,2.24-3.23,6.31-0.99,9.1C113.79,219.51,117.12,220.23,119.85,218.84z"/>
	<path class="st0" d="M209.55,286.35c-1.96-2.98-5.97-3.8-8.94-1.83c-0.01,0-0.01,0.01-0.02,0.01c0,0-7.4,4.65-22.27,4.65
		c-14.54,0-22.07-4.55-22.33-4.69c-3.08-1.82-7.05-0.79-8.86,2.29c-1.69,2.87-0.93,6.55,1.75,8.51c1.05,0.69,10.78,6.84,29.43,6.84
		s28.4-6.13,29.43-6.84C210.71,293.31,211.51,289.32,209.55,286.35z"/>
</g>
</svg>
