<?xml version="1.0" standalone="no"?>
<!DOCTYPE svg PUBLIC "-//W3C//DTD SVG 1.1//EN" "http://www.w3.org/Graphics/SVG/1.1/DTD/svg11.dtd" >
<svg xmlns="http://www.w3.org/2000/svg" xmlns:xlink="http://www.w3.org/1999/xlink" version="1.1">
<metadata>
Created by FontForge 20190801 at Wed Mar 30 16:48:40 2011
 By Jimmy Wärting
(c) Copyright (c) 2010. All rights reserved. Fakt is a design by Thomas Thiemich, published by OurType. www.ourtype.com
</metadata>
<defs>
<font id="FaktPro-SemiBold" horiz-adv-x="367" >
  <font-face 
    font-family="Fakt Pro SemiBold"
    font-weight="600"
    font-stretch="normal"
    units-per-em="1000"
    panose-1="2 0 0 0 0 0 0 0 0 0"
    ascent="748"
    descent="-252"
    x-height="488"
    cap-height="688"
    bbox="-176 -313 1227 1012"
    underline-thickness="50"
    underline-position="-100"
    stemh="100"
    stemv="129"
    unicode-range="U+0020-FB04"
  />
<missing-glyph horiz-adv-x="712" 
d="M0 0v720h712v-720h-712zM232 184l126 129l126 -129l52 52l-127 130l127 130l-52 52l-126 -129l-126 129l-52 -52l126 -130l-126 -130z" />
    <glyph glyph-name="fi" unicode="fi" horiz-adv-x="606" 
d="M407 0v392h-184v-392h-129v392h-92v96h92v58c0 126 52 186 188 186h52v-100h-31c-60 0 -80 -25 -80 -83v-61h313v-488h-129zM403 612v120h137v-120h-137z" />
    <glyph glyph-name="fl" unicode="fl" horiz-adv-x="606" 
d="M94 0v392h-92v96h92v58c0 126 52 186 188 186h254v-732h-129v632h-104c-60 0 -80 -25 -80 -83v-61h97v-96h-97v-392h-129z" />
    <glyph glyph-name="f_b" unicode="fb" horiz-adv-x="952" 
d="M407 0v632h-104c-60 0 -80 -25 -80 -83v-61h97v-96h-97v-392h-129v392h-92v96h92v58c0 126 52 186 188 186h254v-150c0 -33 0 -99 -6 -164h4c28 54 85 82 160 82c122 0 220 -88 220 -252s-102 -260 -228 -260c-72 0 -124 28 -152 82h-4v-70h-123zM536 244
c0 -98 51 -158 123 -158c73 0 122 64 122 162s-49 154 -122 154c-70 0 -121 -57 -123 -151v-7z" />
    <glyph glyph-name="f_f_b" unicode="ffb" horiz-adv-x="1265" 
d="M407 0v392h-184v-392h-129v392h-92v96h92v58c0 126 52 186 188 186h52v-100h-31c-60 0 -80 -25 -80 -83v-61h184v58c0 126 52 186 188 186h253v-150c0 -33 0 -100 -5 -164h4c28 54 85 82 160 82c122 0 220 -88 220 -252s-102 -260 -228 -260c-72 0 -124 28 -152 82h-4
v-70h-123v632h-104c-60 0 -80 -25 -80 -83v-61h109v-96h-109v-392h-129zM848 244c0 -98 52 -158 124 -158c73 0 122 64 122 162s-49 154 -122 154c-72 0 -124 -60 -124 -158z" />
    <glyph glyph-name="f_f_h" unicode="ffh" horiz-adv-x="1248" 
d="M407 0v392h-184v-392h-129v392h-92v96h92v58c0 126 52 186 188 186h52v-100h-31c-60 0 -80 -25 -80 -83v-61h184v58c0 126 52 186 188 186h253v-150c0 -33 0 -97 -5 -164h4c28 54 81 82 150 82c99 0 187 -52 187 -204v-296h-128v280c0 90 -39 120 -96 120
c-65 0 -112 -55 -112 -144v-256h-128v632h-104c-60 0 -80 -25 -80 -83v-61h109v-96h-109v-392h-129z" />
    <glyph glyph-name="f_f_j" unicode="ffj" horiz-adv-x="919" 
d="M407 0v392h-184v-392h-129v392h-92v96h92v58c0 126 52 186 188 186h57v-100h-36c-60 0 -80 -25 -80 -83v-61h184v58c0 126 52 186 188 186h52v-100h-31c-60 0 -80 -25 -80 -83v-61h312v-543c0 -103 -39 -165 -171 -165h-41v100h26c44 0 58 24 58 74v438h-184v-392h-129z
M716 612v120h136v-120h-136z" />
    <glyph glyph-name="f_f_k" unicode="ffk" horiz-adv-x="1199" 
d="M407 0v392h-184v-392h-129v392h-92v96h92v58c0 126 52 186 188 186h52v-100h-31c-60 0 -80 -25 -80 -83v-61h184v58c0 126 52 186 188 186h253v-447l183 203h146l-182 -195l200 -293h-148l-137 203l-62 -67v-136h-128v632h-104c-60 0 -80 -25 -80 -83v-61h109v-96h-109
v-392h-129z" />
    <glyph glyph-name="f_f_t" unicode="fft" horiz-adv-x="989" 
d="M407 0v392h-184v-392h-129v392h-92v96h92v58c0 126 52 186 188 186h52v-100h-31c-60 0 -80 -25 -80 -83v-61h184v58c0 126 52 186 188 186h52v-100h-31c-60 0 -80 -25 -80 -83v-61h180v148h128v-148h121v-96h-121v-216c0 -52 19 -72 66 -72h55v-104h-78
c-127 0 -171 46 -171 168v224h-180v-392h-129z" />
    <glyph glyph-name="f_h" unicode="fh" horiz-adv-x="936" 
d="M407 0v632h-104c-60 0 -80 -25 -80 -83v-61h97v-96h-97v-392h-129v392h-92v96h92v58c0 126 52 186 188 186h254v-150c0 -33 0 -97 -6 -164h4c28 54 82 82 150 82c100 0 187 -52 187 -204v-296h-128v280c0 90 -39 120 -96 120c-64 0 -111 -53 -111 -143v-257h-129z" />
    <glyph glyph-name="f_j" unicode="fj" horiz-adv-x="606" 
d="M323 -120h26c44 0 58 24 58 74v438h-184v-392h-129v392h-92v96h92v58c0 126 52 186 188 186h52v-100h-31c-60 0 -80 -25 -80 -83v-61h313v-543c0 -103 -40 -165 -171 -165h-42v100zM403 612v120h137v-120h-137z" />
    <glyph glyph-name="f_k" unicode="fk" horiz-adv-x="887" 
d="M407 0v632h-104c-60 0 -80 -25 -80 -83v-61h97v-96h-97v-392h-129v392h-92v96h92v58c0 126 52 186 188 186h254v-446l182 202h146l-182 -195l201 -293h-149l-137 203l-61 -66v-137h-129z" />
    <glyph glyph-name="f_t" unicode="ft" horiz-adv-x="676" 
d="M403 168v224h-180v-392h-129v392h-92v96h92v58c0 126 52 186 188 186h52v-100h-31c-60 0 -80 -25 -80 -83v-61h180v148h128v-148h121v-96h-121v-216c0 -52 19 -72 66 -72h55v-104h-78c-127 0 -171 46 -171 168z" />
    <glyph glyph-name="ff" unicode="ff" horiz-adv-x="654" 
d="M94 0v392h-92v96h92v58c0 126 52 186 188 186h52v-100h-31c-60 0 -80 -25 -80 -83v-61h184v58c0 126 52 186 188 186h69v-100h-48c-60 0 -80 -25 -80 -83v-61h112v-96h-112v-392h-129v392h-184v-392h-129z" />
    <glyph glyph-name="ffi" unicode="ffi" horiz-adv-x="919" 
d="M407 0v392h-184v-392h-129v392h-92v96h92v58c0 126 52 186 188 186h57v-100h-36c-60 0 -80 -25 -80 -83v-61h184v58c0 126 52 186 188 186h52v-100h-31c-60 0 -80 -25 -80 -83v-61h312v-488h-128v392h-184v-392h-129zM716 612v120h136v-120h-136z" />
    <glyph glyph-name="ffl" unicode="ffl" horiz-adv-x="919" 
d="M407 0v392h-184v-392h-129v392h-92v96h92v58c0 126 52 186 188 186h52v-100h-31c-60 0 -80 -25 -80 -83v-61h184v58c0 126 52 186 188 186h253v-732h-128v632h-104c-60 0 -80 -25 -80 -83v-61h109v-96h-109v-392h-129z" />
    <glyph glyph-name=".notdef" horiz-adv-x="712" 
d="M0 0v720h712v-720h-712zM232 184l126 129l126 -129l52 52l-127 130l127 130l-52 52l-126 -129l-126 129l-52 -52l126 -130l-126 -130z" />
    <glyph glyph-name="space" unicode=" " horiz-adv-x="220" 
 />
    <glyph glyph-name="exclam" unicode="!" horiz-adv-x="287" 
d="M107 205l-34 295v188h141v-188l-33 -295h-74zM77 0v132h133v-132h-133z" />
    <glyph glyph-name="quotedbl" unicode="&#x22;" horiz-adv-x="431" 
d="M76 407l-18 182v99h118v-99l-18 -182h-82zM273 407l-18 182v99h117v-99l-18 -182h-81z" />
    <glyph glyph-name="numbersign" unicode="#" horiz-adv-x="631" 
d="M62 443v88h121l27 157h104l-27 -157h124l27 157h104l-27 -157h99v-88h-115l-34 -198h104l-2 -88h-118l-27 -157h-104l27 157h-124l-27 -157h-104l27 157h-101v88h117l34 198h-105zM271 443l-34 -198h124l34 198h-124z" />
    <glyph glyph-name="dollar" unicode="$" horiz-adv-x="568" 
d="M33 196h127c4 -73 53 -112 120 -112c69 0 116 36 116 102c0 58 -43 77 -105 96l-83 24c-70 21 -161 70 -161 193c0 104 71 179 182 197v108h102v-109c102 -17 174 -84 180 -183h-127c-8 62 -51 90 -104 90c-56 0 -102 -28 -102 -88c0 -57 33 -76 97 -95l83 -25
c107 -31 169 -88 169 -193c0 -115 -76 -193 -196 -209v-112h-102v112c-120 15 -192 89 -196 204z" />
    <glyph glyph-name="percent" unicode="%" horiz-adv-x="811" 
d="M183 336c-109 0 -161 78 -161 180s52 180 161 180c110 0 161 -78 161 -180s-51 -180 -161 -180zM628 -8c-109 0 -161 78 -161 180s52 180 161 180s160 -78 160 -180s-51 -180 -160 -180zM191 -12l348 712h81l-348 -712h-81zM628 69c42 0 62 38 62 103s-20 103 -62 103
s-63 -38 -63 -103s21 -103 63 -103zM183 413c42 0 63 38 63 103s-20 103 -63 103c-42 0 -62 -38 -62 -103s21 -103 62 -103z" />
    <glyph glyph-name="ampersand" unicode="&#x26;" horiz-adv-x="729" 
d="M39 180c0 101 72 155 152 195c-59 64 -76 100 -76 154c0 89 70 171 206 171c132 0 207 -64 207 -160c0 -97 -80 -144 -165 -183l152 -151c15 34 23 76 23 124v14h114v-20c0 -60 -16 -134 -57 -197l128 -127h-153l-49 48c-51 -36 -118 -60 -206 -60
c-180 0 -276 76 -276 192zM315 84c52 0 96 12 132 37l-190 186c-52 -29 -90 -62 -90 -115c0 -70 67 -108 148 -108zM233 533c0 -36 18 -63 63 -109c62 29 111 59 111 111c0 44 -32 77 -86 77c-58 0 -88 -37 -88 -79z" />
    <glyph glyph-name="quoteright" unicode="&#x2019;" horiz-adv-x="263" 
d="M91 407l32 153h-57v128h130v-120l-45 -161h-60z" />
    <glyph glyph-name="parenleft" unicode="(" horiz-adv-x="310" 
d="M15 260c0 213 94 391 164 484h117c-57 -74 -160 -271 -160 -484s107 -414 160 -488h-117c-70 93 -164 275 -164 488z" />
    <glyph glyph-name="parenright" unicode=")" horiz-adv-x="310" 
d="M14 -228c53 74 160 275 160 488s-103 410 -160 484h117c70 -93 164 -271 164 -484s-94 -395 -164 -488h-117z" />
    <glyph glyph-name="asterisk" unicode="*" horiz-adv-x="471" 
d="M187 696h95l-15 -123l111 53l30 -91l-120 -24l83 -88l-77 -56l-59 107l-59 -107l-77 55l82 90l-119 23l29 91l111 -51z" />
    <glyph glyph-name="plus" unicode="+" horiz-adv-x="568" 
d="M58 205v100h173v175h106v-175h173v-100h-173v-175h-106v175h-173z" />
    <glyph glyph-name="comma" unicode="," horiz-adv-x="282" 
d="M131 0h-62v140h145v-131l-55 -178h-63z" />
    <glyph glyph-name="hyphen" unicode="-" horiz-adv-x="396" 
d="M53 197v110h290v-110h-290z" />
    <glyph glyph-name="period" unicode="." horiz-adv-x="282" 
d="M69 0v140h145v-140h-145z" />
    <glyph glyph-name="slash" unicode="/" horiz-adv-x="426" 
d="M4 -12l308 712h109l-308 -712h-109z" />
    <glyph glyph-name="zero" unicode="0" horiz-adv-x="568" 
d="M284 -12c-180 0 -251 156 -251 356s71 356 251 356s251 -156 251 -356s-71 -356 -251 -356zM284 94c80 0 119 84 119 250s-38 250 -119 250c-82 0 -119 -84 -119 -250s38 -250 119 -250z" />
    <glyph glyph-name="one" unicode="1" horiz-adv-x="568" 
d="M106 439l-53 91l231 158h84v-584h155v-104h-448v104h165v426z" />
    <glyph glyph-name="two" unicode="2" horiz-adv-x="568" 
d="M45 0c5 160 49 242 161 313l79 50c64 40 102 69 102 134c0 52 -30 99 -103 99c-67 0 -104 -40 -108 -118h-125c7 166 118 222 235 222c136 0 231 -75 231 -200c0 -112 -58 -164 -146 -219l-80 -50c-81 -53 -95 -86 -99 -127h327v-104h-474z" />
    <glyph glyph-name="three" unicode="3" horiz-adv-x="568" 
d="M37 208h126c0 -84 51 -122 117 -122c69 0 117 38 117 109c0 67 -51 109 -117 109h-54v102h54c55 0 102 39 102 101c0 60 -46 95 -102 95s-102 -34 -102 -106h-117c0 131 95 204 219 204c131 0 225 -73 225 -187c0 -67 -45 -131 -100 -153v-4c72 -22 122 -86 122 -170
c0 -127 -106 -198 -247 -198c-145 0 -243 66 -243 220z" />
    <glyph glyph-name="four" unicode="4" horiz-adv-x="568" 
d="M25 150v82l322 456h109v-434h87v-104h-87v-150h-128v150h-303zM150 254h178v250z" />
    <glyph glyph-name="five" unicode="5" horiz-adv-x="568" 
d="M41 184h126c8 -49 42 -96 114 -96c62 0 114 44 114 126c0 79 -48 126 -114 126c-50 0 -79 -28 -103 -62l-117 13l22 397h403v-106h-290l-11 -179h5c24 22 64 37 115 37c126 0 219 -80 219 -220c0 -158 -113 -232 -242 -232c-149 0 -230 78 -241 196z" />
    <glyph glyph-name="six" unicode="6" horiz-adv-x="568" 
d="M39 328c0 277 129 372 267 372s204 -76 216 -184h-125c-7 45 -30 84 -93 84s-124 -56 -132 -230c26 44 88 70 151 70c114 0 215 -75 215 -222c0 -149 -115 -230 -240 -230c-143 0 -259 87 -259 340zM299 340c-67 0 -116 -49 -116 -125c0 -75 47 -127 112 -127
s114 46 114 128c0 75 -48 124 -110 124z" />
    <glyph glyph-name="seven" unicode="7" horiz-adv-x="568" 
d="M122 0l271 577h-348v111h486v-79l-277 -609h-132z" />
    <glyph glyph-name="eight" unicode="8" horiz-adv-x="568" 
d="M35 186c0 84 50 148 122 170v4c-58 20 -100 84 -100 151c0 116 93 189 227 189s227 -73 227 -189c0 -67 -42 -131 -100 -151v-4c72 -22 122 -86 122 -170c0 -127 -101 -198 -249 -198s-249 71 -249 198zM165 195c0 -71 51 -109 119 -109s119 38 119 109
c0 66 -51 109 -119 109s-119 -43 -119 -109zM284 406c58 0 104 38 104 101c0 60 -46 97 -104 97s-104 -37 -104 -97c0 -63 46 -101 104 -101z" />
    <glyph glyph-name="nine" unicode="9" horiz-adv-x="568" 
d="M527 360c0 -277 -110 -372 -261 -372c-140 0 -207 76 -221 184h124c7 -45 34 -84 99 -84c74 0 120 58 126 230c-26 -44 -89 -70 -149 -70c-115 0 -216 75 -216 222c0 149 114 230 239 230c143 0 259 -87 259 -340zM267 348c68 0 116 51 116 129c0 73 -47 123 -112 123
c-63 0 -114 -46 -114 -128c0 -75 48 -124 110 -124z" />
    <glyph glyph-name="colon" unicode=":" horiz-adv-x="282" 
d="M69 348v140h145v-140h-145zM69 0v140h145v-140h-145z" />
    <glyph glyph-name="semicolon" unicode=";" horiz-adv-x="282" 
d="M69 348v140h145v-140h-145zM131 0h-62v140h145v-131l-55 -178h-63z" />
    <glyph glyph-name="less" unicode="&#x3c;" horiz-adv-x="568" 
d="M72 203v104l424 176v-109l-305 -118l305 -119v-112z" />
    <glyph glyph-name="equal" unicode="=" horiz-adv-x="568" 
d="M56 313v100h456v-100h-456zM56 95v100h456v-100h-456z" />
    <glyph glyph-name="greater" unicode="&#x3e;" horiz-adv-x="568" 
d="M496 305v-104l-424 -176v109l304 117l-304 120v112z" />
    <glyph glyph-name="question" unicode="?" horiz-adv-x="517" 
d="M191 207v24c0 181 172 171 172 276c0 50 -37 89 -99 89c-82 0 -114 -55 -114 -116h-123c0 113 69 220 237 220c135 0 228 -69 228 -187c0 -166 -180 -158 -180 -277v-29h-121zM185 0v132h133v-132h-133z" />
    <glyph glyph-name="at" unicode="@" horiz-adv-x="1034" 
d="M282 128c0 80 49 130 165 148l94 14c48 7 62 14 62 40c0 47 -26 80 -87 80c-60 0 -91 -29 -95 -80h-121c7 109 91 170 214 170c147 0 218 -64 218 -186v-149c0 -75 25 -102 65 -102c53 0 102 61 102 209c0 220 -163 353 -379 353c-236 0 -385 -176 -385 -397
c0 -235 152 -381 362 -381c89 0 162 19 212 69h113c-71 -95 -180 -144 -325 -144c-257 0 -449 182 -449 456c0 260 186 472 472 472c266 0 466 -168 466 -428c0 -200 -100 -282 -213 -282c-66 0 -122 18 -148 76c-38 -57 -98 -78 -178 -78c-109 0 -165 58 -165 140zM484 74
c59 0 119 39 119 116v50c-9 -13 -26 -19 -48 -23l-77 -12c-51 -8 -70 -32 -70 -67c0 -39 31 -64 76 -64z" />
    <glyph glyph-name="A" unicode="A" horiz-adv-x="686" 
d="M8 0l256 688h158l256 -688h-142l-53 154h-285l-54 -154h-136zM344 561h-4l-105 -299h211z" />
    <glyph glyph-name="B" unicode="B" horiz-adv-x="701" 
d="M78 0v688h325c153 0 225 -67 225 -180c0 -65 -34 -121 -108 -142v-4c85 -15 136 -78 136 -158c0 -117 -80 -204 -233 -204h-345zM405 305h-192v-199h191c80 0 116 42 116 103c0 57 -38 96 -115 96zM386 582h-173v-177h172c74 0 109 40 109 94c0 49 -30 83 -108 83z" />
    <glyph glyph-name="C" unicode="C" horiz-adv-x="732" 
d="M44 344c0 203 134 356 343 356c170 0 279 -93 305 -239h-134c-22 80 -80 124 -171 124c-126 0 -205 -99 -205 -241c0 -139 81 -241 205 -241c97 0 149 44 171 124h134c-26 -146 -137 -239 -307 -239c-212 0 -341 151 -341 356z" />
    <glyph glyph-name="D" unicode="D" horiz-adv-x="735" 
d="M81 0v688h245c241 0 365 -145 365 -344s-124 -344 -365 -344h-245zM317 577h-102v-466h102c172 0 236 108 236 233s-64 233 -236 233z" />
    <glyph glyph-name="E" unicode="E" horiz-adv-x="640" 
d="M81 0v688h499v-111h-365v-173h294v-106h-294v-187h374v-111h-508z" />
    <glyph glyph-name="F" unicode="F" horiz-adv-x="604" 
d="M81 0v688h487v-111h-353v-211h282v-110h-282v-256h-134z" />
    <glyph glyph-name="G" unicode="G" horiz-adv-x="775" 
d="M617 0l-15 83h-2c-45 -62 -113 -95 -213 -95c-209 0 -343 153 -343 356c0 206 139 356 353 356c173 0 284 -98 307 -222h-134c-18 57 -73 107 -173 107c-130 0 -215 -98 -215 -241s85 -241 213 -241c103 0 188 58 188 161v5h-186v102h305v-371h-85z" />
    <glyph glyph-name="H" unicode="H" horiz-adv-x="754" 
d="M81 0v688h134v-283h324v283h134v-688h-134v291h-324v-291h-134z" />
    <glyph glyph-name="I" unicode="I" horiz-adv-x="296" 
d="M81 0v688h134v-688h-134z" />
    <glyph glyph-name="J" unicode="J" horiz-adv-x="556" 
d="M36 207v30h132v-27c0 -79 38 -111 92 -111s91 32 91 116v473h135v-472c0 -164 -89 -228 -226 -228c-132 0 -224 63 -224 219z" />
    <glyph glyph-name="K" unicode="K" horiz-adv-x="696" 
d="M81 0v688h134v-326l302 326h155l-279 -296l295 -392h-154l-227 301l-92 -98v-203h-134z" />
    <glyph glyph-name="L" unicode="L" horiz-adv-x="579" 
d="M81 0v688h134v-575h329v-113h-463z" />
    <glyph glyph-name="M" unicode="M" horiz-adv-x="937" 
d="M81 0v688h180l208 -505h3l208 505h176v-688h-134l10 504h-4l-209 -504h-101l-209 497h-4l10 -497h-134z" />
    <glyph glyph-name="N" unicode="N" horiz-adv-x="762" 
d="M81 0v688h121l345 -460h4l-4 460h134v-688h-119l-347 460h-4l4 -460h-134z" />
    <glyph glyph-name="O" unicode="O" horiz-adv-x="789" 
d="M44 344c0 205 138 356 351 356c209 0 350 -151 350 -356s-141 -356 -350 -356c-213 0 -351 151 -351 356zM182 344c0 -140 85 -241 213 -241c127 0 212 102 212 241s-85 241 -212 241c-128 0 -213 -101 -213 -241z" />
    <glyph glyph-name="P" unicode="P" horiz-adv-x="675" 
d="M81 0v688h296c164 0 255 -93 255 -227c0 -136 -91 -236 -255 -236h-162v-225h-134zM365 580h-150v-247h150c87 0 131 53 131 126c0 72 -44 121 -131 121z" />
    <glyph glyph-name="Q" unicode="Q" horiz-adv-x="792" 
d="M44 344c0 205 138 356 351 356c209 0 350 -151 350 -356c0 -105 -37 -196 -101 -259l127 -132l-84 -83l-140 148c-45 -19 -96 -30 -152 -30c-213 0 -351 151 -351 356zM182 344c0 -140 85 -241 213 -241c127 0 212 102 212 241s-85 241 -212 241
c-128 0 -213 -101 -213 -241z" />
    <glyph glyph-name="R" unicode="R" horiz-adv-x="694" 
d="M81 0v688h295c165 0 254 -80 254 -214c0 -98 -50 -175 -145 -208l171 -266h-146l-158 250h-137v-250h-134zM370 580h-155v-225h155c82 0 124 50 124 118c0 66 -44 107 -124 107z" />
    <glyph glyph-name="S" unicode="S" horiz-adv-x="668" 
d="M50 196h131c0 -66 59 -108 148 -108c96 0 152 38 152 104c0 158 -420 27 -420 301c0 118 105 207 270 207c161 0 265 -77 265 -198h-131c0 63 -57 98 -134 98s-136 -32 -136 -94c0 -157 423 -25 423 -301c0 -129 -104 -217 -289 -217c-181 0 -279 80 -279 208z" />
    <glyph glyph-name="T" unicode="T" horiz-adv-x="616" 
d="M8 576v112h600v-112h-233v-576h-134v576h-233z" />
    <glyph glyph-name="U" unicode="U" horiz-adv-x="729" 
d="M68 276v412h135v-410c0 -112 53 -175 162 -175c108 0 161 63 161 175v410h135v-412c0 -214 -122 -288 -296 -288s-297 74 -297 288z" />
    <glyph glyph-name="V" unicode="V" horiz-adv-x="670" 
d="M255 0l-247 688h142l184 -561h4l188 561h136l-249 -688h-158z" />
    <glyph glyph-name="W" unicode="W" horiz-adv-x="978" 
d="M187 0l-177 688h144l123 -544h4l141 544h139l144 -544h4l119 544h140l-174 -688h-166l-137 518h-4l-135 -518h-165z" />
    <glyph glyph-name="X" unicode="X" horiz-adv-x="655" 
d="M8 0l241 351l-233 337h154l158 -237l155 237h148l-229 -335l245 -353h-154l-170 254l-167 -254h-148z" />
    <glyph glyph-name="Y" unicode="Y" horiz-adv-x="665" 
d="M263 0v264l-253 424h152l169 -296h4l178 296h142l-257 -420v-268h-135z" />
    <glyph glyph-name="Z" unicode="Z" horiz-adv-x="612" 
d="M49 578v110h528v-78l-367 -500h365v-110h-541v78l368 500h-353z" />
    <glyph glyph-name="bracketleft" unicode="[" horiz-adv-x="349" 
d="M192 -128h142v-100h-259v972h259v-100h-142v-772z" />
    <glyph glyph-name="backslash" unicode="\" horiz-adv-x="426" 
d="M312 -12l-308 712h109l308 -712h-109z" />
    <glyph glyph-name="bracketright" unicode="]" horiz-adv-x="349" 
d="M14 -128h143v772h-143v100h259v-972h-259v100z" />
    <glyph glyph-name="asciicircum" unicode="^" horiz-adv-x="568" 
d="M46 352l182 336h106v-1l4 1l183 -336h-116l-123 235l-123 -235h-113z" />
    <glyph glyph-name="underscore" unicode="_" horiz-adv-x="500" 
d="M0 -72h500v-103h-500v103z" />
    <glyph glyph-name="quoteleft" unicode="&#x2018;" horiz-adv-x="263" 
d="M66 407v120l46 161h60l-33 -153h57v-128h-130z" />
    <glyph glyph-name="a" unicode="a" horiz-adv-x="557" 
d="M42 126c0 82 50 131 166 149l94 14c52 8 62 16 62 39c-1 48 -27 82 -87 82s-92 -31 -96 -80h-120c7 109 95 170 216 170c144 0 216 -62 216 -178v-322h-123v58h-6c-29 -44 -83 -70 -156 -70c-109 0 -166 56 -166 138zM245 78c61 0 119 37 119 119v43
c-9 -13 -26 -19 -48 -23l-75 -12c-52 -9 -72 -32 -72 -66c0 -38 26 -61 76 -61z" />
    <glyph glyph-name="b" unicode="b" horiz-adv-x="615" 
d="M70 0v732h129v-150c0 -33 0 -100 -6 -164h4c28 54 85 82 160 82c123 0 220 -88 220 -252s-102 -260 -228 -260c-71 0 -124 28 -152 82h-4v-70h-123zM199 244c0 -98 51 -158 124 -158c72 0 122 64 122 162s-50 154 -122 154c-71 0 -122 -57 -124 -151v-7z" />
    <glyph glyph-name="c" unicode="c" horiz-adv-x="553" 
d="M36 244c0 160 104 256 254 256c144 0 222 -81 233 -182h-127c-7 44 -40 84 -106 84c-72 0 -121 -65 -121 -158s49 -158 121 -158c67 0 98 40 106 84h127c-11 -101 -87 -182 -233 -182c-156 0 -254 93 -254 256z" />
    <glyph glyph-name="d" unicode="d" horiz-adv-x="615" 
d="M38 240c0 164 102 260 228 260c72 0 124 -28 152 -82h4c-6 64 -6 131 -6 164v150h129v-732h-123v70h-4c-28 -54 -85 -82 -160 -82c-122 0 -220 88 -220 252zM171 240c0 -98 49 -154 122 -154c70 0 120 57 123 150v8c0 98 -51 158 -123 158c-73 0 -122 -64 -122 -162z" />
    <glyph glyph-name="e" unicode="e" horiz-adv-x="564" 
d="M36 242c0 158 104 258 253 258c146 0 239 -88 239 -243v-36h-360c6 -88 52 -139 125 -139c64 0 95 35 105 66h125c-15 -87 -102 -160 -232 -160c-161 0 -255 91 -255 254zM289 407c-60 0 -102 -37 -117 -106h225c-9 73 -45 106 -108 106z" />
    <glyph glyph-name="f" unicode="f" horiz-adv-x="341" 
d="M94 0v392h-92v96h92v58c0 126 52 186 188 186h69v-100h-48c-60 0 -80 -25 -80 -83v-61h112v-96h-112v-392h-129z" />
    <glyph glyph-name="g" unicode="g" horiz-adv-x="615" 
d="M52 -60h121c2 -47 47 -78 113 -78c87 0 136 46 136 164v44h-4c-28 -54 -85 -82 -160 -82c-122 0 -220 88 -220 252s102 260 228 260c72 0 124 -28 152 -82h4v70h123v-462c0 -183 -103 -254 -259 -254c-137 0 -230 54 -234 168zM171 240c0 -98 49 -154 122 -154
c72 0 123 60 123 158v7c-3 94 -53 151 -123 151c-73 0 -122 -64 -122 -162z" />
    <glyph glyph-name="h" unicode="h" horiz-adv-x="599" 
d="M70 0v732h129v-150c0 -33 0 -99 -6 -164h4c28 54 82 82 150 82c100 0 188 -52 188 -204v-296h-129v280c0 90 -38 120 -95 120c-64 0 -112 -53 -112 -142v-258h-129z" />
    <glyph glyph-name="i" unicode="i" horiz-adv-x="269" 
d="M66 612v120h137v-120h-137zM70 0v488h129v-488h-129z" />
    <glyph glyph-name="j" unicode="j" horiz-adv-x="269" 
d="M66 612v120h137v-120h-137zM70 -46v534h129v-543c0 -103 -40 -165 -171 -165h-41v100h26c43 0 57 24 57 74z" />
    <glyph glyph-name="k" unicode="k" horiz-adv-x="550" 
d="M70 0v732h129v-447l183 203h146l-182 -195l200 -293h-148l-137 202l-62 -66v-136h-129z" />
    <glyph glyph-name="l" unicode="l" horiz-adv-x="269" 
d="M70 0v732h129v-732h-129z" />
    <glyph glyph-name="m" unicode="m" horiz-adv-x="910" 
d="M70 0v488h123v-70h4c28 54 82 82 148 82c70 0 130 -27 159 -95c36 71 97 95 164 95c98 0 178 -52 178 -200v-300h-129v286c0 85 -32 114 -87 114c-61 0 -108 -53 -108 -142v-258h-128v286c0 85 -34 114 -87 114c-60 0 -108 -51 -108 -141v-259h-129z" />
    <glyph glyph-name="n" unicode="n" horiz-adv-x="599" 
d="M70 0v488h123v-70h4c28 54 82 82 150 82c100 0 188 -52 188 -204v-296h-129v280c0 90 -38 120 -95 120c-64 0 -112 -53 -112 -143v-257h-129z" />
    <glyph glyph-name="o" unicode="o" horiz-adv-x="593" 
d="M38 244c0 160 109 256 259 256c155 0 258 -94 258 -256c0 -160 -109 -256 -258 -256c-156 0 -259 94 -259 256zM171 244c0 -97 50 -158 126 -158s125 61 125 158c0 99 -49 157 -125 157s-126 -60 -126 -157z" />
    <glyph glyph-name="p" unicode="p" horiz-adv-x="615" 
d="M199 -94v-126h-129v708h123v-70h4c28 54 85 82 160 82c123 0 220 -88 220 -252s-102 -260 -228 -260c-71 0 -124 28 -152 82h-4c6 -64 6 -131 6 -164zM445 248c0 98 -50 154 -122 154c-71 0 -122 -57 -124 -151v-7c0 -98 51 -158 124 -158c72 0 122 64 122 162z" />
    <glyph glyph-name="q" unicode="q" horiz-adv-x="613" 
d="M416 -94c0 33 0 100 6 164h-4c-28 -54 -85 -82 -160 -82c-122 0 -220 88 -220 252s102 260 228 260c72 0 124 -28 152 -82h4v70h123v-708h-129v126zM171 240c0 -98 49 -154 122 -154c72 0 123 60 123 158s-51 158 -123 158c-73 0 -122 -64 -122 -162z" />
    <glyph glyph-name="r" unicode="r" horiz-adv-x="395" 
d="M70 0v488h123v-74h2c24 52 67 86 130 86c20 0 43 -3 68 -20l-26 -111c-22 11 -41 16 -60 16c-73 0 -108 -66 -108 -152v-233h-129z" />
    <glyph glyph-name="s" unicode="s" horiz-adv-x="527" 
d="M34 140h121c0 -50 52 -67 102 -67c67 0 103 22 103 61c0 34 -25 47 -72 55l-89 14c-84 13 -152 46 -152 138c0 103 92 159 215 159s213 -48 213 -148h-119c0 45 -43 63 -95 63c-53 0 -90 -21 -90 -57c0 -31 20 -46 77 -55l88 -14c79 -13 152 -44 152 -138
c0 -110 -96 -163 -231 -163c-130 0 -223 48 -223 152z" />
    <glyph glyph-name="t" unicode="t" horiz-adv-x="361" 
d="M88 168v224h-92v96h92v148h128v-148h121v-96h-121v-216c0 -52 17 -72 68 -72h53v-104h-78c-127 0 -171 46 -171 168z" />
    <glyph glyph-name="u" unicode="u" horiz-adv-x="595" 
d="M62 192v296h129v-280c0 -90 38 -120 95 -120c63 0 110 52 110 142v258h128v-488h-122v70h-4c-28 -54 -80 -82 -148 -82c-100 0 -188 52 -188 204z" />
    <glyph glyph-name="v" unicode="v" horiz-adv-x="518" 
d="M184 0l-180 488h140l118 -361h4l117 361h131l-175 -488h-155z" />
    <glyph glyph-name="w" unicode="w" horiz-adv-x="776" 
d="M148 0l-142 488h129l89 -361h4l99 361h126l99 -361h4l89 361h125l-142 -488h-145l-93 356h-4l-94 -356h-144z" />
    <glyph glyph-name="x" unicode="x" horiz-adv-x="504" 
d="M8 0l173 246l-169 242h145l102 -155l99 155h134l-170 -241l174 -247h-144l-107 160l-102 -160h-135z" />
    <glyph glyph-name="y" unicode="y" horiz-adv-x="518" 
d="M184 0l-180 488h140l118 -361h4l117 361h131l-195 -548c-30 -87 -86 -168 -198 -168h-59v102h30c56 0 95 25 116 91l11 35h-35z" />
    <glyph glyph-name="z" unicode="z" horiz-adv-x="479" 
d="M32 390v98h411v-75l-246 -315h250v-98h-413v70l250 320h-252z" />
    <glyph glyph-name="braceleft" unicode="{" horiz-adv-x="384" 
d="M125 -67v150c0 98 -20 132 -112 132v94c92 0 112 34 112 132v142c0 112 45 161 176 161h68v-97h-51c-60 0 -77 -21 -77 -80v-171c0 -72 -26 -112 -100 -132v-4c74 -20 100 -60 100 -132v-179c0 -59 17 -80 77 -80h51v-97h-68c-131 0 -176 49 -176 161z" />
    <glyph glyph-name="bar" unicode="|" horiz-adv-x="285" 
d="M88 -240v1000h109v-1000h-109z" />
    <glyph glyph-name="braceright" unicode="}" horiz-adv-x="384" 
d="M14 -131h52c60 0 76 21 76 80v179c0 72 26 112 100 132v4c-74 20 -100 60 -100 132v171c0 59 -16 80 -76 80h-52v97h69c131 0 176 -49 176 -161v-142c0 -98 20 -132 112 -132v-94c-92 0 -112 -34 -112 -132v-150c0 -112 -45 -161 -176 -161h-69v97z" />
    <glyph glyph-name="asciitilde" unicode="~" horiz-adv-x="568" 
d="M49 175c0 123 66 174 137 174c91 0 138 -71 192 -71c32 0 49 26 49 75h94c0 -123 -66 -175 -135 -175c-91 0 -141 73 -195 73c-32 0 -48 -28 -48 -76h-94z" />
    <glyph glyph-name="exclamdown" unicode="&#xa1;" horiz-adv-x="287" 
d="M77 356v132h133v-132h-133zM75 -12l32 295h74l31 -295v-188h-137v188z" />
    <glyph glyph-name="cent" unicode="&#xa2;" horiz-adv-x="568" 
d="M245 -12v108c-125 20 -202 114 -202 252s84 232 206 252v100h102v-100c109 -18 170 -91 180 -178h-127c-7 44 -40 84 -106 84c-73 0 -122 -65 -122 -158s49 -158 122 -158c67 0 98 40 106 84h127c-10 -89 -71 -162 -184 -179v-107h-102z" />
    <glyph glyph-name="sterling" unicode="&#xa3;" horiz-adv-x="568" 
d="M60 318v74h79c-16 42 -30 85 -30 132c0 107 77 176 201 176c120 0 184 -62 191 -176h-118c-5 61 -30 86 -76 86c-40 0 -73 -28 -73 -78c0 -48 17 -93 35 -140h153v-74h-128c7 -27 13 -55 13 -84c0 -34 -5 -69 -15 -102c37 -26 71 -48 103 -48c35 0 57 25 59 91h98
c-4 -102 -36 -187 -146 -187c-60 0 -107 34 -150 70c-30 -42 -74 -70 -133 -70c-69 0 -121 36 -121 103c0 70 50 114 124 114c21 0 42 -5 62 -12v22c0 36 -9 69 -20 103h-108zM122 51c32 0 49 29 58 68c-19 11 -38 19 -57 19c-26 0 -44 -20 -44 -44s14 -43 43 -43z" />
    <glyph glyph-name="fraction" unicode="&#x2044;" horiz-adv-x="78" 
d="M-176 -12c63 128 286 584 348 712h81l-348 -712h-81z" />
    <glyph glyph-name="yen" unicode="&#xa5;" horiz-adv-x="568" 
d="M82 233v67h137l-218 388h148l136 -263h4l140 263h138l-218 -388h137v-67h-138v-65h138v-67h-138v-101h-128v101h-138v67h138v65h-138z" />
    <glyph glyph-name="florin" unicode="&#x192;" horiz-adv-x="568" 
d="M70 277v81h126l17 161c14 131 83 181 186 181c100 0 158 -50 151 -165l-3 -38h-109l2 31c4 52 -8 78 -43 78s-50 -29 -56 -87l-17 -161h142v-81h-150l-30 -288c-14 -131 -83 -181 -187 -181c-99 0 -158 50 -150 165l2 38h110l-3 -31c-5 -52 9 -78 44 -78
c34 0 49 29 55 87l30 288h-117z" />
    <glyph glyph-name="section" unicode="&#xa7;" horiz-adv-x="576" 
d="M55 -70h119c4 -51 53 -73 108 -73c69 0 107 29 107 79c0 45 -31 64 -90 81l-100 28c-101 29 -150 86 -150 172c0 69 42 129 114 158c-59 29 -96 74 -96 146c0 105 81 179 227 179c127 0 219 -54 227 -158h-119c-5 51 -53 73 -108 73c-69 0 -108 -29 -108 -79
c0 -45 31 -64 91 -81l99 -28c101 -29 151 -86 151 -172c0 -69 -43 -130 -114 -159c58 -29 96 -74 96 -145c0 -105 -82 -179 -227 -179c-128 0 -219 54 -227 158zM318 327l-59 16c-61 -15 -93 -57 -93 -101c0 -52 28 -79 92 -97l55 -16c63 14 97 56 97 101
c0 52 -28 79 -92 97z" />
    <glyph glyph-name="currency" unicode="&#xa4;" horiz-adv-x="568" 
d="M138 140l-57 56l59 60c-15 25 -26 55 -26 88c0 32 11 63 27 87l-59 60l57 56l60 -61c24 14 54 22 85 22c30 0 60 -8 84 -22l61 61l57 -56l-59 -60c16 -24 27 -55 27 -87c0 -33 -11 -63 -27 -88l60 -60l-57 -56l-62 62c-23 -14 -54 -22 -84 -22c-31 0 -61 8 -85 22z
M284 257c48 0 83 33 83 87s-35 87 -83 87s-83 -33 -83 -87s35 -87 83 -87z" />
    <glyph glyph-name="quotesingle" unicode="'" horiz-adv-x="234" 
d="M76 407l-18 182v99h118v-99l-18 -182h-82z" />
    <glyph glyph-name="quotedblleft" unicode="&#x201c;" horiz-adv-x="468" 
d="M66 407v120l46 161h60l-33 -153h57v-128h-130zM272 407v120l46 161h60l-33 -153h57v-128h-130z" />
    <glyph glyph-name="guillemotleft" unicode="&#xab;" horiz-adv-x="562" 
d="M266 252l142 204h105l-112 -204l112 -204h-105zM190 48l-142 204l142 204h106l-113 -204l113 -204h-106z" />
    <glyph glyph-name="guilsinglleft" unicode="&#x2039;" horiz-adv-x="346" 
d="M192 48l-144 204l144 204h105l-112 -204l112 -204h-105z" />
    <glyph glyph-name="guilsinglright" unicode="&#x203a;" horiz-adv-x="346" 
d="M48 48l113 204l-113 204h105l144 -204l-144 -204h-105z" />
    <glyph glyph-name="endash" unicode="&#x2013;" horiz-adv-x="556" 
d="M53 197v110h450v-110h-450z" />
    <glyph glyph-name="dagger" unicode="&#x2020;" horiz-adv-x="469" 
d="M44 428v92h136v168h109v-168h136v-92h-136v-428h-109v428h-136z" />
    <glyph glyph-name="daggerdbl" unicode="&#x2021;" horiz-adv-x="469" 
d="M44 439v92h136v157h109v-157h136v-92h-136v-194h136v-92h-136v-153h-109v153h-136v92h136v194h-136z" />
    <glyph glyph-name="periodcentered" unicode="&#xb7;" horiz-adv-x="282" 
d="M69 185v136h145v-136h-145z" />
    <glyph glyph-name="paragraph" unicode="&#xb6;" horiz-adv-x="628" 
d="M436 0v688h116v-688h-116zM247 0v249c-128 16 -207 94 -207 219c0 133 95 220 252 220h71v-688h-116z" />
    <glyph glyph-name="bullet" unicode="&#x2022;" horiz-adv-x="488" 
d="M244 80c-97 0 -172 75 -172 172s75 172 172 172s172 -75 172 -172s-75 -172 -172 -172z" />
    <glyph glyph-name="quotesinglbase" unicode="&#x201a;" horiz-adv-x="263" 
d="M123 0h-57v128h130v-120l-45 -161h-60z" />
    <glyph glyph-name="quotedblbase" unicode="&#x201e;" horiz-adv-x="468" 
d="M123 0h-57v128h130v-120l-45 -161h-60zM329 0h-57v128h130v-120l-46 -161h-59z" />
    <glyph glyph-name="quotedblright" unicode="&#x201d;" horiz-adv-x="468" 
d="M91 407l32 153h-57v128h130v-120l-45 -161h-60zM297 407l32 153h-57v128h130v-120l-46 -161h-59z" />
    <glyph glyph-name="guillemotright" unicode="&#xbb;" horiz-adv-x="562" 
d="M266 48l112 204l-112 204h105l142 -204l-142 -204h-105zM48 48l113 204l-113 204h105l143 -204l-143 -204h-105z" />
    <glyph glyph-name="ellipsis" unicode="&#x2026;" horiz-adv-x="839" 
d="M625 0v140h145v-140h-145zM347 0v140h145v-140h-145zM69 0v140h145v-140h-145z" />
    <glyph glyph-name="perthousand" unicode="&#x2030;" horiz-adv-x="1178" 
d="M183 336c-109 0 -161 78 -161 180s52 180 161 180c110 0 161 -78 161 -180s-51 -180 -161 -180zM994 -8c-109 0 -161 78 -161 180s52 180 161 180c110 0 161 -78 161 -180s-51 -180 -161 -180zM628 -8c-109 0 -161 78 -161 180s52 180 161 180s160 -78 160 -180
s-51 -180 -160 -180zM191 -12l348 712h81l-348 -712h-81zM628 69c42 0 62 38 62 103s-20 103 -62 103s-63 -38 -63 -103s21 -103 63 -103zM994 69c42 0 63 38 63 103s-20 103 -63 103c-42 0 -62 -38 -62 -103s21 -103 62 -103zM183 413c42 0 63 38 63 103s-20 103 -63 103
c-42 0 -62 -38 -62 -103s21 -103 62 -103z" />
    <glyph glyph-name="questiondown" unicode="&#xbf;" horiz-adv-x="517" 
d="M201 356v132h133v-132h-133zM27 -25c0 166 180 158 180 277v29h121v-24c0 -181 -172 -171 -172 -276c0 -50 37 -89 99 -89c82 0 114 55 114 116h123c0 -113 -69 -220 -237 -220c-135 0 -228 69 -228 187z" />
    <glyph glyph-name="grave" unicode="`" horiz-adv-x="586" 
d="M250 568l-148 164h135l101 -164h-88z" />
    <glyph glyph-name="acute" unicode="&#xb4;" horiz-adv-x="586" 
d="M248 568l100 164h136l-148 -164h-88z" />
    <glyph glyph-name="circumflex" unicode="&#x2c6;" horiz-adv-x="586" 
d="M116 568l128 164h98l128 -164h-106l-71 99l-71 -99h-106z" />
    <glyph glyph-name="tilde" unicode="&#x2dc;" horiz-adv-x="586" 
d="M118 587c1 76 37 124 103 124c60 0 109 -44 148 -44c26 0 36 25 38 48h61c-2 -77 -37 -125 -103 -125c-61 0 -109 45 -148 45c-26 0 -36 -25 -38 -48h-61z" />
    <glyph glyph-name="macron" unicode="&#xaf;" horiz-adv-x="586" 
d="M142 607v86h298v-86h-298z" />
    <glyph glyph-name="breve" unicode="&#x2d8;" horiz-adv-x="586" 
d="M293 574c-73 0 -146 38 -155 152h71c8 -51 37 -79 84 -79c46 0 76 30 84 79h71c-9 -114 -82 -152 -155 -152z" />
    <glyph glyph-name="dotaccent" unicode="&#x2d9;" horiz-adv-x="586" 
d="M234 597v116h118v-116h-118z" />
    <glyph glyph-name="dieresis" unicode="&#xa8;" horiz-adv-x="586" 
d="M343 597v116h118v-116h-118zM125 597v116h117v-116h-117z" />
    <glyph glyph-name="ring" unicode="&#x2da;" horiz-adv-x="586" 
d="M293 555c-60 0 -107 42 -107 101c0 61 48 102 107 102c58 0 107 -41 107 -102c0 -59 -47 -101 -107 -101zM293 608c26 0 48 20 48 48s-22 49 -48 49s-48 -21 -48 -49s22 -48 48 -48z" />
    <glyph glyph-name="cedilla" unicode="&#xb8;" horiz-adv-x="586" 
d="M242 -88l31 88h41v-38c60 -2 92 -39 92 -86c0 -54 -37 -96 -117 -96h-67v62h53c29 0 47 8 47 36c0 24 -18 34 -47 34h-33z" />
    <glyph glyph-name="hungarumlaut" unicode="&#x2dd;" horiz-adv-x="586" 
d="M347 568l100 164h136l-148 -164h-88zM149 568l100 164h135l-147 -164h-88z" />
    <glyph glyph-name="ogonek" unicode="&#x2db;" horiz-adv-x="586" 
d="M213 -128c0 45 25 81 81 128h63c-43 -45 -60 -80 -60 -105s13 -42 51 -42h29v-73h-40c-87 0 -124 35 -124 92z" />
    <glyph glyph-name="caron" unicode="&#x2c7;" horiz-adv-x="586" 
d="M244 568l-128 164h106l71 -99l71 99h106l-128 -164h-98z" />
    <glyph glyph-name="emdash" unicode="&#x2014;" horiz-adv-x="840" 
d="M53 197v110h734v-110h-734z" />
    <glyph glyph-name="AE" unicode="&#xc6;" horiz-adv-x="1117" 
d="M5 0l497 688h555v-111h-366v-173h296v-106h-296v-187h376v-111h-510v154h-289l-109 -154h-154zM553 554l-209 -294h213v294h-4z" />
    <glyph glyph-name="ordfeminine" unicode="&#xaa;" horiz-adv-x="404" 
d="M150 336c-76 0 -116 39 -116 97c0 59 35 96 116 106l64 8c37 5 44 11 44 31c0 26 -17 48 -55 48c-35 0 -58 -16 -61 -53h-94c6 89 75 124 155 124c102 0 157 -43 157 -132v-221h-98v39h-4c-20 -29 -55 -47 -108 -47zM258 475v31c-6 -9 -16 -13 -31 -15l-45 -6
c-35 -4 -46 -22 -46 -41c0 -26 18 -41 49 -41c37 0 73 22 73 72z" />
    <glyph glyph-name="Lslash" unicode="&#x141;" horiz-adv-x="579" 
d="M24 182l-47 66l104 73v367h134v-272l116 83l48 -66l-164 -116v-204h329v-113h-463v222z" />
    <glyph glyph-name="Oslash" unicode="&#xd8;" horiz-adv-x="789" 
d="M58 -12l83 100c-62 64 -97 153 -97 256c0 205 140 356 351 356c77 0 145 -21 200 -58l48 58h89l-84 -102c61 -64 97 -152 97 -254c0 -205 -143 -356 -350 -356c-78 0 -147 20 -202 57l-46 -57h-89zM182 344c0 -60 16 -113 43 -153l292 355c-34 25 -75 39 -122 39
c-128 0 -213 -101 -213 -241zM607 344c0 59 -16 111 -43 152l-292 -355c34 -24 75 -38 123 -38c127 0 212 102 212 241z" />
    <glyph glyph-name="OE" unicode="&#x152;" horiz-adv-x="1076" 
d="M410 0c-242 0 -366 145 -366 344s124 344 366 344h606v-111h-370v-173h300v-106h-300v-187h380v-111h-616zM182 344c0 -125 64 -233 237 -233h93v466h-93c-173 0 -237 -108 -237 -233z" />
    <glyph glyph-name="ordmasculine" unicode="&#xba;" horiz-adv-x="430" 
d="M214 336c-115 0 -185 70 -185 180s73 181 185 181c116 0 186 -71 186 -181s-72 -180 -186 -180zM214 417c51 0 80 41 80 99c0 59 -29 99 -80 99c-50 0 -79 -40 -79 -99c0 -58 29 -99 79 -99z" />
    <glyph glyph-name="ae" unicode="&#xe6;" horiz-adv-x="868" 
d="M61 330c8 122 106 170 216 170c77 0 132 -20 164 -59c39 38 92 59 159 59c138 0 232 -88 232 -243v-36h-345c6 -91 49 -139 117 -139c63 0 87 35 97 66h125c-15 -87 -101 -160 -224 -160c-88 0 -152 34 -191 94c-47 -78 -127 -94 -192 -94c-118 0 -177 56 -177 138
c0 81 52 132 166 149l94 14c52 8 62 16 62 41c0 43 -26 80 -87 80c-54 0 -92 -27 -96 -80h-120zM245 78c61 0 119 35 119 119v43c-9 -13 -26 -19 -48 -23l-75 -12c-50 -8 -72 -32 -72 -66c0 -40 29 -61 76 -61zM600 407c-59 0 -97 -40 -110 -108h210c-6 68 -37 108 -100 108
z" />
    <glyph glyph-name="dotlessi" unicode="&#x131;" horiz-adv-x="269" 
d="M70 0v488h129v-488h-129z" />
    <glyph glyph-name="lslash" unicode="&#x142;" horiz-adv-x="269" 
d="M-24 243l94 84v405h129v-290l51 46l45 -55l-96 -86v-347h-129v231l-48 -43z" />
    <glyph glyph-name="oslash" unicode="&#xf8;" horiz-adv-x="589" 
d="M49 -12l57 69c-45 44 -70 108 -70 187c0 156 108 256 259 256c57 0 107 -14 147 -38l31 38h75l-61 -73c42 -44 66 -107 66 -183c0 -156 -107 -256 -258 -256c-55 0 -103 12 -143 34l-28 -34h-75zM169 244c0 -35 6 -65 18 -89l183 220c-20 17 -46 26 -75 26
c-76 0 -126 -62 -126 -157zM421 244c0 32 -6 60 -16 83l-181 -218c19 -15 43 -23 71 -23c76 0 126 63 126 158z" />
    <glyph glyph-name="oe" unicode="&#x153;" horiz-adv-x="943" 
d="M36 244c0 156 106 256 259 256c85 0 149 -31 189 -84c41 53 104 84 183 84c146 0 240 -88 240 -243v-36h-361c6 -88 52 -139 125 -139c65 0 95 35 105 66h125c-15 -87 -101 -160 -232 -160c-85 0 -148 30 -188 82c-41 -52 -104 -82 -186 -82c-157 0 -259 100 -259 256z
M169 244c0 -95 49 -158 126 -158s126 63 126 158c0 97 -49 158 -126 158s-126 -63 -126 -158zM667 407c-60 0 -102 -40 -117 -108h225c-9 74 -44 108 -108 108z" />
    <glyph glyph-name="germandbls" unicode="&#xdf;" horiz-adv-x="614" 
d="M70 0v501c0 161 97 243 244 243c152 0 210 -79 210 -159c0 -101 -93 -125 -93 -179c0 -66 155 -82 155 -227c0 -120 -90 -179 -196 -179h-106v100h93c50 0 81 24 81 68c0 92 -149 83 -149 221c0 102 94 119 94 188c0 37 -29 71 -93 71c-63 0 -111 -39 -111 -142v-506
h-129z" />
    <glyph glyph-name="onesuperior" unicode="&#xe105;" 
d="M78 685l-40 67l149 88h61v-267h92v-77h-290v77h96v150z" />
    <glyph glyph-name="logicalnot" unicode="&#xac;" horiz-adv-x="568" 
d="M58 205v100h452v-277h-106v177h-346z" />
    <glyph glyph-name="mu" unicode="&#xb5;" horiz-adv-x="596" 
d="M406 0v70h-4c-28 -56 -80 -82 -146 -82c-26 0 -51 6 -73 18c8 -63 12 -117 12 -165v-61h-128v708h128v-280c0 -90 37 -120 96 -120c65 0 109 55 109 144v256h129v-488h-123z" />
    <glyph glyph-name="trademark" unicode="&#x2122;" horiz-adv-x="828" 
d="M366 344v344h129l82 -222h4l81 222h130v-344h-93l4 233h-4l-85 -233h-71l-85 233h-4l4 -233h-92zM4 610v78h319v-78h-112v-266h-93v266h-114z" />
    <glyph glyph-name="Eth" unicode="&#xd0;" horiz-adv-x="735" 
d="M4 304v82h77v302h245c241 0 365 -145 365 -344s-124 -344 -365 -344h-245v304h-77zM317 577h-102v-191h149v-82h-149v-193h102c172 0 236 108 236 233s-64 233 -236 233z" />
    <glyph glyph-name="onehalf" unicode="&#xbd;" horiz-adv-x="811" 
d="M473 0c0 108 57 150 120 178l17 9c44 19 70 34 70 55c0 25 -18 39 -51 39s-55 -18 -57 -55h-95c2 89 74 126 151 126c91 0 150 -41 150 -107c0 -61 -42 -88 -105 -116l-18 -8c-40 -18 -63 -32 -63 -44h184v-77h-303zM207 -12c62 128 285 584 348 712h81l-348 -712h-81z
M78 533l-40 67l149 88h61v-267h92v-77h-290v77h96v150z" />
    <glyph glyph-name="plusminus" unicode="&#xb1;" horiz-adv-x="568" 
d="M60 327v100h171v160h106v-160h175v-100h-175v-160h-106v160h-171zM56 0v100h456v-100h-456z" />
    <glyph glyph-name="Thorn" unicode="&#xde;" horiz-adv-x="675" 
d="M81 0v688h134v-106h162c164 0 255 -94 255 -228c0 -136 -91 -235 -255 -235h-162v-119h-134zM365 474h-150v-248h150c87 0 131 54 131 126c0 73 -44 122 -131 122z" />
    <glyph glyph-name="onequarter" unicode="&#xbc;" horiz-adv-x="811" 
d="M465 58v56l188 232h86v-215h46v-73h-46v-58h-100v58h-174zM229 -12l348 712h81l-348 -712h-81zM78 533l-40 67l149 88h61v-267h92v-77h-290v77h96v150zM561 131h78v99z" />
    <glyph glyph-name="divide" unicode="&#xf7;" horiz-adv-x="568" 
d="M227 380v117h114v-117h-114zM56 205v100h456v-100h-456zM227 12v117h114v-117h-114z" />
    <glyph glyph-name="brokenbar" unicode="&#xa6;" horiz-adv-x="285" 
d="M88 336v352h109v-352h-109zM88 -164v352h109v-352h-109z" />
    <glyph glyph-name="degree" unicode="&#xb0;" horiz-adv-x="397" 
d="M198 399c-91 0 -158 61 -158 150c0 90 67 151 158 151s159 -61 159 -151c0 -89 -68 -150 -159 -150zM198 621c-37 0 -68 -27 -68 -72c0 -44 31 -72 68 -72c38 0 68 28 68 72c0 45 -30 72 -68 72z" />
    <glyph glyph-name="thorn" unicode="&#xfe;" horiz-adv-x="615" 
d="M577 248c0 -164 -102 -260 -228 -260c-71 0 -124 28 -152 82h-4c6 -66 6 -131 6 -164v-126h-129v952h129v-150c0 -33 0 -99 -6 -164h4c28 54 85 82 160 82c123 0 220 -88 220 -252zM445 248c0 98 -50 154 -122 154c-71 0 -122 -57 -124 -151v-7c0 -98 51 -158 124 -158
c72 0 122 64 122 162z" />
    <glyph glyph-name="threequarters" unicode="&#xbe;" horiz-adv-x="811" 
d="M465 58v56l188 232h86v-215h46v-73h-46v-58h-100v58h-174zM35 450h92c0 -32 22 -51 56 -51s57 16 57 46c0 29 -23 45 -60 45h-21v60h21c34 0 53 15 53 41c0 27 -17 42 -50 42c-31 0 -50 -18 -50 -47h-90c2 72 59 110 143 110c86 0 143 -39 143 -98c0 -40 -25 -68 -58 -76
v-3c40 -9 68 -38 68 -81c0 -67 -57 -102 -156 -102c-91 0 -146 33 -148 114zM211 -12c63 128 286 584 348 712h81l-348 -712h-81zM561 131h78v99z" />
    <glyph glyph-name="twosuperior" unicode="&#xe107;" 
d="M28 496c0 108 57 150 121 178l17 9c44 19 70 34 70 55c0 25 -18 39 -51 39s-55 -18 -57 -55h-96c3 89 74 126 151 126c92 0 151 -41 151 -107c0 -61 -42 -88 -105 -116l-18 -8c-41 -18 -63 -32 -63 -44h184v-77h-304z" />
    <glyph glyph-name="registered" unicode="&#xae;" horiz-adv-x="776" 
d="M34 348c0 201 149 352 354 352c201 0 354 -151 354 -352s-149 -360 -354 -360s-354 159 -354 360zM115 348c0 -162 112 -293 273 -293c157 0 273 131 273 293s-112 281 -273 281s-273 -119 -273 -281zM241 176v344h168c88 0 134 -43 134 -112c0 -46 -27 -86 -73 -104
l85 -128h-95l-72 117h-59v-117h-88zM404 449h-75v-87h75c33 0 51 17 51 44s-19 43 -51 43z" />
    <glyph glyph-name="minus" unicode="&#x2212;" horiz-adv-x="568" 
d="M58 205v100h452v-100h-452z" />
    <glyph glyph-name="eth" unicode="&#xf0;" horiz-adv-x="609" 
d="M213 503l-39 56l78 54c-32 15 -68 28 -109 41l33 90c65 -19 122 -40 171 -66l92 64l39 -55l-69 -48c98 -72 154 -176 154 -369v-2c0 -187 -104 -280 -260 -280c-161 0 -259 96 -259 240s106 240 242 240c50 0 103 -16 135 -51h5c-20 70 -54 119 -109 158zM175 228
c0 -83 51 -142 128 -142s128 59 128 142c0 85 -51 142 -128 142s-128 -59 -128 -142z" />
    <glyph glyph-name="multiply" unicode="&#xd7;" horiz-adv-x="568" 
d="M67 401l72 71l145 -147l145 147l72 -71l-146 -147l148 -149l-72 -71l-147 148l-147 -148l-72 71l148 149z" />
    <glyph glyph-name="threesuperior" unicode="&#xe108;" 
d="M35 602h92c0 -32 22 -51 56 -51s57 16 57 46c0 29 -23 45 -60 45h-21v60h21c34 0 53 15 53 41c0 27 -17 42 -50 42c-31 0 -50 -18 -50 -47h-90c2 72 59 110 143 110c86 0 143 -39 143 -98c0 -40 -25 -68 -58 -76v-3c40 -9 68 -38 68 -81c0 -67 -57 -102 -156 -102
c-91 0 -146 33 -148 114z" />
    <glyph glyph-name="copyright" unicode="&#xa9;" horiz-adv-x="776" 
d="M34 348c0 201 149 352 354 352c201 0 354 -151 354 -352s-149 -360 -354 -360s-354 159 -354 360zM115 348c0 -162 112 -293 273 -293c157 0 273 131 273 293s-112 281 -273 281s-273 -119 -273 -281zM214 348c0 97 66 176 176 176c84 0 142 -48 154 -120h-85
c-9 25 -26 47 -69 47c-52 0 -85 -46 -85 -103c0 -58 33 -104 85 -104c43 0 60 22 69 47h85c-12 -72 -70 -119 -154 -119c-110 0 -176 78 -176 176z" />
    <glyph glyph-name="Aacute" unicode="&#xc1;" horiz-adv-x="686" 
d="M8 0l256 688h158l256 -688h-142l-53 154h-285l-54 -154h-136zM344 561h-4l-105 -299h211zM297 768l100 164h136l-148 -164h-88z" />
    <glyph glyph-name="Acircumflex" unicode="&#xc2;" horiz-adv-x="686" 
d="M8 0l256 688h158l256 -688h-142l-53 154h-285l-54 -154h-136zM344 561h-4l-105 -299h211zM165 768l128 164h98l128 -164h-106l-71 99l-71 -99h-106z" />
    <glyph glyph-name="Adieresis" unicode="&#xc4;" horiz-adv-x="686" 
d="M8 0l256 688h158l256 -688h-142l-53 154h-285l-54 -154h-136zM344 561h-4l-105 -299h211zM392 797v116h118v-116h-118zM174 797v116h117v-116h-117z" />
    <glyph glyph-name="Agrave" unicode="&#xc0;" horiz-adv-x="686" 
d="M8 0l256 688h158l256 -688h-142l-53 154h-285l-54 -154h-136zM344 561h-4l-105 -299h211zM299 768l-148 164h135l101 -164h-88z" />
    <glyph glyph-name="Aring" unicode="&#xc5;" horiz-adv-x="686" 
d="M8 0l256 688h158l256 -688h-142l-53 154h-285l-54 -154h-136zM344 561h-4l-105 -299h211zM342 755c-60 0 -107 42 -107 101c0 61 48 102 107 102c58 0 107 -41 107 -102c0 -59 -47 -101 -107 -101zM342 808c26 0 48 20 48 48s-22 49 -48 49s-48 -21 -48 -49
s22 -48 48 -48z" />
    <glyph glyph-name="Atilde" unicode="&#xc3;" horiz-adv-x="686" 
d="M8 0l256 688h158l256 -688h-142l-53 154h-285l-54 -154h-136zM344 561h-4l-105 -299h211zM167 787c1 76 37 124 103 124c60 0 109 -44 148 -44c26 0 36 25 38 48h61c-2 -77 -37 -125 -103 -125c-61 0 -109 45 -148 45c-26 0 -36 -25 -38 -48h-61z" />
    <glyph glyph-name="Ccedilla" unicode="&#xc7;" horiz-adv-x="732" 
d="M336 -88l27 77c-199 10 -319 157 -319 355c0 203 134 356 343 356c170 0 279 -93 305 -239h-134c-22 80 -80 124 -171 124c-126 0 -205 -99 -205 -241c0 -139 81 -241 205 -241c97 0 149 44 171 124h134c-25 -140 -127 -230 -284 -238v-27c60 -2 92 -39 92 -86
c0 -54 -37 -96 -117 -96h-67v62h53c29 0 47 8 47 36c0 24 -18 34 -47 34h-33z" />
    <glyph glyph-name="Eacute" unicode="&#xc9;" horiz-adv-x="640" 
d="M81 0v688h499v-111h-365v-173h294v-106h-294v-187h374v-111h-508zM286 768l100 164h136l-148 -164h-88z" />
    <glyph glyph-name="Ecircumflex" unicode="&#xca;" horiz-adv-x="640" 
d="M81 0v688h499v-111h-365v-173h294v-106h-294v-187h374v-111h-508zM154 768l128 164h98l128 -164h-106l-71 99l-71 -99h-106z" />
    <glyph glyph-name="Edieresis" unicode="&#xcb;" horiz-adv-x="640" 
d="M81 0v688h499v-111h-365v-173h294v-106h-294v-187h374v-111h-508zM381 797v116h118v-116h-118zM163 797v116h117v-116h-117z" />
    <glyph glyph-name="Egrave" unicode="&#xc8;" horiz-adv-x="640" 
d="M81 0v688h499v-111h-365v-173h294v-106h-294v-187h374v-111h-508zM288 768l-148 164h135l101 -164h-88z" />
    <glyph glyph-name="Iacute" unicode="&#xcd;" horiz-adv-x="296" 
d="M81 0v688h134v-688h-134zM103 768l100 164h136l-148 -164h-88z" />
    <glyph glyph-name="Icircumflex" unicode="&#xce;" horiz-adv-x="296" 
d="M81 0v688h134v-688h-134zM-29 768l128 164h98l128 -164h-106l-71 99l-71 -99h-106z" />
    <glyph glyph-name="Idieresis" unicode="&#xcf;" horiz-adv-x="296" 
d="M81 0v688h134v-688h-134zM198 797v116h118v-116h-118zM-20 797v116h117v-116h-117z" />
    <glyph glyph-name="Igrave" unicode="&#xcc;" horiz-adv-x="296" 
d="M81 0v688h134v-688h-134zM105 768l-148 164h135l101 -164h-88z" />
    <glyph glyph-name="Ntilde" unicode="&#xd1;" horiz-adv-x="762" 
d="M81 0v688h121l345 -460h4l-4 460h134v-688h-119l-347 460h-4l4 -460h-134zM206 787c1 76 37 124 103 124c60 0 109 -44 148 -44c26 0 36 25 38 48h61c-2 -77 -37 -125 -103 -125c-61 0 -109 45 -148 45c-26 0 -36 -25 -38 -48h-61z" />
    <glyph glyph-name="Oacute" unicode="&#xd3;" horiz-adv-x="789" 
d="M44 344c0 205 138 356 351 356c209 0 350 -151 350 -356s-141 -356 -350 -356c-213 0 -351 151 -351 356zM182 344c0 -140 85 -241 213 -241c127 0 212 102 212 241s-85 241 -212 241c-128 0 -213 -101 -213 -241zM350 768l100 164h136l-148 -164h-88z" />
    <glyph glyph-name="Ocircumflex" unicode="&#xd4;" horiz-adv-x="789" 
d="M44 344c0 205 138 356 351 356c209 0 350 -151 350 -356s-141 -356 -350 -356c-213 0 -351 151 -351 356zM182 344c0 -140 85 -241 213 -241c127 0 212 102 212 241s-85 241 -212 241c-128 0 -213 -101 -213 -241zM218 768l128 164h98l128 -164h-106l-71 99l-71 -99h-106
z" />
    <glyph glyph-name="Odieresis" unicode="&#xd6;" horiz-adv-x="789" 
d="M44 344c0 205 138 356 351 356c209 0 350 -151 350 -356s-141 -356 -350 -356c-213 0 -351 151 -351 356zM182 344c0 -140 85 -241 213 -241c127 0 212 102 212 241s-85 241 -212 241c-128 0 -213 -101 -213 -241zM445 797v116h118v-116h-118zM227 797v116h117v-116h-117
z" />
    <glyph glyph-name="Ograve" unicode="&#xd2;" horiz-adv-x="789" 
d="M44 344c0 205 138 356 351 356c209 0 350 -151 350 -356s-141 -356 -350 -356c-213 0 -351 151 -351 356zM182 344c0 -140 85 -241 213 -241c127 0 212 102 212 241s-85 241 -212 241c-128 0 -213 -101 -213 -241zM352 768l-148 164h135l101 -164h-88z" />
    <glyph glyph-name="Otilde" unicode="&#xd5;" horiz-adv-x="789" 
d="M44 344c0 205 138 356 351 356c209 0 350 -151 350 -356s-141 -356 -350 -356c-213 0 -351 151 -351 356zM182 344c0 -140 85 -241 213 -241c127 0 212 102 212 241s-85 241 -212 241c-128 0 -213 -101 -213 -241zM220 787c1 76 37 124 103 124c60 0 109 -44 148 -44
c26 0 36 25 38 48h61c-2 -77 -37 -125 -103 -125c-61 0 -109 45 -148 45c-26 0 -36 -25 -38 -48h-61z" />
    <glyph glyph-name="Scaron" unicode="&#x160;" horiz-adv-x="668" 
d="M50 196h131c0 -66 59 -108 148 -108c96 0 152 38 152 104c0 158 -420 27 -420 301c0 118 105 207 270 207c161 0 265 -77 265 -198h-131c0 63 -57 98 -134 98s-136 -32 -136 -94c0 -157 423 -25 423 -301c0 -129 -104 -217 -289 -217c-181 0 -279 80 -279 208zM282 768
l-128 164h106l71 -99l71 99h106l-128 -164h-98z" />
    <glyph glyph-name="Uacute" unicode="&#xda;" horiz-adv-x="729" 
d="M68 276v412h135v-410c0 -112 53 -175 162 -175c108 0 161 63 161 175v410h135v-412c0 -214 -122 -288 -296 -288s-297 74 -297 288zM320 768l100 164h136l-148 -164h-88z" />
    <glyph glyph-name="Ucircumflex" unicode="&#xdb;" horiz-adv-x="729" 
d="M68 276v412h135v-410c0 -112 53 -175 162 -175c108 0 161 63 161 175v410h135v-412c0 -214 -122 -288 -296 -288s-297 74 -297 288zM188 768l128 164h98l128 -164h-106l-71 99l-71 -99h-106z" />
    <glyph glyph-name="Udieresis" unicode="&#xdc;" horiz-adv-x="729" 
d="M68 276v412h135v-410c0 -112 53 -175 162 -175c108 0 161 63 161 175v410h135v-412c0 -214 -122 -288 -296 -288s-297 74 -297 288zM415 797v116h118v-116h-118zM197 797v116h117v-116h-117z" />
    <glyph glyph-name="Ugrave" unicode="&#xd9;" horiz-adv-x="729" 
d="M68 276v412h135v-410c0 -112 53 -175 162 -175c108 0 161 63 161 175v410h135v-412c0 -214 -122 -288 -296 -288s-297 74 -297 288zM322 768l-148 164h135l101 -164h-88z" />
    <glyph glyph-name="Yacute" unicode="&#xdd;" horiz-adv-x="665" 
d="M263 0v264l-253 424h152l169 -296h4l178 296h142l-257 -420v-268h-135zM288 768l100 164h136l-148 -164h-88z" />
    <glyph glyph-name="Ydieresis" unicode="&#x178;" horiz-adv-x="665" 
d="M263 0v264l-253 424h152l169 -296h4l178 296h142l-257 -420v-268h-135zM383 797v116h118v-116h-118zM165 797v116h117v-116h-117z" />
    <glyph glyph-name="Zcaron" unicode="&#x17d;" horiz-adv-x="612" 
d="M49 578v110h528v-78l-367 -500h365v-110h-541v78l368 500h-353zM257 768l-128 164h106l71 -99l71 99h106l-128 -164h-98z" />
    <glyph glyph-name="aacute" unicode="&#xe1;" horiz-adv-x="557" 
d="M42 126c0 82 50 131 166 149l94 14c52 8 62 16 62 39c-1 48 -27 82 -87 82s-92 -31 -96 -80h-120c7 109 95 170 216 170c144 0 216 -62 216 -178v-322h-123v58h-6c-29 -44 -83 -70 -156 -70c-109 0 -166 56 -166 138zM245 78c61 0 119 37 119 119v43
c-9 -13 -26 -19 -48 -23l-75 -12c-52 -9 -72 -32 -72 -66c0 -38 26 -61 76 -61zM222 568l100 164h136l-148 -164h-88z" />
    <glyph glyph-name="acircumflex" unicode="&#xe2;" horiz-adv-x="557" 
d="M42 126c0 82 50 131 166 149l94 14c52 8 62 16 62 39c-1 48 -27 82 -87 82s-92 -31 -96 -80h-120c7 109 95 170 216 170c144 0 216 -62 216 -178v-322h-123v58h-6c-29 -44 -83 -70 -156 -70c-109 0 -166 56 -166 138zM245 78c61 0 119 37 119 119v43
c-9 -13 -26 -19 -48 -23l-75 -12c-52 -9 -72 -32 -72 -66c0 -38 26 -61 76 -61zM98 568l128 164h98l128 -164h-106l-71 99l-71 -99h-106z" />
    <glyph glyph-name="adieresis" unicode="&#xe4;" horiz-adv-x="557" 
d="M42 126c0 82 50 131 166 149l94 14c52 8 62 16 62 39c-1 48 -27 82 -87 82s-92 -31 -96 -80h-120c7 109 95 170 216 170c144 0 216 -62 216 -178v-322h-123v58h-6c-29 -44 -83 -70 -156 -70c-109 0 -166 56 -166 138zM245 78c61 0 119 37 119 119v43
c-9 -13 -26 -19 -48 -23l-75 -12c-52 -9 -72 -32 -72 -66c0 -38 26 -61 76 -61zM325 597v116h118v-116h-118zM107 597v116h117v-116h-117z" />
    <glyph glyph-name="agrave" unicode="&#xe0;" horiz-adv-x="557" 
d="M42 126c0 82 50 131 166 149l94 14c52 8 62 16 62 39c-1 48 -27 82 -87 82s-92 -31 -96 -80h-120c7 109 95 170 216 170c144 0 216 -62 216 -178v-322h-123v58h-6c-29 -44 -83 -70 -156 -70c-109 0 -166 56 -166 138zM245 78c61 0 119 37 119 119v43
c-9 -13 -26 -19 -48 -23l-75 -12c-52 -9 -72 -32 -72 -66c0 -38 26 -61 76 -61zM240 568l-148 164h135l101 -164h-88z" />
    <glyph glyph-name="aring" unicode="&#xe5;" horiz-adv-x="557" 
d="M42 126c0 82 50 131 166 149l94 14c52 8 62 16 62 39c-1 48 -27 82 -87 82s-92 -31 -96 -80h-120c7 109 95 170 216 170c144 0 216 -62 216 -178v-322h-123v58h-6c-29 -44 -83 -70 -156 -70c-109 0 -166 56 -166 138zM245 78c61 0 119 37 119 119v43
c-9 -13 -26 -19 -48 -23l-75 -12c-52 -9 -72 -32 -72 -66c0 -38 26 -61 76 -61zM275 555c-60 0 -107 42 -107 101c0 61 48 102 107 102c58 0 107 -41 107 -102c0 -59 -47 -101 -107 -101zM275 608c26 0 48 20 48 48s-22 49 -48 49s-48 -21 -48 -49s22 -48 48 -48z" />
    <glyph glyph-name="atilde" unicode="&#xe3;" horiz-adv-x="557" 
d="M42 126c0 82 50 131 166 149l94 14c52 8 62 16 62 39c-1 48 -27 82 -87 82s-92 -31 -96 -80h-120c7 109 95 170 216 170c144 0 216 -62 216 -178v-322h-123v58h-6c-29 -44 -83 -70 -156 -70c-109 0 -166 56 -166 138zM245 78c61 0 119 37 119 119v43
c-9 -13 -26 -19 -48 -23l-75 -12c-52 -9 -72 -32 -72 -66c0 -38 26 -61 76 -61zM100 587c1 76 37 124 103 124c60 0 109 -44 148 -44c26 0 36 25 38 48h61c-2 -77 -37 -125 -103 -125c-61 0 -109 45 -148 45c-26 0 -36 -25 -38 -48h-61z" />
    <glyph glyph-name="ccedilla" unicode="&#xe7;" horiz-adv-x="553" 
d="M239 -88l27 77c-142 9 -230 100 -230 255c0 160 104 256 254 256c144 0 222 -81 233 -182h-127c-7 44 -40 84 -106 84c-72 0 -121 -65 -121 -158s49 -158 121 -158c67 0 98 40 106 84h127c-11 -96 -80 -174 -212 -181v-27c60 -2 92 -39 92 -86c0 -54 -37 -96 -117 -96
h-67v62h53c29 0 47 8 47 36c0 24 -18 34 -47 34h-33z" />
    <glyph glyph-name="eacute" unicode="&#xe9;" horiz-adv-x="564" 
d="M36 242c0 158 104 258 253 258c146 0 239 -88 239 -243v-36h-360c6 -88 52 -139 125 -139c64 0 95 35 105 66h125c-15 -87 -102 -160 -232 -160c-161 0 -255 91 -255 254zM289 407c-60 0 -102 -37 -117 -106h225c-9 73 -45 106 -108 106zM244 568l100 164h136l-148 -164
h-88z" />
    <glyph glyph-name="ecircumflex" unicode="&#xea;" horiz-adv-x="564" 
d="M36 242c0 158 104 258 253 258c146 0 239 -88 239 -243v-36h-360c6 -88 52 -139 125 -139c64 0 95 35 105 66h125c-15 -87 -102 -160 -232 -160c-161 0 -255 91 -255 254zM289 407c-60 0 -102 -37 -117 -106h225c-9 73 -45 106 -108 106zM112 568l128 164h98l128 -164
h-106l-71 99l-71 -99h-106z" />
    <glyph glyph-name="edieresis" unicode="&#xeb;" horiz-adv-x="564" 
d="M36 242c0 158 104 258 253 258c146 0 239 -88 239 -243v-36h-360c6 -88 52 -139 125 -139c64 0 95 35 105 66h125c-15 -87 -102 -160 -232 -160c-161 0 -255 91 -255 254zM289 407c-60 0 -102 -37 -117 -106h225c-9 73 -45 106 -108 106zM339 597v116h118v-116h-118z
M121 597v116h117v-116h-117z" />
    <glyph glyph-name="egrave" unicode="&#xe8;" horiz-adv-x="564" 
d="M36 242c0 158 104 258 253 258c146 0 239 -88 239 -243v-36h-360c6 -88 52 -139 125 -139c64 0 95 35 105 66h125c-15 -87 -102 -160 -232 -160c-161 0 -255 91 -255 254zM289 407c-60 0 -102 -37 -117 -106h225c-9 73 -45 106 -108 106zM246 568l-148 164h135l101 -164
h-88z" />
    <glyph glyph-name="iacute" unicode="&#xed;" horiz-adv-x="269" 
d="M70 0v488h129v-488h-129zM90 568l100 164h136l-148 -164h-88z" />
    <glyph glyph-name="icircumflex" unicode="&#xee;" horiz-adv-x="269" 
d="M70 0v488h129v-488h-129zM-42 568l128 164h98l128 -164h-106l-71 99l-71 -99h-106z" />
    <glyph glyph-name="idieresis" unicode="&#xef;" horiz-adv-x="269" 
d="M70 0v488h129v-488h-129zM185 597v116h118v-116h-118zM-33 597v116h117v-116h-117z" />
    <glyph glyph-name="igrave" unicode="&#xec;" horiz-adv-x="269" 
d="M70 0v488h129v-488h-129zM92 568l-148 164h135l101 -164h-88z" />
    <glyph glyph-name="ntilde" unicode="&#xf1;" horiz-adv-x="599" 
d="M70 0v488h123v-70h4c28 54 82 82 150 82c100 0 188 -52 188 -204v-296h-129v280c0 90 -38 120 -95 120c-64 0 -112 -53 -112 -143v-257h-129zM127 587c1 76 37 124 103 124c60 0 109 -44 148 -44c26 0 36 25 38 48h61c-2 -77 -37 -125 -103 -125c-61 0 -109 45 -148 45
c-26 0 -36 -25 -38 -48h-61z" />
    <glyph glyph-name="oacute" unicode="&#xf3;" horiz-adv-x="593" 
d="M38 244c0 160 109 256 259 256c155 0 258 -94 258 -256c0 -160 -109 -256 -258 -256c-156 0 -259 94 -259 256zM171 244c0 -97 50 -158 126 -158s125 61 125 158c0 99 -49 157 -125 157s-126 -60 -126 -157zM252 568l100 164h136l-148 -164h-88z" />
    <glyph glyph-name="ocircumflex" unicode="&#xf4;" horiz-adv-x="593" 
d="M38 244c0 160 109 256 259 256c155 0 258 -94 258 -256c0 -160 -109 -256 -258 -256c-156 0 -259 94 -259 256zM171 244c0 -97 50 -158 126 -158s125 61 125 158c0 99 -49 157 -125 157s-126 -60 -126 -157zM120 568l128 164h98l128 -164h-106l-71 99l-71 -99h-106z" />
    <glyph glyph-name="odieresis" unicode="&#xf6;" horiz-adv-x="593" 
d="M38 244c0 160 109 256 259 256c155 0 258 -94 258 -256c0 -160 -109 -256 -258 -256c-156 0 -259 94 -259 256zM171 244c0 -97 50 -158 126 -158s125 61 125 158c0 99 -49 157 -125 157s-126 -60 -126 -157zM347 597v116h118v-116h-118zM129 597v116h117v-116h-117z" />
    <glyph glyph-name="ograve" unicode="&#xf2;" horiz-adv-x="593" 
d="M38 244c0 160 109 256 259 256c155 0 258 -94 258 -256c0 -160 -109 -256 -258 -256c-156 0 -259 94 -259 256zM171 244c0 -97 50 -158 126 -158s125 61 125 158c0 99 -49 157 -125 157s-126 -60 -126 -157zM254 568l-148 164h135l101 -164h-88z" />
    <glyph glyph-name="otilde" unicode="&#xf5;" horiz-adv-x="593" 
d="M38 244c0 160 109 256 259 256c155 0 258 -94 258 -256c0 -160 -109 -256 -258 -256c-156 0 -259 94 -259 256zM171 244c0 -97 50 -158 126 -158s125 61 125 158c0 99 -49 157 -125 157s-126 -60 -126 -157zM122 587c1 76 37 124 103 124c60 0 109 -44 148 -44
c26 0 36 25 38 48h61c-2 -77 -37 -125 -103 -125c-61 0 -109 45 -148 45c-26 0 -36 -25 -38 -48h-61z" />
    <glyph glyph-name="scaron" unicode="&#x161;" horiz-adv-x="527" 
d="M34 140h121c0 -50 52 -67 102 -67c67 0 103 22 103 61c0 34 -25 47 -72 55l-89 14c-84 13 -152 46 -152 138c0 103 92 159 215 159s213 -48 213 -148h-119c0 45 -43 63 -95 63c-53 0 -90 -21 -90 -57c0 -31 20 -46 77 -55l88 -14c79 -13 152 -44 152 -138
c0 -110 -96 -163 -231 -163c-130 0 -223 48 -223 152zM213 568l-128 164h106l71 -99l71 99h106l-128 -164h-98z" />
    <glyph glyph-name="uacute" unicode="&#xfa;" horiz-adv-x="595" 
d="M62 192v296h129v-280c0 -90 38 -120 95 -120c63 0 110 52 110 142v258h128v-488h-122v70h-4c-28 -54 -80 -82 -148 -82c-100 0 -188 52 -188 204zM254 568l100 164h136l-148 -164h-88z" />
    <glyph glyph-name="ucircumflex" unicode="&#xfb;" horiz-adv-x="595" 
d="M62 192v296h129v-280c0 -90 38 -120 95 -120c63 0 110 52 110 142v258h128v-488h-122v70h-4c-28 -54 -80 -82 -148 -82c-100 0 -188 52 -188 204zM122 568l128 164h98l128 -164h-106l-71 99l-71 -99h-106z" />
    <glyph glyph-name="udieresis" unicode="&#xfc;" horiz-adv-x="595" 
d="M62 192v296h129v-280c0 -90 38 -120 95 -120c63 0 110 52 110 142v258h128v-488h-122v70h-4c-28 -54 -80 -82 -148 -82c-100 0 -188 52 -188 204zM349 597v116h118v-116h-118zM131 597v116h117v-116h-117z" />
    <glyph glyph-name="ugrave" unicode="&#xf9;" horiz-adv-x="595" 
d="M62 192v296h129v-280c0 -90 38 -120 95 -120c63 0 110 52 110 142v258h128v-488h-122v70h-4c-28 -54 -80 -82 -148 -82c-100 0 -188 52 -188 204zM256 568l-148 164h135l101 -164h-88z" />
    <glyph glyph-name="yacute" unicode="&#xfd;" horiz-adv-x="518" 
d="M184 0l-180 488h140l118 -361h4l117 361h131l-195 -548c-30 -87 -86 -168 -198 -168h-59v102h30c56 0 95 25 116 91l11 35h-35zM213 568l100 164h136l-148 -164h-88z" />
    <glyph glyph-name="ydieresis" unicode="&#xff;" horiz-adv-x="518" 
d="M184 0l-180 488h140l118 -361h4l117 361h131l-195 -548c-30 -87 -86 -168 -198 -168h-59v102h30c56 0 95 25 116 91l11 35h-35zM308 597v116h118v-116h-118zM90 597v116h117v-116h-117z" />
    <glyph glyph-name="zcaron" unicode="&#x17e;" horiz-adv-x="479" 
d="M32 390v98h411v-75l-246 -315h250v-98h-413v70l250 320h-252zM189 568l-128 164h106l71 -99l71 99h106l-128 -164h-98z" />
    <glyph glyph-name="Dcroat" unicode="&#x110;" horiz-adv-x="735" 
d="M4 304v82h77v302h245c241 0 365 -145 365 -344s-124 -344 -365 -344h-245v304h-77zM317 577h-102v-191h149v-82h-149v-193h102c172 0 236 108 236 233s-64 233 -236 233z" />
    <glyph glyph-name="Eng" unicode="&#x14a;" horiz-adv-x="762" 
d="M81 0v688h121l347 -460h4l-6 460h134v-709c0 -147 -54 -199 -191 -199h-59v106h40c55 0 83 25 83 97v27l-341 450h-4l6 -460h-134z" />
    <glyph glyph-name="Hbar" unicode="&#x126;" horiz-adv-x="754" 
d="M2 510v81h79v97h134v-97h324v97h134v-97h79v-81h-79v-510h-134v291h-324v-291h-134v510h-79zM215 510v-105h324v105h-324z" />
    <glyph glyph-name="Tbar" unicode="&#x166;" horiz-adv-x="616" 
d="M8 576v112h599v-112h-232v-231h175v-79h-175v-266h-134v266h-175v79h175v231h-233z" />
    <glyph glyph-name="longs" unicode="&#x17f;" horiz-adv-x="341" 
d="M94 0v392h-92v96h92v65c0 123 54 179 183 179h74v-100h-48c-62 0 -80 -23 -80 -83v-549h-129z" />
    <glyph glyph-name="dcroat" unicode="&#x111;" horiz-adv-x="615" 
d="M274 588v70h142v74h129v-74h70v-70h-70v-588h-123v70h-4c-28 -54 -85 -82 -160 -82c-122 0 -220 88 -220 252s102 260 228 260c72 0 124 -28 152 -82h4c-6 65 -6 131 -6 164v6h-142zM171 240c0 -98 49 -154 122 -154c72 0 123 60 123 158v7c-3 94 -53 151 -123 151
c-73 0 -122 -64 -122 -162z" />
    <glyph glyph-name="eng" unicode="&#x14b;" horiz-adv-x="599" 
d="M406 -46v326c0 90 -38 120 -95 120c-64 0 -112 -53 -112 -143v-257h-129v488h123v-70h4c28 54 82 82 150 82c100 0 188 -52 188 -204v-351c0 -103 -40 -165 -171 -165h-42v100h26c44 0 58 24 58 74z" />
    <glyph glyph-name="hbar" unicode="&#x127;" horiz-adv-x="599" 
d="M0 588v70h70v74h129v-74h142v-70h-142v-6c0 -33 0 -99 -6 -164h4c28 54 82 82 150 82c100 0 188 -52 188 -204v-296h-129v280c0 90 -38 120 -95 120c-64 0 -112 -53 -112 -144v-256h-129v588h-70z" />
    <glyph glyph-name="napostrophe" unicode="&#x149;" horiz-adv-x="599" 
d="M70 0v488h123v-70h4c28 54 82 82 150 82c100 0 188 -52 188 -204v-296h-129v280c0 90 -38 120 -95 120c-64 0 -112 -53 -112 -143v-257h-129zM78 568l35 96h-50v101h118v-89l-50 -108h-53z" />
    <glyph glyph-name="tbar" unicode="&#x167;" horiz-adv-x="361" 
d="M-4 217v69h92v106h-92v96h92v148h128v-148h121v-96h-121v-106h121v-69h-121v-45c0 -48 17 -68 68 -68h53v-104h-79c-120 0 -170 44 -170 157v60h-92z" />
    <glyph glyph-name="IJ" unicode="&#x132;" horiz-adv-x="854" 
d="M81 0v688h134v-688h-134zM334 207v30h132v-30c0 -78 38 -108 92 -108c53 0 91 30 91 114v475h134v-472c0 -164 -88 -228 -225 -228c-132 0 -224 63 -224 219z" />
    <glyph glyph-name="ij" unicode="&#x133;" horiz-adv-x="539" 
d="M66 612v120h137v-120h-137zM70 0v488h129v-488h-129zM336 612v120h136v-120h-136zM340 -46v534h128v-543c0 -103 -39 -165 -171 -165h-41v100h26c44 0 58 24 58 74z" />
    <glyph glyph-name="Euro" unicode="&#x20ac;" horiz-adv-x="568" 
d="M9 383l19 67h51c24 146 102 250 251 250c136 0 202 -78 224 -195h-121c-17 61 -45 91 -100 91c-67 0 -107 -50 -123 -146h183l-19 -67h-171v-73h167l-20 -68h-140c15 -99 55 -150 123 -150c49 0 78 25 96 80h122c-25 -110 -91 -184 -221 -184c-150 0 -229 105 -252 254
h-88l20 68h62c-1 11 -1 22 -1 34c0 13 0 26 1 39h-63z" />
    <glyph glyph-name="afii61352" unicode="&#x2116;" horiz-adv-x="1214" 
d="M73 0v688h124l342 -461h4l-4 461h135v-688h-122l-344 460h-4l4 -460h-135zM795 516c0 110 72 181 185 181c115 0 186 -71 186 -181s-73 -180 -186 -180c-115 0 -185 70 -185 180zM796 0v75h368v-75h-368zM796 174v75h368v-75h-368zM900 516c0 -61 30 -101 80 -101
s80 40 80 101c0 62 -30 101 -80 101s-80 -40 -80 -101z" />
    <glyph glyph-name="estimated" unicode="&#x212e;" horiz-adv-x="850" 
d="M184 113c60 -63 146 -103 243 -103c102 0 193 44 255 117h58c-72 -84 -187 -139 -314 -139c-219 0 -397 158 -397 356c0 197 178 356 397 356c218 0 396 -159 396 -356v-10h-641c-4 0 -7 -1 -7 -4v-194c0 -8 4 -16 10 -23zM181 355h492c2 0 4 2 4 6v193
c0 10 -3 17 -10 24c-61 62 -147 100 -240 100c-96 0 -182 -41 -242 -103c-7 -7 -11 -16 -11 -26v-188c0 -4 3 -6 7 -6z" />
    <glyph glyph-name="a.sc" unicode="&#xf761;" horiz-adv-x="570" 
d="M6 0l204 520h152l202 -520h-136l-36 103h-219l-37 -103h-130zM282 403l-74 -204h150l-72 204h-4z" />
    <glyph glyph-name="b.sc" unicode="&#xf762;" horiz-adv-x="609" 
d="M81 0v520h284c118 0 176 -51 176 -136c0 -46 -24 -91 -86 -106v-3c70 -11 110 -61 110 -123c0 -87 -64 -152 -182 -152h-302zM359 222h-150v-129h150c48 0 73 27 73 66c0 38 -27 63 -73 63zM343 427h-134v-115h134c45 0 67 26 67 61c0 32 -20 54 -67 54z" />
    <glyph glyph-name="c.sc" unicode="&#xf763;" horiz-adv-x="599" 
d="M38 260c0 159 107 272 279 272c135 0 229 -76 249 -189h-126c-15 47 -53 81 -122 81c-91 0 -147 -66 -147 -164c0 -97 56 -164 147 -164c70 0 105 35 122 81h126c-20 -111 -112 -189 -251 -189c-174 0 -277 118 -277 272z" />
    <glyph glyph-name="d.sc" unicode="&#xf764;" horiz-adv-x="624" 
d="M81 0v520h227c179 0 277 -107 277 -260c0 -149 -97 -260 -278 -260h-226zM293 418h-84v-316h84c116 0 160 74 160 158c0 86 -44 158 -160 158z" />
    <glyph glyph-name="e.sc" unicode="&#xf765;" horiz-adv-x="556" 
d="M81 0v520h415v-98h-287v-112h232v-93h-232v-119h296v-98h-424z" />
    <glyph glyph-name="f.sc" unicode="&#xf766;" horiz-adv-x="526" 
d="M81 0v520h405v-98h-277v-142h223v-95h-223v-185h-128z" />
    <glyph glyph-name="g.sc" unicode="&#xf767;" horiz-adv-x="651" 
d="M333 195v90h248v-285h-82l-10 54h-3c-34 -40 -86 -66 -164 -66c-172 0 -280 118 -280 272c0 157 114 272 289 272c142 0 234 -80 250 -175h-129c-11 33 -51 69 -121 69c-96 0 -156 -68 -156 -166c0 -99 59 -168 156 -168c76 0 133 40 136 103h-134z" />
    <glyph glyph-name="h.sc" unicode="&#xf768;" horiz-adv-x="652" 
d="M81 0v520h128v-205h234v205h128v-520h-128v209h-234v-209h-128z" />
    <glyph glyph-name="i.sc" unicode="&#xf769;" horiz-adv-x="290" 
d="M81 0v520h128v-520h-128z" />
    <glyph glyph-name="j.sc" unicode="&#xf76a;" horiz-adv-x="484" 
d="M38 163v22h125v-27c0 -46 24 -68 63 -68c38 0 64 22 64 70v360h128v-342c0 -133 -76 -190 -192 -190c-112 0 -188 53 -188 175z" />
    <glyph glyph-name="k.sc" unicode="&#xf76b;" horiz-adv-x="600" 
d="M81 0v520h128v-235l217 235h148l-215 -226l231 -294h-150l-164 208l-67 -71v-137h-128z" />
    <glyph glyph-name="l.sc" unicode="&#xf76c;" horiz-adv-x="492" 
d="M81 0v520h128v-412h259v-108h-387z" />
    <glyph glyph-name="m.sc" unicode="&#xf76d;" horiz-adv-x="799" 
d="M81 0v520h172l147 -352h2l150 352h167v-520h-127l10 353h-4l-154 -353h-92l-151 353h-3l9 -353h-126z" />
    <glyph glyph-name="n.sc" unicode="&#xf76e;" horiz-adv-x="652" 
d="M81 0v520h111l251 -317h4l-4 317h128v-520h-109l-253 317h-5l5 -317h-128z" />
    <glyph glyph-name="o.sc" unicode="&#xf76f;" horiz-adv-x="650" 
d="M38 260c0 156 116 272 287 272c170 0 287 -116 287 -272s-115 -272 -287 -272c-170 0 -287 116 -287 272zM171 260c0 -95 62 -164 154 -164c93 0 154 67 154 164c0 95 -62 164 -154 164s-154 -67 -154 -164z" />
    <glyph glyph-name="p.sc" unicode="&#xf770;" horiz-adv-x="581" 
d="M81 0v520h263c127 0 199 -74 199 -178c0 -106 -72 -181 -199 -181h-135v-161h-128zM327 422h-118v-163h118c56 0 85 33 85 82c0 47 -29 81 -85 81z" />
    <glyph glyph-name="q.sc" unicode="&#xf771;" horiz-adv-x="650" 
d="M38 260c0 156 116 272 287 272c170 0 287 -116 287 -272c0 -77 -28 -145 -78 -193l99 -101l-79 -73l-112 115c-35 -13 -74 -20 -117 -20c-170 0 -287 116 -287 272zM171 260c0 -95 62 -164 154 -164c93 0 154 67 154 164c0 95 -62 164 -154 164s-154 -67 -154 -164z" />
    <glyph glyph-name="r.sc" unicode="&#xf772;" horiz-adv-x="601" 
d="M81 0v520h265c128 0 197 -64 197 -167c0 -77 -39 -136 -111 -161l135 -192h-141l-121 179h-96v-179h-128zM331 422h-122v-146h122c54 0 81 29 81 75c0 43 -29 71 -81 71z" />
    <glyph glyph-name="s.sc" unicode="&#xf773;" horiz-adv-x="554" 
d="M40 150h127c0 -46 41 -72 106 -72s106 22 106 68c0 107 -330 5 -330 219c0 96 81 167 228 167c140 0 216 -64 216 -158h-122c0 44 -41 68 -94 68c-57 0 -98 -19 -98 -64c0 -110 332 -9 332 -219c0 -104 -82 -171 -238 -171c-151 0 -233 62 -233 162z" />
    <glyph glyph-name="t.sc" unicode="&#xf774;" horiz-adv-x="538" 
d="M24 415v105h490v-105h-181v-415h-128v415h-181z" />
    <glyph glyph-name="u.sc" unicode="&#xf775;" horiz-adv-x="620" 
d="M65 212v308h128v-305c0 -73 39 -118 116 -118c78 0 118 45 118 118v305h128v-308c0 -169 -104 -224 -246 -224s-244 55 -244 224z" />
    <glyph glyph-name="v.sc" unicode="&#xf776;" horiz-adv-x="562" 
d="M200 0l-194 520h138l137 -403h4l142 403h129l-194 -520h-162z" />
    <glyph glyph-name="w.sc" unicode="&#xf777;" horiz-adv-x="811" 
d="M147 0l-135 520h136l88 -387h4l110 387h117l111 -387h4l82 387h134l-134 -520h-158l-97 353h-3l-99 -353h-160z" />
    <glyph glyph-name="x.sc" unicode="&#xf778;" horiz-adv-x="553" 
d="M6 0l195 266l-187 254h152l115 -165l110 165h146l-185 -253l195 -267h-146l-129 181l-124 -181h-142z" />
    <glyph glyph-name="y.sc" unicode="&#xf779;" horiz-adv-x="556" 
d="M212 0v196l-208 324h146l128 -209h3l134 209h137l-211 -321v-199h-129z" />
    <glyph glyph-name="z.sc" unicode="&#xf77a;" horiz-adv-x="528" 
d="M45 416v104h443v-73l-274 -343h271v-104h-449v73l276 343h-267z" />
    <glyph glyph-name="dcroat.sc" unicode="&#xf676;" horiz-adv-x="624" 
d="M4 224v72h77v224h227c179 0 277 -107 277 -260c0 -149 -97 -260 -278 -260h-226v224h-77zM293 418h-84v-122h104v-72h-104v-122h84c116 0 160 74 160 158c0 86 -44 158 -160 158z" />
    <glyph glyph-name="hbar.sc" unicode="&#xf681;" horiz-adv-x="652" 
d="M10 384v71h71v65h128v-65h234v65h128v-65h71v-71h-71v-384h-128v209h-234v-209h-128v384h-71zM209 384v-69h234v69h-234z" />
    <glyph glyph-name="dotlessi.sc" unicode="&#xe08e;" horiz-adv-x="290" 
d="M81 0v520h128v-520h-128z" />
    <glyph glyph-name="oslash.sc" unicode="&#xf7f8;" horiz-adv-x="650" 
d="M54 -12l65 76c-51 49 -81 117 -81 196c0 156 116 272 287 272c59 0 112 -15 156 -40l34 40h83l-66 -78c51 -48 80 -116 80 -194c0 -156 -115 -272 -287 -272c-59 0 -111 14 -155 38l-32 -38h-84zM171 260c0 -39 10 -74 28 -101l206 243c-23 14 -50 22 -80 22
c-92 0 -154 -67 -154 -164zM479 260c0 38 -10 72 -28 99l-205 -243c23 -13 49 -20 79 -20c93 0 154 67 154 164z" />
    <glyph glyph-name="tbar.sc" unicode="&#xf69c;" horiz-adv-x="538" 
d="M24 415v105h490v-105h-181v-158h139v-71h-139v-186h-128v186h-135v71h135v158h-181z" />
    <glyph glyph-name="eng.sc" unicode="&#xf67b;" horiz-adv-x="652" 
d="M81 0v520h111l251 -315h4l-4 315h128v-541c0 -147 -56 -199 -192 -199h-56v102h41c54 0 82 25 82 97v43l-237 293h-5l5 -315h-128z" />
    <glyph glyph-name="eth.sc" unicode="&#xf7f0;" horiz-adv-x="624" 
d="M4 224v72h77v224h227c179 0 277 -107 277 -260c0 -149 -97 -260 -278 -260h-226v224h-77zM293 418h-84v-122h104v-72h-104v-122h84c116 0 160 74 160 158c0 86 -44 158 -160 158z" />
    <glyph glyph-name="thorn.sc" unicode="&#xf7fe;" horiz-adv-x="581" 
d="M81 0v520h128v-74h135c127 0 199 -74 199 -178c0 -106 -72 -181 -199 -181h-135v-87h-128zM327 347h-118v-162h118c56 0 85 33 85 81s-29 81 -85 81z" />
    <glyph glyph-name="germandbls.sc" unicode="&#xe0a4;" horiz-adv-x="1108" 
d="M40 150h127c0 -46 41 -72 106 -72s106 22 106 68c0 107 -330 5 -330 219c0 96 81 167 228 167c140 0 216 -64 216 -158h-122c0 44 -41 68 -94 68c-57 0 -98 -19 -98 -64c0 -110 332 -9 332 -219c0 -104 -82 -171 -238 -171c-151 0 -233 62 -233 162zM594 150h127
c0 -46 41 -72 106 -72s106 22 106 68c0 107 -330 5 -330 219c0 96 81 167 228 167c140 0 216 -64 216 -158h-122c0 44 -41 68 -94 68c-57 0 -98 -19 -98 -64c0 -110 332 -9 332 -219c0 -104 -82 -171 -238 -171c-151 0 -233 62 -233 162z" />
    <glyph glyph-name="ae.sc" unicode="&#xf7e6;" horiz-adv-x="909" 
d="M-4 0l390 520h461v-98h-287v-112h233v-93h-233v-119h297v-98h-425v102h-220l-73 -102h-143zM428 403l-147 -205h151v205h-4z" />
    <glyph glyph-name="oe.sc" unicode="&#xf6fa;" horiz-adv-x="892" 
d="M316 0c-179 0 -278 107 -278 260c0 149 98 260 279 260h513v-98h-287v-112h233v-93h-233v-119h297v-98h-524zM171 260c0 -86 44 -158 160 -158h84v316h-84c-116 0 -160 -74 -160 -158z" />
    <glyph glyph-name="ij.sc" unicode="&#xf684;" horiz-adv-x="778" 
d="M81 0v520h128v-520h-128zM330 163v22h125v-25c0 -46 24 -70 63 -70c38 0 63 25 63 72v358h129v-342c0 -133 -76 -190 -192 -190c-112 0 -188 53 -188 175z" />
    <glyph glyph-name="ampersand.sc" unicode="&#xf726;" horiz-adv-x="608" 
d="M39 137c0 74 56 114 120 144c-43 47 -53 76 -53 112c0 70 51 136 170 136c115 0 164 -53 164 -128c0 -71 -60 -107 -124 -136l112 -102c12 23 19 51 19 85v12h104v-15c0 -53 -16 -106 -48 -150l104 -95h-140l-34 30c-43 -26 -98 -42 -165 -42c-154 0 -229 57 -229 149z
M269 75c29 0 62 6 91 21l-141 126c-36 -19 -62 -41 -62 -74c0 -45 44 -73 112 -73zM214 397c0 -22 11 -41 42 -74c45 20 79 41 79 74c0 32 -21 54 -62 54c-35 0 -59 -22 -59 -54z" />
    <glyph glyph-name="exclam.sc" unicode="&#xf721;" horiz-adv-x="280" 
d="M103 163l-30 217v140h134v-140l-30 -217h-74zM77 0v119h126v-119h-126z" />
    <glyph glyph-name="exclamdown.sc" unicode="&#xf7a1;" horiz-adv-x="280" 
d="M77 401v119h126v-119h-126zM73 0v140l30 217h74l30 -217v-140h-134z" />
    <glyph glyph-name="question.sc" unicode="&#xf73f;" horiz-adv-x="477" 
d="M173 163v16c0 142 154 131 154 203c0 34 -35 60 -91 60c-61 0 -92 -36 -92 -80h-117c0 89 63 170 211 170c126 0 212 -54 212 -149c0 -127 -161 -120 -161 -201v-19h-116zM169 0v119h124v-119h-124z" />
    <glyph glyph-name="questiondown.sc" unicode="&#xf7bf;" horiz-adv-x="477" 
d="M304 357v-16c0 -142 -154 -131 -154 -203c0 -34 35 -60 91 -60c61 0 92 36 92 80h117c0 -89 -63 -170 -211 -170c-125 0 -212 54 -212 149c0 127 162 120 162 201v19h115zM308 520v-119h-124v119h124z" />
    <glyph glyph-name="zero.oldstyle" unicode="&#xf730;" horiz-adv-x="610" 
d="M36 244c0 146 104 256 269 256c169 0 268 -110 268 -256s-103 -256 -268 -256c-170 0 -269 110 -269 256zM165 244c0 -98 62 -156 140 -156s140 58 140 156c0 101 -62 156 -140 156s-140 -58 -140 -156z" />
    <glyph glyph-name="one.oldstyle" unicode="&#xf731;" horiz-adv-x="386" 
d="M65 254l-53 92l209 142h85v-488h-128v331z" />
    <glyph glyph-name="two.oldstyle" unicode="&#xf732;" horiz-adv-x="523" 
d="M34 0c0 153 76 212 174 247l50 18c57 20 98 33 98 79c0 29 -21 64 -89 64c-64 0 -99 -34 -103 -94h-122c4 137 116 186 227 186c129 0 214 -60 214 -156c0 -104 -79 -130 -155 -158l-51 -18c-52 -19 -91 -42 -93 -72h295v-96h-445z" />
    <glyph glyph-name="three.oldstyle" unicode="&#xf733;" horiz-adv-x="557" 
d="M20 8h126c0 -79 50 -122 124 -122s124 43 124 109c0 65 -50 109 -124 109h-50v102h50c61 0 106 42 106 101c0 58 -44 95 -106 95s-105 -36 -105 -106h-119c0 131 91 204 224 204c136 0 229 -73 229 -187c0 -67 -45 -133 -104 -153v-4c76 -18 130 -84 130 -166
c0 -129 -110 -202 -255 -202c-148 0 -250 72 -250 220z" />
    <glyph glyph-name="four.oldstyle" unicode="&#xf734;" horiz-adv-x="567" 
d="M18 -24v82l335 437h106v-415h98v-104h-98v-176h-128v176h-313zM150 80h181v232z" />
    <glyph glyph-name="five.oldstyle" unicode="&#xf735;" horiz-adv-x="537" 
d="M30 -16h126c7 -45 43 -96 118 -96c64 0 119 46 119 125c0 80 -53 127 -117 127c-54 0 -85 -28 -109 -61l-113 10l24 399h403v-106h-290l-11 -183h4c24 24 63 41 118 41c112 0 219 -70 219 -220c0 -154 -115 -232 -244 -232c-154 0 -236 78 -247 196z" />
    <glyph glyph-name="six.oldstyle" unicode="&#xf736;" horiz-adv-x="585" 
d="M40 326c0 273 121 374 269 374c143 0 214 -78 226 -188h-125c-7 49 -37 88 -101 88c-70 0 -130 -50 -136 -231c26 43 86 71 156 71c117 0 222 -75 222 -222c0 -149 -116 -230 -245 -230c-148 0 -266 81 -266 338zM305 340c-74 0 -120 -53 -120 -129
c0 -71 48 -123 118 -123s119 47 119 127c0 74 -50 125 -117 125z" />
    <glyph glyph-name="seven.oldstyle" unicode="&#xf737;" horiz-adv-x="489" 
d="M64 -200l271 577h-319v111h457v-79l-277 -609h-132z" />
    <glyph glyph-name="eight.oldstyle" unicode="&#xf738;" horiz-adv-x="574" 
d="M30 186c0 86 58 154 130 170v4c-59 18 -103 80 -103 151c0 116 94 189 230 189s230 -73 230 -189c0 -69 -44 -133 -103 -151v-4c72 -16 130 -84 130 -170c0 -127 -104 -198 -257 -198s-257 71 -257 198zM161 195c0 -66 50 -109 126 -109s126 43 126 109
c0 64 -52 109 -126 109s-126 -45 -126 -109zM287 406c62 0 108 41 108 100s-46 98 -108 98s-108 -39 -108 -98s46 -100 108 -100z" />
    <glyph glyph-name="nine.oldstyle" unicode="&#xf739;" horiz-adv-x="581" 
d="M541 164c0 -277 -116 -376 -268 -376c-141 0 -219 78 -227 188h125c6 -49 39 -88 102 -88c73 0 128 50 134 231c-25 -43 -86 -71 -155 -71c-117 0 -222 75 -222 222c0 149 117 230 245 230c149 0 266 -79 266 -336zM276 148c74 0 120 53 120 129c0 71 -49 123 -117 123
c-70 0 -120 -47 -120 -127c0 -74 51 -125 117 -125z" />
    <glyph glyph-name="a.superior" unicode="&#xf6e9;" horiz-adv-x="405" 
d="M34 585c0 59 35 96 116 106l64 8c37 5 44 11 44 31c0 26 -17 48 -55 48c-34 0 -58 -16 -61 -53h-94c6 89 76 123 155 123c102 0 157 -42 157 -131v-221h-98v41h-4c-19 -30 -51 -49 -108 -49c-76 0 -116 39 -116 97zM185 557c38 0 73 21 73 76v26c-6 -8 -16 -12 -31 -14
l-45 -6c-35 -4 -46 -22 -46 -41c0 -26 18 -41 49 -41z" />
    <glyph glyph-name="b.superior" unicode="&#xf6ea;" horiz-adv-x="441" 
d="M46 496v516h103v-109c0 -23 0 -60 -4 -114h3c19 37 56 60 115 60c78 0 148 -59 148 -178c0 -121 -75 -183 -156 -183c-56 0 -88 20 -107 59h-3v-51h-99zM149 668c0 -61 31 -101 79 -101s78 41 78 104c0 60 -30 98 -78 98s-79 -40 -79 -101z" />
    <glyph glyph-name="d.superior" unicode="&#xf6eb;" horiz-adv-x="441" 
d="M30 665c0 121 76 184 156 184c58 0 89 -21 107 -60h3c-3 54 -3 95 -3 119v104h102v-516h-98v51h-4c-18 -39 -56 -59 -114 -59c-78 0 -149 59 -149 177zM136 665c0 -60 30 -98 78 -98c45 0 76 36 79 92v9c0 61 -31 101 -79 101c-49 0 -78 -41 -78 -104z" />
    <glyph glyph-name="e.superior" unicode="&#xf6ec;" horiz-adv-x="417" 
d="M30 668c0 108 74 180 181 180s176 -63 176 -178v-24h-253c6 -56 36 -83 83 -83c43 0 60 17 67 37h97c-11 -63 -70 -111 -169 -111c-111 0 -182 68 -182 179zM211 774c-42 0 -66 -24 -75 -66h145c-7 44 -30 66 -70 66z" />
    <glyph glyph-name="g.superior" unicode="&#xe0a3;" horiz-adv-x="441" 
d="M42 455h97c2 -32 28 -46 71 -46c62 0 87 35 87 115v23h-4c-18 -38 -56 -59 -114 -59c-78 0 -149 59 -149 177c0 121 76 184 156 184c56 0 89 -21 107 -60h4v51h98v-315c0 -145 -71 -190 -187 -190c-99 0 -159 37 -166 120zM136 665c0 -60 30 -98 78 -98s79 40 79 101v9
c-3 56 -34 92 -79 92c-49 0 -78 -41 -78 -104z" />
    <glyph glyph-name="h.superior" unicode="&#xf637;" horiz-adv-x="427" 
d="M46 496v516h103v-110c0 -22 0 -60 -4 -112h3c20 41 57 59 108 59c68 0 128 -37 128 -136v-217h-102v193c0 58 -26 78 -62 78c-40 0 -71 -29 -71 -86v-185h-103z" />
    <glyph glyph-name="i.superior" unicode="&#xf6ed;" horiz-adv-x="191" 
d="M41 915v97h109v-97h-109zM44 496v344h102v-344h-102z" />
    <glyph glyph-name="l.superior" unicode="&#xf6ee;" horiz-adv-x="195" 
d="M46 496v516h103v-516h-103z" />
    <glyph glyph-name="m.superior" unicode="&#xf6ef;" horiz-adv-x="645" 
d="M46 496v344h99v-50h3c20 41 54 59 105 59c46 0 89 -19 110 -67c25 51 66 67 117 67c63 0 122 -35 122 -133v-220h-102v197c0 55 -21 74 -56 74c-41 0 -69 -30 -69 -89v-182h-101v196c0 55 -22 75 -58 75c-39 0 -67 -30 -67 -89v-182h-103z" />
    <glyph glyph-name="n.superior" unicode="&#x207f;" horiz-adv-x="427" 
d="M46 496v344h99v-50h3c20 41 57 59 108 59c68 0 128 -37 128 -136v-217h-102v193c0 58 -26 78 -62 78c-42 0 -71 -32 -71 -89v-182h-103z" />
    <glyph glyph-name="o.superior" unicode="&#xf6f0;" horiz-adv-x="431" 
d="M30 668c0 110 73 181 185 181c116 0 186 -71 186 -181s-72 -180 -186 -180c-115 0 -185 70 -185 180zM136 668c0 -61 29 -101 79 -101c51 0 81 40 81 101c0 62 -30 101 -81 101c-50 0 -79 -40 -79 -101z" />
    <glyph glyph-name="r.superior" unicode="&#xf6f1;" horiz-adv-x="293" 
d="M46 496v344h100v-65h4c16 41 43 74 89 74c14 0 30 -3 48 -16l-18 -92c-15 9 -30 11 -43 11c-53 0 -76 -53 -76 -115v-141h-104z" />
    <glyph glyph-name="s.superior" unicode="&#xf6f2;" horiz-adv-x="386" 
d="M28 601h95c3 -31 31 -48 70 -48c36 0 63 12 63 37c0 26 -24 31 -53 36l-53 9c-75 11 -116 39 -116 101c0 73 67 113 159 113s151 -40 156 -108h-94c-5 29 -27 42 -61 42c-37 0 -60 -13 -60 -34c0 -22 16 -28 52 -35l53 -10c71 -11 119 -30 119 -101
c0 -79 -72 -115 -166 -115c-96 0 -158 37 -164 113z" />
    <glyph glyph-name="t.superior" unicode="&#xf6f3;" horiz-adv-x="272" 
d="M71 618v140h-63v82h63v104h102v-104h82v-82h-82v-126c0 -36 9 -50 46 -50h36v-86h-50c-102 0 -134 30 -134 122z" />
    <glyph glyph-name="period.superior" unicode="&#xf6e8;" horiz-adv-x="202" 
d="M52 496v103h99v-103h-99z" />
    <glyph glyph-name="comma.superior" unicode="&#xf6e2;" horiz-adv-x="202" 
d="M52 496v103h99v-99l-32 -123h-49l24 119h-42z" />
    <glyph glyph-name="dollar.superior" unicode="&#xf6e4;" 
d="M28 596h92c2 -29 28 -46 63 -46c32 0 57 13 57 38c0 66 -206 9 -206 148c0 55 40 98 112 109v55h75v-55c65 -11 104 -50 108 -99h-95c-3 24 -24 38 -51 38c-29 0 -53 -10 -53 -36c0 -68 207 -12 207 -148c0 -63 -40 -101 -116 -110v-62h-75v62c-76 9 -116 48 -118 106z
" />
    <glyph glyph-name="cent.superior" unicode="&#xf6e0;" 
d="M32 666c0 69 43 115 118 127v55h75v-55c71 -11 105 -56 109 -98h-98c-3 17 -19 35 -47 35c-35 0 -56 -22 -56 -64s21 -64 56 -64c28 0 44 18 47 36h98c-4 -43 -38 -89 -109 -100v-50h-75v51c-75 12 -118 58 -118 127z" />
    <glyph glyph-name="hyphen.superior" unicode="&#xf6e6;" horiz-adv-x="287" 
d="M34 630v80h219v-80h-219z" />
    <glyph glyph-name="parenleft.superior" unicode="&#x207d;" horiz-adv-x="240" 
d="M140 424c-38 46 -80 140 -80 244s42 198 80 244h92c-34 -42 -80 -141 -80 -244s46 -202 80 -244h-92z" />
    <glyph glyph-name="parenright.superior" unicode="&#x207e;" horiz-adv-x="240" 
d="M8 424c34 42 80 141 80 244s-46 202 -80 244h92c38 -46 80 -140 80 -244s-42 -198 -80 -244h-92z" />
    <glyph glyph-name="period.inferior" unicode="&#xf6e7;" horiz-adv-x="202" 
d="M52 -152v103h99v-103h-99z" />
    <glyph glyph-name="comma.inferior" unicode="&#xf6e1;" horiz-adv-x="202" 
d="M52 -152v103h99v-99l-32 -123h-49l24 119h-42z" />
    <glyph glyph-name="dollar.inferior" unicode="&#xf6e3;" 
d="M28 -52h92c2 -29 28 -46 63 -46c32 0 57 13 57 38c0 66 -206 9 -206 148c0 55 40 98 112 109v55h75v-55c65 -11 104 -50 108 -99h-95c-3 24 -24 38 -51 38c-29 0 -53 -10 -53 -36c0 -68 207 -12 207 -148c0 -63 -40 -101 -116 -110v-62h-75v62c-76 9 -116 48 -118 106z
" />
    <glyph glyph-name="cent.inferior" unicode="&#xf6df;" 
d="M32 18c0 69 43 115 118 127v55h75v-55c71 -11 105 -56 109 -98h-98c-3 17 -19 35 -47 35c-35 0 -56 -22 -56 -64s21 -64 56 -64c28 0 44 18 47 36h98c-4 -43 -38 -89 -109 -100v-50h-75v51c-75 12 -118 58 -118 127z" />
    <glyph glyph-name="hyphen.inferior" unicode="&#xf6e5;" horiz-adv-x="287" 
d="M34 -18v80h219v-80h-219z" />
    <glyph glyph-name="parenleft.inferior" unicode="&#x208d;" horiz-adv-x="240" 
d="M140 -224c-38 46 -80 140 -80 244s42 198 80 244h92c-34 -42 -80 -141 -80 -244s46 -202 80 -244h-92z" />
    <glyph glyph-name="parenright.inferior" unicode="&#x208e;" horiz-adv-x="240" 
d="M8 -224c34 42 80 141 80 244s-46 202 -80 244h92c38 -46 80 -140 80 -244s-42 -198 -80 -244h-92z" />
    <glyph glyph-name="zero.numerator" unicode="&#xf661;" 
d="M183 336c-109 0 -161 78 -161 180s52 180 161 180c110 0 161 -78 161 -180s-51 -180 -161 -180zM183 413c42 0 63 38 63 103s-20 103 -63 103c-42 0 -62 -38 -62 -103s21 -103 62 -103z" />
    <glyph glyph-name="one.numerator" unicode="&#xf662;" 
d="M78 533l-40 67l149 88h61v-267h92v-77h-290v77h96v150z" />
    <glyph glyph-name="two.numerator" unicode="&#xf663;" 
d="M28 344c0 108 57 150 121 178l17 9c44 19 70 34 70 55c0 25 -18 39 -51 39s-55 -18 -57 -55h-96c3 89 74 126 151 126c92 0 151 -41 151 -107c0 -61 -42 -88 -105 -116l-18 -8c-41 -18 -63 -32 -63 -44h184v-77h-304z" />
    <glyph glyph-name="three.numerator" unicode="&#xf664;" 
d="M35 450h92c0 -32 22 -51 56 -51s57 16 57 46c0 29 -23 45 -60 45h-21v60h21c34 0 53 15 53 41c0 27 -17 42 -50 42c-31 0 -50 -18 -50 -47h-90c2 72 59 110 143 110c86 0 143 -39 143 -98c0 -40 -25 -68 -58 -76v-3c40 -9 68 -38 68 -81c0 -67 -57 -102 -156 -102
c-91 0 -146 33 -148 114z" />
    <glyph glyph-name="four.numerator" unicode="&#xf665;" 
d="M20 402v56l188 232h86v-215h47v-73h-47v-58h-100v58h-174zM117 475h77v98z" />
    <glyph glyph-name="five.numerator" unicode="&#xf666;" 
d="M39 436h97c3 -19 18 -38 49 -38c27 0 50 18 50 53s-23 51 -50 51c-24 0 -39 -11 -47 -29l-92 9l14 206h253v-75h-171l-6 -73h3c12 13 33 24 72 24c61 0 120 -28 120 -111c0 -76 -64 -117 -143 -117c-100 0 -143 43 -149 100z" />
    <glyph glyph-name="six.numerator" unicode="&#xf667;" 
d="M326 594h-94c-1 21 -17 37 -41 37c-29 0 -54 -15 -59 -96c14 17 48 29 82 29c61 0 120 -28 120 -111c0 -76 -64 -117 -143 -117c-92 0 -159 43 -159 172c0 138 69 188 161 188c88 0 130 -41 133 -102zM188 502c-26 0 -50 -15 -50 -51c0 -35 23 -53 50 -53
c28 0 50 18 50 53s-22 51 -50 51z" />
    <glyph glyph-name="seven.numerator" unicode="&#xf668;" 
d="M74 344l148 261h-190v83h306v-59l-160 -285h-104z" />
    <glyph glyph-name="eight.numerator" unicode="&#xf669;" 
d="M28 434c0 45 28 76 68 84v4c-33 8 -58 36 -58 76c0 59 56 98 145 98s146 -39 146 -98c0 -40 -25 -68 -58 -76v-4c39 -8 68 -39 68 -84c0 -63 -57 -98 -156 -98s-155 35 -155 98zM127 445c0 -30 23 -46 56 -46c34 0 57 16 57 46c0 29 -23 45 -57 45c-33 0 -56 -16 -56 -45
zM133 591c0 -26 19 -41 50 -41c32 0 50 15 50 41c0 27 -18 42 -50 42c-31 0 -50 -15 -50 -42z" />
    <glyph glyph-name="nine.numerator" unicode="&#xf66a;" 
d="M36 438h95c1 -21 21 -37 45 -37c28 0 49 17 53 95c-9 -17 -43 -28 -77 -28c-64 0 -124 26 -124 105c0 76 63 123 144 123c92 0 158 -43 158 -172c0 -140 -64 -188 -156 -188c-88 0 -134 41 -138 102zM175 530c27 0 50 16 50 51s-23 53 -50 53c-28 0 -50 -18 -50 -53
s22 -51 50 -51z" />
    <glyph glyph-name="period.numerator" unicode="&#xf66c;" horiz-adv-x="202" 
d="M52 344v103h99v-103h-99z" />
    <glyph glyph-name="comma.numerator" unicode="&#xf66b;" horiz-adv-x="202" 
d="M52 344v103h99v-99l-32 -123h-49l24 119h-42z" />
    <glyph glyph-name="dollar.numerator" unicode="&#xf62f;" 
d="M28 444h92c2 -29 28 -46 63 -46c32 0 57 13 57 38c0 66 -206 9 -206 148c0 55 40 98 112 109v55h75v-55c65 -11 104 -50 108 -99h-95c-3 24 -24 38 -51 38c-29 0 -53 -10 -53 -36c0 -68 207 -12 207 -148c0 -63 -40 -101 -116 -110v-62h-75v62c-76 9 -116 48 -118 106z
" />
    <glyph glyph-name="cent.numerator" unicode="&#xf62e;" 
d="M32 514c0 69 43 115 118 127v55h75v-55c71 -11 105 -56 109 -98h-98c-3 17 -19 35 -47 35c-35 0 -56 -22 -56 -64s21 -64 56 -64c28 0 44 18 47 36h98c-4 -43 -38 -89 -109 -100v-50h-75v51c-75 12 -118 58 -118 127z" />
    <glyph glyph-name="hyphen.numerator" unicode="&#xf630;" horiz-adv-x="287" 
d="M34 478v80h219v-80h-219z" />
    <glyph glyph-name="parenleft.numerator" unicode="&#xf631;" horiz-adv-x="240" 
d="M140 272c-38 46 -80 140 -80 244s42 198 80 244h92c-34 -42 -80 -141 -80 -244s46 -202 80 -244h-92z" />
    <glyph glyph-name="parenright.numerator" unicode="&#xf632;" horiz-adv-x="240" 
d="M8 272c34 42 80 141 80 244s-46 202 -80 244h92c38 -46 80 -140 80 -244s-42 -198 -80 -244h-92z" />
    <glyph glyph-name="zero.denominator" unicode="&#xf655;" 
d="M183 -8c-109 0 -161 78 -161 180s52 180 161 180c110 0 161 -78 161 -180s-51 -180 -161 -180zM183 69c42 0 63 38 63 103s-20 103 -63 103c-42 0 -62 -38 -62 -103s21 -103 62 -103z" />
    <glyph glyph-name="one.denominator" unicode="&#xf656;" 
d="M78 189l-40 67l149 88h61v-267h92v-77h-290v77h96v150z" />
    <glyph glyph-name="two.denominator" unicode="&#xf657;" 
d="M28 0c0 108 57 150 121 178l17 9c44 19 70 34 70 55c0 25 -18 39 -51 39s-55 -18 -57 -55h-96c3 89 74 126 151 126c92 0 151 -41 151 -107c0 -61 -42 -88 -105 -116l-18 -8c-41 -18 -63 -32 -63 -44h184v-77h-304z" />
    <glyph glyph-name="three.denominator" unicode="&#xf658;" 
d="M35 106h92c0 -32 22 -51 56 -51s57 16 57 46c0 29 -23 45 -60 45h-21v60h21c34 0 53 15 53 41c0 27 -17 42 -50 42c-31 0 -50 -18 -50 -47h-90c2 72 59 110 143 110c86 0 143 -39 143 -98c0 -40 -25 -68 -58 -76v-3c40 -9 68 -38 68 -81c0 -67 -57 -102 -156 -102
c-91 0 -146 33 -148 114z" />
    <glyph glyph-name="four.denominator" unicode="&#xf659;" 
d="M20 58v56l188 232h86v-215h47v-73h-47v-58h-100v58h-174zM117 131h77v98z" />
    <glyph glyph-name="five.denominator" unicode="&#xf65a;" 
d="M39 92h97c3 -19 18 -38 49 -38c27 0 50 18 50 53s-23 51 -50 51c-24 0 -39 -11 -47 -29l-92 9l14 206h253v-75h-171l-6 -73h3c12 13 33 24 72 24c61 0 120 -28 120 -111c0 -76 -64 -117 -143 -117c-100 0 -143 43 -149 100z" />
    <glyph glyph-name="six.denominator" unicode="&#xf65b;" 
d="M326 250h-94c-1 21 -17 37 -41 37c-29 0 -54 -15 -59 -96c14 17 48 29 82 29c61 0 120 -28 120 -111c0 -76 -64 -117 -143 -117c-92 0 -159 43 -159 172c0 138 69 188 161 188c88 0 130 -41 133 -102zM188 158c-26 0 -50 -15 -50 -51c0 -35 23 -53 50 -53
c28 0 50 18 50 53s-22 51 -50 51z" />
    <glyph glyph-name="seven.denominator" unicode="&#xf65c;" 
d="M74 0l148 261h-190v83h306v-59l-160 -285h-104z" />
    <glyph glyph-name="eight.denominator" unicode="&#xf65d;" 
d="M28 90c0 45 28 76 68 84v4c-33 8 -58 36 -58 76c0 59 56 98 145 98s146 -39 146 -98c0 -40 -25 -68 -58 -76v-4c39 -8 68 -39 68 -84c0 -63 -57 -98 -156 -98s-155 35 -155 98zM127 101c0 -30 23 -46 56 -46c34 0 57 16 57 46c0 29 -23 45 -57 45c-33 0 -56 -16 -56 -45z
M133 247c0 -26 19 -41 50 -41c32 0 50 15 50 41c0 27 -18 42 -50 42c-31 0 -50 -15 -50 -42z" />
    <glyph glyph-name="nine.denominator" unicode="&#xf65e;" 
d="M36 94h95c1 -21 21 -37 45 -37c28 0 49 17 53 95c-9 -17 -43 -28 -77 -28c-64 0 -124 26 -124 105c0 76 63 123 144 123c92 0 158 -43 158 -172c0 -140 -64 -188 -156 -188c-88 0 -134 41 -138 102zM175 186c27 0 50 16 50 51s-23 53 -50 53c-28 0 -50 -18 -50 -53
s22 -51 50 -51z" />
    <glyph glyph-name="period.denominator" unicode="&#xf660;" horiz-adv-x="202" 
d="M52 0v103h99v-103h-99z" />
    <glyph glyph-name="comma.denominator" unicode="&#xf65f;" horiz-adv-x="202" 
d="M52 0v103h99v-99l-32 -123h-49l24 119h-42z" />
    <glyph glyph-name="dollar.denominator" unicode="&#xf62a;" 
d="M28 100h92c2 -29 28 -46 63 -46c32 0 57 13 57 38c0 66 -206 9 -206 148c0 55 40 98 112 109v55h75v-55c65 -11 104 -50 108 -99h-95c-3 24 -24 38 -51 38c-29 0 -53 -10 -53 -36c0 -68 207 -12 207 -148c0 -63 -40 -101 -116 -110v-62h-75v62c-76 9 -116 48 -118 106z
" />
    <glyph glyph-name="cent.denominator" unicode="&#xf629;" 
d="M32 170c0 69 43 115 118 127v55h75v-55c71 -11 105 -56 109 -98h-98c-3 17 -19 35 -47 35c-35 0 -56 -22 -56 -64s21 -64 56 -64c28 0 44 18 47 36h98c-4 -43 -38 -89 -109 -100v-50h-75v51c-75 12 -118 58 -118 127z" />
    <glyph glyph-name="hyphen.denominator" unicode="&#xf62b;" horiz-adv-x="287" 
d="M34 134v80h219v-80h-219z" />
    <glyph glyph-name="parenleft.denominator" unicode="&#xf62c;" horiz-adv-x="240" 
d="M140 -72c-38 46 -80 140 -80 244s42 198 80 244h92c-34 -42 -80 -141 -80 -244s46 -202 80 -244h-92z" />
    <glyph glyph-name="parenright.denominator" unicode="&#xf62d;" horiz-adv-x="240" 
d="M8 -72c34 42 80 141 80 244s-46 202 -80 244h92c38 -46 80 -140 80 -244s-42 -198 -80 -244h-92z" />
    <glyph glyph-name="uni2190" unicode="&#x2190;" horiz-adv-x="660" 
d="M352 58l-67 -63l-257 257l257 257l67 -63l-149 -148c64 4 131 4 164 4h265v-100h-265c-33 0 -100 0 -164 4z" />
    <glyph glyph-name="uni2192" unicode="&#x2192;" horiz-adv-x="660" 
d="M375 -5l-67 63l148 148c-64 -4 -130 -4 -163 -4h-265v100h265c33 0 99 0 163 -4l-148 148l67 63l257 -257z" />
    <glyph glyph-name="emdash.cap" unicode="&#xf6bc;" horiz-adv-x="840" 
d="M53 293v110h734v-110h-734z" />
    <glyph glyph-name="endash.cap" unicode="&#xf6bb;" horiz-adv-x="556" 
d="M53 293v110h450v-110h-450z" />
    <glyph glyph-name="exclamdown.cap" unicode="&#xf6b4;" horiz-adv-x="287" 
d="M77 556v132h133v-132h-133zM73 0v188l34 295h74l33 -295v-188h-141z" />
    <glyph glyph-name="guillemotleft.cap" unicode="&#xf6b6;" horiz-adv-x="562" 
d="M408 144l-142 204l142 204h105l-112 -204l112 -204h-105zM190 144l-142 204l142 204h106l-113 -204l113 -204h-106z" />
    <glyph glyph-name="guillemotright.cap" unicode="&#xf6b7;" horiz-adv-x="562" 
d="M266 144l112 204l-112 204h105l142 -204l-142 -204h-105zM48 144l113 204l-113 204h105l143 -204l-143 -204h-105z" />
    <glyph glyph-name="guilsinglleft.cap" unicode="&#xf6b8;" horiz-adv-x="346" 
d="M192 144l-144 204l144 204h105l-112 -204l112 -204h-105z" />
    <glyph glyph-name="guilsinglright.cap" unicode="&#xf6b9;" horiz-adv-x="346" 
d="M48 144l113 204l-113 204h105l144 -204l-144 -204h-105z" />
    <glyph glyph-name="hyphen.cap" unicode="&#xf6ba;" horiz-adv-x="396" 
d="M53 293v110h290v-110h-290z" />
    <glyph glyph-name="questiondown.cap" unicode="&#xf6b5;" horiz-adv-x="517" 
d="M201 556v132h133v-132h-133zM27 175c0 166 180 158 180 277v29h121v-24c0 -181 -172 -171 -172 -276c0 -50 37 -89 99 -89c82 0 114 55 114 116h123c0 -113 -69 -220 -237 -220c-135 0 -228 69 -228 187z" />
    <glyph glyph-name="braceleft.cap" unicode="&#xf6b2;" horiz-adv-x="384" 
d="M125 96v88c0 81 -20 115 -112 115v94c92 0 112 34 112 115v84c0 105 45 158 176 158h68v-98h-49c-61 0 -79 -20 -79 -80v-99c0 -65 -26 -105 -100 -125v-4c74 -20 100 -58 100 -123v-105c0 -60 18 -80 79 -80h49v-98h-68c-131 0 -176 53 -176 158z" />
    <glyph glyph-name="braceright.cap" unicode="&#xf6b3;" horiz-adv-x="384" 
d="M14 36h50c60 0 78 20 78 80v105c0 65 26 103 100 123v4c-74 20 -100 60 -100 125v99c0 60 -18 80 -78 80h-50v98h69c131 0 176 -53 176 -158v-84c0 -81 20 -115 112 -115v-94c-92 0 -112 -34 -112 -115v-88c0 -105 -45 -158 -176 -158h-69v98z" />
    <glyph glyph-name="bracketleft.cap" unicode="&#xf6b0;" horiz-adv-x="349" 
d="M75 -62v812h259v-100h-142v-612h142v-100h-259z" />
    <glyph glyph-name="bracketright.cap" unicode="&#xf6b1;" horiz-adv-x="349" 
d="M14 38h143v612h-143v100h259v-812h-259v100z" />
    <glyph glyph-name="parenleft.cap" unicode="&#xf6ae;" horiz-adv-x="346" 
d="M215 -62c-69 90 -140 236 -140 406s71 316 140 406h117c-63 -90 -136 -240 -136 -406s73 -316 136 -406h-117z" />
    <glyph glyph-name="parenright.cap" unicode="&#xf6af;" horiz-adv-x="346" 
d="M14 -62c63 90 136 240 136 406s-73 316 -136 406h117c69 -90 140 -236 140 -406s-71 -316 -140 -406h-117z" />
    <glyph glyph-name="periodcentered.cap" unicode="&#xf6bd;" horiz-adv-x="282" 
d="M70 281v134h138v-134h-138z" />
    <glyph glyph-name="lessequal" unicode="&#x2264;" horiz-adv-x="568" 
d="M72 327v104l424 169v-110l-300 -110l300 -112v-111zM72 0v100h424v-100h-424z" />
    <glyph glyph-name="greaterequal" unicode="&#x2265;" horiz-adv-x="568" 
d="M496 429v-103l-424 -169v109l299 109l-299 113v112zM72 0v100h424v-100h-424z" />
    <glyph glyph-name="approxequal" unicode="&#x2248;" horiz-adv-x="568" 
d="M49 280c0 123 66 174 137 174c91 0 138 -70 192 -70c32 0 49 25 49 74h94c0 -123 -66 -174 -135 -174c-91 0 -141 73 -195 73c-32 0 -48 -28 -48 -77h-94zM49 52c0 123 66 174 137 174c91 0 138 -70 192 -70c32 0 49 25 49 74h94c0 -123 -66 -174 -135 -174
c-91 0 -141 72 -195 72c-32 0 -48 -27 -48 -76h-94z" />
    <glyph glyph-name="notequal" unicode="&#x2260;" horiz-adv-x="568" 
d="M56 313v100h261l70 134l75 -40l-49 -94h99v-100h-152l-61 -118h213v-100h-265l-70 -134l-75 40l49 94h-95v100h147l61 118h-208z" />
    <glyph glyph-name="infinity" unicode="&#x221e;" horiz-adv-x="708" 
d="M192 88c-99 0 -166 68 -166 166s67 166 166 166c66 0 124 -43 164 -99c41 55 96 99 160 99c99 0 166 -68 166 -166s-67 -166 -166 -166c-67 0 -124 43 -164 98c-42 -55 -97 -98 -160 -98zM410 254c24 -34 63 -77 108 -77c44 0 72 35 72 77s-28 77 -72 77
c-45 0 -84 -44 -108 -77zM190 177c45 0 84 43 108 77c-24 33 -63 77 -108 77c-44 0 -72 -35 -72 -77s28 -77 72 -77z" />
    <glyph glyph-name="lozenge" unicode="&#x25ca;" horiz-adv-x="662" 
d="M273 0l-248 344l248 344h117l247 -344l-247 -344h-117zM333 581h-6l-168 -237l171 -239h4l169 236z" />
    <glyph glyph-name="integral" unicode="&#x222b;" horiz-adv-x="364" 
d="M23 -84h33c84 0 86 62 79 158l-31 500c-10 149 23 252 187 252h47v-100h-34c-84 0 -86 -62 -79 -158l32 -500c9 -147 -24 -252 -187 -252h-47v100z" />
    <glyph glyph-name="partialdiff" unicode="&#x2202;" horiz-adv-x="568" 
d="M16 194c0 165 118 246 237 246c67 0 127 -27 150 -70c1 13 1 24 1 36c0 146 -53 194 -112 194c-63 0 -94 -37 -105 -84h-123c23 108 98 184 236 184c124 0 231 -81 231 -296c0 -319 -147 -416 -299 -416c-115 0 -216 74 -216 206zM247 88c67 0 127 53 127 140
c0 70 -39 112 -104 112c-68 0 -127 -51 -127 -144c0 -70 45 -108 104 -108z" />
    <glyph glyph-name="product" unicode="&#x220f;" horiz-adv-x="741" 
d="M83 0v688h575v-688h-129v584h-318v-584h-128z" />
    <glyph glyph-name="radical" unicode="&#x221a;" horiz-adv-x="608" 
d="M26 280v100l168 53l110 -293h4l186 548h123l-239 -688h-141l-122 309z" />
    <glyph glyph-name="summation" unicode="&#x2211;" horiz-adv-x="550" 
d="M15 0v53l225 285l-217 290v60h491v-102h-314l183 -240l-192 -244h332v-102h-508z" />
    <glyph glyph-name="Delta" unicode="&#x2206;" horiz-adv-x="661" 
d="M13 0l248 688h139l247 -688h-634zM329 549h-4l-152 -445h308z" />
    <glyph glyph-name="Omega" unicode="&#x2126;" horiz-adv-x="696" 
d="M401 0v233c64 17 129 81 129 183c0 113 -76 184 -182 184s-182 -71 -182 -184c0 -102 66 -166 129 -183v-233h-242v96h136v79c-91 43 -152 130 -152 243c0 158 122 282 311 282s311 -124 311 -282c0 -113 -61 -200 -152 -243v-79h136v-96h-242z" />
    <glyph glyph-name="pi" unicode="&#x3c0;" horiz-adv-x="610" 
d="M75 0v488h460v-488h-128v388h-204v-388h-128z" />
    <glyph glyph-name="afii61289" unicode="&#x2113;" horiz-adv-x="412" 
d="M129 26c-28 30 -38 77 -38 139v74l-2 1l-59 -41l-12 24c25 20 49 40 73 61v136c0 144 27 204 73 246c27 24 54 33 85 33c63 0 101 -49 101 -128c0 -132 -115 -225 -181 -277v-109c0 -108 42 -138 91 -138c47 0 83 29 118 80l22 -16c-32 -76 -91 -123 -169 -123
c-46 0 -79 14 -102 38zM171 342c62 53 121 134 121 230c0 61 -21 91 -55 91c-43 0 -68 -48 -68 -179v-141z" />
    <glyph glyph-name="Abreve" unicode="&#x102;" horiz-adv-x="686" 
d="M8 0l256 688h158l256 -688h-142l-53 154h-285l-54 -154h-136zM344 561h-4l-105 -299h211zM342 774c-73 0 -146 38 -155 152h71c8 -51 37 -79 84 -79c46 0 76 30 84 79h71c-9 -114 -82 -152 -155 -152z" />
    <glyph glyph-name="Amacron" unicode="&#x100;" horiz-adv-x="686" 
d="M8 0l256 688h158l256 -688h-142l-53 154h-285l-54 -154h-136zM344 561h-4l-105 -299h211zM191 807v86h298v-86h-298z" />
    <glyph glyph-name="Aogonek" unicode="&#x104;" horiz-adv-x="686" 
d="M534 -128c0 45 25 81 81 128h-79l-53 154h-285l-54 -154h-136l256 688h158l256 -688c-43 -45 -60 -80 -60 -105s13 -42 51 -42h29v-73h-40c-87 0 -124 35 -124 92zM344 561h-4l-105 -299h211z" />
    <glyph glyph-name="Cacute" unicode="&#x106;" horiz-adv-x="732" 
d="M44 344c0 203 134 356 343 356c170 0 279 -93 305 -239h-134c-22 80 -80 124 -171 124c-126 0 -205 -99 -205 -241c0 -139 81 -241 205 -241c97 0 149 44 171 124h134c-26 -146 -137 -239 -307 -239c-212 0 -341 151 -341 356zM342 768l100 164h136l-148 -164h-88z" />
    <glyph glyph-name="Ccaron" unicode="&#x10c;" horiz-adv-x="732" 
d="M44 344c0 203 134 356 343 356c170 0 279 -93 305 -239h-134c-22 80 -80 124 -171 124c-126 0 -205 -99 -205 -241c0 -139 81 -241 205 -241c97 0 149 44 171 124h134c-26 -146 -137 -239 -307 -239c-212 0 -341 151 -341 356zM338 768l-128 164h106l71 -99l71 99h106
l-128 -164h-98z" />
    <glyph glyph-name="Ccircumflex" unicode="&#x108;" horiz-adv-x="732" 
d="M44 344c0 203 134 356 343 356c170 0 279 -93 305 -239h-134c-22 80 -80 124 -171 124c-126 0 -205 -99 -205 -241c0 -139 81 -241 205 -241c97 0 149 44 171 124h134c-26 -146 -137 -239 -307 -239c-212 0 -341 151 -341 356zM210 768l128 164h98l128 -164h-106l-71 99
l-71 -99h-106z" />
    <glyph glyph-name="Cdotaccent" unicode="&#x10a;" horiz-adv-x="732" 
d="M44 344c0 203 134 356 343 356c170 0 279 -93 305 -239h-134c-22 80 -80 124 -171 124c-126 0 -205 -99 -205 -241c0 -139 81 -241 205 -241c97 0 149 44 171 124h134c-26 -146 -137 -239 -307 -239c-212 0 -341 151 -341 356zM328 797v116h118v-116h-118z" />
    <glyph glyph-name="Dcaron" unicode="&#x10e;" horiz-adv-x="735" 
d="M81 0v688h245c241 0 365 -145 365 -344s-124 -344 -365 -344h-245zM317 577h-102v-466h102c172 0 236 108 236 233s-64 233 -236 233zM292 768l-128 164h106l71 -99l71 99h106l-128 -164h-98z" />
    <glyph glyph-name="Ebreve" unicode="&#x114;" horiz-adv-x="640" 
d="M81 0v688h499v-111h-365v-173h294v-106h-294v-187h374v-111h-508zM331 774c-73 0 -146 38 -155 152h71c8 -51 37 -79 84 -79c46 0 76 30 84 79h71c-9 -114 -82 -152 -155 -152z" />
    <glyph glyph-name="Ecaron" unicode="&#x11a;" horiz-adv-x="640" 
d="M81 0v688h499v-111h-365v-173h294v-106h-294v-187h374v-111h-508zM282 768l-128 164h106l71 -99l71 99h106l-128 -164h-98z" />
    <glyph glyph-name="Edotaccent" unicode="&#x116;" horiz-adv-x="640" 
d="M81 0v688h499v-111h-365v-173h294v-106h-294v-187h374v-111h-508zM272 797v116h118v-116h-118z" />
    <glyph glyph-name="Emacron" unicode="&#x112;" horiz-adv-x="640" 
d="M81 0v688h499v-111h-365v-173h294v-106h-294v-187h374v-111h-508zM180 807v86h298v-86h-298z" />
    <glyph glyph-name="Eogonek" unicode="&#x118;" horiz-adv-x="640" 
d="M81 0v688h499v-111h-365v-173h294v-106h-294v-187h374v-111c-43 -45 -60 -80 -60 -105s13 -42 51 -42h29v-73h-40c-87 0 -124 35 -124 92c0 45 25 81 81 128h-445z" />
    <glyph glyph-name="Gbreve" unicode="&#x11e;" horiz-adv-x="775" 
d="M617 0l-15 83h-2c-45 -62 -113 -95 -213 -95c-209 0 -343 153 -343 356c0 206 139 356 353 356c173 0 284 -98 307 -222h-134c-18 57 -73 107 -173 107c-130 0 -215 -98 -215 -241s85 -241 213 -241c103 0 188 58 188 161v5h-186v102h305v-371h-85zM397 774
c-73 0 -146 38 -155 152h71c8 -51 37 -79 84 -79c46 0 76 30 84 79h71c-9 -114 -82 -152 -155 -152z" />
    <glyph glyph-name="Gcircumflex" unicode="&#x11c;" horiz-adv-x="775" 
d="M617 0l-15 83h-2c-45 -62 -113 -95 -213 -95c-209 0 -343 153 -343 356c0 206 139 356 353 356c173 0 284 -98 307 -222h-134c-18 57 -73 107 -173 107c-130 0 -215 -98 -215 -241s85 -241 213 -241c103 0 188 58 188 161v5h-186v102h305v-371h-85zM220 768l128 164h98
l128 -164h-106l-71 99l-71 -99h-106z" />
    <glyph glyph-name="Gcommaaccent" unicode="&#x122;" horiz-adv-x="775" 
d="M617 0l-15 83h-2c-45 -62 -113 -95 -213 -95c-209 0 -343 153 -343 356c0 206 139 356 353 356c173 0 284 -98 307 -222h-134c-18 57 -73 107 -173 107c-130 0 -215 -98 -215 -241s85 -241 213 -241c103 0 188 58 188 161v5h-186v102h305v-371h-85zM328 -61h118v-88
l-50 -108h-53l35 95h-50v101z" />
    <glyph glyph-name="Gdotaccent" unicode="&#x120;" horiz-adv-x="775" 
d="M617 0l-15 83h-2c-45 -62 -113 -95 -213 -95c-209 0 -343 153 -343 356c0 206 139 356 353 356c173 0 284 -98 307 -222h-134c-18 57 -73 107 -173 107c-130 0 -215 -98 -215 -241s85 -241 213 -241c103 0 188 58 188 161v5h-186v102h305v-371h-85zM338 797v116h118v-116
h-118z" />
    <glyph glyph-name="Hcircumflex" unicode="&#x124;" horiz-adv-x="754" 
d="M81 0v688h134v-283h324v283h134v-688h-134v291h-324v-291h-134zM200 768l128 164h98l128 -164h-106l-71 99l-71 -99h-106z" />
    <glyph glyph-name="Ibreve" unicode="&#x12c;" horiz-adv-x="296" 
d="M81 0v688h134v-688h-134zM148 774c-73 0 -146 38 -155 152h71c8 -51 37 -79 84 -79c46 0 76 30 84 79h71c-9 -114 -82 -152 -155 -152z" />
    <glyph glyph-name="Idotaccent" unicode="&#x130;" horiz-adv-x="296" 
d="M81 0v688h134v-688h-134zM89 797v116h118v-116h-118z" />
    <glyph glyph-name="Imacron" unicode="&#x12a;" horiz-adv-x="296" 
d="M81 0v688h134v-688h-134zM-3 807v86h298v-86h-298z" />
    <glyph glyph-name="Iogonek" unicode="&#x12e;" horiz-adv-x="296" 
d="M81 0v688h134v-688h-3c-43 -45 -60 -80 -60 -105s13 -42 51 -42h29v-73h-40c-87 0 -124 35 -124 92c0 45 25 81 81 128h-68z" />
    <glyph glyph-name="Itilde" unicode="&#x128;" horiz-adv-x="296" 
d="M81 0v688h134v-688h-134zM-27 787c1 76 37 124 103 124c60 0 109 -44 148 -44c26 0 36 25 38 48h61c-2 -77 -37 -125 -103 -125c-61 0 -109 45 -148 45c-26 0 -36 -25 -38 -48h-61z" />
    <glyph glyph-name="Jcircumflex" unicode="&#x134;" horiz-adv-x="556" 
d="M36 207v30h132v-27c0 -79 38 -111 92 -111s91 32 91 116v473h135v-472c0 -164 -89 -228 -226 -228c-132 0 -224 63 -224 219zM244 768l128 164h98l128 -164h-106l-71 99l-71 -99h-106z" />
    <glyph glyph-name="Kcommaaccent" unicode="&#x136;" horiz-adv-x="696" 
d="M81 0v688h134v-326l302 326h155l-279 -296l295 -392h-154l-227 301l-92 -98v-203h-134zM299 -61h118v-88l-50 -108h-53l35 95h-50v101z" />
    <glyph glyph-name="Lacute" unicode="&#x139;" horiz-adv-x="579" 
d="M81 0v688h134v-575h329v-113h-463zM102 768l100 164h136l-148 -164h-88z" />
    <glyph glyph-name="Lcaron" unicode="&#x13d;" horiz-adv-x="579" 
d="M81 0v688h134v-575h329v-113h-463zM354 472l35 109h-51v107h122v-96l-51 -120h-55z" />
    <glyph glyph-name="Lcommaaccent" unicode="&#x13b;" horiz-adv-x="579" 
d="M81 0v688h134v-575h329v-113h-463zM250 -61h118v-88l-50 -108h-53l35 95h-50v101z" />
    <glyph glyph-name="Ldot" unicode="&#x13f;" horiz-adv-x="579" 
d="M81 0v688h134v-575h329v-113h-463zM324 304v120h122v-120h-122z" />
    <glyph glyph-name="Nacute" unicode="&#x143;" horiz-adv-x="762" 
d="M81 0v688h121l345 -460h4l-4 460h134v-688h-119l-347 460h-4l4 -460h-134zM336 768l100 164h136l-148 -164h-88z" />
    <glyph glyph-name="Ncaron" unicode="&#x147;" horiz-adv-x="762" 
d="M81 0v688h121l345 -460h4l-4 460h134v-688h-119l-347 460h-4l4 -460h-134zM332 768l-128 164h106l71 -99l71 99h106l-128 -164h-98z" />
    <glyph glyph-name="Ncommaaccent" unicode="&#x145;" horiz-adv-x="762" 
d="M81 0v688h121l345 -460h4l-4 460h134v-688h-119l-347 460h-4l4 -460h-134zM322 -61h118v-88l-50 -108h-53l35 95h-50v101z" />
    <glyph glyph-name="Obreve" unicode="&#x14e;" horiz-adv-x="789" 
d="M44 344c0 205 138 356 351 356c209 0 350 -151 350 -356s-141 -356 -350 -356c-213 0 -351 151 -351 356zM182 344c0 -140 85 -241 213 -241c127 0 212 102 212 241s-85 241 -212 241c-128 0 -213 -101 -213 -241zM395 774c-73 0 -146 38 -155 152h71
c8 -51 37 -79 84 -79c46 0 76 30 84 79h71c-9 -114 -82 -152 -155 -152z" />
    <glyph glyph-name="Ohungarumlaut" unicode="&#x150;" horiz-adv-x="789" 
d="M44 344c0 205 138 356 351 356c209 0 350 -151 350 -356s-141 -356 -350 -356c-213 0 -351 151 -351 356zM182 344c0 -140 85 -241 213 -241c127 0 212 102 212 241s-85 241 -212 241c-128 0 -213 -101 -213 -241zM449 768l100 164h136l-148 -164h-88zM251 768l100 164
h135l-147 -164h-88z" />
    <glyph glyph-name="Omacron" unicode="&#x14c;" horiz-adv-x="789" 
d="M44 344c0 205 138 356 351 356c209 0 350 -151 350 -356s-141 -356 -350 -356c-213 0 -351 151 -351 356zM182 344c0 -140 85 -241 213 -241c127 0 212 102 212 241s-85 241 -212 241c-128 0 -213 -101 -213 -241zM244 807v86h298v-86h-298z" />
    <glyph glyph-name="Oslashacute" unicode="&#x1fe;" horiz-adv-x="789" 
d="M58 -12l83 100c-62 64 -97 153 -97 256c0 205 140 356 351 356c77 0 145 -21 200 -58l48 58h89l-84 -102c61 -64 97 -152 97 -254c0 -205 -143 -356 -350 -356c-78 0 -147 20 -202 57l-46 -57h-89zM182 344c0 -60 16 -113 43 -153l292 355c-34 25 -75 39 -122 39
c-128 0 -213 -101 -213 -241zM607 344c0 59 -16 111 -43 152l-292 -355c34 -24 75 -38 123 -38c127 0 212 102 212 241zM350 768l100 164h136l-148 -164h-88z" />
    <glyph glyph-name="Racute" unicode="&#x154;" horiz-adv-x="694" 
d="M81 0v688h295c165 0 254 -80 254 -214c0 -98 -50 -175 -145 -208l171 -266h-146l-158 250h-137v-250h-134zM370 580h-155v-225h155c82 0 124 50 124 118c0 66 -44 107 -124 107zM282 768l100 164h136l-148 -164h-88z" />
    <glyph glyph-name="Rcaron" unicode="&#x158;" horiz-adv-x="694" 
d="M81 0v688h295c165 0 254 -80 254 -214c0 -98 -50 -175 -145 -208l171 -266h-146l-158 250h-137v-250h-134zM370 580h-155v-225h155c82 0 124 50 124 118c0 66 -44 107 -124 107zM278 768l-128 164h106l71 -99l71 99h106l-128 -164h-98z" />
    <glyph glyph-name="Rcommaaccent" unicode="&#x156;" horiz-adv-x="694" 
d="M81 0v688h295c165 0 254 -80 254 -214c0 -98 -50 -175 -145 -208l171 -266h-146l-158 250h-137v-250h-134zM370 580h-155v-225h155c82 0 124 50 124 118c0 66 -44 107 -124 107zM286 -61h118v-88l-50 -108h-53l35 95h-50v101z" />
    <glyph glyph-name="Sacute" unicode="&#x15a;" horiz-adv-x="668" 
d="M50 196h131c0 -66 59 -108 148 -108c96 0 152 38 152 104c0 158 -420 27 -420 301c0 118 105 207 270 207c161 0 265 -77 265 -198h-131c0 63 -57 98 -134 98s-136 -32 -136 -94c0 -157 423 -25 423 -301c0 -129 -104 -217 -289 -217c-181 0 -279 80 -279 208zM286 768
l100 164h136l-148 -164h-88z" />
    <glyph glyph-name="Scedilla" unicode="&#x15e;" horiz-adv-x="668" 
d="M278 -88l27 77c-166 7 -255 85 -255 207h131c0 -66 59 -108 148 -108c96 0 152 38 152 104c0 158 -420 27 -420 301c0 118 105 207 270 207c161 0 265 -77 265 -198h-131c0 63 -57 98 -134 98s-136 -32 -136 -94c0 -157 423 -25 423 -301c0 -124 -97 -210 -268 -216v-27
c60 -2 92 -39 92 -86c0 -54 -37 -96 -117 -96h-67v62h53c29 0 47 8 47 36c0 24 -18 34 -47 34h-33z" />
    <glyph glyph-name="Scircumflex" unicode="&#x15c;" horiz-adv-x="668" 
d="M50 196h131c0 -66 59 -108 148 -108c96 0 152 38 152 104c0 158 -420 27 -420 301c0 118 105 207 270 207c161 0 265 -77 265 -198h-131c0 63 -57 98 -134 98s-136 -32 -136 -94c0 -157 423 -25 423 -301c0 -129 -104 -217 -289 -217c-181 0 -279 80 -279 208zM154 768
l128 164h98l128 -164h-106l-71 99l-71 -99h-106z" />
    <glyph glyph-name="Scommaaccent" unicode="&#x218;" horiz-adv-x="668" 
d="M50 196h131c0 -66 59 -108 148 -108c96 0 152 38 152 104c0 158 -420 27 -420 301c0 118 105 207 270 207c161 0 265 -77 265 -198h-131c0 63 -57 98 -134 98s-136 -32 -136 -94c0 -157 423 -25 423 -301c0 -129 -104 -217 -289 -217c-181 0 -279 80 -279 208zM270 -61
h118v-88l-50 -108h-53l35 95h-50v101z" />
    <glyph glyph-name="Tcaron" unicode="&#x164;" horiz-adv-x="616" 
d="M8 576v112h600v-112h-233v-576h-134v576h-233zM258 768l-128 164h106l71 -99l71 99h106l-128 -164h-98z" />
    <glyph glyph-name="Tcommaaccent" unicode="&#x162;" horiz-adv-x="616" 
d="M258 -88l31 88h-48v576h-233v112h600v-112h-233v-576h-45v-38c60 -2 92 -39 92 -86c0 -54 -37 -96 -117 -96h-67v62h53c29 0 47 8 47 36c0 24 -18 34 -47 34h-33z" />
    <glyph glyph-name="Ubreve" unicode="&#x16c;" horiz-adv-x="729" 
d="M68 276v412h135v-410c0 -112 53 -175 162 -175c108 0 161 63 161 175v410h135v-412c0 -214 -122 -288 -296 -288s-297 74 -297 288zM365 774c-73 0 -146 38 -155 152h71c8 -51 37 -79 84 -79c46 0 76 30 84 79h71c-9 -114 -82 -152 -155 -152z" />
    <glyph glyph-name="Uhungarumlaut" unicode="&#x170;" horiz-adv-x="729" 
d="M68 276v412h135v-410c0 -112 53 -175 162 -175c108 0 161 63 161 175v410h135v-412c0 -214 -122 -288 -296 -288s-297 74 -297 288zM419 768l100 164h136l-148 -164h-88zM221 768l100 164h135l-147 -164h-88z" />
    <glyph glyph-name="Umacron" unicode="&#x16a;" horiz-adv-x="729" 
d="M68 276v412h135v-410c0 -112 53 -175 162 -175c108 0 161 63 161 175v410h135v-412c0 -214 -122 -288 -296 -288s-297 74 -297 288zM214 807v86h298v-86h-298z" />
    <glyph glyph-name="Uogonek" unicode="&#x172;" horiz-adv-x="729" 
d="M320 -122c0 47 35 84 78 111c-11 0 -22 -1 -33 -1c-174 0 -297 74 -297 288v412h135v-410c0 -112 53 -175 162 -175c108 0 161 63 161 175v410h135v-412c0 -137 -51 -214 -131 -256c-81 -42 -123 -85 -123 -122c0 -26 13 -45 50 -45h30v-73h-40c-87 0 -127 35 -127 98z
" />
    <glyph glyph-name="Uring" unicode="&#x16e;" horiz-adv-x="729" 
d="M68 276v412h135v-410c0 -112 53 -175 162 -175c108 0 161 63 161 175v410h135v-412c0 -214 -122 -288 -296 -288s-297 74 -297 288zM365 755c-60 0 -107 42 -107 101c0 61 48 102 107 102c58 0 107 -41 107 -102c0 -59 -47 -101 -107 -101zM365 808c26 0 48 20 48 48
s-22 49 -48 49s-48 -21 -48 -49s22 -48 48 -48z" />
    <glyph glyph-name="Utilde" unicode="&#x168;" horiz-adv-x="729" 
d="M68 276v412h135v-410c0 -112 53 -175 162 -175c108 0 161 63 161 175v410h135v-412c0 -214 -122 -288 -296 -288s-297 74 -297 288zM190 787c1 76 37 124 103 124c60 0 109 -44 148 -44c26 0 36 25 38 48h61c-2 -77 -37 -125 -103 -125c-61 0 -109 45 -148 45
c-26 0 -36 -25 -38 -48h-61z" />
    <glyph glyph-name="Wacute" unicode="&#x1e82;" horiz-adv-x="978" 
d="M187 0l-177 688h144l123 -544h4l141 544h139l144 -544h4l119 544h140l-174 -688h-166l-137 518h-4l-135 -518h-165zM445 768l100 164h136l-148 -164h-88z" />
    <glyph glyph-name="Wcircumflex" unicode="&#x174;" horiz-adv-x="978" 
d="M187 0l-177 688h144l123 -544h4l141 544h139l144 -544h4l119 544h140l-174 -688h-166l-137 518h-4l-135 -518h-165zM313 768l128 164h98l128 -164h-106l-71 99l-71 -99h-106z" />
    <glyph glyph-name="Wdieresis" unicode="&#x1e84;" horiz-adv-x="978" 
d="M187 0l-177 688h144l123 -544h4l141 544h139l144 -544h4l119 544h140l-174 -688h-166l-137 518h-4l-135 -518h-165zM540 797v116h118v-116h-118zM322 797v116h117v-116h-117z" />
    <glyph glyph-name="Wgrave" unicode="&#x1e80;" horiz-adv-x="978" 
d="M187 0l-177 688h144l123 -544h4l141 544h139l144 -544h4l119 544h140l-174 -688h-166l-137 518h-4l-135 -518h-165zM447 768l-148 164h135l101 -164h-88z" />
    <glyph glyph-name="Ycircumflex" unicode="&#x176;" horiz-adv-x="665" 
d="M263 0v264l-253 424h152l169 -296h4l178 296h142l-257 -420v-268h-135zM156 768l128 164h98l128 -164h-106l-71 99l-71 -99h-106z" />
    <glyph glyph-name="Ygrave" unicode="&#x1ef2;" horiz-adv-x="665" 
d="M263 0v264l-253 424h152l169 -296h4l178 296h142l-257 -420v-268h-135zM290 768l-148 164h135l101 -164h-88z" />
    <glyph glyph-name="Zacute" unicode="&#x179;" horiz-adv-x="612" 
d="M49 578v110h528v-78l-367 -500h365v-110h-541v78l368 500h-353zM261 768l100 164h136l-148 -164h-88z" />
    <glyph glyph-name="Zdotaccent" unicode="&#x17b;" horiz-adv-x="612" 
d="M49 578v110h528v-78l-367 -500h365v-110h-541v78l368 500h-353zM247 797v116h118v-116h-118z" />
    <glyph glyph-name="AEacute" unicode="&#x1fc;" horiz-adv-x="1117" 
d="M5 0l497 688h555v-111h-366v-173h296v-106h-296v-187h376v-111h-510v154h-289l-109 -154h-154zM553 554l-209 -294h213v294h-4zM580 768l100 164h136l-148 -164h-88z" />
    <glyph glyph-name="abreve" unicode="&#x103;" horiz-adv-x="557" 
d="M42 126c0 82 50 131 166 149l94 14c52 8 62 16 62 39c-1 48 -27 82 -87 82s-92 -31 -96 -80h-120c7 109 95 170 216 170c144 0 216 -62 216 -178v-322h-123v58h-6c-29 -44 -83 -70 -156 -70c-109 0 -166 56 -166 138zM245 78c61 0 119 37 119 119v43
c-9 -13 -26 -19 -48 -23l-75 -12c-52 -9 -72 -32 -72 -66c0 -38 26 -61 76 -61zM275 574c-73 0 -146 38 -155 152h71c8 -51 37 -79 84 -79c46 0 76 30 84 79h71c-9 -114 -82 -152 -155 -152z" />
    <glyph glyph-name="amacron" unicode="&#x101;" horiz-adv-x="557" 
d="M42 126c0 82 50 131 166 149l94 14c52 8 62 16 62 39c-1 48 -27 82 -87 82s-92 -31 -96 -80h-120c7 109 95 170 216 170c144 0 216 -62 216 -178v-322h-123v58h-6c-29 -44 -83 -70 -156 -70c-109 0 -166 56 -166 138zM245 78c61 0 119 37 119 119v43
c-9 -13 -26 -19 -48 -23l-75 -12c-52 -9 -72 -32 -72 -66c0 -38 26 -61 76 -61zM124 607v86h298v-86h-298z" />
    <glyph glyph-name="aogonek" unicode="&#x105;" horiz-adv-x="557" 
d="M347 -128c0 45 25 81 81 128h-58v58h-6c-29 -44 -83 -70 -156 -70c-109 0 -166 56 -166 138s50 131 166 149l94 14c52 8 62 16 62 39c-1 48 -27 82 -87 82s-92 -31 -96 -80h-120c7 109 95 170 216 170c144 0 216 -62 216 -178v-322h-2c-43 -45 -60 -80 -60 -105
s13 -42 51 -42h29v-73h-40c-87 0 -124 35 -124 92zM245 78c61 0 119 37 119 119v43c-9 -13 -26 -19 -48 -23l-75 -12c-52 -9 -72 -32 -72 -66c0 -38 26 -61 76 -61z" />
    <glyph glyph-name="cacute" unicode="&#x107;" horiz-adv-x="553" 
d="M36 244c0 160 104 256 254 256c144 0 222 -81 233 -182h-127c-7 44 -40 84 -106 84c-72 0 -121 -65 -121 -158s49 -158 121 -158c67 0 98 40 106 84h127c-11 -101 -87 -182 -233 -182c-156 0 -254 93 -254 256zM245 568l100 164h136l-148 -164h-88z" />
    <glyph glyph-name="ccaron" unicode="&#x10d;" horiz-adv-x="553" 
d="M36 244c0 160 104 256 254 256c144 0 222 -81 233 -182h-127c-7 44 -40 84 -106 84c-72 0 -121 -65 -121 -158s49 -158 121 -158c67 0 98 40 106 84h127c-11 -101 -87 -182 -233 -182c-156 0 -254 93 -254 256zM241 568l-128 164h106l71 -99l71 99h106l-128 -164h-98z
" />
    <glyph glyph-name="ccircumflex" unicode="&#x109;" horiz-adv-x="553" 
d="M36 244c0 160 104 256 254 256c144 0 222 -81 233 -182h-127c-7 44 -40 84 -106 84c-72 0 -121 -65 -121 -158s49 -158 121 -158c67 0 98 40 106 84h127c-11 -101 -87 -182 -233 -182c-156 0 -254 93 -254 256zM113 568l128 164h98l128 -164h-106l-71 99l-71 -99h-106z
" />
    <glyph glyph-name="cdotaccent" unicode="&#x10b;" horiz-adv-x="553" 
d="M36 244c0 160 104 256 254 256c144 0 222 -81 233 -182h-127c-7 44 -40 84 -106 84c-72 0 -121 -65 -121 -158s49 -158 121 -158c67 0 98 40 106 84h127c-11 -101 -87 -182 -233 -182c-156 0 -254 93 -254 256zM231 597v116h118v-116h-118z" />
    <glyph glyph-name="dcaron" unicode="&#x10f;" horiz-adv-x="615" 
d="M38 240c0 164 102 260 228 260c72 0 124 -28 152 -82h4c-6 65 -6 131 -6 164v150h129v-732h-123v70h-4c-28 -54 -85 -82 -160 -82c-122 0 -220 88 -220 252zM171 240c0 -98 49 -154 122 -154c72 0 123 60 123 158v7c-3 94 -53 151 -123 151c-73 0 -122 -64 -122 -162z
M631 516l35 109h-51v107h122v-96l-51 -120h-55z" />
    <glyph glyph-name="ebreve" unicode="&#x115;" horiz-adv-x="564" 
d="M36 242c0 158 104 258 253 258c146 0 239 -88 239 -243v-36h-360c6 -88 52 -139 125 -139c64 0 95 35 105 66h125c-15 -87 -102 -160 -232 -160c-161 0 -255 91 -255 254zM289 407c-60 0 -102 -37 -117 -106h225c-9 73 -45 106 -108 106zM289 574c-73 0 -146 38 -155 152
h71c8 -51 37 -79 84 -79c46 0 76 30 84 79h71c-9 -114 -82 -152 -155 -152z" />
    <glyph glyph-name="ecaron" unicode="&#x11b;" horiz-adv-x="564" 
d="M36 242c0 158 104 258 253 258c146 0 239 -88 239 -243v-36h-360c6 -88 52 -139 125 -139c64 0 95 35 105 66h125c-15 -87 -102 -160 -232 -160c-161 0 -255 91 -255 254zM289 407c-60 0 -102 -37 -117 -106h225c-9 73 -45 106 -108 106zM240 568l-128 164h106l71 -99
l71 99h106l-128 -164h-98z" />
    <glyph glyph-name="edotaccent" unicode="&#x117;" horiz-adv-x="564" 
d="M36 242c0 158 104 258 253 258c146 0 239 -88 239 -243v-36h-360c6 -88 52 -139 125 -139c64 0 95 35 105 66h125c-15 -87 -102 -160 -232 -160c-161 0 -255 91 -255 254zM289 407c-60 0 -102 -37 -117 -106h225c-9 73 -45 106 -108 106zM230 597v116h118v-116h-118z" />
    <glyph glyph-name="emacron" unicode="&#x113;" horiz-adv-x="564" 
d="M36 242c0 158 104 258 253 258c146 0 239 -88 239 -243v-36h-360c6 -88 52 -139 125 -139c64 0 95 35 105 66h125c-15 -87 -102 -160 -232 -160c-161 0 -255 91 -255 254zM289 407c-60 0 -102 -37 -117 -106h225c-9 73 -45 106 -108 106zM138 607v86h298v-86h-298z" />
    <glyph glyph-name="eogonek" unicode="&#x119;" horiz-adv-x="564" 
d="M217 -122c0 48 37 83 80 110h-6c-161 0 -255 91 -255 254c0 158 104 258 253 258c146 0 239 -88 239 -243v-36h-360c6 -88 52 -139 125 -139c64 0 95 35 105 66h125c-9 -50 -43 -95 -92 -125c-79 -48 -127 -87 -127 -125c0 -26 13 -45 50 -45h30v-73h-40
c-87 0 -127 35 -127 98zM289 407c-60 0 -102 -37 -117 -106h225c-9 73 -45 106 -108 106z" />
    <glyph glyph-name="gbreve" unicode="&#x11f;" horiz-adv-x="615" 
d="M52 -60h121c2 -47 47 -78 113 -78c87 0 136 46 136 164v44h-4c-28 -54 -85 -82 -160 -82c-122 0 -220 88 -220 252s102 260 228 260c72 0 124 -28 152 -82h4v70h123v-462c0 -183 -103 -254 -259 -254c-137 0 -230 54 -234 168zM171 240c0 -98 49 -154 122 -154
c72 0 123 60 123 158v7c-3 94 -53 151 -123 151c-73 0 -122 -64 -122 -162zM293 574c-73 0 -146 38 -155 152h71c8 -51 37 -79 84 -79c46 0 76 30 84 79h71c-9 -114 -82 -152 -155 -152z" />
    <glyph glyph-name="gcircumflex" unicode="&#x11d;" horiz-adv-x="615" 
d="M52 -60h121c2 -47 47 -78 113 -78c87 0 136 46 136 164v44h-4c-28 -54 -85 -82 -160 -82c-122 0 -220 88 -220 252s102 260 228 260c72 0 124 -28 152 -82h4v70h123v-462c0 -183 -103 -254 -259 -254c-137 0 -230 54 -234 168zM171 240c0 -98 49 -154 122 -154
c72 0 123 60 123 158v7c-3 94 -53 151 -123 151c-73 0 -122 -64 -122 -162zM116 568l128 164h98l128 -164h-106l-71 99l-71 -99h-106z" />
    <glyph glyph-name="gcommaaccent" unicode="&#x123;" horiz-adv-x="615" 
d="M52 -60h121c2 -47 47 -78 113 -78c87 0 136 46 136 164v44h-4c-28 -54 -85 -82 -160 -82c-122 0 -220 88 -220 252s102 260 228 260c72 0 124 -28 152 -82h4v70h123v-462c0 -183 -103 -254 -259 -254c-137 0 -230 54 -234 168zM171 240c0 -98 49 -154 122 -154
c72 0 123 60 123 158v7c-3 94 -53 151 -123 151c-73 0 -122 -64 -122 -162zM234 568v88l50 109h52l-34 -96h50v-101h-118z" />
    <glyph glyph-name="gdotaccent" unicode="&#x121;" horiz-adv-x="615" 
d="M52 -60h121c2 -47 47 -78 113 -78c87 0 136 46 136 164v44h-4c-28 -54 -85 -82 -160 -82c-122 0 -220 88 -220 252s102 260 228 260c72 0 124 -28 152 -82h4v70h123v-462c0 -183 -103 -254 -259 -254c-137 0 -230 54 -234 168zM171 240c0 -98 49 -154 122 -154
c72 0 123 60 123 158v7c-3 94 -53 151 -123 151c-73 0 -122 -64 -122 -162zM234 597v116h118v-116h-118z" />
    <glyph glyph-name="hcircumflex" unicode="&#x125;" horiz-adv-x="599" 
d="M70 0v732h129v-150c0 -33 0 -99 -6 -164h4c28 54 82 82 150 82c100 0 188 -52 188 -204v-296h-129v280c0 90 -38 120 -95 120c-64 0 -112 -53 -112 -142v-258h-129zM-42 806l128 164h98l128 -164h-106l-71 99l-71 -99h-106z" />
    <glyph glyph-name="ibreve" unicode="&#x12d;" horiz-adv-x="269" 
d="M70 0v488h129v-488h-129zM135 574c-73 0 -146 38 -155 152h71c8 -51 37 -79 84 -79c46 0 76 30 84 79h71c-9 -114 -82 -152 -155 -152z" />
    <glyph glyph-name="imacron" unicode="&#x12b;" horiz-adv-x="269" 
d="M70 0v488h129v-488h-129zM-16 607v86h298v-86h-298z" />
    <glyph glyph-name="iogonek" unicode="&#x12f;" horiz-adv-x="269" 
d="M70 0v488h129v-488c-43 -45 -60 -80 -60 -105s13 -42 51 -42h29v-73h-40c-87 0 -124 35 -124 92c0 45 25 81 81 128h-66zM66 612v120h137v-120h-137z" />
    <glyph glyph-name="itilde" unicode="&#x129;" horiz-adv-x="269" 
d="M70 0v488h129v-488h-129zM-40 587c1 76 37 124 103 124c60 0 109 -44 148 -44c26 0 36 25 38 48h61c-2 -77 -37 -125 -103 -125c-61 0 -109 45 -148 45c-26 0 -36 -25 -38 -48h-61z" />
    <glyph glyph-name="jcircumflex" unicode="&#x135;" horiz-adv-x="269" 
d="M70 -46v534h129v-543c0 -103 -40 -165 -171 -165h-41v100h26c43 0 57 24 57 74zM-42 568l128 164h98l128 -164h-106l-71 99l-71 -99h-106z" />
    <glyph glyph-name="kcommaaccent" unicode="&#x137;" horiz-adv-x="550" 
d="M70 0v732h129v-447l183 203h146l-182 -195l200 -293h-148l-137 202l-62 -66v-136h-129zM231 -61h118v-88l-50 -108h-53l35 95h-50v101z" />
    <glyph glyph-name="lacute" unicode="&#x13a;" horiz-adv-x="269" 
d="M70 0v732h129v-732h-129zM90 806l100 164h136l-148 -164h-88z" />
    <glyph glyph-name="lcaron" unicode="&#x13e;" horiz-adv-x="269" 
d="M285 516l35 109h-51v107h122v-96l-51 -120h-55zM70 0v732h129v-732h-129z" />
    <glyph glyph-name="lcommaaccent" unicode="&#x13c;" horiz-adv-x="269" 
d="M70 0v732h129v-732h-129zM76 -61h118v-88l-50 -108h-53l35 95h-50v101z" />
    <glyph glyph-name="ldot" unicode="&#x140;" horiz-adv-x="383" 
d="M70 0v732h129v-732h-129zM267 268v120h122v-120h-122z" />
    <glyph glyph-name="nacute" unicode="&#x144;" horiz-adv-x="599" 
d="M70 0v488h123v-70h4c28 54 82 82 150 82c100 0 188 -52 188 -204v-296h-129v280c0 90 -38 120 -95 120c-64 0 -112 -53 -112 -143v-257h-129zM257 568l100 164h136l-148 -164h-88z" />
    <glyph glyph-name="ncaron" unicode="&#x148;" horiz-adv-x="599" 
d="M70 0v488h123v-70h4c28 54 82 82 150 82c100 0 188 -52 188 -204v-296h-129v280c0 90 -38 120 -95 120c-64 0 -112 -53 -112 -143v-257h-129zM253 568l-128 164h106l71 -99l71 99h106l-128 -164h-98z" />
    <glyph glyph-name="ncommaaccent" unicode="&#x146;" horiz-adv-x="599" 
d="M70 0v488h123v-70h4c28 54 82 82 150 82c100 0 188 -52 188 -204v-296h-129v280c0 90 -38 120 -95 120c-64 0 -112 -53 -112 -143v-257h-129zM239 -61h118v-88l-50 -108h-53l35 95h-50v101z" />
    <glyph glyph-name="obreve" unicode="&#x14f;" horiz-adv-x="593" 
d="M38 244c0 160 109 256 259 256c155 0 258 -94 258 -256c0 -160 -109 -256 -258 -256c-156 0 -259 94 -259 256zM171 244c0 -97 50 -158 126 -158s125 61 125 158c0 99 -49 157 -125 157s-126 -60 -126 -157zM297 574c-73 0 -146 38 -155 152h71c8 -51 37 -79 84 -79
c46 0 76 30 84 79h71c-9 -114 -82 -152 -155 -152z" />
    <glyph glyph-name="ohungarumlaut" unicode="&#x151;" horiz-adv-x="593" 
d="M38 244c0 160 109 256 259 256c155 0 258 -94 258 -256c0 -160 -109 -256 -258 -256c-156 0 -259 94 -259 256zM171 244c0 -97 50 -158 126 -158s125 61 125 158c0 99 -49 157 -125 157s-126 -60 -126 -157zM351 568l100 164h136l-148 -164h-88zM153 568l100 164h135
l-147 -164h-88z" />
    <glyph glyph-name="omacron" unicode="&#x14d;" horiz-adv-x="593" 
d="M38 244c0 160 109 256 259 256c155 0 258 -94 258 -256c0 -160 -109 -256 -258 -256c-156 0 -259 94 -259 256zM171 244c0 -97 50 -158 126 -158s125 61 125 158c0 99 -49 157 -125 157s-126 -60 -126 -157zM146 607v86h298v-86h-298z" />
    <glyph glyph-name="oslashacute" unicode="&#x1ff;" horiz-adv-x="589" 
d="M49 -12l57 69c-45 44 -70 108 -70 187c0 156 108 256 259 256c57 0 107 -14 147 -38l31 38h75l-61 -73c42 -44 66 -107 66 -183c0 -156 -107 -256 -258 -256c-55 0 -103 12 -143 34l-28 -34h-75zM169 244c0 -35 6 -65 18 -89l183 220c-20 17 -46 26 -75 26
c-76 0 -126 -62 -126 -157zM421 244c0 32 -6 60 -16 83l-181 -218c19 -15 43 -23 71 -23c76 0 126 63 126 158zM250 568l100 164h136l-148 -164h-88z" />
    <glyph glyph-name="racute" unicode="&#x155;" horiz-adv-x="395" 
d="M70 0v488h123v-74h2c24 52 67 86 130 86c20 0 43 -3 68 -20l-26 -111c-22 11 -41 16 -60 16c-73 0 -108 -66 -108 -152v-233h-129zM186 568l100 164h136l-148 -164h-88z" />
    <glyph glyph-name="rcaron" unicode="&#x159;" horiz-adv-x="395" 
d="M70 0v488h123v-74h2c24 52 67 86 130 86c20 0 43 -3 68 -20l-26 -111c-22 11 -41 16 -60 16c-73 0 -108 -66 -108 -152v-233h-129zM182 568l-128 164h106l71 -99l71 99h106l-128 -164h-98z" />
    <glyph glyph-name="rcommaaccent" unicode="&#x157;" horiz-adv-x="395" 
d="M70 0v488h123v-74h2c24 52 67 86 130 86c20 0 43 -3 68 -20l-26 -111c-22 11 -41 16 -60 16c-73 0 -108 -66 -108 -152v-233h-129zM74 -61h118v-88l-50 -108h-53l35 95h-50v101z" />
    <glyph glyph-name="sacute" unicode="&#x15b;" horiz-adv-x="527" 
d="M34 140h121c0 -50 52 -67 102 -67c67 0 103 22 103 61c0 34 -25 47 -72 55l-89 14c-84 13 -152 46 -152 138c0 103 92 159 215 159s213 -48 213 -148h-119c0 45 -43 63 -95 63c-53 0 -90 -21 -90 -57c0 -31 20 -46 77 -55l88 -14c79 -13 152 -44 152 -138
c0 -110 -96 -163 -231 -163c-130 0 -223 48 -223 152zM217 568l100 164h136l-148 -164h-88z" />
    <glyph glyph-name="scedilla" unicode="&#x15f;" horiz-adv-x="527" 
d="M206 -88l27 77c-117 6 -199 53 -199 151h121c0 -50 52 -67 102 -67c67 0 103 22 103 61c0 34 -25 47 -72 55l-89 14c-84 13 -152 46 -152 138c0 103 92 159 215 159s213 -48 213 -148h-119c0 45 -43 63 -95 63c-53 0 -90 -21 -90 -57c0 -31 20 -46 77 -55l88 -14
c79 -13 152 -44 152 -138c0 -104 -86 -157 -210 -162v-27c60 -2 92 -39 92 -86c0 -54 -37 -96 -117 -96h-67v62h53c29 0 47 8 47 36c0 24 -18 34 -47 34h-33z" />
    <glyph glyph-name="scircumflex" unicode="&#x15d;" horiz-adv-x="527" 
d="M34 140h121c0 -50 52 -67 102 -67c67 0 103 22 103 61c0 34 -25 47 -72 55l-89 14c-84 13 -152 46 -152 138c0 103 92 159 215 159s213 -48 213 -148h-119c0 45 -43 63 -95 63c-53 0 -90 -21 -90 -57c0 -31 20 -46 77 -55l88 -14c79 -13 152 -44 152 -138
c0 -110 -96 -163 -231 -163c-130 0 -223 48 -223 152zM85 568l128 164h98l128 -164h-106l-71 99l-71 -99h-106z" />
    <glyph glyph-name="scommaaccent" unicode="&#x219;" horiz-adv-x="527" 
d="M34 140h121c0 -50 52 -67 102 -67c67 0 103 22 103 61c0 34 -25 47 -72 55l-89 14c-84 13 -152 46 -152 138c0 103 92 159 215 159s213 -48 213 -148h-119c0 45 -43 63 -95 63c-53 0 -90 -21 -90 -57c0 -31 20 -46 77 -55l88 -14c79 -13 152 -44 152 -138
c0 -110 -96 -163 -231 -163c-130 0 -223 48 -223 152zM198 -61h118v-88l-50 -108h-53l35 95h-50v101z" />
    <glyph glyph-name="tcaron" unicode="&#x165;" horiz-adv-x="361" 
d="M88 168v224h-92v96h92v148h128v-148h121v-96h-121v-216c0 -52 17 -72 68 -72h53v-104h-78c-127 0 -171 46 -171 168zM273 544l35 109h-51v107h122v-96l-51 -120h-55z" />
    <glyph glyph-name="tcommaaccent" unicode="&#x163;" horiz-adv-x="361" 
d="M157 -88l30 95c-72 17 -99 66 -99 161v224h-92v96h92v148h128v-148h121v-96h-121v-216c0 -52 17 -72 68 -72h53v-104h-78c-11 0 -20 0 -29 1v-39c60 -2 92 -39 92 -86c0 -54 -37 -96 -118 -96h-67v62h54c28 0 46 8 46 36c0 24 -18 34 -46 34h-34z" />
    <glyph glyph-name="ubreve" unicode="&#x16d;" horiz-adv-x="595" 
d="M62 192v296h129v-280c0 -90 38 -120 95 -120c63 0 110 52 110 142v258h128v-488h-122v70h-4c-28 -54 -80 -82 -148 -82c-100 0 -188 52 -188 204zM299 574c-73 0 -146 38 -155 152h71c8 -51 37 -79 84 -79c46 0 76 30 84 79h71c-9 -114 -82 -152 -155 -152z" />
    <glyph glyph-name="uhungarumlaut" unicode="&#x171;" horiz-adv-x="595" 
d="M62 192v296h129v-280c0 -90 38 -120 95 -120c63 0 110 52 110 142v258h128v-488h-122v70h-4c-28 -54 -80 -82 -148 -82c-100 0 -188 52 -188 204zM353 568l100 164h136l-148 -164h-88zM155 568l100 164h135l-147 -164h-88z" />
    <glyph glyph-name="umacron" unicode="&#x16b;" horiz-adv-x="595" 
d="M62 192v296h129v-280c0 -90 38 -120 95 -120c63 0 110 52 110 142v258h128v-488h-122v70h-4c-28 -54 -80 -82 -148 -82c-100 0 -188 52 -188 204zM148 607v86h298v-86h-298z" />
    <glyph glyph-name="uogonek" unicode="&#x173;" horiz-adv-x="595" 
d="M380 -128c0 45 25 81 81 128h-59v70h-4c-28 -54 -80 -82 -148 -82c-100 0 -188 52 -188 204v296h129v-280c0 -90 38 -120 95 -120c63 0 110 52 110 142v258h128v-488c-43 -45 -60 -80 -60 -105s13 -42 51 -42h29v-73h-40c-87 0 -124 35 -124 92z" />
    <glyph glyph-name="uring" unicode="&#x16f;" horiz-adv-x="595" 
d="M62 192v296h129v-280c0 -90 38 -120 95 -120c63 0 110 52 110 142v258h128v-488h-122v70h-4c-28 -54 -80 -82 -148 -82c-100 0 -188 52 -188 204zM299 555c-60 0 -107 42 -107 101c0 61 48 102 107 102c58 0 107 -41 107 -102c0 -59 -47 -101 -107 -101zM299 608
c26 0 48 20 48 48s-22 49 -48 49s-48 -21 -48 -49s22 -48 48 -48z" />
    <glyph glyph-name="utilde" unicode="&#x169;" horiz-adv-x="595" 
d="M62 192v296h129v-280c0 -90 38 -120 95 -120c63 0 110 52 110 142v258h128v-488h-122v70h-4c-28 -54 -80 -82 -148 -82c-100 0 -188 52 -188 204zM124 587c1 76 37 124 103 124c60 0 109 -44 148 -44c26 0 36 25 38 48h61c-2 -77 -37 -125 -103 -125
c-61 0 -109 45 -148 45c-26 0 -36 -25 -38 -48h-61z" />
    <glyph glyph-name="wacute" unicode="&#x1e83;" horiz-adv-x="776" 
d="M148 0l-142 488h129l89 -361h4l99 361h126l99 -361h4l89 361h125l-142 -488h-145l-93 356h-4l-94 -356h-144zM343 568l100 164h136l-148 -164h-88z" />
    <glyph glyph-name="wcircumflex" unicode="&#x175;" horiz-adv-x="776" 
d="M148 0l-142 488h129l89 -361h4l99 361h126l99 -361h4l89 361h125l-142 -488h-145l-93 356h-4l-94 -356h-144zM211 568l128 164h98l128 -164h-106l-71 99l-71 -99h-106z" />
    <glyph glyph-name="wdieresis" unicode="&#x1e85;" horiz-adv-x="776" 
d="M148 0l-142 488h129l89 -361h4l99 361h126l99 -361h4l89 361h125l-142 -488h-145l-93 356h-4l-94 -356h-144zM438 597v116h118v-116h-118zM220 597v116h117v-116h-117z" />
    <glyph glyph-name="wgrave" unicode="&#x1e81;" horiz-adv-x="776" 
d="M148 0l-142 488h129l89 -361h4l99 361h126l99 -361h4l89 361h125l-142 -488h-145l-93 356h-4l-94 -356h-144zM345 568l-148 164h135l101 -164h-88z" />
    <glyph glyph-name="ycircumflex" unicode="&#x177;" horiz-adv-x="518" 
d="M184 0l-180 488h140l118 -361h4l117 361h131l-195 -548c-30 -87 -86 -168 -198 -168h-59v102h30c56 0 95 25 116 91l11 35h-35zM81 568l128 164h98l128 -164h-106l-71 99l-71 -99h-106z" />
    <glyph glyph-name="ygrave" unicode="&#x1ef3;" horiz-adv-x="518" 
d="M184 0l-180 488h140l118 -361h4l117 361h131l-195 -548c-30 -87 -86 -168 -198 -168h-59v102h30c56 0 95 25 116 91l11 35h-35zM215 568l-148 164h135l101 -164h-88z" />
    <glyph glyph-name="zacute" unicode="&#x17a;" horiz-adv-x="479" 
d="M32 390v98h411v-75l-246 -315h250v-98h-413v70l250 320h-252zM193 568l100 164h136l-148 -164h-88z" />
    <glyph glyph-name="zdotaccent" unicode="&#x17c;" horiz-adv-x="479" 
d="M32 390v98h411v-75l-246 -315h250v-98h-413v70l250 320h-252zM179 597v116h118v-116h-118z" />
    <glyph glyph-name="aeacute" unicode="&#x1fd;" horiz-adv-x="868" 
d="M61 330c8 122 106 170 216 170c77 0 132 -20 164 -59c39 38 92 59 159 59c138 0 232 -88 232 -243v-36h-345c6 -91 49 -139 117 -139c63 0 87 35 97 66h125c-15 -87 -101 -160 -224 -160c-88 0 -152 34 -191 94c-47 -78 -127 -94 -192 -94c-118 0 -177 56 -177 138
c0 81 52 132 166 149l94 14c52 8 62 16 62 41c0 43 -26 80 -87 80c-54 0 -92 -27 -96 -80h-120zM245 78c61 0 119 35 119 119v43c-9 -13 -26 -19 -48 -23l-75 -12c-50 -8 -72 -32 -72 -66c0 -40 29 -61 76 -61zM600 407c-59 0 -97 -40 -110 -108h210c-6 68 -37 108 -100 108
zM382 568l100 164h136l-148 -164h-88z" />
    <glyph glyph-name="space_uni0326" unicode="&#xf6c3;" horiz-adv-x="586" 
d="M234 -61h118v-88l-50 -108h-53l35 95h-50v101z" />
    <glyph glyph-name="aacute.sc" unicode="&#xf7e1;" horiz-adv-x="570" 
d="M6 0l204 520h152l202 -520h-136l-36 103h-219l-37 -103h-130zM282 403l-74 -204h150l-72 204h-4zM240 600l100 164h136l-148 -164h-88z" />
    <glyph glyph-name="abreve.sc" unicode="&#xf66d;" horiz-adv-x="570" 
d="M6 0l204 520h152l202 -520h-136l-36 103h-219l-37 -103h-130zM282 403l-74 -204h150l-72 204h-4zM285 606c-73 0 -146 38 -155 152h71c8 -51 37 -79 84 -79c46 0 76 30 84 79h71c-9 -114 -82 -152 -155 -152z" />
    <glyph glyph-name="acircumflex.sc" unicode="&#xf7e2;" horiz-adv-x="570" 
d="M6 0l204 520h152l202 -520h-136l-36 103h-219l-37 -103h-130zM282 403l-74 -204h150l-72 204h-4zM108 600l128 164h98l128 -164h-106l-71 99l-71 -99h-106z" />
    <glyph glyph-name="adieresis.sc" unicode="&#xf7e4;" horiz-adv-x="570" 
d="M6 0l204 520h152l202 -520h-136l-36 103h-219l-37 -103h-130zM282 403l-74 -204h150l-72 204h-4zM335 629v116h118v-116h-118zM117 629v116h117v-116h-117z" />
    <glyph glyph-name="aeacute.sc" unicode="&#xf670;" horiz-adv-x="909" 
d="M-4 0l390 520h461v-98h-287v-112h233v-93h-233v-119h297v-98h-425v102h-220l-73 -102h-143zM428 403l-147 -205h151v205h-4zM452 600l100 164h136l-148 -164h-88z" />
    <glyph glyph-name="agrave.sc" unicode="&#xf7e0;" horiz-adv-x="570" 
d="M6 0l204 520h152l202 -520h-136l-36 103h-219l-37 -103h-130zM282 403l-74 -204h150l-72 204h-4zM242 600l-148 164h135l101 -164h-88z" />
    <glyph glyph-name="amacron.sc" unicode="&#xf66e;" horiz-adv-x="570" 
d="M6 0l204 520h152l202 -520h-136l-36 103h-219l-37 -103h-130zM282 403l-74 -204h150l-72 204h-4zM134 639v86h298v-86h-298z" />
    <glyph glyph-name="aogonek.sc" unicode="&#xf66f;" horiz-adv-x="570" 
d="M420 -128c0 45 25 81 81 128h-73l-36 103h-219l-37 -103h-130l204 520h152l202 -520c-43 -45 -60 -80 -60 -105s13 -42 51 -42h29v-73h-40c-87 0 -124 35 -124 92zM282 403l-74 -204h150l-72 204h-4z" />
    <glyph glyph-name="aring.sc" unicode="&#xf7e5;" horiz-adv-x="570" 
d="M6 0l204 520h152l202 -520h-136l-36 103h-219l-37 -103h-130zM282 403l-74 -204h150l-72 204h-4zM285 587c-60 0 -107 42 -107 101c0 61 48 102 107 102c58 0 107 -41 107 -102c0 -59 -47 -101 -107 -101zM285 640c26 0 48 20 48 48s-22 49 -48 49s-48 -21 -48 -49
s22 -48 48 -48z" />
    <glyph glyph-name="atilde.sc" unicode="&#xf7e3;" horiz-adv-x="570" 
d="M6 0l204 520h152l202 -520h-136l-36 103h-219l-37 -103h-130zM282 403l-74 -204h150l-72 204h-4zM110 619c1 76 37 124 103 124c60 0 109 -44 148 -44c26 0 36 25 38 48h61c-2 -77 -37 -125 -103 -125c-61 0 -109 45 -148 45c-26 0 -36 -25 -38 -48h-61z" />
    <glyph glyph-name="cacute.sc" unicode="&#xf671;" horiz-adv-x="599" 
d="M38 260c0 159 107 272 279 272c135 0 229 -76 249 -189h-126c-15 47 -53 81 -122 81c-91 0 -147 -66 -147 -164c0 -97 56 -164 147 -164c70 0 105 35 122 81h126c-20 -111 -112 -189 -251 -189c-174 0 -277 118 -277 272zM272 600l100 164h136l-148 -164h-88z" />
    <glyph glyph-name="ccaron.sc" unicode="&#xf672;" horiz-adv-x="599" 
d="M38 260c0 159 107 272 279 272c135 0 229 -76 249 -189h-126c-15 47 -53 81 -122 81c-91 0 -147 -66 -147 -164c0 -97 56 -164 147 -164c70 0 105 35 122 81h126c-20 -111 -112 -189 -251 -189c-174 0 -277 118 -277 272zM268 600l-128 164h106l71 -99l71 99h106
l-128 -164h-98z" />
    <glyph glyph-name="ccedilla.sc" unicode="&#xf7e7;" horiz-adv-x="599" 
d="M264 -88l27 77c-160 11 -253 124 -253 271c0 159 107 272 279 272c135 0 229 -76 249 -189h-126c-15 47 -53 81 -122 81c-91 0 -147 -66 -147 -164c0 -97 56 -164 147 -164c70 0 105 35 122 81h126c-19 -106 -103 -181 -230 -188v-27c60 -2 92 -39 92 -86
c0 -54 -37 -96 -117 -96h-67v62h53c29 0 47 8 47 36c0 24 -18 34 -47 34h-33z" />
    <glyph glyph-name="ccircumflex.sc" unicode="&#xf673;" horiz-adv-x="599" 
d="M38 260c0 159 107 272 279 272c135 0 229 -76 249 -189h-126c-15 47 -53 81 -122 81c-91 0 -147 -66 -147 -164c0 -97 56 -164 147 -164c70 0 105 35 122 81h126c-20 -111 -112 -189 -251 -189c-174 0 -277 118 -277 272zM140 600l128 164h98l128 -164h-106l-71 99
l-71 -99h-106z" />
    <glyph glyph-name="cdotaccent.sc" unicode="&#xf674;" horiz-adv-x="599" 
d="M38 260c0 159 107 272 279 272c135 0 229 -76 249 -189h-126c-15 47 -53 81 -122 81c-91 0 -147 -66 -147 -164c0 -97 56 -164 147 -164c70 0 105 35 122 81h126c-20 -111 -112 -189 -251 -189c-174 0 -277 118 -277 272zM258 629v116h118v-116h-118z" />
    <glyph glyph-name="dcaron.sc" unicode="&#xf675;" horiz-adv-x="624" 
d="M81 0v520h227c179 0 277 -107 277 -260c0 -149 -97 -260 -278 -260h-226zM293 418h-84v-316h84c116 0 160 74 160 158c0 86 -44 158 -160 158zM246 600l-128 164h106l71 -99l71 99h106l-128 -164h-98z" />
    <glyph glyph-name="eacute.sc" unicode="&#xf7e9;" horiz-adv-x="556" 
d="M81 0v520h415v-98h-287v-112h232v-93h-232v-119h296v-98h-424zM242 600l100 164h136l-148 -164h-88z" />
    <glyph glyph-name="ebreve.sc" unicode="&#xf677;" horiz-adv-x="556" 
d="M81 0v520h415v-98h-287v-112h232v-93h-232v-119h296v-98h-424zM287 606c-73 0 -146 38 -155 152h71c8 -51 37 -79 84 -79c46 0 76 30 84 79h71c-9 -114 -82 -152 -155 -152z" />
    <glyph glyph-name="ecaron.sc" unicode="&#xf678;" horiz-adv-x="556" 
d="M81 0v520h415v-98h-287v-112h232v-93h-232v-119h296v-98h-424zM238 600l-128 164h106l71 -99l71 99h106l-128 -164h-98z" />
    <glyph glyph-name="ecircumflex.sc" unicode="&#xf7ea;" horiz-adv-x="556" 
d="M81 0v520h415v-98h-287v-112h232v-93h-232v-119h296v-98h-424zM110 600l128 164h98l128 -164h-106l-71 99l-71 -99h-106z" />
    <glyph glyph-name="edieresis.sc" unicode="&#xf7eb;" horiz-adv-x="556" 
d="M81 0v520h415v-98h-287v-112h232v-93h-232v-119h296v-98h-424zM337 629v116h118v-116h-118zM119 629v116h117v-116h-117z" />
    <glyph glyph-name="edotaccent.sc" unicode="&#xf679;" horiz-adv-x="556" 
d="M81 0v520h415v-98h-287v-112h232v-93h-232v-119h296v-98h-424zM228 629v116h118v-116h-118z" />
    <glyph glyph-name="egrave.sc" unicode="&#xf7e8;" horiz-adv-x="556" 
d="M81 0v520h415v-98h-287v-112h232v-93h-232v-119h296v-98h-424zM244 600l-148 164h135l101 -164h-88z" />
    <glyph glyph-name="emacron.sc" unicode="&#xf67a;" horiz-adv-x="556" 
d="M81 0v520h415v-98h-287v-112h232v-93h-232v-119h296v-98h-424zM136 639v86h298v-86h-298z" />
    <glyph glyph-name="eogonek.sc" unicode="&#xf67c;" horiz-adv-x="556" 
d="M81 0v520h415v-98h-287v-112h232v-93h-232v-119h296v-98c-43 -45 -60 -80 -60 -105s13 -42 51 -42h29v-73h-40c-87 0 -124 35 -124 92c0 45 25 81 81 128h-361z" />
    <glyph glyph-name="gbreve.sc" unicode="&#xf67d;" horiz-adv-x="651" 
d="M333 195v90h248v-285h-82l-10 54h-3c-34 -40 -86 -66 -164 -66c-172 0 -280 118 -280 272c0 157 114 272 289 272c142 0 234 -80 250 -175h-129c-11 33 -51 69 -121 69c-96 0 -156 -68 -156 -166c0 -99 59 -168 156 -168c76 0 133 40 136 103h-134zM331 606
c-73 0 -146 38 -155 152h71c8 -51 37 -79 84 -79c46 0 76 30 84 79h71c-9 -114 -82 -152 -155 -152z" />
    <glyph glyph-name="gcircumflex.sc" unicode="&#xf67e;" horiz-adv-x="651" 
d="M333 195v90h248v-285h-82l-10 54h-3c-34 -40 -86 -66 -164 -66c-172 0 -280 118 -280 272c0 157 114 272 289 272c142 0 234 -80 250 -175h-129c-11 33 -51 69 -121 69c-96 0 -156 -68 -156 -166c0 -99 59 -168 156 -168c76 0 133 40 136 103h-134zM154 600l128 164h98
l128 -164h-106l-71 99l-71 -99h-106z" />
    <glyph glyph-name="gcommaaccent.sc" unicode="&#xf67f;" horiz-adv-x="651" 
d="M333 195v90h248v-285h-82l-10 54h-3c-34 -40 -86 -66 -164 -66c-172 0 -280 118 -280 272c0 157 114 272 289 272c142 0 234 -80 250 -175h-129c-11 33 -51 69 -121 69c-96 0 -156 -68 -156 -166c0 -99 59 -168 156 -168c76 0 133 40 136 103h-134zM263 -61h118v-88
l-50 -108h-53l35 95h-50v101z" />
    <glyph glyph-name="gdotaccent.sc" unicode="&#xf680;" horiz-adv-x="651" 
d="M333 195v90h248v-285h-82l-10 54h-3c-34 -40 -86 -66 -164 -66c-172 0 -280 118 -280 272c0 157 114 272 289 272c142 0 234 -80 250 -175h-129c-11 33 -51 69 -121 69c-96 0 -156 -68 -156 -166c0 -99 59 -168 156 -168c76 0 133 40 136 103h-134zM272 629v116h118v-116
h-118z" />
    <glyph glyph-name="hcircumflex.sc" unicode="&#xf682;" horiz-adv-x="652" 
d="M81 0v520h128v-205h234v205h128v-520h-128v209h-234v-209h-128zM149 600l128 164h98l128 -164h-106l-71 99l-71 -99h-106z" />
    <glyph glyph-name="iacute.sc" unicode="&#xf7ed;" horiz-adv-x="290" 
d="M81 0v520h128v-520h-128zM99 600l100 164h136l-148 -164h-88z" />
    <glyph glyph-name="ibreve.sc" unicode="&#xf683;" horiz-adv-x="290" 
d="M81 0v520h128v-520h-128zM144 606c-73 0 -146 38 -155 152h71c8 -51 37 -79 84 -79c46 0 76 30 84 79h71c-9 -114 -82 -152 -155 -152z" />
    <glyph glyph-name="icircumflex.sc" unicode="&#xf7ee;" horiz-adv-x="290" 
d="M81 0v520h128v-520h-128zM-33 600l128 164h98l128 -164h-106l-71 99l-71 -99h-106z" />
    <glyph glyph-name="idieresis.sc" unicode="&#xf7ef;" horiz-adv-x="290" 
d="M81 0v520h128v-520h-128zM194 629v116h118v-116h-118zM-24 629v116h117v-116h-117z" />
    <glyph glyph-name="idotaccent.sc" unicode="&#xf6ad;" horiz-adv-x="290" 
d="M81 0v520h128v-520h-128zM85 629v116h118v-116h-118z" />
    <glyph glyph-name="igrave.sc" unicode="&#xf7ec;" horiz-adv-x="290" 
d="M81 0v520h128v-520h-128zM101 600l-148 164h135l101 -164h-88z" />
    <glyph glyph-name="imacron.sc" unicode="&#xf685;" horiz-adv-x="290" 
d="M81 0v520h128v-520h-128zM-7 639v86h298v-86h-298z" />
    <glyph glyph-name="iogonek.sc" unicode="&#xf686;" horiz-adv-x="290" 
d="M81 0v520h128v-520h-1c-43 -45 -60 -80 -60 -105s13 -42 51 -42h29v-73h-40c-87 0 -124 35 -124 92c0 45 25 81 81 128h-64z" />
    <glyph glyph-name="itilde.sc" unicode="&#xf687;" horiz-adv-x="290" 
d="M81 0v520h128v-520h-128zM-31 619c1 76 37 124 103 124c60 0 109 -44 148 -44c26 0 36 25 38 48h61c-2 -77 -37 -125 -103 -125c-61 0 -109 45 -148 45c-26 0 -36 -25 -38 -48h-61z" />
    <glyph glyph-name="jcircumflex.sc" unicode="&#xf688;" horiz-adv-x="484" 
d="M38 163v22h125v-27c0 -46 24 -68 63 -68c38 0 64 22 64 70v360h128v-342c0 -133 -76 -190 -192 -190c-112 0 -188 53 -188 175zM179 600l128 164h98l128 -164h-106l-71 99l-71 -99h-106z" />
    <glyph glyph-name="kcommaaccent.sc" unicode="&#xf689;" horiz-adv-x="600" 
d="M81 0v520h128v-235l217 235h148l-215 -226l231 -294h-150l-164 208l-67 -71v-137h-128zM258 -61h118v-88l-50 -108h-53l35 95h-50v101z" />
    <glyph glyph-name="lacute.sc" unicode="&#xf68a;" horiz-adv-x="492" 
d="M81 0v520h128v-412h259v-108h-387zM98 600l100 164h136l-148 -164h-88z" />
    <glyph glyph-name="lcaron.sc" unicode="&#xf68b;" horiz-adv-x="492" 
d="M81 0v520h128v-415h259v-105h-387zM324 323l34 96h-49v101h117v-88l-49 -109h-53z" />
    <glyph glyph-name="lcommaaccent.sc" unicode="&#xf68c;" horiz-adv-x="492" 
d="M81 0v520h128v-412h259v-108h-387zM216 -61h118v-88l-50 -108h-53l35 95h-50v101z" />
    <glyph glyph-name="ldot.sc" unicode="&#xf68d;" horiz-adv-x="492" 
d="M81 0v520h128v-415h259v-105h-387zM286 226v115h118v-115h-118z" />
    <glyph glyph-name="lslash.sc" unicode="&#xf6f9;" horiz-adv-x="492" 
d="M29 110l-42 60l94 62v288h128v-203l104 70l41 -60l-145 -97v-125h259v-105h-387v144z" />
    <glyph glyph-name="nacute.sc" unicode="&#xf68e;" horiz-adv-x="652" 
d="M81 0v520h111l251 -317h4l-4 317h128v-520h-109l-253 317h-5l5 -317h-128zM281 600l100 164h136l-148 -164h-88z" />
    <glyph glyph-name="ncaron.sc" unicode="&#xf68f;" horiz-adv-x="652" 
d="M81 0v520h111l251 -317h4l-4 317h128v-520h-109l-253 317h-5l5 -317h-128zM277 600l-128 164h106l71 -99l71 99h106l-128 -164h-98z" />
    <glyph glyph-name="ncommaaccent.sc" unicode="&#xf690;" horiz-adv-x="652" 
d="M81 0v520h111l251 -317h4l-4 317h128v-520h-109l-253 317h-5l5 -317h-128zM267 -61h118v-88l-50 -108h-53l35 95h-50v101z" />
    <glyph glyph-name="ntilde.sc" unicode="&#xf7f1;" horiz-adv-x="652" 
d="M81 0v520h111l251 -317h4l-4 317h128v-520h-109l-253 317h-5l5 -317h-128zM151 619c1 76 37 124 103 124c60 0 109 -44 148 -44c26 0 36 25 38 48h61c-2 -77 -37 -125 -103 -125c-61 0 -109 45 -148 45c-26 0 -36 -25 -38 -48h-61z" />
    <glyph glyph-name="oacute.sc" unicode="&#xf7f3;" horiz-adv-x="650" 
d="M38 260c0 156 116 272 287 272c170 0 287 -116 287 -272s-115 -272 -287 -272c-170 0 -287 116 -287 272zM171 260c0 -95 62 -164 154 -164c93 0 154 67 154 164c0 95 -62 164 -154 164s-154 -67 -154 -164zM280 600l100 164h136l-148 -164h-88z" />
    <glyph glyph-name="obreve.sc" unicode="&#xf691;" horiz-adv-x="650" 
d="M38 260c0 156 116 272 287 272c170 0 287 -116 287 -272s-115 -272 -287 -272c-170 0 -287 116 -287 272zM171 260c0 -95 62 -164 154 -164c93 0 154 67 154 164c0 95 -62 164 -154 164s-154 -67 -154 -164zM325 606c-73 0 -146 38 -155 152h71c8 -51 37 -79 84 -79
c46 0 76 30 84 79h71c-9 -114 -82 -152 -155 -152z" />
    <glyph glyph-name="ocircumflex.sc" unicode="&#xf7f4;" horiz-adv-x="650" 
d="M38 260c0 156 116 272 287 272c170 0 287 -116 287 -272s-115 -272 -287 -272c-170 0 -287 116 -287 272zM171 260c0 -95 62 -164 154 -164c93 0 154 67 154 164c0 95 -62 164 -154 164s-154 -67 -154 -164zM148 600l128 164h98l128 -164h-106l-71 99l-71 -99h-106z" />
    <glyph glyph-name="odieresis.sc" unicode="&#xf7f6;" horiz-adv-x="650" 
d="M38 260c0 156 116 272 287 272c170 0 287 -116 287 -272s-115 -272 -287 -272c-170 0 -287 116 -287 272zM171 260c0 -95 62 -164 154 -164c93 0 154 67 154 164c0 95 -62 164 -154 164s-154 -67 -154 -164zM375 629v116h118v-116h-118zM157 629v116h117v-116h-117z" />
    <glyph glyph-name="ograve.sc" unicode="&#xf7f2;" horiz-adv-x="650" 
d="M38 260c0 156 116 272 287 272c170 0 287 -116 287 -272s-115 -272 -287 -272c-170 0 -287 116 -287 272zM171 260c0 -95 62 -164 154 -164c93 0 154 67 154 164c0 95 -62 164 -154 164s-154 -67 -154 -164zM282 600l-148 164h135l101 -164h-88z" />
    <glyph glyph-name="ohungarumlaut.sc" unicode="&#xf692;" horiz-adv-x="650" 
d="M38 260c0 156 116 272 287 272c170 0 287 -116 287 -272s-115 -272 -287 -272c-170 0 -287 116 -287 272zM171 260c0 -95 62 -164 154 -164c93 0 154 67 154 164c0 95 -62 164 -154 164s-154 -67 -154 -164zM379 600l100 164h136l-148 -164h-88zM181 600l100 164h135
l-147 -164h-88z" />
    <glyph glyph-name="omacron.sc" unicode="&#xf693;" horiz-adv-x="650" 
d="M38 260c0 156 116 272 287 272c170 0 287 -116 287 -272s-115 -272 -287 -272c-170 0 -287 116 -287 272zM171 260c0 -95 62 -164 154 -164c93 0 154 67 154 164c0 95 -62 164 -154 164s-154 -67 -154 -164zM174 639v86h298v-86h-298z" />
    <glyph glyph-name="oslashacute.sc" unicode="&#xf694;" horiz-adv-x="650" 
d="M54 -12l65 76c-51 49 -81 117 -81 196c0 156 116 272 287 272c59 0 112 -15 156 -40l34 40h83l-66 -78c51 -48 80 -116 80 -194c0 -156 -115 -272 -287 -272c-59 0 -111 14 -155 38l-32 -38h-84zM171 260c0 -39 10 -74 28 -101l206 243c-23 14 -50 22 -80 22
c-92 0 -154 -67 -154 -164zM479 260c0 38 -10 72 -28 99l-205 -243c23 -13 49 -20 79 -20c93 0 154 67 154 164zM280 600l100 164h136l-148 -164h-88z" />
    <glyph glyph-name="otilde.sc" unicode="&#xf7f5;" horiz-adv-x="650" 
d="M38 260c0 156 116 272 287 272c170 0 287 -116 287 -272s-115 -272 -287 -272c-170 0 -287 116 -287 272zM171 260c0 -95 62 -164 154 -164c93 0 154 67 154 164c0 95 -62 164 -154 164s-154 -67 -154 -164zM150 619c1 76 37 124 103 124c60 0 109 -44 148 -44
c26 0 36 25 38 48h61c-2 -77 -37 -125 -103 -125c-61 0 -109 45 -148 45c-26 0 -36 -25 -38 -48h-61z" />
    <glyph glyph-name="racute.sc" unicode="&#xf695;" horiz-adv-x="601" 
d="M81 0v520h265c128 0 197 -64 197 -167c0 -77 -39 -136 -111 -161l135 -192h-141l-121 179h-96v-179h-128zM331 422h-122v-146h122c54 0 81 29 81 75c0 43 -29 71 -81 71zM244 600l100 164h136l-148 -164h-88z" />
    <glyph glyph-name="rcaron.sc" unicode="&#xf696;" horiz-adv-x="601" 
d="M81 0v520h265c128 0 197 -64 197 -167c0 -77 -39 -136 -111 -161l135 -192h-141l-121 179h-96v-179h-128zM331 422h-122v-146h122c54 0 81 29 81 75c0 43 -29 71 -81 71zM240 600l-128 164h106l71 -99l71 99h106l-128 -164h-98z" />
    <glyph glyph-name="rcommaaccent.sc" unicode="&#xf697;" horiz-adv-x="601" 
d="M81 0v520h265c128 0 197 -64 197 -167c0 -77 -39 -136 -111 -161l135 -192h-141l-121 179h-96v-179h-128zM331 422h-122v-146h122c54 0 81 29 81 75c0 43 -29 71 -81 71zM249 -61h118v-88l-50 -108h-53l35 95h-50v101z" />
    <glyph glyph-name="sacute.sc" unicode="&#xf698;" horiz-adv-x="554" 
d="M40 150h127c0 -46 41 -72 106 -72s106 22 106 68c0 107 -330 5 -330 219c0 96 81 167 228 167c140 0 216 -64 216 -158h-122c0 44 -41 68 -94 68c-57 0 -98 -19 -98 -64c0 -110 332 -9 332 -219c0 -104 -82 -171 -238 -171c-151 0 -233 62 -233 162zM232 600l100 164h136
l-148 -164h-88z" />
    <glyph glyph-name="scaron.sc" unicode="&#xf6fd;" horiz-adv-x="554" 
d="M40 150h127c0 -46 41 -72 106 -72s106 22 106 68c0 107 -330 5 -330 219c0 96 81 167 228 167c140 0 216 -64 216 -158h-122c0 44 -41 68 -94 68c-57 0 -98 -19 -98 -64c0 -110 332 -9 332 -219c0 -104 -82 -171 -238 -171c-151 0 -233 62 -233 162zM228 600l-128 164
h106l71 -99l71 99h106l-128 -164h-98z" />
    <glyph glyph-name="scedilla.sc" unicode="&#xf699;" horiz-adv-x="554" 
d="M222 -88l27 77c-136 6 -209 66 -209 161h127c0 -46 41 -72 106 -72s106 22 106 68c0 107 -330 5 -330 219c0 96 81 167 228 167c140 0 216 -64 216 -158h-122c0 44 -41 68 -94 68c-57 0 -98 -19 -98 -64c0 -110 332 -9 332 -219c0 -100 -75 -164 -217 -170v-27
c60 -2 92 -39 92 -86c0 -54 -37 -96 -117 -96h-67v62h53c29 0 47 8 47 36c0 24 -18 34 -47 34h-33z" />
    <glyph glyph-name="scircumflex.sc" unicode="&#xf69a;" horiz-adv-x="554" 
d="M40 150h127c0 -46 41 -72 106 -72s106 22 106 68c0 107 -330 5 -330 219c0 96 81 167 228 167c140 0 216 -64 216 -158h-122c0 44 -41 68 -94 68c-57 0 -98 -19 -98 -64c0 -110 332 -9 332 -219c0 -104 -82 -171 -238 -171c-151 0 -233 62 -233 162zM100 600l128 164h98
l128 -164h-106l-71 99l-71 -99h-106z" />
    <glyph glyph-name="scommaaccent.sc" unicode="&#xf69b;" horiz-adv-x="554" 
d="M40 150h127c0 -46 41 -72 106 -72s106 22 106 68c0 107 -330 5 -330 219c0 96 81 167 228 167c140 0 216 -64 216 -158h-122c0 44 -41 68 -94 68c-57 0 -98 -19 -98 -64c0 -110 332 -9 332 -219c0 -104 -82 -171 -238 -171c-151 0 -233 62 -233 162zM214 -61h118v-88
l-50 -108h-53l35 95h-50v101z" />
    <glyph glyph-name="tcaron.sc" unicode="&#xf69d;" horiz-adv-x="538" 
d="M24 415v105h490v-105h-181v-415h-128v415h-181zM219 600l-128 164h106l71 -99l71 99h106l-128 -164h-98z" />
    <glyph glyph-name="tcommaaccent.sc" unicode="&#xf69e;" horiz-adv-x="538" 
d="M220 -88l31 88h-46v415h-181v105h490v-105h-181v-415h-41v-38c60 -2 92 -39 92 -86c0 -54 -37 -96 -117 -96h-67v62h53c29 0 47 8 47 36c0 24 -18 34 -47 34h-33z" />
    <glyph glyph-name="uacute.sc" unicode="&#xf7fa;" horiz-adv-x="620" 
d="M65 212v308h128v-305c0 -73 39 -118 116 -118c78 0 118 45 118 118v305h128v-308c0 -169 -104 -224 -246 -224s-244 55 -244 224zM265 600l100 164h136l-148 -164h-88z" />
    <glyph glyph-name="ubreve.sc" unicode="&#xf69f;" horiz-adv-x="620" 
d="M65 212v308h128v-305c0 -73 39 -118 116 -118c78 0 118 45 118 118v305h128v-308c0 -169 -104 -224 -246 -224s-244 55 -244 224zM310 606c-73 0 -146 38 -155 152h71c8 -51 37 -79 84 -79c46 0 76 30 84 79h71c-9 -114 -82 -152 -155 -152z" />
    <glyph glyph-name="ucircumflex.sc" unicode="&#xf7fb;" horiz-adv-x="620" 
d="M65 212v308h128v-305c0 -73 39 -118 116 -118c78 0 118 45 118 118v305h128v-308c0 -169 -104 -224 -246 -224s-244 55 -244 224zM133 600l128 164h98l128 -164h-106l-71 99l-71 -99h-106z" />
    <glyph glyph-name="udieresis.sc" unicode="&#xf7fc;" horiz-adv-x="620" 
d="M65 212v308h128v-305c0 -73 39 -118 116 -118c78 0 118 45 118 118v305h128v-308c0 -169 -104 -224 -246 -224s-244 55 -244 224zM360 629v116h118v-116h-118zM142 629v116h117v-116h-117z" />
    <glyph glyph-name="ugrave.sc" unicode="&#xf7f9;" horiz-adv-x="620" 
d="M65 212v308h128v-305c0 -73 39 -118 116 -118c78 0 118 45 118 118v305h128v-308c0 -169 -104 -224 -246 -224s-244 55 -244 224zM267 600l-148 164h135l101 -164h-88z" />
    <glyph glyph-name="uhungarumlaut.sc" unicode="&#xf6a0;" horiz-adv-x="620" 
d="M65 212v308h128v-305c0 -73 39 -118 116 -118c78 0 118 45 118 118v305h128v-308c0 -169 -104 -224 -246 -224s-244 55 -244 224zM364 600l100 164h136l-148 -164h-88zM166 600l100 164h135l-147 -164h-88z" />
    <glyph glyph-name="umacron.sc" unicode="&#xf6a1;" horiz-adv-x="620" 
d="M65 212v308h128v-305c0 -73 39 -118 116 -118c78 0 118 45 118 118v305h128v-308c0 -169 -104 -224 -246 -224s-244 55 -244 224zM159 639v86h298v-86h-298z" />
    <glyph glyph-name="uogonek.sc" unicode="&#xf6a2;" horiz-adv-x="620" 
d="M251 -122c0 47 34 84 77 111c-6 0 -13 -1 -19 -1c-144 0 -244 55 -244 224v308h128v-305c0 -73 39 -118 116 -118c78 0 118 45 118 118v305h128v-308c0 -107 -42 -165 -107 -199c-73 -38 -110 -79 -110 -115c0 -26 13 -45 51 -45h30v-73h-40c-88 0 -128 35 -128 98z" />
    <glyph glyph-name="uring.sc" unicode="&#xf6a3;" horiz-adv-x="620" 
d="M65 212v308h128v-305c0 -73 39 -118 116 -118c78 0 118 45 118 118v305h128v-308c0 -169 -104 -224 -246 -224s-244 55 -244 224zM310 587c-60 0 -107 42 -107 101c0 61 48 102 107 102c58 0 107 -41 107 -102c0 -59 -47 -101 -107 -101zM310 640c26 0 48 20 48 48
s-22 49 -48 49s-48 -21 -48 -49s22 -48 48 -48z" />
    <glyph glyph-name="utilde.sc" unicode="&#xf6a4;" horiz-adv-x="620" 
d="M65 212v308h128v-305c0 -73 39 -118 116 -118c78 0 118 45 118 118v305h128v-308c0 -169 -104 -224 -246 -224s-244 55 -244 224zM135 619c1 76 37 124 103 124c60 0 109 -44 148 -44c26 0 36 25 38 48h61c-2 -77 -37 -125 -103 -125c-61 0 -109 45 -148 45
c-26 0 -36 -25 -38 -48h-61z" />
    <glyph glyph-name="wacute.sc" unicode="&#xf6a5;" horiz-adv-x="811" 
d="M147 0l-135 520h136l88 -387h4l110 387h117l111 -387h4l82 387h134l-134 -520h-158l-97 353h-3l-99 -353h-160zM361 600l100 164h136l-148 -164h-88z" />
    <glyph glyph-name="wcircumflex.sc" unicode="&#xf6a6;" horiz-adv-x="811" 
d="M147 0l-135 520h136l88 -387h4l110 387h117l111 -387h4l82 387h134l-134 -520h-158l-97 353h-3l-99 -353h-160zM229 600l128 164h98l128 -164h-106l-71 99l-71 -99h-106z" />
    <glyph glyph-name="wdieresis.sc" unicode="&#xf6a7;" horiz-adv-x="811" 
d="M147 0l-135 520h136l88 -387h4l110 387h117l111 -387h4l82 387h134l-134 -520h-158l-97 353h-3l-99 -353h-160zM456 629v116h118v-116h-118zM238 629v116h117v-116h-117z" />
    <glyph glyph-name="wgrave.sc" unicode="&#xf6a8;" horiz-adv-x="811" 
d="M147 0l-135 520h136l88 -387h4l110 387h117l111 -387h4l82 387h134l-134 -520h-158l-97 353h-3l-99 -353h-160zM363 600l-148 164h135l101 -164h-88z" />
    <glyph glyph-name="yacute.sc" unicode="&#xf7fd;" horiz-adv-x="556" 
d="M212 0v196l-208 324h146l128 -209h3l134 209h137l-211 -321v-199h-129zM233 600l100 164h136l-148 -164h-88z" />
    <glyph glyph-name="ycircumflex.sc" unicode="&#xf6a9;" horiz-adv-x="556" 
d="M212 0v196l-208 324h146l128 -209h3l134 209h137l-211 -321v-199h-129zM101 600l128 164h98l128 -164h-106l-71 99l-71 -99h-106z" />
    <glyph glyph-name="ydieresis.sc" unicode="&#xf7ff;" horiz-adv-x="556" 
d="M212 0v196l-208 324h146l128 -209h3l134 209h137l-211 -321v-199h-129zM328 629v116h118v-116h-118zM110 629v116h117v-116h-117z" />
    <glyph glyph-name="ygrave.sc" unicode="&#xf6aa;" horiz-adv-x="556" 
d="M212 0v196l-208 324h146l128 -209h3l134 209h137l-211 -321v-199h-129zM235 600l-148 164h135l101 -164h-88z" />
    <glyph glyph-name="zacute.sc" unicode="&#xf6ab;" horiz-adv-x="528" 
d="M45 416v104h443v-73l-274 -343h271v-104h-449v73l276 343h-267zM219 600l100 164h136l-148 -164h-88z" />
    <glyph glyph-name="zcaron.sc" unicode="&#xf6ff;" horiz-adv-x="528" 
d="M45 416v104h443v-73l-274 -343h271v-104h-449v73l276 343h-267zM215 600l-128 164h106l71 -99l71 99h106l-128 -164h-98z" />
    <glyph glyph-name="zdotaccent.sc" unicode="&#xf6ac;" horiz-adv-x="528" 
d="M45 416v104h443v-73l-274 -343h271v-104h-449v73l276 343h-267zM205 629v116h118v-116h-118z" />
    <glyph glyph-name="uni0394" unicode="&#x394;" horiz-adv-x="661" 
d="M13 0l248 688h139l247 -688h-634zM329 549h-4l-152 -445h308z" />
    <glyph glyph-name="uni03A9" unicode="&#x3a9;" horiz-adv-x="696" 
d="M401 0v233c64 17 129 81 129 183c0 113 -76 184 -182 184s-182 -71 -182 -184c0 -102 66 -166 129 -183v-233h-242v96h136v79c-91 43 -152 130 -152 243c0 158 122 282 311 282s311 -124 311 -282c0 -113 -61 -200 -152 -243v-79h136v-96h-242z" />
    <glyph glyph-name="uni03BC" unicode="&#x3bc;" horiz-adv-x="596" 
d="M406 0v70h-4c-28 -56 -80 -82 -146 -82c-26 0 -51 6 -73 18c8 -63 12 -117 12 -165v-61h-128v708h128v-280c0 -90 37 -120 96 -120c65 0 109 55 109 144v256h129v-488h-123z" />
    <glyph glyph-name="uni021A" unicode="&#x21a;" horiz-adv-x="616" 
d="M8 576v112h600v-112h-233v-576h-134v576h-233zM250 -61h118v-88l-50 -108h-53l35 95h-50v101z" />
    <glyph glyph-name="uni021B" unicode="&#x21b;" horiz-adv-x="361" 
d="M88 168v224h-92v96h92v148h128v-148h121v-96h-121v-216c0 -52 17 -72 68 -72h53v-104h-78c-127 0 -171 46 -171 168zM151 -61h118v-88l-50 -108h-53l35 95h-50v101z" />
    <glyph glyph-name="uni00AD" unicode="&#xad;" horiz-adv-x="396" 
d="M53 197v110h290v-110h-290z" />
    <glyph glyph-name="uni02C9" unicode="&#x2c9;" horiz-adv-x="586" 
d="M142 607v86h298v-86h-298z" />
    <glyph glyph-name="uni2215" unicode="&#x2215;" horiz-adv-x="78" 
d="M-176 -12c63 128 286 584 348 712h81l-348 -712h-81z" />
    <glyph glyph-name="uni2219" unicode="&#x2219;" horiz-adv-x="282" 
d="M69 185v136h145v-136h-145z" />
    <glyph glyph-name="at.sc" horiz-adv-x="840" 
d="M234 96c0 63 41 104 129 114l68 8c38 4 50 10 50 30c0 33 -21 55 -61 55c-38 0 -62 -19 -66 -57h-101c6 97 84 132 167 132c110 0 171 -49 171 -141v-111c0 -49 19 -69 53 -69c39 0 75 38 75 147c0 162 -125 262 -295 262c-186 0 -303 -127 -303 -290
c0 -165 114 -285 293 -285c66 0 117 14 155 49h95c-56 -74 -145 -114 -250 -114c-219 0 -366 154 -366 350c0 197 147 356 376 356c213 0 368 -132 368 -328c0 -152 -81 -212 -175 -212c-55 0 -100 13 -120 56c-26 -38 -67 -58 -132 -58c-86 0 -131 44 -131 106zM401 63
c38 0 80 21 80 78v32c-8 -8 -20 -12 -36 -14l-50 -6c-36 -5 -49 -24 -49 -45c0 -27 21 -45 55 -45z" />
    <glyph glyph-name="fi.sc" horiz-adv-x="816" 
d="M81 0v520h405v-98h-277v-144h223v-95h-223v-183h-128zM607 0v520h128v-520h-128z" />
    <glyph glyph-name="fl.sc" horiz-adv-x="1018" 
d="M81 0v520h405v-98h-277v-144h223v-95h-223v-183h-128zM607 0v520h128v-412h259v-108h-387z" />
    <glyph glyph-name="dotlessj" unicode="&#xf6be;" horiz-adv-x="269" 
d="M70 -46v534h129v-543c0 -103 -40 -165 -171 -165h-41v100h26c43 0 57 24 57 74z" />
    <glyph glyph-name="t_t" horiz-adv-x="674" 
d="M401 168v224h-185v-216c0 -52 17 -72 64 -72h37v-104h-58c-127 0 -171 46 -171 168v224h-90v96h90v148h128v-148h185v148h128v-148h121v-96h-121v-216c0 -52 19 -72 66 -72h55v-104h-78c-127 0 -171 46 -171 168z" />
    <glyph glyph-name="t_f" horiz-adv-x="648" 
d="M401 0v392h-184v-216c0 -52 10 -72 57 -72h40v-104h-61c-127 0 -165 46 -165 168v224h-90v96h90v148h129v-148h184v58c0 126 53 186 188 186h69v-100h-48c-60 0 -80 -25 -80 -83v-61h112v-96h-112v-392h-129z" />
    <glyph glyph-name="caronquoteleft" horiz-adv-x="586" 
d="M234 568v88l50 109h52l-34 -96h50v-101h-118z" />
    <glyph glyph-name="caronquoteright" horiz-adv-x="586" 
d="M249 568l35 96h-50v101h118v-89l-50 -108h-53z" />
    <glyph glyph-name="slashedzero" horiz-adv-x="568" 
d="M284 -12c-180 0 -251 156 -251 356s71 356 251 356s251 -156 251 -356s-71 -356 -251 -356zM165 344c0 -60 5 -109 15 -148l172 368c-18 20 -41 30 -68 30c-82 0 -119 -84 -119 -250zM284 94c80 0 119 84 119 250c0 60 -5 109 -15 147l-172 -368c18 -19 40 -29 68 -29z
" />
    <glyph glyph-name="zero.sc" horiz-adv-x="504" 
d="M252 -12c-158 0 -219 121 -219 272s61 272 219 272s219 -121 219 -272s-61 -272 -219 -272zM252 84c60 0 88 59 88 176c0 118 -27 176 -88 176s-88 -58 -88 -176c0 -117 27 -176 88 -176z" />
    <glyph glyph-name="one.sc" horiz-adv-x="504" 
d="M106 308l-49 86l199 126h81v-422h125v-98h-387v98h135v272z" />
    <glyph glyph-name="two.sc" horiz-adv-x="504" 
d="M45 0c4 138 46 201 138 249l70 36c51 27 77 47 77 88c0 33 -24 63 -76 63s-82 -27 -84 -81h-119c5 129 100 177 205 177c116 0 197 -58 197 -154c0 -78 -39 -123 -119 -165l-69 -37c-60 -34 -76 -50 -78 -78h266v-98h-408z" />
    <glyph glyph-name="three.sc" horiz-adv-x="504" 
d="M39 158h119c0 -60 39 -85 90 -85c53 0 91 25 91 79c0 50 -38 77 -90 77h-39v81h40c45 0 76 28 76 70c0 41 -28 68 -78 68c-44 0 -78 -26 -78 -72h-111c1 99 80 156 189 156c119 0 195 -53 195 -148c0 -51 -28 -94 -78 -111v-4c60 -19 98 -65 98 -129
c0 -101 -94 -152 -217 -152c-127 0 -207 52 -207 170z" />
    <glyph glyph-name="four.sc" horiz-adv-x="504" 
d="M26 99v77l267 344h107v-326h73v-95h-73v-99h-125v99h-249zM143 194h132v173z" />
    <glyph glyph-name="five.sc" horiz-adv-x="504" 
d="M43 140h123c6 -37 32 -63 86 -63c49 0 86 30 86 87c0 55 -36 85 -84 85c-39 0 -64 -19 -80 -46l-115 11l18 306h350v-100h-246l-8 -120h4c20 18 49 34 106 34c83 0 176 -46 176 -168c0 -118 -95 -178 -205 -178c-134 0 -198 57 -211 152z" />
    <glyph glyph-name="six.sc" horiz-adv-x="504" 
d="M266 443c-51 0 -91 -32 -97 -158c21 30 70 49 120 49c87 0 176 -46 176 -168c0 -115 -96 -178 -203 -178c-128 0 -221 63 -221 260c0 215 105 284 225 284c123 0 179 -64 189 -148h-117c-6 31 -24 59 -72 59zM260 247c-49 0 -84 -30 -84 -85c0 -53 35 -83 84 -83
c50 0 84 30 84 85c0 53 -35 83 -84 83z" />
    <glyph glyph-name="seven.sc" horiz-adv-x="504" 
d="M105 0l220 412h-281v108h422v-71l-228 -449h-133z" />
    <glyph glyph-name="eight.sc" horiz-adv-x="504" 
d="M57 384c0 94 80 148 195 148s195 -54 195 -148c0 -50 -28 -94 -78 -111v-4c60 -19 98 -65 98 -129c0 -101 -89 -152 -215 -152s-215 51 -215 152c0 64 38 110 98 129v4c-50 17 -78 61 -78 111zM162 150c0 -50 39 -77 90 -77s90 27 90 77c0 51 -40 79 -90 79
s-90 -28 -90 -79zM174 380c0 -44 33 -70 78 -70s78 26 78 70c0 43 -33 70 -78 70s-78 -27 -78 -70z" />
    <glyph glyph-name="nine.sc" horiz-adv-x="504" 
d="M240 77c51 0 89 31 94 158c-21 -30 -71 -49 -120 -49c-88 0 -177 46 -177 168c0 115 96 178 203 178c128 0 222 -63 222 -260c0 -215 -101 -284 -222 -284c-122 0 -183 64 -193 148h117c6 -31 28 -59 76 -59zM242 273c49 0 84 28 84 85c0 55 -35 83 -84 83
c-50 0 -82 -30 -82 -85c0 -53 33 -83 82 -83z" />
    <glyph glyph-name="slashedzero.sc" horiz-adv-x="504" 
d="M252 -12c-158 0 -219 121 -219 272s61 272 219 272s219 -121 219 -272s-61 -272 -219 -272zM164 260c0 -40 3 -72 9 -98l124 259c-12 10 -28 15 -45 15c-61 0 -88 -58 -88 -176zM252 84c60 0 88 59 88 176c0 39 -3 72 -9 98l-124 -259c12 -10 27 -15 45 -15z" />
    <glyph glyph-name="currency.sc" horiz-adv-x="504" 
d="M106 56l-57 56l59 60c-15 25 -26 55 -26 88c0 32 11 63 27 87l-59 60l57 56l60 -61c24 14 54 22 85 22c30 0 60 -8 84 -22l61 61l57 -56l-59 -60c16 -24 27 -55 27 -87c0 -33 -11 -63 -27 -88l60 -60l-57 -56l-62 62c-23 -14 -54 -22 -84 -22c-31 0 -61 8 -85 22z
M252 173c48 0 83 33 83 87s-35 87 -83 87s-83 -33 -83 -87s35 -87 83 -87z" />
    <glyph glyph-name="dollar.sc" horiz-adv-x="504" 
d="M33 152h119c2 -47 40 -76 94 -76c53 0 86 24 86 64c0 37 -27 51 -75 63l-67 16c-63 16 -145 48 -145 152c0 82 57 143 156 157v88h94v-88c89 -14 145 -70 150 -144h-117c-7 40 -39 60 -80 60c-43 0 -76 -19 -76 -58c0 -33 23 -49 72 -61l66 -16c90 -22 149 -62 149 -154
c0 -90 -61 -150 -164 -164v-91h-94v91c-106 12 -165 73 -168 161z" />
    <glyph glyph-name="cent.sc" horiz-adv-x="504" 
d="M217 -12v78c-106 17 -170 93 -170 196c0 105 67 179 174 195v75h93v-76c93 -16 145 -79 151 -143h-121c-7 26 -31 55 -78 55c-64 0 -92 -47 -92 -106c0 -60 30 -108 90 -108c50 0 72 32 80 58h119c-6 -67 -59 -131 -153 -147v-77h-93z" />
    <glyph glyph-name="Euro.sc" horiz-adv-x="504" 
d="M11 190l14 48h46v49h-47l13 48h40c18 113 83 195 213 195c118 0 173 -68 188 -159h-113c-7 39 -30 65 -72 65c-50 0 -78 -35 -88 -101h136l-14 -48h-127v-49h122l-13 -48h-105c10 -71 38 -106 89 -106c39 0 60 24 70 62h115c-19 -90 -74 -156 -188 -156
c-132 0 -197 84 -214 200h-65z" />
    <glyph glyph-name="yen.sc" horiz-adv-x="504" 
d="M81 171v51h104l-176 298h143l105 -190h2l107 190h129l-174 -298h105v-51h-109v-50h109v-52h-109v-69h-123v69h-113v52h113v50h-113z" />
    <glyph glyph-name="sterling.sc" horiz-adv-x="504" 
d="M64 239v63h64c-13 26 -23 53 -23 84c0 89 60 146 171 146c101 0 154 -50 161 -140h-106c-4 40 -25 55 -55 55c-32 0 -56 -18 -56 -57c0 -32 12 -60 26 -88h123v-63h-96c5 -19 9 -39 9 -61s-5 -46 -13 -70c29 -20 55 -35 77 -35c27 0 38 19 39 60h93
c-3 -89 -31 -145 -118 -145c-51 0 -89 28 -123 59c-25 -33 -63 -57 -112 -57c-65 0 -109 30 -109 88c0 59 43 95 108 95c18 0 35 -4 52 -11c-1 29 -8 54 -18 77h-94zM122 47c30 0 44 21 50 55c-15 10 -30 16 -46 16c-28 0 -40 -17 -40 -36s13 -35 36 -35z" />
    <glyph glyph-name="florin.sc" horiz-adv-x="504" 
d="M62 186v69h100l15 127c13 112 71 150 165 150c93 0 152 -45 140 -135l-4 -30h-103l3 28c4 31 -7 51 -34 51s-37 -19 -42 -64l-15 -127h113v-69h-120l-23 -206c-12 -112 -71 -150 -166 -150c-92 0 -151 44 -139 134l4 30h103l-3 -28c-4 -31 7 -50 34 -50s37 19 42 64
l23 206h-93z" />
    <glyph glyph-name="zero.TOSF" horiz-adv-x="568" 
d="M33 244c0 148 95 256 251 256c160 0 251 -108 251 -256s-95 -256 -251 -256c-160 0 -251 108 -251 256zM162 244c0 -98 50 -156 122 -156s122 60 122 156c0 101 -50 156 -122 156s-122 -58 -122 -156z" />
    <glyph glyph-name="one.TOSF" horiz-adv-x="568" 
d="M118 252l-51 86l217 150h82v-390h161v-98h-461v98h176v239z" />
    <glyph glyph-name="two.TOSF" horiz-adv-x="568" 
d="M47 0c0 153 79 214 178 247l55 18c57 19 104 31 104 79c0 31 -25 64 -96 64c-70 0 -109 -34 -113 -94h-122c4 137 120 186 235 186c133 0 223 -57 223 -154c0 -108 -84 -134 -162 -160l-55 -18c-53 -18 -95 -42 -97 -72h312v-96h-462z" />
    <glyph glyph-name="three.TOSF" horiz-adv-x="568" 
d="M33 8h126c0 -84 51 -122 117 -122c69 0 117 38 117 109c0 67 -51 109 -117 109h-54v102h54c55 0 102 39 102 101c0 60 -46 95 -102 95s-102 -34 -102 -106h-117c0 131 95 204 219 204c131 0 225 -73 225 -187c0 -67 -45 -131 -100 -153v-4c72 -22 122 -86 122 -170
c0 -127 -106 -198 -247 -198c-145 0 -243 66 -243 220z" />
    <glyph glyph-name="four.TOSF" horiz-adv-x="568" 
d="M25 -24v82l322 437h109v-415h87v-104h-87v-176h-128v176h-303zM152 80h176v235z" />
    <glyph glyph-name="five.TOSF" horiz-adv-x="568" 
d="M49 -16h126c8 -49 42 -96 114 -96c62 0 114 44 114 126c0 79 -48 126 -114 126c-50 0 -79 -28 -103 -62l-117 13l22 397h403v-106h-290l-11 -179h5c24 22 64 37 115 37c126 0 219 -80 219 -220c0 -158 -113 -232 -242 -232c-149 0 -230 78 -241 196z" />
    <glyph glyph-name="six.TOSF" horiz-adv-x="568" 
d="M37 328c0 277 129 372 267 372s204 -76 216 -184h-125c-7 45 -30 84 -93 84s-124 -56 -132 -230c26 44 88 70 151 70c114 0 215 -75 215 -222c0 -149 -115 -230 -240 -230c-143 0 -259 87 -259 340zM297 340c-67 0 -116 -49 -116 -125c0 -75 47 -127 112 -127
s114 46 114 128c0 75 -48 124 -110 124z" />
    <glyph glyph-name="seven.TOSF" horiz-adv-x="568" 
d="M122 -200l271 577h-348v111h486v-79l-277 -609h-132z" />
    <glyph glyph-name="eight.TOSF" horiz-adv-x="568" 
d="M35 186c0 84 50 148 122 170v4c-58 20 -100 84 -100 151c0 116 93 189 227 189s227 -73 227 -189c0 -67 -42 -131 -100 -151v-4c72 -22 122 -86 122 -170c0 -127 -101 -198 -249 -198s-249 71 -249 198zM165 195c0 -71 51 -109 119 -109s119 38 119 109
c0 66 -51 109 -119 109s-119 -43 -119 -109zM284 406c58 0 104 38 104 101c0 60 -46 97 -104 97s-104 -37 -104 -97c0 -63 46 -101 104 -101z" />
    <glyph glyph-name="nine.TOSF" horiz-adv-x="568" 
d="M529 160c0 -277 -110 -372 -261 -372c-140 0 -207 76 -221 184h124c7 -45 34 -84 99 -84c74 0 120 59 126 230c-26 -44 -89 -70 -149 -70c-115 0 -216 75 -216 222c0 149 114 230 239 230c143 0 259 -87 259 -340zM269 148c68 0 116 51 116 129c0 71 -47 123 -112 123
c-63 0 -114 -46 -114 -128c0 -75 48 -124 110 -124z" />
    <glyph glyph-name="slashedzero.TOSF" horiz-adv-x="568" 
d="M33 244c0 148 95 256 251 256c160 0 251 -108 251 -256s-95 -256 -251 -256c-160 0 -251 108 -251 256zM162 244c0 -35 6 -65 18 -89l167 227c-18 12 -40 18 -63 18c-72 0 -122 -58 -122 -156zM406 244c0 35 -7 65 -18 89l-167 -227c18 -12 39 -18 63 -18
c72 0 122 60 122 156z" />
    <glyph glyph-name="zero.PPF" horiz-adv-x="605" 
d="M303 -12c-188 0 -263 160 -263 356s75 356 263 356c187 0 262 -160 262 -356s-75 -356 -262 -356zM303 94c85 0 130 87 130 250s-44 250 -130 250c-88 0 -130 -87 -130 -250s44 -250 130 -250z" />
    <glyph glyph-name="one.PPF" horiz-adv-x="384" 
d="M65 454l-53 92l210 142h84v-688h-128v531z" />
    <glyph glyph-name="two.PPF" horiz-adv-x="550" 
d="M34 0c5 160 51 241 162 313l76 48c65 42 107 71 107 136c0 52 -27 99 -101 99c-72 0 -111 -40 -115 -118h-124c6 168 117 222 240 222c139 0 230 -73 230 -198c0 -112 -64 -166 -152 -221l-75 -48c-81 -54 -94 -88 -98 -129h328v-104h-478z" />
    <glyph glyph-name="three.PPF" horiz-adv-x="568" 
d="M29 208h126c0 -79 49 -122 124 -122c74 0 124 43 124 109c0 65 -50 109 -124 109h-50v102h50c61 0 106 42 106 101c0 58 -44 95 -106 95s-106 -36 -106 -106h-118c0 131 91 204 224 204c136 0 228 -73 228 -187c0 -67 -44 -133 -103 -153v-4c75 -18 129 -84 129 -166
c0 -129 -109 -202 -254 -202c-149 0 -250 72 -250 220z" />
    <glyph glyph-name="four.PPF" horiz-adv-x="576" 
d="M16 150v82l334 456h107v-434h98v-104h-98v-150h-128v150h-313zM146 254h183v247z" />
    <glyph glyph-name="five.PPF" horiz-adv-x="555" 
d="M30 184h126c7 -45 43 -96 118 -96c64 0 119 46 119 125c0 80 -53 127 -117 127c-54 0 -85 -28 -109 -61l-113 10l24 399h403v-106h-290l-11 -183h4c24 24 63 41 118 41c112 0 219 -70 219 -220c0 -154 -115 -232 -244 -232c-154 0 -236 78 -247 196z" />
    <glyph glyph-name="six.PPF" horiz-adv-x="585" 
d="M40 326c0 273 121 374 269 374c143 0 214 -78 226 -188h-125c-7 49 -37 88 -101 88c-70 0 -130 -50 -136 -231c26 43 86 71 156 71c117 0 222 -75 222 -222c0 -149 -116 -230 -245 -230c-148 0 -266 81 -266 338zM305 340c-74 0 -120 -53 -120 -129
c0 -71 48 -123 118 -123s119 47 119 127c0 74 -50 125 -117 125z" />
    <glyph glyph-name="seven.PPF" horiz-adv-x="489" 
d="M66 0l271 577h-319v111h458v-79l-278 -609h-132z" />
    <glyph glyph-name="eight.PPF" horiz-adv-x="578" 
d="M33 186c0 86 57 154 129 170v4c-59 18 -103 80 -103 151c0 116 94 189 230 189s231 -73 231 -189c0 -69 -44 -133 -104 -151v-4c72 -16 130 -84 130 -170c0 -127 -104 -198 -257 -198s-256 71 -256 198zM163 195c0 -66 50 -109 126 -109s126 43 126 109
c0 64 -52 109 -126 109s-126 -45 -126 -109zM289 406c62 0 108 41 108 100s-46 98 -108 98s-108 -39 -108 -98s46 -100 108 -100z" />
    <glyph glyph-name="nine.PPF" horiz-adv-x="585" 
d="M541 364c0 -277 -116 -376 -268 -376c-141 0 -219 78 -227 188h125c6 -49 39 -88 102 -88c73 0 128 50 134 231c-25 -43 -86 -71 -155 -71c-117 0 -222 75 -222 222c0 149 117 230 245 230c149 0 266 -79 266 -336zM276 348c74 0 120 53 120 129c0 71 -49 123 -117 123
c-70 0 -120 -47 -120 -127c0 -74 51 -125 117 -125z" />
    <glyph glyph-name="slashedzero.PPF" horiz-adv-x="605" 
d="M303 -12c-188 0 -263 160 -263 356s75 356 263 356c187 0 262 -160 262 -356s-75 -356 -262 -356zM173 344c0 -65 7 -119 21 -159l178 383c-19 17 -42 26 -69 26c-88 0 -130 -87 -130 -250zM303 94c85 0 130 87 130 250c0 65 -7 118 -21 158l-179 -382
c19 -18 42 -26 70 -26z" />
    <glyph glyph-name="currency.PPF" horiz-adv-x="487" 
d="M97 140l-57 56l60 60c-15 25 -26 55 -26 88c0 32 11 63 27 87l-59 60l57 56l60 -61c24 14 54 22 85 22c30 0 60 -8 84 -22l60 61l57 -56l-58 -60c15 -24 27 -55 27 -87c0 -33 -12 -63 -27 -88l60 -60l-57 -56l-62 62c-24 -14 -54 -22 -84 -22c-31 0 -61 8 -85 22z
M244 257c47 0 83 33 83 87s-36 87 -83 87c-48 0 -83 -33 -83 -87s35 -87 83 -87z" />
    <glyph glyph-name="dollar.PPF" horiz-adv-x="555" 
d="M26 196h127c4 -73 54 -110 121 -110c71 0 116 34 116 100c0 58 -49 78 -108 96l-81 24c-73 22 -161 70 -161 193c0 103 72 178 181 196v109h103v-109c100 -17 172 -84 179 -183h-127c-8 62 -53 88 -103 88c-54 0 -102 -26 -102 -86c0 -57 34 -76 97 -95l81 -25
c105 -31 172 -88 172 -193c0 -115 -76 -193 -197 -209v-112h-103v112c-119 16 -191 90 -195 204z" />
    <glyph glyph-name="cent.PPF" horiz-adv-x="555" 
d="M239 -12v108c-126 20 -201 112 -201 252c0 138 82 232 205 252v100h103v-100c109 -18 169 -91 178 -178h-126c-7 44 -40 84 -106 84c-72 0 -121 -65 -121 -158s49 -158 121 -158c67 0 98 40 106 84h126c-9 -89 -69 -162 -182 -179v-107h-103z" />
    <glyph glyph-name="Euro.PPF" horiz-adv-x="628" 
d="M30 383l20 67h51c28 146 117 250 272 250c144 0 221 -78 242 -195h-121c-17 61 -57 94 -121 94c-69 0 -118 -52 -138 -149h180l-20 -67h-169c-1 -13 -1 -26 -1 -39c0 -12 0 -23 1 -34h165l-20 -68h-138c19 -100 68 -153 138 -153c59 0 102 28 119 83h122
c-25 -110 -102 -184 -241 -184c-160 0 -245 105 -271 254h-88l20 68h61c-1 11 -1 22 -1 34c0 13 0 26 1 39h-63z" />
    <glyph glyph-name="yen.PPF" horiz-adv-x="558" 
d="M140 688l140 -263h4l143 263h138l-220 -388h139v-67h-141v-65h141v-67h-141v-101h-128v101h-141v67h141v65h-141v67h140l-221 388h147z" />
    <glyph glyph-name="sterling.PPF" horiz-adv-x="579" 
d="M54 318v74h78c-14 40 -26 82 -26 128c0 107 77 180 204 180c118 0 191 -62 197 -176h-117c-6 61 -34 86 -80 86c-43 0 -77 -30 -77 -82c0 -49 15 -92 31 -136h161v-74h-137c7 -25 11 -51 11 -78c0 -34 -5 -68 -14 -101c47 -28 90 -55 125 -55c38 0 58 24 59 80h98
c-3 -97 -38 -176 -151 -176c-62 0 -117 38 -167 76c-30 -45 -76 -76 -136 -76c-69 0 -121 36 -121 103c0 70 50 114 123 114c21 0 42 -5 63 -12v22c0 36 -9 70 -19 103h-105zM112 51c32 0 49 29 58 69c-20 11 -39 18 -57 18c-26 0 -44 -20 -44 -44s14 -43 43 -43z" />
    <glyph glyph-name="florin.PPF" horiz-adv-x="523" 
d="M42 277v81h126l17 161c14 131 87 181 192 181c102 0 165 -50 154 -171l-3 -32h-109l3 31c5 52 -11 78 -47 78c-38 0 -55 -29 -61 -87l-17 -161h143v-81h-151l-29 -288c-13 -131 -87 -181 -192 -181c-102 0 -165 50 -154 171l3 32h108l-2 -31c-3 -52 11 -78 47 -78
c37 0 55 29 61 87l29 288h-118z" />
    <glyph glyph-name="zero.scppf" horiz-adv-x="542" 
d="M271 -12c-165 0 -229 125 -229 272s64 272 229 272s229 -125 229 -272s-64 -272 -229 -272zM271 84c64 0 98 63 98 176c0 114 -32 176 -98 176c-65 0 -98 -63 -98 -176s33 -176 98 -176z" />
    <glyph glyph-name="one.scppf" horiz-adv-x="355" 
d="M59 317l-49 86l184 117h80v-520h-126v371z" />
    <glyph glyph-name="two.scppf" horiz-adv-x="497" 
d="M36 0c4 138 52 201 144 249l70 36c51 27 82 47 82 88c0 33 -26 63 -81 63c-56 0 -87 -27 -90 -81h-119c6 129 102 177 211 177c120 0 202 -58 202 -154c0 -78 -44 -123 -124 -165l-70 -37c-59 -34 -77 -50 -79 -78h274v-98h-420z" />
    <glyph glyph-name="three.scppf" horiz-adv-x="492" 
d="M26 158h119c0 -60 41 -85 96 -85c56 0 96 25 96 79c0 50 -40 77 -96 77h-38v81h40c48 0 81 28 81 70c0 41 -30 68 -83 68c-48 0 -84 -26 -84 -72h-111c1 99 82 156 195 156c123 0 200 -53 200 -148c0 -51 -28 -94 -78 -111v-4c60 -19 98 -65 98 -129
c0 -101 -96 -152 -222 -152c-131 0 -213 52 -213 170z" />
    <glyph glyph-name="four.scppf" horiz-adv-x="500" 
d="M20 99v77l274 344h107v-326h75v-95h-75v-99h-125v99h-256zM138 194h138v176z" />
    <glyph glyph-name="five.scppf" horiz-adv-x="494" 
d="M37 140h124c7 -36 36 -63 90 -63c50 0 91 30 91 87c0 55 -41 85 -89 85c-41 0 -68 -19 -86 -46l-114 11l17 306h362v-100h-258l-8 -120h4c21 18 56 34 112 34c87 0 182 -46 182 -168c0 -118 -97 -178 -211 -178c-138 0 -203 57 -216 152z" />
    <glyph glyph-name="six.scppf" horiz-adv-x="516" 
d="M275 443c-55 0 -98 -31 -105 -158c22 30 76 49 128 49c93 0 184 -46 184 -168c0 -115 -99 -178 -211 -178c-133 0 -229 63 -229 260c0 215 108 284 233 284c128 0 187 -64 197 -148h-118c-6 31 -25 59 -79 59zM269 247c-52 0 -91 -30 -91 -85c0 -53 40 -83 91 -83
c53 0 92 30 92 85c0 53 -39 83 -92 83z" />
    <glyph glyph-name="seven.scppf" horiz-adv-x="440" 
d="M64 0l218 412h-260v108h400v-71l-227 -449h-131z" />
    <glyph glyph-name="eight.scppf" horiz-adv-x="506" 
d="M32 140c0 64 39 110 99 129v4c-51 17 -78 61 -78 111c0 94 81 148 200 148c118 0 200 -54 200 -148c0 -50 -28 -94 -78 -111v-4c60 -19 98 -65 98 -129c0 -101 -90 -152 -220 -152s-221 51 -221 152zM157 150c0 -50 41 -77 96 -77s96 27 96 77c0 51 -42 79 -96 79
s-96 -28 -96 -79zM169 380c0 -44 35 -70 84 -70s83 26 83 70c0 43 -34 70 -83 70s-84 -27 -84 -70z" />
    <glyph glyph-name="nine.scppf" horiz-adv-x="518" 
d="M247 77c56 0 95 31 101 158c-21 -30 -75 -49 -127 -49c-93 0 -184 46 -184 168c0 115 98 178 210 178c133 0 229 -63 229 -260c0 -215 -103 -284 -229 -284c-128 0 -191 64 -201 148h118c6 -31 32 -59 83 -59zM249 273c52 0 92 30 92 85c0 53 -40 83 -92 83
s-91 -30 -91 -85c0 -53 39 -83 91 -83z" />
    <glyph glyph-name="slashedzero.scppf" horiz-adv-x="542" 
d="M271 -12c-165 0 -229 125 -229 272s64 272 229 272s229 -125 229 -272s-64 -272 -229 -272zM271 84c64 0 98 63 98 176c0 44 -5 80 -15 108l-129 -271c13 -9 28 -13 46 -13zM173 260c0 -44 5 -80 14 -108l129 271c-13 8 -28 13 -45 13c-65 0 -98 -63 -98 -176z" />
    <glyph glyph-name="currency.scppf" horiz-adv-x="483" 
d="M95 56l-57 56l60 60c-16 25 -26 55 -26 88c0 32 11 63 27 87l-59 60l57 56l59 -61c25 14 55 22 86 22c30 0 59 -8 84 -22l60 61l57 -56l-59 -60c16 -24 27 -55 27 -87c0 -33 -11 -63 -26 -88l60 -60l-57 -56l-62 62c-24 -14 -54 -22 -84 -22c-31 0 -62 8 -85 22zM242 173
c47 0 83 33 83 87s-36 87 -83 87c-48 0 -84 -33 -84 -87s36 -87 84 -87z" />
    <glyph glyph-name="dollar.scppf" horiz-adv-x="497" 
d="M34 152h118c3 -47 39 -76 97 -76c55 0 89 24 89 64c0 39 -27 52 -79 65l-66 17c-63 16 -148 45 -148 149c0 81 57 143 158 157v88h95v-88c90 -14 148 -69 153 -144h-117c-7 40 -41 60 -83 60c-47 0 -80 -19 -80 -58c0 -34 23 -48 75 -61l67 -16c90 -22 152 -62 152 -154
c0 -90 -62 -150 -167 -164v-91h-95v91c-105 13 -166 73 -169 161z" />
    <glyph glyph-name="cent.scppf" horiz-adv-x="484" 
d="M206 -12v78c-110 17 -176 92 -176 196c0 105 69 179 180 195v75h92v-76c97 -15 151 -78 157 -143h-121c-6 26 -32 55 -83 55c-68 0 -98 -47 -98 -106c0 -60 32 -108 96 -108c53 0 78 32 85 58h119c-6 -67 -61 -132 -159 -147v-77h-92z" />
    <glyph glyph-name="Euro.scppf" horiz-adv-x="533" 
d="M6 190l13 48h50v22c0 9 0 18 1 27h-52l14 48h44c21 113 95 195 232 195c126 0 190 -68 205 -159h-113c-7 39 -38 65 -88 65c-57 0 -91 -35 -105 -101h134l-14 -48h-127v-49h122l-13 -48h-104c13 -71 48 -106 107 -106c48 0 76 24 86 62h115c-19 -90 -84 -156 -205 -156
c-139 0 -213 84 -233 200h-69z" />
    <glyph glyph-name="yen.scppf" horiz-adv-x="466" 
d="M129 520l108 -190h3l111 190h129l-178 -298h104v-51h-109v-50h109v-52h-109v-69h-123v69h-112v52h112v50h-112v51h103l-179 298h143z" />
    <glyph glyph-name="sterling.scppf" horiz-adv-x="502" 
d="M66 239v63h57c-12 25 -21 51 -21 80c0 93 65 150 179 150c106 0 161 -54 168 -143h-105c-4 39 -26 58 -63 58c-38 0 -63 -22 -63 -61c0 -30 12 -56 26 -84h126v-63h-99c5 -19 9 -39 9 -61c0 -21 -4 -44 -11 -67c32 -20 61 -38 86 -38c27 0 42 19 43 60h92
c-2 -89 -35 -145 -125 -145c-52 0 -93 29 -129 60c-25 -34 -63 -58 -113 -58c-65 0 -109 30 -109 88c0 59 43 95 108 95c17 0 35 -4 52 -10c-1 27 -10 52 -21 76h-87zM119 47c31 0 45 21 51 56c-15 9 -31 15 -47 15c-27 0 -39 -17 -39 -36s13 -35 35 -35z" />
    <glyph glyph-name="florin.scppf" horiz-adv-x="465" 
d="M46 186v69h101l14 127c12 112 75 150 169 150c93 0 148 -45 139 -135l-3 -30h-103l3 28c4 31 -9 51 -36 51s-39 -19 -44 -64l-15 -127h114v-69h-121l-23 -206c-12 -112 -75 -150 -169 -150c-92 0 -148 44 -139 134l3 30h103l-3 -28c-3 -31 9 -50 36 -50s40 19 45 64
l22 206h-93z" />
    <glyph glyph-name="slashedzero.oldstyle" horiz-adv-x="610" 
d="M36 244c0 146 104 256 269 256c169 0 268 -110 268 -256s-103 -256 -268 -256c-170 0 -269 110 -269 256zM445 244c0 41 -11 74 -28 100l-177 -241c19 -10 41 -15 65 -15c78 0 140 58 140 156zM165 244c0 -41 10 -74 28 -100l177 241c-20 10 -42 15 -65 15
c-78 0 -140 -58 -140 -156z" />
    <glyph glyph-name="plus.sc" horiz-adv-x="504" 
d="M62 213v98h139v143h102v-143h139v-98h-139v-141h-102v141h-139z" />
    <glyph glyph-name="minus.sc" horiz-adv-x="504" 
d="M62 213v98h380v-98h-380z" />
    <glyph glyph-name="multiply.sc" horiz-adv-x="504" 
d="M139 78l-69 69l112 114l-116 118l69 69l116 -118l116 118l68 -69l-116 -118l113 -114l-69 -69l-113 114z" />
    <glyph glyph-name="divide.sc" horiz-adv-x="504" 
d="M199 372v101h106v-101h-106zM62 213v98h380v-98h-380zM199 47v103h106v-103h-106z" />
    <glyph glyph-name="equal.sc" horiz-adv-x="504" 
d="M62 302v99h380v-99h-380zM62 122v98h380v-98h-380z" />
    <glyph glyph-name="less.sc" horiz-adv-x="504" 
d="M432 166v-105l-360 150v104l360 151v-106l-248 -97z" />
    <glyph glyph-name="greater.sc" horiz-adv-x="504" 
d="M72 360v106l360 -151v-104l-360 -150v105l248 97z" />
    <glyph glyph-name="plusminus.sc" horiz-adv-x="504" 
d="M80 255v92h123v115h96v-115h123v-92h-123v-115h-96v115h-123zM80 0v92h342v-92h-342z" />
    <glyph glyph-name="lessequal.sc" horiz-adv-x="504" 
d="M422 370l-226 -71l226 -70v-98l-342 119v99l342 119v-98zM80 0v92h342v-92h-342z" />
    <glyph glyph-name="greaterequal.sc" horiz-adv-x="504" 
d="M82 370v98l342 -119v-99l-342 -119v98l226 70zM82 92h342v-92h-342v92z" />
    <glyph glyph-name="notequal.sc" horiz-adv-x="504" 
d="M62 302v99h222l53 96l67 -36l-33 -60h71v-99h-125l-45 -82h170v-98h-223l-53 -97l-68 36l33 61h-69v98h123l45 82h-168z" />
    <glyph glyph-name="logicalnot.sc" horiz-adv-x="504" 
d="M62 213v98h380v-239h-102v141h-278z" />
    <glyph glyph-name="asciitilde.sc" horiz-adv-x="504" 
d="M50 190c2 113 56 155 118 155c74 0 117 -54 161 -54c28 0 38 22 38 56h90c-2 -113 -55 -153 -117 -153c-68 0 -117 55 -161 55c-28 0 -38 -25 -38 -59h-91z" />
    <glyph glyph-name="approxequal.sc" horiz-adv-x="504" 
d="M50 86c2 112 56 154 118 154c74 0 117 -54 161 -54c28 0 38 22 38 56h90c-2 -113 -55 -152 -117 -152c-68 0 -117 54 -161 54c-28 0 -38 -25 -38 -58h-91zM50 278c2 113 56 155 118 155c74 0 117 -55 161 -55c28 0 38 23 38 56h90c-2 -112 -55 -152 -117 -152
c-68 0 -117 54 -161 54c-28 0 -38 -24 -38 -58h-91z" />
    <glyph glyph-name="infinity.sc" horiz-adv-x="604" 
d="M166 122c-84 0 -140 54 -140 138s56 138 140 138c54 0 103 -33 136 -78c34 45 81 78 136 78c84 0 140 -54 140 -138s-56 -138 -140 -138c-55 0 -102 32 -136 77c-33 -45 -82 -77 -136 -77zM355 260c18 -29 47 -59 82 -59c34 0 59 22 59 59s-25 59 -59 59
c-35 0 -64 -30 -82 -59zM168 201c34 0 63 30 81 59c-18 29 -47 59 -81 59s-59 -22 -59 -59s25 -59 59 -59z" />
    <glyph glyph-name="numbersign.sc" horiz-adv-x="537" 
d="M46 329v81h98l20 110h93l-20 -110h125l20 110h92l-20 -110h75v-81h-89l-24 -134h85v-80h-99l-20 -115h-92l20 115h-125l-20 -115h-93l20 115h-73v80h87l24 134h-84zM223 329l-24 -134h125l24 134h-125z" />
    <glyph glyph-name="percent.sc" horiz-adv-x="613" 
d="M139 254c-83 0 -122 56 -122 136s39 136 122 136s121 -56 121 -136s-38 -136 -121 -136zM139 314c30 0 44 28 44 76s-14 76 -44 76c-31 0 -45 -28 -45 -76s14 -76 45 -76zM126 -9l299 538h63l-298 -538h-64zM475 -6c-83 0 -122 56 -122 136s39 136 122 136
s121 -56 121 -136s-38 -136 -121 -136zM475 54c30 0 45 28 45 76s-15 76 -45 76c-31 0 -45 -28 -45 -76s14 -76 45 -76z" />
    <glyph glyph-name="perthousand.sc" horiz-adv-x="904" 
d="M139 254c-83 0 -122 56 -122 136s39 136 122 136s121 -56 121 -136s-38 -136 -121 -136zM139 314c30 0 44 28 44 76s-14 76 -44 76c-31 0 -45 -28 -45 -76s14 -76 45 -76zM126 -9l299 538h63l-298 -538h-64zM475 -6c-83 0 -122 56 -122 136s39 136 122 136
s121 -56 121 -136s-38 -136 -121 -136zM475 54c30 0 45 28 45 76s-15 76 -45 76c-31 0 -45 -28 -45 -76s14 -76 45 -76zM765 -6c-82 0 -121 56 -121 136s39 136 121 136c84 0 122 -56 122 -136s-38 -136 -122 -136zM765 54c31 0 45 28 45 76s-14 76 -45 76
c-30 0 -45 -28 -45 -76s15 -76 45 -76z" />
    <glyph glyph-name="hyphen.sc" horiz-adv-x="396" 
d="M53 209v108h290v-108h-290z" />
    <glyph glyph-name="endash.sc" horiz-adv-x="556" 
d="M53 209v108h450v-108h-450z" />
    <glyph glyph-name="emdash.sc" horiz-adv-x="840" 
d="M53 209v108h734v-108h-734z" />
    <glyph glyph-name="dagger.sc" horiz-adv-x="396" 
d="M44 310v82h104v128h100v-128h104v-82h-104v-310h-100v310h-104z" />
    <glyph glyph-name="daggerdbl.sc" horiz-adv-x="396" 
d="M44 327v82h104v111h100v-111h104v-82h-104v-138h104v-82h-104v-107h-100v107h-104v82h104v138h-104z" />
    <glyph glyph-name="parenleft.sc" horiz-adv-x="316" 
d="M302 -92h-111c-50 66 -116 201 -116 352s66 286 116 352h111c-46 -60 -114 -202 -114 -352c0 -149 68 -292 114 -352z" />
    <glyph glyph-name="parenright.sc" horiz-adv-x="316" 
d="M14 -92c46 60 114 203 114 352c0 150 -68 292 -114 352h111c50 -66 116 -201 116 -352s-66 -286 -116 -352h-111z" />
    <glyph glyph-name="bracketleft.sc" horiz-adv-x="311" 
d="M75 -92v704h222v-94h-111v-516h111v-94h-222z" />
    <glyph glyph-name="bracketright.sc" horiz-adv-x="311" 
d="M14 2h111v516h-111v94h222v-704h-222v94z" />
    <glyph glyph-name="braceleft.sc" horiz-adv-x="335" 
d="M106 49v69c0 72 -19 101 -93 101v86c74 0 93 31 93 102v64c0 94 41 141 158 141h57v-92h-36c-54 0 -70 -11 -70 -65v-79c0 -57 -25 -95 -91 -112v-4c66 -18 91 -53 91 -110v-81c0 -54 16 -69 70 -69h36v-92h-57c-117 0 -158 47 -158 141z" />
    <glyph glyph-name="braceright.sc" horiz-adv-x="335" 
d="M14 0h36c54 0 70 15 70 69v81c0 57 25 92 92 110v4c-67 17 -92 55 -92 112v79c0 54 -16 65 -70 65h-36v92h57c118 0 158 -47 158 -141v-64c0 -71 20 -102 94 -102v-86c-74 0 -94 -29 -94 -101v-69c0 -94 -40 -141 -158 -141h-57v92z" />
    <glyph glyph-name="slash.sc" horiz-adv-x="348" 
d="M4 -12l232 544h108l-232 -544h-108z" />
    <glyph glyph-name="backslash.sc" horiz-adv-x="348" 
d="M236 -12l-232 544h108l232 -544h-108z" />
    <glyph glyph-name="quoteleft.sc" horiz-adv-x="267" 
d="M69 239v120l45 161h60l-32 -153h56v-128h-129z" />
    <glyph glyph-name="quotedblleft.sc" horiz-adv-x="473" 
d="M69 239v120l45 161h60l-32 -153h56v-128h-129zM274 239v120l46 161h60l-33 -153h57v-128h-130z" />
    <glyph glyph-name="quoteright.sc" horiz-adv-x="267" 
d="M93 239l33 153h-57v128h129v-120l-45 -161h-60z" />
    <glyph glyph-name="quotedblright.sc" horiz-adv-x="473" 
d="M93 239l33 153h-57v128h129v-120l-45 -161h-60zM299 239l32 153h-57v128h130v-120l-45 -161h-60z" />
    <glyph glyph-name="guilsinglleft.sc" horiz-adv-x="305" 
d="M159 103l-111 159l111 159h97l-89 -159l89 -159h-97z" />
    <glyph glyph-name="guilsinglright.sc" horiz-adv-x="305" 
d="M48 103l89 159l-89 159h98l110 -159l-110 -159h-98z" />
    <glyph glyph-name="guillemotleft.sc" horiz-adv-x="488" 
d="M342 103l-110 159l110 159h97l-89 -159l89 -159h-97zM158 103l-110 159l110 159h98l-89 -159l89 -159h-98z" />
    <glyph glyph-name="guillemotright.sc" horiz-adv-x="488" 
d="M232 103l89 159l-89 159h97l110 -159l-110 -159h-97zM48 103l89 159l-89 159h98l110 -159l-110 -159h-98z" />
    <glyph glyph-name="quotesingle.sc" horiz-adv-x="234" 
d="M76 239l-18 182v99h118v-99l-18 -182h-82z" />
    <glyph glyph-name="quotedbl.sc" horiz-adv-x="431" 
d="M76 239l-18 182v99h118v-99l-18 -182h-82zM273 239l-18 182v99h117v-99l-18 -182h-81z" />
    <glyph glyph-name="asterisk.sc" horiz-adv-x="471" 
d="M187 530h95l-15 -123l111 53l30 -91l-120 -24l83 -88l-77 -56l-59 107l-59 -107l-77 55l83 90l-120 23l29 91l111 -51z" />
    <glyph glyph-name="degree.sc" horiz-adv-x="397" 
d="M198 231c-91 0 -158 61 -158 150c0 90 67 151 158 151s159 -61 159 -151c0 -89 -68 -150 -159 -150zM198 453c-37 0 -68 -27 -68 -72c0 -44 31 -72 68 -72c38 0 68 28 68 72c0 45 -30 72 -68 72z" />
    <glyph glyph-name="bullet.sc" horiz-adv-x="408" 
d="M204 130c-73 0 -132 58 -132 132s59 132 132 132s132 -58 132 -132s-59 -132 -132 -132z" />
    <glyph glyph-name="periodcentered.sc" horiz-adv-x="262" 
d="M68 202v123h125v-123h-125z" />
    <glyph glyph-name="paragraph.sc" horiz-adv-x="526" 
d="M354 0v520h104v-520h-104zM188 0v188c-89 16 -148 70 -148 165c0 100 69 167 191 167h61v-520h-104z" />
    <glyph glyph-name="section.sc" horiz-adv-x="424" 
d="M29 -50h106c5 -32 35 -47 71 -47c45 0 72 18 72 53c0 32 -21 43 -67 57l-72 22c-77 24 -110 58 -110 124c0 50 31 95 84 118c-48 23 -76 59 -76 112c0 78 59 141 181 141c98 0 169 -40 175 -121h-105c-6 31 -35 47 -72 47c-44 0 -71 -18 -71 -54c0 -32 21 -42 66 -57
l72 -22c77 -23 111 -58 111 -124c0 -50 -32 -96 -85 -118c48 -23 76 -58 76 -111c0 -78 -59 -142 -181 -142c-97 0 -169 40 -175 122zM223 241l-31 9c-37 -10 -63 -38 -63 -68c0 -36 20 -49 70 -64l31 -10c37 11 64 39 64 68c0 37 -20 49 -71 65z" />
    <glyph glyph-name="copyright.sc" horiz-adv-x="610" 
d="M36 262c0 152 112 270 268 270c155 0 270 -116 270 -270c0 -152 -114 -274 -270 -274s-268 120 -268 274zM102 262c0 -119 83 -215 202 -215c117 0 205 96 205 215c0 120 -86 211 -205 211c-118 0 -202 -91 -202 -211zM172 262c0 77 48 136 138 136c65 0 111 -40 120 -96
h-75c-4 13 -16 31 -45 31c-38 0 -59 -27 -59 -71s23 -71 59 -71c27 0 41 19 45 31h75c-9 -56 -55 -96 -120 -96c-90 0 -138 61 -138 136z" />
    <glyph glyph-name="registered.sc" horiz-adv-x="610" 
d="M36 262c0 152 112 270 268 270c155 0 270 -116 270 -270c0 -152 -114 -274 -270 -274s-268 120 -268 274zM102 262c0 -119 83 -215 202 -215c117 0 205 96 205 215c0 120 -86 211 -205 211c-118 0 -202 -91 -202 -211zM189 134v256h135c69 0 103 -35 103 -88
c0 -34 -18 -65 -54 -80l60 -88h-82l-51 79h-33v-79h-78zM313 331h-46v-63h46c22 0 36 12 36 33c0 20 -15 30 -36 30z" />
    <glyph glyph-name="trademark.sc" horiz-adv-x="641" 
d="M282 260v260h102l58 -158h3l57 158h100v-260h-72l4 165h-3l-64 -165h-52l-62 165h-3l4 -165h-72zM6 453v67h245v-67h-84v-193h-77v193h-84z" />
    <glyph glyph-name="ordfeminine.sc" horiz-adv-x="306" 
d="M113 254c-57 0 -87 30 -87 74s26 72 87 79l49 6c25 3 34 8 34 23c0 20 -14 37 -43 37c-26 0 -43 -11 -45 -40h-72c5 67 57 94 117 94c77 0 119 -32 119 -100v-167h-74v29h-2c-16 -21 -43 -35 -83 -35zM196 361v22c-4 -7 -12 -10 -25 -12l-33 -4c-27 -3 -35 -17 -35 -31
c0 -20 14 -32 37 -32c27 0 56 16 56 57z" />
    <glyph glyph-name="ordmasculine.sc" horiz-adv-x="324" 
d="M162 254c-87 0 -140 53 -140 136s55 137 140 137c87 0 141 -54 141 -137s-56 -136 -141 -136zM162 315c38 0 61 31 61 75c0 45 -23 76 -61 76s-60 -32 -60 -76s22 -75 60 -75z" />
    <glyph glyph-name="bullet.cap" horiz-adv-x="488" 
d="M244 176c-97 0 -172 75 -172 172s75 172 172 172s172 -75 172 -172s-75 -172 -172 -172z" />
    <glyph glyph-name="plus.cap" horiz-adv-x="568" 
d="M58 293v100h173v175h106v-175h173v-100h-173v-175h-106v175h-173z" />
    <glyph glyph-name="minus.cap" horiz-adv-x="568" 
d="M58 293v100h452v-100h-452z" />
    <glyph glyph-name="multiply.cap" horiz-adv-x="568" 
d="M67 489l72 71l145 -147l145 147l72 -71l-146 -147l148 -149l-72 -71l-147 148l-147 -148l-72 71l148 149z" />
    <glyph glyph-name="divide.cap" horiz-adv-x="568" 
d="M227 468v117h114v-117h-114zM56 293v100h456v-100h-456zM227 100v117h114v-117h-114z" />
    <glyph glyph-name="equal.cap" horiz-adv-x="568" 
d="M56 401v100h456v-100h-456zM56 183v100h456v-100h-456z" />
    <glyph glyph-name="less.cap" horiz-adv-x="568" 
d="M72 291v104l424 176v-109l-305 -118l305 -119v-112z" />
    <glyph glyph-name="greater.cap" horiz-adv-x="568" 
d="M496 393v-104l-424 -176v109l304 117l-304 120v112z" />
    <glyph glyph-name="plusminus.cap" horiz-adv-x="568" 
d="M60 327v100h171v160h106v-160h175v-100h-175v-160h-106v160h-171zM56 0v100h456v-100h-456z" />
    <glyph glyph-name="lessequal.cap" horiz-adv-x="568" 
d="M72 327v104l424 169v-110l-300 -110l300 -112v-111zM72 0v100h424v-100h-424z" />
    <glyph glyph-name="greaterequal.cap" horiz-adv-x="568" 
d="M496 429v-103l-424 -169v109l299 109l-299 113v112zM72 0v100h424v-100h-424z" />
    <glyph glyph-name="notequal.cap" horiz-adv-x="568" 
d="M56 401v100h261l70 134l75 -40l-49 -94h99v-100h-152l-61 -118h213v-100h-265l-70 -134l-75 40l49 94h-95v100h147l61 118h-208z" />
    <glyph glyph-name="logicalnot.cap" horiz-adv-x="568" 
d="M58 293v100h452v-277h-106v177h-346z" />
    <glyph glyph-name="asciitilde.cap" horiz-adv-x="568" 
d="M49 263c0 123 66 174 137 174c91 0 138 -71 192 -71c32 0 49 26 49 75h94c0 -123 -66 -175 -135 -175c-91 0 -141 73 -195 73c-32 0 -48 -28 -48 -76h-94z" />
    <glyph glyph-name="approxequal.cap" horiz-adv-x="568" 
d="M49 368c0 123 66 174 137 174c91 0 138 -70 192 -70c32 0 49 25 49 74h94c0 -123 -66 -174 -135 -174c-91 0 -141 73 -195 73c-32 0 -48 -28 -48 -77h-94zM49 140c0 123 66 174 137 174c91 0 138 -70 192 -70c32 0 49 25 49 74h94c0 -123 -66 -174 -135 -174
c-91 0 -141 72 -195 72c-32 0 -48 -27 -48 -76h-94z" />
    <glyph glyph-name="infinity.cap" horiz-adv-x="708" 
d="M192 176c-99 0 -166 68 -166 166s67 166 166 166c66 0 124 -43 164 -99c41 55 96 99 160 99c99 0 166 -68 166 -166s-67 -166 -166 -166c-67 0 -124 43 -164 98c-42 -55 -97 -98 -160 -98zM410 342c24 -34 63 -77 108 -77c44 0 72 35 72 77s-28 77 -72 77
c-45 0 -84 -44 -108 -77zM190 265c45 0 84 43 108 77c-24 33 -63 77 -108 77c-44 0 -72 -35 -72 -77s28 -77 72 -77z" />
    <glyph glyph-name="uni25A0" unicode="&#x25a0;" horiz-adv-x="688" 
d="M0 0v688h688v-688h-688z" />
    <glyph glyph-name="uni25A1" unicode="&#x25a1;" horiz-adv-x="688" 
d="M0 0v688h688v-688h-688zM111 104h466v480h-466v-480z" />
    <glyph glyph-name="uni25FC" unicode="&#x25fc;" horiz-adv-x="488" 
d="M0 0v488h488v-488h-488z" />
    <glyph glyph-name="uni25FB" unicode="&#x25fb;" horiz-adv-x="488" 
d="M0 0v488h488v-488h-488zM104 98h280v292h-280v-292z" />
    <glyph glyph-name="uni25B6" unicode="&#x25b6;" horiz-adv-x="502" 
d="M44 -12v512l446 -256z" />
    <glyph glyph-name="uni25B7" unicode="&#x25b7;" horiz-adv-x="502" 
d="M44 -12v512l446 -256zM136 141l184 103l-184 103v-206z" />
    <glyph glyph-name="uni25C0" unicode="&#x25c0;" horiz-adv-x="502" 
d="M12 244l446 256v-512z" />
    <glyph glyph-name="uni25C1" unicode="&#x25c1;" horiz-adv-x="502" 
d="M12 244l446 256v-512zM182 244l184 -103v206z" />
    <glyph glyph-name="uni25CB" unicode="&#x25cb;" horiz-adv-x="552" 
d="M20 244c0 144 110 256 256 256s256 -108 256 -256c0 -144 -110 -256 -256 -256s-256 108 -256 256zM130 244c0 -91 63 -158 146 -158c87 0 146 67 146 158s-63 158 -146 158c-87 0 -146 -67 -146 -158z" />
    <glyph glyph-name="uni25CF" unicode="&#x25cf;" horiz-adv-x="552" 
d="M20 244c0 144 110 256 256 256s256 -108 256 -256c0 -144 -110 -256 -256 -256s-256 108 -256 256z" />
    <glyph glyph-name="uni2191" unicode="&#x2191;" horiz-adv-x="660" 
d="M140 230l-63 67l257 257l257 -257l-63 -67l-147 149c3 -65 4 -131 4 -164v-265h-101v265c0 33 0 99 4 164z" />
    <glyph glyph-name="uni2193" unicode="&#x2193;" horiz-adv-x="660" 
d="M524 274l63 -67l-257 -257l-257 257l63 67l148 -149c-4 64 -4 131 -4 164v265h100v-265c0 -33 0 -100 -4 -164z" />
    <glyph glyph-name="uni2196" unicode="&#x2196;" horiz-adv-x="660" 
d="M92 477h364v-91h-205c48 -43 93 -90 116 -113l188 -187l-70 -72l-187 188c-24 23 -72 71 -115 120v-209h-91v364z" />
    <glyph glyph-name="uni2197" unicode="&#x2197;" horiz-adv-x="660" 
d="M191 386v91h364v-364h-91v209c-43 -49 -91 -97 -115 -120l-187 -188l-70 72l188 187c23 23 67 70 115 113h-204z" />
    <glyph glyph-name="uni2198" unicode="&#x2198;" horiz-adv-x="660" 
d="M191 14v91h204c-48 42 -92 89 -115 113l-188 187l70 72l187 -188c24 -23 72 -71 115 -120v209h91v-364h-364z" />
    <glyph glyph-name="uni2199" unicode="&#x2199;" horiz-adv-x="660" 
d="M251 105h205v-91h-364v364h91v-209c43 49 91 97 115 120l187 188l70 -72l-188 -187c-23 -24 -68 -71 -116 -113z" />
    <glyph glyph-name="uni2605" unicode="&#x2605;" horiz-adv-x="546" 
d="M106 13l68 183l-162 108l5 16l195 -9l53 189h16l52 -189l196 9l5 -16l-163 -108l69 -183l-14 -10l-153 121l-153 -121z" />
    <glyph glyph-name="a.denominator" horiz-adv-x="405" 
d="M34 89c0 59 35 96 116 106l64 8c37 5 44 11 44 31c0 26 -17 48 -55 48c-34 0 -58 -16 -61 -53h-94c6 89 76 123 155 123c102 0 157 -42 157 -131v-221h-98v41h-4c-19 -30 -51 -49 -108 -49c-76 0 -116 39 -116 97zM185 61c38 0 73 21 73 76v26c-6 -8 -16 -12 -31 -14
l-45 -6c-35 -4 -46 -22 -46 -41c0 -26 18 -41 49 -41z" />
    <glyph glyph-name="b.denominator" horiz-adv-x="441" 
d="M46 0v516h103v-109c0 -23 0 -60 -4 -114h3c19 37 56 60 115 60c78 0 148 -59 148 -178c0 -121 -75 -183 -156 -183c-56 0 -88 20 -107 59h-3v-51h-99zM149 172c0 -61 31 -101 79 -101s78 41 78 104c0 60 -30 98 -78 98s-79 -40 -79 -101z" />
    <glyph glyph-name="c.denominator" horiz-adv-x="407" 
d="M30 172c0 106 69 181 185 181c105 0 161 -61 166 -132h-99c-5 25 -24 50 -66 50c-52 0 -80 -45 -80 -99c0 -57 27 -99 78 -99c44 0 63 26 68 50h99c-6 -71 -64 -131 -168 -131c-117 0 -183 73 -183 180z" />
    <glyph glyph-name="d.denominator" horiz-adv-x="441" 
d="M30 169c0 121 76 184 156 184c58 0 89 -21 107 -60h3c-3 54 -3 95 -3 119v104h102v-516h-98v51h-4c-18 -39 -56 -59 -114 -59c-78 0 -149 59 -149 177zM136 169c0 -60 30 -98 78 -98c45 0 76 36 79 92v9c0 61 -31 101 -79 101c-49 0 -78 -41 -78 -104z" />
    <glyph glyph-name="e.denominator" horiz-adv-x="417" 
d="M30 172c0 108 74 180 181 180s176 -63 176 -178v-24h-253c6 -56 36 -83 83 -83c43 0 60 17 67 37h97c-11 -63 -70 -111 -169 -111c-111 0 -182 68 -182 179zM211 278c-42 0 -66 -24 -75 -66h145c-7 44 -30 66 -70 66z" />
    <glyph glyph-name="f.denominator" horiz-adv-x="266" 
d="M75 0v262h-65v82h65v33c0 98 37 139 135 139h58v-85h-40c-35 0 -49 -12 -49 -53v-34h77v-82h-77v-262h-104z" />
    <glyph glyph-name="g.denominator" horiz-adv-x="441" 
d="M42 -41h97c2 -32 28 -46 71 -46c62 0 87 35 87 115v23h-4c-18 -38 -56 -59 -114 -59c-78 0 -149 59 -149 177c0 121 76 184 156 184c56 0 89 -21 107 -60h4v51h98v-315c0 -145 -71 -190 -187 -190c-99 0 -159 37 -166 120zM136 169c0 -60 30 -98 78 -98s79 40 79 101v9
c-3 56 -34 92 -79 92c-49 0 -78 -41 -78 -104z" />
    <glyph glyph-name="h.denominator" horiz-adv-x="427" 
d="M46 0v516h103v-110c0 -22 0 -60 -4 -112h3c20 41 57 59 108 59c68 0 128 -37 128 -136v-217h-102v193c0 58 -26 78 -62 78c-40 0 -71 -29 -71 -86v-185h-103z" />
    <glyph glyph-name="i.denominator" horiz-adv-x="191" 
d="M41 419v97h109v-97h-109zM44 0v344h102v-344h-102z" />
    <glyph glyph-name="j.denominator" horiz-adv-x="191" 
d="M41 419v97h109v-97h-109zM44 -15v359h102v-361c0 -91 -24 -138 -128 -138h-34v87h20c32 0 40 16 40 53z" />
    <glyph glyph-name="k.denominator" horiz-adv-x="398" 
d="M46 0v516h104v-302l117 130h115l-128 -137l140 -207h-116l-92 134l-36 -39v-95h-104z" />
    <glyph glyph-name="l.denominator" horiz-adv-x="195" 
d="M46 0v516h103v-516h-103z" />
    <glyph glyph-name="m.denominator" horiz-adv-x="645" 
d="M46 0v344h99v-50h3c20 41 54 59 105 59c46 0 89 -19 110 -67c25 51 66 67 117 67c63 0 122 -35 122 -133v-220h-102v197c0 55 -21 74 -56 74c-41 0 -69 -30 -69 -89v-182h-101v196c0 55 -22 75 -58 75c-39 0 -67 -30 -67 -89v-182h-103z" />
    <glyph glyph-name="n.denominator" horiz-adv-x="427" 
d="M46 0v344h99v-50h3c20 41 57 59 108 59c68 0 128 -37 128 -136v-217h-102v193c0 58 -26 78 -62 78c-42 0 -71 -32 -71 -89v-182h-103z" />
    <glyph glyph-name="o.denominator" horiz-adv-x="431" 
d="M30 172c0 110 73 181 185 181c116 0 186 -71 186 -181s-72 -180 -186 -180c-115 0 -185 70 -185 180zM136 172c0 -61 29 -101 79 -101c51 0 81 40 81 101c0 62 -30 101 -81 101c-50 0 -79 -40 -79 -101z" />
    <glyph glyph-name="p.denominator" horiz-adv-x="441" 
d="M149 -60v-95h-103v499h99v-51h3c19 39 56 60 115 60c78 0 148 -59 148 -178c0 -121 -75 -183 -156 -183c-56 0 -88 20 -107 59h-3c4 -53 4 -88 4 -111zM306 175c0 60 -30 98 -78 98s-79 -40 -79 -101s31 -101 79 -101s78 41 78 104z" />
    <glyph glyph-name="q.denominator" horiz-adv-x="441" 
d="M293 -60c0 23 0 58 3 111h-3c-18 -39 -56 -59 -114 -59c-78 0 -149 59 -149 177c0 121 74 184 154 184c56 0 91 -21 109 -60h4v51h98v-499h-102v95zM136 169c0 -60 30 -98 78 -98s79 40 79 101v9c-3 56 -34 92 -79 92c-49 0 -78 -41 -78 -104z" />
    <glyph glyph-name="r.denominator" horiz-adv-x="293" 
d="M46 0v344h100v-65h4c16 41 43 74 89 74c14 0 30 -3 48 -16l-18 -92c-15 9 -30 11 -43 11c-53 0 -76 -53 -76 -115v-141h-104z" />
    <glyph glyph-name="s.denominator" horiz-adv-x="386" 
d="M28 105h95c3 -31 31 -48 70 -48c36 0 63 12 63 37c0 26 -24 31 -53 36l-53 9c-75 11 -116 39 -116 101c0 73 67 113 159 113s151 -40 156 -108h-94c-5 29 -27 42 -61 42c-37 0 -60 -13 -60 -34c0 -22 16 -28 52 -35l53 -10c71 -11 119 -30 119 -101
c0 -79 -72 -115 -166 -115c-96 0 -158 37 -164 113z" />
    <glyph glyph-name="t.denominator" horiz-adv-x="272" 
d="M71 122v140h-63v82h63v104h102v-104h82v-82h-82v-126c0 -36 9 -50 46 -50h36v-86h-50c-102 0 -134 30 -134 122z" />
    <glyph glyph-name="u.denominator" horiz-adv-x="427" 
d="M42 127v217h103v-193c0 -58 26 -78 62 -78c40 0 71 28 71 89v182h102v-344h-98v50h-3c-20 -41 -57 -58 -108 -58c-68 0 -129 36 -129 135z" />
    <glyph glyph-name="v.denominator" horiz-adv-x="384" 
d="M131 0l-127 344h113l78 -245l80 245h105l-123 -344h-126z" />
    <glyph glyph-name="w.denominator" horiz-adv-x="566" 
d="M106 0l-102 344h103l63 -246l65 246h97l64 -247l65 247h101l-103 -344h-113l-63 236l-64 -236h-113z" />
    <glyph glyph-name="x.denominator" horiz-adv-x="362" 
d="M4 0l125 170l-120 174h114l61 -95l65 95h108l-122 -169l123 -175h-113l-66 99l-67 -99h-108z" />
    <glyph glyph-name="y.denominator" horiz-adv-x="384" 
d="M128 0l-124 344h113l77 -245l81 245h105l-132 -376c-25 -69 -67 -123 -151 -123h-43v85h21c39 0 67 12 82 57l4 13h-33z" />
    <glyph glyph-name="z.denominator" horiz-adv-x="349" 
d="M24 260v84h297v-64l-159 -196h163v-84h-300v62l160 198h-161z" />
    <glyph glyph-name="euro.denominator" 
d="M10 128l8 30h30v28h-28l8 30h23c12 78 61 136 159 136c88 0 127 -51 139 -114h-95c-5 23 -18 39 -45 39c-32 0 -50 -20 -56 -61h91l-8 -30h-86v-28h77l-8 -30h-67c7 -42 24 -61 57 -61c26 0 39 14 45 36h95c-13 -62 -52 -111 -139 -111c-99 0 -147 57 -159 136h-41z" />
    <glyph glyph-name="plus.denominator" 
d="M44 137v74h100v100h79v-100h100v-74h-100v-100h-79v100h-100z" />
    <glyph glyph-name="minus.denominator" 
d="M44 137v74h279v-74h-279z" />
    <glyph glyph-name="equal.denominator" 
d="M44 200v75h279v-75h-279zM44 71v75h279v-75h-279z" />
    <glyph glyph-name="a.numerator" horiz-adv-x="405" 
d="M34 433c0 59 35 96 116 106l64 8c37 5 44 11 44 31c0 26 -17 48 -55 48c-34 0 -58 -16 -61 -53h-94c6 89 76 123 155 123c102 0 157 -42 157 -131v-221h-98v41h-4c-19 -30 -51 -49 -108 -49c-76 0 -116 39 -116 97zM185 405c38 0 73 21 73 76v26c-6 -8 -16 -12 -31 -14
l-45 -6c-35 -4 -46 -22 -46 -41c0 -26 18 -41 49 -41z" />
    <glyph glyph-name="b.numerator" horiz-adv-x="441" 
d="M46 344v516h103v-109c0 -23 0 -60 -4 -114h3c19 37 56 60 115 60c78 0 148 -59 148 -178c0 -121 -75 -183 -156 -183c-56 0 -88 20 -107 59h-3v-51h-99zM149 516c0 -61 31 -101 79 -101s78 41 78 104c0 60 -30 98 -78 98s-79 -40 -79 -101z" />
    <glyph glyph-name="c.numerator" horiz-adv-x="407" 
d="M30 516c0 106 69 181 185 181c105 0 161 -61 166 -132h-99c-5 25 -24 50 -66 50c-52 0 -80 -45 -80 -99c0 -57 27 -99 78 -99c44 0 63 26 68 50h99c-6 -71 -64 -131 -168 -131c-117 0 -183 73 -183 180z" />
    <glyph glyph-name="d.numerator" horiz-adv-x="441" 
d="M30 513c0 121 76 184 156 184c58 0 89 -21 107 -60h3c-3 54 -3 95 -3 119v104h102v-516h-98v51h-4c-18 -39 -56 -59 -114 -59c-78 0 -149 59 -149 177zM136 513c0 -60 30 -98 78 -98c45 0 76 36 79 92v9c0 61 -31 101 -79 101c-49 0 -78 -41 -78 -104z" />
    <glyph glyph-name="e.numerator" horiz-adv-x="417" 
d="M30 516c0 108 74 180 181 180s176 -63 176 -178v-24h-253c6 -56 36 -83 83 -83c43 0 60 17 67 37h97c-11 -63 -70 -111 -169 -111c-111 0 -182 68 -182 179zM211 622c-42 0 -66 -24 -75 -66h145c-7 44 -30 66 -70 66z" />
    <glyph glyph-name="f.numerator" horiz-adv-x="266" 
d="M75 344v262h-65v82h65v33c0 98 37 139 135 139h58v-85h-40c-35 0 -49 -12 -49 -53v-34h77v-82h-77v-262h-104z" />
    <glyph glyph-name="g.numerator" horiz-adv-x="441" 
d="M42 303h97c2 -32 28 -46 71 -46c62 0 87 35 87 115v23h-4c-18 -38 -56 -59 -114 -59c-78 0 -149 59 -149 177c0 121 76 184 156 184c56 0 89 -21 107 -60h4v51h98v-315c0 -145 -71 -190 -187 -190c-99 0 -159 37 -166 120zM136 513c0 -60 30 -98 78 -98s79 40 79 101v9
c-3 56 -34 92 -79 92c-49 0 -78 -41 -78 -104z" />
    <glyph glyph-name="h.numerator" horiz-adv-x="427" 
d="M46 344v516h103v-110c0 -22 0 -60 -4 -112h3c20 41 57 59 108 59c68 0 128 -37 128 -136v-217h-102v193c0 58 -26 78 -62 78c-40 0 -71 -29 -71 -86v-185h-103z" />
    <glyph glyph-name="i.numerator" horiz-adv-x="191" 
d="M41 763v97h109v-97h-109zM44 344v344h102v-344h-102z" />
    <glyph glyph-name="j.numerator" horiz-adv-x="191" 
d="M41 763v97h109v-97h-109zM44 329v359h102v-361c0 -91 -24 -138 -128 -138h-34v87h20c32 0 40 16 40 53z" />
    <glyph glyph-name="k.numerator" horiz-adv-x="398" 
d="M46 344v516h104v-302l117 130h115l-128 -137l140 -207h-116l-92 134l-36 -39v-95h-104z" />
    <glyph glyph-name="l.numerator" horiz-adv-x="195" 
d="M46 344v516h103v-516h-103z" />
    <glyph glyph-name="m.numerator" horiz-adv-x="645" 
d="M46 344v344h99v-50h3c20 41 54 59 105 59c46 0 89 -19 110 -67c25 51 66 67 117 67c63 0 122 -35 122 -133v-220h-102v197c0 55 -21 74 -56 74c-41 0 -69 -30 -69 -89v-182h-101v196c0 55 -22 75 -58 75c-39 0 -67 -30 -67 -89v-182h-103z" />
    <glyph glyph-name="n.numerator" horiz-adv-x="427" 
d="M46 344v344h99v-50h3c20 41 57 59 108 59c68 0 128 -37 128 -136v-217h-102v193c0 58 -26 78 -62 78c-42 0 -71 -32 -71 -89v-182h-103z" />
    </font>
</defs>
</svg>
