<?xml version="1.0" standalone="no"?>
<!DOCTYPE svg PUBLIC "-//W3C//DTD SVG 1.1//EN" "http://www.w3.org/Graphics/SVG/1.1/DTD/svg11.dtd" >
<svg xmlns="http://www.w3.org/2000/svg" xmlns:xlink="http://www.w3.org/1999/xlink" version="1.1">
<metadata>
Created by FontForge 20190801 at Wed Mar 30 16:48:57 2011
 By Jimmy Wärting
(c) Copyright (c) 2010. All rights reserved. Fakt is a design by Thomas Thiemich, published by OurType. www.ourtype.com
</metadata>
<defs>
<font id="FaktPro-BlondItalic" horiz-adv-x="352" >
  <font-face 
    font-family="Fakt Pro Blond"
    font-weight="350"
    font-style="italic"
    font-stretch="normal"
    units-per-em="1000"
    panose-1="2 0 0 0 0 0 0 0 0 0"
    ascent="748"
    descent="-252"
    x-height="488"
    cap-height="688"
    bbox="-217 -312 1158 1012"
    underline-thickness="50"
    underline-position="-100"
    stemh="59"
    stemv="71"
    unicode-range="U+0020-FB04"
  />
<missing-glyph horiz-adv-x="712" 
d="M0 0v720h712v-720h-712zM232 184l126 129l126 -129l52 52l-127 130l127 130l-52 52l-126 -129l-126 129l-52 -52l126 -130l-126 -130z" />
    <glyph glyph-name="fi" unicode="fi" horiz-adv-x="535" 
d="M343 0l73 433h-219l-73 -433h-68l73 433h-98l9 55h98l15 86c18 106 78 158 182 158h41l-9 -59h-35c-64 0 -99 -30 -111 -102l-14 -83h287l-83 -488h-68zM448 636l16 96h73l-15 -96h-74z" />
    <glyph glyph-name="fl" unicode="fl" horiz-adv-x="535" 
d="M31 433l9 55h98l15 86c18 106 78 158 182 158h200l-124 -732h-68l114 673h-125c-64 0 -99 -30 -111 -102l-14 -83h108l-9 -55h-109l-73 -433h-68l73 433h-98z" />
    <glyph glyph-name="f_b" unicode="fb" horiz-adv-x="883" 
d="M342 0l114 673h-124c-64 0 -99 -30 -111 -102l-14 -83h108l-9 -55h-109l-73 -433h-68l73 433h-98l9 55h98l15 86c18 106 78 158 182 158h199l-27 -158c-4 -23 -20 -113 -31 -159h3c42 55 107 84 172 84c115 0 189 -81 189 -204c0 -181 -116 -306 -256 -306
c-79 0 -141 40 -160 98h-2l-15 -87h-65zM450 199c0 -92 49 -151 132 -151c116 0 187 120 187 241c0 92 -50 151 -133 151c-116 0 -186 -120 -186 -241z" />
    <glyph glyph-name="f_f_b" unicode="ffb" horiz-adv-x="1170" 
d="M630 0l114 673h-125c-64 0 -99 -30 -111 -102l-14 -83h108l-9 -55h-109l-73 -433h-68l73 433h-219l-73 -433h-68l73 433h-98l9 55h98l15 86c18 106 78 158 182 158h41l-9 -59h-35c-64 0 -99 -30 -111 -102l-14 -83h218l15 86c18 106 78 158 182 158h200l-27 -158
c-4 -23 -20 -113 -31 -159h3c42 55 107 84 172 84c115 0 189 -81 189 -204c0 -181 -116 -306 -256 -306c-79 0 -141 40 -160 98h-2l-15 -87h-65zM738 199c0 -92 49 -151 132 -151c116 0 187 120 187 241c0 92 -50 151 -133 151c-116 0 -186 -120 -186 -241z" />
    <glyph glyph-name="f_f_h" unicode="ffh" horiz-adv-x="1155" 
d="M31 433l9 55h98l15 86c18 106 78 158 182 158h41l-9 -59h-35c-64 0 -99 -30 -111 -102l-14 -83h218l15 86c18 106 78 158 182 158h200l-26 -153c-8 -44 -22 -130 -32 -171h4c38 62 95 91 167 91c100 0 175 -60 151 -202l-51 -297h-68l49 290c18 106 -20 150 -99 150
c-82 0 -156 -72 -176 -189l-43 -251h-68l114 673h-125c-64 0 -99 -30 -111 -102l-14 -83h108l-9 -55h-109l-73 -433h-68l73 433h-219l-73 -433h-68l73 433h-98z" />
    <glyph glyph-name="f_f_j" unicode="ffj" horiz-adv-x="822" 
d="M513 -161h27c44 0 66 23 75 77l88 517h-219l-73 -433h-68l73 433h-219l-73 -433h-68l73 433h-98l9 55h98l15 86c18 106 78 158 182 158h41l-9 -59h-35c-64 0 -99 -30 -111 -102l-14 -83h218l15 86c18 106 78 158 182 158h41l-9 -59h-35c-64 0 -99 -30 -111 -102l-14 -83
h287l-100 -584c-13 -76 -59 -124 -148 -124h-30zM735 636l16 96h73l-15 -96h-74z" />
    <glyph glyph-name="f_f_k" unicode="ffk" horiz-adv-x="1090" 
d="M31 433l9 55h98l15 86c18 106 78 158 182 158h41l-9 -59h-35c-64 0 -99 -30 -111 -102l-14 -83h218l15 86c18 106 78 158 182 158h200l-85 -503l280 259h84l-220 -201l152 -287h-75l-128 241l-108 -99l-24 -142h-68l114 673h-125c-64 0 -99 -30 -111 -102l-14 -83h108
l-9 -55h-109l-73 -433h-68l73 433h-219l-73 -433h-68l73 433h-98z" />
    <glyph glyph-name="f_f_t" unicode="fft" horiz-adv-x="888" 
d="M644 140l50 293h-210l-73 -433h-68l73 433h-219l-73 -433h-68l73 433h-98l9 55h98l15 86c18 106 78 158 182 158h41l-9 -59h-35c-64 0 -99 -30 -111 -102l-14 -83h218l15 86c18 106 78 158 182 158h50l-9 -59h-44c-64 0 -99 -30 -111 -102l-14 -83h209l26 148h68
l-25 -148h132l-9 -55h-132l-49 -289c-10 -58 3 -85 59 -85h61l-8 -59h-67c-96 0 -130 49 -115 140z" />
    <glyph glyph-name="f_h" unicode="fh" horiz-adv-x="868" 
d="M31 433l9 55h98l15 86c18 106 78 158 182 158h200l-26 -152c-8 -44 -22 -130 -31 -171h3c39 62 96 90 167 90c100 0 175 -60 151 -202l-51 -297h-68l49 290c18 106 -20 150 -99 150c-78 0 -154 -64 -175 -186l-44 -254h-68l114 673h-125c-64 0 -99 -30 -111 -102l-14 -83
h108l-9 -55h-109l-73 -433h-68l73 433h-98z" />
    <glyph glyph-name="f_j" unicode="fj" horiz-adv-x="535" 
d="M226 -161h27c44 0 66 23 75 77l88 517h-219l-73 -433h-68l73 433h-98l9 55h98l15 86c18 106 78 158 182 158h41l-9 -59h-35c-64 0 -99 -30 -111 -102l-14 -83h287l-100 -584c-13 -76 -59 -124 -147 -124h-30zM448 636l16 96h73l-15 -96h-74z" />
    <glyph glyph-name="f_k" unicode="fk" horiz-adv-x="803" 
d="M31 433l9 55h98l15 86c18 106 78 158 182 158h200l-85 -503l280 259h84l-220 -201l152 -287h-75l-128 241l-108 -99l-24 -142h-68l114 673h-125c-64 0 -99 -30 -111 -102l-14 -83h108l-9 -55h-109l-73 -433h-68l73 433h-98z" />
    <glyph glyph-name="f_t" unicode="ft" horiz-adv-x="601" 
d="M358 140l49 293h-210l-73 -433h-68l73 433h-98l9 55h98l15 86c18 106 78 158 182 158h50l-9 -59h-44c-64 0 -99 -30 -111 -102l-14 -83h210l25 148h68l-25 -148h132l-9 -55h-132l-49 -289c-9 -58 4 -85 59 -85h62l-10 -59h-67c-95 0 -129 49 -113 140z" />
    <glyph glyph-name="ff" unicode="ff" horiz-adv-x="580" 
d="M31 433l9 55h98l15 86c18 106 78 158 182 158h41l-9 -59h-35c-64 0 -99 -30 -111 -102l-14 -83h218l15 86c18 106 78 158 182 158h50l-9 -59h-44c-64 0 -99 -30 -111 -102l-14 -83h122l-9 -55h-123l-73 -433h-68l73 433h-219l-73 -433h-68l73 433h-98z" />
    <glyph glyph-name="ffi" unicode="ffi" horiz-adv-x="822" 
d="M630 0l73 433h-219l-73 -433h-68l73 433h-219l-73 -433h-68l73 433h-98l9 55h98l15 86c18 106 78 158 182 158h41l-9 -59h-35c-64 0 -99 -30 -111 -102l-14 -83h218l15 86c18 106 78 158 182 158h41l-9 -59h-35c-64 0 -99 -30 -111 -102l-14 -83h287l-83 -488h-68z
M735 636l16 96h73l-15 -96h-74z" />
    <glyph glyph-name="ffl" unicode="ffl" horiz-adv-x="822" 
d="M31 433l9 55h98l15 86c18 106 78 158 182 158h41l-9 -59h-35c-64 0 -99 -30 -111 -102l-14 -83h218l15 86c18 106 78 158 182 158h200l-124 -732h-68l114 673h-125c-64 0 -99 -30 -111 -102l-14 -83h108l-9 -55h-109l-73 -433h-68l73 433h-219l-73 -433h-68l73 433h-98z
" />
    <glyph glyph-name=".notdef" horiz-adv-x="712" 
d="M0 0v720h712v-720h-712zM232 184l126 129l126 -129l52 52l-127 130l127 130l-52 52l-126 -129l-126 129l-52 -52l126 -130l-126 -130z" />
    <glyph glyph-name="space" unicode=" " horiz-adv-x="216" 
 />
    <glyph glyph-name="exclam" unicode="!" horiz-adv-x="256" 
d="M96 189l33 315l32 184h79l-31 -184l-75 -315h-38zM43 0l17 102h80l-17 -102h-80z" />
    <glyph glyph-name="quotedbl" unicode="&#x22;" horiz-adv-x="384" 
d="M288 436l17 165l14 87h68l-15 -87l-40 -165h-44zM112 436l17 165l14 87h68l-15 -87l-40 -165h-44z" />
    <glyph glyph-name="numbersign" unicode="#" horiz-adv-x="606" 
d="M74 465v53h126l30 170h62l-30 -170h165l30 170h62l-30 -170h110v-53h-119l-42 -237h118v-53h-127l-30 -175h-62l30 175h-165l-30 -175h-62l30 175h-109v53h118l42 237h-117zM253 465l-42 -237h165l42 237h-165z" />
    <glyph glyph-name="dollar" unicode="$" horiz-adv-x="568" 
d="M31 188h68c-9 -97 51 -143 147 -143c100 0 179 56 179 154c0 58 -37 90 -103 111l-93 29c-69 22 -130 62 -130 156c0 112 87 192 214 203l18 106h68l-18 -108c94 -14 162 -77 156 -176h-68c1 80 -54 123 -136 123c-91 0 -163 -47 -163 -140c0 -60 37 -83 104 -105l93 -30
c85 -27 129 -81 129 -160c0 -129 -100 -208 -233 -218l-18 -110h-67l18 112c-107 12 -173 79 -165 196z" />
    <glyph glyph-name="percent" unicode="%" horiz-adv-x="764" 
d="M187 336c-82 0 -120 55 -120 131c0 16 2 34 5 51c17 99 75 178 173 178c82 0 119 -55 119 -131c0 -17 -1 -34 -4 -51c-18 -99 -75 -178 -173 -178zM543 -8c-82 0 -120 55 -120 131c0 16 2 34 5 51c17 99 75 178 173 178c82 0 119 -55 119 -131c0 -17 -1 -34 -4 -51
c-18 -99 -75 -178 -173 -178zM135 -12l470 712h53l-470 -712h-53zM549 39c55 0 93 49 108 131c3 17 4 33 4 48c0 54 -21 87 -67 87c-55 0 -93 -49 -107 -131c-3 -17 -5 -34 -5 -49c0 -54 23 -86 67 -86zM193 383c55 0 93 49 108 131c3 17 4 33 4 48c0 54 -21 87 -66 87
c-56 0 -94 -49 -108 -131c-3 -17 -5 -34 -5 -49c0 -54 23 -86 67 -86z" />
    <glyph glyph-name="ampersand" unicode="&#x26;" horiz-adv-x="697" 
d="M32 161c0 124 99 178 202 222c-42 55 -67 98 -67 147c0 92 68 169 196 169c99 0 163 -57 163 -135c0 -110 -97 -155 -198 -196l163 -202c37 53 58 117 69 178h61c-10 -58 -35 -149 -92 -225l97 -119h-77l-61 74c-54 -50 -129 -85 -232 -85c-139 0 -224 72 -224 172z
M258 45c84 0 147 29 193 73l-185 225c-89 -38 -166 -82 -166 -175c0 -73 63 -123 158 -123zM232 536c0 -37 24 -76 64 -128c88 37 165 75 165 153c0 49 -39 85 -105 85c-83 0 -124 -51 -124 -110z" />
    <glyph glyph-name="quoteright" unicode="&#x2019;" horiz-adv-x="231" 
d="M107 436l56 146h-32l16 106h80l-16 -100l-66 -152h-38z" />
    <glyph glyph-name="parenleft" unicode="(" horiz-adv-x="275" 
d="M19 137c0 256 131 461 257 607h62c-87 -97 -254 -339 -254 -604c0 -163 54 -304 89 -368h-59c-42 74 -95 207 -95 365z" />
    <glyph glyph-name="parenright" unicode=")" horiz-adv-x="275" 
d="M-1 -228h-62c87 97 254 339 254 604c0 163 -54 304 -89 368h59c42 -74 95 -207 95 -365c0 -256 -131 -461 -257 -607z" />
    <glyph glyph-name="asterisk" unicode="*" horiz-adv-x="450" 
d="M327 696l-37 -140l138 56l9 -53l-143 -32l74 -104l-50 -32l-50 117l-93 -117l-39 32l108 106l-128 30l25 53l119 -55l11 139h56z" />
    <glyph glyph-name="plus" unicode="+" horiz-adv-x="568" 
d="M51 224l9 59h196l33 197h62l-33 -197h195l-9 -59h-196l-33 -196h-62l33 196h-195z" />
    <glyph glyph-name="comma" unicode="," horiz-adv-x="244" 
d="M35 0l19 112h86l-19 -106l-69 -162h-41l60 156h-36z" />
    <glyph glyph-name="hyphen" unicode="-" horiz-adv-x="396" 
d="M54 222l9 61h276l-9 -61h-276z" />
    <glyph glyph-name="period" unicode="." horiz-adv-x="244" 
d="M35 0l19 112h86l-20 -112h-85z" />
    <glyph glyph-name="slash" unicode="/" horiz-adv-x="401" 
d="M-27 -12l422 712h62l-423 -712h-61z" />
    <glyph glyph-name="zero" unicode="0" horiz-adv-x="568" 
d="M239 -11c-133 0 -188 97 -188 236c0 38 3 78 10 119c33 203 131 355 296 355c133 0 188 -97 188 -236c0 -38 -3 -78 -10 -119c-33 -203 -131 -355 -296 -355zM247 51c114 0 187 112 217 293c7 42 10 81 10 116c0 112 -39 177 -125 177c-114 0 -187 -112 -217 -293
c-7 -42 -10 -81 -10 -116c0 -112 39 -177 125 -177z" />
    <glyph glyph-name="one" unicode="1" horiz-adv-x="568" 
d="M140 483l-28 53l247 152h52l-107 -629h174l-9 -59h-423l9 59h181l91 539z" />
    <glyph glyph-name="two" unicode="2" horiz-adv-x="568" 
d="M23 0c31 154 88 222 208 290l86 50c86 49 160 89 160 188c0 62 -44 112 -127 112c-91 0 -154 -48 -179 -155h-62c30 165 140 214 244 214c112 0 192 -58 192 -164c0 -135 -101 -188 -188 -239l-87 -50c-122 -69 -146 -120 -162 -187h372l-9 -59h-448z" />
    <glyph glyph-name="three" unicode="3" horiz-adv-x="568" 
d="M37 205h65c-15 -94 32 -157 144 -157c99 0 188 52 188 162c0 70 -59 117 -144 117h-51l12 58h52c89 0 163 62 163 147c0 69 -51 108 -123 108c-83 0 -151 -43 -167 -138h-64c21 124 112 197 240 197c106 0 179 -63 179 -158c0 -88 -70 -164 -142 -181v-4
c67 -16 113 -72 113 -143c0 -148 -116 -224 -262 -224c-142 0 -224 78 -203 216z" />
    <glyph glyph-name="four" unicode="4" horiz-adv-x="568" 
d="M20 182l9 49l415 458h55l-76 -448h104l-9 -59h-105l-30 -182h-68l30 182h-325zM107 241h248l56 332z" />
    <glyph glyph-name="five" unicode="5" horiz-adv-x="568" 
d="M251 -11c-124 0 -207 70 -208 191h68c1 -66 42 -132 143 -132c75 0 137 40 168 105c13 28 20 59 20 95c0 83 -59 133 -134 133c-60 0 -113 -26 -161 -80l-63 3l84 384h381l-9 -62h-319l-57 -245h3c40 40 91 59 156 59c110 0 190 -69 190 -186c0 -37 -7 -71 -18 -101
c-39 -103 -136 -164 -244 -164z" />
    <glyph glyph-name="six" unicode="6" horiz-adv-x="568" 
d="M56 218c0 30 0 63 6 99c39 252 158 382 313 382c113 0 188 -59 182 -183h-68c4 83 -47 124 -121 124c-115 0 -201 -113 -234 -317c32 69 109 117 201 117c114 0 190 -72 190 -185c0 -32 -5 -61 -13 -88c-35 -109 -134 -178 -252 -178c-115 0 -204 64 -204 229zM129 180
c0 -89 63 -132 137 -132c76 0 143 48 172 119c10 24 16 51 16 82c0 80 -54 132 -134 132c-101 0 -191 -81 -191 -201z" />
    <glyph glyph-name="seven" unicode="7" horiz-adv-x="568" 
d="M111 0l393 626h-386l9 62h466l-9 -49l-399 -639h-74z" />
    <glyph glyph-name="eight" unicode="8" horiz-adv-x="568" 
d="M31 159c0 97 79 176 176 198v4c-54 16 -91 68 -91 134c0 118 108 204 237 204c115 0 185 -63 185 -164c0 -81 -67 -156 -144 -175v-3c68 -16 115 -72 115 -145c0 -139 -123 -223 -269 -223c-128 0 -209 67 -209 170zM99 165c0 -72 61 -117 147 -117c101 0 195 59 195 161
c0 71 -59 118 -147 118c-104 0 -195 -62 -195 -162zM307 385c92 0 166 62 166 147c0 69 -51 111 -126 111c-87 0 -166 -57 -166 -148c0 -64 46 -110 126 -110z" />
    <glyph glyph-name="nine" unicode="9" horiz-adv-x="568" 
d="M220 -11c-113 0 -188 59 -182 183h68c-5 -83 47 -124 121 -124c114 0 200 113 234 317c-33 -70 -110 -117 -201 -117c-114 0 -190 72 -190 185c0 32 5 61 13 88c34 109 134 178 252 178c115 0 204 -64 204 -229c0 -30 -1 -63 -6 -99c-37 -252 -159 -382 -313 -382z
M466 508c0 74 -53 132 -137 132c-76 0 -143 -48 -172 -119c-10 -24 -16 -51 -16 -82c0 -80 54 -132 133 -132c102 0 192 81 192 201z" />
    <glyph glyph-name="colon" unicode=":" horiz-adv-x="244" 
d="M100 376l19 112h85l-19 -112h-85zM35 0l19 112h86l-20 -112h-85z" />
    <glyph glyph-name="semicolon" unicode=";" horiz-adv-x="244" 
d="M100 376l19 112h85l-19 -112h-85zM35 0l19 112h86l-19 -106l-69 -162h-41l60 156h-36z" />
    <glyph glyph-name="less" unicode="&#x3c;" horiz-adv-x="568" 
d="M67 228l9 56l453 183l-9 -65l-379 -148l328 -147l-12 -62z" />
    <glyph glyph-name="equal" unicode="=" horiz-adv-x="568" 
d="M68 329l9 59h453l-9 -59h-453zM35 120l9 59h453l-9 -59h-453z" />
    <glyph glyph-name="greater" unicode="&#x3e;" horiz-adv-x="568" 
d="M98 405l12 62l390 -183l-9 -56l-453 -183l9 65l378 147z" />
    <glyph glyph-name="question" unicode="?" horiz-adv-x="485" 
d="M193 196l4 28c28 189 226 171 226 317c0 57 -48 99 -115 99c-91 0 -150 -53 -165 -147h-65c14 119 99 206 236 206c102 0 180 -57 180 -152c0 -180 -206 -170 -229 -323l-4 -28h-68zM163 0l16 102h79l-16 -102h-79z" />
    <glyph glyph-name="at" unicode="@" horiz-adv-x="1032" 
d="M283 117c0 100 74 142 172 154l107 13c51 7 77 18 80 43c9 69 -22 116 -101 116c-75 0 -124 -38 -141 -107h-65c21 99 94 163 212 163c112 0 182 -61 159 -190l-27 -158c-2 -14 -3 -27 -3 -37c0 -59 37 -75 75 -75c125 0 175 178 175 276c0 226 -161 334 -362 334
c-258 0 -459 -208 -459 -487c0 -195 132 -340 336 -340c93 0 181 29 246 87h76c-86 -91 -203 -137 -331 -137c-235 0 -389 166 -389 384c0 308 225 543 531 543c232 0 414 -134 414 -378c0 -146 -78 -332 -249 -332c-61 0 -119 26 -127 95c-45 -67 -116 -95 -183 -95
c-92 0 -146 53 -146 128zM621 210l9 52c-11 -15 -31 -21 -59 -24l-107 -14c-71 -9 -113 -41 -113 -101c0 -47 33 -78 91 -78c85 0 159 48 179 165z" />
    <glyph glyph-name="A" unicode="A" horiz-adv-x="631" 
d="M-29 0l372 688h86l143 -688h-74l-39 198h-309l-106 -198h-73zM377 614h-3l-191 -355h264z" />
    <glyph glyph-name="B" unicode="B" horiz-adv-x="658" 
d="M47 0l119 688h276c127 0 186 -51 186 -137s-50 -162 -146 -187l-1 -3c76 -13 119 -65 119 -131c0 -131 -106 -230 -261 -230h-292zM397 327h-223l-46 -265h221c110 0 181 69 181 161c0 60 -43 104 -133 104zM430 626h-204l-41 -237h207c99 0 164 64 164 147
c0 54 -37 90 -126 90z" />
    <glyph glyph-name="C" unicode="C" horiz-adv-x="708" 
d="M55 272c0 240 159 427 380 427c155 0 254 -88 264 -223h-72c-18 100 -82 160 -201 160c-173 0 -298 -166 -298 -355c0 -132 78 -229 215 -229c119 0 190 60 240 160h72c-51 -135 -157 -223 -322 -223c-173 0 -278 122 -278 283z" />
    <glyph glyph-name="D" unicode="D" horiz-adv-x="696" 
d="M47 0l116 688h193c205 0 313 -121 313 -286c0 -234 -163 -402 -428 -402h-194zM350 626h-127l-95 -564h119c216 0 348 143 348 337c0 128 -73 227 -245 227z" />
    <glyph glyph-name="E" unicode="E" horiz-adv-x="606" 
d="M47 0l116 688h459l-9 -62h-390l-41 -245h311l-9 -61h-312l-44 -258h395l-9 -62h-467z" />
    <glyph glyph-name="F" unicode="F" horiz-adv-x="570" 
d="M47 0l116 688h454l-9 -62h-385l-45 -271h310l-9 -61h-312l-49 -294h-71z" />
    <glyph glyph-name="G" unicode="G" horiz-adv-x="754" 
d="M585 0l7 107h-3c-64 -82 -151 -118 -256 -118c-170 0 -278 123 -278 284c0 245 170 426 391 426c168 0 259 -90 265 -213h-73c-8 80 -66 150 -201 150c-176 0 -310 -160 -310 -355c0 -132 82 -229 218 -229c120 0 242 75 266 212l6 35h-229l9 61h297l-62 -360h-47z" />
    <glyph glyph-name="H" unicode="H" horiz-adv-x="716" 
d="M47 0l116 688h71l-52 -308h392l52 308h71l-116 -688h-71l53 318h-392l-53 -318h-71z" />
    <glyph glyph-name="I" unicode="I" horiz-adv-x="253" 
d="M47 0l116 688h71l-116 -688h-71z" />
    <glyph glyph-name="J" unicode="J" horiz-adv-x="513" 
d="M199 -11c-118 0 -192 57 -165 204l6 35h71l-7 -35c-18 -101 22 -142 99 -142s130 45 148 148l84 489h71l-84 -489c-26 -152 -107 -210 -223 -210z" />
    <glyph glyph-name="K" unicode="K" horiz-adv-x="649" 
d="M46 0l117 688h71l-67 -393l432 393h86l-329 -300l224 -388h-77l-198 341l-154 -140l-34 -201h-71z" />
    <glyph glyph-name="L" unicode="L" horiz-adv-x="541" 
d="M47 0l116 688h71l-106 -626h350l-9 -62h-422z" />
    <glyph glyph-name="M" unicode="M" horiz-adv-x="887" 
d="M47 0l116 688h85l164 -593h2l362 593h92l-116 -688h-71l100 566h-3l-348 -566h-63l-155 563h-3l-91 -563h-71z" />
    <glyph glyph-name="N" unicode="N" horiz-adv-x="723" 
d="M47 0l116 688h64l308 -568h3l95 568h71l-116 -688h-65l-308 568h-2l-95 -568h-71z" />
    <glyph glyph-name="O" unicode="O" horiz-adv-x="754" 
d="M56 277c0 239 172 422 389 422c170 0 282 -123 282 -288c0 -239 -173 -422 -391 -422c-169 0 -280 123 -280 288zM129 280c0 -134 81 -228 217 -228c170 0 309 158 309 356c0 134 -83 228 -219 228c-171 0 -307 -158 -307 -356z" />
    <glyph glyph-name="P" unicode="P" horiz-adv-x="626" 
d="M47 0l116 688h257c132 0 201 -79 201 -182c0 -153 -111 -256 -278 -256h-183l-42 -250h-71zM411 626h-188l-53 -314h182c122 0 195 82 195 188c0 71 -47 126 -136 126z" />
    <glyph glyph-name="Q" unicode="Q" horiz-adv-x="754" 
d="M56 278c0 239 174 421 389 421c170 0 281 -124 281 -289c0 -144 -63 -267 -160 -342l106 -135l-58 -49l-111 144c-51 -25 -107 -39 -167 -39c-169 0 -280 124 -280 289zM129 281c0 -133 81 -229 217 -229c168 0 308 157 308 355c0 133 -82 229 -218 229
c-169 0 -307 -157 -307 -355z" />
    <glyph glyph-name="R" unicode="R" horiz-adv-x="645" 
d="M47 0l116 688h257c136 0 204 -62 204 -166c0 -125 -81 -215 -206 -236l137 -286h-76l-132 281h-182l-47 -281h-71zM414 626h-191l-47 -283h193c112 0 181 73 181 173c0 66 -47 110 -136 110z" />
    <glyph glyph-name="S" unicode="S" horiz-adv-x="638" 
d="M48 192h67c-16 -91 48 -144 174 -144c123 0 202 52 202 143c0 190 -375 60 -375 309c0 119 103 199 270 199c147 0 239 -69 219 -190h-67c13 85 -53 131 -160 131c-112 0 -190 -49 -190 -131c0 -188 377 -58 377 -309c0 -134 -110 -211 -281 -211
c-172 0 -260 83 -236 203z" />
    <glyph glyph-name="T" unicode="T" horiz-adv-x="579" 
d="M68 628l12 60h563l-12 -60h-244l-106 -628h-71l106 628h-248z" />
    <glyph glyph-name="U" unicode="U" horiz-adv-x="690" 
d="M77 271l72 417h71l-72 -417c-24 -140 24 -217 158 -217c128 0 212 77 236 217l72 417h71l-72 -417c-34 -200 -155 -282 -313 -282s-257 85 -223 282z" />
    <glyph glyph-name="V" unicode="V" horiz-adv-x="609" 
d="M219 0l-137 688h74l115 -614h3l325 614h72l-369 -688h-83z" />
    <glyph glyph-name="W" unicode="W" horiz-adv-x="918" 
d="M152 0l-64 688h68l54 -614h3l275 614h88l68 -614h3l262 614h68l-296 -688h-94l-68 607h-3l-271 -607h-93z" />
    <glyph glyph-name="X" unicode="X" horiz-adv-x="585" 
d="M-36 0l301 354l-174 334h77l146 -284l240 284h77l-288 -338l184 -350h-77l-156 300l-253 -300h-77z" />
    <glyph glyph-name="Y" unicode="Y" horiz-adv-x="594" 
d="M213 0l51 286l-173 402h74l145 -341h3l265 341h75l-319 -407l-50 -281h-71z" />
    <glyph glyph-name="Z" unicode="Z" horiz-adv-x="575" 
d="M117 628l12 60h478l-6 -46l-509 -582h407l-12 -60h-494l6 46l509 582h-391z" />
    <glyph glyph-name="bracketleft" unicode="[" horiz-adv-x="318" 
d="M78 -172h147l-9 -56h-209l168 972h208l-9 -56h-147z" />
    <glyph glyph-name="backslash" unicode="\" horiz-adv-x="401" 
d="M277 -12l-184 712h59l184 -712h-59z" />
    <glyph glyph-name="bracketright" unicode="]" horiz-adv-x="318" 
d="M-56 -172h147l149 860h-147l9 56h209l-168 -972h-208z" />
    <glyph glyph-name="asciicircum" unicode="^" horiz-adv-x="568" 
d="M71 352l251 336h68l131 -336h-70l-105 278l-201 -278h-74z" />
    <glyph glyph-name="underscore" unicode="_" horiz-adv-x="500" 
d="M-59 -72h500l-9 -53h-500z" />
    <glyph glyph-name="quoteleft" unicode="&#x2018;" horiz-adv-x="231" 
d="M108 436l16 100l66 152h37l-56 -146h33l-17 -106h-79z" />
    <glyph glyph-name="a" unicode="a" horiz-adv-x="517" 
d="M29 117c0 100 74 142 172 154l107 13c51 7 76 18 80 43c9 69 -24 116 -103 116c-76 0 -123 -38 -139 -107h-65c20 99 92 163 210 163c114 0 184 -61 161 -196l-52 -303h-65l13 81h-2c-34 -60 -93 -92 -170 -92c-93 0 -147 53 -147 128zM97 123c0 -47 33 -78 90 -78
c84 0 160 46 180 163l10 58c-11 -16 -31 -24 -60 -28l-107 -14c-71 -9 -113 -41 -113 -101z" />
    <glyph glyph-name="b" unicode="b" horiz-adv-x="576" 
d="M36 0l124 732h68l-27 -158c-4 -23 -20 -113 -31 -159h3c42 55 107 84 172 84c115 0 189 -81 189 -204c0 -181 -116 -306 -256 -306c-79 0 -141 40 -160 98h-2l-15 -87h-65zM144 199c0 -92 49 -151 132 -151c116 0 187 120 187 241c0 92 -50 151 -133 151
c-116 0 -186 -120 -186 -241z" />
    <glyph glyph-name="c" unicode="c" horiz-adv-x="509" 
d="M35 196c0 26 3 50 8 75c26 124 115 228 258 228c100 0 179 -58 182 -172h-68c-4 66 -48 113 -123 113c-89 0 -156 -69 -178 -169c-5 -22 -8 -47 -8 -72c0 -91 49 -151 134 -151c70 0 122 50 149 113h68c-32 -101 -111 -172 -230 -172c-126 0 -192 92 -192 207z" />
    <glyph glyph-name="d" unicode="d" horiz-adv-x="576" 
d="M35 193c0 181 116 306 255 306c87 0 143 -40 161 -99h2c5 46 26 166 30 190l25 142h68l-124 -732h-66l12 71h-3c-41 -54 -104 -82 -171 -82c-115 0 -189 81 -189 204zM106 199c0 -92 50 -151 133 -151c116 0 186 120 186 241c0 92 -49 151 -132 151
c-116 0 -187 -120 -187 -241z" />
    <glyph glyph-name="e" unicode="e" horiz-adv-x="517" 
d="M35 199c0 26 3 50 8 74c27 138 132 226 254 226c139 0 214 -110 178 -260h-367c-2 -13 -2 -27 -2 -40c0 -92 51 -151 135 -151c66 0 121 39 148 100h68c-36 -98 -115 -159 -228 -159c-121 0 -194 87 -194 210zM292 440c-80 0 -147 -59 -174 -150h294c0 8 1 16 1 23
c-1 85 -49 127 -121 127z" />
    <glyph glyph-name="f" unicode="f" horiz-adv-x="296" 
d="M31 433l9 55h98l15 86c18 106 78 158 182 158h53l-9 -59h-47c-64 0 -99 -30 -111 -102l-14 -83h122l-9 -55h-123l-73 -433h-68l73 433h-98z" />
    <glyph glyph-name="g" unicode="g" horiz-adv-x="576" 
d="M9 -60h64c-13 -70 42 -112 127 -112c93 0 163 45 186 175l13 72h-3c-41 -57 -104 -86 -172 -86c-115 0 -189 81 -189 204c0 181 116 306 255 306c87 0 143 -40 161 -99h2l15 88h66l-81 -485c-29 -168 -122 -231 -259 -231c-120 0 -204 62 -185 168zM106 199
c0 -92 50 -151 133 -151c116 0 186 120 186 241c0 92 -49 151 -132 151c-116 0 -187 -120 -187 -241z" />
    <glyph glyph-name="h" unicode="h" horiz-adv-x="561" 
d="M36 0l124 732h68l-26 -153c-8 -44 -22 -130 -31 -171h3c38 62 95 91 167 91c100 0 175 -60 151 -202l-51 -297h-68l49 290c18 106 -20 150 -99 150c-78 0 -154 -64 -176 -190l-43 -250h-68z" />
    <glyph glyph-name="i" unicode="i" horiz-adv-x="228" 
d="M141 636l16 96h73l-15 -96h-74zM36 0l84 488h67l-83 -488h-68z" />
    <glyph glyph-name="j" unicode="j" horiz-adv-x="228" 
d="M141 636l16 96h73l-15 -96h-74zM21 -84l99 572h67l-100 -584c-13 -76 -59 -124 -147 -124h-30l9 59h27c44 0 66 23 75 77z" />
    <glyph glyph-name="k" unicode="k" horiz-adv-x="496" 
d="M36 0l124 732h68l-85 -503l280 259h84l-220 -201l152 -287h-75l-127 242l-109 -100l-24 -142h-68z" />
    <glyph glyph-name="l" unicode="l" horiz-adv-x="228" 
d="M36 0l124 732h68l-124 -732h-68z" />
    <glyph glyph-name="m" unicode="m" horiz-adv-x="866" 
d="M36 0l84 488h64l-14 -80h4c38 62 95 91 159 91c71 0 128 -34 144 -107c46 79 108 107 176 107c96 0 168 -60 144 -202l-52 -297h-68l50 290c18 106 -18 150 -92 150c-75 0 -146 -69 -167 -189l-43 -251h-68l49 290c18 106 -18 150 -91 150c-77 0 -148 -72 -168 -189
l-43 -251h-68z" />
    <glyph glyph-name="n" unicode="n" horiz-adv-x="561" 
d="M36 0l84 488h65l-15 -84h1c39 65 97 95 170 95c100 0 175 -60 151 -202l-51 -297h-68l49 290c18 106 -20 150 -99 150c-78 0 -154 -65 -176 -190l-43 -250h-68z" />
    <glyph glyph-name="o" unicode="o" horiz-adv-x="550" 
d="M35 196c0 19 2 39 5 58c22 131 118 245 266 245c124 0 201 -83 201 -207c0 -19 -2 -39 -5 -58c-22 -131 -117 -245 -266 -245c-124 0 -201 83 -201 207zM106 199c0 -92 53 -151 136 -151c92 0 169 76 189 186c4 17 5 36 5 55c0 92 -53 151 -136 151
c-92 0 -169 -76 -189 -186c-4 -17 -5 -36 -5 -55z" />
    <glyph glyph-name="p" unicode="p" horiz-adv-x="576" 
d="M91 -80l-24 -140h-67l119 708h65l-14 -74h2c41 55 108 85 173 85c115 0 189 -81 189 -204c0 -181 -116 -306 -255 -306c-78 0 -139 38 -160 95h-2c-6 -46 -22 -140 -26 -164zM276 48c116 0 187 120 187 241c0 92 -50 151 -133 151c-116 0 -186 -120 -186 -241
c0 -92 49 -151 132 -151z" />
    <glyph glyph-name="q" unicode="q" horiz-adv-x="573" 
d="M345 -220l20 114c4 24 24 140 33 177h-3c-41 -54 -104 -82 -171 -82c-115 0 -189 81 -189 204c0 181 116 306 255 306c87 0 143 -40 161 -99h2l15 88h65l-120 -708h-68zM239 48c116 0 186 120 186 241c0 92 -49 151 -132 151c-116 0 -187 -120 -187 -241
c0 -92 50 -151 133 -151z" />
    <glyph glyph-name="r" unicode="r" horiz-adv-x="356" 
d="M36 0l84 488h64l-14 -80h3c30 56 80 91 143 91c20 0 47 -3 68 -20l-31 -61c-20 12 -38 16 -60 16c-78 0 -130 -88 -147 -187l-42 -247h-68z" />
    <glyph glyph-name="s" unicode="s" horiz-adv-x="481" 
d="M19 138h65c-12 -71 47 -96 122 -96c92 0 141 34 141 93c0 129 -279 34 -279 216c0 93 81 148 195 148c115 0 194 -43 176 -144h-64c10 61 -37 91 -115 91c-74 0 -127 -31 -127 -89c0 -126 282 -31 282 -216c0 -101 -81 -152 -212 -152c-119 0 -201 49 -184 149z" />
    <glyph glyph-name="t" unicode="t" horiz-adv-x="315" 
d="M26 433l9 55h96l25 148h68l-25 -148h132l-9 -55h-132l-49 -290c-9 -57 4 -84 59 -84h61l-9 -59h-66c-96 0 -130 49 -114 140l49 293h-95z" />
    <glyph glyph-name="u" unicode="u" horiz-adv-x="553" 
d="M211 -11c-100 0 -175 60 -151 202l51 297h68l-49 -290c-18 -106 20 -150 99 -150c77 0 149 63 169 178l47 262h68l-84 -488h-65l15 83h-3c-38 -65 -96 -94 -165 -94z" />
    <glyph glyph-name="v" unicode="v" horiz-adv-x="463" 
d="M153 0l-105 488h70l84 -414h3l218 414h69l-262 -488h-77z" />
    <glyph glyph-name="w" unicode="w" horiz-adv-x="711" 
d="M103 0l-55 488h67l46 -417h3l187 417h84l48 -417h3l189 417h67l-226 -488h-87l-48 411h-3l-184 -411h-91z" />
    <glyph glyph-name="x" unicode="x" horiz-adv-x="449" 
d="M-30 0l214 247l-124 241h74l96 -192l164 192h74l-210 -244l123 -244h-73l-96 195l-168 -195h-74z" />
    <glyph glyph-name="y" unicode="y" horiz-adv-x="463" 
d="M-36 -167h27c60 0 101 37 136 104l27 53l-106 498h70l84 -414h3l218 414h69l-308 -571c-42 -80 -97 -143 -193 -143h-39z" />
    <glyph glyph-name="z" unicode="z" horiz-adv-x="433" 
d="M63 433l9 55h367l-9 -46l-340 -387h279l-9 -55h-367l6 40l344 393h-280z" />
    <glyph glyph-name="braceleft" unicode="{" horiz-adv-x="364" 
d="M82 -78l31 182c14 86 14 127 -85 134l6 47c87 5 119 36 134 128l31 181c16 95 63 150 172 150h52l-8 -53h-47c-65 0 -98 -33 -108 -97l-30 -181c-16 -98 -50 -131 -126 -150v-3c71 -24 87 -62 71 -156l-31 -182c-11 -67 10 -97 75 -97h46l-9 -53h-49
c-109 0 -141 55 -125 150z" />
    <glyph glyph-name="bar" unicode="|" horiz-adv-x="256" 
d="M10 -240l171 1000h62l-171 -1000h-62z" />
    <glyph glyph-name="braceright" unicode="}" horiz-adv-x="364" 
d="M101 -78l31 188c16 98 51 131 126 150v3c-71 24 -87 62 -70 156l29 175c11 67 -11 97 -75 97h-46l9 53h49c109 0 140 -55 125 -150l-29 -175c-14 -86 -15 -127 85 -134l-7 -47c-87 -5 -118 -36 -134 -128l-32 -188c-16 -95 -63 -150 -173 -150h-52l9 53h46
c65 0 98 33 109 97z" />
    <glyph glyph-name="asciitilde" unicode="~" horiz-adv-x="568" 
d="M48 186c17 97 72 143 138 143c92 0 130 -82 195 -82c37 0 66 24 76 84h59c-17 -97 -72 -143 -138 -143c-92 0 -130 82 -195 82c-37 0 -66 -24 -76 -84h-59z" />
    <glyph glyph-name="exclamdown" unicode="&#xa1;" horiz-adv-x="256" 
d="M111 386l17 102h79l-17 -102h-79zM42 -16l74 315h39l-34 -315l-31 -184h-80z" />
    <glyph glyph-name="cent" unicode="&#xa2;" horiz-adv-x="568" 
d="M214 -12l18 108c-91 15 -163 80 -163 199c0 161 95 292 246 306l16 99h68l-16 -100c85 -14 144 -73 149 -172h-65c-7 81 -59 119 -130 119c-91 0 -168 -67 -190 -178c-5 -21 -7 -44 -7 -68c0 -102 64 -152 141 -152c78 0 136 44 164 116h65c-28 -103 -119 -162 -211 -171
l-17 -106h-68z" />
    <glyph glyph-name="sterling" unicode="&#xa3;" horiz-adv-x="568" 
d="M77 333l6 48h91c-7 34 -13 68 -13 102c0 133 82 216 207 216c112 0 167 -69 156 -175h-65c9 61 -19 119 -97 119c-77 0 -133 -53 -133 -151c0 -38 8 -74 16 -111h172l-6 -48h-156c3 -22 6 -44 6 -67c0 -47 -11 -98 -32 -144c45 -36 87 -74 138 -74c56 0 86 47 102 116h59
c-19 -78 -54 -175 -164 -175c-63 0 -112 46 -160 87c-34 -51 -81 -87 -139 -87c-59 0 -92 35 -92 81c0 68 50 114 122 114c31 0 59 -11 84 -26c9 33 14 66 14 90c0 28 -4 57 -10 85h-106zM71 30c41 0 71 36 91 81c-24 17 -48 29 -73 29c-39 0 -67 -29 -67 -63
c0 -29 17 -47 49 -47z" />
    <glyph glyph-name="fraction" unicode="&#x2044;" horiz-adv-x="60" 
d="M-217 -12l470 712h53l-470 -712h-53z" />
    <glyph glyph-name="yen" unicode="&#xa5;" horiz-adv-x="568" 
d="M89 257l9 44h158l-164 387h74l134 -321h3l244 321h74l-297 -387h163l-9 -44h-161l-15 -88h162l-9 -44h-160l-21 -125h-68l21 125h-161l9 44h159l15 88h-160z" />
    <glyph glyph-name="florin" unicode="&#x192;" horiz-adv-x="568" 
d="M108 305l6 50h127l32 181c20 113 83 163 165 163c81 0 133 -44 114 -166l-4 -25h-62l4 25c13 79 -10 110 -58 110c-49 0 -79 -36 -91 -107l-32 -181h156l-6 -50h-159l-59 -334c-20 -114 -83 -163 -165 -163c-81 0 -133 44 -114 166l4 25h62l-4 -25
c-12 -79 10 -110 58 -110s79 36 91 107l59 334h-124z" />
    <glyph glyph-name="section" unicode="&#xa7;" horiz-adv-x="560" 
d="M8 -72h65c-6 -70 59 -103 127 -103c96 0 155 47 155 118c0 53 -38 77 -90 94l-85 28c-86 29 -129 74 -129 153c0 83 65 148 156 178c-47 23 -81 60 -81 122c0 114 99 182 226 182c97 0 198 -41 189 -156h-65c6 70 -59 103 -127 103c-96 0 -155 -47 -155 -118
c0 -53 38 -77 90 -94l85 -28c86 -29 129 -74 129 -153c0 -84 -65 -148 -156 -178c47 -24 81 -61 81 -122c0 -114 -99 -182 -226 -182c-97 0 -198 41 -189 156zM336 352l-59 19c-93 -15 -158 -76 -158 -147c0 -55 32 -84 94 -104l59 -19c92 14 158 75 158 147
c0 55 -32 84 -94 104z" />
    <glyph glyph-name="currency" unicode="&#xa4;" horiz-adv-x="568" 
d="M108 145l-32 38l71 61c-11 21 -17 45 -17 71c0 48 20 94 53 129l-49 60l41 33l49 -59c29 18 64 30 100 30c38 0 69 -12 93 -32l71 62l32 -37l-72 -62c12 -21 18 -45 18 -70c0 -48 -21 -95 -54 -130l50 -59l-40 -33l-50 59c-29 -19 -64 -30 -100 -30c-38 0 -70 12 -93 31z
M278 226c72 0 132 62 132 140c0 56 -37 92 -92 92c-72 0 -132 -62 -132 -140c0 -56 37 -92 92 -92z" />
    <glyph glyph-name="quotesingle" unicode="'" horiz-adv-x="208" 
d="M112 436l17 165l14 87h68l-15 -87l-40 -165h-44z" />
    <glyph glyph-name="quotedblleft" unicode="&#x201c;" horiz-adv-x="403" 
d="M280 436l16 100l66 152h37l-56 -146h32l-16 -106h-79zM108 436l16 100l66 152h37l-56 -146h33l-17 -106h-79z" />
    <glyph glyph-name="guillemotleft" unicode="&#xab;" horiz-adv-x="505" 
d="M358 48l-113 204l181 204h56l-163 -210l95 -198h-56zM164 48l-113 204l181 204h57l-164 -210l95 -198h-56z" />
    <glyph glyph-name="guilsinglleft" unicode="&#x2039;" horiz-adv-x="311" 
d="M164 48l-113 204l181 204h57l-164 -210l95 -198h-56z" />
    <glyph glyph-name="guilsinglright" unicode="&#x203a;" horiz-adv-x="311" 
d="M18 48l164 210l-95 198h56l112 -204l-180 -204h-57z" />
    <glyph glyph-name="endash" unicode="&#x2013;" horiz-adv-x="556" 
d="M54 222l9 61h436l-9 -61h-436z" />
    <glyph glyph-name="dagger" unicode="&#x2020;" horiz-adv-x="430" 
d="M78 457l9 56h139l30 175h62l-30 -175h141l-9 -56h-141l-77 -457h-62l77 457h-139z" />
    <glyph glyph-name="daggerdbl" unicode="&#x2021;" horiz-adv-x="430" 
d="M78 457l9 56h139l30 175h62l-30 -175h141l-9 -56h-141l-39 -229h141l-9 -56h-141l-29 -172h-62l29 172h-139l9 56h139l39 229h-139z" />
    <glyph glyph-name="periodcentered" unicode="&#xb7;" horiz-adv-x="244" 
d="M68 198l19 108h85l-19 -108h-85z" />
    <glyph glyph-name="paragraph" unicode="&#xb6;" horiz-adv-x="605" 
d="M390 0l116 688h68l-116 -688h-68zM227 0l44 262c-122 7 -190 72 -190 171c0 151 119 255 283 255h47l-116 -688h-68z" />
    <glyph glyph-name="bullet" unicode="&#x2022;" horiz-adv-x="488" 
d="M240 80c-97 0 -172 75 -172 172s75 172 172 172s172 -75 172 -172s-75 -172 -172 -172z" />
    <glyph glyph-name="quotesinglbase" unicode="&#x201a;" horiz-adv-x="231" 
d="M31 0l16 106h80l-16 -100l-66 -152h-38l56 146h-32z" />
    <glyph glyph-name="quotedblbase" unicode="&#x201e;" horiz-adv-x="403" 
d="M203 0l16 106h80l-16 -100l-66 -152h-38l56 146h-32zM31 0l16 106h80l-16 -100l-66 -152h-38l56 146h-32z" />
    <glyph glyph-name="quotedblright" unicode="&#x201d;" horiz-adv-x="403" 
d="M279 436l56 146h-32l16 106h80l-16 -100l-66 -152h-38zM107 436l56 146h-32l16 106h80l-16 -100l-66 -152h-38z" />
    <glyph glyph-name="guillemotright" unicode="&#xbb;" horiz-adv-x="505" 
d="M212 48l163 210l-94 198h56l112 -204l-180 -204h-57zM18 48l164 210l-95 198h56l112 -204l-180 -204h-57z" />
    <glyph glyph-name="ellipsis" unicode="&#x2026;" horiz-adv-x="719" 
d="M511 0l19 112h86l-20 -112h-85zM273 0l19 112h86l-19 -112h-86zM35 0l19 112h86l-20 -112h-85z" />
    <glyph glyph-name="perthousand" unicode="&#x2030;" horiz-adv-x="1116" 
d="M187 336c-82 0 -120 55 -120 131c0 16 2 34 5 51c17 99 75 178 173 178c82 0 119 -55 119 -131c0 -17 -1 -34 -4 -51c-18 -99 -75 -178 -173 -178zM543 -8c-82 0 -120 55 -120 131c0 16 2 34 5 51c17 99 75 178 173 178c82 0 119 -55 119 -131c0 -17 -1 -34 -4 -51
c-18 -99 -75 -178 -173 -178zM895 -8c-82 0 -120 55 -120 131c0 16 2 34 5 51c17 99 75 178 173 178c82 0 119 -55 119 -131c0 -17 -1 -34 -4 -51c-18 -99 -75 -178 -173 -178zM135 -12l470 712h53l-470 -712h-53zM901 39c55 0 93 49 108 131c3 17 4 33 4 48
c0 54 -21 87 -67 87c-55 0 -93 -49 -107 -131c-3 -17 -5 -34 -5 -49c0 -54 23 -86 67 -86zM549 39c55 0 93 49 108 131c3 17 4 33 4 48c0 54 -21 87 -67 87c-55 0 -93 -49 -107 -131c-3 -17 -5 -34 -5 -49c0 -54 23 -86 67 -86zM193 383c55 0 93 49 108 131c3 17 4 33 4 48
c0 54 -21 87 -66 87c-56 0 -94 -49 -108 -131c-3 -17 -5 -34 -5 -49c0 -54 23 -86 67 -86z" />
    <glyph glyph-name="questiondown" unicode="&#xbf;" horiz-adv-x="485" 
d="M223 386l15 102h79l-15 -102h-79zM-13 -59c0 180 205 170 228 323l4 28h68l-4 -28c-28 -189 -226 -171 -226 -317c0 -57 48 -99 115 -99c91 0 150 53 166 147h64c-13 -119 -99 -206 -236 -206c-102 0 -179 57 -179 152z" />
    <glyph glyph-name="grave" unicode="`" horiz-adv-x="550" 
d="M307 568l-108 164h74l78 -164h-44z" />
    <glyph glyph-name="acute" unicode="&#xb4;" horiz-adv-x="550" 
d="M303 568l134 164h81l-165 -164h-50z" />
    <glyph glyph-name="circumflex" unicode="&#x2c6;" horiz-adv-x="550" 
d="M168 568l157 164h62l99 -164h-65l-72 121l-113 -121h-68z" />
    <glyph glyph-name="tilde" unicode="&#x2dc;" horiz-adv-x="550" 
d="M180 600c13 54 46 99 102 99s89 -51 126 -51c31 0 47 24 55 52h41c-12 -53 -46 -99 -102 -99s-89 51 -126 51c-30 0 -46 -24 -55 -52h-41z" />
    <glyph glyph-name="macron" unicode="&#xaf;" horiz-adv-x="550" 
d="M197 623l10 53h276l-10 -53h-276z" />
    <glyph glyph-name="breve" unicode="&#x2d8;" horiz-adv-x="550" 
d="M331 584c-65 0 -122 34 -116 134h44c-1 -58 24 -90 75 -90c54 0 90 32 112 90h44c-29 -100 -94 -134 -159 -134z" />
    <glyph glyph-name="dotaccent" unicode="&#x2d9;" horiz-adv-x="550" 
d="M301 605l15 90h68l-15 -90h-68z" />
    <glyph glyph-name="dieresis" unicode="&#xa8;" horiz-adv-x="550" 
d="M400 605l16 90h67l-15 -90h-68zM203 605l15 90h68l-15 -90h-68z" />
    <glyph glyph-name="ring" unicode="&#x2da;" horiz-adv-x="550" 
d="M330 565c-48 0 -85 30 -85 78c0 67 54 108 109 108c48 0 85 -31 85 -78c0 -67 -54 -108 -109 -108zM332 600c37 0 67 29 67 71c0 28 -19 45 -47 45c-38 0 -68 -29 -68 -71c0 -27 19 -45 48 -45z" />
    <glyph glyph-name="cedilla" unicode="&#xb8;" horiz-adv-x="550" 
d="M175 -78l43 78h26l-14 -40c53 -3 79 -32 79 -70c0 -63 -47 -106 -127 -106h-53l9 44h47c42 0 69 21 69 56c0 25 -20 38 -54 38h-25z" />
    <glyph glyph-name="hungarumlaut" unicode="&#x2dd;" horiz-adv-x="550" 
d="M389 568l134 164h80l-164 -164h-50zM212 568l134 164h80l-164 -164h-50z" />
    <glyph glyph-name="ogonek" unicode="&#x2db;" horiz-adv-x="550" 
d="M127 -144c0 59 52 106 99 144h39c-59 -53 -82 -97 -82 -130c0 -24 14 -39 52 -39h31l-10 -47h-39c-61 0 -90 30 -90 72z" />
    <glyph glyph-name="caron" unicode="&#x2c7;" horiz-adv-x="550" 
d="M298 568l-101 164h65l72 -121l113 121h68l-157 -164h-60z" />
    <glyph glyph-name="emdash" unicode="&#x2014;" horiz-adv-x="840" 
d="M54 222l9 61h719l-9 -61h-719z" />
    <glyph glyph-name="AE" unicode="&#xc6;" horiz-adv-x="1048" 
d="M-33 0l617 688h480l-9 -62h-387l-41 -245h308l-9 -61h-309l-44 -258h392l-9 -62h-464l27 163h-323l-146 -163h-83zM592 606l-341 -381h279l64 381h-2z" />
    <glyph glyph-name="ordfeminine" unicode="&#xaa;" horiz-adv-x="421" 
d="M319 344l10 60h-4c-29 -45 -73 -67 -125 -67c-75 0 -131 54 -131 141c0 138 93 217 184 217c54 0 97 -28 110 -73v1h2l11 65h61l-59 -344h-59zM218 387c67 0 127 70 127 163c0 60 -34 95 -84 95c-65 0 -127 -67 -127 -164c0 -60 33 -94 84 -94z" />
    <glyph glyph-name="Lslash" unicode="&#x141;" horiz-adv-x="541" 
d="M0 191l-28 46l129 83l62 368h71l-54 -317l161 103l27 -46l-200 -129l-40 -237h350l-9 -62h-422l42 248z" />
    <glyph glyph-name="Oslash" unicode="&#xd8;" horiz-adv-x="754" 
d="M56 277c0 239 172 422 389 422c79 0 145 -27 194 -72l72 73h60l-103 -105c37 -49 58 -113 58 -184c0 -239 -173 -422 -390 -422c-79 0 -146 27 -194 72l-71 -73h-60l103 105c-37 49 -58 112 -58 184zM654 408c0 52 -13 99 -37 136l-426 -434c37 -37 89 -58 154 -58
c171 0 309 158 309 356zM128 280c0 -53 12 -99 36 -136l426 433c-37 37 -89 59 -154 59c-171 0 -308 -158 -308 -356z" />
    <glyph glyph-name="OE" unicode="&#x152;" horiz-adv-x="1034" 
d="M55 280c0 240 163 408 428 408h567l-9 -62h-387l-41 -245h308l-9 -61h-309l-44 -258h392l-9 -62h-577c-202 0 -310 121 -310 280zM129 289c0 -128 73 -227 245 -227h114l95 564h-109c-216 0 -345 -143 -345 -337z" />
    <glyph glyph-name="ordmasculine" unicode="&#xba;" horiz-adv-x="409" 
d="M216 337c-90 0 -146 55 -146 141c0 132 94 217 202 217c90 0 146 -55 146 -141c0 -132 -94 -217 -202 -217zM222 387c71 0 131 69 131 164c0 58 -30 94 -87 94c-71 0 -131 -69 -131 -164c0 -58 30 -94 87 -94z" />
    <glyph glyph-name="ae" unicode="&#xe6;" horiz-adv-x="845" 
d="M81 336c21 99 94 163 211 163c76 0 132 -28 154 -85c45 54 110 85 182 85c139 0 211 -110 176 -260h-362c-2 -13 -2 -26 -2 -40c0 -92 48 -151 132 -151c66 0 118 39 145 100h68c-36 -98 -112 -159 -225 -159c-91 0 -148 47 -172 121c-45 -83 -114 -121 -212 -121
c-94 0 -147 53 -147 128c0 100 74 142 172 154l107 13c51 7 77 17 80 43c9 69 -22 116 -101 116c-75 0 -124 -38 -141 -107h-65zM187 45c87 0 161 49 180 162l10 57c-11 -17 -31 -22 -60 -26l-107 -14c-71 -9 -113 -41 -113 -101c0 -45 33 -78 90 -78zM622 440
c-79 0 -145 -58 -170 -150h288c1 9 1 18 1 27c-1 83 -48 123 -119 123z" />
    <glyph glyph-name="dotlessi" unicode="&#x131;" horiz-adv-x="228" 
d="M36 0l84 488h67l-83 -488h-68z" />
    <glyph glyph-name="lslash" unicode="&#x142;" horiz-adv-x="228" 
d="M9 226l-25 37l112 94l64 375h68l-52 -308l74 63l25 -37l-111 -93l-60 -357h-68l49 290z" />
    <glyph glyph-name="oslash" unicode="&#xf8;" horiz-adv-x="550" 
d="M35 193c0 21 2 41 5 61c24 147 134 245 269 245c57 0 104 -18 138 -49l49 50h51l-76 -78c23 -34 36 -77 36 -127c0 -21 -2 -41 -5 -61c-24 -147 -134 -245 -269 -245c-57 0 -104 17 -138 48l-48 -49h-51l75 77c-23 34 -36 77 -36 128zM106 199c0 -32 5 -59 16 -82
l277 283c-23 26 -56 40 -97 40c-90 0 -171 -76 -191 -186c-4 -17 -5 -36 -5 -55zM436 289c0 31 -6 58 -17 80l-276 -283c23 -25 56 -38 97 -38c90 0 171 76 191 186c4 17 5 36 5 55z" />
    <glyph glyph-name="oe" unicode="&#x153;" horiz-adv-x="911" 
d="M35 193c0 21 2 41 5 61c24 146 134 245 269 245c89 0 150 -43 177 -114c47 72 121 114 205 114c139 0 213 -110 178 -260h-367c-2 -13 -2 -26 -2 -40c0 -92 51 -151 135 -151c66 0 121 39 148 100h68c-36 -98 -115 -159 -228 -159c-91 0 -150 46 -175 119
c-48 -74 -124 -119 -215 -119c-122 0 -198 81 -198 204zM106 199c0 -92 50 -151 134 -151c91 0 171 76 191 186c4 17 5 36 5 55c0 92 -50 151 -134 151c-91 0 -171 -76 -191 -186c-4 -17 -5 -36 -5 -55zM682 440c-77 0 -144 -59 -170 -150h294c0 8 1 16 1 23
c-1 85 -49 127 -125 127z" />
    <glyph glyph-name="germandbls" unicode="&#xdf;" horiz-adv-x="553" 
d="M36 0l88 511c28 162 120 232 239 232c105 0 158 -54 158 -120c0 -133 -143 -155 -143 -233c0 -68 133 -88 133 -204c0 -130 -105 -186 -216 -186h-85l9 56h79c72 0 142 36 142 121c0 94 -127 97 -127 201c0 120 143 134 143 234c0 41 -28 75 -99 75
c-82 0 -144 -50 -165 -176l-88 -511h-68z" />
    <glyph glyph-name="onesuperior" unicode="&#xe105;" 
d="M150 716l-19 43l148 81h38l-49 -294h96l-6 -50h-263l6 50h108l37 220z" />
    <glyph glyph-name="logicalnot" unicode="&#xac;" horiz-adv-x="568" 
d="M52 224l11 59h452l-44 -255h-62l34 196h-391z" />
    <glyph glyph-name="mu" unicode="&#xb5;" horiz-adv-x="561" 
d="M372 0l15 81h-5c-38 -63 -91 -92 -164 -92c-54 0 -93 16 -115 50c-3 -46 -15 -133 -23 -177l-14 -82h-68l121 708h68l-49 -290c-18 -106 22 -150 99 -150s149 62 171 185l45 255h68l-84 -488h-65z" />
    <glyph glyph-name="trademark" unicode="&#x2122;" horiz-adv-x="784" 
d="M366 344l59 344h78l69 -269h4l162 269h78l-59 -344h-56l49 268h-3l-162 -268h-47l-69 268h-3l-43 -268h-57zM70 641l8 47h299l-8 -47h-120l-51 -297h-56l51 297h-123z" />
    <glyph glyph-name="Eth" unicode="&#xd0;" horiz-adv-x="696" 
d="M13 316l10 59h87l53 313h193c205 0 313 -121 313 -283c0 -237 -163 -405 -431 -405h-191l53 316h-87zM350 626h-127l-42 -251h161l-9 -59h-162l-43 -254h122c216 0 345 143 345 337c0 128 -73 227 -245 227z" />
    <glyph glyph-name="onehalf" unicode="&#xbd;" horiz-adv-x="764" 
d="M406 0c17 97 76 132 137 162l30 14c48 24 86 41 86 79c0 28 -24 49 -67 49c-45 0 -80 -25 -92 -76h-52c17 89 80 123 149 123c71 0 118 -35 118 -90c0 -74 -64 -97 -123 -126l-31 -15c-40 -19 -75 -43 -80 -70h204l-6 -50h-273zM144 -12c116 177 352 535 470 712h53
l-470 -712h-53zM122 564l-19 43l148 81h38l-49 -294h96l-6 -50h-263l6 50h108l37 220z" />
    <glyph glyph-name="plusminus" unicode="&#xb1;" horiz-adv-x="568" 
d="M64 305l9 59h196l30 181h62l-30 -181h195l-9 -59h-196l-29 -180h-62l29 180h-195zM9 0l9 59h454l-9 -59h-454z" />
    <glyph glyph-name="Thorn" unicode="&#xde;" horiz-adv-x="626" 
d="M47 0l116 688h71l-19 -115h185c135 0 204 -79 204 -182c0 -153 -111 -256 -278 -256h-185l-23 -135h-71zM394 511h-190l-53 -314h184c122 0 195 82 195 188c0 71 -46 126 -136 126z" />
    <glyph glyph-name="onequarter" unicode="&#xbc;" horiz-adv-x="764" 
d="M408 73l6 38l230 234h50l-37 -225h52l-8 -47h-52l-12 -73h-59l12 73h-182zM155 -12l470 712h53l-470 -712h-53zM122 564l-19 43l148 81h38l-49 -294h96l-6 -50h-263l6 50h108l37 220zM479 120h119l25 147z" />
    <glyph glyph-name="divide" unicode="&#xf7;" horiz-adv-x="568" 
d="M267 380l16 98h74l-16 -98h-74zM51 224l9 59h453l-9 -59h-453zM207 27l16 98h74l-16 -98h-74z" />
    <glyph glyph-name="brokenbar" unicode="&#xa6;" horiz-adv-x="256" 
d="M109 336l60 352h62l-60 -352h-62zM25 -164l60 352h62l-60 -352h-62z" />
    <glyph glyph-name="degree" unicode="&#xb0;" horiz-adv-x="356" 
d="M212 428c-73 0 -121 51 -121 115c0 89 70 156 156 156c72 0 121 -50 121 -115c0 -89 -70 -156 -156 -156zM215 478c53 0 97 42 97 100c0 40 -26 71 -68 71c-53 0 -97 -43 -97 -100c0 -40 26 -71 68 -71z" />
    <glyph glyph-name="thorn" unicode="&#xfe;" horiz-adv-x="576" 
d="M86 -101l-20 -119h-68l162 952h68l-24 -139c-4 -23 -23 -132 -34 -178h3c42 55 107 84 172 84c115 0 189 -81 189 -204c0 -181 -116 -306 -256 -306c-79 0 -141 40 -160 98h-2c-4 -39 -23 -148 -30 -188zM144 199c0 -92 49 -151 132 -151c116 0 187 120 187 241
c0 92 -50 151 -133 151c-116 0 -186 -120 -186 -241z" />
    <glyph glyph-name="threequarters" unicode="&#xbe;" horiz-adv-x="764" 
d="M408 73l6 38l230 234h50l-37 -225h52l-8 -47h-52l-12 -73h-59l12 73h-182zM64 446h56c-7 -51 32 -65 75 -65c49 0 93 22 93 70c0 34 -32 51 -75 51h-28l6 41h28c47 0 85 21 85 62c0 30 -28 46 -68 46c-44 0 -77 -19 -82 -62h-53c5 66 61 107 140 107
c75 0 122 -36 122 -85c0 -44 -32 -77 -76 -87v-3c37 -8 60 -34 60 -70c0 -73 -64 -115 -158 -115c-71 0 -139 30 -125 110zM147 -12c116 177 352 535 470 712h53l-470 -712h-53zM479 120h119l25 147z" />
    <glyph glyph-name="twosuperior" unicode="&#xe107;" 
d="M78 496c17 97 76 132 137 162l30 14c48 24 86 41 86 79c0 28 -24 49 -67 49c-45 0 -80 -25 -91 -76h-53c17 89 80 123 149 123c71 0 118 -35 118 -90c0 -74 -64 -97 -123 -126l-31 -15c-40 -19 -75 -43 -80 -70h204l-6 -50h-273z" />
    <glyph glyph-name="registered" unicode="&#xae;" horiz-adv-x="775" 
d="M53 348c0 200 147 351 350 351c199 0 350 -151 350 -351s-147 -359 -350 -359s-350 159 -350 359zM109 348c0 -171 120 -312 294 -312c171 0 294 141 294 312s-121 301 -294 301c-174 0 -294 -130 -294 -301zM268 176v344h157c80 0 123 -41 123 -105
c0 -49 -33 -89 -81 -103l90 -136h-61l-83 130h-89v-130h-56zM423 473h-99v-119h99c46 0 69 25 69 61s-24 58 -69 58z" />
    <glyph glyph-name="minus" unicode="&#x2212;" horiz-adv-x="568" 
d="M51 224l9 59h454l-9 -59h-454z" />
    <glyph glyph-name="eth" unicode="&#xf0;" horiz-adv-x="560" 
d="M260 533l-25 38l97 66c-34 22 -77 41 -126 57l25 50c61 -19 113 -42 155 -71l99 67l25 -37l-86 -59c66 -60 101 -142 101 -256c0 -61 -8 -120 -25 -184c-35 -128 -130 -215 -269 -215c-122 0 -197 83 -197 196c0 161 124 282 270 282c61 0 125 -28 149 -84h3
c3 101 -25 172 -85 225zM105 188c0 -85 51 -140 135 -140c113 0 199 108 199 220c0 86 -55 140 -138 140c-114 0 -196 -109 -196 -220z" />
    <glyph glyph-name="multiply" unicode="&#xd7;" horiz-adv-x="568" 
d="M86 48l-36 43l191 165l-132 162l47 41l132 -163l189 163l36 -43l-189 -163l133 -162l-47 -41l-133 163z" />
    <glyph glyph-name="threesuperior" unicode="&#xe108;" 
d="M92 598h56c-7 -51 32 -65 75 -65c49 0 93 22 93 70c0 34 -32 51 -75 51h-28l6 41h28c47 0 85 21 85 62c0 30 -28 46 -68 46c-44 0 -77 -19 -82 -62h-53c5 66 61 107 140 107c75 0 122 -36 122 -85c0 -44 -32 -77 -76 -87v-3c37 -8 60 -34 60 -70
c0 -73 -64 -115 -158 -115c-71 0 -139 30 -125 110z" />
    <glyph glyph-name="copyright" unicode="&#xa9;" horiz-adv-x="775" 
d="M53 348c0 200 147 351 350 351c199 0 350 -151 350 -351s-147 -359 -350 -359s-350 159 -350 359zM109 348c0 -171 120 -312 294 -312c171 0 294 141 294 312s-121 301 -294 301c-174 0 -294 -130 -294 -301zM234 348c0 97 66 176 169 176c82 0 135 -47 148 -115h-54
c-11 40 -40 68 -94 68c-68 0 -113 -59 -113 -129s45 -129 113 -129c54 0 83 28 94 68h54c-13 -68 -66 -115 -148 -115c-103 0 -169 79 -169 176z" />
    <glyph glyph-name="Aacute" unicode="&#xc1;" horiz-adv-x="631" 
d="M-29 0l372 688h86l143 -688h-74l-39 198h-309l-106 -198h-73zM377 614h-3l-191 -355h264zM374 768l134 164h81l-165 -164h-50z" />
    <glyph glyph-name="Acircumflex" unicode="&#xc2;" horiz-adv-x="631" 
d="M-29 0l372 688h86l143 -688h-74l-39 198h-309l-106 -198h-73zM377 614h-3l-191 -355h264zM239 768l157 164h62l99 -164h-65l-72 121l-113 -121h-68z" />
    <glyph glyph-name="Adieresis" unicode="&#xc4;" horiz-adv-x="631" 
d="M-29 0l372 688h86l143 -688h-74l-39 198h-309l-106 -198h-73zM377 614h-3l-191 -355h264zM471 805l16 90h67l-15 -90h-68zM274 805l15 90h68l-15 -90h-68z" />
    <glyph glyph-name="Agrave" unicode="&#xc0;" horiz-adv-x="631" 
d="M-29 0l372 688h86l143 -688h-74l-39 198h-309l-106 -198h-73zM377 614h-3l-191 -355h264zM378 768l-108 164h74l78 -164h-44z" />
    <glyph glyph-name="Aring" unicode="&#xc5;" horiz-adv-x="631" 
d="M-29 0l372 688h86l143 -688h-74l-39 198h-309l-106 -198h-73zM377 614h-3l-191 -355h264zM401 765c-48 0 -85 30 -85 78c0 67 54 108 109 108c48 0 85 -31 85 -78c0 -67 -54 -108 -109 -108zM403 800c37 0 67 29 67 71c0 28 -19 45 -47 45c-38 0 -68 -29 -68 -71
c0 -27 19 -45 48 -45z" />
    <glyph glyph-name="Atilde" unicode="&#xc3;" horiz-adv-x="631" 
d="M-29 0l372 688h86l143 -688h-74l-39 198h-309l-106 -198h-73zM377 614h-3l-191 -355h264zM251 800c13 54 46 99 102 99s89 -51 126 -51c31 0 47 24 55 52h41c-12 -53 -46 -99 -102 -99s-89 51 -126 51c-30 0 -46 -24 -55 -52h-41z" />
    <glyph glyph-name="Ccedilla" unicode="&#xc7;" horiz-adv-x="708" 
d="M277 -78l37 68c-162 8 -259 127 -259 282c0 240 159 427 380 427c155 0 254 -88 264 -223h-72c-18 100 -82 160 -201 160c-173 0 -298 -166 -298 -355c0 -132 78 -229 215 -229c119 0 190 60 240 160h72c-50 -133 -153 -220 -313 -223l-10 -29c53 -3 79 -32 79 -70
c0 -63 -47 -106 -127 -106h-53l9 44h47c42 0 69 21 69 56c0 25 -20 38 -54 38h-25z" />
    <glyph glyph-name="Eacute" unicode="&#xc9;" horiz-adv-x="606" 
d="M47 0l116 688h459l-9 -62h-390l-41 -245h311l-9 -61h-312l-44 -258h395l-9 -62h-467zM379 768l134 164h81l-165 -164h-50z" />
    <glyph glyph-name="Ecircumflex" unicode="&#xca;" horiz-adv-x="606" 
d="M47 0l116 688h459l-9 -62h-390l-41 -245h311l-9 -61h-312l-44 -258h395l-9 -62h-467zM244 768l157 164h62l99 -164h-65l-72 121l-113 -121h-68z" />
    <glyph glyph-name="Edieresis" unicode="&#xcb;" horiz-adv-x="606" 
d="M47 0l116 688h459l-9 -62h-390l-41 -245h311l-9 -61h-312l-44 -258h395l-9 -62h-467zM476 805l16 90h67l-15 -90h-68zM279 805l15 90h68l-15 -90h-68z" />
    <glyph glyph-name="Egrave" unicode="&#xc8;" horiz-adv-x="606" 
d="M47 0l116 688h459l-9 -62h-390l-41 -245h311l-9 -61h-312l-44 -258h395l-9 -62h-467zM383 768l-108 164h74l78 -164h-44z" />
    <glyph glyph-name="Iacute" unicode="&#xcd;" horiz-adv-x="253" 
d="M47 0l116 688h71l-116 -688h-71zM185 768l134 164h81l-165 -164h-50z" />
    <glyph glyph-name="Icircumflex" unicode="&#xce;" horiz-adv-x="253" 
d="M47 0l116 688h71l-116 -688h-71zM50 768l157 164h62l99 -164h-65l-72 121l-113 -121h-68z" />
    <glyph glyph-name="Idieresis" unicode="&#xcf;" horiz-adv-x="253" 
d="M47 0l116 688h71l-116 -688h-71zM282 805l16 90h67l-15 -90h-68zM85 805l15 90h68l-15 -90h-68z" />
    <glyph glyph-name="Igrave" unicode="&#xcc;" horiz-adv-x="253" 
d="M47 0l116 688h71l-116 -688h-71zM189 768l-108 164h74l78 -164h-44z" />
    <glyph glyph-name="Ntilde" unicode="&#xd1;" horiz-adv-x="723" 
d="M47 0l116 688h64l308 -568h3l95 568h71l-116 -688h-65l-308 568h-2l-95 -568h-71zM299 800c13 54 46 99 102 99s89 -51 126 -51c31 0 47 24 55 52h41c-12 -53 -46 -99 -102 -99s-89 51 -126 51c-30 0 -46 -24 -55 -52h-41z" />
    <glyph glyph-name="Oacute" unicode="&#xd3;" horiz-adv-x="754" 
d="M56 277c0 239 172 422 389 422c170 0 282 -123 282 -288c0 -239 -173 -422 -391 -422c-169 0 -280 123 -280 288zM129 280c0 -134 81 -228 217 -228c170 0 309 158 309 356c0 134 -83 228 -219 228c-171 0 -307 -158 -307 -356zM435 768l134 164h81l-165 -164h-50z" />
    <glyph glyph-name="Ocircumflex" unicode="&#xd4;" horiz-adv-x="754" 
d="M56 277c0 239 172 422 389 422c170 0 282 -123 282 -288c0 -239 -173 -422 -391 -422c-169 0 -280 123 -280 288zM129 280c0 -134 81 -228 217 -228c170 0 309 158 309 356c0 134 -83 228 -219 228c-171 0 -307 -158 -307 -356zM300 768l157 164h62l99 -164h-65l-72 121
l-113 -121h-68z" />
    <glyph glyph-name="Odieresis" unicode="&#xd6;" horiz-adv-x="754" 
d="M56 277c0 239 172 422 389 422c170 0 282 -123 282 -288c0 -239 -173 -422 -391 -422c-169 0 -280 123 -280 288zM129 280c0 -134 81 -228 217 -228c170 0 309 158 309 356c0 134 -83 228 -219 228c-171 0 -307 -158 -307 -356zM532 805l16 90h67l-15 -90h-68zM335 805
l15 90h68l-15 -90h-68z" />
    <glyph glyph-name="Ograve" unicode="&#xd2;" horiz-adv-x="754" 
d="M56 277c0 239 172 422 389 422c170 0 282 -123 282 -288c0 -239 -173 -422 -391 -422c-169 0 -280 123 -280 288zM129 280c0 -134 81 -228 217 -228c170 0 309 158 309 356c0 134 -83 228 -219 228c-171 0 -307 -158 -307 -356zM439 768l-108 164h74l78 -164h-44z" />
    <glyph glyph-name="Otilde" unicode="&#xd5;" horiz-adv-x="754" 
d="M56 277c0 239 172 422 389 422c170 0 282 -123 282 -288c0 -239 -173 -422 -391 -422c-169 0 -280 123 -280 288zM129 280c0 -134 81 -228 217 -228c170 0 309 158 309 356c0 134 -83 228 -219 228c-171 0 -307 -158 -307 -356zM312 800c13 54 46 99 102 99
s89 -51 126 -51c31 0 47 24 55 52h41c-12 -53 -46 -99 -102 -99s-89 51 -126 51c-30 0 -46 -24 -55 -52h-41z" />
    <glyph glyph-name="Scaron" unicode="&#x160;" horiz-adv-x="638" 
d="M48 192h67c-16 -91 48 -144 174 -144c123 0 202 52 202 143c0 190 -375 60 -375 309c0 119 103 199 270 199c147 0 239 -69 219 -190h-67c13 85 -53 131 -160 131c-112 0 -190 -49 -190 -131c0 -188 377 -58 377 -309c0 -134 -110 -211 -281 -211
c-172 0 -260 83 -236 203zM364 768l-101 164h65l72 -121l113 121h68l-157 -164h-60z" />
    <glyph glyph-name="Uacute" unicode="&#xda;" horiz-adv-x="690" 
d="M77 271l72 417h71l-72 -417c-24 -140 24 -217 158 -217c128 0 212 77 236 217l72 417h71l-72 -417c-34 -200 -155 -282 -313 -282s-257 85 -223 282zM405 768l134 164h81l-165 -164h-50z" />
    <glyph glyph-name="Ucircumflex" unicode="&#xdb;" horiz-adv-x="690" 
d="M77 271l72 417h71l-72 -417c-24 -140 24 -217 158 -217c128 0 212 77 236 217l72 417h71l-72 -417c-34 -200 -155 -282 -313 -282s-257 85 -223 282zM270 768l157 164h62l99 -164h-65l-72 121l-113 -121h-68z" />
    <glyph glyph-name="Udieresis" unicode="&#xdc;" horiz-adv-x="690" 
d="M77 271l72 417h71l-72 -417c-24 -140 24 -217 158 -217c128 0 212 77 236 217l72 417h71l-72 -417c-34 -200 -155 -282 -313 -282s-257 85 -223 282zM502 805l16 90h67l-15 -90h-68zM305 805l15 90h68l-15 -90h-68z" />
    <glyph glyph-name="Ugrave" unicode="&#xd9;" horiz-adv-x="690" 
d="M77 271l72 417h71l-72 -417c-24 -140 24 -217 158 -217c128 0 212 77 236 217l72 417h71l-72 -417c-34 -200 -155 -282 -313 -282s-257 85 -223 282zM409 768l-108 164h74l78 -164h-44z" />
    <glyph glyph-name="Yacute" unicode="&#xdd;" horiz-adv-x="594" 
d="M213 0l51 286l-173 402h74l145 -341h3l265 341h75l-319 -407l-50 -281h-71zM360 768l134 164h81l-165 -164h-50z" />
    <glyph glyph-name="Ydieresis" unicode="&#x178;" horiz-adv-x="594" 
d="M213 0l51 286l-173 402h74l145 -341h3l265 341h75l-319 -407l-50 -281h-71zM457 805l16 90h67l-15 -90h-68zM260 805l15 90h68l-15 -90h-68z" />
    <glyph glyph-name="Zcaron" unicode="&#x17d;" horiz-adv-x="575" 
d="M117 628l12 60h478l-6 -46l-509 -582h407l-12 -60h-494l6 46l509 582h-391zM350 768l-101 164h65l72 -121l113 121h68l-157 -164h-60z" />
    <glyph glyph-name="aacute" unicode="&#xe1;" horiz-adv-x="517" 
d="M29 117c0 100 74 142 172 154l107 13c51 7 76 18 80 43c9 69 -24 116 -103 116c-76 0 -123 -38 -139 -107h-65c20 99 92 163 210 163c114 0 184 -61 161 -196l-52 -303h-65l13 81h-2c-34 -60 -93 -92 -170 -92c-93 0 -147 53 -147 128zM97 123c0 -47 33 -78 90 -78
c84 0 160 46 180 163l10 58c-11 -16 -31 -24 -60 -28l-107 -14c-71 -9 -113 -41 -113 -101zM277 568l134 164h81l-165 -164h-50z" />
    <glyph glyph-name="acircumflex" unicode="&#xe2;" horiz-adv-x="517" 
d="M29 117c0 100 74 142 172 154l107 13c51 7 76 18 80 43c9 69 -24 116 -103 116c-76 0 -123 -38 -139 -107h-65c20 99 92 163 210 163c114 0 184 -61 161 -196l-52 -303h-65l13 81h-2c-34 -60 -93 -92 -170 -92c-93 0 -147 53 -147 128zM97 123c0 -47 33 -78 90 -78
c84 0 160 46 180 163l10 58c-11 -16 -31 -24 -60 -28l-107 -14c-71 -9 -113 -41 -113 -101zM142 568l157 164h62l99 -164h-65l-72 121l-113 -121h-68z" />
    <glyph glyph-name="adieresis" unicode="&#xe4;" horiz-adv-x="517" 
d="M29 117c0 100 74 142 172 154l107 13c51 7 76 18 80 43c9 69 -24 116 -103 116c-76 0 -123 -38 -139 -107h-65c20 99 92 163 210 163c114 0 184 -61 161 -196l-52 -303h-65l13 81h-2c-34 -60 -93 -92 -170 -92c-93 0 -147 53 -147 128zM97 123c0 -47 33 -78 90 -78
c84 0 160 46 180 163l10 58c-11 -16 -31 -24 -60 -28l-107 -14c-71 -9 -113 -41 -113 -101zM374 605l16 90h67l-15 -90h-68zM177 605l15 90h68l-15 -90h-68z" />
    <glyph glyph-name="agrave" unicode="&#xe0;" horiz-adv-x="517" 
d="M29 117c0 100 74 142 172 154l107 13c51 7 76 18 80 43c9 69 -24 116 -103 116c-76 0 -123 -38 -139 -107h-65c20 99 92 163 210 163c114 0 184 -61 161 -196l-52 -303h-65l13 81h-2c-34 -60 -93 -92 -170 -92c-93 0 -147 53 -147 128zM97 123c0 -47 33 -78 90 -78
c84 0 160 46 180 163l10 58c-11 -16 -31 -24 -60 -28l-107 -14c-71 -9 -113 -41 -113 -101zM289 568l-108 164h74l78 -164h-44z" />
    <glyph glyph-name="aring" unicode="&#xe5;" horiz-adv-x="517" 
d="M29 117c0 100 74 142 172 154l107 13c51 7 76 18 80 43c9 69 -24 116 -103 116c-76 0 -123 -38 -139 -107h-65c20 99 92 163 210 163c114 0 184 -61 161 -196l-52 -303h-65l13 81h-2c-34 -60 -93 -92 -170 -92c-93 0 -147 53 -147 128zM97 123c0 -47 33 -78 90 -78
c84 0 160 46 180 163l10 58c-11 -16 -31 -24 -60 -28l-107 -14c-71 -9 -113 -41 -113 -101zM304 565c-48 0 -85 30 -85 78c0 67 54 108 109 108c48 0 85 -31 85 -78c0 -67 -54 -108 -109 -108zM306 600c37 0 67 29 67 71c0 28 -19 45 -47 45c-38 0 -68 -29 -68 -71
c0 -27 19 -45 48 -45z" />
    <glyph glyph-name="atilde" unicode="&#xe3;" horiz-adv-x="517" 
d="M29 117c0 100 74 142 172 154l107 13c51 7 76 18 80 43c9 69 -24 116 -103 116c-76 0 -123 -38 -139 -107h-65c20 99 92 163 210 163c114 0 184 -61 161 -196l-52 -303h-65l13 81h-2c-34 -60 -93 -92 -170 -92c-93 0 -147 53 -147 128zM97 123c0 -47 33 -78 90 -78
c84 0 160 46 180 163l10 58c-11 -16 -31 -24 -60 -28l-107 -14c-71 -9 -113 -41 -113 -101zM154 600c13 54 46 99 102 99s89 -51 126 -51c31 0 47 24 55 52h41c-12 -53 -46 -99 -102 -99s-89 51 -126 51c-30 0 -46 -24 -55 -52h-41z" />
    <glyph glyph-name="ccedilla" unicode="&#xe7;" horiz-adv-x="509" 
d="M170 -78l37 68c-113 9 -172 97 -172 206c0 26 3 50 8 75c26 124 115 228 258 228c100 0 179 -58 182 -172h-68c-4 66 -48 113 -123 113c-89 0 -156 -69 -178 -169c-5 -22 -8 -47 -8 -72c0 -91 49 -151 134 -151c70 0 122 50 149 113h68c-32 -99 -108 -169 -222 -172
l-10 -29c53 -3 79 -32 79 -70c0 -63 -47 -106 -127 -106h-53l9 44h47c42 0 69 21 69 56c0 25 -20 38 -54 38h-25z" />
    <glyph glyph-name="eacute" unicode="&#xe9;" horiz-adv-x="517" 
d="M35 199c0 26 3 50 8 74c27 138 132 226 254 226c139 0 214 -110 178 -260h-367c-2 -13 -2 -27 -2 -40c0 -92 51 -151 135 -151c66 0 121 39 148 100h68c-36 -98 -115 -159 -228 -159c-121 0 -194 87 -194 210zM292 440c-80 0 -147 -59 -174 -150h294c0 8 1 16 1 23
c-1 85 -49 127 -121 127zM286 568l134 164h81l-165 -164h-50z" />
    <glyph glyph-name="ecircumflex" unicode="&#xea;" horiz-adv-x="517" 
d="M35 199c0 26 3 50 8 74c27 138 132 226 254 226c139 0 214 -110 178 -260h-367c-2 -13 -2 -27 -2 -40c0 -92 51 -151 135 -151c66 0 121 39 148 100h68c-36 -98 -115 -159 -228 -159c-121 0 -194 87 -194 210zM292 440c-80 0 -147 -59 -174 -150h294c0 8 1 16 1 23
c-1 85 -49 127 -121 127zM151 568l157 164h62l99 -164h-65l-72 121l-113 -121h-68z" />
    <glyph glyph-name="edieresis" unicode="&#xeb;" horiz-adv-x="517" 
d="M35 199c0 26 3 50 8 74c27 138 132 226 254 226c139 0 214 -110 178 -260h-367c-2 -13 -2 -27 -2 -40c0 -92 51 -151 135 -151c66 0 121 39 148 100h68c-36 -98 -115 -159 -228 -159c-121 0 -194 87 -194 210zM292 440c-80 0 -147 -59 -174 -150h294c0 8 1 16 1 23
c-1 85 -49 127 -121 127zM383 605l16 90h67l-15 -90h-68zM186 605l15 90h68l-15 -90h-68z" />
    <glyph glyph-name="egrave" unicode="&#xe8;" horiz-adv-x="517" 
d="M35 199c0 26 3 50 8 74c27 138 132 226 254 226c139 0 214 -110 178 -260h-367c-2 -13 -2 -27 -2 -40c0 -92 51 -151 135 -151c66 0 121 39 148 100h68c-36 -98 -115 -159 -228 -159c-121 0 -194 87 -194 210zM292 440c-80 0 -147 -59 -174 -150h294c0 8 1 16 1 23
c-1 85 -49 127 -121 127zM290 568l-108 164h74l78 -164h-44z" />
    <glyph glyph-name="iacute" unicode="&#xed;" horiz-adv-x="228" 
d="M36 0l84 488h67l-83 -488h-68zM142 568l134 164h81l-165 -164h-50z" />
    <glyph glyph-name="icircumflex" unicode="&#xee;" horiz-adv-x="228" 
d="M36 0l84 488h67l-83 -488h-68zM7 568l157 164h62l99 -164h-65l-72 121l-113 -121h-68z" />
    <glyph glyph-name="idieresis" unicode="&#xef;" horiz-adv-x="228" 
d="M36 0l84 488h67l-83 -488h-68zM239 605l16 90h67l-15 -90h-68zM42 605l15 90h68l-15 -90h-68z" />
    <glyph glyph-name="igrave" unicode="&#xec;" horiz-adv-x="228" 
d="M36 0l84 488h67l-83 -488h-68zM146 568l-108 164h74l78 -164h-44z" />
    <glyph glyph-name="ntilde" unicode="&#xf1;" horiz-adv-x="561" 
d="M36 0l84 488h65l-15 -84h1c39 65 97 95 170 95c100 0 175 -60 151 -202l-51 -297h-68l49 290c18 106 -20 150 -99 150c-78 0 -154 -65 -176 -190l-43 -250h-68zM186 600c13 54 46 99 102 99s89 -51 126 -51c31 0 47 24 55 52h41c-12 -53 -46 -99 -102 -99s-89 51 -126 51
c-30 0 -46 -24 -55 -52h-41z" />
    <glyph glyph-name="oacute" unicode="&#xf3;" horiz-adv-x="550" 
d="M35 196c0 19 2 39 5 58c22 131 118 245 266 245c124 0 201 -83 201 -207c0 -19 -2 -39 -5 -58c-22 -131 -117 -245 -266 -245c-124 0 -201 83 -201 207zM106 199c0 -92 53 -151 136 -151c92 0 169 76 189 186c4 17 5 36 5 55c0 92 -53 151 -136 151
c-92 0 -169 -76 -189 -186c-4 -17 -5 -36 -5 -55zM299 568l134 164h81l-165 -164h-50z" />
    <glyph glyph-name="ocircumflex" unicode="&#xf4;" horiz-adv-x="550" 
d="M35 196c0 19 2 39 5 58c22 131 118 245 266 245c124 0 201 -83 201 -207c0 -19 -2 -39 -5 -58c-22 -131 -117 -245 -266 -245c-124 0 -201 83 -201 207zM106 199c0 -92 53 -151 136 -151c92 0 169 76 189 186c4 17 5 36 5 55c0 92 -53 151 -136 151
c-92 0 -169 -76 -189 -186c-4 -17 -5 -36 -5 -55zM164 568l157 164h62l99 -164h-65l-72 121l-113 -121h-68z" />
    <glyph glyph-name="odieresis" unicode="&#xf6;" horiz-adv-x="550" 
d="M35 196c0 19 2 39 5 58c22 131 118 245 266 245c124 0 201 -83 201 -207c0 -19 -2 -39 -5 -58c-22 -131 -117 -245 -266 -245c-124 0 -201 83 -201 207zM106 199c0 -92 53 -151 136 -151c92 0 169 76 189 186c4 17 5 36 5 55c0 92 -53 151 -136 151
c-92 0 -169 -76 -189 -186c-4 -17 -5 -36 -5 -55zM396 605l16 90h67l-15 -90h-68zM199 605l15 90h68l-15 -90h-68z" />
    <glyph glyph-name="ograve" unicode="&#xf2;" horiz-adv-x="550" 
d="M35 196c0 19 2 39 5 58c22 131 118 245 266 245c124 0 201 -83 201 -207c0 -19 -2 -39 -5 -58c-22 -131 -117 -245 -266 -245c-124 0 -201 83 -201 207zM106 199c0 -92 53 -151 136 -151c92 0 169 76 189 186c4 17 5 36 5 55c0 92 -53 151 -136 151
c-92 0 -169 -76 -189 -186c-4 -17 -5 -36 -5 -55zM303 568l-108 164h74l78 -164h-44z" />
    <glyph glyph-name="otilde" unicode="&#xf5;" horiz-adv-x="550" 
d="M35 196c0 19 2 39 5 58c22 131 118 245 266 245c124 0 201 -83 201 -207c0 -19 -2 -39 -5 -58c-22 -131 -117 -245 -266 -245c-124 0 -201 83 -201 207zM106 199c0 -92 53 -151 136 -151c92 0 169 76 189 186c4 17 5 36 5 55c0 92 -53 151 -136 151
c-92 0 -169 -76 -189 -186c-4 -17 -5 -36 -5 -55zM176 600c13 54 46 99 102 99s89 -51 126 -51c31 0 47 24 55 52h41c-12 -53 -46 -99 -102 -99s-89 51 -126 51c-30 0 -46 -24 -55 -52h-41z" />
    <glyph glyph-name="scaron" unicode="&#x161;" horiz-adv-x="481" 
d="M19 138h65c-12 -71 47 -96 122 -96c92 0 141 34 141 93c0 129 -279 34 -279 216c0 93 81 148 195 148c115 0 194 -43 176 -144h-64c10 61 -37 91 -115 91c-74 0 -127 -31 -127 -89c0 -126 282 -31 282 -216c0 -101 -81 -152 -212 -152c-119 0 -201 49 -184 149zM246 568
l-101 164h65l72 -121l113 121h68l-157 -164h-60z" />
    <glyph glyph-name="uacute" unicode="&#xfa;" horiz-adv-x="553" 
d="M211 -11c-100 0 -175 60 -151 202l51 297h68l-49 -290c-18 -106 20 -150 99 -150c77 0 149 63 169 178l47 262h68l-84 -488h-65l15 83h-3c-38 -65 -96 -94 -165 -94zM300 568l134 164h81l-165 -164h-50z" />
    <glyph glyph-name="ucircumflex" unicode="&#xfb;" horiz-adv-x="553" 
d="M211 -11c-100 0 -175 60 -151 202l51 297h68l-49 -290c-18 -106 20 -150 99 -150c77 0 149 63 169 178l47 262h68l-84 -488h-65l15 83h-3c-38 -65 -96 -94 -165 -94zM165 568l157 164h62l99 -164h-65l-72 121l-113 -121h-68z" />
    <glyph glyph-name="udieresis" unicode="&#xfc;" horiz-adv-x="553" 
d="M211 -11c-100 0 -175 60 -151 202l51 297h68l-49 -290c-18 -106 20 -150 99 -150c77 0 149 63 169 178l47 262h68l-84 -488h-65l15 83h-3c-38 -65 -96 -94 -165 -94zM397 605l16 90h67l-15 -90h-68zM200 605l15 90h68l-15 -90h-68z" />
    <glyph glyph-name="ugrave" unicode="&#xf9;" horiz-adv-x="553" 
d="M211 -11c-100 0 -175 60 -151 202l51 297h68l-49 -290c-18 -106 20 -150 99 -150c77 0 149 63 169 178l47 262h68l-84 -488h-65l15 83h-3c-38 -65 -96 -94 -165 -94zM304 568l-108 164h74l78 -164h-44z" />
    <glyph glyph-name="yacute" unicode="&#xfd;" horiz-adv-x="463" 
d="M-36 -167h27c60 0 101 37 136 104l27 53l-106 498h70l84 -414h3l218 414h69l-308 -571c-42 -80 -97 -143 -193 -143h-39zM259 568l134 164h81l-165 -164h-50z" />
    <glyph glyph-name="ydieresis" unicode="&#xff;" horiz-adv-x="463" 
d="M-36 -167h27c60 0 101 37 136 104l27 53l-106 498h70l84 -414h3l218 414h69l-308 -571c-42 -80 -97 -143 -193 -143h-39zM356 605l16 90h67l-15 -90h-68zM159 605l15 90h68l-15 -90h-68z" />
    <glyph glyph-name="zcaron" unicode="&#x17e;" horiz-adv-x="433" 
d="M63 433l9 55h367l-9 -46l-340 -387h279l-9 -55h-367l6 40l344 393h-280zM238 568l-101 164h65l72 -121l113 121h68l-157 -164h-60z" />
    <glyph glyph-name="Dcroat" unicode="&#x110;" horiz-adv-x="696" 
d="M13 316l10 59h87l53 313h193c205 0 313 -121 313 -283c0 -237 -163 -405 -431 -405h-191l53 316h-87zM350 626h-127l-42 -251h161l-9 -59h-162l-43 -254h122c216 0 345 143 345 337c0 128 -73 227 -245 227z" />
    <glyph glyph-name="Eng" unicode="&#x14a;" horiz-adv-x="723" 
d="M704 688l-124 -736c-21 -131 -92 -172 -194 -172h-48l12 65h45c63 0 101 31 115 113l8 46l-303 569h-3l-94 -573h-71l116 688h67l305 -573h1l97 573h71z" />
    <glyph glyph-name="Hbar" unicode="&#x126;" horiz-adv-x="716" 
d="M42 510l9 58h92l20 120h71l-20 -120h392l20 120h71l-20 -120h88l-9 -58h-89l-86 -510h-71l53 318h-392l-53 -318h-71l86 510h-91zM204 510l-22 -130h392l22 130h-392z" />
    <glyph glyph-name="Tbar" unicode="&#x166;" horiz-adv-x="579" 
d="M68 628l12 60h563l-12 -60h-244l-46 -272h186l-9 -57h-187l-50 -299h-71l50 299h-182l9 57h183l46 272h-248z" />
    <glyph glyph-name="longs" unicode="&#x17f;" horiz-adv-x="288" 
d="M31 433l9 55h98l15 86c18 106 78 158 182 158h53l-12 -59h-44c-64 0 -99 -30 -111 -102l-97 -571h-68l73 433h-98z" />
    <glyph glyph-name="dcroat" unicode="&#x111;" horiz-adv-x="576" 
d="M331 599l9 47h153l15 86h68l-15 -86h81l-8 -47h-81l-101 -599h-66l12 71h-3c-41 -54 -104 -82 -171 -82c-115 0 -189 81 -189 204c0 181 116 306 255 306c87 0 143 -40 161 -99h2c5 46 26 166 30 190l1 9h-153zM106 199c0 -92 50 -151 133 -151c116 0 186 120 186 241
c0 92 -49 151 -132 151c-116 0 -187 -120 -187 -241z" />
    <glyph glyph-name="eng" unicode="&#x14b;" horiz-adv-x="561" 
d="M255 -161h28c44 0 66 23 75 77l64 374c18 106 -20 150 -99 150c-78 0 -154 -64 -176 -193l-43 -247h-68l84 488h64l-14 -80h4c38 62 95 91 167 91c100 0 175 -60 151 -202l-68 -393c-13 -76 -59 -124 -147 -124h-30z" />
    <glyph glyph-name="hbar" unicode="&#x127;" horiz-adv-x="561" 
d="M57 599l9 47h79l15 86h68l-15 -86h156l-9 -47h-155l-3 -21c-8 -44 -22 -130 -31 -171h2c39 63 96 92 168 92c100 0 175 -60 151 -202l-51 -297h-68l49 290c18 106 -20 150 -99 150c-77 0 -154 -63 -176 -188l-43 -252h-68l101 599h-80z" />
    <glyph glyph-name="napostrophe" unicode="&#x149;" horiz-adv-x="561" 
d="M36 0l84 488h65l-15 -84h1c39 65 97 95 170 95c100 0 175 -60 151 -202l-51 -297h-68l49 290c18 106 -20 150 -99 150c-78 0 -154 -65 -176 -190l-43 -250h-68zM127 568l43 97h-28l14 80h68l-13 -74l-53 -103h-31z" />
    <glyph glyph-name="tbar" unicode="&#x167;" horiz-adv-x="315" 
d="M26 433l9 55h96l25 148h68l-25 -148h132l-9 -55h-132l-26 -154h129l-9 -47h-128l-15 -88c-9 -58 4 -85 59 -85h62l-9 -59h-67c-96 0 -129 49 -114 140l15 92h-98l9 47h97l26 154h-95z" />
    <glyph glyph-name="IJ" unicode="&#x132;" horiz-adv-x="769" 
d="M289 193l7 35h71l-7 -35c-19 -104 22 -142 98 -142c77 0 130 39 149 148l84 489h71l-84 -489c-26 -152 -104 -210 -220 -210c-118 0 -196 57 -169 204zM47 0l116 688h71l-116 -688h-71z" />
    <glyph glyph-name="ij" unicode="&#x133;" horiz-adv-x="456" 
d="M369 636l15 96h74l-16 -96h-73zM141 636l16 96h73l-15 -96h-74zM146 -161h27c45 0 66 23 75 77l99 572h67l-100 -584c-13 -76 -59 -124 -147 -124h-30zM36 0l84 488h67l-83 -488h-68z" />
    <glyph glyph-name="Euro" unicode="&#x20ac;" horiz-adv-x="568" 
d="M34 403l12 44h77c49 148 147 252 286 252c121 0 176 -71 182 -179h-65c-9 77 -45 120 -123 120c-95 0 -168 -74 -209 -193h196l-12 -44h-197c-8 -34 -14 -69 -18 -107h197l-12 -44h-187v-13c0 -119 46 -191 141 -191c73 0 117 34 152 100h65
c-42 -101 -114 -159 -229 -159c-139 0 -200 108 -200 253v10h-86l12 44h76c8 63 13 85 18 107h-76z" />
    <glyph glyph-name="afii61352" unicode="&#x2116;" horiz-adv-x="1177" 
d="M47 0l116 688h67l305 -568h3l95 568h71l-116 -688h-68l-305 568h-2l-95 -568h-71zM810 478c0 21 2 41 7 60c24 96 104 157 195 157c90 0 146 -55 146 -141c0 -21 -2 -41 -7 -60c-24 -96 -104 -157 -195 -157c-90 0 -146 55 -146 141zM875 481c0 -58 30 -94 87 -94
s106 44 124 110c4 17 7 35 7 54c0 58 -30 94 -87 94s-106 -44 -124 -110c-4 -17 -7 -35 -7 -54zM725 0l9 50h342l-8 -50h-343zM756 179l8 50h343l-9 -50h-342z" />
    <glyph glyph-name="estimated" unicode="&#x212e;" horiz-adv-x="850" 
d="M184 113c60 -63 146 -103 243 -103c102 0 193 44 255 117h58c-72 -84 -187 -139 -314 -139c-219 0 -397 158 -397 356c0 197 178 356 397 356c218 0 396 -159 396 -356v-10h-641c-4 0 -7 -1 -7 -4v-194c0 -8 4 -16 10 -23zM181 355h492c2 0 4 2 4 6v193
c0 10 -3 17 -10 24c-61 62 -147 100 -240 100c-96 0 -182 -41 -242 -103c-7 -7 -11 -16 -11 -26v-188c0 -4 3 -6 7 -6z" />
    <glyph glyph-name="a.sc" unicode="&#xf761;" horiz-adv-x="508" 
d="M-34 0l290 520h80l117 -520h-70l-30 140h-238l-75 -140h-74zM287 452h-3l-137 -254h194z" />
    <glyph glyph-name="b.sc" unicode="&#xf762;" horiz-adv-x="568" 
d="M47 0l88 520h226c99 0 151 -46 151 -113c0 -56 -30 -114 -107 -131v-3c58 -12 93 -57 93 -110c0 -98 -78 -163 -203 -163h-248zM334 241h-178l-31 -182h176c76 0 127 40 127 104c0 44 -31 78 -94 78zM355 461h-162l-28 -162h165c70 0 112 39 112 96c0 37 -26 66 -87 66z
" />
    <glyph glyph-name="c.sc" unicode="&#xf763;" horiz-adv-x="581" 
d="M42 211c0 177 132 320 304 320c128 0 204 -72 210 -175h-65c-10 69 -57 115 -148 115c-129 0 -230 -114 -230 -254c0 -93 58 -168 163 -168c90 0 147 45 181 115h68c-42 -105 -135 -175 -255 -175c-143 0 -228 98 -228 222z" />
    <glyph glyph-name="d.sc" unicode="&#xf764;" horiz-adv-x="591" 
d="M47 0l88 520h172c160 0 243 -92 243 -219c0 -173 -130 -301 -327 -301h-176zM298 461h-105l-68 -402h107c163 0 247 116 247 242c0 88 -54 160 -181 160z" />
    <glyph glyph-name="e.sc" unicode="&#xf765;" horiz-adv-x="522" 
d="M47 0l88 520h371l-9 -59h-304l-29 -168h246l-9 -57h-246l-30 -177h310l-9 -59h-379z" />
    <glyph glyph-name="f.sc" unicode="&#xf766;" horiz-adv-x="492" 
d="M47 0l88 520h367l-9 -59h-300l-32 -189h240l-10 -57h-240l-36 -215h-68z" />
    <glyph glyph-name="g.sc" unicode="&#xf767;" horiz-adv-x="632" 
d="M313 217l9 56h233l-44 -273h-44l5 70h-3c-48 -54 -113 -81 -195 -81c-142 0 -229 100 -229 226c0 181 135 316 313 316c126 0 207 -74 212 -165h-71c-6 55 -54 105 -147 105c-134 0 -236 -110 -236 -253c0 -94 61 -169 167 -169c93 0 185 49 201 160l1 8h-172z" />
    <glyph glyph-name="h.sc" unicode="&#xf768;" horiz-adv-x="617" 
d="M47 0l88 520h68l-39 -228h299l39 228h68l-88 -520h-68l39 233h-299l-39 -233h-68z" />
    <glyph glyph-name="i.sc" unicode="&#xf769;" horiz-adv-x="250" 
d="M47 0l88 520h68l-88 -520h-68z" />
    <glyph glyph-name="j.sc" unicode="&#xf76a;" horiz-adv-x="441" 
d="M24 152l4 23h65l-4 -23c-15 -76 22 -107 78 -107c59 0 96 33 110 110l64 365h68l-64 -365c-20 -116 -80 -166 -181 -166c-93 0 -162 50 -140 163z" />
    <glyph glyph-name="k.sc" unicode="&#xf76b;" horiz-adv-x="552" 
d="M47 0l88 520h68l-50 -292l331 292h81l-256 -225l180 -295h-73l-155 253l-122 -107l-24 -146h-68z" />
    <glyph glyph-name="l.sc" unicode="&#xf76c;" horiz-adv-x="468" 
d="M47 0l88 520h68l-78 -461h279l-9 -59h-348z" />
    <glyph glyph-name="m.sc" unicode="&#xf76d;" horiz-adv-x="753" 
d="M47 0l88 520h84l127 -430h3l273 430h84l-88 -520h-68l73 417h-2l-264 -417h-48l-126 417h-3l-65 -417h-68z" />
    <glyph glyph-name="n.sc" unicode="&#xf76e;" horiz-adv-x="618" 
d="M47 0l88 520h62l235 -412h3l68 412h68l-88 -520h-62l-235 412h-3l-68 -412h-68z" />
    <glyph glyph-name="o.sc" unicode="&#xf76f;" horiz-adv-x="624" 
d="M42 211c0 190 147 320 311 320c135 0 229 -91 229 -222c0 -190 -147 -320 -311 -320c-135 0 -229 91 -229 222zM277 49c105 0 197 72 225 183c6 23 9 48 9 74c0 99 -63 165 -164 165c-105 0 -197 -72 -225 -183c-6 -23 -9 -48 -9 -74c0 -99 63 -165 164 -165z" />
    <glyph glyph-name="p.sc" unicode="&#xf770;" horiz-adv-x="538" 
d="M47 0l88 520h215c107 0 163 -65 163 -144c0 -114 -85 -191 -217 -191h-152l-32 -185h-65zM344 461h-152l-37 -217h150c83 0 137 50 137 126c0 51 -32 91 -98 91z" />
    <glyph glyph-name="q.sc" unicode="&#xf771;" horiz-adv-x="624" 
d="M42 211c0 190 147 320 311 320c135 0 229 -91 229 -222c0 -110 -49 -199 -121 -255l83 -104l-54 -42l-87 110c-41 -18 -86 -29 -132 -29c-135 0 -229 91 -229 222zM277 49c105 0 197 72 225 183c6 23 9 48 9 74c0 99 -63 165 -164 165c-105 0 -197 -72 -225 -183
c-6 -23 -9 -48 -9 -74c0 -99 63 -165 164 -165z" />
    <glyph glyph-name="r.sc" unicode="&#xf772;" horiz-adv-x="559" 
d="M47 0l88 520h220c105 0 163 -58 163 -135c0 -97 -65 -157 -158 -173l113 -212h-74l-109 207h-140l-35 -207h-68zM349 461h-156l-33 -195h155c79 0 129 39 129 113c0 47 -31 82 -95 82z" />
    <glyph glyph-name="s.sc" unicode="&#xf773;" horiz-adv-x="512" 
d="M30 146h68c-11 -65 36 -101 126 -101c91 0 150 29 150 99c0 132 -297 41 -297 228c0 93 81 159 214 159c129 0 199 -60 184 -151h-68c10 57 -35 95 -122 95c-79 0 -140 -33 -140 -97c0 -130 300 -39 300 -228c0 -97 -73 -161 -224 -161c-140 0 -208 60 -191 157z" />
    <glyph glyph-name="t.sc" unicode="&#xf774;" horiz-adv-x="498" 
d="M53 461l9 59h462l-9 -59h-198l-78 -461h-68l78 461h-196z" />
    <glyph glyph-name="u.sc" unicode="&#xf775;" horiz-adv-x="587" 
d="M65 207l53 313h68l-53 -313c-18 -103 25 -156 126 -156c98 0 157 56 175 156l53 313h68l-53 -313c-27 -156 -122 -218 -248 -218s-216 62 -189 218z" />
    <glyph glyph-name="v.sc" unicode="&#xf776;" horiz-adv-x="504" 
d="M169 0l-114 520h71l92 -452h4l244 452h71l-287 -520h-81z" />
    <glyph glyph-name="w.sc" unicode="&#xf777;" horiz-adv-x="754" 
d="M118 0l-58 520h68l43 -446h3l213 446h69l63 -447h3l192 447h68l-228 -520h-84l-62 433h-3l-202 -433h-85z" />
    <glyph glyph-name="x.sc" unicode="&#xf778;" horiz-adv-x="486" 
d="M-32 0l238 264l-143 256h80l109 -204l180 204h77l-227 -253l146 -267h-73l-119 215l-191 -215h-77z" />
    <glyph glyph-name="y.sc" unicode="&#xf779;" horiz-adv-x="488" 
d="M165 0l33 207l-145 313h77l113 -253h3l206 253h74l-261 -319l-32 -201h-68z" />
    <glyph glyph-name="z.sc" unicode="&#xf77a;" horiz-adv-x="495" 
d="M87 462l12 58h395l-5 -43l-385 -419h308l-9 -58h-405l6 40l387 422h-304z" />
    <glyph glyph-name="dcroat.sc" unicode="&#xf676;" horiz-adv-x="592" 
d="M1 235l9 50h85l40 235h172c160 0 243 -92 243 -219c0 -173 -130 -301 -327 -301h-176l40 235h-86zM298 461h-105l-30 -176h110l-9 -50h-109l-30 -176h107c163 0 247 116 247 242c0 88 -54 160 -181 160z" />
    <glyph glyph-name="hbar.sc" unicode="&#xf681;" horiz-adv-x="617" 
d="M31 385l9 49h80l15 86h68l-15 -86h299l15 86h68l-15 -86h82l-9 -49h-81l-65 -385h-68l39 233h-299l-39 -233h-68l65 385h-81zM180 385l-16 -93h299l16 93h-299z" />
    <glyph glyph-name="dotlessi.sc" unicode="&#xe08e;" horiz-adv-x="250" 
d="M47 0l88 520h68l-88 -520h-68z" />
    <glyph glyph-name="oslash.sc" unicode="&#xf7f8;" horiz-adv-x="624" 
d="M42 211c0 190 147 320 311 320c60 0 112 -18 151 -50l50 50h56l-78 -78c32 -37 50 -87 50 -144c0 -190 -147 -320 -311 -320c-60 0 -113 18 -152 49l-49 -49h-57l78 78c-31 37 -49 87 -49 144zM277 49c105 0 197 72 225 183c6 23 9 48 9 74c0 38 -10 72 -27 98l-318 -319
c28 -23 66 -36 111 -36zM113 214c0 -38 9 -72 26 -98l318 318c-27 24 -65 37 -110 37c-105 0 -197 -72 -225 -183c-6 -23 -9 -48 -9 -74z" />
    <glyph glyph-name="tbar.sc" unicode="&#xf69c;" horiz-adv-x="498" 
d="M53 461l9 59h462l-9 -59h-198l-33 -193h153l-9 -50h-152l-37 -218h-68l37 218h-150l9 50h149l33 193h-196z" />
    <glyph glyph-name="eng.sc" unicode="&#xf67b;" horiz-adv-x="618" 
d="M250 -158h46c62 0 96 31 111 113l10 57l-232 397h-3l-67 -409h-68l86 520h61l239 -409l70 409h68l-96 -567c-22 -131 -87 -173 -188 -173h-48z" />
    <glyph glyph-name="eth.sc" unicode="&#xf7f0;" horiz-adv-x="592" 
d="M1 235l9 50h85l40 235h172c160 0 243 -92 243 -219c0 -173 -130 -301 -327 -301h-176l40 235h-86zM298 461h-105l-30 -176h110l-9 -50h-109l-30 -176h107c163 0 247 116 247 242c0 88 -54 160 -181 160z" />
    <glyph glyph-name="thorn.sc" unicode="&#xf7fe;" horiz-adv-x="538" 
d="M47 0l88 520h68l-15 -84h149c107 0 163 -65 163 -144c0 -114 -85 -191 -217 -191h-154l-17 -101h-65zM331 377h-153l-38 -217h152c83 0 137 50 137 126c0 51 -32 91 -98 91z" />
    <glyph glyph-name="germandbls.sc" unicode="&#xe0a4;" horiz-adv-x="1024" 
d="M30 146h68c-11 -65 36 -101 126 -101c91 0 150 29 150 99c0 132 -297 41 -297 228c0 93 81 159 214 159c129 0 199 -60 184 -151h-68c10 57 -35 95 -122 95c-79 0 -140 -33 -140 -97c0 -130 300 -39 300 -228c0 -97 -73 -161 -224 -161c-140 0 -208 60 -191 157zM542 146
h68c-11 -65 36 -101 126 -101c91 0 150 29 150 99c0 132 -297 41 -297 228c0 93 81 159 214 159c129 0 199 -60 184 -151h-68c10 57 -35 95 -122 95c-79 0 -140 -33 -140 -97c0 -130 300 -39 300 -228c0 -97 -73 -161 -224 -161c-140 0 -208 60 -191 157z" />
    <glyph glyph-name="ae.sc" unicode="&#xf7e6;" horiz-adv-x="860" 
d="M-42 0l488 520h398l-9 -59h-304l-28 -167h246l-9 -59h-247l-30 -176h310l-9 -59h-379l20 119h-257l-110 -119h-80zM459 453l-259 -278h214l47 278h-2z" />
    <glyph glyph-name="oe.sc" unicode="&#xf6fa;" horiz-adv-x="854" 
d="M42 219c0 173 129 301 327 301h470l-10 -59h-304l-29 -168h247l-9 -57h-247l-30 -177h311l-9 -59h-475c-159 0 -242 92 -242 219zM113 219c0 -88 54 -160 180 -160h96l69 402h-98c-164 0 -247 -116 -247 -242z" />
    <glyph glyph-name="ij.sc" unicode="&#xf684;" horiz-adv-x="694" 
d="M277 152l4 23h65l-5 -23c-14 -76 23 -107 79 -107s96 33 110 110l64 365h68l-64 -365c-20 -116 -83 -166 -184 -166c-93 0 -159 50 -137 163zM47 0l88 520h68l-88 -520h-68z" />
    <glyph glyph-name="ampersand.sc" unicode="&#xf726;" horiz-adv-x="576" 
d="M28 117c0 96 74 138 154 170c-32 41 -45 73 -45 105c0 74 60 136 164 136c85 0 130 -48 130 -107c0 -87 -80 -121 -161 -151l128 -144c28 38 45 86 55 134h59c-10 -52 -31 -120 -77 -175l76 -85h-71l-43 48c-44 -35 -103 -59 -183 -59c-116 0 -186 53 -186 128zM216 42
c62 0 109 17 144 46l-147 161c-64 -26 -117 -57 -117 -120c0 -58 49 -87 120 -87zM196 395c0 -25 13 -51 42 -87c71 26 134 53 134 113c0 34 -25 60 -77 60c-59 0 -99 -34 -99 -86z" />
    <glyph glyph-name="exclam.sc" unicode="&#xf721;" horiz-adv-x="256" 
d="M88 148l21 234l23 138h80l-24 -138l-61 -234h-39zM44 0l15 94h79l-15 -94h-79z" />
    <glyph glyph-name="exclamdown.sc" unicode="&#xf7a1;" horiz-adv-x="256" 
d="M117 426l15 94h80l-15 -94h-80zM44 0l23 138l62 234h38l-20 -234l-24 -138h-79z" />
    <glyph glyph-name="question.sc" unicode="&#xf73f;" horiz-adv-x="453" 
d="M164 151l4 23c24 137 197 125 197 226c0 42 -42 75 -106 75c-79 0 -131 -42 -143 -110h-64c16 96 91 166 213 166c99 0 168 -50 168 -125c0 -145 -179 -128 -197 -232l-4 -23h-68zM139 0l16 94h77l-16 -94h-77z" />
    <glyph glyph-name="questiondown.sc" unicode="&#xf7bf;" horiz-adv-x="453" 
d="M217 435l17 94h76l-16 -94h-77zM16 123c0 144 179 128 197 232l4 23h68l-4 -23c-24 -138 -197 -125 -197 -226c0 -42 42 -75 106 -75c79 0 131 41 143 110h64c-16 -96 -91 -166 -213 -166c-99 0 -168 50 -168 125z" />
    <glyph glyph-name="zero.oldstyle" unicode="&#xf730;" horiz-adv-x="574" 
d="M33 195c0 177 138 304 291 304c131 0 210 -82 210 -206c0 -177 -138 -304 -291 -304c-131 0 -210 82 -210 206zM104 201c0 -93 57 -153 145 -153c110 0 214 98 214 239c0 93 -57 153 -145 153c-110 0 -214 -98 -214 -239z" />
    <glyph glyph-name="one.oldstyle" unicode="&#xf731;" horiz-adv-x="326" 
d="M55 315l-27 53l198 120h52l-84 -488h-68l69 399z" />
    <glyph glyph-name="two.oldstyle" unicode="&#xf732;" horiz-adv-x="481" 
d="M-1 0c22 133 105 192 195 226l74 28c58 22 120 46 120 107c0 40 -35 82 -116 82c-86 0 -140 -36 -162 -122h-62c25 128 121 178 227 178c110 0 181 -50 181 -132c0 -111 -101 -140 -167 -166l-71 -28c-57 -22 -118 -61 -127 -114h320l-9 -59h-403z" />
    <glyph glyph-name="three.oldstyle" unicode="&#xf733;" horiz-adv-x="514" 
d="M-23 5h65c-17 -97 35 -157 136 -157c100 0 186 60 186 162c0 72 -59 117 -139 117h-47l12 58h48c81 0 158 59 158 148c0 68 -51 107 -119 107c-78 0 -146 -42 -160 -138h-65c20 124 112 197 234 197c103 0 175 -63 175 -157c0 -90 -68 -163 -139 -181v-4
c64 -15 110 -70 110 -144c0 -139 -113 -224 -257 -224c-140 0 -220 75 -198 216z" />
    <glyph glyph-name="four.oldstyle" unicode="&#xf734;" horiz-adv-x="528" 
d="M-26 0l9 49l402 440h55l-73 -430h103l-9 -59h-104l-33 -200h-68l33 200h-315zM62 59h237l53 315z" />
    <glyph glyph-name="five.oldstyle" unicode="&#xf735;" horiz-adv-x="499" 
d="M-10 -20h68c0 -66 39 -132 137 -132s178 84 178 202c0 80 -51 131 -126 131c-57 0 -105 -24 -149 -80l-62 3l86 384h358l-9 -62h-297l-58 -245h3c32 38 82 59 143 59c111 0 182 -70 182 -184c0 -159 -119 -267 -252 -267c-121 0 -202 70 -202 191z" />
    <glyph glyph-name="six.oldstyle" unicode="&#xf736;" horiz-adv-x="538" 
d="M47 217c0 28 1 59 6 93c35 250 149 389 302 389c111 0 183 -59 177 -183h-68c5 84 -44 124 -115 124c-110 0 -189 -116 -222 -309c34 66 106 109 192 109c110 0 181 -70 181 -184c0 -159 -119 -267 -252 -267c-115 0 -201 62 -201 228zM119 179c0 -86 59 -131 132 -131
c100 0 178 84 178 202c0 80 -50 131 -125 131c-99 0 -185 -83 -185 -202z" />
    <glyph glyph-name="seven.oldstyle" unicode="&#xf737;" horiz-adv-x="448" 
d="M-17 -200l400 626h-339l9 62h419l-9 -49l-406 -639h-74z" />
    <glyph glyph-name="eight.oldstyle" unicode="&#xf738;" horiz-adv-x="530" 
d="M17 158c0 99 79 178 172 199v4c-49 16 -87 67 -87 133c0 116 104 205 233 205c110 0 179 -62 179 -162c0 -83 -67 -157 -140 -176v-4c66 -17 111 -71 111 -144c0 -138 -117 -224 -263 -224c-127 0 -205 66 -205 169zM85 164c0 -72 60 -116 143 -116c102 0 189 61 189 162
c0 71 -58 117 -142 117c-98 0 -190 -61 -190 -163zM288 385c85 0 161 60 161 149c0 67 -51 109 -120 109c-87 0 -162 -60 -162 -149c0 -65 50 -109 121 -109z" />
    <glyph glyph-name="nine.oldstyle" unicode="&#xf739;" horiz-adv-x="538" 
d="M1 -28h68c-5 -84 43 -124 115 -124c113 0 185 116 218 308c-34 -66 -105 -108 -191 -108c-110 0 -181 70 -181 184c0 159 118 267 252 267c115 0 201 -62 201 -228c0 -28 -1 -59 -6 -93c-35 -250 -144 -389 -299 -389c-112 0 -183 59 -177 183zM410 309
c0 72 -47 131 -131 131c-100 0 -178 -84 -178 -202c0 -80 50 -131 125 -131c99 0 184 83 184 202z" />
    <glyph glyph-name="a.superior" unicode="&#xf6e9;" horiz-adv-x="421" 
d="M347 496l10 60h-4c-29 -45 -73 -67 -125 -67c-75 0 -130 54 -130 141c0 138 92 217 183 217c53 0 96 -28 109 -72h3l12 65h60l-59 -344h-59zM163 633c0 -60 33 -94 83 -94c67 0 127 70 127 163c0 60 -33 95 -83 95c-66 0 -127 -67 -127 -164z" />
    <glyph glyph-name="b.superior" unicode="&#xf6ea;" horiz-adv-x="421" 
d="M94 496l88 516h62l-17 -105c-3 -17 -17 -90 -27 -127h3c30 44 74 67 126 67c75 0 130 -54 130 -141c0 -138 -92 -217 -183 -217c-54 0 -97 28 -110 72h-2l-12 -65h-58zM184 634c0 -60 33 -95 83 -95c66 0 127 67 127 164c0 59 -33 94 -83 94c-67 0 -127 -71 -127 -163z
" />
    <glyph glyph-name="d.superior" unicode="&#xf6eb;" horiz-adv-x="421" 
d="M98 630c0 138 92 217 183 217c53 0 96 -28 109 -72h3c3 35 16 107 19 124l20 113h62l-88 -516h-59l10 60h-4c-29 -45 -73 -67 -125 -67c-75 0 -130 54 -130 141zM163 633c0 -60 33 -94 83 -94c67 0 127 70 127 163c0 60 -33 95 -83 95c-66 0 -127 -67 -127 -164z" />
    <glyph glyph-name="e.superior" unicode="&#xf6ec;" horiz-adv-x="390" 
d="M98 629c0 18 2 35 5 51c20 99 97 167 188 167c100 0 150 -73 135 -166l-3 -19h-259c-1 -11 -1 -22 -1 -33c0 -61 31 -90 85 -90s85 26 99 61h59c-18 -67 -80 -111 -164 -111c-90 0 -144 53 -144 140zM285 797c-53 0 -94 -36 -112 -95h193c3 49 -15 95 -81 95z" />
    <glyph glyph-name="g.superior" unicode="&#xe0a3;" horiz-adv-x="421" 
d="M77 453h56c-6 -47 30 -70 85 -70c70 0 115 32 131 127l8 46h-4c-29 -45 -73 -67 -125 -67c-75 0 -130 54 -130 141c0 138 92 217 183 217c53 0 96 -28 109 -72h3l12 65h61l-57 -330c-22 -130 -93 -174 -191 -174c-78 0 -150 30 -141 117zM163 633c0 -60 33 -94 83 -94
c67 0 127 70 127 163c0 60 -33 95 -83 95c-66 0 -127 -67 -127 -164z" />
    <glyph glyph-name="h.superior" unicode="&#xf637;" horiz-adv-x="406" 
d="M95 496l88 516h62l-17 -100c-3 -17 -16 -88 -25 -123h2c27 39 69 58 111 58c73 0 130 -38 111 -152l-32 -199h-62l32 199c12 74 -17 102 -66 102c-53 0 -99 -46 -112 -122l-30 -179h-62z" />
    <glyph glyph-name="i.superior" unicode="&#xf6ed;" horiz-adv-x="166" 
d="M168 937l12 75h65l-12 -75h-65zM95 496l57 344h62l-57 -344h-62z" />
    <glyph glyph-name="l.superior" unicode="&#xf6ee;" horiz-adv-x="172" 
d="M95 496l88 516h62l-88 -516h-62z" />
    <glyph glyph-name="m.superior" unicode="&#xf6ef;" horiz-adv-x="624" 
d="M95 496l59 344h59l-9 -49h2c26 38 63 56 105 56c50 0 93 -19 107 -70c34 53 78 70 122 70c70 0 126 -38 108 -152l-33 -199h-62l33 199c12 74 -17 102 -62 102c-50 0 -95 -46 -108 -122l-29 -179h-62l32 199c12 74 -16 102 -62 102s-95 -40 -109 -124l-29 -177h-62z" />
    <glyph glyph-name="n.superior" unicode="&#x207f;" horiz-adv-x="406" 
d="M95 496l59 344h59l-9 -49h2c26 38 65 56 110 56c73 0 129 -42 111 -152l-32 -199h-62l32 199c12 74 -17 102 -66 102c-50 0 -99 -40 -113 -126l-29 -175h-62z" />
    <glyph glyph-name="o.superior" unicode="&#xf6f0;" horiz-adv-x="409" 
d="M98 630c0 132 94 217 202 217c90 0 146 -55 146 -141c0 -132 -94 -217 -202 -217c-90 0 -146 55 -146 141zM163 633c0 -58 30 -94 87 -94c71 0 131 69 131 164c0 58 -30 94 -87 94c-71 0 -131 -69 -131 -164z" />
    <glyph glyph-name="r.superior" unicode="&#xf6f1;" horiz-adv-x="264" 
d="M95 496l56 344h59l-9 -58h2c22 38 53 65 100 65c15 0 37 -2 51 -14l-22 -58c-14 10 -32 14 -45 14c-51 0 -91 -50 -103 -123l-27 -170h-62z" />
    <glyph glyph-name="s.superior" unicode="&#xf6f2;" horiz-adv-x="366" 
d="M91 598h59c-3 -48 38 -65 82 -65c53 0 90 19 90 59c0 29 -18 44 -55 51l-64 12c-45 8 -78 34 -78 78c0 73 60 114 147 114c68 0 134 -30 131 -105h-58c1 42 -29 61 -78 61c-45 0 -83 -20 -83 -56c0 -31 28 -38 52 -43l64 -11c44 -9 84 -36 84 -89
c0 -82 -73 -115 -155 -115c-66 0 -145 23 -138 109z" />
    <glyph glyph-name="t.superior" unicode="&#xf6f3;" horiz-adv-x="247" 
d="M92 790l9 50h67l18 104h62l-18 -104h98l-10 -50h-97l-31 -181c-7 -43 4 -60 42 -60h45l-9 -53h-51c-77 0 -102 29 -89 107l32 187h-68z" />
    <glyph glyph-name="period.superior" unicode="&#xf6e8;" horiz-adv-x="172" 
d="M91 496l15 83h67l-14 -83h-68z" />
    <glyph glyph-name="comma.superior" unicode="&#xf6e2;" horiz-adv-x="172" 
d="M91 496l15 83h67l-14 -80l-46 -111h-34l40 108h-28z" />
    <glyph glyph-name="dollar.superior" unicode="&#xf6e4;" 
d="M91 595h56c-2 -35 24 -62 80 -62c41 0 85 18 85 60c0 80 -186 33 -186 144c0 60 47 103 121 109l10 54h50l-10 -56c47 -8 89 -36 91 -92h-56c-1 34 -32 51 -71 51c-41 0 -79 -19 -79 -58c0 -72 189 -27 189 -143c0 -65 -52 -106 -130 -113l-10 -61h-50l11 62
c-54 8 -104 41 -101 105z" />
    <glyph glyph-name="cent.superior" unicode="&#xf6e0;" 
d="M106 644c0 83 55 145 143 154l9 49h51l-10 -51c45 -9 84 -37 86 -90h-59c-1 23 -21 49 -62 49c-56 0 -96 -44 -96 -105c0 -41 26 -69 71 -69c41 0 66 26 75 49h59c-12 -43 -53 -85 -118 -92l-8 -49h-51l8 50c-63 9 -98 50 -98 105z" />
    <glyph glyph-name="hyphen.superior" unicode="&#xf6e6;" horiz-adv-x="276" 
d="M102 643l9 53h201l-9 -53h-201z" />
    <glyph glyph-name="parenleft.superior" unicode="&#x207d;" horiz-adv-x="204" 
d="M165 424c-22 36 -42 103 -42 179c0 131 69 252 126 309h55c-51 -52 -124 -183 -124 -309c0 -79 19 -146 40 -179h-55z" />
    <glyph glyph-name="parenright.superior" unicode="&#x207e;" horiz-adv-x="204" 
d="M91 424h-55c51 52 124 183 124 309c0 79 -20 146 -41 179h56c22 -36 41 -103 41 -179c0 -131 -68 -252 -125 -309z" />
    <glyph glyph-name="period.inferior" unicode="&#xf6e7;" horiz-adv-x="172" 
d="M-9 -152l15 83h67l-14 -83h-68z" />
    <glyph glyph-name="comma.inferior" unicode="&#xf6e1;" horiz-adv-x="172" 
d="M-9 -152l15 83h67l-14 -80l-46 -111h-34l40 108h-28z" />
    <glyph glyph-name="dollar.inferior" unicode="&#xf6e3;" 
d="M-9 -53h56c-2 -35 24 -62 80 -62c41 0 85 18 85 60c0 80 -186 33 -186 144c0 60 47 103 121 109l10 54h50l-10 -56c47 -8 89 -36 91 -92h-56c-1 34 -32 51 -71 51c-41 0 -79 -19 -79 -58c0 -72 189 -27 189 -143c0 -65 -52 -106 -130 -113l-10 -61h-50l11 62
c-54 8 -104 41 -101 105z" />
    <glyph glyph-name="cent.inferior" unicode="&#xf6df;" 
d="M6 -4c0 83 55 145 143 154l9 49h51l-10 -51c45 -9 84 -37 86 -90h-59c-1 23 -21 49 -62 49c-56 0 -96 -44 -96 -105c0 -41 26 -69 71 -69c41 0 66 26 75 49h59c-12 -43 -53 -85 -118 -92l-8 -49h-51l8 50c-63 9 -98 50 -98 105z" />
    <glyph glyph-name="hyphen.inferior" unicode="&#xf6e5;" horiz-adv-x="276" 
d="M2 -5l9 53h201l-9 -53h-201z" />
    <glyph glyph-name="parenleft.inferior" unicode="&#x208d;" horiz-adv-x="204" 
d="M65 -224c-22 36 -42 103 -42 179c0 131 69 252 126 309h55c-51 -52 -124 -183 -124 -309c0 -79 19 -146 40 -179h-55z" />
    <glyph glyph-name="parenright.inferior" unicode="&#x208e;" horiz-adv-x="204" 
d="M-9 -224h-55c51 52 124 183 124 309c0 79 -20 146 -41 179h56c22 -36 41 -103 41 -179c0 -131 -68 -252 -125 -309z" />
    <glyph glyph-name="zero.numerator" unicode="&#xf661;" 
d="M187 336c-82 0 -120 55 -120 131c0 16 2 34 5 51c17 99 75 178 173 178c82 0 119 -55 119 -131c0 -17 -1 -34 -4 -51c-18 -99 -75 -178 -173 -178zM193 383c55 0 93 49 108 131c3 17 4 33 4 48c0 54 -21 87 -66 87c-56 0 -94 -49 -108 -131c-3 -17 -5 -34 -5 -49
c0 -54 23 -86 67 -86z" />
    <glyph glyph-name="one.numerator" unicode="&#xf662;" 
d="M122 564l-19 43l148 81h38l-49 -294h96l-6 -50h-263l6 50h108l37 220z" />
    <glyph glyph-name="two.numerator" unicode="&#xf663;" 
d="M50 344c17 97 76 132 137 162l30 14c48 24 86 41 86 79c0 28 -24 49 -67 49c-45 0 -80 -25 -91 -76h-53c17 89 80 123 149 123c71 0 118 -35 118 -90c0 -74 -64 -97 -123 -126l-31 -15c-40 -19 -75 -43 -80 -70h204l-6 -50h-273z" />
    <glyph glyph-name="three.numerator" unicode="&#xf664;" 
d="M64 446h56c-7 -51 32 -65 75 -65c49 0 93 22 93 70c0 34 -32 51 -75 51h-28l6 41h28c47 0 85 21 85 62c0 30 -28 46 -68 46c-44 0 -77 -19 -82 -62h-53c5 66 61 107 140 107c75 0 122 -36 122 -85c0 -44 -32 -77 -76 -87v-3c37 -8 60 -34 60 -70
c0 -73 -64 -115 -158 -115c-71 0 -139 30 -125 110z" />
    <glyph glyph-name="four.numerator" unicode="&#xf665;" 
d="M52 417l6 38l230 234h50l-37 -225h52l-8 -47h-52l-12 -73h-59l12 73h-182zM123 464h119l25 147z" />
    <glyph glyph-name="five.numerator" unicode="&#xf666;" 
d="M81 435h55c1 -35 27 -54 67 -54c35 0 68 19 80 53c4 9 6 20 6 31c0 41 -30 59 -66 59c-29 0 -53 -13 -72 -38l-59 3l44 199h228l-6 -50h-177l-25 -100h2c18 19 48 30 82 30c63 0 108 -35 108 -97c0 -87 -71 -135 -149 -135c-67 0 -118 35 -118 99z" />
    <glyph glyph-name="six.numerator" unicode="&#xf667;" 
d="M73 456c0 18 3 43 6 61c23 136 95 179 174 179c60 0 105 -30 105 -98h-56c0 32 -18 53 -55 53c-43 0 -87 -27 -107 -127c18 25 52 44 97 44c63 0 108 -35 108 -97c0 -87 -71 -135 -150 -135c-78 0 -122 44 -122 120zM134 439c0 -40 28 -58 66 -58c35 0 69 20 81 54
c3 9 5 19 5 30c0 41 -30 59 -65 59c-44 0 -87 -33 -87 -85z" />
    <glyph glyph-name="seven.numerator" unicode="&#xf668;" 
d="M100 344l204 291h-208l9 53h280l-6 -37l-213 -307h-66z" />
    <glyph glyph-name="eight.numerator" unicode="&#xf669;" 
d="M60 422c0 55 37 90 86 99v3c-32 8 -48 35 -48 65c0 64 61 107 143 107c75 0 122 -36 122 -85c0 -44 -32 -77 -75 -87v-3c36 -7 59 -34 59 -70c0 -73 -67 -115 -160 -115c-79 0 -127 34 -127 86zM119 431c0 -34 31 -50 74 -50c51 0 95 22 95 70c0 34 -32 51 -75 51
c-46 0 -94 -21 -94 -71zM219 543c47 0 85 21 85 62c0 30 -28 46 -65 46c-47 0 -85 -20 -85 -62c0 -29 26 -46 65 -46z" />
    <glyph glyph-name="nine.numerator" unicode="&#xf66a;" 
d="M74 434h56c0 -32 17 -53 55 -53c42 0 87 27 107 126c-18 -25 -54 -43 -97 -43c-63 0 -108 35 -108 97c0 87 71 135 150 135c78 0 122 -44 122 -120c0 -18 -3 -43 -6 -61c-23 -136 -95 -179 -174 -179c-60 0 -105 30 -105 98zM298 593c0 36 -25 58 -66 58
c-35 0 -69 -20 -81 -54c-3 -9 -5 -19 -5 -30c0 -41 30 -59 65 -59c44 0 87 33 87 85z" />
    <glyph glyph-name="period.numerator" unicode="&#xf66c;" horiz-adv-x="172" 
d="M63 344l15 83h67l-14 -83h-68z" />
    <glyph glyph-name="comma.numerator" unicode="&#xf66b;" horiz-adv-x="172" 
d="M63 344l15 83h67l-14 -80l-46 -111h-34l40 108h-28z" />
    <glyph glyph-name="dollar.numerator" unicode="&#xf62f;" 
d="M63 443h56c-2 -35 24 -62 80 -62c41 0 85 18 85 60c0 80 -186 33 -186 144c0 60 47 103 121 109l10 54h50l-10 -56c47 -8 89 -36 91 -92h-56c-1 34 -32 51 -71 51c-41 0 -79 -19 -79 -58c0 -72 189 -27 189 -143c0 -65 -52 -106 -130 -113l-10 -61h-50l11 62
c-54 8 -104 41 -101 105z" />
    <glyph glyph-name="cent.numerator" unicode="&#xf62e;" 
d="M78 492c0 83 55 145 143 154l9 49h51l-10 -51c45 -9 84 -37 86 -90h-59c-1 23 -21 49 -62 49c-56 0 -96 -44 -96 -105c0 -41 26 -69 71 -69c41 0 66 26 75 49h59c-12 -43 -53 -85 -118 -92l-8 -49h-51l8 50c-63 9 -98 50 -98 105z" />
    <glyph glyph-name="hyphen.numerator" unicode="&#xf630;" horiz-adv-x="276" 
d="M74 491l9 53h201l-9 -53h-201z" />
    <glyph glyph-name="parenleft.numerator" unicode="&#xf631;" horiz-adv-x="204" 
d="M137 272c-22 36 -42 103 -42 179c0 131 69 252 126 309h55c-51 -52 -124 -183 -124 -309c0 -79 19 -146 40 -179h-55z" />
    <glyph glyph-name="parenright.numerator" unicode="&#xf632;" horiz-adv-x="204" 
d="M63 272h-55c51 52 124 183 124 309c0 79 -20 146 -41 179h56c22 -36 41 -103 41 -179c0 -131 -68 -252 -125 -309z" />
    <glyph glyph-name="zero.denominator" unicode="&#xf655;" 
d="M131 -8c-82 0 -120 55 -120 131c0 16 2 34 5 51c17 99 75 178 173 178c82 0 119 -55 119 -131c0 -17 -1 -34 -4 -51c-18 -99 -75 -178 -173 -178zM137 39c55 0 93 49 108 131c3 17 4 33 4 48c0 54 -21 87 -66 87c-56 0 -94 -49 -108 -131c-3 -17 -5 -34 -5 -49
c0 -54 23 -86 67 -86z" />
    <glyph glyph-name="one.denominator" unicode="&#xf656;" 
d="M66 220l-19 43l148 81h38l-49 -294h96l-6 -50h-263l6 50h108l37 220z" />
    <glyph glyph-name="two.denominator" unicode="&#xf657;" 
d="M-6 0c17 97 76 132 137 162l30 14c48 24 86 41 86 79c0 28 -24 49 -67 49c-45 0 -80 -25 -91 -76h-53c17 89 80 123 149 123c71 0 118 -35 118 -90c0 -74 -64 -97 -123 -126l-31 -15c-40 -19 -75 -43 -80 -70h204l-6 -50h-273z" />
    <glyph glyph-name="three.denominator" unicode="&#xf658;" 
d="M8 102h56c-7 -51 32 -65 75 -65c49 0 93 22 93 70c0 34 -32 51 -75 51h-28l6 41h28c47 0 85 21 85 62c0 30 -28 46 -68 46c-44 0 -77 -19 -82 -62h-53c5 66 61 107 140 107c75 0 122 -36 122 -85c0 -44 -32 -77 -76 -87v-3c37 -8 60 -34 60 -70c0 -73 -64 -115 -158 -115
c-71 0 -139 30 -125 110z" />
    <glyph glyph-name="four.denominator" unicode="&#xf659;" 
d="M-4 73l6 38l230 234h50l-37 -225h52l-8 -47h-52l-12 -73h-59l12 73h-182zM67 120h119l25 147z" />
    <glyph glyph-name="five.denominator" unicode="&#xf65a;" 
d="M25 91h55c1 -35 27 -54 67 -54c35 0 68 19 80 53c4 9 6 20 6 31c0 41 -30 59 -66 59c-29 0 -53 -13 -72 -38l-59 3l44 199h228l-6 -50h-177l-25 -100h2c18 19 48 30 82 30c63 0 108 -35 108 -97c0 -87 -71 -135 -149 -135c-67 0 -118 35 -118 99z" />
    <glyph glyph-name="six.denominator" unicode="&#xf65b;" 
d="M17 112c0 18 3 43 6 61c23 136 95 179 174 179c60 0 105 -30 105 -98h-56c0 32 -18 53 -55 53c-43 0 -87 -27 -107 -127c18 25 52 44 97 44c63 0 108 -35 108 -97c0 -87 -71 -135 -150 -135c-78 0 -122 44 -122 120zM78 95c0 -40 28 -58 66 -58c35 0 69 20 81 54
c3 9 5 19 5 30c0 41 -30 59 -65 59c-44 0 -87 -33 -87 -85z" />
    <glyph glyph-name="seven.denominator" unicode="&#xf65c;" 
d="M44 0l204 291h-208l9 53h280l-6 -37l-213 -307h-66z" />
    <glyph glyph-name="eight.denominator" unicode="&#xf65d;" 
d="M4 78c0 55 37 90 86 99v3c-32 8 -48 35 -48 65c0 64 61 107 143 107c75 0 122 -36 122 -85c0 -44 -32 -77 -75 -87v-3c36 -7 59 -34 59 -70c0 -73 -67 -115 -160 -115c-79 0 -127 34 -127 86zM63 87c0 -34 31 -50 74 -50c51 0 95 22 95 70c0 34 -32 51 -75 51
c-46 0 -94 -21 -94 -71zM163 199c47 0 85 21 85 62c0 30 -28 46 -65 46c-47 0 -85 -20 -85 -62c0 -29 26 -46 65 -46z" />
    <glyph glyph-name="nine.denominator" unicode="&#xf65e;" 
d="M18 90h56c0 -32 17 -53 55 -53c42 0 87 27 107 126c-18 -25 -54 -43 -97 -43c-63 0 -108 35 -108 97c0 87 71 135 150 135c78 0 122 -44 122 -120c0 -18 -3 -43 -6 -61c-23 -136 -95 -179 -174 -179c-60 0 -105 30 -105 98zM242 249c0 36 -25 58 -66 58
c-35 0 -69 -20 -81 -54c-3 -9 -5 -19 -5 -30c0 -41 30 -59 65 -59c44 0 87 33 87 85z" />
    <glyph glyph-name="period.denominator" unicode="&#xf660;" horiz-adv-x="172" 
d="M7 0l15 83h67l-14 -83h-68z" />
    <glyph glyph-name="comma.denominator" unicode="&#xf65f;" horiz-adv-x="172" 
d="M7 0l15 83h67l-14 -80l-46 -111h-34l40 108h-28z" />
    <glyph glyph-name="dollar.denominator" unicode="&#xf62a;" 
d="M7 99h56c-2 -35 24 -62 80 -62c41 0 85 18 85 60c0 80 -186 33 -186 144c0 60 47 103 121 109l10 54h50l-10 -56c47 -8 89 -36 91 -92h-56c-1 34 -32 51 -71 51c-41 0 -79 -19 -79 -58c0 -72 189 -27 189 -143c0 -65 -52 -106 -130 -113l-10 -61h-50l11 62
c-54 8 -104 41 -101 105z" />
    <glyph glyph-name="cent.denominator" unicode="&#xf629;" 
d="M22 148c0 83 55 145 143 154l9 49h51l-10 -51c45 -9 84 -37 86 -90h-59c-1 23 -21 49 -62 49c-56 0 -96 -44 -96 -105c0 -41 26 -69 71 -69c41 0 66 26 75 49h59c-12 -43 -53 -85 -118 -92l-8 -49h-51l8 50c-63 9 -98 50 -98 105z" />
    <glyph glyph-name="hyphen.denominator" unicode="&#xf62b;" horiz-adv-x="276" 
d="M18 147l9 53h201l-9 -53h-201z" />
    <glyph glyph-name="parenleft.denominator" unicode="&#xf62c;" horiz-adv-x="204" 
d="M81 -72c-22 36 -42 103 -42 179c0 131 69 252 126 309h55c-51 -52 -124 -183 -124 -309c0 -79 19 -146 40 -179h-55z" />
    <glyph glyph-name="parenright.denominator" unicode="&#xf62d;" horiz-adv-x="204" 
d="M7 -72h-55c51 52 124 183 124 309c0 79 -20 146 -41 179h56c22 -36 41 -103 41 -179c0 -131 -68 -252 -125 -309z" />
    <glyph glyph-name="uni2190" unicode="&#x2190;" horiz-adv-x="660" 
d="M303 46l-35 -33l-240 239l240 239l35 -33l-187 -184c48 3 137 3 162 3h354v-50h-354c-25 0 -114 0 -162 3z" />
    <glyph glyph-name="uni2192" unicode="&#x2192;" horiz-adv-x="660" 
d="M392 13l-35 33l186 184c-47 -3 -136 -3 -161 -3h-354v50h354c25 0 114 0 161 -3l-186 184l35 33l240 -239z" />
    <glyph glyph-name="emdash.cap" unicode="&#xf6bc;" horiz-adv-x="840" 
d="M70 317l9 62h720l-9 -62h-720z" />
    <glyph glyph-name="endash.cap" unicode="&#xf6bb;" horiz-adv-x="556" 
d="M70 317l9 62h436l-9 -62h-436z" />
    <glyph glyph-name="exclamdown.cap" unicode="&#xf6b4;" horiz-adv-x="256" 
d="M144 586l17 102h79l-17 -102h-79zM43 0l32 184l74 315h39l-34 -315l-32 -184h-79z" />
    <glyph glyph-name="guillemotleft.cap" unicode="&#xf6b6;" horiz-adv-x="505" 
d="M377 144l-113 204l181 204h56l-163 -210l95 -198h-56zM183 144l-112 204l180 204h57l-164 -210l95 -198h-56z" />
    <glyph glyph-name="guillemotright.cap" unicode="&#xf6b7;" horiz-adv-x="505" 
d="M225 144l164 210l-95 198h56l112 -204l-180 -204h-57zM32 144l163 210l-95 198h56l113 -204l-181 -204h-56z" />
    <glyph glyph-name="guilsinglleft.cap" unicode="&#xf6b8;" horiz-adv-x="311" 
d="M183 144l-112 204l180 204h57l-164 -210l95 -198h-56z" />
    <glyph glyph-name="guilsinglright.cap" unicode="&#xf6b9;" horiz-adv-x="311" 
d="M32 144l163 210l-94 198h56l112 -204l-180 -204h-57z" />
    <glyph glyph-name="hyphen.cap" unicode="&#xf6ba;" horiz-adv-x="396" 
d="M70 317l9 62h276l-9 -62h-276z" />
    <glyph glyph-name="questiondown.cap" unicode="&#xf6b5;" horiz-adv-x="485" 
d="M259 586l15 102h79l-15 -102h-79zM23 141c0 180 205 170 228 323l4 28h68l-4 -28c-28 -189 -226 -171 -226 -317c0 -57 48 -99 115 -99c91 0 150 53 166 147h64c-13 -119 -99 -206 -236 -206c-102 0 -179 57 -179 152z" />
    <glyph glyph-name="braceleft.cap" unicode="&#xf6b2;" horiz-adv-x="358" 
d="M111 94l17 97c14 86 14 128 -85 135l6 46c87 5 119 36 134 128l16 94c16 98 63 150 172 150h52l-8 -53h-47c-65 0 -98 -33 -108 -97l-15 -94c-16 -97 -50 -130 -126 -149v-4c71 -23 87 -62 71 -156l-17 -97c-11 -67 10 -97 74 -97h47l-9 -53h-46c-109 0 -144 55 -128 150
z" />
    <glyph glyph-name="braceright.cap" unicode="&#xf6b3;" horiz-adv-x="358" 
d="M20 -3c65 0 98 33 109 97l14 101c16 97 51 130 127 149v3c-72 24 -87 63 -72 156l18 91c11 67 -11 97 -75 97h-46l9 53h46c109 0 146 -56 128 -150l-17 -91c-15 -86 -15 -127 84 -134l-6 -47c-87 -5 -118 -36 -133 -127l-16 -101c-16 -95 -61 -150 -170 -150h-55l9 53h46
z" />
    <glyph glyph-name="bracketleft.cap" unicode="&#xf6b0;" horiz-adv-x="318" 
d="M35 -56l140 800h208l-9 -56h-146l-121 -688h146l-9 -56h-209z" />
    <glyph glyph-name="bracketright.cap" unicode="&#xf6b1;" horiz-adv-x="318" 
d="M-28 0h146l121 688h-146l9 56h209l-140 -800h-208z" />
    <glyph glyph-name="parenleft.cap" unicode="&#xf6ae;" horiz-adv-x="311" 
d="M175 -56c-41 70 -80 173 -80 297c0 215 121 396 217 503h65c-96 -108 -217 -291 -217 -500c0 -120 39 -229 77 -300h-62z" />
    <glyph glyph-name="parenright.cap" unicode="&#xf6af;" horiz-adv-x="311" 
d="M-38 -56c96 108 217 291 217 500c0 120 -39 229 -77 300h62c41 -70 80 -173 80 -297c0 -215 -121 -396 -217 -503h-65z" />
    <glyph glyph-name="periodcentered.cap" unicode="&#xf6bd;" horiz-adv-x="272" 
d="M98 296l19 105h85l-19 -105h-85z" />
    <glyph glyph-name="lessequal" unicode="&#x2264;" horiz-adv-x="568" 
d="M80 308l9 56l453 183l-9 -65l-379 -148l328 -147l-12 -62zM29 0l9 59h422l-9 -59h-422z" />
    <glyph glyph-name="greaterequal" unicode="&#x2265;" horiz-adv-x="568" 
d="M108 485l12 62l390 -183l-9 -56l-453 -183l9 64l380 148zM29 0l9 59h422l-9 -59h-422z" />
    <glyph glyph-name="approxequal" unicode="&#x2248;" horiz-adv-x="568" 
d="M68 286c17 97 72 143 138 143c92 0 130 -82 195 -82c37 0 66 24 76 84h59c-17 -97 -72 -143 -138 -143c-92 0 -130 82 -195 82c-37 0 -66 -24 -76 -84h-59zM32 80c17 97 72 143 138 143c92 0 130 -82 195 -82c37 0 66 24 76 84h59c-17 -97 -72 -143 -138 -143
c-92 0 -130 82 -195 82c-37 0 -66 -24 -76 -84h-59z" />
    <glyph glyph-name="notequal" unicode="&#x2260;" horiz-adv-x="568" 
d="M68 329l9 59h268l105 144l44 -28l-85 -116h121l-9 -59h-155l-109 -150h240l-9 -59h-274l-104 -144l-44 28l84 116h-115l9 59h149l109 150h-234z" />
    <glyph glyph-name="infinity" unicode="&#x221e;" horiz-adv-x="708" 
d="M152 91c-83 0 -132 56 -132 132c0 106 80 190 180 190c77 0 130 -54 160 -118c54 64 121 118 192 118c83 0 132 -56 132 -132c0 -106 -80 -190 -180 -190c-77 0 -131 54 -161 117c-53 -63 -120 -117 -191 -117zM510 144c66 0 115 67 115 131c0 46 -26 85 -79 85
c-62 0 -120 -62 -160 -108c24 -47 62 -108 124 -108zM158 144c62 0 120 62 160 108c-24 47 -62 108 -124 108c-66 0 -115 -67 -115 -131c0 -46 26 -85 79 -85z" />
    <glyph glyph-name="lozenge" unicode="&#x25ca;" horiz-adv-x="642" 
d="M245 0l-194 344l310 344h65l194 -345l-310 -343h-65zM125 343l161 -284l259 286l-161 283z" />
    <glyph glyph-name="integral" unicode="&#x222b;" horiz-adv-x="364" 
d="M-17 -116c101 0 128 71 140 179l60 515c16 135 61 238 208 238h26l-6 -59h-20c-101 0 -127 -71 -140 -179l-60 -515c-16 -135 -61 -238 -208 -238h-26l6 59h20z" />
    <glyph glyph-name="partialdiff" unicode="&#x2202;" horiz-adv-x="568" 
d="M25 169c0 144 112 271 265 271c81 0 155 -37 169 -109c8 41 13 87 13 120c0 138 -64 189 -138 189c-90 0 -142 -54 -165 -124h-67c32 107 111 183 241 183c107 0 200 -70 200 -246c0 -34 -4 -70 -8 -105c-30 -248 -169 -359 -315 -359c-104 0 -195 66 -195 180zM230 48
c115 0 197 108 197 200c0 86 -59 133 -135 133c-103 0 -196 -84 -196 -206c0 -79 58 -127 134 -127z" />
    <glyph glyph-name="product" unicode="&#x220f;" horiz-adv-x="711" 
d="M50 0l117 688h522l-117 -688h-68l107 629h-386l-107 -629h-68z" />
    <glyph glyph-name="radical" unicode="&#x221a;" horiz-adv-x="588" 
d="M42 318l9 59l139 41l79 -343h3l322 613h71l-365 -688h-77l-88 345z" />
    <glyph glyph-name="summation" unicode="&#x2211;" horiz-adv-x="519" 
d="M-20 0l9 41l270 306l-160 295l6 46h451l-9 -59h-367l160 -288l-252 -282h375l-9 -59h-474z" />
    <glyph glyph-name="Delta" unicode="&#x2206;" horiz-adv-x="629" 
d="M-15 0l360 688h83l128 -688h-571zM373 612l-287 -553h388z" />
    <glyph glyph-name="Omega" unicode="&#x2126;" horiz-adv-x="696" 
d="M369 0l34 200c78 21 196 110 196 262c0 106 -77 178 -191 178c-142 0 -258 -111 -258 -265c0 -100 66 -159 123 -175l-34 -200h-216l9 59h151l17 106c-69 35 -124 107 -124 207c0 183 152 327 341 327c153 0 256 -100 256 -234c0 -155 -107 -259 -214 -303l-16 -103h151
l-9 -59h-216z" />
    <glyph glyph-name="pi" unicode="&#x3c0;" horiz-adv-x="579" 
d="M42 0l84 488h407l-84 -488h-68l74 429h-271l-74 -429h-68z" />
    <glyph glyph-name="afii61289" unicode="&#x2113;" horiz-adv-x="412" 
d="M129 26c-28 30 -38 77 -38 139v74l-2 1l-59 -41l-12 24c25 20 49 40 73 61v136c0 144 27 204 73 246c27 24 54 33 85 33c63 0 101 -49 101 -128c0 -132 -115 -225 -181 -277v-109c0 -108 42 -138 91 -138c47 0 83 29 118 80l22 -16c-32 -76 -91 -123 -169 -123
c-46 0 -79 14 -102 38zM171 342c62 53 121 134 121 230c0 61 -21 91 -55 91c-43 0 -68 -48 -68 -179v-141z" />
    <glyph glyph-name="Abreve" unicode="&#x102;" horiz-adv-x="631" 
d="M-29 0l372 688h86l143 -688h-74l-39 198h-309l-106 -198h-73zM377 614h-3l-191 -355h264zM402 784c-65 0 -122 34 -116 134h44c-1 -58 24 -90 75 -90c54 0 90 32 112 90h44c-29 -100 -94 -134 -159 -134z" />
    <glyph glyph-name="Amacron" unicode="&#x100;" horiz-adv-x="631" 
d="M-29 0l372 688h86l143 -688h-74l-39 198h-309l-106 -198h-73zM377 614h-3l-191 -355h264zM268 823l10 53h276l-10 -53h-276z" />
    <glyph glyph-name="Aogonek" unicode="&#x104;" horiz-adv-x="631" 
d="M434 -144c0 59 52 106 99 144h-35l-39 198h-309l-106 -198h-73l372 688h86l143 -688c-59 -53 -82 -97 -82 -130c0 -24 14 -39 52 -39h31l-10 -47h-39c-61 0 -90 30 -90 72zM377 614h-3l-191 -355h264z" />
    <glyph glyph-name="Cacute" unicode="&#x106;" horiz-adv-x="708" 
d="M55 272c0 240 159 427 380 427c155 0 254 -88 264 -223h-72c-18 100 -82 160 -201 160c-173 0 -298 -166 -298 -355c0 -132 78 -229 215 -229c119 0 190 60 240 160h72c-51 -135 -157 -223 -322 -223c-173 0 -278 122 -278 283zM428 768l134 164h81l-165 -164h-50z" />
    <glyph glyph-name="Ccaron" unicode="&#x10c;" horiz-adv-x="708" 
d="M55 272c0 240 159 427 380 427c155 0 254 -88 264 -223h-72c-18 100 -82 160 -201 160c-173 0 -298 -166 -298 -355c0 -132 78 -229 215 -229c119 0 190 60 240 160h72c-51 -135 -157 -223 -322 -223c-173 0 -278 122 -278 283zM423 768l-101 164h65l72 -121l113 121h68
l-157 -164h-60z" />
    <glyph glyph-name="Ccircumflex" unicode="&#x108;" horiz-adv-x="708" 
d="M55 272c0 240 159 427 380 427c155 0 254 -88 264 -223h-72c-18 100 -82 160 -201 160c-173 0 -298 -166 -298 -355c0 -132 78 -229 215 -229c119 0 190 60 240 160h72c-51 -135 -157 -223 -322 -223c-173 0 -278 122 -278 283zM293 768l157 164h62l99 -164h-65l-72 121
l-113 -121h-68z" />
    <glyph glyph-name="Cdotaccent" unicode="&#x10a;" horiz-adv-x="708" 
d="M55 272c0 240 159 427 380 427c155 0 254 -88 264 -223h-72c-18 100 -82 160 -201 160c-173 0 -298 -166 -298 -355c0 -132 78 -229 215 -229c119 0 190 60 240 160h72c-51 -135 -157 -223 -322 -223c-173 0 -278 122 -278 283zM426 805l15 90h68l-15 -90h-68z" />
    <glyph glyph-name="Dcaron" unicode="&#x10e;" horiz-adv-x="696" 
d="M47 0l116 688h193c205 0 313 -121 313 -286c0 -234 -163 -402 -428 -402h-194zM350 626h-127l-95 -564h119c216 0 348 143 348 337c0 128 -73 227 -245 227zM369 768l-101 164h65l72 -121l113 121h68l-157 -164h-60z" />
    <glyph glyph-name="Ebreve" unicode="&#x114;" horiz-adv-x="606" 
d="M47 0l116 688h459l-9 -62h-390l-41 -245h311l-9 -61h-312l-44 -258h395l-9 -62h-467zM407 784c-65 0 -122 34 -116 134h44c-1 -58 24 -90 75 -90c54 0 90 32 112 90h44c-29 -100 -94 -134 -159 -134z" />
    <glyph glyph-name="Ecaron" unicode="&#x11a;" horiz-adv-x="606" 
d="M47 0l116 688h459l-9 -62h-390l-41 -245h311l-9 -61h-312l-44 -258h395l-9 -62h-467zM374 768l-101 164h65l72 -121l113 121h68l-157 -164h-60z" />
    <glyph glyph-name="Edotaccent" unicode="&#x116;" horiz-adv-x="606" 
d="M47 0l116 688h459l-9 -62h-390l-41 -245h311l-9 -61h-312l-44 -258h395l-9 -62h-467zM377 805l15 90h68l-15 -90h-68z" />
    <glyph glyph-name="Emacron" unicode="&#x112;" horiz-adv-x="606" 
d="M47 0l116 688h459l-9 -62h-390l-41 -245h311l-9 -61h-312l-44 -258h395l-9 -62h-467zM273 823l10 53h276l-10 -53h-276z" />
    <glyph glyph-name="Eogonek" unicode="&#x118;" horiz-adv-x="606" 
d="M47 0l116 688h459l-9 -62h-390l-41 -245h311l-9 -61h-312l-44 -258h395l-9 -62c-59 -53 -82 -97 -82 -130c0 -24 14 -39 52 -39h31l-10 -47h-39c-61 0 -90 30 -90 72c0 59 52 106 99 144h-428z" />
    <glyph glyph-name="Gbreve" unicode="&#x11e;" horiz-adv-x="754" 
d="M585 0l7 107h-3c-64 -82 -151 -118 -256 -118c-170 0 -278 123 -278 284c0 245 170 426 391 426c168 0 259 -90 265 -213h-73c-8 80 -66 150 -201 150c-176 0 -310 -160 -310 -355c0 -132 82 -229 218 -229c120 0 242 75 266 212l6 35h-229l9 61h297l-62 -360h-47z
M467 784c-65 0 -122 34 -116 134h44c-1 -58 24 -90 75 -90c54 0 90 32 112 90h44c-29 -100 -94 -134 -159 -134z" />
    <glyph glyph-name="Gcircumflex" unicode="&#x11c;" horiz-adv-x="754" 
d="M585 0l7 107h-3c-64 -82 -151 -118 -256 -118c-170 0 -278 123 -278 284c0 245 170 426 391 426c168 0 259 -90 265 -213h-73c-8 80 -66 150 -201 150c-176 0 -310 -160 -310 -355c0 -132 82 -229 218 -229c120 0 242 75 266 212l6 35h-229l9 61h297l-62 -360h-47z
M304 768l157 164h62l99 -164h-65l-72 121l-113 -121h-68z" />
    <glyph glyph-name="Gcommaaccent" unicode="&#x122;" horiz-adv-x="754" 
d="M585 0l7 107h-3c-64 -82 -151 -118 -256 -118c-170 0 -278 123 -278 284c0 245 170 426 391 426c168 0 259 -90 265 -213h-73c-8 80 -66 150 -201 150c-176 0 -310 -160 -310 -355c0 -132 82 -229 218 -229c120 0 242 75 266 212l6 35h-229l9 61h297l-62 -360h-47z
M286 -66h68l-13 -74l-53 -103h-31l42 97h-27z" />
    <glyph glyph-name="Gdotaccent" unicode="&#x120;" horiz-adv-x="754" 
d="M585 0l7 107h-3c-64 -82 -151 -118 -256 -118c-170 0 -278 123 -278 284c0 245 170 426 391 426c168 0 259 -90 265 -213h-73c-8 80 -66 150 -201 150c-176 0 -310 -160 -310 -355c0 -132 82 -229 218 -229c120 0 242 75 266 212l6 35h-229l9 61h297l-62 -360h-47z
M437 805l15 90h68l-15 -90h-68z" />
    <glyph glyph-name="Hcircumflex" unicode="&#x124;" horiz-adv-x="716" 
d="M47 0l116 688h71l-52 -308h392l52 308h71l-116 -688h-71l53 318h-392l-53 -318h-71zM283 768l157 164h62l99 -164h-65l-72 121l-113 -121h-68z" />
    <glyph glyph-name="Ibreve" unicode="&#x12c;" horiz-adv-x="253" 
d="M47 0l116 688h71l-116 -688h-71zM213 784c-65 0 -122 34 -116 134h44c-1 -58 24 -90 75 -90c54 0 90 32 112 90h44c-29 -100 -94 -134 -159 -134z" />
    <glyph glyph-name="Idotaccent" unicode="&#x130;" horiz-adv-x="253" 
d="M47 0l116 688h71l-116 -688h-71zM183 805l15 90h68l-15 -90h-68z" />
    <glyph glyph-name="Imacron" unicode="&#x12a;" horiz-adv-x="253" 
d="M47 0l116 688h71l-116 -688h-71zM79 823l10 53h276l-10 -53h-276z" />
    <glyph glyph-name="Iogonek" unicode="&#x12e;" horiz-adv-x="253" 
d="M47 0l116 688h71l-116 -688c-59 -53 -82 -97 -82 -130c0 -24 14 -39 52 -39h31l-10 -47h-39c-61 0 -90 30 -90 72c0 59 52 106 99 144h-32z" />
    <glyph glyph-name="Itilde" unicode="&#x128;" horiz-adv-x="253" 
d="M47 0l116 688h71l-116 -688h-71zM62 800c13 54 46 99 102 99s89 -51 126 -51c31 0 47 24 55 52h41c-12 -53 -46 -99 -102 -99s-89 51 -126 51c-30 0 -46 -24 -55 -52h-41z" />
    <glyph glyph-name="Jcircumflex" unicode="&#x134;" horiz-adv-x="513" 
d="M199 -11c-118 0 -192 57 -165 204l6 35h71l-7 -35c-18 -101 22 -142 99 -142s130 45 148 148l84 489h71l-84 -489c-26 -152 -107 -210 -223 -210zM325 768l157 164h62l99 -164h-65l-72 121l-113 -121h-68z" />
    <glyph glyph-name="Kcommaaccent" unicode="&#x136;" horiz-adv-x="649" 
d="M46 0l117 688h71l-67 -393l432 393h86l-329 -300l224 -388h-77l-198 341l-154 -140l-34 -201h-71zM260 -66h68l-13 -74l-53 -103h-31l42 97h-27z" />
    <glyph glyph-name="Lacute" unicode="&#x139;" horiz-adv-x="541" 
d="M47 0l116 688h71l-106 -626h350l-9 -62h-422zM185 768l134 164h81l-165 -164h-50z" />
    <glyph glyph-name="Lcaron" unicode="&#x13d;" horiz-adv-x="541" 
d="M47 0l116 688h71l-106 -626h350l-9 -62h-422zM365 484l48 115h-30l14 89h74l-14 -83l-58 -121h-34z" />
    <glyph glyph-name="Lcommaaccent" unicode="&#x13b;" horiz-adv-x="541" 
d="M47 0l116 688h71l-106 -626h350l-9 -62h-422zM214 -66h68l-13 -74l-53 -103h-31l42 97h-27z" />
    <glyph glyph-name="Ldot" unicode="&#x13f;" horiz-adv-x="541" 
d="M47 0l116 688h71l-106 -626h350l-9 -62h-422zM309 304l15 96h74l-15 -96h-74z" />
    <glyph glyph-name="Nacute" unicode="&#x143;" horiz-adv-x="723" 
d="M47 0l116 688h64l308 -568h3l95 568h71l-116 -688h-65l-308 568h-2l-95 -568h-71zM422 768l134 164h81l-165 -164h-50z" />
    <glyph glyph-name="Ncaron" unicode="&#x147;" horiz-adv-x="723" 
d="M47 0l116 688h64l308 -568h3l95 568h71l-116 -688h-65l-308 568h-2l-95 -568h-71zM417 768l-101 164h65l72 -121l113 121h68l-157 -164h-60z" />
    <glyph glyph-name="Ncommaaccent" unicode="&#x145;" horiz-adv-x="723" 
d="M47 0l116 688h64l308 -568h3l95 568h71l-116 -688h-65l-308 568h-2l-95 -568h-71zM268 -66h68l-13 -74l-53 -103h-31l42 97h-27z" />
    <glyph glyph-name="Obreve" unicode="&#x14e;" horiz-adv-x="754" 
d="M56 277c0 239 172 422 389 422c170 0 282 -123 282 -288c0 -239 -173 -422 -391 -422c-169 0 -280 123 -280 288zM129 280c0 -134 81 -228 217 -228c170 0 309 158 309 356c0 134 -83 228 -219 228c-171 0 -307 -158 -307 -356zM463 784c-65 0 -122 34 -116 134h44
c-1 -58 24 -90 75 -90c54 0 90 32 112 90h44c-29 -100 -94 -134 -159 -134z" />
    <glyph glyph-name="Ohungarumlaut" unicode="&#x150;" horiz-adv-x="754" 
d="M56 277c0 239 172 422 389 422c170 0 282 -123 282 -288c0 -239 -173 -422 -391 -422c-169 0 -280 123 -280 288zM129 280c0 -134 81 -228 217 -228c170 0 309 158 309 356c0 134 -83 228 -219 228c-171 0 -307 -158 -307 -356zM521 768l134 164h80l-164 -164h-50z
M344 768l134 164h80l-164 -164h-50z" />
    <glyph glyph-name="Omacron" unicode="&#x14c;" horiz-adv-x="754" 
d="M56 277c0 239 172 422 389 422c170 0 282 -123 282 -288c0 -239 -173 -422 -391 -422c-169 0 -280 123 -280 288zM129 280c0 -134 81 -228 217 -228c170 0 309 158 309 356c0 134 -83 228 -219 228c-171 0 -307 -158 -307 -356zM329 823l10 53h276l-10 -53h-276z" />
    <glyph glyph-name="Oslashacute" unicode="&#x1fe;" horiz-adv-x="754" 
d="M56 277c0 239 172 422 389 422c79 0 145 -27 194 -72l72 73h60l-103 -105c37 -49 58 -113 58 -184c0 -239 -173 -422 -390 -422c-79 0 -146 27 -194 72l-71 -73h-60l103 105c-37 49 -58 112 -58 184zM654 408c0 52 -13 99 -37 136l-426 -434c37 -37 89 -58 154 -58
c171 0 309 158 309 356zM128 280c0 -53 12 -99 36 -136l426 433c-37 37 -89 59 -154 59c-171 0 -308 -158 -308 -356zM430 768l134 164h81l-165 -164h-50z" />
    <glyph glyph-name="Racute" unicode="&#x154;" horiz-adv-x="645" 
d="M47 0l116 688h257c136 0 204 -62 204 -166c0 -125 -81 -215 -206 -236l137 -286h-76l-132 281h-182l-47 -281h-71zM414 626h-191l-47 -283h193c112 0 181 73 181 173c0 66 -47 110 -136 110zM363 768l134 164h81l-165 -164h-50z" />
    <glyph glyph-name="Rcaron" unicode="&#x158;" horiz-adv-x="645" 
d="M47 0l116 688h257c136 0 204 -62 204 -166c0 -125 -81 -215 -206 -236l137 -286h-76l-132 281h-182l-47 -281h-71zM414 626h-191l-47 -283h193c112 0 181 73 181 173c0 66 -47 110 -136 110zM358 768l-101 164h65l72 -121l113 121h68l-157 -164h-60z" />
    <glyph glyph-name="Rcommaaccent" unicode="&#x156;" horiz-adv-x="645" 
d="M47 0l116 688h257c136 0 204 -62 204 -166c0 -125 -81 -215 -206 -236l137 -286h-76l-132 281h-182l-47 -281h-71zM414 626h-191l-47 -283h193c112 0 181 73 181 173c0 66 -47 110 -136 110zM243 -67h68l-13 -74l-53 -103h-31l42 97h-27z" />
    <glyph glyph-name="Sacute" unicode="&#x15a;" horiz-adv-x="638" 
d="M48 192h67c-16 -91 48 -144 174 -144c123 0 202 52 202 143c0 190 -375 60 -375 309c0 119 103 199 270 199c147 0 239 -69 219 -190h-67c13 85 -53 131 -160 131c-112 0 -190 -49 -190 -131c0 -188 377 -58 377 -309c0 -134 -110 -211 -281 -211
c-172 0 -260 83 -236 203zM369 768l134 164h81l-165 -164h-50z" />
    <glyph glyph-name="Scedilla" unicode="&#x15e;" horiz-adv-x="638" 
d="M234 -78l37 67c-164 4 -247 86 -223 203h67c-16 -91 48 -144 174 -144c123 0 202 52 202 143c0 190 -375 60 -375 309c0 119 103 199 270 199c147 0 239 -69 219 -190h-67c13 85 -53 131 -160 131c-112 0 -190 -49 -190 -131c0 -188 377 -58 377 -309
c0 -130 -104 -206 -266 -211l-10 -29c53 -3 79 -32 79 -70c0 -63 -47 -106 -127 -106h-53l9 44h47c42 0 69 21 69 56c0 25 -20 38 -54 38h-25z" />
    <glyph glyph-name="Scircumflex" unicode="&#x15c;" horiz-adv-x="638" 
d="M48 192h67c-16 -91 48 -144 174 -144c123 0 202 52 202 143c0 190 -375 60 -375 309c0 119 103 199 270 199c147 0 239 -69 219 -190h-67c13 85 -53 131 -160 131c-112 0 -190 -49 -190 -131c0 -188 377 -58 377 -309c0 -134 -110 -211 -281 -211
c-172 0 -260 83 -236 203zM234 768l157 164h62l99 -164h-65l-72 121l-113 -121h-68z" />
    <glyph glyph-name="Scommaaccent" unicode="&#x218;" horiz-adv-x="638" 
d="M48 192h67c-16 -91 48 -144 174 -144c123 0 202 52 202 143c0 190 -375 60 -375 309c0 119 103 199 270 199c147 0 239 -69 219 -190h-67c13 85 -53 131 -160 131c-112 0 -190 -49 -190 -131c0 -188 377 -58 377 -309c0 -134 -110 -211 -281 -211
c-172 0 -260 83 -236 203zM244 -66h68l-13 -74l-53 -103h-31l42 97h-27z" />
    <glyph glyph-name="Tcaron" unicode="&#x164;" horiz-adv-x="579" 
d="M68 628l12 60h563l-12 -60h-244l-106 -628h-71l106 628h-248zM343 768l-101 164h65l72 -121l113 121h68l-157 -164h-60z" />
    <glyph glyph-name="Tcommaaccent" unicode="&#x162;" horiz-adv-x="579" 
d="M191 -78l43 78h-24l106 628h-248l12 60h563l-12 -60h-244l-106 -628h-21l-14 -40c53 -3 79 -32 79 -70c0 -63 -47 -106 -127 -106h-53l9 44h47c42 0 69 21 69 56c0 25 -20 38 -54 38h-25z" />
    <glyph glyph-name="Ubreve" unicode="&#x16c;" horiz-adv-x="690" 
d="M77 271l72 417h71l-72 -417c-24 -140 24 -217 158 -217c128 0 212 77 236 217l72 417h71l-72 -417c-34 -200 -155 -282 -313 -282s-257 85 -223 282zM433 784c-65 0 -122 34 -116 134h44c-1 -58 24 -90 75 -90c54 0 90 32 112 90h44c-29 -100 -94 -134 -159 -134z" />
    <glyph glyph-name="Uhungarumlaut" unicode="&#x170;" horiz-adv-x="690" 
d="M77 271l72 417h71l-72 -417c-24 -140 24 -217 158 -217c128 0 212 77 236 217l72 417h71l-72 -417c-34 -200 -155 -282 -313 -282s-257 85 -223 282zM491 768l134 164h80l-164 -164h-50zM314 768l134 164h80l-164 -164h-50z" />
    <glyph glyph-name="Umacron" unicode="&#x16a;" horiz-adv-x="690" 
d="M77 271l72 417h71l-72 -417c-24 -140 24 -217 158 -217c128 0 212 77 236 217l72 417h71l-72 -417c-34 -200 -155 -282 -313 -282s-257 85 -223 282zM299 823l10 53h276l-10 -53h-276z" />
    <glyph glyph-name="Uogonek" unicode="&#x172;" horiz-adv-x="688" 
d="M77 271l72 417h71l-72 -417c-24 -140 24 -217 158 -217c128 0 212 77 236 217l72 417h71l-72 -417c-22 -126 -78 -203 -155 -246c-72 -40 -151 -98 -151 -152c0 -25 17 -42 55 -42h30l-8 -47h-40c-61 0 -93 26 -93 73c0 59 50 103 105 136c-18 -2 -37 -4 -56 -4
c-158 0 -257 85 -223 282z" />
    <glyph glyph-name="Uring" unicode="&#x16e;" horiz-adv-x="690" 
d="M77 271l72 417h71l-72 -417c-24 -140 24 -217 158 -217c128 0 212 77 236 217l72 417h71l-72 -417c-34 -200 -155 -282 -313 -282s-257 85 -223 282zM432 765c-48 0 -85 30 -85 78c0 67 54 108 109 108c48 0 85 -31 85 -78c0 -67 -54 -108 -109 -108zM434 800
c37 0 67 29 67 71c0 28 -19 45 -47 45c-38 0 -68 -29 -68 -71c0 -27 19 -45 48 -45z" />
    <glyph glyph-name="Utilde" unicode="&#x168;" horiz-adv-x="690" 
d="M77 271l72 417h71l-72 -417c-24 -140 24 -217 158 -217c128 0 212 77 236 217l72 417h71l-72 -417c-34 -200 -155 -282 -313 -282s-257 85 -223 282zM282 800c13 54 46 99 102 99s89 -51 126 -51c31 0 47 24 55 52h41c-12 -53 -46 -99 -102 -99s-89 51 -126 51
c-30 0 -46 -24 -55 -52h-41z" />
    <glyph glyph-name="Wacute" unicode="&#x1e82;" horiz-adv-x="918" 
d="M152 0l-64 688h68l54 -614h3l275 614h88l68 -614h3l262 614h68l-296 -688h-94l-68 607h-3l-271 -607h-93zM516 768l134 164h81l-165 -164h-50z" />
    <glyph glyph-name="Wcircumflex" unicode="&#x174;" horiz-adv-x="918" 
d="M152 0l-64 688h68l54 -614h3l275 614h88l68 -614h3l262 614h68l-296 -688h-94l-68 607h-3l-271 -607h-93zM381 768l157 164h62l99 -164h-65l-72 121l-113 -121h-68z" />
    <glyph glyph-name="Wdieresis" unicode="&#x1e84;" horiz-adv-x="918" 
d="M152 0l-64 688h68l54 -614h3l275 614h88l68 -614h3l262 614h68l-296 -688h-94l-68 607h-3l-271 -607h-93zM613 805l16 90h67l-15 -90h-68zM416 805l15 90h68l-15 -90h-68z" />
    <glyph glyph-name="Wgrave" unicode="&#x1e80;" horiz-adv-x="918" 
d="M152 0l-64 688h68l54 -614h3l275 614h88l68 -614h3l262 614h68l-296 -688h-94l-68 607h-3l-271 -607h-93zM520 768l-108 164h74l78 -164h-44z" />
    <glyph glyph-name="Ycircumflex" unicode="&#x176;" horiz-adv-x="594" 
d="M213 0l51 286l-173 402h74l145 -341h3l265 341h75l-319 -407l-50 -281h-71zM225 768l157 164h62l99 -164h-65l-72 121l-113 -121h-68z" />
    <glyph glyph-name="Ygrave" unicode="&#x1ef2;" horiz-adv-x="594" 
d="M213 0l51 286l-173 402h74l145 -341h3l265 341h75l-319 -407l-50 -281h-71zM364 768l-108 164h74l78 -164h-44z" />
    <glyph glyph-name="Zacute" unicode="&#x179;" horiz-adv-x="575" 
d="M117 628l12 60h478l-6 -46l-509 -582h407l-12 -60h-494l6 46l509 582h-391zM355 768l134 164h81l-165 -164h-50z" />
    <glyph glyph-name="Zdotaccent" unicode="&#x17b;" horiz-adv-x="575" 
d="M117 628l12 60h478l-6 -46l-509 -582h407l-12 -60h-494l6 46l509 582h-391zM353 805l15 90h68l-15 -90h-68z" />
    <glyph glyph-name="AEacute" unicode="&#x1fc;" horiz-adv-x="1048" 
d="M-33 0l617 688h480l-9 -62h-387l-41 -245h308l-9 -61h-309l-44 -258h392l-9 -62h-464l27 163h-323l-146 -163h-83zM592 606l-341 -381h279l64 381h-2zM634 768l134 164h81l-165 -164h-50z" />
    <glyph glyph-name="abreve" unicode="&#x103;" horiz-adv-x="517" 
d="M29 117c0 100 74 142 172 154l107 13c51 7 76 18 80 43c9 69 -24 116 -103 116c-76 0 -123 -38 -139 -107h-65c20 99 92 163 210 163c114 0 184 -61 161 -196l-52 -303h-65l13 81h-2c-34 -60 -93 -92 -170 -92c-93 0 -147 53 -147 128zM97 123c0 -47 33 -78 90 -78
c84 0 160 46 180 163l10 58c-11 -16 -31 -24 -60 -28l-107 -14c-71 -9 -113 -41 -113 -101zM305 584c-65 0 -122 34 -116 134h44c-1 -58 24 -90 75 -90c54 0 90 32 112 90h44c-29 -100 -94 -134 -159 -134z" />
    <glyph glyph-name="amacron" unicode="&#x101;" horiz-adv-x="517" 
d="M29 117c0 100 74 142 172 154l107 13c51 7 76 18 80 43c9 69 -24 116 -103 116c-76 0 -123 -38 -139 -107h-65c20 99 92 163 210 163c114 0 184 -61 161 -196l-52 -303h-65l13 81h-2c-34 -60 -93 -92 -170 -92c-93 0 -147 53 -147 128zM97 123c0 -47 33 -78 90 -78
c84 0 160 46 180 163l10 58c-11 -16 -31 -24 -60 -28l-107 -14c-71 -9 -113 -41 -113 -101zM171 623l10 53h276l-10 -53h-276z" />
    <glyph glyph-name="aogonek" unicode="&#x105;" horiz-adv-x="517" 
d="M265 -144c0 59 52 106 99 144h-29l13 81h-2c-34 -60 -93 -92 -170 -92c-93 0 -147 53 -147 128c0 100 74 142 172 154l107 13c51 7 76 18 80 43c9 69 -24 116 -103 116c-76 0 -123 -38 -139 -107h-65c20 99 92 163 210 163c114 0 184 -61 161 -196l-52 -303h3
c-59 -53 -82 -97 -82 -130c0 -24 14 -39 52 -39h31l-10 -47h-39c-61 0 -90 30 -90 72zM97 123c0 -47 33 -78 90 -78c84 0 160 46 180 163l10 58c-11 -16 -31 -24 -60 -28l-107 -14c-71 -9 -113 -41 -113 -101z" />
    <glyph glyph-name="cacute" unicode="&#x107;" horiz-adv-x="509" 
d="M35 196c0 26 3 50 8 75c26 124 115 228 258 228c100 0 179 -58 182 -172h-68c-4 66 -48 113 -123 113c-89 0 -156 -69 -178 -169c-5 -22 -8 -47 -8 -72c0 -91 49 -151 134 -151c70 0 122 50 149 113h68c-32 -101 -111 -172 -230 -172c-126 0 -192 92 -192 207zM291 568
l134 164h81l-165 -164h-50z" />
    <glyph glyph-name="ccaron" unicode="&#x10d;" horiz-adv-x="509" 
d="M35 196c0 26 3 50 8 75c26 124 115 228 258 228c100 0 179 -58 182 -172h-68c-4 66 -48 113 -123 113c-89 0 -156 -69 -178 -169c-5 -22 -8 -47 -8 -72c0 -91 49 -151 134 -151c70 0 122 50 149 113h68c-32 -101 -111 -172 -230 -172c-126 0 -192 92 -192 207zM286 568
l-101 164h65l72 -121l113 121h68l-157 -164h-60z" />
    <glyph glyph-name="ccircumflex" unicode="&#x109;" horiz-adv-x="509" 
d="M35 196c0 26 3 50 8 75c26 124 115 228 258 228c100 0 179 -58 182 -172h-68c-4 66 -48 113 -123 113c-89 0 -156 -69 -178 -169c-5 -22 -8 -47 -8 -72c0 -91 49 -151 134 -151c70 0 122 50 149 113h68c-32 -101 -111 -172 -230 -172c-126 0 -192 92 -192 207zM156 568
l157 164h62l99 -164h-65l-72 121l-113 -121h-68z" />
    <glyph glyph-name="cdotaccent" unicode="&#x10b;" horiz-adv-x="509" 
d="M35 196c0 26 3 50 8 75c26 124 115 228 258 228c100 0 179 -58 182 -172h-68c-4 66 -48 113 -123 113c-89 0 -156 -69 -178 -169c-5 -22 -8 -47 -8 -72c0 -91 49 -151 134 -151c70 0 122 50 149 113h68c-32 -101 -111 -172 -230 -172c-126 0 -192 92 -192 207zM289 605
l15 90h68l-15 -90h-68z" />
    <glyph glyph-name="dcaron" unicode="&#x10f;" horiz-adv-x="576" 
d="M35 193c0 181 116 306 255 306c87 0 143 -40 161 -99h2c5 46 26 166 30 190l25 142h68l-124 -732h-66l12 71h-3c-41 -54 -104 -82 -171 -82c-115 0 -189 81 -189 204zM106 199c0 -92 50 -151 133 -151c116 0 186 120 186 241c0 92 -49 151 -132 151
c-116 0 -187 -120 -187 -241zM628 528l48 115h-30l14 89h73l-14 -83l-57 -121h-34z" />
    <glyph glyph-name="ebreve" unicode="&#x115;" horiz-adv-x="517" 
d="M35 199c0 26 3 50 8 74c27 138 132 226 254 226c139 0 214 -110 178 -260h-367c-2 -13 -2 -27 -2 -40c0 -92 51 -151 135 -151c66 0 121 39 148 100h68c-36 -98 -115 -159 -228 -159c-121 0 -194 87 -194 210zM292 440c-80 0 -147 -59 -174 -150h294c0 8 1 16 1 23
c-1 85 -49 127 -121 127zM314 584c-65 0 -122 34 -116 134h44c-1 -58 24 -90 75 -90c54 0 90 32 112 90h44c-29 -100 -94 -134 -159 -134z" />
    <glyph glyph-name="ecaron" unicode="&#x11b;" horiz-adv-x="517" 
d="M35 199c0 26 3 50 8 74c27 138 132 226 254 226c139 0 214 -110 178 -260h-367c-2 -13 -2 -27 -2 -40c0 -92 51 -151 135 -151c66 0 121 39 148 100h68c-36 -98 -115 -159 -228 -159c-121 0 -194 87 -194 210zM292 440c-80 0 -147 -59 -174 -150h294c0 8 1 16 1 23
c-1 85 -49 127 -121 127zM281 568l-101 164h65l72 -121l113 121h68l-157 -164h-60z" />
    <glyph glyph-name="edotaccent" unicode="&#x117;" horiz-adv-x="517" 
d="M35 199c0 26 3 50 8 74c27 138 132 226 254 226c139 0 214 -110 178 -260h-367c-2 -13 -2 -27 -2 -40c0 -92 51 -151 135 -151c66 0 121 39 148 100h68c-36 -98 -115 -159 -228 -159c-121 0 -194 87 -194 210zM292 440c-80 0 -147 -59 -174 -150h294c0 8 1 16 1 23
c-1 85 -49 127 -121 127zM284 605l15 90h68l-15 -90h-68z" />
    <glyph glyph-name="emacron" unicode="&#x113;" horiz-adv-x="517" 
d="M35 199c0 26 3 50 8 74c27 138 132 226 254 226c139 0 214 -110 178 -260h-367c-2 -13 -2 -27 -2 -40c0 -92 51 -151 135 -151c66 0 121 39 148 100h68c-36 -98 -115 -159 -228 -159c-121 0 -194 87 -194 210zM292 440c-80 0 -147 -59 -174 -150h294c0 8 1 16 1 23
c-1 85 -49 127 -121 127zM180 623l10 53h276l-10 -53h-276z" />
    <glyph glyph-name="eogonek" unicode="&#x119;" horiz-adv-x="517" 
d="M35 199c0 26 3 50 8 74c27 138 132 226 254 226c139 0 214 -110 178 -260h-367c-2 -13 -2 -27 -2 -40c0 -92 51 -151 135 -151c66 0 121 39 148 100h68c-22 -58 -60 -101 -108 -131c-62 -38 -135 -100 -135 -148c0 -23 15 -38 54 -38h30l-7 -47h-40c-61 0 -93 24 -93 71
c0 57 49 100 100 136c-9 -1 -19 -2 -29 -2c-121 0 -194 87 -194 210zM288 440c-76 0 -143 -59 -170 -150h294c0 8 1 16 1 23c-1 85 -49 127 -125 127z" />
    <glyph glyph-name="gbreve" unicode="&#x11f;" horiz-adv-x="576" 
d="M9 -60h64c-13 -70 42 -112 127 -112c93 0 163 45 186 175l13 72h-3c-41 -57 -104 -86 -172 -86c-115 0 -189 81 -189 204c0 181 116 306 255 306c87 0 143 -40 161 -99h2l15 88h66l-81 -485c-29 -168 -122 -231 -259 -231c-120 0 -204 62 -185 168zM106 199
c0 -92 50 -151 133 -151c116 0 186 120 186 241c0 92 -49 151 -132 151c-116 0 -187 -120 -187 -241zM313 584c-65 0 -122 34 -116 134h44c-1 -58 24 -90 75 -90c54 0 90 32 112 90h44c-29 -100 -94 -134 -159 -134z" />
    <glyph glyph-name="gcircumflex" unicode="&#x11d;" horiz-adv-x="576" 
d="M9 -60h64c-13 -70 42 -112 127 -112c93 0 163 45 186 175l13 72h-3c-41 -57 -104 -86 -172 -86c-115 0 -189 81 -189 204c0 181 116 306 255 306c87 0 143 -40 161 -99h2l15 88h66l-81 -485c-29 -168 -122 -231 -259 -231c-120 0 -204 62 -185 168zM106 199
c0 -92 50 -151 133 -151c116 0 186 120 186 241c0 92 -49 151 -132 151c-116 0 -187 -120 -187 -241zM150 568l157 164h62l99 -164h-65l-72 121l-113 -121h-68z" />
    <glyph glyph-name="gcommaaccent" unicode="&#x123;" horiz-adv-x="576" 
d="M9 -60h64c-13 -70 42 -112 127 -112c93 0 163 45 186 175l13 72h-3c-41 -57 -104 -86 -172 -86c-115 0 -189 81 -189 204c0 181 116 306 255 306c87 0 143 -40 161 -99h2l15 88h66l-81 -485c-29 -168 -122 -231 -259 -231c-120 0 -204 62 -185 168zM106 199
c0 -92 50 -151 133 -151c116 0 186 120 186 241c0 92 -49 151 -132 151c-116 0 -187 -120 -187 -241zM275 568l13 74l53 103h31l-43 -97h28l-14 -80h-68z" />
    <glyph glyph-name="gdotaccent" unicode="&#x121;" horiz-adv-x="576" 
d="M9 -60h64c-13 -70 42 -112 127 -112c93 0 163 45 186 175l13 72h-3c-41 -57 -104 -86 -172 -86c-115 0 -189 81 -189 204c0 181 116 306 255 306c87 0 143 -40 161 -99h2l15 88h66l-81 -485c-29 -168 -122 -231 -259 -231c-120 0 -204 62 -185 168zM106 199
c0 -92 50 -151 133 -151c116 0 186 120 186 241c0 92 -49 151 -132 151c-116 0 -187 -120 -187 -241zM283 605l15 90h68l-15 -90h-68z" />
    <glyph glyph-name="hcircumflex" unicode="&#x125;" horiz-adv-x="561" 
d="M36 0l124 732h68l-26 -153c-8 -44 -22 -130 -31 -171h3c38 62 95 91 167 91c100 0 175 -60 151 -202l-51 -297h-68l49 290c18 106 -20 150 -99 150c-78 0 -154 -64 -176 -190l-43 -250h-68zM44 812l157 164h62l99 -164h-65l-72 121l-113 -121h-68z" />
    <glyph glyph-name="ibreve" unicode="&#x12d;" horiz-adv-x="228" 
d="M36 0l84 488h67l-83 -488h-68zM170 584c-65 0 -122 34 -116 134h44c-1 -58 24 -90 75 -90c54 0 90 32 112 90h44c-29 -100 -94 -134 -159 -134z" />
    <glyph glyph-name="imacron" unicode="&#x12b;" horiz-adv-x="228" 
d="M36 0l84 488h67l-83 -488h-68zM36 623l10 53h276l-10 -53h-276z" />
    <glyph glyph-name="iogonek" unicode="&#x12f;" horiz-adv-x="228" 
d="M36 0l84 488h67l-83 -488c-59 -53 -82 -97 -82 -130c0 -24 14 -39 52 -39h31l-10 -47h-39c-61 0 -90 30 -90 72c0 59 52 106 99 144h-29zM141 636l16 96h73l-15 -96h-74z" />
    <glyph glyph-name="itilde" unicode="&#x129;" horiz-adv-x="228" 
d="M36 0l84 488h67l-83 -488h-68zM19 600c13 54 46 99 102 99s89 -51 126 -51c31 0 47 24 55 52h41c-12 -53 -46 -99 -102 -99s-89 51 -126 51c-30 0 -46 -24 -55 -52h-41z" />
    <glyph glyph-name="jcircumflex" unicode="&#x135;" horiz-adv-x="228" 
d="M21 -84l99 572h67l-100 -584c-13 -76 -59 -124 -147 -124h-30l9 59h27c44 0 66 23 75 77zM7 568l157 164h62l99 -164h-65l-72 121l-113 -121h-68z" />
    <glyph glyph-name="kcommaaccent" unicode="&#x137;" horiz-adv-x="496" 
d="M36 0l124 732h68l-85 -503l280 259h84l-220 -201l152 -287h-75l-127 242l-109 -100l-24 -142h-68zM185 -66h68l-13 -74l-53 -103h-31l42 97h-27z" />
    <glyph glyph-name="lacute" unicode="&#x13a;" horiz-adv-x="228" 
d="M36 0l124 732h68l-124 -732h-68zM182 812l134 164h81l-165 -164h-50z" />
    <glyph glyph-name="lcaron" unicode="&#x13e;" horiz-adv-x="228" 
d="M280 528l48 115h-30l14 89h73l-14 -83l-57 -121h-34zM36 0l124 732h68l-124 -732h-68z" />
    <glyph glyph-name="lcommaaccent" unicode="&#x13c;" horiz-adv-x="228" 
d="M36 0l124 732h68l-124 -732h-68zM24 -66h68l-13 -74l-53 -103h-31l42 97h-27z" />
    <glyph glyph-name="ldot" unicode="&#x140;" horiz-adv-x="290" 
d="M36 0l124 732h68l-124 -732h-68zM230 292l15 96h73l-15 -96h-73z" />
    <glyph glyph-name="nacute" unicode="&#x144;" horiz-adv-x="561" 
d="M36 0l84 488h65l-15 -84h1c39 65 97 95 170 95c100 0 175 -60 151 -202l-51 -297h-68l49 290c18 106 -20 150 -99 150c-78 0 -154 -65 -176 -190l-43 -250h-68zM309 568l134 164h81l-165 -164h-50z" />
    <glyph glyph-name="ncaron" unicode="&#x148;" horiz-adv-x="561" 
d="M36 0l84 488h65l-15 -84h1c39 65 97 95 170 95c100 0 175 -60 151 -202l-51 -297h-68l49 290c18 106 -20 150 -99 150c-78 0 -154 -65 -176 -190l-43 -250h-68zM304 568l-101 164h65l72 -121l113 121h68l-157 -164h-60z" />
    <glyph glyph-name="ncommaaccent" unicode="&#x146;" horiz-adv-x="561" 
d="M36 0l84 488h65l-15 -84h1c39 65 97 95 170 95c100 0 175 -60 151 -202l-51 -297h-68l49 290c18 106 -20 150 -99 150c-78 0 -154 -65 -176 -190l-43 -250h-68zM191 -66h68l-13 -74l-53 -103h-31l42 97h-27z" />
    <glyph glyph-name="obreve" unicode="&#x14f;" horiz-adv-x="550" 
d="M35 196c0 19 2 39 5 58c22 131 118 245 266 245c124 0 201 -83 201 -207c0 -19 -2 -39 -5 -58c-22 -131 -117 -245 -266 -245c-124 0 -201 83 -201 207zM106 199c0 -92 53 -151 136 -151c92 0 169 76 189 186c4 17 5 36 5 55c0 92 -53 151 -136 151
c-92 0 -169 -76 -189 -186c-4 -17 -5 -36 -5 -55zM327 584c-65 0 -122 34 -116 134h44c-1 -58 24 -90 75 -90c54 0 90 32 112 90h44c-29 -100 -94 -134 -159 -134z" />
    <glyph glyph-name="ohungarumlaut" unicode="&#x151;" horiz-adv-x="550" 
d="M35 196c0 19 2 39 5 58c22 131 118 245 266 245c124 0 201 -83 201 -207c0 -19 -2 -39 -5 -58c-22 -131 -117 -245 -266 -245c-124 0 -201 83 -201 207zM106 199c0 -92 53 -151 136 -151c92 0 169 76 189 186c4 17 5 36 5 55c0 92 -53 151 -136 151
c-92 0 -169 -76 -189 -186c-4 -17 -5 -36 -5 -55zM385 568l134 164h80l-164 -164h-50zM208 568l134 164h80l-164 -164h-50z" />
    <glyph glyph-name="omacron" unicode="&#x14d;" horiz-adv-x="550" 
d="M35 196c0 19 2 39 5 58c22 131 118 245 266 245c124 0 201 -83 201 -207c0 -19 -2 -39 -5 -58c-22 -131 -117 -245 -266 -245c-124 0 -201 83 -201 207zM106 199c0 -92 53 -151 136 -151c92 0 169 76 189 186c4 17 5 36 5 55c0 92 -53 151 -136 151
c-92 0 -169 -76 -189 -186c-4 -17 -5 -36 -5 -55zM193 623l10 53h276l-10 -53h-276z" />
    <glyph glyph-name="oslashacute" unicode="&#x1ff;" horiz-adv-x="550" 
d="M35 193c0 21 2 41 5 61c24 147 134 245 269 245c57 0 104 -18 138 -49l49 50h51l-76 -78c23 -34 36 -77 36 -127c0 -21 -2 -41 -5 -61c-24 -147 -134 -245 -269 -245c-57 0 -104 17 -138 48l-48 -49h-51l75 77c-23 34 -36 77 -36 128zM106 199c0 -32 5 -59 16 -82
l277 283c-23 26 -56 40 -97 40c-90 0 -171 -76 -191 -186c-4 -17 -5 -36 -5 -55zM436 289c0 31 -6 58 -17 80l-276 -283c23 -25 56 -38 97 -38c90 0 171 76 191 186c4 17 5 36 5 55zM299 568l134 164h81l-165 -164h-50z" />
    <glyph glyph-name="racute" unicode="&#x155;" horiz-adv-x="356" 
d="M36 0l84 488h64l-14 -80h3c30 56 80 91 143 91c20 0 47 -3 68 -20l-31 -61c-20 12 -38 16 -60 16c-78 0 -130 -88 -147 -187l-42 -247h-68zM238 568l134 164h81l-165 -164h-50z" />
    <glyph glyph-name="rcaron" unicode="&#x159;" horiz-adv-x="356" 
d="M36 0l84 488h64l-14 -80h3c30 56 80 91 143 91c20 0 47 -3 68 -20l-31 -61c-20 12 -38 16 -60 16c-78 0 -130 -88 -147 -187l-42 -247h-68zM233 568l-101 164h65l72 -121l113 121h68l-157 -164h-60z" />
    <glyph glyph-name="rcommaaccent" unicode="&#x157;" horiz-adv-x="356" 
d="M36 0l84 488h64l-14 -80h3c30 56 80 91 143 91c20 0 47 -3 68 -20l-31 -61c-20 12 -38 16 -60 16c-78 0 -130 -88 -147 -187l-42 -247h-68zM24 -66h68l-13 -74l-53 -103h-31l42 97h-27z" />
    <glyph glyph-name="sacute" unicode="&#x15b;" horiz-adv-x="481" 
d="M19 138h65c-12 -71 47 -96 122 -96c92 0 141 34 141 93c0 129 -279 34 -279 216c0 93 81 148 195 148c115 0 194 -43 176 -144h-64c10 61 -37 91 -115 91c-74 0 -127 -31 -127 -89c0 -126 282 -31 282 -216c0 -101 -81 -152 -212 -152c-119 0 -201 49 -184 149zM251 568
l134 164h81l-165 -164h-50z" />
    <glyph glyph-name="scedilla" unicode="&#x15f;" horiz-adv-x="481" 
d="M150 -78l37 68c-110 4 -184 52 -168 148h65c-12 -71 47 -96 122 -96c92 0 141 34 141 93c0 129 -279 34 -279 216c0 93 81 148 195 148c115 0 194 -43 176 -144h-64c10 61 -37 91 -115 91c-74 0 -127 -31 -127 -89c0 -126 282 -31 282 -216c0 -98 -76 -149 -200 -152
l-10 -29c53 -3 79 -32 79 -70c0 -63 -47 -106 -127 -106h-53l9 44h47c42 0 69 21 69 56c0 25 -20 38 -54 38h-25z" />
    <glyph glyph-name="scircumflex" unicode="&#x15d;" horiz-adv-x="481" 
d="M19 138h65c-12 -71 47 -96 122 -96c92 0 141 34 141 93c0 129 -279 34 -279 216c0 93 81 148 195 148c115 0 194 -43 176 -144h-64c10 61 -37 91 -115 91c-74 0 -127 -31 -127 -89c0 -126 282 -31 282 -216c0 -101 -81 -152 -212 -152c-119 0 -201 49 -184 149zM116 568
l157 164h62l99 -164h-65l-72 121l-113 -121h-68z" />
    <glyph glyph-name="scommaaccent" unicode="&#x219;" horiz-adv-x="481" 
d="M19 138h65c-12 -71 47 -96 122 -96c92 0 141 34 141 93c0 129 -279 34 -279 216c0 93 81 148 195 148c115 0 194 -43 176 -144h-64c10 61 -37 91 -115 91c-74 0 -127 -31 -127 -89c0 -126 282 -31 282 -216c0 -101 -81 -152 -212 -152c-119 0 -201 49 -184 149zM160 -66
h68l-13 -74l-53 -103h-31l42 97h-27z" />
    <glyph glyph-name="tcaron" unicode="&#x165;" horiz-adv-x="315" 
d="M26 433l9 55h96l25 148h68l-25 -148h132l-9 -55h-132l-49 -289c-10 -58 4 -85 59 -85h62l-9 -59h-67c-96 0 -129 49 -114 140l49 293h-95zM287 549l48 115h-30l14 89h74l-15 -83l-57 -121h-34z" />
    <glyph glyph-name="tcommaaccent" unicode="&#x163;" horiz-adv-x="315" 
d="M97 -78l42 83c-60 14 -80 60 -67 135l49 293h-95l9 55h96l25 148h68l-25 -148h132l-9 -55h-132l-49 -290c-9 -57 4 -84 59 -84h61l-9 -59h-66c-8 0 -15 0 -22 1l-12 -41c53 -3 80 -32 80 -70c0 -63 -47 -106 -128 -106h-53l9 44h48c41 0 68 21 68 56c0 25 -19 38 -54 38
h-25z" />
    <glyph glyph-name="ubreve" unicode="&#x16d;" horiz-adv-x="553" 
d="M211 -11c-100 0 -175 60 -151 202l51 297h68l-49 -290c-18 -106 20 -150 99 -150c77 0 149 63 169 178l47 262h68l-84 -488h-65l15 83h-3c-38 -65 -96 -94 -165 -94zM328 584c-65 0 -122 34 -116 134h44c-1 -58 24 -90 75 -90c54 0 90 32 112 90h44
c-29 -100 -94 -134 -159 -134z" />
    <glyph glyph-name="uhungarumlaut" unicode="&#x171;" horiz-adv-x="553" 
d="M211 -11c-100 0 -175 60 -151 202l51 297h68l-49 -290c-18 -106 20 -150 99 -150c77 0 149 63 169 178l47 262h68l-84 -488h-65l15 83h-3c-38 -65 -96 -94 -165 -94zM386 568l134 164h80l-164 -164h-50zM209 568l134 164h80l-164 -164h-50z" />
    <glyph glyph-name="umacron" unicode="&#x16b;" horiz-adv-x="553" 
d="M211 -11c-100 0 -175 60 -151 202l51 297h68l-49 -290c-18 -106 20 -150 99 -150c77 0 149 63 169 178l47 262h68l-84 -488h-65l15 83h-3c-38 -65 -96 -94 -165 -94zM194 623l10 53h276l-10 -53h-276z" />
    <glyph glyph-name="uogonek" unicode="&#x173;" horiz-adv-x="553" 
d="M291 -144c0 59 52 106 99 144h-26l15 83h-3c-38 -65 -96 -94 -165 -94c-100 0 -175 60 -151 202l51 297h68l-49 -290c-18 -106 20 -150 99 -150c77 0 149 63 169 178l47 262h68l-84 -488c-59 -53 -82 -97 -82 -130c0 -24 14 -39 52 -39h31l-10 -47h-39
c-61 0 -90 30 -90 72z" />
    <glyph glyph-name="uring" unicode="&#x16f;" horiz-adv-x="553" 
d="M211 -11c-100 0 -175 60 -151 202l51 297h68l-49 -290c-18 -106 20 -150 99 -150c77 0 149 63 169 178l47 262h68l-84 -488h-65l15 83h-3c-38 -65 -96 -94 -165 -94zM327 565c-48 0 -85 30 -85 78c0 67 54 108 109 108c48 0 85 -31 85 -78c0 -67 -54 -108 -109 -108z
M329 600c37 0 67 29 67 71c0 28 -19 45 -47 45c-38 0 -68 -29 -68 -71c0 -27 19 -45 48 -45z" />
    <glyph glyph-name="utilde" unicode="&#x169;" horiz-adv-x="553" 
d="M211 -11c-100 0 -175 60 -151 202l51 297h68l-49 -290c-18 -106 20 -150 99 -150c77 0 149 63 169 178l47 262h68l-84 -488h-65l15 83h-3c-38 -65 -96 -94 -165 -94zM177 600c13 54 46 99 102 99s89 -51 126 -51c31 0 47 24 55 52h41c-12 -53 -46 -99 -102 -99
s-89 51 -126 51c-30 0 -46 -24 -55 -52h-41z" />
    <glyph glyph-name="wacute" unicode="&#x1e83;" horiz-adv-x="711" 
d="M103 0l-55 488h67l46 -417h3l187 417h84l48 -417h3l189 417h67l-226 -488h-87l-48 411h-3l-184 -411h-91zM376 568l134 164h81l-165 -164h-50z" />
    <glyph glyph-name="wcircumflex" unicode="&#x175;" horiz-adv-x="711" 
d="M103 0l-55 488h67l46 -417h3l187 417h84l48 -417h3l189 417h67l-226 -488h-87l-48 411h-3l-184 -411h-91zM241 568l157 164h62l99 -164h-65l-72 121l-113 -121h-68z" />
    <glyph glyph-name="wdieresis" unicode="&#x1e85;" horiz-adv-x="711" 
d="M103 0l-55 488h67l46 -417h3l187 417h84l48 -417h3l189 417h67l-226 -488h-87l-48 411h-3l-184 -411h-91zM473 605l16 90h67l-15 -90h-68zM276 605l15 90h68l-15 -90h-68z" />
    <glyph glyph-name="wgrave" unicode="&#x1e81;" horiz-adv-x="711" 
d="M103 0l-55 488h67l46 -417h3l187 417h84l48 -417h3l189 417h67l-226 -488h-87l-48 411h-3l-184 -411h-91zM380 568l-108 164h74l78 -164h-44z" />
    <glyph glyph-name="ycircumflex" unicode="&#x177;" horiz-adv-x="463" 
d="M-36 -167h27c60 0 101 37 136 104l27 53l-106 498h70l84 -414h3l218 414h69l-308 -571c-42 -80 -97 -143 -193 -143h-39zM124 568l157 164h62l99 -164h-65l-72 121l-113 -121h-68z" />
    <glyph glyph-name="ygrave" unicode="&#x1ef3;" horiz-adv-x="463" 
d="M-36 -167h27c60 0 101 37 136 104l27 53l-106 498h70l84 -414h3l218 414h69l-308 -571c-42 -80 -97 -143 -193 -143h-39zM263 568l-108 164h74l78 -164h-44z" />
    <glyph glyph-name="zacute" unicode="&#x17a;" horiz-adv-x="433" 
d="M63 433l9 55h367l-9 -46l-340 -387h279l-9 -55h-367l6 40l344 393h-280zM243 568l134 164h81l-165 -164h-50z" />
    <glyph glyph-name="zdotaccent" unicode="&#x17c;" horiz-adv-x="433" 
d="M63 433l9 55h367l-9 -46l-340 -387h279l-9 -55h-367l6 40l344 393h-280zM241 605l15 90h68l-15 -90h-68z" />
    <glyph glyph-name="aeacute" unicode="&#x1fd;" horiz-adv-x="845" 
d="M81 336c21 99 94 163 211 163c76 0 132 -28 154 -85c45 54 110 85 182 85c139 0 211 -110 176 -260h-362c-2 -13 -2 -26 -2 -40c0 -92 48 -151 132 -151c66 0 118 39 145 100h68c-36 -98 -112 -159 -225 -159c-91 0 -148 47 -172 121c-45 -83 -114 -121 -212 -121
c-94 0 -147 53 -147 128c0 100 74 142 172 154l107 13c51 7 77 17 80 43c9 69 -22 116 -101 116c-75 0 -124 -38 -141 -107h-65zM187 45c87 0 161 49 180 162l10 57c-11 -17 -31 -22 -60 -26l-107 -14c-71 -9 -113 -41 -113 -101c0 -45 33 -78 90 -78zM622 440
c-79 0 -145 -58 -170 -150h288c1 9 1 18 1 27c-1 83 -48 123 -119 123zM442 568l134 164h81l-165 -164h-50z" />
    <glyph glyph-name="space_uni0326" unicode="&#xf6c3;" horiz-adv-x="550" 
d="M185 -66h68l-13 -74l-53 -103h-31l42 97h-27z" />
    <glyph glyph-name="aacute.sc" unicode="&#xf7e1;" horiz-adv-x="508" 
d="M-34 0l290 520h80l117 -520h-70l-30 140h-238l-75 -140h-74zM287 452h-3l-137 -254h194zM281 600l134 164h81l-165 -164h-50z" />
    <glyph glyph-name="abreve.sc" unicode="&#xf66d;" horiz-adv-x="508" 
d="M-34 0l290 520h80l117 -520h-70l-30 140h-238l-75 -140h-74zM287 452h-3l-137 -254h194zM309 616c-65 0 -122 34 -116 134h44c-1 -58 24 -90 75 -90c54 0 90 32 112 90h44c-29 -100 -94 -134 -159 -134z" />
    <glyph glyph-name="acircumflex.sc" unicode="&#xf7e2;" horiz-adv-x="508" 
d="M-34 0l290 520h80l117 -520h-70l-30 140h-238l-75 -140h-74zM287 452h-3l-137 -254h194zM146 600l157 164h62l99 -164h-65l-72 121l-113 -121h-68z" />
    <glyph glyph-name="adieresis.sc" unicode="&#xf7e4;" horiz-adv-x="508" 
d="M-34 0l290 520h80l117 -520h-70l-30 140h-238l-75 -140h-74zM287 452h-3l-137 -254h194zM378 637l16 90h67l-15 -90h-68zM181 637l15 90h68l-15 -90h-68z" />
    <glyph glyph-name="aeacute.sc" unicode="&#xf670;" horiz-adv-x="860" 
d="M-42 0l488 520h398l-9 -59h-304l-28 -167h246l-9 -59h-247l-30 -176h310l-9 -59h-379l20 119h-257l-110 -119h-80zM459 453l-259 -278h214l47 278h-2zM496 600l134 164h81l-165 -164h-50z" />
    <glyph glyph-name="agrave.sc" unicode="&#xf7e0;" horiz-adv-x="508" 
d="M-34 0l290 520h80l117 -520h-70l-30 140h-238l-75 -140h-74zM287 452h-3l-137 -254h194zM285 600l-108 164h74l78 -164h-44z" />
    <glyph glyph-name="amacron.sc" unicode="&#xf66e;" horiz-adv-x="508" 
d="M-34 0l290 520h80l117 -520h-70l-30 140h-238l-75 -140h-74zM287 452h-3l-137 -254h194zM175 655l10 53h276l-10 -53h-276z" />
    <glyph glyph-name="aogonek.sc" unicode="&#xf66f;" horiz-adv-x="508" 
d="M316 -144c0 59 52 106 99 144h-32l-30 140h-238l-75 -140h-74l290 520h80l117 -520h1c-59 -53 -82 -97 -82 -130c0 -24 14 -39 52 -39h31l-10 -47h-39c-61 0 -90 30 -90 72zM287 452h-3l-137 -254h194z" />
    <glyph glyph-name="aring.sc" unicode="&#xf7e5;" horiz-adv-x="508" 
d="M-34 0l290 520h80l117 -520h-70l-30 140h-238l-75 -140h-74zM287 452h-3l-137 -254h194zM308 597c-48 0 -85 30 -85 78c0 67 54 108 109 108c48 0 85 -31 85 -78c0 -67 -54 -108 -109 -108zM310 632c37 0 67 29 67 71c0 28 -19 45 -47 45c-38 0 -68 -29 -68 -71
c0 -27 19 -45 48 -45z" />
    <glyph glyph-name="atilde.sc" unicode="&#xf7e3;" horiz-adv-x="508" 
d="M-34 0l290 520h80l117 -520h-70l-30 140h-238l-75 -140h-74zM287 452h-3l-137 -254h194zM158 632c13 54 46 99 102 99s89 -51 126 -51c31 0 47 24 55 52h41c-12 -53 -46 -99 -102 -99s-89 51 -126 51c-30 0 -46 -24 -55 -52h-41z" />
    <glyph glyph-name="cacute.sc" unicode="&#xf671;" horiz-adv-x="581" 
d="M42 211c0 177 132 320 304 320c128 0 204 -72 210 -175h-65c-10 69 -57 115 -148 115c-129 0 -230 -114 -230 -254c0 -93 58 -168 163 -168c90 0 147 45 181 115h68c-42 -105 -135 -175 -255 -175c-143 0 -228 98 -228 222zM338 600l134 164h81l-165 -164h-50z" />
    <glyph glyph-name="ccaron.sc" unicode="&#xf672;" horiz-adv-x="581" 
d="M42 211c0 177 132 320 304 320c128 0 204 -72 210 -175h-65c-10 69 -57 115 -148 115c-129 0 -230 -114 -230 -254c0 -93 58 -168 163 -168c90 0 147 45 181 115h68c-42 -105 -135 -175 -255 -175c-143 0 -228 98 -228 222zM333 600l-101 164h65l72 -121l113 121h68
l-157 -164h-60z" />
    <glyph glyph-name="ccedilla.sc" unicode="&#xf7e7;" horiz-adv-x="581" 
d="M214 -78l37 68c-132 8 -209 102 -209 221c0 177 132 320 304 320c128 0 204 -72 210 -175h-65c-10 69 -57 115 -148 115c-129 0 -230 -114 -230 -254c0 -93 58 -168 163 -168c90 0 147 45 181 115h68c-41 -103 -131 -171 -246 -175l-10 -29c53 -3 79 -32 79 -70
c0 -63 -47 -106 -127 -106h-53l9 44h47c42 0 69 21 69 56c0 25 -20 38 -54 38h-25z" />
    <glyph glyph-name="ccircumflex.sc" unicode="&#xf673;" horiz-adv-x="581" 
d="M42 211c0 177 132 320 304 320c128 0 204 -72 210 -175h-65c-10 69 -57 115 -148 115c-129 0 -230 -114 -230 -254c0 -93 58 -168 163 -168c90 0 147 45 181 115h68c-42 -105 -135 -175 -255 -175c-143 0 -228 98 -228 222zM203 600l157 164h62l99 -164h-65l-72 121
l-113 -121h-68z" />
    <glyph glyph-name="cdotaccent.sc" unicode="&#xf674;" horiz-adv-x="581" 
d="M42 211c0 177 132 320 304 320c128 0 204 -72 210 -175h-65c-10 69 -57 115 -148 115c-129 0 -230 -114 -230 -254c0 -93 58 -168 163 -168c90 0 147 45 181 115h68c-42 -105 -135 -175 -255 -175c-143 0 -228 98 -228 222zM336 637l15 90h68l-15 -90h-68z" />
    <glyph glyph-name="dcaron.sc" unicode="&#xf675;" horiz-adv-x="591" 
d="M47 0l88 520h172c160 0 243 -92 243 -219c0 -173 -130 -301 -327 -301h-176zM298 461h-105l-68 -402h107c163 0 247 116 247 242c0 88 -54 160 -181 160zM307 600l-101 164h65l72 -121l113 121h68l-157 -164h-60z" />
    <glyph glyph-name="eacute.sc" unicode="&#xf7e9;" horiz-adv-x="522" 
d="M47 0l88 520h371l-9 -59h-304l-29 -168h246l-9 -57h-246l-30 -177h310l-9 -59h-379zM304 600l134 164h81l-165 -164h-50z" />
    <glyph glyph-name="ebreve.sc" unicode="&#xf677;" horiz-adv-x="522" 
d="M47 0l88 520h371l-9 -59h-304l-29 -168h246l-9 -57h-246l-30 -177h310l-9 -59h-379zM332 616c-65 0 -122 34 -116 134h44c-1 -58 24 -90 75 -90c54 0 90 32 112 90h44c-29 -100 -94 -134 -159 -134z" />
    <glyph glyph-name="ecaron.sc" unicode="&#xf678;" horiz-adv-x="522" 
d="M47 0l88 520h371l-9 -59h-304l-29 -168h246l-9 -57h-246l-30 -177h310l-9 -59h-379zM299 600l-101 164h65l72 -121l113 121h68l-157 -164h-60z" />
    <glyph glyph-name="ecircumflex.sc" unicode="&#xf7ea;" horiz-adv-x="522" 
d="M47 0l88 520h371l-9 -59h-304l-29 -168h246l-9 -57h-246l-30 -177h310l-9 -59h-379zM169 600l157 164h62l99 -164h-65l-72 121l-113 -121h-68z" />
    <glyph glyph-name="edieresis.sc" unicode="&#xf7eb;" horiz-adv-x="522" 
d="M47 0l88 520h371l-9 -59h-304l-29 -168h246l-9 -57h-246l-30 -177h310l-9 -59h-379zM401 637l16 90h67l-15 -90h-68zM204 637l15 90h68l-15 -90h-68z" />
    <glyph glyph-name="edotaccent.sc" unicode="&#xf679;" horiz-adv-x="522" 
d="M47 0l88 520h371l-9 -59h-304l-29 -168h246l-9 -57h-246l-30 -177h310l-9 -59h-379zM302 637l15 90h68l-15 -90h-68z" />
    <glyph glyph-name="egrave.sc" unicode="&#xf7e8;" horiz-adv-x="522" 
d="M47 0l88 520h371l-9 -59h-304l-29 -168h246l-9 -57h-246l-30 -177h310l-9 -59h-379zM308 600l-108 164h74l78 -164h-44z" />
    <glyph glyph-name="emacron.sc" unicode="&#xf67a;" horiz-adv-x="522" 
d="M47 0l88 520h371l-9 -59h-304l-29 -168h246l-9 -57h-246l-30 -177h310l-9 -59h-379zM198 655l10 53h276l-10 -53h-276z" />
    <glyph glyph-name="eogonek.sc" unicode="&#xf67c;" horiz-adv-x="522" 
d="M47 0l88 520h371l-9 -59h-304l-29 -168h246l-9 -57h-246l-30 -177h310l-9 -59c-59 -53 -82 -97 -82 -130c0 -24 14 -39 52 -39h31l-10 -47h-39c-61 0 -90 30 -90 72c0 59 52 106 99 144h-340z" />
    <glyph glyph-name="gbreve.sc" unicode="&#xf67d;" horiz-adv-x="632" 
d="M313 217l9 56h233l-44 -273h-44l5 70h-3c-48 -54 -113 -81 -195 -81c-142 0 -229 100 -229 226c0 181 135 316 313 316c126 0 207 -74 212 -165h-71c-6 55 -54 105 -147 105c-134 0 -236 -110 -236 -253c0 -94 61 -169 167 -169c93 0 185 49 201 160l1 8h-172zM379 616
c-65 0 -122 34 -116 134h44c-1 -58 24 -90 75 -90c54 0 90 32 112 90h44c-29 -100 -94 -134 -159 -134z" />
    <glyph glyph-name="gcircumflex.sc" unicode="&#xf67e;" horiz-adv-x="632" 
d="M313 217l9 56h233l-44 -273h-44l5 70h-3c-48 -54 -113 -81 -195 -81c-142 0 -229 100 -229 226c0 181 135 316 313 316c126 0 207 -74 212 -165h-71c-6 55 -54 105 -147 105c-134 0 -236 -110 -236 -253c0 -94 61 -169 167 -169c93 0 185 49 201 160l1 8h-172zM216 600
l157 164h62l99 -164h-65l-72 121l-113 -121h-68z" />
    <glyph glyph-name="gcommaaccent.sc" unicode="&#xf67f;" horiz-adv-x="632" 
d="M313 217l9 56h233l-44 -273h-44l5 70h-3c-48 -54 -113 -81 -195 -81c-142 0 -229 100 -229 226c0 181 135 316 313 316c126 0 207 -74 212 -165h-71c-6 55 -54 105 -147 105c-134 0 -236 -110 -236 -253c0 -94 61 -169 167 -169c93 0 185 49 201 160l1 8h-172zM227 -66
h68l-13 -74l-53 -103h-31l42 97h-27z" />
    <glyph glyph-name="gdotaccent.sc" unicode="&#xf680;" horiz-adv-x="632" 
d="M313 217l9 56h233l-44 -273h-44l5 70h-3c-48 -54 -113 -81 -195 -81c-142 0 -229 100 -229 226c0 181 135 316 313 316c126 0 207 -74 212 -165h-71c-6 55 -54 105 -147 105c-134 0 -236 -110 -236 -253c0 -94 61 -169 167 -169c93 0 185 49 201 160l1 8h-172zM349 637
l15 90h68l-15 -90h-68z" />
    <glyph glyph-name="hcircumflex.sc" unicode="&#xf682;" horiz-adv-x="617" 
d="M47 0l88 520h68l-39 -228h299l39 228h68l-88 -520h-68l39 233h-299l-39 -233h-68zM204 600l157 164h62l99 -164h-65l-72 121l-113 -121h-68z" />
    <glyph glyph-name="iacute.sc" unicode="&#xf7ed;" horiz-adv-x="250" 
d="M47 0l88 520h68l-88 -520h-68zM157 600l134 164h81l-165 -164h-50z" />
    <glyph glyph-name="ibreve.sc" unicode="&#xf683;" horiz-adv-x="250" 
d="M47 0l88 520h68l-88 -520h-68zM185 616c-65 0 -122 34 -116 134h44c-1 -58 24 -90 75 -90c54 0 90 32 112 90h44c-29 -100 -94 -134 -159 -134z" />
    <glyph glyph-name="icircumflex.sc" unicode="&#xf7ee;" horiz-adv-x="250" 
d="M47 0l88 520h68l-88 -520h-68zM22 600l157 164h62l99 -164h-65l-72 121l-113 -121h-68z" />
    <glyph glyph-name="idieresis.sc" unicode="&#xf7ef;" horiz-adv-x="250" 
d="M47 0l88 520h68l-88 -520h-68zM254 637l16 90h67l-15 -90h-68zM57 637l15 90h68l-15 -90h-68z" />
    <glyph glyph-name="idotaccent.sc" unicode="&#xf6ad;" horiz-adv-x="250" 
d="M47 0l88 520h68l-88 -520h-68zM155 637l15 90h68l-15 -90h-68z" />
    <glyph glyph-name="igrave.sc" unicode="&#xf7ec;" horiz-adv-x="250" 
d="M47 0l88 520h68l-88 -520h-68zM161 600l-108 164h74l78 -164h-44z" />
    <glyph glyph-name="imacron.sc" unicode="&#xf685;" horiz-adv-x="250" 
d="M47 0l88 520h68l-88 -520h-68zM51 655l10 53h276l-10 -53h-276z" />
    <glyph glyph-name="iogonek.sc" unicode="&#xf686;" horiz-adv-x="250" 
d="M47 0l88 520h68l-88 -520h3c-59 -53 -82 -97 -82 -130c0 -24 14 -39 52 -39h31l-10 -47h-39c-61 0 -90 30 -90 72c0 59 52 106 99 144h-32z" />
    <glyph glyph-name="itilde.sc" unicode="&#xf687;" horiz-adv-x="250" 
d="M47 0l88 520h68l-88 -520h-68zM34 632c13 54 46 99 102 99s89 -51 126 -51c31 0 47 24 55 52h41c-12 -53 -46 -99 -102 -99s-89 51 -126 51c-30 0 -46 -24 -55 -52h-41z" />
    <glyph glyph-name="jcircumflex.sc" unicode="&#xf688;" horiz-adv-x="441" 
d="M24 152l4 23h65l-4 -23c-15 -76 22 -107 78 -107c59 0 96 33 110 110l64 365h68l-64 -365c-20 -116 -80 -166 -181 -166c-93 0 -162 50 -140 163zM228 600l157 164h62l99 -164h-65l-72 121l-113 -121h-68z" />
    <glyph glyph-name="kcommaaccent.sc" unicode="&#xf689;" horiz-adv-x="552" 
d="M47 0l88 520h68l-50 -292l331 292h81l-256 -225l180 -295h-73l-155 253l-122 -107l-24 -146h-68zM219 -66h68l-13 -74l-53 -103h-31l42 97h-27z" />
    <glyph glyph-name="lacute.sc" unicode="&#xf68a;" horiz-adv-x="468" 
d="M47 0l88 520h68l-78 -461h279l-9 -59h-348zM157 600l134 164h81l-165 -164h-50z" />
    <glyph glyph-name="lcaron.sc" unicode="&#xf68b;" horiz-adv-x="468" 
d="M47 0l88 520h68l-78 -461h279l-9 -59h-348zM315 343l42 97h-27l14 80h68l-11 -74l-55 -103h-31z" />
    <glyph glyph-name="lcommaaccent.sc" unicode="&#xf68c;" horiz-adv-x="468" 
d="M47 0l88 520h68l-78 -461h279l-9 -59h-348zM177 -66h68l-13 -74l-53 -103h-31l42 97h-27z" />
    <glyph glyph-name="ldot.sc" unicode="&#xf68d;" horiz-adv-x="468" 
d="M47 0l88 520h68l-78 -461h279l-9 -59h-348zM262 220l16 90h68l-16 -90h-68z" />
    <glyph glyph-name="lslash.sc" unicode="&#xf6f9;" horiz-adv-x="468" 
d="M16 119l-25 44l94 63l50 294h68l-41 -242l109 73l22 -44l-143 -97l-25 -151h279l-9 -59h-348l27 158z" />
    <glyph glyph-name="nacute.sc" unicode="&#xf68e;" horiz-adv-x="618" 
d="M47 0l88 520h62l235 -412h3l68 412h68l-88 -520h-62l-235 412h-3l-68 -412h-68zM339 600l134 164h81l-165 -164h-50z" />
    <glyph glyph-name="ncaron.sc" unicode="&#xf68f;" horiz-adv-x="618" 
d="M47 0l88 520h62l235 -412h3l68 412h68l-88 -520h-62l-235 412h-3l-68 -412h-68zM334 600l-101 164h65l72 -121l113 121h68l-157 -164h-60z" />
    <glyph glyph-name="ncommaaccent.sc" unicode="&#xf690;" horiz-adv-x="618" 
d="M47 0l88 520h62l235 -412h3l68 412h68l-88 -520h-62l-235 412h-3l-68 -412h-68zM217 -66h68l-13 -74l-53 -103h-31l42 97h-27z" />
    <glyph glyph-name="ntilde.sc" unicode="&#xf7f1;" horiz-adv-x="618" 
d="M47 0l88 520h62l235 -412h3l68 412h68l-88 -520h-62l-235 412h-3l-68 -412h-68zM216 632c13 54 46 99 102 99s89 -51 126 -51c31 0 47 24 55 52h41c-12 -53 -46 -99 -102 -99s-89 51 -126 51c-30 0 -46 -24 -55 -52h-41z" />
    <glyph glyph-name="oacute.sc" unicode="&#xf7f3;" horiz-adv-x="624" 
d="M42 211c0 190 147 320 311 320c135 0 229 -91 229 -222c0 -190 -147 -320 -311 -320c-135 0 -229 91 -229 222zM277 49c105 0 197 72 225 183c6 23 9 48 9 74c0 99 -63 165 -164 165c-105 0 -197 -72 -225 -183c-6 -23 -9 -48 -9 -74c0 -99 63 -165 164 -165zM342 600
l134 164h81l-165 -164h-50z" />
    <glyph glyph-name="obreve.sc" unicode="&#xf691;" horiz-adv-x="624" 
d="M42 211c0 190 147 320 311 320c135 0 229 -91 229 -222c0 -190 -147 -320 -311 -320c-135 0 -229 91 -229 222zM277 49c105 0 197 72 225 183c6 23 9 48 9 74c0 99 -63 165 -164 165c-105 0 -197 -72 -225 -183c-6 -23 -9 -48 -9 -74c0 -99 63 -165 164 -165zM370 616
c-65 0 -122 34 -116 134h44c-1 -58 24 -90 75 -90c54 0 90 32 112 90h44c-29 -100 -94 -134 -159 -134z" />
    <glyph glyph-name="ocircumflex.sc" unicode="&#xf7f4;" horiz-adv-x="624" 
d="M42 211c0 190 147 320 311 320c135 0 229 -91 229 -222c0 -190 -147 -320 -311 -320c-135 0 -229 91 -229 222zM277 49c105 0 197 72 225 183c6 23 9 48 9 74c0 99 -63 165 -164 165c-105 0 -197 -72 -225 -183c-6 -23 -9 -48 -9 -74c0 -99 63 -165 164 -165zM207 600
l157 164h62l99 -164h-65l-72 121l-113 -121h-68z" />
    <glyph glyph-name="odieresis.sc" unicode="&#xf7f6;" horiz-adv-x="624" 
d="M42 211c0 190 147 320 311 320c135 0 229 -91 229 -222c0 -190 -147 -320 -311 -320c-135 0 -229 91 -229 222zM277 49c105 0 197 72 225 183c6 23 9 48 9 74c0 99 -63 165 -164 165c-105 0 -197 -72 -225 -183c-6 -23 -9 -48 -9 -74c0 -99 63 -165 164 -165zM439 637
l16 90h67l-15 -90h-68zM242 637l15 90h68l-15 -90h-68z" />
    <glyph glyph-name="ograve.sc" unicode="&#xf7f2;" horiz-adv-x="624" 
d="M42 211c0 190 147 320 311 320c135 0 229 -91 229 -222c0 -190 -147 -320 -311 -320c-135 0 -229 91 -229 222zM277 49c105 0 197 72 225 183c6 23 9 48 9 74c0 99 -63 165 -164 165c-105 0 -197 -72 -225 -183c-6 -23 -9 -48 -9 -74c0 -99 63 -165 164 -165zM346 600
l-108 164h74l78 -164h-44z" />
    <glyph glyph-name="ohungarumlaut.sc" unicode="&#xf692;" horiz-adv-x="624" 
d="M42 211c0 190 147 320 311 320c135 0 229 -91 229 -222c0 -190 -147 -320 -311 -320c-135 0 -229 91 -229 222zM277 49c105 0 197 72 225 183c6 23 9 48 9 74c0 99 -63 165 -164 165c-105 0 -197 -72 -225 -183c-6 -23 -9 -48 -9 -74c0 -99 63 -165 164 -165zM428 600
l134 164h80l-164 -164h-50zM251 600l134 164h80l-164 -164h-50z" />
    <glyph glyph-name="omacron.sc" unicode="&#xf693;" horiz-adv-x="624" 
d="M42 211c0 190 147 320 311 320c135 0 229 -91 229 -222c0 -190 -147 -320 -311 -320c-135 0 -229 91 -229 222zM277 49c105 0 197 72 225 183c6 23 9 48 9 74c0 99 -63 165 -164 165c-105 0 -197 -72 -225 -183c-6 -23 -9 -48 -9 -74c0 -99 63 -165 164 -165zM236 655
l10 53h276l-10 -53h-276z" />
    <glyph glyph-name="oslashacute.sc" unicode="&#xf694;" horiz-adv-x="624" 
d="M42 211c0 190 147 320 311 320c60 0 112 -18 151 -50l50 50h56l-78 -78c32 -37 50 -87 50 -144c0 -190 -147 -320 -311 -320c-60 0 -113 18 -152 49l-49 -49h-57l78 78c-31 37 -49 87 -49 144zM277 49c105 0 197 72 225 183c6 23 9 48 9 74c0 38 -10 72 -27 98l-318 -319
c28 -23 66 -36 111 -36zM113 214c0 -38 9 -72 26 -98l318 318c-27 24 -65 37 -110 37c-105 0 -197 -72 -225 -183c-6 -23 -9 -48 -9 -74zM338 600l134 164h81l-165 -164h-50z" />
    <glyph glyph-name="otilde.sc" unicode="&#xf7f5;" horiz-adv-x="624" 
d="M42 211c0 190 147 320 311 320c135 0 229 -91 229 -222c0 -190 -147 -320 -311 -320c-135 0 -229 91 -229 222zM277 49c105 0 197 72 225 183c6 23 9 48 9 74c0 99 -63 165 -164 165c-105 0 -197 -72 -225 -183c-6 -23 -9 -48 -9 -74c0 -99 63 -165 164 -165zM219 632
c13 54 46 99 102 99s89 -51 126 -51c31 0 47 24 55 52h41c-12 -53 -46 -99 -102 -99s-89 51 -126 51c-30 0 -46 -24 -55 -52h-41z" />
    <glyph glyph-name="racute.sc" unicode="&#xf695;" horiz-adv-x="559" 
d="M47 0l88 520h220c105 0 163 -58 163 -135c0 -97 -65 -157 -158 -173l113 -212h-74l-109 207h-140l-35 -207h-68zM349 461h-156l-33 -195h155c79 0 129 39 129 113c0 47 -31 82 -95 82zM294 600l134 164h81l-165 -164h-50z" />
    <glyph glyph-name="rcaron.sc" unicode="&#xf696;" horiz-adv-x="559" 
d="M47 0l88 520h220c105 0 163 -58 163 -135c0 -97 -65 -157 -158 -173l113 -212h-74l-109 207h-140l-35 -207h-68zM349 461h-156l-33 -195h155c79 0 129 39 129 113c0 47 -31 82 -95 82zM289 600l-101 164h65l72 -121l113 121h68l-157 -164h-60z" />
    <glyph glyph-name="rcommaaccent.sc" unicode="&#xf697;" horiz-adv-x="559" 
d="M47 0l88 520h220c105 0 163 -58 163 -135c0 -97 -65 -157 -158 -173l113 -212h-74l-109 207h-140l-35 -207h-68zM349 461h-156l-33 -195h155c79 0 129 39 129 113c0 47 -31 82 -95 82zM205 -66h68l-13 -74l-53 -103h-31l42 97h-27z" />
    <glyph glyph-name="sacute.sc" unicode="&#xf698;" horiz-adv-x="512" 
d="M30 146h68c-11 -65 36 -101 126 -101c91 0 150 29 150 99c0 132 -297 41 -297 228c0 93 81 159 214 159c129 0 199 -60 184 -151h-68c10 57 -35 95 -122 95c-79 0 -140 -33 -140 -97c0 -130 300 -39 300 -228c0 -97 -73 -161 -224 -161c-140 0 -208 60 -191 157zM275 600
l134 164h81l-165 -164h-50z" />
    <glyph glyph-name="scaron.sc" unicode="&#xf6fd;" horiz-adv-x="512" 
d="M30 146h68c-11 -65 36 -101 126 -101c91 0 150 29 150 99c0 132 -297 41 -297 228c0 93 81 159 214 159c129 0 199 -60 184 -151h-68c10 57 -35 95 -122 95c-79 0 -140 -33 -140 -97c0 -130 300 -39 300 -228c0 -97 -73 -161 -224 -161c-140 0 -208 60 -191 157zM270 600
l-101 164h65l72 -121l113 121h68l-157 -164h-60z" />
    <glyph glyph-name="scedilla.sc" unicode="&#xf699;" horiz-adv-x="512" 
d="M168 -78l37 68c-129 4 -192 63 -175 156h68c-11 -65 36 -101 126 -101c91 0 150 29 150 99c0 132 -297 41 -297 228c0 93 81 159 214 159c129 0 199 -60 184 -151h-68c10 57 -35 95 -122 95c-79 0 -140 -33 -140 -97c0 -130 300 -39 300 -228c0 -95 -70 -157 -212 -161
l-10 -29c53 -3 79 -32 79 -70c0 -63 -47 -106 -127 -106h-53l9 44h47c42 0 69 21 69 56c0 25 -20 38 -54 38h-25z" />
    <glyph glyph-name="scircumflex.sc" unicode="&#xf69a;" horiz-adv-x="512" 
d="M30 146h68c-11 -65 36 -101 126 -101c91 0 150 29 150 99c0 132 -297 41 -297 228c0 93 81 159 214 159c129 0 199 -60 184 -151h-68c10 57 -35 95 -122 95c-79 0 -140 -33 -140 -97c0 -130 300 -39 300 -228c0 -97 -73 -161 -224 -161c-140 0 -208 60 -191 157zM140 600
l157 164h62l99 -164h-65l-72 121l-113 -121h-68z" />
    <glyph glyph-name="scommaaccent.sc" unicode="&#xf69b;" horiz-adv-x="512" 
d="M30 146h68c-11 -65 36 -101 126 -101c91 0 150 29 150 99c0 132 -297 41 -297 228c0 93 81 159 214 159c129 0 199 -60 184 -151h-68c10 57 -35 95 -122 95c-79 0 -140 -33 -140 -97c0 -130 300 -39 300 -228c0 -97 -73 -161 -224 -161c-140 0 -208 60 -191 157zM178 -66
h68l-13 -74l-53 -103h-31l42 97h-27z" />
    <glyph glyph-name="tcaron.sc" unicode="&#xf69d;" horiz-adv-x="498" 
d="M53 461l9 59h462l-9 -59h-198l-78 -461h-68l78 461h-196zM276 600l-101 164h65l72 -121l113 121h68l-157 -164h-60z" />
    <glyph glyph-name="tcommaaccent.sc" unicode="&#xf69e;" horiz-adv-x="498" 
d="M152 -78l43 78h-24l78 461h-196l9 59h462l-9 -59h-198l-78 -461h-18l-14 -40c53 -3 79 -32 79 -70c0 -63 -47 -106 -127 -106h-53l9 44h47c42 0 69 21 69 56c0 25 -20 38 -54 38h-25z" />
    <glyph glyph-name="uacute.sc" unicode="&#xf7fa;" horiz-adv-x="587" 
d="M65 207l53 313h68l-53 -313c-18 -103 25 -156 126 -156c98 0 157 56 175 156l53 313h68l-53 -313c-27 -156 -122 -218 -248 -218s-216 62 -189 218zM323 600l134 164h81l-165 -164h-50z" />
    <glyph glyph-name="ubreve.sc" unicode="&#xf69f;" horiz-adv-x="587" 
d="M65 207l53 313h68l-53 -313c-18 -103 25 -156 126 -156c98 0 157 56 175 156l53 313h68l-53 -313c-27 -156 -122 -218 -248 -218s-216 62 -189 218zM351 616c-65 0 -122 34 -116 134h44c-1 -58 24 -90 75 -90c54 0 90 32 112 90h44c-29 -100 -94 -134 -159 -134z" />
    <glyph glyph-name="ucircumflex.sc" unicode="&#xf7fb;" horiz-adv-x="587" 
d="M65 207l53 313h68l-53 -313c-18 -103 25 -156 126 -156c98 0 157 56 175 156l53 313h68l-53 -313c-27 -156 -122 -218 -248 -218s-216 62 -189 218zM188 600l157 164h62l99 -164h-65l-72 121l-113 -121h-68z" />
    <glyph glyph-name="udieresis.sc" unicode="&#xf7fc;" horiz-adv-x="587" 
d="M65 207l53 313h68l-53 -313c-18 -103 25 -156 126 -156c98 0 157 56 175 156l53 313h68l-53 -313c-27 -156 -122 -218 -248 -218s-216 62 -189 218zM420 637l16 90h67l-15 -90h-68zM223 637l15 90h68l-15 -90h-68z" />
    <glyph glyph-name="ugrave.sc" unicode="&#xf7f9;" horiz-adv-x="587" 
d="M65 207l53 313h68l-53 -313c-18 -103 25 -156 126 -156c98 0 157 56 175 156l53 313h68l-53 -313c-27 -156 -122 -218 -248 -218s-216 62 -189 218zM327 600l-108 164h74l78 -164h-44z" />
    <glyph glyph-name="uhungarumlaut.sc" unicode="&#xf6a0;" horiz-adv-x="587" 
d="M65 207l53 313h68l-53 -313c-18 -103 25 -156 126 -156c98 0 157 56 175 156l53 313h68l-53 -313c-27 -156 -122 -218 -248 -218s-216 62 -189 218zM409 600l134 164h80l-164 -164h-50zM232 600l134 164h80l-164 -164h-50z" />
    <glyph glyph-name="umacron.sc" unicode="&#xf6a1;" horiz-adv-x="587" 
d="M65 207l53 313h68l-53 -313c-18 -103 25 -156 126 -156c98 0 157 56 175 156l53 313h68l-53 -313c-27 -156 -122 -218 -248 -218s-216 62 -189 218zM217 655l10 53h276l-10 -53h-276z" />
    <glyph glyph-name="uogonek.sc" unicode="&#xf6a2;" horiz-adv-x="592" 
d="M61 207l53 313h68l-53 -313c-18 -103 25 -156 126 -156c98 0 158 56 175 156l53 313h68l-53 -313c-18 -100 -65 -159 -127 -193c-68 -37 -130 -90 -130 -141c0 -25 15 -42 53 -42h30l-8 -47h-39c-61 0 -95 29 -95 76c0 57 47 99 100 131c-12 -1 -24 -2 -36 -2
c-129 0 -211 62 -185 218z" />
    <glyph glyph-name="uring.sc" unicode="&#xf6a3;" horiz-adv-x="587" 
d="M65 207l53 313h68l-53 -313c-18 -103 25 -156 126 -156c98 0 157 56 175 156l53 313h68l-53 -313c-27 -156 -122 -218 -248 -218s-216 62 -189 218zM350 597c-48 0 -85 30 -85 78c0 67 54 108 109 108c48 0 85 -31 85 -78c0 -67 -54 -108 -109 -108zM352 632
c37 0 67 29 67 71c0 28 -19 45 -47 45c-38 0 -68 -29 -68 -71c0 -27 19 -45 48 -45z" />
    <glyph glyph-name="utilde.sc" unicode="&#xf6a4;" horiz-adv-x="587" 
d="M65 207l53 313h68l-53 -313c-18 -103 25 -156 126 -156c98 0 157 56 175 156l53 313h68l-53 -313c-27 -156 -122 -218 -248 -218s-216 62 -189 218zM200 632c13 54 46 99 102 99s89 -51 126 -51c31 0 47 24 55 52h41c-12 -53 -46 -99 -102 -99s-89 51 -126 51
c-30 0 -46 -24 -55 -52h-41z" />
    <glyph glyph-name="wacute.sc" unicode="&#xf6a5;" horiz-adv-x="754" 
d="M118 0l-58 520h68l43 -446h3l213 446h69l63 -447h3l192 447h68l-228 -520h-84l-62 433h-3l-202 -433h-85zM404 600l134 164h81l-165 -164h-50z" />
    <glyph glyph-name="wcircumflex.sc" unicode="&#xf6a6;" horiz-adv-x="754" 
d="M118 0l-58 520h68l43 -446h3l213 446h69l63 -447h3l192 447h68l-228 -520h-84l-62 433h-3l-202 -433h-85zM269 600l157 164h62l99 -164h-65l-72 121l-113 -121h-68z" />
    <glyph glyph-name="wdieresis.sc" unicode="&#xf6a7;" horiz-adv-x="754" 
d="M118 0l-58 520h68l43 -446h3l213 446h69l63 -447h3l192 447h68l-228 -520h-84l-62 433h-3l-202 -433h-85zM501 637l16 90h67l-15 -90h-68zM304 637l15 90h68l-15 -90h-68z" />
    <glyph glyph-name="wgrave.sc" unicode="&#xf6a8;" horiz-adv-x="754" 
d="M118 0l-58 520h68l43 -446h3l213 446h69l63 -447h3l192 447h68l-228 -520h-84l-62 433h-3l-202 -433h-85zM408 600l-108 164h74l78 -164h-44z" />
    <glyph glyph-name="yacute.sc" unicode="&#xf7fd;" horiz-adv-x="488" 
d="M165 0l33 207l-145 313h77l113 -253h3l206 253h74l-261 -319l-32 -201h-68zM279 600l134 164h81l-165 -164h-50z" />
    <glyph glyph-name="ycircumflex.sc" unicode="&#xf6a9;" horiz-adv-x="488" 
d="M165 0l33 207l-145 313h77l113 -253h3l206 253h74l-261 -319l-32 -201h-68zM144 600l157 164h62l99 -164h-65l-72 121l-113 -121h-68z" />
    <glyph glyph-name="ydieresis.sc" unicode="&#xf7ff;" horiz-adv-x="488" 
d="M165 0l33 207l-145 313h77l113 -253h3l206 253h74l-261 -319l-32 -201h-68zM376 637l16 90h67l-15 -90h-68zM179 637l15 90h68l-15 -90h-68z" />
    <glyph glyph-name="ygrave.sc" unicode="&#xf6aa;" horiz-adv-x="488" 
d="M165 0l33 207l-145 313h77l113 -253h3l206 253h74l-261 -319l-32 -201h-68zM283 600l-108 164h74l78 -164h-44z" />
    <glyph glyph-name="zacute.sc" unicode="&#xf6ab;" horiz-adv-x="495" 
d="M87 462l12 58h395l-5 -43l-385 -419h308l-9 -58h-405l6 40l387 422h-304zM281 600l134 164h81l-165 -164h-50z" />
    <glyph glyph-name="zcaron.sc" unicode="&#xf6ff;" horiz-adv-x="495" 
d="M87 462l12 58h395l-5 -43l-385 -419h308l-9 -58h-405l6 40l387 422h-304zM276 600l-101 164h65l72 -121l113 121h68l-157 -164h-60z" />
    <glyph glyph-name="zdotaccent.sc" unicode="&#xf6ac;" horiz-adv-x="495" 
d="M87 462l12 58h395l-5 -43l-385 -419h308l-9 -58h-405l6 40l387 422h-304zM279 637l15 90h68l-15 -90h-68z" />
    <glyph glyph-name="uni0394" unicode="&#x394;" horiz-adv-x="629" 
d="M-15 0l360 688h83l128 -688h-571zM373 612l-287 -553h388z" />
    <glyph glyph-name="uni03A9" unicode="&#x3a9;" horiz-adv-x="696" 
d="M369 0l34 200c78 21 196 110 196 262c0 106 -77 178 -191 178c-142 0 -258 -111 -258 -265c0 -100 66 -159 123 -175l-34 -200h-216l9 59h151l17 106c-69 35 -124 107 -124 207c0 183 152 327 341 327c153 0 256 -100 256 -234c0 -155 -107 -259 -214 -303l-16 -103h151
l-9 -59h-216z" />
    <glyph glyph-name="uni03BC" unicode="&#x3bc;" horiz-adv-x="561" 
d="M372 0l15 81h-5c-38 -63 -91 -92 -164 -92c-54 0 -93 16 -115 50c-3 -46 -15 -133 -23 -177l-14 -82h-68l121 708h68l-49 -290c-18 -106 22 -150 99 -150s149 62 171 185l45 255h68l-84 -488h-65z" />
    <glyph glyph-name="uni021A" unicode="&#x21a;" horiz-adv-x="579" 
d="M68 628l12 60h563l-12 -60h-244l-106 -628h-71l106 628h-248zM201 -66h68l-13 -74l-53 -103h-31l42 97h-27z" />
    <glyph glyph-name="uni021B" unicode="&#x21b;" horiz-adv-x="315" 
d="M26 433l9 55h96l25 148h68l-25 -148h132l-9 -55h-132l-49 -290c-9 -57 4 -84 59 -84h61l-9 -59h-66c-96 0 -130 49 -114 140l49 293h-95zM112 -66h68l-13 -74l-53 -103h-31l42 97h-27z" />
    <glyph glyph-name="uni00AD" unicode="&#xad;" horiz-adv-x="396" 
d="M54 222l9 61h276l-9 -61h-276z" />
    <glyph glyph-name="uni02C9" unicode="&#x2c9;" horiz-adv-x="550" 
d="M197 623l10 53h276l-10 -53h-276z" />
    <glyph glyph-name="uni2215" unicode="&#x2215;" horiz-adv-x="60" 
d="M-217 -12l470 712h53l-470 -712h-53z" />
    <glyph glyph-name="uni2219" unicode="&#x2219;" horiz-adv-x="244" 
d="M68 198l19 108h85l-19 -108h-85z" />
    <glyph glyph-name="at.sc" horiz-adv-x="826" 
d="M223 83c0 75 60 108 141 120l82 12c37 5 59 10 63 30c8 45 -13 84 -76 84c-58 0 -95 -28 -107 -77h-63c19 80 83 125 178 125c94 0 150 -43 132 -141l-22 -122c-7 -41 2 -80 53 -80c93 0 135 130 135 210c0 160 -126 242 -285 242c-207 0 -368 -155 -368 -364
c0 -145 105 -251 266 -251c74 0 142 20 192 61h67c-69 -69 -162 -104 -265 -104c-188 0 -313 125 -313 289c0 235 184 412 428 412c186 0 331 -102 331 -280c0 -111 -63 -257 -202 -257c-50 0 -95 18 -104 67c-36 -47 -88 -67 -150 -67c-72 0 -113 38 -113 91zM355 39
c60 0 121 30 138 120l7 37c-9 -11 -26 -17 -48 -20l-78 -12c-55 -8 -86 -30 -86 -72c0 -31 23 -53 67 -53z" />
    <glyph glyph-name="fi.sc" horiz-adv-x="742" 
d="M47 0l88 520h367l-9 -59h-300l-32 -189h240l-10 -57h-240l-36 -215h-68zM539 0l88 520h68l-88 -520h-68z" />
    <glyph glyph-name="fl.sc" horiz-adv-x="960" 
d="M47 0l88 520h367l-9 -59h-300l-32 -189h240l-10 -57h-240l-36 -215h-68zM539 0l88 520h68l-78 -461h279l-9 -59h-348z" />
    <glyph glyph-name="dotlessj" unicode="&#xf6be;" horiz-adv-x="228" 
d="M21 -84l99 572h67l-100 -584c-13 -76 -59 -124 -147 -124h-30l9 59h27c44 0 66 23 75 77z" />
    <glyph glyph-name="t_t" horiz-adv-x="600" 
d="M357 140l49 293h-217l-49 -289c-9 -58 3 -85 60 -85h60l-9 -59h-66c-96 0 -130 49 -114 140l49 293h-94l9 55h95l25 148h68l-25 -148h218l25 148h68l-25 -148h132l-9 -55h-132l-49 -289c-10 -58 3 -85 59 -85h62l-9 -59h-67c-96 0 -130 49 -114 140z" />
    <glyph glyph-name="t_f" horiz-adv-x="577" 
d="M26 433l9 55h95l25 148h68l-25 -148h221l15 86c18 106 78 158 182 158h53l-9 -59h-47c-64 0 -99 -30 -111 -102l-14 -83h122l-9 -55h-123l-73 -433h-68l73 433h-221l-49 -289c-10 -58 4 -85 60 -85h54l-9 -59h-60c-96 0 -129 49 -114 140l49 293h-94z" />
    <glyph glyph-name="caronquoteleft" horiz-adv-x="550" 
d="M293 568l13 74l53 103h31l-43 -97h28l-14 -80h-68z" />
    <glyph glyph-name="caronquoteright" horiz-adv-x="550" 
d="M297 568l43 97h-28l14 80h68l-13 -74l-53 -103h-31z" />
    <glyph glyph-name="slashedzero" horiz-adv-x="568" 
d="M239 -11c-133 0 -188 97 -188 236c0 38 3 78 10 119c33 203 131 355 296 355c133 0 188 -97 188 -236c0 -38 -3 -78 -10 -119c-33 -203 -131 -355 -296 -355zM247 51c114 0 187 112 217 293c7 42 10 81 10 116c0 38 -5 72 -14 98l-298 -473c20 -22 48 -34 85 -34z
M122 228c0 -39 4 -72 14 -98l297 473c-20 22 -48 34 -84 34c-114 0 -187 -112 -217 -293c-7 -42 -10 -81 -10 -116z" />
    <glyph glyph-name="zero.sc" horiz-adv-x="504" 
d="M207 -11c-117 0 -166 79 -166 189c0 28 2 55 7 84c25 150 106 269 248 269c118 0 167 -79 167 -190c0 -27 -2 -54 -7 -83c-26 -150 -107 -269 -249 -269zM215 45c88 0 150 84 173 213c5 29 8 57 8 82c0 85 -35 135 -107 135c-90 0 -151 -83 -173 -213
c-5 -29 -8 -56 -8 -81c0 -84 36 -136 107 -136z" />
    <glyph glyph-name="one.sc" horiz-adv-x="504" 
d="M115 352l-22 50l210 118h49l-79 -464h145l-9 -56h-366l9 56h153l64 382z" />
    <glyph glyph-name="two.sc" horiz-adv-x="504" 
d="M18 0c24 119 74 172 174 226l71 38c69 38 128 62 128 132c0 43 -36 79 -103 79c-74 0 -124 -35 -142 -110h-62c27 123 115 166 207 166c94 0 165 -53 165 -129c0 -105 -79 -137 -156 -178l-71 -39c-90 -48 -113 -79 -125 -129h303l-9 -56h-380z" />
    <glyph glyph-name="three.sc" horiz-adv-x="504" 
d="M37 151h62c-11 -78 50 -109 118 -109c85 0 148 41 148 114c0 54 -47 89 -116 89h-40l9 52h40c70 0 131 37 131 105c0 47 -39 76 -99 76c-63 0 -121 -31 -130 -97h-59c11 94 90 150 192 150c97 0 158 -50 158 -123c0 -62 -41 -115 -109 -136v-3c51 -14 91 -52 91 -110
c0 -113 -97 -170 -222 -170c-97 0 -188 44 -174 162z" />
    <glyph glyph-name="four.sc" horiz-adv-x="504" 
d="M11 127l5 31l1 15l346 347h55l-57 -338h85l-9 -55h-86l-21 -127h-68l21 127h-272zM96 182h197l40 237z" />
    <glyph glyph-name="five.sc" horiz-adv-x="504" 
d="M44 136h68c0 -54 43 -91 111 -91c65 0 117 35 136 89c5 15 8 32 8 51c0 57 -42 95 -108 95c-56 0 -95 -27 -122 -62l-69 6l68 296h325l-9 -59h-267l-39 -171h3c25 27 66 46 128 46c91 0 158 -58 158 -145c0 -20 -3 -39 -8 -57c-25 -98 -112 -145 -207 -145
c-91 0 -174 43 -176 147z" />
    <glyph glyph-name="six.sc" horiz-adv-x="504" 
d="M42 168c0 27 2 53 6 80c33 208 135 283 251 283c89 0 161 -41 162 -142h-64c0 47 -31 86 -101 86c-79 0 -146 -54 -177 -224c26 51 85 85 157 85c95 0 158 -58 158 -146c0 -18 -3 -37 -7 -54c-25 -92 -109 -147 -204 -147c-123 0 -180 67 -181 179zM118 139
c0 -59 39 -94 107 -94c63 0 114 35 133 91c5 15 8 31 8 48c0 58 -39 97 -107 97c-80 0 -141 -59 -141 -142z" />
    <glyph glyph-name="seven.sc" horiz-adv-x="504" 
d="M96 0l322 458h-329l11 62h405l-6 -43l-332 -477h-71z" />
    <glyph glyph-name="eight.sc" horiz-adv-x="504" 
d="M30 117c0 80 61 137 137 156v2c-42 16 -68 48 -68 95c0 96 84 161 194 161c100 0 158 -50 158 -123c0 -61 -41 -115 -109 -135v-3c51 -15 91 -56 91 -111c0 -111 -97 -170 -222 -170c-106 0 -181 44 -181 128zM98 126c0 -54 45 -84 116 -84c73 0 132 30 147 84
c3 10 4 19 4 30c0 54 -46 89 -116 89c-66 0 -130 -31 -147 -89c-3 -9 -4 -19 -4 -30zM259 297c59 0 110 27 126 75c3 9 4 19 4 30c0 47 -40 76 -99 76s-111 -26 -126 -76c-3 -8 -4 -19 -4 -29c0 -46 38 -76 99 -76z" />
    <glyph glyph-name="nine.sc" horiz-adv-x="504" 
d="M38 131h65c0 -47 30 -86 100 -86c78 0 145 54 175 220c-27 -49 -82 -81 -152 -81c-95 0 -160 58 -160 146c0 18 2 37 7 54c24 92 111 147 206 147c117 0 175 -72 177 -180c1 -28 -1 -53 -5 -79c-33 -208 -135 -283 -251 -283c-89 0 -161 41 -162 142zM382 383
c0 53 -43 92 -107 92s-114 -35 -134 -91c-5 -15 -8 -31 -8 -48c0 -58 39 -97 107 -97c79 0 142 56 142 144z" />
    <glyph glyph-name="slashedzero.sc" horiz-adv-x="504" 
d="M207 -11c-117 0 -166 79 -166 189c0 28 2 55 7 84c25 150 106 269 248 269c118 0 167 -79 167 -190c0 -27 -2 -54 -7 -83c-26 -150 -107 -269 -249 -269zM215 45c88 0 150 84 173 213c5 29 8 57 8 82c0 31 -5 58 -15 79l-230 -354c17 -13 38 -20 64 -20zM108 181
c0 -31 4 -58 14 -79l230 354c-17 12 -37 19 -63 19c-90 0 -151 -83 -173 -213c-5 -29 -8 -56 -8 -81z" />
    <glyph glyph-name="currency.sc" horiz-adv-x="504" 
d="M61 64l-33 38l72 61c-11 21 -17 45 -17 71c0 48 20 94 53 129l-49 60l41 33l49 -59c29 18 64 30 100 30c38 0 69 -12 93 -32l70 63l34 -38l-73 -62c12 -21 18 -45 18 -70c0 -48 -21 -95 -54 -130l50 -59l-41 -33l-49 59c-30 -19 -64 -30 -100 -30c-38 0 -70 12 -93 31z
M231 145c72 0 132 62 132 140c0 56 -37 92 -92 92c-72 0 -132 -62 -132 -140c0 -56 37 -92 92 -92z" />
    <glyph glyph-name="dollar.sc" horiz-adv-x="504" 
d="M32 147h65c-6 -76 55 -105 122 -105c75 0 139 31 139 102c0 44 -29 69 -87 85l-75 21c-58 17 -112 51 -112 121c0 90 69 151 177 159l15 86h62l-15 -88c73 -12 129 -58 128 -140h-64c0 56 -47 90 -111 90c-73 0 -124 -33 -124 -97c0 -41 32 -60 86 -75l75 -22
c75 -21 116 -62 116 -128c0 -101 -81 -159 -195 -166l-16 -90h-61l16 91c-82 11 -147 59 -141 156z" />
    <glyph glyph-name="cent.sc" horiz-adv-x="504" 
d="M61 228c0 15 2 30 4 44c18 101 95 176 202 185l13 74h61l-13 -77c67 -12 124 -54 128 -131h-68c-3 44 -39 80 -102 80c-82 0 -136 -57 -150 -131c-3 -13 -4 -27 -4 -41c0 -63 40 -109 110 -109c76 0 113 40 129 82h65c-20 -69 -85 -128 -173 -137l-14 -78h-62l14 80
c-88 14 -140 77 -140 159z" />
    <glyph glyph-name="Euro.sc" horiz-adv-x="504" 
d="M37 299l15 38h52c37 110 114 194 233 194c99 0 154 -62 155 -148h-61c-2 54 -38 92 -100 92c-74 0 -130 -55 -160 -138h173l-15 -38h-169c-3 -12 -5 -25 -7 -38c-2 -12 -3 -23 -4 -35h160l-15 -38h-146v-1c0 -88 38 -142 114 -142c60 0 96 31 120 79h62
c-32 -80 -88 -135 -188 -135c-115 0 -176 80 -176 192v7h-75l15 38h60c1 11 3 23 5 35c2 13 5 25 8 38h-56z" />
    <glyph glyph-name="yen.sc" horiz-adv-x="504" 
d="M76 188l6 38h126l-138 294h80l106 -238h3l187 238h77l-237 -294h123l-6 -38h-128l-10 -62h128l-6 -37h-128l-14 -89h-68l14 89h-131l6 37h131l10 62h-131z" />
    <glyph glyph-name="sterling.sc" horiz-adv-x="504" 
d="M66 248l6 42h77c-8 26 -14 53 -14 80c0 99 69 161 174 161c81 0 141 -45 136 -135h-61c2 50 -33 82 -84 82c-61 0 -99 -40 -99 -107c0 -28 8 -54 16 -81h140l-6 -42h-122c3 -15 6 -31 6 -47c0 -31 -9 -68 -25 -101c35 -29 67 -57 106 -57c46 0 62 35 74 81h56
c-19 -76 -49 -132 -133 -132c-54 0 -91 35 -127 68c-28 -39 -68 -68 -115 -68c-52 0 -83 29 -83 71c0 55 44 91 104 91c27 0 51 -9 73 -22c4 19 6 38 6 54c0 21 -4 42 -9 62h-96zM75 30c36 0 61 27 76 61c-19 14 -39 24 -61 24c-40 0 -58 -25 -58 -48c0 -20 14 -37 43 -37z
" />
    <glyph glyph-name="florin.sc" horiz-adv-x="504" 
d="M94 223l3 44h106l22 134c15 93 65 130 139 130c73 0 115 -38 104 -121l-4 -29h-59l4 26c7 47 -8 74 -48 74c-39 0 -60 -27 -68 -80l-22 -134h127l-3 -44h-131l-40 -244c-15 -93 -66 -130 -139 -130s-115 38 -104 121l4 29h59l-4 -26c-7 -47 8 -74 48 -74
c39 0 59 27 68 80l40 244h-102z" />
    <glyph glyph-name="zero.TOSF" horiz-adv-x="568" 
d="M39 191c0 178 131 308 282 308c127 0 201 -80 201 -202c0 -178 -131 -308 -282 -308c-127 0 -201 80 -201 202zM110 197c0 -91 52 -149 136 -149c107 0 205 101 205 243c0 91 -52 149 -136 149c-107 0 -205 -101 -205 -243z" />
    <glyph glyph-name="one.TOSF" horiz-adv-x="568" 
d="M122 293l-28 52l231 143h52l-73 -429h177l-9 -59h-432l9 59h187l57 337z" />
    <glyph glyph-name="two.TOSF" horiz-adv-x="568" 
d="M26 0c22 133 102 196 202 228l80 26c68 22 130 43 130 107c0 40 -39 82 -127 82c-93 0 -151 -39 -173 -125h-62c25 129 125 181 241 181c111 0 189 -50 189 -138c0 -107 -100 -134 -177 -160l-77 -26c-66 -22 -125 -63 -134 -116h344l-9 -59h-427z" />
    <glyph glyph-name="three.TOSF" horiz-adv-x="568" 
d="M1 5h65c-15 -94 32 -157 141 -157c99 0 191 58 191 162c0 70 -59 117 -144 117h-51l12 58h52c89 0 163 62 163 147c0 69 -51 108 -123 108c-83 0 -151 -43 -167 -138h-64c21 124 112 197 240 197c106 0 179 -63 179 -158c0 -88 -70 -163 -142 -180v-4
c67 -16 113 -73 113 -144c0 -142 -119 -224 -262 -224c-147 0 -224 78 -203 216z" />
    <glyph glyph-name="four.TOSF" horiz-adv-x="568" 
d="M-18 0l9 49l411 440h56l-73 -430h104l-9 -59h-105l-33 -200h-68l33 200h-325zM70 59h247l52 315z" />
    <glyph glyph-name="five.TOSF" horiz-adv-x="568" 
d="M14 -20h68c1 -66 42 -132 143 -132c82 0 150 49 176 128c8 22 12 46 12 72c0 83 -59 133 -134 133c-60 0 -113 -26 -161 -80l-63 3l84 384h381l-9 -62h-319l-57 -245h3c40 40 91 59 156 59c109 0 190 -69 190 -186c0 -28 -5 -54 -12 -78c-31 -117 -135 -187 -251 -187
c-123 0 -206 70 -207 191z" />
    <glyph glyph-name="six.TOSF" horiz-adv-x="568" 
d="M53 218c0 30 1 63 6 99c37 252 159 382 313 382c113 0 188 -59 182 -183h-68c4 83 -47 124 -121 124c-114 0 -201 -113 -234 -317c32 69 110 117 201 117c114 0 190 -72 190 -185c0 -32 -5 -61 -13 -88c-34 -109 -134 -178 -252 -178c-115 0 -204 64 -204 229zM126 180
c0 -78 56 -132 137 -132c76 0 143 48 172 119c10 24 16 51 16 82c0 80 -54 132 -133 132c-102 0 -192 -81 -192 -201z" />
    <glyph glyph-name="seven.TOSF" horiz-adv-x="568" 
d="M75 -200l393 626h-386l9 62h466l-9 -49l-399 -639h-74z" />
    <glyph glyph-name="eight.TOSF" horiz-adv-x="568" 
d="M31 159c0 97 79 176 176 198v4c-54 16 -91 68 -91 134c0 118 108 204 237 204c115 0 185 -63 185 -164c0 -81 -67 -156 -144 -175v-3c68 -16 115 -72 115 -145c0 -139 -123 -223 -269 -223c-128 0 -209 67 -209 170zM99 165c0 -72 61 -117 147 -117c101 0 195 59 195 161
c0 71 -59 118 -147 118c-104 0 -195 -62 -195 -162zM307 385c92 0 166 62 166 147c0 69 -51 111 -126 111c-87 0 -166 -57 -166 -148c0 -64 46 -110 126 -110z" />
    <glyph glyph-name="nine.TOSF" horiz-adv-x="568" 
d="M11 -28h67c-4 -83 47 -124 121 -124c114 0 199 112 233 314c-33 -68 -110 -114 -200 -114c-114 0 -190 72 -190 185c0 32 5 61 14 88c34 109 133 178 251 178c115 0 204 -64 204 -229c0 -30 0 -63 -5 -99c-38 -252 -159 -382 -313 -382c-114 0 -188 59 -182 183zM438 308
c0 74 -51 132 -137 132c-76 0 -143 -48 -172 -119c-10 -24 -16 -51 -16 -82c0 -80 54 -132 134 -132c101 0 191 81 191 201z" />
    <glyph glyph-name="slashedzero.TOSF" horiz-adv-x="568" 
d="M39 191c0 178 131 308 282 308c127 0 201 -80 201 -202c0 -178 -131 -308 -282 -308c-127 0 -201 80 -201 202zM110 197c0 -33 7 -62 20 -85l271 300c-23 18 -52 28 -86 28c-107 0 -205 -101 -205 -243zM451 291c0 33 -7 61 -20 84l-271 -300c23 -18 51 -27 86 -27
c107 0 205 101 205 243z" />
    <glyph glyph-name="zero.PPF" horiz-adv-x="562" 
d="M50 223c0 37 3 78 10 121c34 203 129 355 294 355c129 0 186 -96 186 -234c0 -37 -3 -78 -10 -121c-34 -203 -132 -355 -296 -355c-131 0 -184 96 -184 234zM243 51c112 0 185 113 216 293c7 43 11 84 11 118c0 111 -42 175 -126 175c-112 0 -182 -113 -213 -293
c-7 -43 -11 -84 -11 -118c0 -111 39 -175 123 -175z" />
    <glyph glyph-name="one.PPF" horiz-adv-x="324" 
d="M86 514l-27 53l199 121h53l-118 -688h-68l103 600z" />
    <glyph glyph-name="two.PPF" horiz-adv-x="516" 
d="M2 0c30 154 87 221 205 291l88 52c84 50 148 91 148 187c0 62 -43 110 -120 110c-90 0 -147 -48 -172 -155h-62c30 162 140 214 243 214s179 -57 179 -163c0 -131 -90 -185 -176 -236l-88 -52c-118 -70 -144 -122 -159 -189h358l-9 -59h-435z" />
    <glyph glyph-name="three.PPF" horiz-adv-x="532" 
d="M29 205h65c-17 -97 35 -157 136 -157c100 0 186 60 186 162c0 72 -59 117 -139 117h-47l12 58h48c81 0 158 59 158 148c0 68 -51 107 -119 107c-78 0 -146 -42 -160 -138h-65c20 124 112 197 234 197c103 0 175 -63 175 -157c0 -90 -68 -163 -139 -181v-4
c64 -15 110 -70 110 -144c0 -139 -113 -224 -257 -224c-140 0 -220 75 -198 216z" />
    <glyph glyph-name="four.PPF" horiz-adv-x="534" 
d="M11 182l9 49l407 458h55l-76 -448h101l-9 -59h-102l-30 -182h-68l30 182h-317zM98 241h240l56 331z" />
    <glyph glyph-name="five.PPF" horiz-adv-x="514" 
d="M20 180h68c0 -66 39 -132 137 -132s178 84 178 202c0 80 -51 131 -126 131c-57 0 -105 -24 -149 -80l-63 3l86 384h359l-9 -62h-297l-58 -245h3c31 39 81 59 143 59c110 0 182 -70 182 -184c0 -159 -119 -267 -252 -267c-122 0 -202 70 -202 191z" />
    <glyph glyph-name="six.PPF" horiz-adv-x="544" 
d="M53 217c0 28 1 59 5 93c36 250 150 389 303 389c111 0 183 -59 177 -183h-68c4 84 -44 124 -115 124c-111 0 -189 -116 -222 -309c34 66 106 109 191 109c111 0 181 -70 181 -184c0 -159 -118 -267 -251 -267c-115 0 -201 62 -201 228zM125 179c0 -81 52 -131 132 -131
c100 0 178 84 178 202c0 80 -50 131 -125 131c-100 0 -185 -83 -185 -202z" />
    <glyph glyph-name="seven.PPF" horiz-adv-x="448" 
d="M17 0l401 626h-339l9 62h419l-9 -49l-406 -639h-75z" />
    <glyph glyph-name="eight.PPF" horiz-adv-x="530" 
d="M17 158c0 99 79 178 172 199v4c-49 16 -87 67 -87 133c0 116 104 205 233 205c110 0 179 -62 179 -162c0 -83 -67 -157 -140 -176v-4c66 -17 111 -71 111 -144c0 -138 -117 -224 -263 -224c-127 0 -205 66 -205 169zM85 164c0 -72 60 -116 143 -116c102 0 189 61 189 162
c0 71 -58 117 -142 117c-98 0 -190 -61 -190 -163zM288 385c85 0 161 60 161 149c0 67 -51 109 -120 109c-87 0 -162 -60 -162 -149c0 -65 50 -109 121 -109z" />
    <glyph glyph-name="nine.PPF" horiz-adv-x="544" 
d="M43 172h68c-5 -84 44 -124 115 -124c113 0 185 115 218 308c-34 -66 -105 -108 -190 -108c-111 0 -181 70 -181 184c0 159 118 267 251 267c115 0 201 -62 201 -228c0 -28 -1 -59 -5 -93c-36 -250 -139 -389 -294 -389c-112 0 -189 59 -183 183zM453 509
c0 88 -61 131 -132 131c-100 0 -178 -84 -178 -202c0 -80 50 -131 125 -131c99 0 185 83 185 202z" />
    <glyph glyph-name="slashedzero.PPF" horiz-adv-x="562" 
d="M234 -11c-131 0 -184 96 -184 234c0 37 3 78 10 121c34 203 129 355 294 355c129 0 186 -96 186 -234c0 -37 -3 -78 -10 -121c-34 -203 -132 -355 -296 -355zM243 51c112 0 185 113 216 293c7 43 11 84 11 118c0 37 -5 69 -15 95l-296 -471c20 -23 47 -35 84 -35z
M120 226c0 -37 4 -69 13 -95l296 471c-21 23 -49 35 -85 35c-112 0 -182 -113 -213 -293c-7 -43 -11 -84 -11 -118z" />
    <glyph glyph-name="currency.PPF" horiz-adv-x="474" 
d="M62 145l-32 38l71 61c-11 21 -17 45 -17 71c0 48 20 94 53 129l-49 60l41 33l49 -59c29 18 64 30 100 30c38 0 70 -13 93 -32l71 62l32 -37l-72 -62c12 -21 18 -45 18 -70c0 -48 -21 -95 -54 -130l50 -59l-40 -33l-50 59c-29 -19 -64 -30 -100 -30c-38 0 -70 12 -93 31z
M232 226c72 0 132 62 132 140c0 56 -37 92 -92 92c-72 0 -132 -62 -132 -140c0 -56 37 -92 92 -92z" />
    <glyph glyph-name="dollar.PPF" horiz-adv-x="512" 
d="M10 188h68c-9 -94 49 -143 138 -143c97 0 171 60 171 153c0 60 -36 90 -97 111l-87 30c-66 23 -124 63 -124 154c0 113 85 193 205 204l18 107h68l-18 -108c85 -14 152 -76 145 -176h-67c1 82 -53 123 -126 123c-82 0 -154 -49 -154 -141c0 -58 34 -82 98 -104l87 -30
c79 -28 122 -80 122 -162c0 -124 -94 -206 -224 -216l-18 -110h-68l19 112c-100 12 -166 77 -156 196z" />
    <glyph glyph-name="cent.PPF" horiz-adv-x="509" 
d="M190 -11l18 106c-100 15 -157 92 -157 200c0 149 89 290 240 306l17 98h67l-16 -99c82 -13 141 -70 143 -169h-68c-4 66 -46 113 -121 113c-104 0 -188 -99 -188 -243c0 -91 49 -149 132 -149c72 0 124 50 151 113h68c-29 -92 -98 -159 -201 -171l-17 -105h-68z" />
    <glyph glyph-name="Euro.PPF" horiz-adv-x="587" 
d="M49 403l12 44h73c49 147 148 252 288 252c121 0 182 -71 189 -179h-65c-9 77 -51 123 -130 123c-95 0 -169 -76 -211 -196h208l-12 -44h-209c-9 -34 -14 -69 -18 -107h202l-12 -44h-192v-13c0 -119 49 -194 144 -194c70 0 123 37 158 103h65
c-48 -106 -117 -159 -232 -159c-139 0 -206 108 -206 253v10h-84l12 44h74c2 35 10 71 18 107h-72z" />
    <glyph glyph-name="yen.PPF" horiz-adv-x="516" 
d="M69 257l8 44h153v1l-158 386h74l128 -321h3l237 321h74l-290 -386v-1h156l-9 -44h-154l-15 -88h155l-9 -44h-153l-21 -125h-68l21 125h-156l9 44h154l15 88h-154z" />
    <glyph glyph-name="sterling.PPF" horiz-adv-x="540" 
d="M72 332l6 49h85c-6 34 -10 68 -10 101c0 134 74 217 199 217c109 0 161 -70 150 -175h-65c9 60 -16 119 -91 119c-74 0 -125 -53 -125 -152c0 -37 6 -73 13 -110h161l-6 -49h-147c2 -20 4 -40 4 -61c0 -47 -12 -101 -33 -148c45 -36 86 -75 137 -75c55 0 84 42 101 116
h59c-21 -83 -54 -175 -163 -175c-63 0 -112 47 -158 88c-34 -51 -81 -88 -139 -88s-91 35 -91 81c0 68 51 114 122 114c31 0 58 -10 83 -25c9 35 14 70 14 94c0 26 -3 52 -7 79h-99zM56 30c41 0 71 36 91 81c-23 17 -47 29 -72 29c-38 0 -66 -28 -66 -63
c0 -29 16 -47 47 -47z" />
    <glyph glyph-name="florin.PPF" horiz-adv-x="483" 
d="M62 305l6 50h127l32 181c20 113 83 163 165 163c81 0 133 -44 114 -166l-4 -25h-62l4 25c13 79 -11 110 -58 110c-49 0 -79 -36 -91 -107l-32 -181h156l-6 -50h-159l-59 -334c-20 -114 -83 -163 -165 -163c-80 0 -133 44 -114 166l4 25h62l-4 -25
c-12 -79 11 -110 58 -110c49 0 79 36 91 107l59 334h-124z" />
    <glyph glyph-name="zero.scppf" horiz-adv-x="506" 
d="M44 181c0 26 2 53 6 81c24 150 109 269 248 269c115 0 164 -80 164 -193c0 -26 -2 -53 -6 -80c-24 -150 -110 -269 -249 -269c-114 0 -163 80 -163 192zM216 45c85 0 146 84 169 213c5 28 7 54 7 79c0 86 -33 138 -102 138c-87 0 -148 -83 -169 -213
c-5 -28 -7 -54 -7 -79c0 -86 34 -138 102 -138z" />
    <glyph glyph-name="one.scppf" horiz-adv-x="303" 
d="M55 371l-22 49l174 100h49l-88 -520h-68l73 438z" />
    <glyph glyph-name="two.scppf" horiz-adv-x="452" 
d="M-2 0c24 119 75 171 174 226l72 40c69 38 120 63 120 131c0 43 -35 78 -99 78c-72 0 -120 -35 -137 -110h-61c25 123 110 166 201 166c92 0 161 -52 161 -128c0 -104 -71 -136 -148 -178l-72 -40c-90 -49 -113 -80 -125 -129h298l-9 -56h-375z" />
    <glyph glyph-name="three.scppf" horiz-adv-x="454" 
d="M15 151h61c-10 -74 46 -109 115 -109c79 0 142 42 142 114c0 54 -48 89 -112 89h-37l9 52h37c64 0 126 37 126 105c0 47 -39 76 -94 76c-62 0 -117 -30 -125 -97h-59c10 95 87 150 184 150c95 0 156 -50 156 -123c0 -62 -41 -115 -104 -136v-3c47 -12 87 -55 87 -110
c0 -113 -98 -170 -216 -170c-96 0 -184 46 -170 162z" />
    <glyph glyph-name="four.scppf" horiz-adv-x="462" 
d="M2 158l2 16l343 347h55l-57 -338h83l-10 -56h-83l-21 -127h-68l21 127h-270zM83 183h194l39 235z" />
    <glyph glyph-name="five.scppf" horiz-adv-x="456" 
d="M26 134h67c0 -50 36 -89 107 -89c74 0 142 53 142 143c0 59 -45 93 -103 93c-54 0 -89 -25 -119 -63l-68 6l68 296h316l-10 -59h-257l-40 -172h3c28 30 65 47 128 47c83 0 149 -54 149 -142c0 -137 -103 -205 -212 -205c-93 0 -170 43 -171 145z" />
    <glyph glyph-name="six.scppf" horiz-adv-x="482" 
d="M44 167c0 27 1 54 5 81c34 208 129 283 245 283c89 0 159 -41 161 -142h-65c0 46 -29 86 -98 86c-76 0 -139 -52 -171 -219c27 49 82 80 150 80c93 0 156 -57 156 -143c0 -130 -102 -204 -211 -204c-122 0 -170 71 -172 178zM119 141c0 -64 43 -96 101 -96
c77 0 139 55 139 142c0 57 -38 93 -101 93c-77 0 -139 -52 -139 -139z" />
    <glyph glyph-name="seven.scppf" horiz-adv-x="406" 
d="M22 0l321 458h-282l11 62h359l-6 -43l-332 -477h-71z" />
    <glyph glyph-name="eight.scppf" horiz-adv-x="470" 
d="M17 118c0 76 57 135 132 155v2c-37 17 -64 48 -64 96c0 96 88 160 191 160c96 0 153 -50 153 -124c0 -61 -41 -114 -104 -135v-3c47 -15 87 -55 87 -110c0 -110 -99 -170 -218 -170c-101 0 -177 44 -177 129zM85 127c0 -55 46 -85 112 -85c79 0 147 42 147 114
c0 54 -46 89 -112 89c-80 0 -147 -47 -147 -118zM242 297c63 0 125 37 125 105c0 47 -40 76 -94 76c-62 0 -126 -35 -126 -105c0 -47 39 -76 95 -76z" />
    <glyph glyph-name="nine.scppf" horiz-adv-x="485" 
d="M30 131h65c0 -46 32 -86 101 -86c76 0 138 54 168 219c-27 -49 -83 -80 -150 -80c-93 0 -156 57 -156 143c0 130 102 204 211 204c116 0 171 -71 172 -178c0 -27 -1 -54 -6 -81c-33 -208 -128 -283 -242 -283c-88 0 -162 41 -163 142zM366 379c0 64 -44 96 -102 96
c-76 0 -138 -55 -138 -142c0 -57 38 -93 101 -93c77 0 139 52 139 139z" />
    <glyph glyph-name="slashedzero.scppf" horiz-adv-x="506" 
d="M44 181c0 26 2 53 6 81c24 150 109 269 248 269c115 0 164 -80 164 -193c0 -26 -2 -53 -6 -80c-24 -150 -110 -269 -249 -269c-114 0 -163 80 -163 192zM216 45c85 0 146 84 169 213c5 28 7 54 7 79c0 30 -4 56 -13 77l-227 -347c16 -14 37 -22 64 -22zM114 183
c0 -29 4 -54 11 -75l227 346c-16 14 -37 21 -62 21c-87 0 -148 -83 -169 -213c-5 -28 -7 -54 -7 -79z" />
    <glyph glyph-name="currency.scppf" horiz-adv-x="466" 
d="M41 64l-33 38l72 61c-11 21 -17 45 -17 71c0 47 20 94 53 129l-49 60l40 33l49 -59c30 19 65 30 101 30c38 0 69 -12 93 -32l70 63l33 -38l-73 -62c12 -21 18 -45 18 -70c0 -48 -21 -94 -53 -129l49 -60l-40 -33l-50 59c-29 -19 -64 -30 -100 -30c-38 0 -70 12 -93 31z
M210 145c73 0 132 62 132 140c0 56 -36 92 -91 92c-73 0 -132 -62 -132 -140c0 -56 36 -92 91 -92z" />
    <glyph glyph-name="dollar.scppf" horiz-adv-x="451" 
d="M16 144h65c-6 -73 51 -102 113 -102c67 0 132 32 132 103c0 44 -29 67 -83 83l-71 22c-58 17 -102 52 -102 122c0 89 69 150 169 158l15 86h62l-15 -89c66 -12 121 -57 120 -135h-65c0 53 -47 86 -102 86c-65 0 -116 -32 -116 -97c0 -39 24 -60 76 -76l71 -21
c72 -21 112 -60 112 -127c0 -98 -77 -156 -179 -166l-15 -91h-62l16 91c-81 8 -148 55 -141 153z" />
    <glyph glyph-name="cent.scppf" horiz-adv-x="445" 
d="M34 227c0 15 2 30 4 45c18 101 93 176 198 185l12 74h62l-13 -77c64 -13 121 -55 125 -131h-68c-4 44 -40 79 -99 79c-80 0 -132 -56 -146 -130c-3 -14 -4 -28 -4 -43c0 -62 38 -107 107 -107c73 0 108 39 125 83h65c-21 -71 -85 -129 -170 -138l-14 -78h-62l15 80
c-87 14 -137 75 -137 158z" />
    <glyph glyph-name="Euro.scppf" horiz-adv-x="502" 
d="M31 299l15 38h51c37 110 116 194 240 194c105 0 160 -62 167 -148h-62c-7 54 -41 92 -108 92c-79 0 -137 -56 -167 -138h171l-15 -38h-168c-7 -22 -10 -47 -12 -73h163l-15 -38h-149c0 -89 41 -143 123 -143c66 0 105 31 128 79h62c-32 -80 -90 -135 -194 -135
c-124 0 -185 84 -187 199h-75l15 38h60c2 23 7 47 13 73h-56z" />
    <glyph glyph-name="yen.scppf" horiz-adv-x="448" 
d="M54 188l6 38h120l-133 294h79l102 -238h3l181 238h77l-230 -294h115l-6 -38h-121l-10 -62h121l-6 -37h-121l-14 -89h-68l14 89h-125l6 37h125l10 62h-125z" />
    <glyph glyph-name="sterling.scppf" horiz-adv-x="479" 
d="M61 248l6 42h81c-7 26 -12 53 -12 80c0 99 65 161 167 161c79 0 136 -45 132 -135h-62c2 50 -30 82 -78 82c-59 0 -94 -40 -94 -107c0 -28 7 -54 14 -81h137l-6 -42h-121c3 -15 5 -31 5 -47c0 -31 -9 -67 -25 -101c35 -28 67 -57 106 -57c46 0 62 35 72 81h56
c-17 -76 -48 -132 -131 -132c-54 0 -91 35 -127 68c-28 -39 -68 -68 -115 -68c-52 0 -82 29 -82 71c0 55 44 91 104 91c27 0 50 -9 72 -21c4 18 6 37 6 53c0 21 -3 42 -8 62h-97zM70 30c36 0 61 27 76 61c-19 14 -38 24 -60 24c-40 0 -58 -25 -58 -48c0 -20 13 -37 42 -37z
" />
    <glyph glyph-name="florin.scppf" horiz-adv-x="427" 
d="M53 223l3 44h106l22 134c15 93 65 130 139 130c73 0 113 -38 103 -121l-3 -29h-59l4 26c7 47 -8 74 -48 74c-39 0 -60 -27 -68 -80l-22 -134h127l-3 -44h-131l-40 -244c-15 -93 -66 -130 -139 -130s-115 38 -104 121l4 29h59l-4 -26c-7 -47 8 -74 48 -74
c39 0 59 27 68 80l40 244h-102z" />
    <glyph glyph-name="slashedzero.oldstyle" horiz-adv-x="574" 
d="M33 195c0 177 138 304 291 304c131 0 210 -82 210 -206c0 -177 -138 -304 -291 -304c-131 0 -210 82 -210 206zM104 201c0 -37 8 -69 25 -94l276 307c-23 17 -53 26 -87 26c-110 0 -214 -98 -214 -239zM463 287c0 36 -9 68 -25 93l-276 -307c23 -16 53 -25 87 -25
c110 0 214 98 214 239z" />
    <glyph glyph-name="plus.sc" horiz-adv-x="504" 
d="M55 233l10 59h161l28 165h62l-28 -165h161l-10 -59h-161l-28 -166h-62l28 166h-161z" />
    <glyph glyph-name="minus.sc" horiz-adv-x="504" 
d="M55 233l10 59h384l-10 -59h-384z" />
    <glyph glyph-name="multiply.sc" horiz-adv-x="504" 
d="M87 83l-34 41l162 141l-109 141l41 35l108 -141l161 141l33 -40l-162 -142l109 -140l-41 -35l-108 139z" />
    <glyph glyph-name="divide.sc" horiz-adv-x="504" 
d="M237 369l15 86h68l-15 -86h-68zM55 233l10 59h384l-10 -59h-384zM184 67l15 86h68l-15 -86h-68z" />
    <glyph glyph-name="equal.sc" horiz-adv-x="504" 
d="M69 316l11 59h384l-11 -59h-384zM41 150l10 59h384l-10 -59h-384z" />
    <glyph glyph-name="less.sc" horiz-adv-x="504" 
d="M67 236l9 56l386 157l-9 -62l-310 -124l267 -122l-9 -59z" />
    <glyph glyph-name="greater.sc" horiz-adv-x="504" 
d="M94 387l9 59l335 -154l-9 -56l-387 -157l9 62l310 123z" />
    <glyph glyph-name="plusminus.sc" horiz-adv-x="504" 
d="M77 248l9 56h141l24 137h59l-24 -137h143l-9 -56h-143l-24 -138h-59l24 138h-141zM34 0l9 56h343l-9 -56h-343z" />
    <glyph glyph-name="lessequal.sc" horiz-adv-x="504" 
d="M76 248l9 56l367 133l-10 -59l-292 -102l257 -102l-10 -56zM34 0l9 56h343l-10 -56h-342z" />
    <glyph glyph-name="greaterequal.sc" horiz-adv-x="504" 
d="M102 378l10 56l321 -130l-8 -56l-368 -133l10 59l291 102zM38 0l9 56h343l-10 -56h-342z" />
    <glyph glyph-name="notequal.sc" horiz-adv-x="504" 
d="M69 316l11 59h227l80 105l39 -25l-61 -80h99l-11 -59h-133l-81 -107h196l-10 -59h-230l-79 -104l-40 25l60 79h-95l10 59h130l81 107h-193z" />
    <glyph glyph-name="logicalnot.sc" horiz-adv-x="504" 
d="M55 233l10 59h384l-38 -224h-62l27 165h-321z" />
    <glyph glyph-name="asciitilde.sc" horiz-adv-x="504" 
d="M53 201c15 88 69 125 122 125c77 0 107 -62 162 -62c31 0 51 21 59 63h55c-15 -88 -67 -122 -121 -122c-73 0 -106 62 -162 62c-30 0 -52 -24 -59 -66h-56z" />
    <glyph glyph-name="approxequal.sc" horiz-adv-x="504" 
d="M67 283c15 88 69 125 122 125c76 0 108 -62 162 -62c31 0 51 21 58 63h56c-14 -87 -67 -122 -121 -122c-72 0 -106 62 -162 62c-30 0 -52 -24 -59 -66h-56zM38 113c15 87 69 125 122 125c77 0 107 -62 161 -62c31 0 53 21 59 63h56c-15 -87 -68 -122 -122 -122
c-72 0 -106 62 -161 62c-30 0 -52 -24 -59 -66h-56z" />
    <glyph glyph-name="infinity.sc" horiz-adv-x="605" 
d="M139 127c-70 0 -118 43 -118 106c0 98 68 160 155 160c61 0 108 -41 133 -92c41 51 96 92 157 92c69 0 118 -43 118 -106c0 -98 -68 -160 -155 -160c-61 0 -108 40 -134 91c-40 -51 -95 -91 -156 -91zM435 177c52 0 96 42 96 101c0 40 -29 65 -71 65
c-49 0 -96 -44 -127 -83c18 -39 52 -83 102 -83zM145 177c49 0 96 44 127 83c-18 39 -53 83 -101 83c-53 0 -97 -42 -97 -101c0 -40 29 -65 71 -65z" />
    <glyph glyph-name="numbersign.sc" horiz-adv-x="499" 
d="M36 353v50h103l21 117h59l-21 -117h153l21 117h59l-21 -117h85l-1 -50h-92l-32 -174h94l-1 -50h-101l-23 -129h-59l23 129h-153l-23 -129h-59l23 129h-86v50h94l31 174h-94zM190 353l-32 -174h153l31 174h-152z" />
    <glyph glyph-name="percent.sc" horiz-adv-x="578" 
d="M73 -8l387 536h45l-390 -536h-42zM135 251c-65 0 -96 39 -96 97c0 12 2 26 4 40c14 79 55 137 130 137c65 0 96 -39 96 -97c0 -12 -2 -26 -4 -40c-14 -79 -55 -137 -130 -137zM170 484c-40 0 -65 -35 -76 -96c-2 -13 -4 -26 -4 -37c0 -38 16 -59 48 -59c40 0 65 35 76 96
c2 13 4 26 4 37c0 38 -16 59 -48 59zM401 -9c-65 0 -95 39 -95 97c0 12 2 26 4 40c14 79 54 137 130 137c65 0 95 -39 95 -97c0 -12 -2 -26 -4 -40c-14 -79 -54 -137 -130 -137zM437 224c-41 0 -66 -35 -77 -96c-2 -13 -4 -26 -4 -37c0 -38 16 -59 48 -59c41 0 66 35 77 96
c2 13 4 26 4 37c0 38 -16 59 -48 59z" />
    <glyph glyph-name="perthousand.sc" horiz-adv-x="849" 
d="M73 -8l387 536h45l-390 -536h-42zM135 251c-65 0 -96 39 -96 97c0 12 2 26 4 40c14 79 55 137 130 137c65 0 96 -39 96 -97c0 -12 -2 -26 -4 -40c-14 -79 -55 -137 -130 -137zM170 484c-40 0 -65 -35 -76 -96c-2 -13 -4 -26 -4 -37c0 -38 16 -59 48 -59c40 0 65 35 76 96
c2 13 4 26 4 37c0 38 -16 59 -48 59zM401 -9c-65 0 -95 39 -95 97c0 12 2 26 4 40c14 79 54 137 130 137c65 0 95 -39 95 -97c0 -12 -2 -26 -4 -40c-14 -79 -54 -137 -130 -137zM437 224c-41 0 -66 -35 -77 -96c-2 -13 -4 -26 -4 -37c0 -38 16 -59 48 -59c41 0 66 35 77 96
c2 13 4 26 4 37c0 38 -16 59 -48 59zM673 -9c-65 0 -96 39 -96 97c0 12 2 26 4 40c14 79 55 137 130 137c65 0 96 -39 96 -97c0 -12 -2 -26 -4 -40c-14 -79 -55 -137 -130 -137zM708 224c-40 0 -65 -35 -76 -96c-2 -13 -4 -26 -4 -37c0 -38 16 -59 48 -59c40 0 65 35 76 96
c2 13 4 26 4 37c0 38 -16 59 -48 59z" />
    <glyph glyph-name="hyphen.sc" horiz-adv-x="396" 
d="M57 233l9 61h276l-9 -61h-276z" />
    <glyph glyph-name="endash.sc" horiz-adv-x="556" 
d="M57 233l9 61h433l-9 -61h-433z" />
    <glyph glyph-name="emdash.sc" horiz-adv-x="840" 
d="M57 233l9 61h720l-9 -61h-720z" />
    <glyph glyph-name="dagger.sc" horiz-adv-x="358" 
d="M56 337l8 50h105l23 133h59l-23 -133h109l-8 -50h-109l-57 -337h-59l57 337h-105z" />
    <glyph glyph-name="daggerdbl.sc" horiz-adv-x="358" 
d="M56 343l8 50h106l22 127h59l-22 -127h108l-8 -50h-108l-29 -169h108l-7 -50h-109l-21 -124h-59l21 124h-105l7 50h106l29 169h-106z" />
    <glyph glyph-name="parenleft.sc" horiz-adv-x="279" 
d="M142 -92c-30 56 -60 149 -60 255c0 183 101 357 180 449h59c-79 -93 -177 -274 -177 -452c0 -103 31 -197 57 -252h-59z" />
    <glyph glyph-name="parenright.sc" horiz-adv-x="279" 
d="M17 -92h-59c79 93 177 274 177 452c0 103 -32 197 -57 252h59c30 -56 60 -149 60 -255c0 -183 -101 -357 -180 -449z" />
    <glyph glyph-name="bracketleft.sc" horiz-adv-x="282" 
d="M31 -92l120 704h172l-9 -53h-113l-102 -598h114l-9 -53h-173z" />
    <glyph glyph-name="bracketright.sc" horiz-adv-x="282" 
d="M-33 -39h114l101 598h-113l9 53h173l-120 -704h-172z" />
    <glyph glyph-name="braceleft.sc" horiz-adv-x="303" 
d="M80 31l19 105c13 76 -6 101 -71 106l6 41c67 4 94 31 108 106l19 99c14 78 52 124 143 124h40l-9 -50h-34c-54 0 -74 -21 -84 -74l-21 -114c-12 -61 -41 -94 -104 -110v-3c57 -17 77 -47 64 -119l-20 -111c-9 -52 6 -73 60 -73h34l-6 -50h-40c-91 0 -118 45 -104 123z
" />
    <glyph glyph-name="braceright.sc" horiz-adv-x="303" 
d="M2 -42c53 0 74 21 83 74l22 118c10 61 41 94 104 110v3c-57 16 -77 47 -64 119l19 107c10 52 -6 73 -59 73h-35l6 50h41c91 0 118 -45 103 -123l-18 -101c-14 -76 6 -101 71 -106l-6 -41c-67 -4 -95 -31 -109 -106l-18 -103c-15 -78 -52 -124 -143 -124h-41l9 50h35z" />
    <glyph glyph-name="slash.sc" horiz-adv-x="325" 
d="M27 -12h-61l326 544h60z" />
    <glyph glyph-name="backslash.sc" horiz-adv-x="325" 
d="M201 -12l-140 544h59l140 -544h-59z" />
    <glyph glyph-name="quoteleft.sc" horiz-adv-x="237" 
d="M80 268l16 100l66 152h37l-56 -146h33l-17 -106h-79z" />
    <glyph glyph-name="quotedblleft.sc" horiz-adv-x="409" 
d="M252 268l16 100l66 152h37l-56 -146h32l-16 -106h-79zM80 268l16 100l66 152h37l-56 -146h33l-17 -106h-79z" />
    <glyph glyph-name="quoteright.sc" horiz-adv-x="237" 
d="M82 268l56 146h-32l16 106h80l-16 -100l-66 -152h-38z" />
    <glyph glyph-name="quotedblright.sc" horiz-adv-x="409" 
d="M254 268l56 146h-32l16 106h80l-16 -100l-66 -152h-38zM82 268l56 146h-32l16 106h80l-16 -100l-66 -152h-38z" />
    <glyph glyph-name="guilsinglleft.sc" horiz-adv-x="275" 
d="M139 104l-84 160l137 157h56l-125 -160l69 -157h-53z" />
    <glyph glyph-name="guilsinglright.sc" horiz-adv-x="275" 
d="M26 104l125 160l-68 157h52l84 -160l-136 -157h-57z" />
    <glyph glyph-name="guillemotleft.sc" horiz-adv-x="432" 
d="M297 104l-84 160l137 157h56l-125 -160l69 -157h-53zM139 104l-84 160l137 157h56l-125 -160l69 -157h-53z" />
    <glyph glyph-name="guillemotright.sc" horiz-adv-x="432" 
d="M184 104l125 160l-69 157h53l84 -160l-137 -157h-56zM26 104l125 160l-68 157h52l84 -160l-136 -157h-57z" />
    <glyph glyph-name="quotesingle.sc" horiz-adv-x="208" 
d="M84 268l17 165l14 87h68l-15 -87l-40 -165h-44z" />
    <glyph glyph-name="quotedbl.sc" horiz-adv-x="384" 
d="M260 268l17 165l14 87h68l-15 -87l-40 -165h-44zM84 268l17 165l14 87h68l-15 -87l-40 -165h-44z" />
    <glyph glyph-name="asterisk.sc" horiz-adv-x="450" 
d="M299 528l-37 -140l138 56l9 -53l-143 -32l74 -104l-50 -32l-50 117l-93 -117l-39 32l108 106l-128 30l25 53l119 -55l11 139h56z" />
    <glyph glyph-name="degree.sc" horiz-adv-x="356" 
d="M184 260c-73 0 -121 51 -121 115c0 89 70 156 156 156c72 0 121 -50 121 -115c0 -89 -70 -156 -156 -156zM187 310c53 0 97 42 97 100c0 40 -26 71 -68 71c-53 0 -97 -43 -97 -100c0 -40 26 -71 68 -71z" />
    <glyph glyph-name="bullet.sc" horiz-adv-x="408" 
d="M204 128c-73 0 -132 58 -132 132s59 132 132 132s132 -58 132 -132s-59 -132 -132 -132z" />
    <glyph glyph-name="periodcentered.sc" horiz-adv-x="238" 
d="M68 211l19 105h85l-18 -105h-86z" />
    <glyph glyph-name="paragraph.sc" horiz-adv-x="500" 
d="M302 0l89 520h62l-89 -520h-62zM165 0l34 198c-87 7 -138 56 -138 130c0 114 91 192 217 192h37l-88 -520h-62z" />
    <glyph glyph-name="section.sc" horiz-adv-x="427" 
d="M-5 -54h59c-2 -47 35 -70 89 -70c65 0 112 34 112 84c0 42 -29 57 -67 70l-67 23c-61 22 -90 56 -90 105c0 66 43 114 107 134c-35 20 -57 51 -57 95c0 84 71 141 174 141c80 0 150 -30 146 -116h-58c1 47 -35 70 -90 70c-64 0 -111 -35 -111 -85c0 -42 28 -57 66 -70
l68 -23c61 -21 89 -56 89 -105c0 -66 -43 -114 -107 -134c35 -19 58 -51 58 -94c0 -85 -71 -142 -175 -142c-79 0 -149 31 -146 117zM237 255l-45 15c-60 -11 -102 -48 -102 -97c0 -36 23 -54 70 -70l45 -17c60 13 102 50 102 99c0 35 -23 53 -70 70z" />
    <glyph glyph-name="copyright.sc" horiz-adv-x="611" 
d="M41 264c0 151 109 267 263 267c152 0 266 -116 266 -267s-111 -275 -266 -275c-154 0 -263 124 -263 275zM85 264c0 -127 90 -234 219 -234c127 0 222 107 222 234s-94 226 -222 226c-129 0 -219 -99 -219 -226zM178 264c0 76 46 135 130 135c63 0 105 -38 114 -90h-47
c-7 26 -29 49 -67 49c-52 0 -83 -38 -83 -94c0 -54 32 -94 82 -94c39 0 60 22 67 49h47c-9 -53 -51 -90 -114 -90c-82 0 -129 61 -129 135z" />
    <glyph glyph-name="registered.sc" horiz-adv-x="611" 
d="M41 264c0 151 109 267 263 267c152 0 266 -116 266 -267s-111 -275 -266 -275c-154 0 -263 124 -263 275zM85 264c0 -127 90 -234 219 -234c127 0 222 107 222 234s-94 226 -222 226c-129 0 -219 -99 -219 -226zM201 136v256h122c62 0 95 -32 95 -81
c0 -37 -23 -68 -60 -80l63 -95h-51l-61 90h-58v-90h-50zM317 352h-66v-86h66c34 0 51 17 51 45c0 26 -18 41 -51 41z" />
    <glyph glyph-name="trademark.sc" horiz-adv-x="609" 
d="M270 260l44 260h68l48 -193h2l115 193h66l-44 -260h-48l35 193h-3l-116 -193h-38l-48 194h-3l-30 -194h-48zM42 479l7 41h229l-7 -41h-88l-37 -219h-51l37 219h-90z" />
    <glyph glyph-name="ordfeminine.sc" horiz-adv-x="318" 
d="M242 260l7 47c-22 -35 -57 -52 -98 -52c-59 0 -99 40 -99 106c0 104 69 164 140 164c41 0 75 -22 84 -57l9 52h47l-45 -260h-45zM165 293c51 0 95 54 95 122c0 46 -24 72 -62 72c-50 0 -96 -51 -96 -124c0 -44 25 -70 63 -70z" />
    <glyph glyph-name="ordmasculine.sc" horiz-adv-x="309" 
d="M162 255c-68 0 -110 40 -110 106c0 99 71 164 154 164c68 0 111 -40 111 -106c0 -99 -71 -164 -155 -164zM167 293c54 0 99 52 99 124c0 43 -22 70 -65 70c-54 0 -99 -52 -99 -124c0 -43 22 -70 65 -70z" />
    <glyph glyph-name="bullet.cap" horiz-adv-x="488" 
d="M260 176c-97 0 -172 75 -172 172s75 172 172 172s172 -75 172 -172s-75 -172 -172 -172z" />
    <glyph glyph-name="plus.cap" horiz-adv-x="568" 
d="M71 312l9 59h196l33 197h62l-33 -197h195l-9 -59h-196l-33 -196h-62l33 196h-195z" />
    <glyph glyph-name="minus.cap" horiz-adv-x="568" 
d="M71 312l9 59h454l-9 -59h-454z" />
    <glyph glyph-name="multiply.cap" horiz-adv-x="568" 
d="M106 136l-36 43l191 165l-132 162l47 41l132 -163l189 163l36 -43l-189 -163l133 -162l-47 -41l-133 163z" />
    <glyph glyph-name="divide.cap" horiz-adv-x="568" 
d="M287 468l16 98h74l-16 -98h-74zM71 312l9 59h453l-9 -59h-453zM227 115l16 98h74l-16 -98h-74z" />
    <glyph glyph-name="equal.cap" horiz-adv-x="568" 
d="M88 417l9 59h453l-9 -59h-453zM55 208l9 59h453l-9 -59h-453z" />
    <glyph glyph-name="less.cap" horiz-adv-x="568" 
d="M87 316l9 56l453 183l-9 -65l-379 -148l328 -147l-12 -62z" />
    <glyph glyph-name="greater.cap" horiz-adv-x="568" 
d="M118 493l12 62l390 -183l-9 -56l-453 -183l9 65l378 147z" />
    <glyph glyph-name="plusminus.cap" horiz-adv-x="568" 
d="M70 330l9 58h195l30 182h62l-30 -182h195l-9 -58h-195l-29 -180h-62l29 180h-195zM17 25l10 58h454l-10 -58h-454z" />
    <glyph glyph-name="lessequal.cap" horiz-adv-x="568" 
d="M86 335l9 56l453 183l-9 -64l-379 -148l328 -148l-12 -62zM33 25l9 58h422l-9 -58h-422z" />
    </font>
</defs>
</svg>
